<?xml version="1.0" encoding="iso-8859-1"?>
<!-- Generator: Adobe Illustrator 22.0.0, SVG Export Plug-In . SVG Version: 6.00 Build 0)  -->
<svg version="1.1" id="Capa_1" xmlns="http://www.w3.org/2000/svg" xmlns:xlink="http://www.w3.org/1999/xlink" x="0px" y="0px"
	 viewBox="0 0 510 510" style="enable-background:new 0 0 510 510;" xml:space="preserve">
<g>
	<g>
		<linearGradient id="SVGID_1_" gradientUnits="userSpaceOnUse" x1="371.3106" y1="212.1201" x2="549.0889" y2="324.592">
			<stop  offset="0" style="stop-color:#F9F7FC"/>
			<stop  offset="1" style="stop-color:#F0DDFC"/>
		</linearGradient>
		<path style="fill:url(#SVGID_1_);" d="M433.626,468.674L433.626,468.674c-36.576,0-66.226-29.65-66.226-66.226V64.16h132.451
			v338.289C499.851,439.024,470.201,468.674,433.626,468.674z"/>
		<linearGradient id="SVGID_2_" gradientUnits="userSpaceOnUse" x1="470.3528" y1="212.2317" x2="318.1573" y2="349.8552">
			<stop  offset="0" style="stop-color:#F9F7FC"/>
			<stop  offset="1" style="stop-color:#F0DDFC"/>
		</linearGradient>
		<path style="fill:url(#SVGID_2_);" d="M434.506,455.749h-1.762c-28.829,0-52.199-23.37-52.199-52.199V64.16h106.159v339.39
			C486.705,432.379,463.335,455.749,434.506,455.749z"/>
		<g>
			<linearGradient id="SVGID_3_" gradientUnits="userSpaceOnUse" x1="434.6133" y1="195.6021" x2="472.0805" y2="195.6021">
				<stop  offset="0" style="stop-color:#FFDA45"/>
				<stop  offset="1" style="stop-color:#FFA425"/>
			</linearGradient>
			<circle style="fill:url(#SVGID_3_);" cx="453.347" cy="195.602" r="18.734"/>
			<linearGradient id="SVGID_4_" gradientUnits="userSpaceOnUse" x1="454.0459" y1="196.5931" x2="442.4871" y2="180.206">
				<stop  offset="0" style="stop-color:#FFDA45;stop-opacity:0"/>
				<stop  offset="1" style="stop-color:#FCEE21"/>
			</linearGradient>
			<circle style="fill:url(#SVGID_4_);" cx="453.347" cy="195.602" r="15.635"/>
			<linearGradient id="SVGID_5_" gradientUnits="userSpaceOnUse" x1="453.9975" y1="202.7818" x2="479.7477" y2="154.8899">
				<stop  offset="0" style="stop-color:#FFDA45;stop-opacity:0"/>
				<stop  offset="1" style="stop-color:#B53759"/>
			</linearGradient>
			<path style="fill:url(#SVGID_5_);" d="M461.727,178.844c1.263,2.522,1.976,5.367,1.976,8.38c0,10.346-8.387,18.734-18.734,18.734
				c-3.013,0-5.858-0.712-8.38-1.976c3.076,6.139,9.424,10.354,16.758,10.354c10.346,0,18.734-8.387,18.734-18.734
				C472.081,188.268,467.866,181.92,461.727,178.844z"/>
		</g>
		<g>
			<linearGradient id="SVGID_6_" gradientUnits="userSpaceOnUse" x1="393.9917" y1="119.303" x2="451.9002" y2="119.303">
				<stop  offset="0" style="stop-color:#FFDA45"/>
				<stop  offset="1" style="stop-color:#FFA425"/>
			</linearGradient>
			<circle style="fill:url(#SVGID_6_);" cx="422.946" cy="119.303" r="28.954"/>
			<linearGradient id="SVGID_7_" gradientUnits="userSpaceOnUse" x1="424.0263" y1="120.8346" x2="406.1613" y2="95.5071">
				<stop  offset="0" style="stop-color:#FFDA45;stop-opacity:0"/>
				<stop  offset="1" style="stop-color:#FCEE21"/>
			</linearGradient>
			<circle style="fill:url(#SVGID_7_);" cx="422.946" cy="119.303" r="24.165"/>
			<linearGradient id="SVGID_8_" gradientUnits="userSpaceOnUse" x1="423.9515" y1="130.3997" x2="463.7505" y2="56.3792">
				<stop  offset="0" style="stop-color:#FFDA45;stop-opacity:0"/>
				<stop  offset="1" style="stop-color:#B53759"/>
			</linearGradient>
			<path style="fill:url(#SVGID_8_);" d="M435.898,93.402c1.953,3.897,3.054,8.296,3.054,12.952
				c0,15.991-12.963,28.954-28.954,28.954c-4.656,0-9.055-1.101-12.952-3.054c4.754,9.488,14.566,16.002,25.901,16.002
				c15.991,0,28.954-12.963,28.954-28.954C451.9,107.968,445.386,98.156,435.898,93.402z"/>
		</g>
		<linearGradient id="SVGID_9_" gradientUnits="userSpaceOnUse" x1="485.0718" y1="236.7778" x2="397.3895" y2="270.0367">
			<stop  offset="0" style="stop-color:#FFFFFF;stop-opacity:0"/>
			<stop  offset="1" style="stop-color:#FFFFFF"/>
		</linearGradient>
		<path style="fill:url(#SVGID_9_);" d="M445.273,454.632c23.662-4.963,41.432-25.944,41.432-51.081V64.16h-82.864v339.39
			C403.841,428.687,421.611,449.669,445.273,454.632z"/>
		<linearGradient id="SVGID_10_" gradientUnits="userSpaceOnUse" x1="416.6072" y1="309.3523" x2="501.8669" y2="406.4536">
			<stop  offset="0" style="stop-color:#FFDA45"/>
			<stop  offset="1" style="stop-color:#FFA425"/>
		</linearGradient>
		<path style="fill:url(#SVGID_10_);" d="M486.706,234.258v169.288c0,28.834-23.375,52.198-52.198,52.198h-1.764
			c-28.822,0-52.198-23.364-52.198-52.198V230.22c6.276-4.097,13.772-6.477,21.836-6.477c20.261,0,37.005,15.051,39.681,34.577
			c0.746-0.071,1.504-0.107,2.262-0.107c4.121,0,8.017,0.947,11.475,2.629c2.203-15.039,15.157-26.585,30.8-26.585H486.706z"/>
		<linearGradient id="SVGID_11_" gradientUnits="userSpaceOnUse" x1="459.8268" y1="132.1497" x2="364.0799" y2="-86.0277">
			<stop  offset="0" style="stop-color:#F0DDFC;stop-opacity:0"/>
			<stop  offset="0.2889" style="stop-color:#C8B7E0;stop-opacity:0.2889"/>
			<stop  offset="0.5915" style="stop-color:#A595C8;stop-opacity:0.5915"/>
			<stop  offset="0.8395" style="stop-color:#8F81B8;stop-opacity:0.8395"/>
			<stop  offset="1" style="stop-color:#8779B3"/>
		</linearGradient>
		<polygon style="fill:url(#SVGID_11_);" points="499.953,64.16 367.298,64.16 367.298,80.73 499.953,216.21 		"/>
		<linearGradient id="SVGID_12_" gradientUnits="userSpaceOnUse" x1="431.1484" y1="47.0699" x2="442.2007" y2="116.5411">
			<stop  offset="0" style="stop-color:#F9F7FC"/>
			<stop  offset="1" style="stop-color:#F0DDFC"/>
		</linearGradient>
		<path style="fill:url(#SVGID_12_);" d="M488.686,83.953H378.565c-11.771,0-21.314-9.542-21.314-21.314v0
			c0-11.771,9.543-21.314,21.314-21.314h110.122c11.771,0,21.314,9.543,21.314,21.314v0C510,74.411,500.457,83.953,488.686,83.953z"
			/>
		<linearGradient id="SVGID_13_" gradientUnits="userSpaceOnUse" x1="386.7762" y1="283.8218" x2="429.406" y2="232.9028">
			<stop  offset="0" style="stop-color:#FFDA45;stop-opacity:0"/>
			<stop  offset="1" style="stop-color:#FCEE21"/>
		</linearGradient>
		<path style="fill:url(#SVGID_13_);" d="M442.064,258.32C442.063,258.32,442.063,258.32,442.064,258.32
			c-1.243-9.063-5.519-17.158-11.767-23.235c-0.063-0.061-0.122-0.125-0.185-0.186c-0.007-0.007-0.015-0.014-0.022-0.02
			c-7.196-6.896-16.958-11.133-27.708-11.133c-0.196,0-0.388,0.016-0.584,0.018c-0.726,0.01-1.449,0.031-2.165,0.08
			c-0.389,0.026-0.772,0.073-1.158,0.11c-0.53,0.052-1.06,0.104-1.584,0.176c-0.414,0.057-0.823,0.127-1.233,0.196
			c-0.489,0.083-0.976,0.171-1.459,0.271c-0.411,0.086-0.821,0.177-1.227,0.275c-0.477,0.115-0.95,0.241-1.42,0.373
			c-0.393,0.11-0.787,0.22-1.176,0.342c-0.493,0.155-0.979,0.327-1.463,0.5c-0.35,0.125-0.703,0.242-1.048,0.377
			c-0.669,0.261-1.326,0.544-1.977,0.839c-0.215,0.098-0.432,0.193-0.646,0.294c-0.719,0.341-1.427,0.702-2.122,1.084
			c-0.253,0.139-0.497,0.291-0.747,0.436c-0.523,0.302-1.042,0.61-1.549,0.935c-0.094,0.06-0.185,0.125-0.278,0.186v67.136
			c6.281,4.094,13.777,6.481,21.836,6.481c7.175,0,13.909-1.888,19.741-5.192c12.136-6.881,20.318-19.909,20.318-34.857
			C442.441,261.938,442.315,260.113,442.064,258.32z"/>
		<linearGradient id="SVGID_14_" gradientUnits="userSpaceOnUse" x1="469.2545" y1="285.1027" x2="479.3199" y2="250.17">
			<stop  offset="0" style="stop-color:#FFDA45;stop-opacity:0"/>
			<stop  offset="1" style="stop-color:#FCEE21"/>
		</linearGradient>
		<path style="fill:url(#SVGID_14_);" d="M486.706,296.497v-62.238c-0.015,0-0.03-0.001-0.046-0.001h-0.061
			c-10.42,0-19.642,5.127-25.293,12.993c-2.832,3.944-4.769,8.574-5.501,13.596c-0.21,1.479-0.325,2.99-0.325,4.532
			c0,10.962,5.664,20.601,14.234,26.14c4.867,3.157,10.668,4.983,16.888,4.983C486.637,296.501,486.671,296.497,486.706,296.497z"/>
		<linearGradient id="SVGID_15_" gradientUnits="userSpaceOnUse" x1="456.3863" y1="297.5949" x2="427.9664" y2="266.8067">
			<stop  offset="0" style="stop-color:#FFDA45;stop-opacity:0"/>
			<stop  offset="1" style="stop-color:#FCEE21"/>
		</linearGradient>
		<path style="fill:url(#SVGID_15_);" d="M470.658,284.543c0,2.413-0.325,4.752-0.944,6.975
			c-3.053,11.15-13.259,19.343-25.385,19.343c-9.336,0-17.539-4.867-22.206-12.199c-2.602-4.081-4.112-8.916-4.112-14.119
			c0-13.773,10.573-25.081,24.053-26.224c0.745-0.073,1.5-0.105,2.266-0.105c4.112,0,8.014,0.944,11.475,2.633
			C464.595,265.106,470.658,274.116,470.658,284.543z"/>
		<linearGradient id="SVGID_16_" gradientUnits="userSpaceOnUse" x1="470.1942" y1="329.9026" x2="346.252" y2="355.1647">
			<stop  offset="0" style="stop-color:#FFDA45;stop-opacity:0"/>
			<stop  offset="1" style="stop-color:#FFFFFF"/>
		</linearGradient>
		<path style="fill:url(#SVGID_16_);" d="M486.599,234.258c-15.643,0-28.597,11.546-30.8,26.585
			c-3.458-1.682-7.354-2.629-11.475-2.629c-0.758,0-1.516,0.036-2.262,0.107c-2.612-19.055-18.622-33.841-38.222-34.544V422.21
			c0,1.388,0.054,2.763,0.161,4.123c1.17,14.934,12.79,27.032,27.6,29.28c0.546,0.083,0.942,0.13,1.142,0.13h1.764
			c26.12,0,47.767-19.188,51.596-44.247c0.108-0.706,0.192-1.42,0.271-2.136c0.018-0.159,0.044-0.315,0.06-0.474
			c0.178-1.755,0.27-3.535,0.27-5.337V234.258H486.599z"/>
		<linearGradient id="SVGID_17_" gradientUnits="userSpaceOnUse" x1="428.1073" y1="355.7534" x2="464.8163" y2="450.4863">
			<stop  offset="0" style="stop-color:#F0DDFC;stop-opacity:0"/>
			<stop  offset="0.1831" style="stop-color:#ECD9F9;stop-opacity:0.1831"/>
			<stop  offset="0.3829" style="stop-color:#DECCF0;stop-opacity:0.3829"/>
			<stop  offset="0.5905" style="stop-color:#C9B8E1;stop-opacity:0.5905"/>
			<stop  offset="0.8021" style="stop-color:#AA9BCC;stop-opacity:0.8021"/>
			<stop  offset="1" style="stop-color:#8779B3"/>
		</linearGradient>
		<path style="fill:url(#SVGID_17_);" d="M367.4,325.107v77.342c0,36.575,29.65,66.226,66.226,66.226h0
			c36.575,0,66.226-29.65,66.226-66.226v-77.342H367.4z"/>
	</g>
	<g>
		<linearGradient id="SVGID_18_" gradientUnits="userSpaceOnUse" x1="112.9111" y1="228.4861" x2="415.0208" y2="589.1293">
			<stop  offset="0" style="stop-color:#F9F7FC"/>
			<stop  offset="1" style="stop-color:#F0DDFC"/>
		</linearGradient>
		<path style="fill:url(#SVGID_18_);" d="M356.361,384.311l-90.32-132.893c-11.915-17.531-18.286-38.239-18.286-59.436V64.16
			H115.099v127.822c0,21.197-6.371,41.905-18.286,59.436L6.493,384.311c-13.667,20.11-4.85,47.709,17.945,56.17h0
			c101.283,37.592,212.694,37.592,313.977,0h0C361.211,432.02,370.029,404.421,356.361,384.311z"/>
		<radialGradient id="SVGID_19_" cx="171.9536" cy="169.5499" r="320.787" gradientUnits="userSpaceOnUse">
			<stop  offset="0" style="stop-color:#F0DDFC;stop-opacity:0"/>
			<stop  offset="0.4454" style="stop-color:#EEDBFB;stop-opacity:0.4454"/>
			<stop  offset="0.6058" style="stop-color:#E7D5F6;stop-opacity:0.6058"/>
			<stop  offset="0.7201" style="stop-color:#DCC9EE;stop-opacity:0.7201"/>
			<stop  offset="0.8126" style="stop-color:#CBB9E2;stop-opacity:0.8126"/>
			<stop  offset="0.8918" style="stop-color:#B5A4D3;stop-opacity:0.8918"/>
			<stop  offset="0.9607" style="stop-color:#9A8BC0;stop-opacity:0.9607"/>
			<stop  offset="1" style="stop-color:#8779B3"/>
		</radialGradient>
		<path style="fill:url(#SVGID_19_);" d="M322.924,335.113c-91.887,30.353-191.108,30.353-282.995,0L6.493,384.311
			c-13.667,20.11-4.85,47.709,17.945,56.17l0,0c101.283,37.592,212.694,37.592,313.977,0l0,0
			c22.795-8.461,31.613-36.06,17.945-56.17L322.924,335.113z"/>
		<linearGradient id="SVGID_20_" gradientUnits="userSpaceOnUse" x1="227.5071" y1="254.9044" x2="122.5115" y2="319.6384">
			<stop  offset="0" style="stop-color:#F9F7FC"/>
			<stop  offset="1" style="stop-color:#F0DDFC"/>
		</linearGradient>
		<path style="fill:url(#SVGID_20_);" d="M181.427,456.832c-52.354,0-103.786-9.236-152.868-27.453
			c-7.43-2.758-13.074-8.669-15.487-16.219c-2.412-7.549-1.24-15.639,3.215-22.193l90.32-132.893
			c13.303-19.573,20.334-42.427,20.334-66.092V76.002h108.973v115.98c0,23.665,7.031,46.519,20.334,66.092l90.32,132.893
			c4.454,6.555,5.626,14.644,3.215,22.193c-2.412,7.55-8.057,13.461-15.487,16.219C285.213,447.596,233.781,456.832,181.427,456.832
			z"/>
		<g>
			<radialGradient id="SVGID_21_" cx="175.0099" cy="223.6805" r="44.8623" gradientUnits="userSpaceOnUse">
				<stop  offset="0" style="stop-color:#92F37F"/>
				<stop  offset="0.2819" style="stop-color:#8FF07E"/>
				<stop  offset="0.5001" style="stop-color:#85E77D"/>
				<stop  offset="0.6969" style="stop-color:#75D97A"/>
				<stop  offset="0.88" style="stop-color:#5EC476"/>
				<stop  offset="1" style="stop-color:#4AB272"/>
			</radialGradient>
			<circle style="fill:url(#SVGID_21_);" cx="184.932" cy="237.463" r="28.954"/>
			<linearGradient id="SVGID_22_" gradientUnits="userSpaceOnUse" x1="186.0125" y1="238.9947" x2="168.1475" y2="213.6671">
				<stop  offset="0" style="stop-color:#92F37F;stop-opacity:0"/>
				<stop  offset="1" style="stop-color:#FFEE83"/>
			</linearGradient>
			<circle style="fill:url(#SVGID_22_);" cx="184.932" cy="237.463" r="24.165"/>
			<linearGradient id="SVGID_23_" gradientUnits="userSpaceOnUse" x1="185.9377" y1="248.5598" x2="225.7367" y2="174.5392">
				<stop  offset="0" style="stop-color:#4AB272;stop-opacity:0"/>
				<stop  offset="1" style="stop-color:#009245"/>
			</linearGradient>
			<path style="fill:url(#SVGID_23_);" d="M197.884,211.562c1.953,3.897,3.054,8.296,3.054,12.952
				c0,15.991-12.963,28.954-28.954,28.954c-4.656,0-9.055-1.101-12.952-3.054c4.754,9.488,14.566,16.002,25.901,16.002
				c15.991,0,28.954-12.963,28.954-28.954C213.886,226.128,207.372,216.316,197.884,211.562z"/>
		</g>
		<g>
			<radialGradient id="SVGID_24_" cx="199.6029" cy="161.1117" r="23.614" gradientUnits="userSpaceOnUse">
				<stop  offset="0" style="stop-color:#92F37F"/>
				<stop  offset="0.2819" style="stop-color:#8FF07E"/>
				<stop  offset="0.5001" style="stop-color:#85E77D"/>
				<stop  offset="0.6969" style="stop-color:#75D97A"/>
				<stop  offset="0.88" style="stop-color:#5EC476"/>
				<stop  offset="1" style="stop-color:#4AB272"/>
			</radialGradient>
			<circle style="fill:url(#SVGID_24_);" cx="204.826" cy="168.366" r="15.241"/>
			<linearGradient id="SVGID_25_" gradientUnits="userSpaceOnUse" x1="205.3943" y1="169.1726" x2="195.9908" y2="155.841">
				<stop  offset="0" style="stop-color:#92F37F;stop-opacity:0"/>
				<stop  offset="1" style="stop-color:#FFEE83"/>
			</linearGradient>
			<circle style="fill:url(#SVGID_25_);" cx="204.826" cy="168.366" r="12.72"/>
			<linearGradient id="SVGID_26_" gradientUnits="userSpaceOnUse" x1="205.3549" y1="174.2073" x2="226.3037" y2="135.2454">
				<stop  offset="0" style="stop-color:#4AB272;stop-opacity:0"/>
				<stop  offset="1" style="stop-color:#009245"/>
			</linearGradient>
			<path style="fill:url(#SVGID_26_);" d="M211.643,154.733c1.028,2.051,1.607,4.367,1.607,6.818c0,8.417-6.823,15.241-15.24,15.241
				c-2.451,0-4.766-0.579-6.818-1.607c2.502,4.994,7.667,8.423,13.633,8.423c8.417,0,15.241-6.823,15.241-15.24
				C220.066,162.4,216.637,157.236,211.643,154.733z"/>
		</g>
		<linearGradient id="SVGID_27_" gradientUnits="userSpaceOnUse" x1="188.1702" y1="264.7012" x2="98.174" y2="231.5447">
			<stop  offset="0" style="stop-color:#FFFFFF;stop-opacity:0"/>
			<stop  offset="1" style="stop-color:#FFFFFF"/>
		</linearGradient>
		<path style="fill:url(#SVGID_27_);" d="M266.041,251.418c-11.915-17.531-18.286-38.239-18.286-59.436V76.002H161.77v115.98
			c0,23.665-7.031,46.519-20.334,66.092l-90.32,132.893c-4.455,6.555-5.627,14.644-3.215,22.193
			c2.412,7.55,8.057,13.461,15.487,16.219c49.082,18.217,100.514,27.453,152.868,27.453c43.537,0,86.432-6.41,127.873-19.038
			c18.46-10.61,24.689-35.155,12.231-53.484L266.041,251.418z"/>
		<radialGradient id="SVGID_28_" cx="130.5081" cy="331.4417" r="202.5385" gradientUnits="userSpaceOnUse">
			<stop  offset="0" style="stop-color:#92F37F"/>
			<stop  offset="0.2819" style="stop-color:#8FF07E"/>
			<stop  offset="0.5001" style="stop-color:#85E77D"/>
			<stop  offset="0.6969" style="stop-color:#75D97A"/>
			<stop  offset="0.88" style="stop-color:#5EC476"/>
			<stop  offset="1" style="stop-color:#4AB272"/>
		</radialGradient>
		<path style="fill:url(#SVGID_28_);" d="M349.779,413.156c-2.404,7.555-8.052,13.464-15.489,16.223
			c-49.072,18.213-100.512,27.449-152.863,27.449c-52.352,0-103.792-9.236-152.863-27.449c-7.437-2.759-13.085-8.668-15.489-16.223
			c-2.416-7.543-1.243-15.631,3.209-22.191l71.215-104.763c8.123-12.031,21.883-19.941,37.491-19.941
			c22.866,0,41.777,16.981,44.797,39.03c0.841-0.083,1.693-0.118,2.558-0.118c4.642,0,9.047,1.066,12.955,2.972
			c2.475-16.981,17.099-30.019,34.767-30.019c11.51,0,21.729,5.53,28.136,14.092c4.05-2.084,8.633-3.245,13.488-3.245
			c9.142,0,17.324,4.121,22.771,10.622l3.398,4.997l58.711,86.373C351.023,397.525,352.195,405.613,349.779,413.156z"/>
		<linearGradient id="SVGID_29_" gradientUnits="userSpaceOnUse" x1="207.864" y1="132.6866" x2="111.5526" y2="-86.7771">
			<stop  offset="0" style="stop-color:#F0DDFC;stop-opacity:0"/>
			<stop  offset="0.2889" style="stop-color:#C8B7E0;stop-opacity:0.2889"/>
			<stop  offset="0.5915" style="stop-color:#A595C8;stop-opacity:0.5915"/>
			<stop  offset="0.8395" style="stop-color:#8F81B8;stop-opacity:0.8395"/>
			<stop  offset="1" style="stop-color:#8779B3"/>
		</linearGradient>
		<path style="fill:url(#SVGID_29_);" d="M247.755,191.982V64.16H115.099v16.57L250.58,216.21
			C248.72,208.31,247.755,200.184,247.755,191.982z"/>
		<linearGradient id="SVGID_30_" gradientUnits="userSpaceOnUse" x1="178.95" y1="47.0699" x2="190.0023" y2="116.5411">
			<stop  offset="0" style="stop-color:#F9F7FC"/>
			<stop  offset="1" style="stop-color:#F0DDFC"/>
		</linearGradient>
		<path style="fill:url(#SVGID_30_);" d="M236.488,83.953H126.366c-11.771,0-21.314-9.542-21.314-21.314v0
			c0-11.771,9.543-21.314,21.314-21.314h110.122c11.771,0,21.314,9.543,21.314,21.314v0
			C257.802,74.411,248.259,83.953,236.488,83.953z"/>
		<linearGradient id="SVGID_31_" gradientUnits="userSpaceOnUse" x1="122.3283" y1="314.8162" x2="157.8531" y2="270.4102">
			<stop  offset="0" style="stop-color:#92F37F;stop-opacity:0"/>
			<stop  offset="1" style="stop-color:#FFEE83"/>
		</linearGradient>
		<path style="fill:url(#SVGID_31_);" d="M170.213,311.484c0,16.874-9.236,31.582-22.937,39.35
			c-6.584,3.73-14.186,5.862-22.286,5.862c-24.974,0-45.211-20.237-45.211-45.211c0-9.355,2.842-18.058,7.721-25.282
			c8.123-12.031,21.883-19.941,37.491-19.941c22.866,0,41.777,16.981,44.797,39.03C170.071,307.316,170.213,309.376,170.213,311.484
			z"/>
		<linearGradient id="SVGID_32_" gradientUnits="userSpaceOnUse" x1="265.722" y1="324.4438" x2="254.4724" y2="285.0704">
			<stop  offset="0" style="stop-color:#92F37F;stop-opacity:0"/>
			<stop  offset="1" style="stop-color:#FFEE83"/>
		</linearGradient>
		<path style="fill:url(#SVGID_32_);" d="M291.412,318.684c0,16.413-13.31,29.711-29.722,29.711c-7.626,0-14.565-2.866-19.823-7.59
			c8.123-6.418,13.334-16.377,13.334-27.544c0-7.898-2.605-15.181-6.998-21.043c4.05-2.084,8.633-3.245,13.488-3.245
			c9.142,0,17.324,4.121,22.771,10.622c1.302,1.539,2.439,3.209,3.398,4.997C290.121,308.784,291.412,313.58,291.412,318.684z"/>
		<linearGradient id="SVGID_33_" gradientUnits="userSpaceOnUse" x1="217.0172" y1="321.2149" x2="240.3057" y2="260.4279">
			<stop  offset="0" style="stop-color:#92F37F;stop-opacity:0"/>
			<stop  offset="1" style="stop-color:#FFEE83"/>
		</linearGradient>
		<path style="fill:url(#SVGID_33_);" d="M255.2,313.26c0,11.167-5.21,21.125-13.334,27.544c-5.992,4.76-13.57,7.59-21.8,7.59
			c-7.022,0-13.57-2.06-19.065-5.625c-9.675-6.252-16.069-17.135-16.069-29.509c0-1.741,0.13-3.446,0.367-5.116
			c2.475-16.981,17.099-30.019,34.767-30.019c11.51,0,21.729,5.53,28.136,14.092C252.595,298.079,255.2,305.362,255.2,313.26z"/>
		<linearGradient id="SVGID_34_" gradientUnits="userSpaceOnUse" x1="174.7008" y1="345.6156" x2="162.0697" y2="287.9865">
			<stop  offset="0" style="stop-color:#92F37F;stop-opacity:0"/>
			<stop  offset="1" style="stop-color:#FFEE83"/>
		</linearGradient>
		<path style="fill:url(#SVGID_34_);" d="M202.067,334.895c0,2.724-0.367,5.364-1.066,7.875
			c-3.446,12.587-14.968,21.836-28.657,21.836c-10.539,0-19.799-5.494-25.069-13.772c-2.937-4.606-4.642-10.065-4.642-15.939
			c0-15.548,11.936-28.313,27.153-29.604c0.841-0.083,1.693-0.118,2.558-0.118c4.642,0,9.047,1.066,12.955,2.972
			C195.223,312.953,202.067,323.124,202.067,334.895z"/>
		<linearGradient id="SVGID_35_" gradientUnits="userSpaceOnUse" x1="205.7509" y1="382.5376" x2="129.998" y2="466.5407">
			<stop  offset="0" style="stop-color:#92F37F;stop-opacity:0"/>
			<stop  offset="1" style="stop-color:#FFEE83"/>
		</linearGradient>
		<path style="fill:url(#SVGID_35_);" d="M287.859,304.592l-3.398-4.997c-5.447-6.501-13.63-10.622-22.771-10.622
			c-4.855,0-9.438,1.161-13.488,3.245c-6.406-8.562-16.626-14.092-28.136-14.092c-17.668,0-32.292,13.038-34.767,30.019
			c-3.908-1.907-8.313-2.972-12.955-2.972c-0.864,0-1.717,0.035-2.558,0.118c-2.571-18.77-16.661-33.86-34.9-37.935l-32.164,47.325
			c-0.555,0.817-1.097,1.638-1.625,2.464c-38.5,60.155,5.661,139.148,77.08,139.671c1.083,0.008,2.167,0.012,3.25,0.012
			c52.352,0,103.792-9.236,152.863-27.449c7.436-2.759,13.085-8.668,15.489-16.223c2.416-7.543,1.243-15.631-3.209-22.191
			L287.859,304.592z"/>
		<linearGradient id="SVGID_36_" gradientUnits="userSpaceOnUse" x1="159.7388" y1="377.2377" x2="406.0445" y2="265.9265">
			<stop  offset="0" style="stop-color:#FFFFFF;stop-opacity:0"/>
			<stop  offset="1" style="stop-color:#FFFFFF"/>
		</linearGradient>
		<path style="fill:url(#SVGID_36_);" d="M349.779,413.156c-2.404,7.555-8.052,13.464-15.489,16.223
			c-49.072,18.213-100.512,27.449-152.863,27.449c-52.352,0-103.792-9.236-152.863-27.449c-7.437-2.759-13.085-8.668-15.489-16.223
			c-2.416-7.543-1.243-15.631,3.209-22.191l71.215-104.763c8.123-12.031,21.883-19.941,37.491-19.941
			c22.866,0,41.777,16.981,44.797,39.03c0.841-0.083,1.693-0.118,2.558-0.118c4.642,0,9.047,1.066,12.955,2.972
			c2.475-16.981,17.099-30.019,34.767-30.019c11.51,0,21.729,5.53,28.136,14.092c4.05-2.084,8.633-3.245,13.488-3.245
			c9.142,0,17.324,4.121,22.771,10.622l3.398,4.997l58.711,86.373C351.023,397.525,352.195,405.613,349.779,413.156z"/>
		<linearGradient id="SVGID_37_" gradientUnits="userSpaceOnUse" x1="172.4596" y1="361.8889" x2="194.5418" y2="468.8499">
			<stop  offset="0" style="stop-color:#4AB272;stop-opacity:0"/>
			<stop  offset="0.3114" style="stop-color:#47B170;stop-opacity:0.3114"/>
			<stop  offset="0.5196" style="stop-color:#3EAD6B;stop-opacity:0.5196"/>
			<stop  offset="0.6976" style="stop-color:#2FA662;stop-opacity:0.6976"/>
			<stop  offset="0.8576" style="stop-color:#1A9D55;stop-opacity:0.8576"/>
			<stop  offset="1" style="stop-color:#009245"/>
		</linearGradient>
		<path style="fill:url(#SVGID_37_);" d="M311.12,338.812c-84.593,25.394-174.791,25.394-259.384,0.001l-35.452,52.152
			c-4.452,6.56-5.625,14.648-3.209,22.191c2.404,7.555,8.052,13.464,15.489,16.223c49.072,18.213,100.512,27.449,152.863,27.449
			c52.352,0,103.792-9.236,152.863-27.449c7.436-2.759,13.085-8.668,15.489-16.223c2.416-7.543,1.243-15.631-3.209-22.191
			L311.12,338.812z"/>
	</g>
</g>
<g>
</g>
<g>
</g>
<g>
</g>
<g>
</g>
<g>
</g>
<g>
</g>
<g>
</g>
<g>
</g>
<g>
</g>
<g>
</g>
<g>
</g>
<g>
</g>
<g>
</g>
<g>
</g>
<g>
</g>
</svg>
