<?xml version="1.0" encoding="iso-8859-1"?>
<!-- Generator: Adobe Illustrator 22.0.0, SVG Export Plug-In . SVG Version: 6.00 Build 0)  -->
<svg version="1.1" id="Capa_1" xmlns="http://www.w3.org/2000/svg" xmlns:xlink="http://www.w3.org/1999/xlink" x="0px" y="0px"
	 viewBox="0 0 510 510" style="enable-background:new 0 0 510 510;" xml:space="preserve">
<g>
	<g>
		<g>
			<g>
				<linearGradient id="SVGID_1_" gradientUnits="userSpaceOnUse" x1="147.5215" y1="114.0865" x2="434.0032" y2="400.5681">
					<stop  offset="0" style="stop-color:#FFB5B0"/>
					<stop  offset="1" style="stop-color:#FF70AC"/>
				</linearGradient>
				<path style="fill:url(#SVGID_1_);" d="M429.248,252.059c0-19.574-6.818-37.552-18.204-51.7c5.439-6.784,8.7-15.389,8.7-24.761
					c0-19.668-14.333-35.981-33.122-39.083c-5.407-27.939-25.905-50.496-52.676-58.841c0.001-0.092,0.007-0.183,0.007-0.275
					c0-24.361-19.749-44.11-44.11-44.11c-14.171,0-26.772,6.69-34.842,17.076c-8.07-10.386-20.671-17.076-34.842-17.076
					c-24.361,0-44.11,19.749-44.11,44.11c0,0.092,0.006,0.183,0.007,0.275c-26.771,8.345-47.269,30.902-52.676,58.841
					c-18.789,3.103-33.122,19.415-33.122,39.083c0,9.371,3.261,17.977,8.7,24.761c-11.385,14.148-18.204,32.127-18.204,51.7
					c0,38.184,25.932,70.305,61.144,79.728c5.149,32.171,33.027,56.754,66.649,56.754c18,0,34.353-7.046,46.455-18.529
					c12.102,11.483,28.455,18.529,46.455,18.529c33.622,0,61.5-24.582,66.649-56.754
					C403.316,322.365,429.248,290.243,429.248,252.059z"/>
			</g>
			<linearGradient id="SVGID_2_" gradientUnits="userSpaceOnUse" x1="342.7587" y1="210.1894" x2="355.2964" y2="342.8802">
				<stop  offset="0" style="stop-color:#FFB5B0;stop-opacity:0"/>
				<stop  offset="1" style="stop-color:#FF70AC"/>
			</linearGradient>
			<circle style="fill:url(#SVGID_2_);" cx="346.715" cy="252.059" r="82.533"/>
			<linearGradient id="SVGID_3_" gradientUnits="userSpaceOnUse" x1="180.6003" y1="133.8466" x2="83.7764" y2="40.5056">
				<stop  offset="0" style="stop-color:#E9EDF5;stop-opacity:0"/>
				<stop  offset="1" style="stop-color:#FFFFFF"/>
			</linearGradient>
			<path style="fill:url(#SVGID_3_);" d="M276.05,151.238c0-13.854-3.659-26.852-10.061-38.085
				c-8.007,11.125-21.058,18.376-35.812,18.376c-14.735,0-27.771-7.233-35.78-18.334c-7.618-5.493-13.417-13.35-16.306-22.505
				c-19.676,8.639-35.05,25.26-42.019,45.771c10.913,1.713,20.341,7.883,26.379,16.585c10.312,7.154,17.07,19.071,17.07,32.572
				c0,13.811-7.073,25.962-17.787,33.053c11.046,6.121,23.752,9.609,37.274,9.609C241.557,228.279,276.05,193.787,276.05,151.238z"
				/>
			<linearGradient id="SVGID_4_" gradientUnits="userSpaceOnUse" x1="217.1859" y1="83.3425" x2="268.0358" y2="-18.3573">
				<stop  offset="0" style="stop-color:#FFB5B0;stop-opacity:0"/>
				<stop  offset="0.0454" style="stop-color:#FFAFB0;stop-opacity:0.0454"/>
				<stop  offset="0.2799" style="stop-color:#FF93AE;stop-opacity:0.2799"/>
				<stop  offset="0.5169" style="stop-color:#FF80AD;stop-opacity:0.5169"/>
				<stop  offset="0.7559" style="stop-color:#FF74AC;stop-opacity:0.7559"/>
				<stop  offset="1" style="stop-color:#FF70AC"/>
			</linearGradient>
			<circle style="fill:url(#SVGID_4_);" cx="220.158" cy="77.399" r="44.11"/>
			<linearGradient id="SVGID_5_" gradientUnits="userSpaceOnUse" x1="319.7202" y1="135.5739" x2="395.9913" y2="-1.2961">
				<stop  offset="0" style="stop-color:#FFB5B0;stop-opacity:0"/>
				<stop  offset="0.0454" style="stop-color:#FFAFB0;stop-opacity:0.0454"/>
				<stop  offset="0.2799" style="stop-color:#FF93AE;stop-opacity:0.2799"/>
				<stop  offset="0.5169" style="stop-color:#FF80AD;stop-opacity:0.5169"/>
				<stop  offset="0.7559" style="stop-color:#FF74AC;stop-opacity:0.7559"/>
				<stop  offset="1" style="stop-color:#FF70AC"/>
			</linearGradient>
			<circle style="fill:url(#SVGID_5_);" cx="310.991" cy="151.238" r="77.042"/>
			<g>
				
					<linearGradient id="SVGID_6_" gradientUnits="userSpaceOnUse" x1="-2202.6963" y1="3460.0039" x2="-2151.8464" y2="3358.3042" gradientTransform="matrix(-0.7071 0.7071 -0.7071 -0.7071 1097.8392 4133.8047)">
					<stop  offset="0" style="stop-color:#FFB5B0;stop-opacity:0"/>
					<stop  offset="0.0454" style="stop-color:#FFAFB0;stop-opacity:0.0454"/>
					<stop  offset="0.2799" style="stop-color:#FF93AE;stop-opacity:0.2799"/>
					<stop  offset="0.5169" style="stop-color:#FF80AD;stop-opacity:0.5169"/>
					<stop  offset="0.7559" style="stop-color:#FF74AC;stop-opacity:0.7559"/>
					<stop  offset="1" style="stop-color:#FF70AC"/>
				</linearGradient>
				<circle style="fill:url(#SVGID_6_);" cx="210.89" cy="135.975" r="44.11"/>
				
					<linearGradient id="SVGID_7_" gradientUnits="userSpaceOnUse" x1="-1539.889" y1="4122.8115" x2="-1489.0391" y2="4021.1113" gradientTransform="matrix(0.7071 0.7071 0.7071 -0.7071 -1525.1902 4133.8047)">
					<stop  offset="0" style="stop-color:#FFB5B0;stop-opacity:0"/>
					<stop  offset="0.0454" style="stop-color:#FFAFB0;stop-opacity:0.0454"/>
					<stop  offset="0.2799" style="stop-color:#FF93AE;stop-opacity:0.2799"/>
					<stop  offset="0.5169" style="stop-color:#FF80AD;stop-opacity:0.5169"/>
					<stop  offset="0.7559" style="stop-color:#FF74AC;stop-opacity:0.7559"/>
					<stop  offset="1" style="stop-color:#FF70AC"/>
				</linearGradient>
				<circle style="fill:url(#SVGID_7_);" cx="299.11" cy="135.975" r="44.11"/>
			</g>
			<g>
				
					<linearGradient id="SVGID_8_" gradientUnits="userSpaceOnUse" x1="1757.7385" y1="1004.2924" x2="1808.5884" y2="902.5925" gradientTransform="matrix(0.7071 -0.7071 0.7071 0.7071 -1651.8392 822.5887)">
					<stop  offset="0" style="stop-color:#FFB5B0;stop-opacity:0"/>
					<stop  offset="0.0454" style="stop-color:#FFAFB0;stop-opacity:0.0454"/>
					<stop  offset="0.2799" style="stop-color:#FF93AE;stop-opacity:0.2799"/>
					<stop  offset="0.5169" style="stop-color:#FF80AD;stop-opacity:0.5169"/>
					<stop  offset="0.7559" style="stop-color:#FF74AC;stop-opacity:0.7559"/>
					<stop  offset="1" style="stop-color:#FF70AC"/>
				</linearGradient>
				<circle style="fill:url(#SVGID_8_);" cx="299.11" cy="283.518" r="44.11"/>
				
					<linearGradient id="SVGID_9_" gradientUnits="userSpaceOnUse" x1="915.8226" y1="162.3765" x2="966.6725" y2="60.6766" gradientTransform="matrix(-0.7071 -0.7071 -0.7071 0.7071 971.1902 822.5887)">
					<stop  offset="0" style="stop-color:#FFB5B0;stop-opacity:0"/>
					<stop  offset="0.0454" style="stop-color:#FFAFB0;stop-opacity:0.0454"/>
					<stop  offset="0.2799" style="stop-color:#FF93AE;stop-opacity:0.2799"/>
					<stop  offset="0.5169" style="stop-color:#FF80AD;stop-opacity:0.5169"/>
					<stop  offset="0.7559" style="stop-color:#FF74AC;stop-opacity:0.7559"/>
					<stop  offset="1" style="stop-color:#FF70AC"/>
				</linearGradient>
				<circle style="fill:url(#SVGID_9_);" cx="210.89" cy="283.518" r="44.11"/>
			</g>
			<linearGradient id="SVGID_10_" gradientUnits="userSpaceOnUse" x1="182.8691" y1="211.6413" x2="117.3911" y2="346.7768">
				<stop  offset="0" style="stop-color:#FFB5B0;stop-opacity:0"/>
				<stop  offset="1" style="stop-color:#FF70AC"/>
			</linearGradient>
			<circle style="fill:url(#SVGID_10_);" cx="163.285" cy="252.059" r="82.533"/>
			<linearGradient id="SVGID_11_" gradientUnits="userSpaceOnUse" x1="139.5205" y1="240.058" x2="-111.2338" y2="92.7398">
				<stop  offset="0" style="stop-color:#E9EDF5;stop-opacity:0"/>
				<stop  offset="1" style="stop-color:#FFFFFF"/>
			</linearGradient>
			<circle style="fill:url(#SVGID_11_);" cx="168.037" cy="256.811" r="77.781"/>
			<linearGradient id="SVGID_12_" gradientUnits="userSpaceOnUse" x1="131.9397" y1="147.0555" x2="126.3671" y2="207.4253">
				<stop  offset="0" style="stop-color:#FFB5B0;stop-opacity:0"/>
				<stop  offset="1" style="stop-color:#FF70AC"/>
			</linearGradient>
			<path style="fill:url(#SVGID_12_);" d="M163.285,169.526c1.944,0,3.871,0.072,5.782,0.205
				c-2.836-19.1-19.299-33.756-39.188-33.756c-21.883,0-39.623,17.74-39.623,39.623c0,9.371,3.261,17.977,8.7,24.761
				C114.083,181.56,137.277,169.526,163.285,169.526z"/>
			<linearGradient id="SVGID_13_" gradientUnits="userSpaceOnUse" x1="375.4723" y1="159.6012" x2="403.6821" y2="196.1695">
				<stop  offset="0" style="stop-color:#FFB5B0;stop-opacity:0"/>
				<stop  offset="0.0454" style="stop-color:#FFAFB0;stop-opacity:0.0454"/>
				<stop  offset="0.2799" style="stop-color:#FF93AE;stop-opacity:0.2799"/>
				<stop  offset="0.5169" style="stop-color:#FF80AD;stop-opacity:0.5169"/>
				<stop  offset="0.7559" style="stop-color:#FF74AC;stop-opacity:0.7559"/>
				<stop  offset="1" style="stop-color:#FF70AC"/>
			</linearGradient>
			<path style="fill:url(#SVGID_13_);" d="M346.715,169.526c26.008,0,49.202,12.034,64.329,30.833
				c5.439-6.784,8.7-15.389,8.7-24.761c0-21.883-17.74-39.623-39.623-39.623c-19.889,0-36.352,14.655-39.188,33.756
				C342.844,169.599,344.771,169.526,346.715,169.526z"/>
			<linearGradient id="SVGID_14_" gradientUnits="userSpaceOnUse" x1="323.4953" y1="200.1753" x2="150.0569" y2="273.312">
				<stop  offset="0" style="stop-color:#FFB5B0;stop-opacity:0"/>
				<stop  offset="0.0454" style="stop-color:#FFAFB0;stop-opacity:0.0454"/>
				<stop  offset="0.2799" style="stop-color:#FF93AE;stop-opacity:0.2799"/>
				<stop  offset="0.5169" style="stop-color:#FF80AD;stop-opacity:0.5169"/>
				<stop  offset="0.7559" style="stop-color:#FF74AC;stop-opacity:0.7559"/>
				<stop  offset="1" style="stop-color:#FF70AC"/>
			</linearGradient>
			<path style="fill:url(#SVGID_14_);" d="M301.455,388.542c33.622,0,61.5-24.582,66.649-56.754
				c35.212-9.423,61.144-41.545,61.144-79.728c0-19.574-6.818-37.552-18.204-51.7c5.439-6.784,8.7-15.389,8.7-24.761
				c0-19.668-14.333-35.981-33.122-39.083c-5.407-27.939-25.905-50.496-52.676-58.841c0.001-0.092,0.007-0.183,0.007-0.275
				c0-24.361-19.749-44.11-44.11-44.11c-14.171,0-26.772,6.69-34.842,17.076v319.648
				C267.102,381.496,283.455,388.542,301.455,388.542z"/>
			<linearGradient id="SVGID_15_" gradientUnits="userSpaceOnUse" x1="325.6332" y1="296.873" x2="223.2367" y2="399.2695">
				<stop  offset="0" style="stop-color:#FFB5B0;stop-opacity:0"/>
				<stop  offset="0.0454" style="stop-color:#FFAFB0;stop-opacity:0.0454"/>
				<stop  offset="0.2799" style="stop-color:#FF93AE;stop-opacity:0.2799"/>
				<stop  offset="0.5169" style="stop-color:#FF80AD;stop-opacity:0.5169"/>
				<stop  offset="0.7559" style="stop-color:#FF74AC;stop-opacity:0.7559"/>
				<stop  offset="1" style="stop-color:#FF70AC"/>
			</linearGradient>
			<path style="fill:url(#SVGID_15_);" d="M300.94,253.534c-17.797,0.133-33.953,7.154-45.94,18.527v89.8
				c0,5.521,2.58,10.771,7.061,13.996c0.025,0.018,0.05,0.036,0.075,0.054c0.038,0.027,0.075,0.055,0.113,0.083
				c0.345,0.247,0.695,0.489,1.045,0.729c0.089,0.061,0.176,0.123,0.265,0.184c0.323,0.22,0.65,0.434,0.977,0.648
				c0.119,0.078,0.236,0.157,0.356,0.234c0.309,0.2,0.622,0.395,0.934,0.589c0.14,0.087,0.28,0.176,0.421,0.263
				c0.299,0.183,0.601,0.362,0.903,0.541c0.158,0.093,0.315,0.188,0.474,0.28c0.293,0.17,0.589,0.336,0.884,0.502
				c0.171,0.096,0.342,0.193,0.514,0.287c0.288,0.158,0.579,0.313,0.869,0.467c0.183,0.097,0.365,0.195,0.549,0.29
				c0.285,0.148,0.571,0.291,0.858,0.435c0.193,0.097,0.387,0.194,0.581,0.289c0.282,0.138,0.567,0.273,0.851,0.407
				c0.202,0.095,0.403,0.19,0.606,0.283c0.28,0.129,0.562,0.254,0.845,0.379c0.211,0.094,0.423,0.187,0.636,0.278
				c0.278,0.119,0.557,0.236,0.836,0.352c0.219,0.091,0.439,0.181,0.659,0.269c0.277,0.111,0.556,0.221,0.835,0.328
				c0.226,0.087,0.452,0.173,0.679,0.258c0.276,0.103,0.554,0.205,0.832,0.305c0.234,0.084,0.469,0.166,0.704,0.248
				c0.274,0.095,0.548,0.188,0.824,0.28c0.242,0.08,0.484,0.158,0.727,0.236c0.273,0.087,0.547,0.173,0.821,0.257
				c0.248,0.076,0.497,0.149,0.746,0.222c0.272,0.079,0.544,0.158,0.817,0.234c0.255,0.071,0.51,0.139,0.766,0.207
				c0.271,0.072,0.542,0.144,0.815,0.213c0.261,0.066,0.523,0.129,0.785,0.192c0.27,0.065,0.539,0.129,0.81,0.191
				c0.269,0.061,0.539,0.118,0.809,0.176c0.267,0.057,0.533,0.114,0.801,0.168c0.276,0.055,0.553,0.107,0.83,0.159
				c0.265,0.05,0.531,0.101,0.797,0.147c0.282,0.049,0.566,0.095,0.85,0.141c0.263,0.043,0.525,0.087,0.789,0.126
				c0.292,0.044,0.586,0.083,0.879,0.123c0.258,0.035,0.515,0.072,0.774,0.105c0.301,0.038,0.603,0.07,0.905,0.103
				c0.255,0.028,0.509,0.059,0.764,0.084c0.313,0.031,0.628,0.057,0.942,0.084c0.245,0.021,0.489,0.045,0.735,0.063
				c0.336,0.025,0.673,0.044,1.01,0.064c0.227,0.014,0.453,0.03,0.681,0.042c0.377,0.019,0.755,0.031,1.134,0.043
				c0.19,0.006,0.379,0.016,0.569,0.021c0.569,0.014,1.14,0.022,1.713,0.022c0.975,0,1.943-0.025,2.908-0.066
				c0.113-0.005,0.227-0.008,0.34-0.013c0.915-0.043,1.825-0.108,2.73-0.187c0.152-0.013,0.304-0.026,0.456-0.04
				c0.889-0.084,1.774-0.186,2.653-0.304c0.151-0.02,0.302-0.042,0.453-0.063c0.889-0.126,1.774-0.266,2.651-0.426
				c0.171-0.031,0.34-0.068,0.512-0.095c0.492-0.079,0.984-0.154,1.468-0.271l1.123-0.273c0.912-0.211,1.815-0.444,2.712-0.692
				c0.092-0.025,0.185-0.049,0.276-0.075c0.859-0.241,1.711-0.502,2.556-0.776c0.13-0.042,0.261-0.084,0.39-0.127
				c0.83-0.275,1.652-0.565,2.467-0.871c0.128-0.048,0.255-0.097,0.383-0.146c0.824-0.315,1.642-0.644,2.451-0.99
				c0.092-0.039,0.182-0.08,0.274-0.12c1.714-0.742,3.391-1.552,5.027-2.429c0.055-0.03,0.111-0.058,0.167-0.088
				c0.791-0.427,1.572-0.871,2.344-1.329c0.093-0.055,0.187-0.11,0.28-0.165c0.757-0.453,1.504-0.921,2.241-1.403
				c0.092-0.06,0.183-0.12,0.274-0.181c0.745-0.492,1.482-0.997,2.206-1.518c0.059-0.042,0.117-0.086,0.176-0.128
				c1.535-1.11,3.022-2.282,4.456-3.515c0.013-0.011,0.025-0.021,0.038-0.032c0.703-0.605,1.392-1.226,2.069-1.86
				c0.051-0.048,0.103-0.096,0.154-0.144c0.662-0.622,1.31-1.258,1.946-1.907c0.053-0.054,0.106-0.109,0.159-0.163
				c0.642-0.659,1.272-1.33,1.887-2.014c0.026-0.029,0.051-0.058,0.077-0.087c1.92-2.145,3.705-4.413,5.342-6.792
				c0.018-0.026,0.036-0.052,0.054-0.078c0.533-0.777,1.05-1.567,1.551-2.367c0.023-0.037,0.047-0.075,0.07-0.112
				c0.503-0.807,0.991-1.626,1.461-2.455c0.006-0.011,0.012-0.022,0.018-0.033c1.442-2.552,2.724-5.207,3.83-7.951
				c0.002-0.005,0.004-0.01,0.006-0.014c0.364-0.904,0.708-1.818,1.034-2.741c0.009-0.025,0.018-0.05,0.027-0.076
				c0.325-0.924,0.631-1.858,0.916-2.8c0.001-0.003,0.002-0.006,0.003-0.009c0.867-2.867,1.55-5.815,2.032-8.829l0,0
				c0.751-4.693,1.026-9.544,0.752-14.509C366.861,281.127,337.146,253.264,300.94,253.534z"/>
			<linearGradient id="SVGID_16_" gradientUnits="userSpaceOnUse" x1="255" y1="233.8745" x2="255" y2="118.2347">
				<stop  offset="0" style="stop-color:#FFB5B0;stop-opacity:0"/>
				<stop  offset="0.0454" style="stop-color:#FFAFB0;stop-opacity:0.0454"/>
				<stop  offset="0.2799" style="stop-color:#FF93AE;stop-opacity:0.2799"/>
				<stop  offset="0.5169" style="stop-color:#FF80AD;stop-opacity:0.5169"/>
				<stop  offset="0.7559" style="stop-color:#FF74AC;stop-opacity:0.7559"/>
				<stop  offset="1" style="stop-color:#FF70AC"/>
			</linearGradient>
			<circle style="fill:url(#SVGID_16_);" cx="255" cy="232.313" r="51.205"/>
			<linearGradient id="SVGID_17_" gradientUnits="userSpaceOnUse" x1="332.6527" y1="220.875" x2="267.8745" y2="-75.8509">
				<stop  offset="0" style="stop-color:#E9EDF5;stop-opacity:0"/>
				<stop  offset="1" style="stop-color:#FFFFFF"/>
			</linearGradient>
			<circle style="fill:url(#SVGID_17_);" cx="340.498" cy="256.811" r="77.781"/>
			<linearGradient id="SVGID_18_" gradientUnits="userSpaceOnUse" x1="199.573" y1="341.7937" x2="137.3176" y2="485.8174">
				<stop  offset="0" style="stop-color:#E9EDF5;stop-opacity:0"/>
				<stop  offset="1" style="stop-color:#FFFFFF"/>
			</linearGradient>
			<circle style="fill:url(#SVGID_18_);" cx="208.545" cy="321.037" r="58.927"/>
		</g>
		<g>
			<g>
				
					<linearGradient id="SVGID_19_" gradientUnits="userSpaceOnUse" x1="502.6242" y1="3777.8293" x2="538.5263" y2="3777.8293" gradientTransform="matrix(1 0 0 -1 -470.6855 4006.2505)">
					<stop  offset="0" style="stop-color:#FF7044"/>
					<stop  offset="1" style="stop-color:#F92814"/>
				</linearGradient>
				<path style="fill:url(#SVGID_19_);" d="M59.046,219.626H40.734c-4.857,0-8.795,3.938-8.795,8.795l0,0
					c0,4.857,3.938,8.795,8.795,8.795h18.312c4.857,0,8.795-3.938,8.795-8.795l0,0C67.841,223.564,63.903,219.626,59.046,219.626z"
					/>
			</g>
			<g>
				
					<linearGradient id="SVGID_20_" gradientUnits="userSpaceOnUse" x1="2082.3953" y1="-35.7606" x2="2118.2976" y2="-35.7606" gradientTransform="matrix(0.7071 -0.7071 0.7071 0.7071 -1361.2069 1856.6083)">
					<stop  offset="0" style="stop-color:#92F37F"/>
					<stop  offset="1" style="stop-color:#4AB272"/>
				</linearGradient>
				<path style="fill:url(#SVGID_20_);" d="M111.355,345.912L98.406,358.86c-3.435,3.435-9.003,3.435-12.438,0l0,0
					c-3.435-3.435-3.435-9.003,0-12.438l12.949-12.949c3.435-3.435,9.003-3.435,12.438,0l0,0
					C114.79,336.908,114.79,342.477,111.355,345.912z"/>
			</g>
			<g>
				
					<linearGradient id="SVGID_21_" gradientUnits="userSpaceOnUse" x1="-2265.0051" y1="4311.6396" x2="-2229.1025" y2="4311.6396" gradientTransform="matrix(0.7071 0.7071 0.7071 -0.7071 -1361.2069 4748.3276)">
					<stop  offset="0" style="stop-color:#FFDA45"/>
					<stop  offset="1" style="stop-color:#FFA425"/>
				</linearGradient>
				<path style="fill:url(#SVGID_21_);" d="M111.355,110.931L98.406,97.982c-3.435-3.435-9.003-3.435-12.438,0l0,0
					c-3.435,3.435-3.435,9.003,0,12.438l12.949,12.949c3.435,3.435,9.003,3.435,12.438,0l0,0
					C114.79,119.934,114.79,114.365,111.355,110.931z"/>
			</g>
		</g>
		<g>
			<g>
				
					<linearGradient id="SVGID_22_" gradientUnits="userSpaceOnUse" x1="-850.4399" y1="-531.3283" x2="-814.5378" y2="-531.3283" gradientTransform="matrix(-1 0 0 1 -372.3786 759.7495)">
					<stop  offset="0" style="stop-color:#FF7044"/>
					<stop  offset="1" style="stop-color:#F92814"/>
				</linearGradient>
				<path style="fill:url(#SVGID_22_);" d="M450.954,237.216h18.312c4.857,0,8.795-3.938,8.795-8.795l0,0
					c0-4.857-3.938-8.795-8.795-8.795h-18.312c-4.857,0-8.795,3.938-8.795,8.795l0,0
					C442.159,233.279,446.097,237.216,450.954,237.216z"/>
			</g>
			<g>
				
					<linearGradient id="SVGID_23_" gradientUnits="userSpaceOnUse" x1="-1921.4386" y1="2054.5332" x2="-1885.536" y2="2054.5332" gradientTransform="matrix(-0.7071 0.7071 -0.7071 -0.7071 518.1428 2909.3918)">
					<stop  offset="0" style="stop-color:#FFDA45"/>
					<stop  offset="1" style="stop-color:#FFA425"/>
				</linearGradient>
				<path style="fill:url(#SVGID_23_);" d="M398.645,110.931l12.949-12.949c3.435-3.435,9.003-3.435,12.438,0l0,0
					c3.435,3.435,3.435,9.003,0,12.438l-12.949,12.949c-3.435,3.435-9.003,3.435-12.438,0l0,0
					C395.21,119.934,395.21,114.365,398.645,110.931z"/>
			</g>
			<g>
				
					<linearGradient id="SVGID_24_" gradientUnits="userSpaceOnUse" x1="-174.7113" y1="307.8059" x2="-138.8089" y2="307.8059" gradientTransform="matrix(-0.7071 -0.7071 -0.7071 0.7071 518.1428 17.6723)">
					<stop  offset="0" style="stop-color:#92F37F"/>
					<stop  offset="1" style="stop-color:#4AB272"/>
				</linearGradient>
				<path style="fill:url(#SVGID_24_);" d="M398.645,345.912l12.949,12.949c3.435,3.435,9.003,3.435,12.438,0l0,0
					c3.435-3.435,3.435-9.003,0-12.438l-12.949-12.949c-3.435-3.435-9.003-3.435-12.438,0l0,0
					C395.21,336.908,395.21,342.477,398.645,345.912z"/>
			</g>
		</g>
	</g>
	<g>
		<linearGradient id="SVGID_25_" gradientUnits="userSpaceOnUse" x1="255" y1="378.6676" x2="255" y2="441.0446">
			<stop  offset="0" style="stop-color:#F9F7FC"/>
			<stop  offset="1" style="stop-color:#F0DDFC"/>
		</linearGradient>
		<path style="fill:url(#SVGID_25_);" d="M496.177,413.48C474.718,403.454,352.065,352.116,255,437.94
			c-97.065-85.824-219.718-34.486-241.177-24.46c-2.007,0.938-3.275,2.902-3.275,5.053v0c0,4.078,4.373,6.817,8.219,5.123
			c117.258-51.629,206.762-3.663,235.157,15.252l1.075,0.72l1.075-0.72c28.395-18.915,117.899-66.881,235.157-15.252
			c3.847,1.694,8.219-1.045,8.219-5.123v0C499.452,416.382,498.184,414.418,496.177,413.48z"/>
		<linearGradient id="SVGID_26_" gradientUnits="userSpaceOnUse" x1="255" y1="365.7715" x2="255" y2="440.3142">
			<stop  offset="0" style="stop-color:#F9F7FC"/>
			<stop  offset="1" style="stop-color:#F0DDFC"/>
		</linearGradient>
		<path style="fill:url(#SVGID_26_);" d="M490.607,395.463c-20.34-10.026-143.603-48.355-235.607,37.468
			c-92.004-85.824-215.267-47.494-235.607-37.468c-1.902,0.938-3.104,2.902-3.104,5.053v0c0,4.078,4.145,6.817,7.791,5.123
			c111.145-51.629,202.987,13.348,229.901,32.263l1.019,0.72l1.019-0.72c26.915-18.915,118.756-83.892,229.901-32.263
			c3.646,1.694,7.791-1.045,7.791-5.123v0C493.711,398.365,492.509,396.4,490.607,395.463z"/>
		<g>
			<linearGradient id="SVGID_27_" gradientUnits="userSpaceOnUse" x1="255" y1="412.3312" x2="255" y2="470.5463">
				<stop  offset="0" style="stop-color:#F9F7FC"/>
				<stop  offset="1" style="stop-color:#F0DDFC"/>
			</linearGradient>
			<path style="fill:url(#SVGID_27_);" d="M500,440.304v15.805c0,7.732-7.946,13.019-15.273,10.177
				c-35.244-13.651-71.23-20.47-107.227-20.47c-38.262,0-76.514,7.71-113.859,23.141c-2.752,1.137-5.678,1.751-8.639,1.751l0,0
				c-2.963,0-5.891-0.614-8.645-1.751c-72.474-29.935-148.391-30.825-221.084-2.67C17.946,469.128,10,463.841,10,456.109v-15.805
				c0-5.568,3.36-10.633,8.597-12.797c37.368-15.441,75.624-23.149,113.891-23.149c41.212,0,82.435,8.948,122.511,26.845
				c77.31-34.519,158.812-35.747,236.402-3.696C496.64,429.671,500,434.736,500,440.304z"/>
		</g>
		<linearGradient id="SVGID_28_" gradientUnits="userSpaceOnUse" x1="255" y1="442.3312" x2="255" y2="281.652">
			<stop  offset="0" style="stop-color:#F0DDFC;stop-opacity:0"/>
			<stop  offset="0.2889" style="stop-color:#C8B7E0;stop-opacity:0.2889"/>
			<stop  offset="0.5915" style="stop-color:#A595C8;stop-opacity:0.5915"/>
			<stop  offset="0.8395" style="stop-color:#8F81B8;stop-opacity:0.8395"/>
			<stop  offset="1" style="stop-color:#8779B3"/>
		</linearGradient>
		<path style="fill:url(#SVGID_28_);" d="M491.402,437.52C413.812,405.469,332.31,406.697,255,441.216
			c-40.077-17.897-81.3-26.845-122.511-26.845c-38.267,0-76.523,7.708-113.891,23.149C13.36,439.684,10,444.749,10,450.317v5.793
			c0,7.732,7.946,13.019,15.273,10.177c72.693-28.154,148.61-27.264,221.084,2.67c2.754,1.137,5.682,1.751,8.645,1.751
			c2.961,0,5.887-0.614,8.639-1.751c37.345-15.431,75.597-23.141,113.859-23.141c35.997,0,71.983,6.819,107.227,20.47
			c7.328,2.842,15.273-2.445,15.273-10.177v-5.793C500,444.749,496.64,439.684,491.402,437.52z"/>
		<linearGradient id="SVGID_29_" gradientUnits="userSpaceOnUse" x1="255" y1="462.1713" x2="255" y2="342.1115">
			<stop  offset="0" style="stop-color:#F0DDFC;stop-opacity:0"/>
			<stop  offset="0.2889" style="stop-color:#C8B7E0;stop-opacity:0.2889"/>
			<stop  offset="0.5915" style="stop-color:#A595C8;stop-opacity:0.5915"/>
			<stop  offset="0.8395" style="stop-color:#8F81B8;stop-opacity:0.8395"/>
			<stop  offset="1" style="stop-color:#8779B3"/>
		</linearGradient>
		<path style="fill:url(#SVGID_29_);" d="M255,455.458c-40.077-17.897-81.3-26.845-122.511-26.845
			c-38.267,0-76.523,7.708-113.891,23.149c-3.781,1.562-6.575,4.64-7.842,8.324c2.147,5.421,8.536,8.52,14.517,6.2
			c72.693-28.154,148.61-27.264,221.084,2.67c2.754,1.137,5.682,1.751,8.645,1.751c2.961,0,5.887-0.614,8.639-1.751
			c37.345-15.431,75.597-23.141,113.859-23.141c35.997,0,71.983,6.819,107.227,20.47c5.981,2.32,12.37-0.779,14.518-6.2
			c-1.266-3.684-4.061-6.762-7.842-8.324C413.812,419.711,332.31,420.939,255,455.458z"/>
		<linearGradient id="SVGID_30_" gradientUnits="userSpaceOnUse" x1="255" y1="425.8312" x2="255" y2="489.839">
			<stop  offset="0" style="stop-color:#F0DDFC;stop-opacity:0"/>
			<stop  offset="0.2889" style="stop-color:#C8B7E0;stop-opacity:0.2889"/>
			<stop  offset="0.5915" style="stop-color:#A595C8;stop-opacity:0.5915"/>
			<stop  offset="0.8395" style="stop-color:#8F81B8;stop-opacity:0.8395"/>
			<stop  offset="1" style="stop-color:#8779B3"/>
		</linearGradient>
		<path style="fill:url(#SVGID_30_);" d="M255,431.204l-19.413,33.549c3.597,1.337,7.189,2.725,10.77,4.204
			c2.754,1.137,5.682,1.751,8.645,1.751c2.961,0,5.887-0.614,8.639-1.751c3.582-1.48,7.175-2.867,10.772-4.205L255,431.204z"/>
		<linearGradient id="SVGID_31_" gradientUnits="userSpaceOnUse" x1="177.1709" y1="382.7161" x2="421.2563" y2="633.114">
			<stop  offset="0" style="stop-color:#4A98F7"/>
			<stop  offset="1" style="stop-color:#0469BC"/>
		</linearGradient>
		<path style="fill:url(#SVGID_31_);" d="M393,436.85c-43.104,0-86.196,7.71-128.266,23.141c-3.1,1.137-6.397,1.751-9.732,1.751
			c-3.338,0-6.636-0.614-9.739-1.751c-78.444-28.761-160.466-30.69-239.409-5.826C2.378,455.259,0,458.468,0,462.113v0
			c0,7.732,8.27,13.019,15.897,10.177c75.66-28.154,154.675-27.264,230.108,2.67c2.866,1.137,5.914,1.751,8.997,1.751
			c3.082,0,6.128-0.614,8.992-1.751c38.869-15.431,78.682-23.141,118.507-23.141c37.466,0,74.921,6.819,111.603,20.47
			c7.627,2.842,15.897-2.445,15.897-10.177v-0.001c0-3.642-2.373-6.853-5.846-7.947C467.539,442.63,430.276,436.85,393,436.85z"/>
		<linearGradient id="SVGID_32_" gradientUnits="userSpaceOnUse" x1="336.6139" y1="456.8495" x2="248.614" y2="456.3495">
			<stop  offset="0" style="stop-color:#0469BC;stop-opacity:0"/>
			<stop  offset="1" style="stop-color:#0469BC"/>
		</linearGradient>
		<path style="fill:url(#SVGID_32_);" d="M504.154,454.165C467.539,442.63,430.276,436.85,393,436.85
			c-43.104,0-86.196,7.71-128.266,23.141c-3.1,1.137-6.397,1.751-9.732,1.751c0,0-0.001,0-0.001,0l0,14.969h0.001
			c3.082,0,6.128-0.614,8.992-1.751c38.869-15.431,78.682-23.141,118.507-23.141c37.466,0,74.921,6.819,111.603,20.47
			c7.627,2.842,15.897-2.445,15.897-10.177v-0.001C510,458.471,507.627,455.26,504.154,454.165z"/>
	</g>
</g>
<g>
</g>
<g>
</g>
<g>
</g>
<g>
</g>
<g>
</g>
<g>
</g>
<g>
</g>
<g>
</g>
<g>
</g>
<g>
</g>
<g>
</g>
<g>
</g>
<g>
</g>
<g>
</g>
<g>
</g>
</svg>
