<?xml version="1.0" encoding="iso-8859-1"?>
<!-- Generator: Adobe Illustrator 22.0.0, SVG Export Plug-In . SVG Version: 6.00 Build 0)  -->
<svg version="1.1" id="Capa_1" xmlns="http://www.w3.org/2000/svg" xmlns:xlink="http://www.w3.org/1999/xlink" x="0px" y="0px"
	 viewBox="0 0 510 510" style="enable-background:new 0 0 510 510;" xml:space="preserve">
<g>
	<linearGradient id="SVGID_1_" gradientUnits="userSpaceOnUse" x1="241.8344" y1="438.3322" x2="299.9078" y2="565.3679">
		<stop  offset="0" style="stop-color:#7E8595"/>
		<stop  offset="1" style="stop-color:#555A66"/>
	</linearGradient>
	<path style="fill:url(#SVGID_1_);" d="M354.041,368.822H155.959c-43.478,0-78.724,35.246-78.724,78.724v54.657
		c0,4.306,3.491,7.797,7.797,7.797h339.938c4.306,0,7.797-3.491,7.797-7.797v-54.657
		C432.766,404.068,397.52,368.822,354.041,368.822z"/>
	<linearGradient id="SVGID_2_" gradientUnits="userSpaceOnUse" x1="344.7987" y1="429.8195" x2="326.2742" y2="551.0226">
		<stop  offset="0" style="stop-color:#7E8595"/>
		<stop  offset="0.5816" style="stop-color:#646977"/>
		<stop  offset="1" style="stop-color:#555A66"/>
	</linearGradient>
	<path style="fill:url(#SVGID_2_);" d="M255,510h169.969c4.306,0,7.797-3.491,7.797-7.797v-54.657
		c0-43.478-35.246-78.724-78.724-78.724H255V510z"/>
	<linearGradient id="SVGID_3_" gradientUnits="userSpaceOnUse" x1="216.8533" y1="410.1711" x2="78.5371" y2="264.7979">
		<stop  offset="0" style="stop-color:#BEC3D2;stop-opacity:0"/>
		<stop  offset="0.221" style="stop-color:#C5C9D7;stop-opacity:0.221"/>
		<stop  offset="0.5343" style="stop-color:#D7DAE3;stop-opacity:0.5343"/>
		<stop  offset="0.9014" style="stop-color:#F6F6F8;stop-opacity:0.9014"/>
		<stop  offset="1" style="stop-color:#FFFFFF"/>
	</linearGradient>
	<path style="fill:url(#SVGID_3_);" d="M359.646,377.584H175.664c-40.383,0-73.12,32.737-73.12,73.12v52.054
		c0,4,3.242,7.242,7.242,7.242h315.183c4.306,0,7.797-3.491,7.797-7.797v-51.499C432.766,410.321,400.029,377.584,359.646,377.584z"
		/>
	<linearGradient id="SVGID_4_" gradientUnits="userSpaceOnUse" x1="255.39" y1="478.1022" x2="374.6525" y2="607.9501">
		<stop  offset="0" style="stop-color:#555A66;stop-opacity:0"/>
		<stop  offset="1" style="stop-color:#555A66"/>
	</linearGradient>
	<path style="fill:url(#SVGID_4_);" d="M334.336,377.584H150.354c-40.383,0-73.12,32.737-73.12,73.12v52.054
		c0,4,3.242,7.242,7.242,7.242h315.183c4.306,0,7.797-3.491,7.797-7.797v-51.499C407.456,410.321,374.719,377.584,334.336,377.584z"
		/>
	<linearGradient id="SVGID_5_" gradientUnits="userSpaceOnUse" x1="315.4489" y1="456.1185" x2="259.3461" y2="355.0276">
		<stop  offset="0" style="stop-color:#555A66;stop-opacity:0"/>
		<stop  offset="1" style="stop-color:#555A66"/>
	</linearGradient>
	<path style="fill:url(#SVGID_5_);" d="M319.635,368.822H192.087c-0.72,1.835-1.129,3.827-1.129,5.917v2.26
		c0,5.018,0.705,10.01,2.094,14.832l17.262,59.922c0.661,2.295,2.103,4.033,3.895,5.139L267.317,510h157.652
		c4.306,0,7.797-3.491,7.797-7.797v-20.251L319.635,368.822z"/>
	<linearGradient id="SVGID_6_" gradientUnits="userSpaceOnUse" x1="208.7554" y1="370.8747" x2="299.2668" y2="382.6806">
		<stop  offset="0" style="stop-color:#FFDAAA"/>
		<stop  offset="0.4213" style="stop-color:#FFD8A8"/>
		<stop  offset="0.6519" style="stop-color:#FED1A0"/>
		<stop  offset="0.8359" style="stop-color:#FDC592"/>
		<stop  offset="0.9951" style="stop-color:#FCB47F"/>
		<stop  offset="1" style="stop-color:#FCB37E"/>
	</linearGradient>
	<path style="fill:url(#SVGID_6_);" d="M264.075,425.317h-18.15c-21.396,0-38.742-17.345-38.742-38.742v-53.358h95.633v53.358
		C302.817,407.971,285.471,425.317,264.075,425.317z"/>
	<linearGradient id="SVGID_7_" gradientUnits="userSpaceOnUse" x1="266.34" y1="394.5332" x2="253.6375" y2="328.3743">
		<stop  offset="0" style="stop-color:#FCB37E;stop-opacity:0"/>
		<stop  offset="1" style="stop-color:#FF7044"/>
	</linearGradient>
	<path style="fill:url(#SVGID_7_);" d="M302.817,386.575v-53.358h-95.633v4.507l79.969,79.969
		C296.657,410.633,302.817,399.324,302.817,386.575z"/>
	<g>
		<linearGradient id="SVGID_8_" gradientUnits="userSpaceOnUse" x1="126.2277" y1="158.5665" x2="153.2206" y2="228.4304">
			<stop  offset="0" style="stop-color:#FFDAAA"/>
			<stop  offset="0.5752" style="stop-color:#FDC592"/>
			<stop  offset="1" style="stop-color:#FCB37E"/>
		</linearGradient>
		<circle style="fill:url(#SVGID_8_);" cx="141.257" cy="197.465" r="33.609"/>
		<linearGradient id="SVGID_9_" gradientUnits="userSpaceOnUse" x1="353.7141" y1="158.5665" x2="380.707" y2="228.4304">
			<stop  offset="0" style="stop-color:#FFDAAA"/>
			<stop  offset="0.5752" style="stop-color:#FDC592"/>
			<stop  offset="1" style="stop-color:#FCB37E"/>
		</linearGradient>
		<circle style="fill:url(#SVGID_9_);" cx="368.743" cy="197.465" r="33.609"/>
		<radialGradient id="SVGID_10_" cx="215.7822" cy="141.4216" r="199.8378" gradientUnits="userSpaceOnUse">
			<stop  offset="0" style="stop-color:#FFDAAA"/>
			<stop  offset="0.4213" style="stop-color:#FFD8A8"/>
			<stop  offset="0.6519" style="stop-color:#FED1A0"/>
			<stop  offset="0.8359" style="stop-color:#FDC592"/>
			<stop  offset="0.9951" style="stop-color:#FCB47F"/>
			<stop  offset="1" style="stop-color:#FCB37E"/>
		</radialGradient>
		<path style="fill:url(#SVGID_10_);" d="M255,348.206L255,348.206c-63.009,0-114.088-51.079-114.088-114.088v-120.03
			C140.912,51.079,191.991,0,255,0h0c63.009,0,114.088,51.079,114.088,114.088v120.03C369.088,297.127,318.009,348.206,255,348.206z
			"/>
		<linearGradient id="SVGID_11_" gradientUnits="userSpaceOnUse" x1="231.1526" y1="129.9531" x2="152.8204" y2="-15.0673">
			<stop  offset="0" style="stop-color:#FFDAAA;stop-opacity:0"/>
			<stop  offset="1" style="stop-color:#FFFFFF"/>
		</linearGradient>
		<path style="fill:url(#SVGID_11_);" d="M255,334.617L255,334.617c-58.091,0-105.184-47.092-105.184-105.183V118.772
			c0-58.091,47.092-105.183,105.183-105.183h0c58.091,0,105.183,47.092,105.183,105.183v110.662
			C360.183,287.525,313.091,334.617,255,334.617z"/>
		<g>
			<g>
				<g>
					<linearGradient id="SVGID_12_" gradientUnits="userSpaceOnUse" x1="190.109" y1="180.221" x2="216.341" y2="206.4529">
						<stop  offset="0" style="stop-color:#7E8595"/>
						<stop  offset="1" style="stop-color:#555A66"/>
					</linearGradient>
					<circle style="fill:url(#SVGID_12_);" cx="197.687" cy="187.799" r="20.254"/>
					<linearGradient id="SVGID_13_" gradientUnits="userSpaceOnUse" x1="195.352" y1="184.4329" x2="180.6602" y2="163.2538">
						<stop  offset="0" style="stop-color:#BEC3D2;stop-opacity:0"/>
						<stop  offset="0.3183" style="stop-color:#C2C7D5;stop-opacity:0.3183"/>
						<stop  offset="0.6082" style="stop-color:#CDD1DE;stop-opacity:0.6082"/>
						<stop  offset="0.8861" style="stop-color:#DFE3ED;stop-opacity:0.8861"/>
						<stop  offset="1" style="stop-color:#E9EDF5"/>
					</linearGradient>
					<circle style="fill:url(#SVGID_13_);" cx="197.687" cy="187.799" r="16.904"/>
					<linearGradient id="SVGID_14_" gradientUnits="userSpaceOnUse" x1="198.3905" y1="195.5613" x2="226.2303" y2="143.7831">
						<stop  offset="0" style="stop-color:#555A66;stop-opacity:0"/>
						<stop  offset="1" style="stop-color:#555A66"/>
					</linearGradient>
					<path style="fill:url(#SVGID_14_);" d="M206.747,169.681c1.366,2.726,2.136,5.803,2.136,9.06
						c0,11.186-9.068,20.254-20.254,20.254c-3.257,0-6.334-0.77-9.06-2.136c3.325,6.637,10.189,11.194,18.118,11.194
						c11.186,0,20.254-9.068,20.254-20.254C217.941,179.87,213.384,173.007,206.747,169.681z"/>
				</g>
			</g>
			<g>
				<g>
					<linearGradient id="SVGID_15_" gradientUnits="userSpaceOnUse" x1="304.7349" y1="180.221" x2="330.9669" y2="206.4529">
						<stop  offset="0" style="stop-color:#7E8595"/>
						<stop  offset="1" style="stop-color:#555A66"/>
					</linearGradient>
					<circle style="fill:url(#SVGID_15_);" cx="312.313" cy="187.799" r="20.254"/>
					<linearGradient id="SVGID_16_" gradientUnits="userSpaceOnUse" x1="309.9779" y1="184.4329" x2="295.2861" y2="163.2538">
						<stop  offset="0" style="stop-color:#BEC3D2;stop-opacity:0"/>
						<stop  offset="0.3183" style="stop-color:#C2C7D5;stop-opacity:0.3183"/>
						<stop  offset="0.6082" style="stop-color:#CDD1DE;stop-opacity:0.6082"/>
						<stop  offset="0.8861" style="stop-color:#DFE3ED;stop-opacity:0.8861"/>
						<stop  offset="1" style="stop-color:#E9EDF5"/>
					</linearGradient>
					<circle style="fill:url(#SVGID_16_);" cx="312.313" cy="187.799" r="16.904"/>
					<linearGradient id="SVGID_17_" gradientUnits="userSpaceOnUse" x1="313.0164" y1="195.5613" x2="340.8562" y2="143.7831">
						<stop  offset="0" style="stop-color:#555A66;stop-opacity:0"/>
						<stop  offset="1" style="stop-color:#555A66"/>
					</linearGradient>
					<path style="fill:url(#SVGID_17_);" d="M321.373,169.681c1.366,2.726,2.136,5.803,2.136,9.06
						c0,11.186-9.068,20.254-20.254,20.254c-3.257,0-6.334-0.77-9.06-2.136c3.325,6.637,10.189,11.194,18.118,11.194
						c11.186,0,20.254-9.068,20.254-20.254C332.567,179.87,328.01,173.007,321.373,169.681z"/>
				</g>
			</g>
		</g>
		<linearGradient id="SVGID_18_" gradientUnits="userSpaceOnUse" x1="293.4402" y1="338.6709" x2="254.2741" y2="260.868">
			<stop  offset="0" style="stop-color:#FCB37E;stop-opacity:0"/>
			<stop  offset="1" style="stop-color:#FF7044"/>
		</linearGradient>
		<path style="fill:url(#SVGID_18_);" d="M339.388,310.895l-44.915-44.915c-4.426-4.869-10.649-8.073-17.624-8.548
			c-0.995,1.821-2.308,3.451-3.864,4.816c-3.059,2.678-7.071,4.319-11.506,4.319h-12.957c-3.452,0-6.645-1.004-9.337-2.712
			c-0.218-0.339-0.443-0.674-0.637-1.028c-0.203,0.014-0.404,0.038-0.606,0.056c-0.431-0.596-0.838-1.209-1.192-1.855
			c-0.203,0.014-0.404,0.038-0.606,0.056c-0.431-0.596-0.838-1.209-1.192-1.855c-0.203,0.014-0.404,0.038-0.606,0.056
			c-0.431-0.596-0.838-1.209-1.192-1.855c-13.666,0.932-24.463,12.321-24.463,26.231v3.589c0,2.921,1.412,5.509,3.585,7.138
			l53.323,53.323C294.762,345.025,320.75,331.368,339.388,310.895z"/>
		<g>
			<linearGradient id="SVGID_19_" gradientUnits="userSpaceOnUse" x1="248.4449" y1="269.0468" x2="260.6176" y2="296.0383">
				<stop  offset="0" style="stop-color:#F9F7FC"/>
				<stop  offset="1" style="stop-color:#F0DDFC"/>
			</linearGradient>
			<path style="fill:url(#SVGID_19_);" d="M301.311,283.662v3.589c0,4.922-3.991,8.923-8.924,8.923h-74.775
				c-4.933,0-8.924-4.001-8.924-8.923v-3.589c0-13.909,10.797-25.299,24.463-26.231c0.593,1.08,1.302,2.096,2.096,3.027
				c3.186,3.726,7.928,6.108,13.274,6.108h12.957c4.435,0,8.447-1.641,11.506-4.319c1.556-1.366,2.869-2.996,3.864-4.816
				C290.514,258.363,301.311,269.753,301.311,283.662z"/>
			<linearGradient id="SVGID_20_" gradientUnits="userSpaceOnUse" x1="248.0679" y1="284.1183" x2="290.0562" y2="331.7522">
				<stop  offset="0" style="stop-color:#F0DDFC;stop-opacity:0"/>
				<stop  offset="0.2889" style="stop-color:#C8B7E0;stop-opacity:0.2889"/>
				<stop  offset="0.5915" style="stop-color:#A595C8;stop-opacity:0.5915"/>
				<stop  offset="0.8395" style="stop-color:#8F81B8;stop-opacity:0.8395"/>
				<stop  offset="1" style="stop-color:#8779B3"/>
			</linearGradient>
			<path style="fill:url(#SVGID_20_);" d="M284.025,283.662v12.512h-66.413c-4.933,0-8.924-4.001-8.924-8.923v-3.589
				c0-13.909,10.797-25.299,24.463-26.231c0.593,1.08,1.302,2.096,2.096,3.027c3.186,3.726,7.928,6.108,13.274,6.108h12.957
				c4.435,0,8.447-1.641,11.506-4.319C279.664,267.012,284.025,274.834,284.025,283.662z"/>
			<linearGradient id="SVGID_21_" gradientUnits="userSpaceOnUse" x1="264.0002" y1="281.6721" x2="227.6583" y2="262.2662">
				<stop  offset="0" style="stop-color:#E9EDF5;stop-opacity:0"/>
				<stop  offset="1" style="stop-color:#FFFFFF"/>
			</linearGradient>
			<path style="fill:url(#SVGID_21_);" d="M301.311,283.662v3.589c0,4.922-3.991,8.923-8.924,8.923h-62.126
				c-4.922,0-8.924-4.001-8.924-8.923v-3.589c0-10.035,5.631-18.768,13.909-23.203c3.186,3.726,7.928,6.108,13.274,6.108h12.957
				c4.435,0,8.447-1.641,11.506-4.319c1.556-1.366,2.869-2.996,3.864-4.816C290.514,258.363,301.311,269.753,301.311,283.662z"/>
		</g>
		<linearGradient id="SVGID_22_" gradientUnits="userSpaceOnUse" x1="255" y1="207.665" x2="255" y2="291.9889">
			<stop  offset="0" style="stop-color:#FCB37E;stop-opacity:0"/>
			<stop  offset="1" style="stop-color:#FF7044"/>
		</linearGradient>
		<path style="fill:url(#SVGID_22_);" d="M261.481,266.568h-12.962c-10.388,0-18.481-9.01-17.37-19.338l6.777-63h34.148l6.777,63
			C279.962,257.558,271.869,266.568,261.481,266.568z"/>
		<linearGradient id="SVGID_23_" gradientUnits="userSpaceOnUse" x1="126.379" y1="94.335" x2="149.6669" y2="118.3286">
			<stop  offset="0" style="stop-color:#F9F7FC"/>
			<stop  offset="1" style="stop-color:#F0DDFC"/>
		</linearGradient>
		<path style="fill:url(#SVGID_23_);" d="M134.953,188.867h-10.872c-25.809,0-46.732-20.923-46.732-46.732v-50.28
			c0-34.091,27.637-61.728,61.728-61.728h38.799l0,0c-13.015,11.2-20.5,27.518-20.5,44.689v91.628
			C157.376,178.828,147.337,188.867,134.953,188.867z"/>
		<linearGradient id="SVGID_24_" gradientUnits="userSpaceOnUse" x1="362.8445" y1="70.162" x2="429.5327" y2="190.8359">
			<stop  offset="0" style="stop-color:#F9F7FC"/>
			<stop  offset="1" style="stop-color:#F0DDFC"/>
		</linearGradient>
		<path style="fill:url(#SVGID_24_);" d="M375.047,188.867h10.872c25.809,0,46.732-20.923,46.732-46.732v-50.28
			c0-34.091-27.637-61.728-61.728-61.728h-38.799l0,0c13.015,11.2,20.5,27.518,20.5,44.689v91.628
			C352.624,178.828,362.663,188.867,375.047,188.867z"/>
	</g>
	<linearGradient id="SVGID_25_" gradientUnits="userSpaceOnUse" x1="408.1775" y1="181.3017" x2="318.5542" y2="133.3145">
		<stop  offset="0" style="stop-color:#F0DDFC;stop-opacity:0"/>
		<stop  offset="0.2889" style="stop-color:#C8B7E0;stop-opacity:0.2889"/>
		<stop  offset="0.5915" style="stop-color:#A595C8;stop-opacity:0.5915"/>
		<stop  offset="0.8395" style="stop-color:#8F81B8;stop-opacity:0.8395"/>
		<stop  offset="1" style="stop-color:#8779B3"/>
	</linearGradient>
	<path style="fill:url(#SVGID_25_);" d="M379.432,139.396h-6.934v49.316c0.838,0.095,1.686,0.155,2.549,0.155h10.872
		c11.951,0,22.849-4.492,31.112-11.872L379.432,139.396z"/>
	<g>
		<linearGradient id="SVGID_26_" gradientUnits="userSpaceOnUse" x1="255" y1="162.0923" x2="255" y2="168.4533">
			<stop  offset="0" style="stop-color:#FFDA45"/>
			<stop  offset="1" style="stop-color:#FFA425"/>
		</linearGradient>
		<rect x="239.231" y="157.858" style="fill:url(#SVGID_26_);" width="31.538" height="13.521"/>
		<g>
			<g>
				<g>
					<g>
						<linearGradient id="SVGID_27_" gradientUnits="userSpaceOnUse" x1="157.3148" y1="134.1708" x2="228.8894" y2="254.9845">
							<stop  offset="0" style="stop-color:#FFDA45"/>
							<stop  offset="1" style="stop-color:#FFA425"/>
						</linearGradient>
						<path style="fill:url(#SVGID_27_);" d="M239.873,137.312H134.071c-2.352,0-4.258,2.16-4.258,4.824v84.188
							c0,2.665,1.906,4.824,4.258,4.824h105.803c2.352,0,4.258-2.16,4.258-4.824v-84.188
							C244.131,139.472,242.225,137.312,239.873,137.312z M232.653,216.291c0,2.184-1.562,3.954-3.49,3.954h-84.382
							c-1.928,0-3.49-1.77-3.49-3.954v-64.122c0-2.184,1.562-3.954,3.49-3.954h84.382c1.928,0,3.49,1.77,3.49,3.954V216.291z"/>
						<linearGradient id="SVGID_28_" gradientUnits="userSpaceOnUse" x1="231.5081" y1="228.7665" x2="140.3134" y2="137.5718">
							<stop  offset="0" style="stop-color:#FFDA45"/>
							<stop  offset="1" style="stop-color:#FFA425"/>
						</linearGradient>
						<path style="fill:url(#SVGID_28_);" d="M138.481,226.687h96.982c2.141,0,3.878-1.968,3.878-4.394v-76.126
							c0-2.426-1.737-4.394-3.878-4.394h-96.982c-2.141,0-3.878,1.968-3.878,4.394v76.126
							C134.604,224.719,136.34,226.687,138.481,226.687z M141.291,152.169c0-2.184,1.562-3.954,3.49-3.954h84.382
							c1.928,0,3.49,1.77,3.49,3.954v64.122c0,2.184-1.562,3.954-3.49,3.954h-84.382c-1.928,0-3.49-1.77-3.49-3.954V152.169z"/>
						<linearGradient id="SVGID_29_" gradientUnits="userSpaceOnUse" x1="197.406" y1="201.5021" x2="151.3594" y2="125.287">
							<stop  offset="0" style="stop-color:#F92814;stop-opacity:0"/>
							<stop  offset="1" style="stop-color:#C1272D"/>
						</linearGradient>
						<path style="fill:url(#SVGID_29_);" d="M244.131,226.324v-84.188c0-1.018-0.28-1.962-0.755-2.74l-12.148,9.59
							c0.863,0.72,1.426,1.876,1.426,3.184v64.122c0,2.184-1.562,3.954-3.49,3.954h-84.382c-0.941,0-1.794-0.424-2.422-1.11
							l-12.029,9.495c0.722,1.5,2.126,2.518,3.74,2.518h105.803C242.225,231.149,244.131,228.989,244.131,226.324z"/>
					</g>
				</g>
				<linearGradient id="SVGID_30_" gradientUnits="userSpaceOnUse" x1="225.298" y1="222.5564" x2="146.8195" y2="144.0779">
					<stop  offset="0" style="stop-color:#FFFFFF;stop-opacity:0"/>
					<stop  offset="1" style="stop-color:#FFFFFF"/>
				</linearGradient>
				<path style="fill:url(#SVGID_30_);" d="M141.291,152.169c0-2.184,1.562-3.954,3.49-3.954h84.382c1.928,0,3.49,1.77,3.49,3.954
					v64.122c0,2.184-1.562,3.954-3.49,3.954h-84.382c-1.928,0-3.49-1.77-3.49-3.954V152.169z"/>
			</g>
			<g>
				<g>
					<g>
						<linearGradient id="SVGID_31_" gradientUnits="userSpaceOnUse" x1="293.3708" y1="134.1708" x2="364.9454" y2="254.9845">
							<stop  offset="0" style="stop-color:#FFDA45"/>
							<stop  offset="1" style="stop-color:#FFA425"/>
						</linearGradient>
						<path style="fill:url(#SVGID_31_);" d="M375.929,137.312H270.127c-2.352,0-4.258,2.16-4.258,4.824v84.188
							c0,2.665,1.906,4.824,4.258,4.824h105.803c2.352,0,4.258-2.16,4.258-4.824v-84.188
							C380.187,139.472,378.281,137.312,375.929,137.312z M368.709,216.291c0,2.184-1.562,3.954-3.49,3.954h-84.382
							c-1.928,0-3.49-1.77-3.49-3.954v-64.122c0-2.184,1.562-3.954,3.49-3.954h84.382c1.928,0,3.49,1.77,3.49,3.954V216.291z"/>
						<linearGradient id="SVGID_32_" gradientUnits="userSpaceOnUse" x1="367.5642" y1="228.7665" x2="276.3694" y2="137.5718">
							<stop  offset="0" style="stop-color:#FFDA45"/>
							<stop  offset="1" style="stop-color:#FFA425"/>
						</linearGradient>
						<path style="fill:url(#SVGID_32_);" d="M274.537,226.687h96.982c2.141,0,3.878-1.968,3.878-4.394v-76.126
							c0-2.426-1.737-4.394-3.878-4.394h-96.982c-2.141,0-3.878,1.968-3.878,4.394v76.126
							C270.66,224.719,272.396,226.687,274.537,226.687z M277.347,152.169c0-2.184,1.562-3.954,3.49-3.954h84.382
							c1.928,0,3.49,1.77,3.49,3.954v64.122c0,2.184-1.562,3.954-3.49,3.954h-84.382c-1.928,0-3.49-1.77-3.49-3.954V152.169z"/>
						<linearGradient id="SVGID_33_" gradientUnits="userSpaceOnUse" x1="333.462" y1="201.5021" x2="287.4154" y2="125.287">
							<stop  offset="0" style="stop-color:#F92814;stop-opacity:0"/>
							<stop  offset="1" style="stop-color:#C1272D"/>
						</linearGradient>
						<path style="fill:url(#SVGID_33_);" d="M380.187,226.324v-84.188c0-1.018-0.28-1.962-0.755-2.74l-12.148,9.59
							c0.863,0.72,1.426,1.876,1.426,3.184v64.122c0,2.184-1.562,3.954-3.49,3.954h-84.382c-0.941,0-1.794-0.424-2.422-1.11
							l-12.029,9.495c0.722,1.5,2.126,2.518,3.74,2.518h105.803C378.281,231.149,380.187,228.989,380.187,226.324z"/>
					</g>
				</g>
				<linearGradient id="SVGID_34_" gradientUnits="userSpaceOnUse" x1="361.354" y1="222.5564" x2="282.8755" y2="144.0779">
					<stop  offset="0" style="stop-color:#FFFFFF;stop-opacity:0"/>
					<stop  offset="1" style="stop-color:#FFFFFF"/>
				</linearGradient>
				<path style="fill:url(#SVGID_34_);" d="M277.347,152.169c0-2.184,1.562-3.954,3.49-3.954h84.382c1.928,0,3.49,1.77,3.49,3.954
					v64.122c0,2.184-1.562,3.954-3.49,3.954h-84.382c-1.928,0-3.49-1.77-3.49-3.954V152.169z"/>
			</g>
		</g>
	</g>
	<linearGradient id="SVGID_35_" gradientUnits="userSpaceOnUse" x1="272.99" y1="289.8298" x2="213.7116" y2="96.4694">
		<stop  offset="0" style="stop-color:#FCB37E;stop-opacity:0"/>
		<stop  offset="1" style="stop-color:#FF7044"/>
	</linearGradient>
	<path style="fill:url(#SVGID_35_);" d="M369.09,231.148v2.974c0,62.031-49.508,112.491-111.168,114.037L140.91,231.148h98.963
		c2.35,0,4.255-2.159,4.255-4.827v-54.938h21.743v54.938c0,2.668,1.905,4.827,4.255,4.827H369.09z"/>
	<g>
		<linearGradient id="SVGID_36_" gradientUnits="userSpaceOnUse" x1="222.9791" y1="388.6204" x2="222.9791" y2="481.2387">
			<stop  offset="0" style="stop-color:#7E8595"/>
			<stop  offset="1" style="stop-color:#555A66"/>
		</linearGradient>
		<path style="fill:url(#SVGID_36_);" d="M207.183,358.514L255,425.317l-29.601,30.242c-4.826,4.93-13.175,2.824-15.085-3.805
			l-17.262-59.922c-1.389-4.822-2.094-9.814-2.094-14.832v-2.26C190.958,365.778,198.222,358.514,207.183,358.514L207.183,358.514z"
			/>
		
			<linearGradient id="SVGID_37_" gradientUnits="userSpaceOnUse" x1="162.4791" y1="388.6204" x2="162.4791" y2="481.2387" gradientTransform="matrix(-1 0 0 1 449.5 0)">
			<stop  offset="0" style="stop-color:#7E8595"/>
			<stop  offset="1" style="stop-color:#555A66"/>
		</linearGradient>
		<path style="fill:url(#SVGID_37_);" d="M302.817,358.514L255,425.317l29.601,30.242c4.826,4.93,13.175,2.824,15.085-3.805
			l17.262-59.922c1.389-4.822,2.094-9.814,2.094-14.832v-2.26C319.042,365.778,311.777,358.514,302.817,358.514L302.817,358.514z"/>
	</g>
</g>
<g>
</g>
<g>
</g>
<g>
</g>
<g>
</g>
<g>
</g>
<g>
</g>
<g>
</g>
<g>
</g>
<g>
</g>
<g>
</g>
<g>
</g>
<g>
</g>
<g>
</g>
<g>
</g>
<g>
</g>
</svg>
