<?xml version="1.0" encoding="iso-8859-1"?>
<!-- Generator: Adobe Illustrator 22.0.0, SVG Export Plug-In . SVG Version: 6.00 Build 0)  -->
<svg version="1.1" id="Capa_1" xmlns="http://www.w3.org/2000/svg" xmlns:xlink="http://www.w3.org/1999/xlink" x="0px" y="0px"
	 viewBox="0 0 510 510" style="enable-background:new 0 0 510 510;" xml:space="preserve">
<g>
	<g>
		<g>
			<linearGradient id="SVGID_1_" gradientUnits="userSpaceOnUse" x1="105.4483" y1="65.076" x2="559.0893" y2="518.717">
				<stop  offset="0" style="stop-color:#F9F7FC"/>
				<stop  offset="1" style="stop-color:#F0DDFC"/>
			</linearGradient>
			<path style="fill:url(#SVGID_1_);" d="M478.187,14.707v432.896H58.775V14.707C58.775,6.584,65.36,0,73.482,0H463.48
				C471.603,0,478.187,6.584,478.187,14.707z"/>
			<g>
				
					<linearGradient id="SVGID_2_" gradientUnits="userSpaceOnUse" x1="516.7064" y1="602.3844" x2="603.1417" y2="602.3844" gradientTransform="matrix(0 -1 1 0 -347.3844 997.5784)">
					<stop  offset="0" style="stop-color:#F9F7FC"/>
					<stop  offset="1" style="stop-color:#F0DDFC"/>
				</linearGradient>
				<path style="fill:url(#SVGID_2_);" d="M58.658,386.887c-14.872,0.624-26.845,27.927-26.845,61.541
					c0,33.613,11.973,60.917,26.845,61.541V510h392.173c15.104,0,27.355-27.566,27.355-61.572s-12.251-61.572-27.355-61.572H58.658
					V386.887z"/>
				
					<linearGradient id="SVGID_3_" gradientUnits="userSpaceOnUse" x1="549.1505" y1="847.4411" x2="549.1505" y2="752.3337" gradientTransform="matrix(0 -1 1 0 -347.3844 997.5784)">
					<stop  offset="0" style="stop-color:#F0DDFC;stop-opacity:0"/>
					<stop  offset="0.2889" style="stop-color:#C8B7E0;stop-opacity:0.2889"/>
					<stop  offset="0.5915" style="stop-color:#A595C8;stop-opacity:0.5915"/>
					<stop  offset="0.8395" style="stop-color:#8F81B8;stop-opacity:0.8395"/>
					<stop  offset="1" style="stop-color:#8779B3"/>
				</linearGradient>
				<path style="fill:url(#SVGID_3_);" d="M450.832,386.856c15.104,0,27.355,27.566,27.355,61.572S465.936,510,450.832,510
					c-15.117,0-27.368-27.566-27.368-61.572S435.715,386.856,450.832,386.856z"/>
				
					<linearGradient id="SVGID_4_" gradientUnits="userSpaceOnUse" x1="598.6237" y1="838.2726" x2="510.202" y2="749.8509" gradientTransform="matrix(0 -1 1 0 -347.3844 997.5784)">
					<stop  offset="0" style="stop-color:#F0DDFC;stop-opacity:0"/>
					<stop  offset="0.2889" style="stop-color:#C8B7E0;stop-opacity:0.2889"/>
					<stop  offset="0.5915" style="stop-color:#A595C8;stop-opacity:0.5915"/>
					<stop  offset="0.8395" style="stop-color:#8F81B8;stop-opacity:0.8395"/>
					<stop  offset="1" style="stop-color:#8779B3"/>
				</linearGradient>
				<path style="fill:url(#SVGID_4_);" d="M450.832,386.856c15.104,0,27.355,27.566,27.355,61.572c0,3.871-0.163,7.657-0.463,11.333
					c-0.163,1.004-0.35,1.974-0.563,2.927c-0.263,1.157-0.551,2.28-0.863,3.361c-0.213,0.715-0.438,1.412-0.676,2.084
					c-0.125,0.34-0.238,0.672-0.363,0.996c-1.727,4.577-4.03,8.031-6.645,9.818c-1.114,0.766-2.303,1.234-3.516,1.353
					c-0.2,0.017-0.413,0.025-0.613,0.025h-37.066c-2.503-9.308-3.954-20.223-3.954-31.896c0-0.272,0-0.553,0.013-0.825
					C423.664,413.979,435.84,386.856,450.832,386.856z"/>
				<g>
					
						<linearGradient id="SVGID_5_" gradientUnits="userSpaceOnUse" x1="528.8024" y1="792.2181" x2="586.6205" y2="720.5515" gradientTransform="matrix(0 -1 1 0 -347.3844 997.5784)">
						<stop  offset="0" style="stop-color:#F9F7FC"/>
						<stop  offset="1" style="stop-color:#F0DDFC"/>
					</linearGradient>
					<path style="fill:url(#SVGID_5_);" d="M423.476,447.603h26.842c0,0.272-0.013,0.544-0.013,0.825
						c0,17.612,6.345,31.896,14.178,31.896h-37.066c-2.503-9.308-3.954-20.223-3.954-31.896
						C423.464,448.156,423.464,447.875,423.476,447.603z"/>
				</g>
			</g>
		</g>
	</g>
	<g>
		<g>
			<path style="fill:#BEC3D2;" d="M280.573,364.994H136.59c-2.214,0-4.008-1.795-4.008-4.008v-13.983
				c0-2.214,1.795-4.008,4.008-4.008h143.983c2.214,0,4.008,1.795,4.008,4.008v13.983
				C284.581,363.2,282.787,364.994,280.573,364.994z"/>
			<path style="fill:#BEC3D2;" d="M351.825,364.994H306.59c-2.214,0-4.008-1.795-4.008-4.008v-13.983
				c0-2.214,1.795-4.008,4.008-4.008h45.236c2.214,0,4.008,1.795,4.008,4.008v13.983C355.834,363.2,354.039,364.994,351.825,364.994
				z"/>
			<path style="fill:#BEC3D2;" d="M400.372,364.994h-23.958c-2.214,0-4.008-1.795-4.008-4.008v-13.983
				c0-2.214,1.795-4.008,4.008-4.008h23.958c2.214,0,4.008,1.795,4.008,4.008v13.983C404.381,363.2,402.586,364.994,400.372,364.994
				z"/>
		</g>
		<g>
			<path style="fill:#BEC3D2;" d="M351.48,231.266H207.496c-2.214,0-4.008-1.795-4.008-4.008v-13.983
				c0-2.214,1.795-4.008,4.008-4.008H351.48c2.214,0,4.008,1.795,4.008,4.008v13.983
				C355.488,229.471,353.693,231.266,351.48,231.266z"/>
			<path style="fill:#BEC3D2;" d="M181.825,231.266H136.59c-2.214,0-4.008-1.795-4.008-4.008v-13.983
				c0-2.214,1.795-4.008,4.008-4.008h45.236c2.214,0,4.008,1.795,4.008,4.008v13.983
				C185.834,229.471,184.039,231.266,181.825,231.266z"/>
			<path style="fill:#BEC3D2;" d="M400.372,231.266h-23.958c-2.214,0-4.008-1.795-4.008-4.008v-13.983
				c0-2.214,1.795-4.008,4.008-4.008h23.958c2.214,0,4.008,1.795,4.008,4.008v13.983
				C404.381,229.471,402.586,231.266,400.372,231.266z"/>
		</g>
		<g>
			<path style="fill:#BEC3D2;" d="M256.389,142.401h143.983c2.214,0,4.008,1.795,4.008,4.008v13.983
				c0,2.214-1.795,4.008-4.008,4.008H256.389c-2.214,0-4.008-1.795-4.008-4.008V146.41
				C252.381,144.196,254.175,142.401,256.389,142.401z"/>
			<path style="fill:#BEC3D2;" d="M185.137,142.401h45.236c2.214,0,4.008,1.795,4.008,4.008v13.983c0,2.214-1.795,4.008-4.008,4.008
				h-45.236c-2.214,0-4.008-1.795-4.008-4.008V146.41C181.128,144.196,182.923,142.401,185.137,142.401z"/>
			<path style="fill:#BEC3D2;" d="M136.59,142.401h23.958c2.214,0,4.008,1.795,4.008,4.008v13.983c0,2.214-1.795,4.008-4.008,4.008
				H136.59c-2.214,0-4.008-1.795-4.008-4.008V146.41C132.581,144.196,134.376,142.401,136.59,142.401z"/>
		</g>
		<g>
			<path style="fill:#BEC3D2;" d="M185.483,276.13h143.983c2.214,0,4.008,1.795,4.008,4.008v13.983c0,2.214-1.795,4.008-4.008,4.008
				H185.483c-2.214,0-4.008-1.795-4.008-4.008v-13.983C181.474,277.925,183.269,276.13,185.483,276.13z"/>
			<path style="fill:#BEC3D2;" d="M355.137,276.13h45.236c2.214,0,4.008,1.795,4.008,4.008v13.983c0,2.214-1.795,4.008-4.008,4.008
				h-45.236c-2.214,0-4.008-1.795-4.008-4.008v-13.983C351.128,277.925,352.923,276.13,355.137,276.13z"/>
			<path style="fill:#BEC3D2;" d="M136.59,276.13h23.958c2.214,0,4.008,1.795,4.008,4.008v13.983c0,2.214-1.795,4.008-4.008,4.008
				H136.59c-2.214,0-4.008-1.795-4.008-4.008v-13.983C132.581,277.925,134.376,276.13,136.59,276.13z"/>
		</g>
	</g>
	<linearGradient id="SVGID_6_" gradientUnits="userSpaceOnUse" x1="494.3849" y1="276.371" x2="287.1809" y2="93.9522">
		<stop  offset="0" style="stop-color:#F0DDFC;stop-opacity:0"/>
		<stop  offset="0.2889" style="stop-color:#C8B7E0;stop-opacity:0.2889"/>
		<stop  offset="0.5915" style="stop-color:#A595C8;stop-opacity:0.5915"/>
		<stop  offset="0.8395" style="stop-color:#8F81B8;stop-opacity:0.8395"/>
		<stop  offset="1" style="stop-color:#8779B3"/>
	</linearGradient>
	<path style="fill:url(#SVGID_6_);" d="M457.801,40.32c-1.703-2.455-4.048-4.46-6.855-5.743l-19.858-9.08
		c-0.16-0.073-0.309-0.164-0.466-0.242c-0.191-0.161-0.388-0.311-0.585-0.462L410.91,5.478c-4.008-4.369-7.012-4.319-12.823-3.139
		L376.71,6.677c-2.219,0.45-4.507,0.45-6.726,0l-21.377-4.338c-5.811-1.179-11.814,0.771-15.823,5.139l-14.749,16.074
		c-1.528,1.665-3.373,3.007-5.428,3.946l-19.858,9.08c-5.382,2.461-9.086,7.555-9.766,13.433l-2.513,21.701
		c-0.259,2.233-0.96,4.393-2.063,6.352l-10.723,19.041c-2.901,5.151-2.901,11.443,0,16.595l10.723,19.041
		c1.103,1.959,1.805,4.119,2.063,6.352l2.513,19.701c0.564,4.874,0.212,9.204,4.167,11.946c1.769,1.08,12.731-2.464,14.404-1.304
		c0.487,0.701-4.814,17.53-4.814,20.458v97.859c0,2.385,2.145,3.977,4.256,3.649v0.607l155.594,155.594h21.598V60.706L457.801,40.32
		z"/>
	<g>
		<g>
			<g>
				<linearGradient id="SVGID_7_" gradientUnits="userSpaceOnUse" x1="329.1422" y1="172.941" x2="443.8929" y2="322.2101">
					<stop  offset="0" style="stop-color:#FF7044"/>
					<stop  offset="1" style="stop-color:#F92814"/>
				</linearGradient>
				<path style="fill:url(#SVGID_7_);" d="M370.087,115.487c-40.682,0.141-73.348,33.725-73.348,74.407v97.859
					c0,2.982,3.354,4.733,5.801,3.028l60.829-42.382c4.193-2.922,9.763-2.922,13.957,0l60.829,42.382
					c2.447,1.705,5.801-0.046,5.801-3.028v-98.658C443.955,148.355,410.859,115.346,370.087,115.487z"/>
				<g>
					<linearGradient id="SVGID_8_" gradientUnits="userSpaceOnUse" x1="375.7832" y1="243.328" x2="370.6558" y2="171.0297">
						<stop  offset="0" style="stop-color:#F92814;stop-opacity:0"/>
						<stop  offset="1" style="stop-color:#C1272D"/>
					</linearGradient>
					<path style="fill:url(#SVGID_8_);" d="M443.955,287.753v-98.658c0-40.74-33.096-73.749-73.869-73.608
						c-34.965,0.121-64.009,24.946-71.481,57.75l0.205,0.912l72.079,72.079c2.258,0.1,4.495,0.818,6.436,2.171l60.829,42.382
						C440.602,292.486,443.955,290.735,443.955,287.753z"/>
					<linearGradient id="SVGID_9_" gradientUnits="userSpaceOnUse" x1="298.1641" y1="177.7992" x2="364.3509" y2="263.8958">
						<stop  offset="0" style="stop-color:#F9F7FC"/>
						<stop  offset="1" style="stop-color:#F0DDFC"/>
					</linearGradient>
					<path style="fill:url(#SVGID_9_);" d="M328.053,129.037v143.965l-15.678,10.925V144.116c4.46-5.759,9.738-10.85,15.666-15.066
						L328.053,129.037z"/>
					<linearGradient id="SVGID_10_" gradientUnits="userSpaceOnUse" x1="393.637" y1="173.4506" x2="470.4413" y2="273.3586">
						<stop  offset="0" style="stop-color:#F9F7FC"/>
						<stop  offset="1" style="stop-color:#F0DDFC"/>
					</linearGradient>
					<path style="fill:url(#SVGID_10_);" d="M428.319,143.735v140.193l-15.678-10.925V128.85
						C418.569,133.016,423.853,138.038,428.319,143.735z"/>
				</g>
				<linearGradient id="SVGID_11_" gradientUnits="userSpaceOnUse" x1="400.8282" y1="194.3036" x2="276.7707" y2="104.15">
					<stop  offset="0" style="stop-color:#18CFFC;stop-opacity:0"/>
					<stop  offset="1" style="stop-color:#65E1DC"/>
				</linearGradient>
				<path style="fill:url(#SVGID_11_);" d="M370.347,115.489v130.718c2.441,0,4.882,0.73,6.978,2.191l60.829,42.382
					c2.447,1.705,5.801-0.046,5.801-3.028v-98.658C443.955,148.442,411,115.489,370.347,115.489z"/>
				<linearGradient id="SVGID_12_" gradientUnits="userSpaceOnUse" x1="370.3471" y1="276.8551" x2="370.3471" y2="171.8114">
					<stop  offset="0" style="stop-color:#F92814;stop-opacity:0"/>
					<stop  offset="1" style="stop-color:#C1272D"/>
				</linearGradient>
				<path style="fill:url(#SVGID_12_);" d="M438.155,278.85l-60.829-42.382c-4.193-2.922-9.763-2.922-13.957,0l-60.829,42.382
					c-2.447,1.705-5.801-0.046-5.801-3.028v11.931c0,2.982,3.354,4.733,5.801,3.028l60.829-42.382c4.193-2.922,9.763-2.922,13.957,0
					l60.829,42.382c2.447,1.705,5.801-0.046,5.801-3.028v-11.931C443.955,278.804,440.602,280.554,438.155,278.85z"/>
			</g>
			<g>
				<linearGradient id="SVGID_13_" gradientUnits="userSpaceOnUse" x1="320.2141" y1="244.3663" x2="320.2141" y2="166.894">
					<stop  offset="0" style="stop-color:#F0DDFC;stop-opacity:0"/>
					<stop  offset="0.2889" style="stop-color:#C8B7E0;stop-opacity:0.2889"/>
					<stop  offset="0.5915" style="stop-color:#A595C8;stop-opacity:0.5915"/>
					<stop  offset="0.8395" style="stop-color:#8F81B8;stop-opacity:0.8395"/>
					<stop  offset="1" style="stop-color:#8779B3"/>
				</linearGradient>
				<path style="fill:url(#SVGID_13_);" d="M328.053,129.034v74.362l-15.678-15.678v-43.606c0.312-0.4,0.631-0.8,0.949-1.199
					c0.337-0.418,0.687-0.843,1.037-1.255c0.287-0.337,0.575-0.675,0.862-1.006c0.587-0.668,1.181-1.33,1.793-1.974
					c0.219-0.237,0.444-0.468,0.668-0.7c0.587-0.618,1.193-1.218,1.805-1.811c0.6-0.581,1.206-1.156,1.83-1.712
					c0.112-0.106,0.225-0.206,0.337-0.306c0.319-0.287,0.637-0.568,0.962-0.843c0.531-0.462,1.068-0.912,1.612-1.355
					c0.256-0.212,0.512-0.418,0.775-0.625c0.244-0.194,0.487-0.381,0.731-0.568c0.5-0.387,0.999-0.762,1.505-1.131
					c0.262-0.2,0.531-0.387,0.8-0.581L328.053,129.034z"/>
				<linearGradient id="SVGID_14_" gradientUnits="userSpaceOnUse" x1="420.4802" y1="244.3663" x2="420.4802" y2="166.8939">
					<stop  offset="0" style="stop-color:#F0DDFC;stop-opacity:0"/>
					<stop  offset="0.2889" style="stop-color:#C8B7E0;stop-opacity:0.2889"/>
					<stop  offset="0.5915" style="stop-color:#A595C8;stop-opacity:0.5915"/>
					<stop  offset="0.8395" style="stop-color:#8F81B8;stop-opacity:0.8395"/>
					<stop  offset="1" style="stop-color:#8779B3"/>
				</linearGradient>
				<path style="fill:url(#SVGID_14_);" d="M428.319,143.735v140.193l-15.678-10.925V128.85
					C418.569,133.016,423.853,138.038,428.319,143.735z"/>
			</g>
		</g>
		<g>
			<radialGradient id="SVGID_15_" cx="344.2462" cy="43.2596" r="175.2124" gradientUnits="userSpaceOnUse">
				<stop  offset="0" style="stop-color:#FFDA45"/>
				<stop  offset="0.509" style="stop-color:#FFD844"/>
				<stop  offset="0.6924" style="stop-color:#FFD140"/>
				<stop  offset="0.823" style="stop-color:#FFC639"/>
				<stop  offset="0.9279" style="stop-color:#FFB52F"/>
				<stop  offset="1" style="stop-color:#FFA425"/>
			</radialGradient>
			<path style="fill:url(#SVGID_15_);" d="M476.011,111.699l-10.723,19.041c-1.103,1.959-1.805,4.118-2.063,6.352l-2.513,21.701
				c-0.681,5.878-4.385,10.973-9.766,13.434l-19.858,9.079c-2.055,0.939-3.901,2.281-5.428,3.946l-14.749,16.073
				c-4.009,4.369-10.012,6.319-15.823,5.139l-21.377-4.338c-2.22-0.45-4.507-0.45-6.726,0l-21.377,4.338
				c-5.811,1.179-11.814-0.771-15.823-5.139l-14.749-16.074c-1.528-1.665-3.373-3.007-5.428-3.946l-19.858-9.079
				c-5.382-2.461-9.086-7.555-9.766-13.434l-2.513-21.701c-0.259-2.233-0.96-4.393-2.063-6.352l-10.723-19.041
				c-2.901-5.151-2.901-11.443,0-16.595l10.723-19.041c1.103-1.959,1.805-4.118,2.063-6.352l2.513-21.701
				c0.681-5.878,4.385-10.973,9.766-13.434l19.858-9.079c2.055-0.939,3.901-2.281,5.428-3.946l14.749-16.073
				c4.009-4.369,10.012-6.319,15.823-5.139l21.377,4.338c2.22,0.45,4.507,0.45,6.726,0l21.377-4.338
				c5.811-1.179,11.814,0.771,15.823,5.139l14.749,16.074c1.528,1.665,3.373,3.007,5.428,3.946l19.858,9.079
				c5.382,2.461,9.086,7.555,9.766,13.434l2.513,21.701c0.259,2.233,0.96,4.393,2.063,6.352l10.723,19.041
				C478.912,100.256,478.912,106.548,476.011,111.699z"/>
			
				<radialGradient id="SVGID_16_" cx="1180.0957" cy="352.3177" r="158.1367" gradientTransform="matrix(-1 0 0 -1 1574 509.9999)" gradientUnits="userSpaceOnUse">
				<stop  offset="0" style="stop-color:#FFDA45"/>
				<stop  offset="0.509" style="stop-color:#FFD844"/>
				<stop  offset="0.6924" style="stop-color:#FFD140"/>
				<stop  offset="0.823" style="stop-color:#FFC639"/>
				<stop  offset="0.9279" style="stop-color:#FFB52F"/>
				<stop  offset="1" style="stop-color:#FFA425"/>
			</radialGradient>
			<path style="fill:url(#SVGID_16_);" d="M274.981,95.913l9.678-17.186c0.996-1.768,1.629-3.717,1.862-5.733l2.268-19.586
				c0.614-5.305,3.957-9.904,8.815-12.124l17.923-8.195c1.855-0.848,3.52-2.059,4.899-3.561l13.312-14.507
				c3.618-3.943,9.036-5.703,14.281-4.639l19.294,3.915c2.003,0.407,4.068,0.407,6.071,0l19.294-3.916
				c5.244-1.064,10.663,0.696,14.281,4.638l13.312,14.507c1.379,1.503,3.045,2.713,4.899,3.561l17.923,8.195
				c4.857,2.221,8.2,6.819,8.815,12.124l2.268,19.586c0.233,2.016,0.867,3.965,1.862,5.733l9.678,17.186
				c2.618,4.649,2.618,10.328,0,14.977l-9.678,17.186c-0.996,1.768-1.629,3.717-1.862,5.733l-2.268,19.586
				c-0.614,5.305-3.957,9.904-8.815,12.124l-17.923,8.195c-1.855,0.848-3.52,2.059-4.899,3.561l-13.312,14.507
				c-3.618,3.943-9.036,5.703-14.281,4.639l-19.294-3.915c-2.003-0.407-4.068-0.407-6.071,0l-19.294,3.915
				c-5.244,1.064-10.663-0.696-14.281-4.638l-13.312-14.507c-1.379-1.503-3.045-2.713-4.899-3.561l-17.923-8.195
				c-4.857-2.221-8.2-6.819-8.815-12.124l-2.268-19.586c-0.233-2.016-0.867-3.965-1.862-5.733l-9.678-17.186
				C272.362,106.241,272.362,100.562,274.981,95.913z"/>
			<linearGradient id="SVGID_17_" gradientUnits="userSpaceOnUse" x1="322.3831" y1="55.4375" x2="463.0145" y2="196.0689">
				<stop  offset="0" style="stop-color:#FFDA45"/>
				<stop  offset="1" style="stop-color:#FFA425"/>
			</linearGradient>
			<circle style="fill:url(#SVGID_17_);" cx="370.347" cy="103.402" r="83.455"/>
			<linearGradient id="SVGID_18_" gradientUnits="userSpaceOnUse" x1="490.1841" y1="215.8723" x2="265.991" y2="23.3446">
				<stop  offset="0" style="stop-color:#FFDA45;stop-opacity:0"/>
				<stop  offset="0.5194" style="stop-color:#D9874F;stop-opacity:0.5194"/>
				<stop  offset="1" style="stop-color:#B53759"/>
			</linearGradient>
			<path style="fill:url(#SVGID_18_);" d="M438.543,81.51c-0.672-1.392-1.981-2.489-3.761-2.743l-18.568-2.7l-41.385-41.284l0-0.001
				c-0.907-1.867-2.694-2.81-4.481-2.81c-1.787,0-3.574,0.943-4.481,2.81L347.425,72.73l-41.513,6.037
				c-2.054,0.293-3.486,1.707-4.028,3.405c-0.551,1.707-0.204,3.699,1.298,5.13l29.419,29.338c0.063,0.085,0.134,0.166,0.203,0.247
				l-6.799,39.66c-0.347,2.001,0.516,3.779,1.921,4.828L368.45,201.9c1.752-0.198,3.526-0.125,5.26,0.227l21.377,4.338
				c5.81,1.179,11.814-0.771,15.823-5.139l14.749-16.073c1.528-1.665,3.373-3.006,5.428-3.946l19.858-9.079
				c5.382-2.461,9.086-7.555,9.766-13.434l2.513-21.701c0.259-2.233,0.96-4.393,2.063-6.352l8.1-14.384L438.543,81.51z"/>
			<g>
				<g>
					<g>
						<linearGradient id="SVGID_19_" gradientUnits="userSpaceOnUse" x1="343.641" y1="80.2865" x2="447.7427" y2="188.1398">
							<stop  offset="0" style="stop-color:#FFDA45"/>
							<stop  offset="1" style="stop-color:#FCB37E"/>
						</linearGradient>
						<path style="fill:url(#SVGID_19_);" d="M438.81,82.173c-0.542-1.698-1.974-3.112-4.028-3.405l-41.513-6.037l-18.44-37.948
							c-0.907-1.867-2.694-2.81-4.481-2.81c-1.787,0-3.574,0.943-4.481,2.81l-18.44,37.948l-41.513,6.037
							c-2.054,0.293-3.485,1.707-4.028,3.405c-0.551,1.707-0.204,3.699,1.298,5.13l29.821,28.425l-6.997,40.82
							c-0.347,2.001,0.516,3.779,1.92,4.828c1.414,1.058,3.379,1.387,5.21,0.471l37.21-18.547l37.21,18.547
							c1.832,0.916,3.797,0.587,5.21-0.471c1.405-1.049,2.267-2.827,1.921-4.828l-6.997-40.82l29.821-28.425
							C439.014,85.871,439.361,83.88,438.81,82.173z M370.347,103.885l-0.062,0.018l0.027-0.027l0.036-0.053l0.036,0.053
							l0.027,0.027L370.347,103.885z"/>
						<linearGradient id="SVGID_20_" gradientUnits="userSpaceOnUse" x1="327.6995" y1="85.945" x2="392.4471" y2="155.0091">
							<stop  offset="0" style="stop-color:#FCB37E;stop-opacity:0"/>
							<stop  offset="1" style="stop-color:#FF7044"/>
						</linearGradient>
						<path style="fill:url(#SVGID_20_);" d="M370.312,103.876l-0.027,0.027l-37.281,11.825l-29.821-28.425
							c-1.503-1.432-1.849-3.423-1.298-5.13L370.312,103.876z"/>
						<linearGradient id="SVGID_21_" gradientUnits="userSpaceOnUse" x1="325.9297" y1="132.6394" x2="370.2849" y2="132.6394">
							<stop  offset="0" style="stop-color:#FFDA45"/>
							<stop  offset="1" style="stop-color:#FCB37E"/>
						</linearGradient>
						<path style="fill:url(#SVGID_21_);" d="M370.285,103.903l-42.358,57.473c-1.405-1.049-2.267-2.827-1.92-4.828l6.997-40.82
							L370.285,103.903z"/>
						<linearGradient id="SVGID_22_" gradientUnits="userSpaceOnUse" x1="359.7648" y1="111.6445" x2="435.5437" y2="197.0155">
							<stop  offset="0" style="stop-color:#FCB37E;stop-opacity:0"/>
							<stop  offset="1" style="stop-color:#FF7044"/>
						</linearGradient>
						<path style="fill:url(#SVGID_22_);" d="M412.767,161.376c-1.414,1.058-3.379,1.387-5.21,0.471l-37.21-18.547v-39.415
							l0.062,0.018L412.767,161.376z"/>
						<linearGradient id="SVGID_23_" gradientUnits="userSpaceOnUse" x1="316.3651" y1="134.3163" x2="413.7263" y2="130.959">
							<stop  offset="0" style="stop-color:#FCB37E;stop-opacity:0"/>
							<stop  offset="1" style="stop-color:#FF7044"/>
						</linearGradient>
						<path style="fill:url(#SVGID_23_);" d="M370.347,103.885V143.3l-37.21,18.547c-1.832,0.916-3.797,0.587-5.21-0.471
							l42.358-57.473L370.347,103.885z"/>
						<linearGradient id="SVGID_24_" gradientUnits="userSpaceOnUse" x1="403.3938" y1="173.5353" x2="378.454" y2="62.7452">
							<stop  offset="0" style="stop-color:#FFDA45"/>
							<stop  offset="1" style="stop-color:#FCB37E"/>
						</linearGradient>
						<path style="fill:url(#SVGID_24_);" d="M412.767,161.376l-42.358-57.473l37.281,11.825l6.997,40.82
							C415.035,158.549,414.172,160.327,412.767,161.376z"/>
						<linearGradient id="SVGID_25_" gradientUnits="userSpaceOnUse" x1="332.827" y1="78.7818" x2="347.6949" y2="143.0498">
							<stop  offset="0" style="stop-color:#FFDA45"/>
							<stop  offset="1" style="stop-color:#FCB37E"/>
						</linearGradient>
						<path style="fill:url(#SVGID_25_);" d="M370.347,103.823l-0.036,0.053l-68.427-21.704c0.542-1.698,1.974-3.112,4.028-3.405
							l41.513-6.037L370.347,103.823z"/>
						<linearGradient id="SVGID_26_" gradientUnits="userSpaceOnUse" x1="396.1346" y1="77.914" x2="304.0492" y2="41.4635">
							<stop  offset="0" style="stop-color:#FCB37E;stop-opacity:0"/>
							<stop  offset="1" style="stop-color:#FF7044"/>
						</linearGradient>
						<path style="fill:url(#SVGID_26_);" d="M393.269,72.73l-22.922,31.093v-71.85c1.787,0,3.574,0.943,4.481,2.81L393.269,72.73z"
							/>
						<linearGradient id="SVGID_27_" gradientUnits="userSpaceOnUse" x1="356.1546" y1="47.6879" x2="403.6361" y2="128.7423">
							<stop  offset="0" style="stop-color:#FCB37E;stop-opacity:0"/>
							<stop  offset="1" style="stop-color:#FF7044"/>
						</linearGradient>
						<path style="fill:url(#SVGID_27_);" d="M370.347,31.972v71.85L347.425,72.73l18.44-37.948
							C366.773,32.915,368.56,31.972,370.347,31.972z"/>
						<linearGradient id="SVGID_28_" gradientUnits="userSpaceOnUse" x1="415.0583" y1="78.3203" x2="326.8098" y2="156.4971">
							<stop  offset="0" style="stop-color:#FCB37E;stop-opacity:0"/>
							<stop  offset="1" style="stop-color:#FF7044"/>
						</linearGradient>
						<path style="fill:url(#SVGID_28_);" d="M438.81,82.173l-68.427,21.704l-0.036-0.053l22.922-31.093l41.513,6.037
							C436.836,79.061,438.268,80.474,438.81,82.173z"/>
						<linearGradient id="SVGID_29_" gradientUnits="userSpaceOnUse" x1="399.1993" y1="110.0918" x2="429.8945" y2="21.8433">
							<stop  offset="0" style="stop-color:#FCB37E;stop-opacity:0"/>
							<stop  offset="1" style="stop-color:#FF7044"/>
						</linearGradient>
						<path style="fill:url(#SVGID_29_);" d="M437.512,87.303l-29.821,28.425l-37.281-11.825l-0.027-0.027l68.427-21.704
							C439.361,83.88,439.014,85.871,437.512,87.303z"/>
					</g>
					<linearGradient id="SVGID_30_" gradientUnits="userSpaceOnUse" x1="372.1496" y1="104.6189" x2="342.3253" y2="61.5395">
						<stop  offset="0" style="stop-color:#FFDA45;stop-opacity:0"/>
						<stop  offset="1" style="stop-color:#FFEE83"/>
					</linearGradient>
					<path style="fill:url(#SVGID_30_);" d="M427.215,84.714c-0.45-1.411-1.639-2.585-3.346-2.829l-34.483-5.015l-15.317-31.521
						c-0.753-1.551-2.238-2.334-3.722-2.334c-1.484,0-2.969,0.783-3.722,2.334L351.307,76.87l-34.483,5.015
						c-1.706,0.244-2.895,1.418-3.346,2.829c-0.458,1.418-0.17,3.072,1.078,4.261l24.771,23.611l-5.812,33.907
						c-0.288,1.662,0.428,3.139,1.595,4.01c1.174,0.879,2.807,1.152,4.328,0.391l30.908-15.406l30.908,15.406
						c1.521,0.761,3.154,0.487,4.328-0.391c1.167-0.871,1.883-2.349,1.595-4.01l-5.812-33.907l24.771-23.611
						C427.385,87.786,427.673,86.132,427.215,84.714z M370.347,102.749l-0.052,0.015l0.022-0.022l0.03-0.044l0.029,0.044
						l0.022,0.022L370.347,102.749z"/>
				</g>
			</g>
		</g>
	</g>
</g>
<g>
</g>
<g>
</g>
<g>
</g>
<g>
</g>
<g>
</g>
<g>
</g>
<g>
</g>
<g>
</g>
<g>
</g>
<g>
</g>
<g>
</g>
<g>
</g>
<g>
</g>
<g>
</g>
<g>
</g>
</svg>
