<?xml version="1.0" encoding="iso-8859-1"?>
<!-- Generator: Adobe Illustrator 22.0.0, SVG Export Plug-In . SVG Version: 6.00 Build 0)  -->
<svg version="1.1" id="Capa_1" xmlns="http://www.w3.org/2000/svg" xmlns:xlink="http://www.w3.org/1999/xlink" x="0px" y="0px"
	 viewBox="0 0 510 510" style="enable-background:new 0 0 510 510;" xml:space="preserve">
<g>
	<linearGradient id="SVGID_1_" gradientUnits="userSpaceOnUse" x1="242.5625" y1="442.2958" x2="297.4242" y2="562.3058">
		<stop  offset="0" style="stop-color:#92F37F"/>
		<stop  offset="1" style="stop-color:#4AB272"/>
	</linearGradient>
	<path style="fill:url(#SVGID_1_);" d="M348.564,376.63H161.436c-41.074,0-74.37,33.297-74.37,74.37v51.635
		c0,4.068,3.298,7.366,7.366,7.366h321.137c4.068,0,7.366-3.298,7.366-7.366V451C422.934,409.926,389.638,376.63,348.564,376.63z"/>
	<linearGradient id="SVGID_2_" gradientUnits="userSpaceOnUse" x1="276.3733" y1="466.9734" x2="88.8195" y2="351.5558">
		<stop  offset="0" style="stop-color:#92F37F;stop-opacity:0"/>
		<stop  offset="1" style="stop-color:#FFEE83"/>
	</linearGradient>
	<path style="fill:url(#SVGID_2_);" d="M353.858,384.907H180.052c-38.15,0-69.076,30.927-69.076,69.076v49.175
		c0,3.778,3.063,6.841,6.841,6.841h297.752c4.068,0,7.365-3.298,7.365-7.366v-48.651
		C422.934,415.834,392.008,384.907,353.858,384.907z"/>
	<linearGradient id="SVGID_3_" gradientUnits="userSpaceOnUse" x1="266.8324" y1="492.112" x2="352.8324" y2="585.112">
		<stop  offset="0" style="stop-color:#4AB272;stop-opacity:0"/>
		<stop  offset="1" style="stop-color:#009245"/>
	</linearGradient>
	<path style="fill:url(#SVGID_3_);" d="M329.948,384.907H156.142c-38.15,0-69.076,30.927-69.076,69.076v49.175
		c0,3.778,3.063,6.841,6.841,6.841h297.752c4.068,0,7.365-3.298,7.365-7.366v-48.651
		C399.024,415.834,368.098,384.907,329.948,384.907z"/>
	<linearGradient id="SVGID_4_" gradientUnits="userSpaceOnUse" x1="254.052" y1="461.222" x2="162.552" y2="438.722">
		<stop  offset="0" style="stop-color:#4AB272;stop-opacity:0"/>
		<stop  offset="1" style="stop-color:#009245"/>
	</linearGradient>
	<polygon style="fill:url(#SVGID_4_);" points="170,510 325.829,510 192.459,376.63 170,376.63 	"/>
	<linearGradient id="SVGID_5_" gradientUnits="userSpaceOnUse" x1="211.313" y1="378.5691" x2="296.8187" y2="389.722">
		<stop  offset="0" style="stop-color:#FFDAAA"/>
		<stop  offset="0.4213" style="stop-color:#FFD8A8"/>
		<stop  offset="0.6519" style="stop-color:#FED1A0"/>
		<stop  offset="0.8359" style="stop-color:#FDC592"/>
		<stop  offset="0.9951" style="stop-color:#FCB47F"/>
		<stop  offset="1" style="stop-color:#FCB37E"/>
	</linearGradient>
	<path style="fill:url(#SVGID_5_);" d="M263.573,430h-17.146c-20.213,0-36.599-16.386-36.599-36.599v-50.407h90.344v50.407
		C300.172,413.614,283.786,430,263.573,430z"/>
	<linearGradient id="SVGID_6_" gradientUnits="userSpaceOnUse" x1="265.7129" y1="400.9192" x2="253.7129" y2="338.4192">
		<stop  offset="0" style="stop-color:#FCB37E;stop-opacity:0"/>
		<stop  offset="1" style="stop-color:#FF7044"/>
	</linearGradient>
	<path style="fill:url(#SVGID_6_);" d="M300.172,393.401v-50.407h-90.344v4.257l75.546,75.546
		C294.353,416.128,300.172,405.445,300.172,393.401z"/>
	<linearGradient id="SVGID_7_" gradientUnits="userSpaceOnUse" x1="133.3495" y1="178.0026" x2="158.8495" y2="244.0026">
		<stop  offset="0" style="stop-color:#FFDAAA"/>
		<stop  offset="0.5752" style="stop-color:#FDC592"/>
		<stop  offset="1" style="stop-color:#FCB37E"/>
	</linearGradient>
	<circle style="fill:url(#SVGID_7_);" cx="147.547" cy="214.75" r="31.75"/>
	<linearGradient id="SVGID_8_" gradientUnits="userSpaceOnUse" x1="348.2548" y1="178.0026" x2="373.7548" y2="244.0026">
		<stop  offset="0" style="stop-color:#FFDAAA"/>
		<stop  offset="0.5752" style="stop-color:#FDC592"/>
		<stop  offset="1" style="stop-color:#FCB37E"/>
	</linearGradient>
	<circle style="fill:url(#SVGID_8_);" cx="362.453" cy="214.75" r="31.75"/>
	<radialGradient id="SVGID_9_" cx="217.9512" cy="161.8058" r="188.7858" gradientUnits="userSpaceOnUse">
		<stop  offset="0" style="stop-color:#FFDAAA"/>
		<stop  offset="0.4213" style="stop-color:#FFD8A8"/>
		<stop  offset="0.6519" style="stop-color:#FED1A0"/>
		<stop  offset="0.8359" style="stop-color:#FDC592"/>
		<stop  offset="0.9951" style="stop-color:#FCB47F"/>
		<stop  offset="1" style="stop-color:#FCB37E"/>
	</radialGradient>
	<path style="fill:url(#SVGID_9_);" d="M255,357.154L255,357.154c-59.524,0-107.778-48.254-107.778-107.778V135.984
		c0-59.524,48.254-107.778,107.778-107.778h0c59.524,0,107.778,48.254,107.778,107.778v113.392
		C362.778,308.9,314.524,357.154,255,357.154z"/>
	<linearGradient id="SVGID_10_" gradientUnits="userSpaceOnUse" x1="277.3299" y1="206.0146" x2="237.3299" y2="116.5146">
		<stop  offset="0" style="stop-color:#FCB37E;stop-opacity:0"/>
		<stop  offset="1" style="stop-color:#FF7044"/>
	</linearGradient>
	<path style="fill:url(#SVGID_10_);" d="M147.222,199.174l149.574,149.574c36.848-15.517,63.254-50.932,65.776-92.79
		c0.037-0.65,0.074-1.301,0.1-1.948c0.017-0.404,0.033-0.809,0.046-1.215c0.035-1.131,0.059-2.259,0.059-3.381
		c0-0.013,0-0.025,0-0.038V135.984c0-38.133-19.803-71.64-49.687-90.799c-0.729-0.467-1.464-0.926-2.204-1.376
		c-1.481-0.9-2.986-1.766-4.514-2.595c-3.054-1.659-6.198-3.175-9.421-4.539c-12.894-5.454-27.071-8.47-41.952-8.47
		c-13.021,0-25.503,2.309-37.058,6.54c-0.825,0.302-1.646,0.614-2.462,0.936c-1.631,0.643-3.244,1.325-4.835,2.045
		c-5.57,2.518-10.888,5.497-15.905,8.886c-5.017,3.39-9.733,7.19-14.101,11.354c-1.248,1.19-2.467,2.409-3.657,3.657
		c-4.759,4.991-9.043,10.438-12.781,16.269c-0.467,0.729-0.926,1.464-1.376,2.204c-9.901,16.296-15.603,35.425-15.603,55.887
		V199.174z"/>
	<g>
		<g>
			<g>
				<linearGradient id="SVGID_11_" gradientUnits="userSpaceOnUse" x1="193.6978" y1="198.4595" x2="218.479" y2="223.2406">
					<stop  offset="0" style="stop-color:#7E8595"/>
					<stop  offset="1" style="stop-color:#555A66"/>
				</linearGradient>
				<circle style="fill:url(#SVGID_11_);" cx="200.857" cy="205.618" r="19.134"/>
				<linearGradient id="SVGID_12_" gradientUnits="userSpaceOnUse" x1="198.6509" y1="202.4385" x2="184.7716" y2="182.4307">
					<stop  offset="0" style="stop-color:#BEC3D2;stop-opacity:0"/>
					<stop  offset="0.3183" style="stop-color:#C2C7D5;stop-opacity:0.3183"/>
					<stop  offset="0.6082" style="stop-color:#CDD1DE;stop-opacity:0.6082"/>
					<stop  offset="0.8861" style="stop-color:#DFE3ED;stop-opacity:0.8861"/>
					<stop  offset="1" style="stop-color:#E9EDF5"/>
				</linearGradient>
				<circle style="fill:url(#SVGID_12_);" cx="200.857" cy="205.618" r="15.969"/>
				<linearGradient id="SVGID_13_" gradientUnits="userSpaceOnUse" x1="201.5213" y1="212.9514" x2="227.8214" y2="164.0368">
					<stop  offset="0" style="stop-color:#555A66;stop-opacity:0"/>
					<stop  offset="1" style="stop-color:#555A66"/>
				</linearGradient>
				<path style="fill:url(#SVGID_13_);" d="M209.416,188.503c1.29,2.576,2.018,5.482,2.018,8.559
					c0,10.567-8.566,19.134-19.134,19.134c-3.077,0-5.984-0.727-8.559-2.018c3.142,6.27,9.625,10.575,17.116,10.575
					c10.567,0,19.134-8.566,19.134-19.134C219.99,198.128,215.686,191.644,209.416,188.503z"/>
			</g>
		</g>
		<g>
			<g>
				<linearGradient id="SVGID_14_" gradientUnits="userSpaceOnUse" x1="301.9843" y1="198.4595" x2="326.7655" y2="223.2406">
					<stop  offset="0" style="stop-color:#7E8595"/>
					<stop  offset="1" style="stop-color:#555A66"/>
				</linearGradient>
				<circle style="fill:url(#SVGID_14_);" cx="309.143" cy="205.618" r="19.134"/>
				<linearGradient id="SVGID_15_" gradientUnits="userSpaceOnUse" x1="306.9373" y1="202.4385" x2="293.0581" y2="182.4307">
					<stop  offset="0" style="stop-color:#BEC3D2;stop-opacity:0"/>
					<stop  offset="0.3183" style="stop-color:#C2C7D5;stop-opacity:0.3183"/>
					<stop  offset="0.6082" style="stop-color:#CDD1DE;stop-opacity:0.6082"/>
					<stop  offset="0.8861" style="stop-color:#DFE3ED;stop-opacity:0.8861"/>
					<stop  offset="1" style="stop-color:#E9EDF5"/>
				</linearGradient>
				<circle style="fill:url(#SVGID_15_);" cx="309.143" cy="205.618" r="15.969"/>
				<linearGradient id="SVGID_16_" gradientUnits="userSpaceOnUse" x1="309.8078" y1="212.9514" x2="336.1079" y2="164.0368">
					<stop  offset="0" style="stop-color:#555A66;stop-opacity:0"/>
					<stop  offset="1" style="stop-color:#555A66"/>
				</linearGradient>
				<path style="fill:url(#SVGID_16_);" d="M317.702,188.503c1.29,2.576,2.018,5.482,2.018,8.559
					c0,10.567-8.566,19.134-19.134,19.134c-3.077,0-5.984-0.727-8.559-2.018c3.142,6.27,9.625,10.575,17.116,10.575
					c10.567,0,19.134-8.566,19.134-19.134C328.277,198.128,323.972,191.644,317.702,188.503z"/>
			</g>
		</g>
	</g>
	<linearGradient id="SVGID_17_" gradientUnits="userSpaceOnUse" x1="255" y1="224.3857" x2="255" y2="304.046">
		<stop  offset="0" style="stop-color:#FCB37E;stop-opacity:0"/>
		<stop  offset="1" style="stop-color:#FF7044"/>
	</linearGradient>
	<path style="fill:url(#SVGID_17_);" d="M261.123,280.031h-12.246c-9.813,0-17.459-8.512-16.409-18.269l6.402-59.515h32.259
		l6.402,59.515C278.581,271.52,270.936,280.031,261.123,280.031z"/>
	<g>
		<linearGradient id="SVGID_18_" gradientUnits="userSpaceOnUse" x1="400.1786" y1="19.1109" x2="352.1786" y2="114.4443">
			<stop  offset="0" style="stop-color:#FFDA45"/>
			<stop  offset="1" style="stop-color:#FFA425"/>
		</linearGradient>
		<path style="fill:url(#SVGID_18_);" d="M380.421,199.52L380.421,199.52c-37.526,0-67.947-30.421-67.947-67.947V39.374
			c0-9.536,7.731-17.267,17.267-17.267h0c35.601,0,64.462,28.861,64.462,64.462v99.169
			C394.203,193.35,388.032,199.52,380.421,199.52z"/>
		<linearGradient id="SVGID_19_" gradientUnits="userSpaceOnUse" x1="115.7974" y1="99.76" x2="322.5211" y2="99.76">
			<stop  offset="0" style="stop-color:#FFDA45"/>
			<stop  offset="1" style="stop-color:#FFA425"/>
		</linearGradient>
		<path style="fill:url(#SVGID_19_);" d="M171.882,199.52h-38.585c-9.665,0-17.5-7.835-17.5-17.5v-32.235
			C115.797,67.061,182.858,0,265.582,0h8.058c26.996,0,48.881,21.885,48.881,48.881v0
			C322.521,132.077,255.078,199.52,171.882,199.52z"/>
	</g>
	<linearGradient id="SVGID_20_" gradientUnits="userSpaceOnUse" x1="251.7196" y1="122.7556" x2="128.3863" y2="68.7556">
		<stop  offset="0" style="stop-color:#FFDA45;stop-opacity:0"/>
		<stop  offset="1" style="stop-color:#FCEE21"/>
	</linearGradient>
	<path style="fill:url(#SVGID_20_);" d="M285.773,12.133h-8.058c-82.724,0-149.785,67.061-149.785,149.785v32.235
		c0,1.633,0.24,3.208,0.659,4.708c1.5,0.419,3.074,0.659,4.708,0.659h38.585c83.196,0,150.639-67.443,150.639-150.639v0
		c0-10.399-3.257-20.032-8.792-27.955C305.805,15.39,296.172,12.133,285.773,12.133z"/>
	<g>
		<g>
			<linearGradient id="SVGID_21_" gradientUnits="userSpaceOnUse" x1="159.748" y1="438.4015" x2="226.748" y2="463.4015">
				<stop  offset="0" style="stop-color:#FF7044"/>
				<stop  offset="1" style="stop-color:#F92814"/>
			</linearGradient>
			<path style="fill:url(#SVGID_21_);" d="M194.02,510h-54.54V383.706c0-9.286,7.528-16.814,16.814-16.814h20.912
				c9.286,0,16.814,7.528,16.814,16.814V510z"/>
			<linearGradient id="SVGID_22_" gradientUnits="userSpaceOnUse" x1="163.0407" y1="436.124" x2="122.5407" y2="409.624">
				<stop  offset="0" style="stop-color:#FF7044;stop-opacity:0"/>
				<stop  offset="1" style="stop-color:#FFA425"/>
			</linearGradient>
			<path style="fill:url(#SVGID_22_);" d="M177.206,366.892h-9.436c-9.286,0-16.814,7.528-16.814,16.814V510h43.063V383.706
				C194.02,374.42,186.492,366.892,177.206,366.892z"/>
		</g>
		<g>
			<linearGradient id="SVGID_23_" gradientUnits="userSpaceOnUse" x1="336.248" y1="438.4015" x2="403.248" y2="463.4015">
				<stop  offset="0" style="stop-color:#FF7044"/>
				<stop  offset="1" style="stop-color:#F92814"/>
			</linearGradient>
			<path style="fill:url(#SVGID_23_);" d="M370.52,510h-54.54V383.706c0-9.286,7.528-16.814,16.814-16.814h20.913
				c9.286,0,16.814,7.528,16.814,16.814V510z"/>
			<linearGradient id="SVGID_24_" gradientUnits="userSpaceOnUse" x1="339.5407" y1="436.124" x2="299.0407" y2="409.624">
				<stop  offset="0" style="stop-color:#FF7044;stop-opacity:0"/>
				<stop  offset="1" style="stop-color:#FFA425"/>
			</linearGradient>
			<path style="fill:url(#SVGID_24_);" d="M353.706,366.892h-9.436c-9.286,0-16.814,7.528-16.814,16.814V510h43.063V383.706
				C370.52,374.42,362.992,366.892,353.706,366.892z"/>
		</g>
	</g>
	<linearGradient id="SVGID_25_" gradientUnits="userSpaceOnUse" x1="389" y1="444.895" x2="363.5" y2="444.895">
		<stop  offset="0" style="stop-color:#4AB272;stop-opacity:0"/>
		<stop  offset="1" style="stop-color:#009245"/>
	</linearGradient>
	<path style="fill:url(#SVGID_25_);" d="M422.93,451v51.63c0,4.07-3.29,7.37-7.36,7.37h-45.05V383.71c0-1.35-0.16-2.66-0.46-3.92
		C400.65,389.01,422.93,417.4,422.93,451z"/>
</g>
<g>
</g>
<g>
</g>
<g>
</g>
<g>
</g>
<g>
</g>
<g>
</g>
<g>
</g>
<g>
</g>
<g>
</g>
<g>
</g>
<g>
</g>
<g>
</g>
<g>
</g>
<g>
</g>
<g>
</g>
</svg>
