<?xml version="1.0" encoding="iso-8859-1"?>
<!-- Generator: Adobe Illustrator 22.0.0, SVG Export Plug-In . SVG Version: 6.00 Build 0)  -->
<svg version="1.1" id="Capa_1" xmlns="http://www.w3.org/2000/svg" xmlns:xlink="http://www.w3.org/1999/xlink" x="0px" y="0px"
	 viewBox="0 0 510 510" style="enable-background:new 0 0 510 510;" xml:space="preserve">
<g>
	<g>
		<g>
			<linearGradient id="SVGID_1_" gradientUnits="userSpaceOnUse" x1="223.8797" y1="102.0325" x2="389.9311" y2="522.1288">
				<stop  offset="0" style="stop-color:#F9F7FC"/>
				<stop  offset="1" style="stop-color:#F0DDFC"/>
			</linearGradient>
			<path style="fill:url(#SVGID_1_);" d="M494.098,359.276H15.902C7.12,359.276,0,352.156,0,343.374V18.155
				C0,9.372,7.12,2.253,15.902,2.253h478.195c8.783,0,15.902,7.12,15.902,15.902v325.219
				C510,352.156,502.88,359.276,494.098,359.276z"/>
			<linearGradient id="SVGID_2_" gradientUnits="userSpaceOnUse" x1="465" y1="390.7644" x2="-135.9001" y2="-210.1357">
				<stop  offset="0" style="stop-color:#F9F7FC"/>
				<stop  offset="1" style="stop-color:#F0DDFC"/>
			</linearGradient>
			<path style="fill:url(#SVGID_2_);" d="M486.067,351.217H23.933c-8.435,0-15.273-6.838-15.273-15.273V25.584
				c0-8.435,6.838-15.273,15.273-15.273h462.133c8.435,0,15.273,6.838,15.273,15.273v310.36
				C501.34,344.379,494.502,351.217,486.067,351.217z"/>
			<g>
				<linearGradient id="SVGID_3_" gradientUnits="userSpaceOnUse" x1="227.546" y1="111.3081" x2="374.0347" y2="481.9121">
					<stop  offset="0" style="stop-color:#FF7044"/>
					<stop  offset="1" style="stop-color:#F92814"/>
				</linearGradient>
				<path style="fill:url(#SVGID_3_);" d="M472.59,335.706H37.41c-7.061,0-12.785-5.724-12.785-12.785V38.608
					c0-7.061,5.724-12.785,12.785-12.785H472.59c7.061,0,12.786,5.724,12.786,12.785v284.313
					C485.376,329.982,479.652,335.706,472.59,335.706z"/>
				<g>
					<linearGradient id="SVGID_4_" gradientUnits="userSpaceOnUse" x1="53" y1="180.7644" x2="12.9875" y2="180.7644">
						<stop  offset="0" style="stop-color:#F92814;stop-opacity:0"/>
						<stop  offset="1" style="stop-color:#C1272D"/>
					</linearGradient>
					<path style="fill:url(#SVGID_4_);" d="M66,25.823H37.41c-7.061,0-12.785,5.724-12.785,12.785v284.313
						c0,7.061,5.724,12.785,12.785,12.785H66V25.823z"/>
					<linearGradient id="SVGID_5_" gradientUnits="userSpaceOnUse" x1="255" y1="55.7644" x2="255" y2="13.468">
						<stop  offset="0" style="stop-color:#F92814;stop-opacity:0"/>
						<stop  offset="1" style="stop-color:#C1272D"/>
					</linearGradient>
					<path style="fill:url(#SVGID_5_);" d="M472.59,25.823H37.41c-7.061,0-12.785,5.724-12.785,12.785v23.156h460.752V38.608
						C485.376,31.547,479.652,25.823,472.59,25.823z"/>
				</g>
				<linearGradient id="SVGID_6_" gradientUnits="userSpaceOnUse" x1="286.3347" y1="202.76" x2="397.5925" y2="-238.4354">
					<stop  offset="0" style="stop-color:#F92814;stop-opacity:0"/>
					<stop  offset="1" style="stop-color:#C1272D"/>
				</linearGradient>
				<path style="fill:url(#SVGID_6_);" d="M36.486,335.706h435.181c7.061,0,12.785-5.724,12.785-12.785V38.608
					c0-3.435-1.362-6.547-3.566-8.844L25.548,329.516C27.787,333.221,31.841,335.706,36.486,335.706z"/>
				<linearGradient id="SVGID_7_" gradientUnits="userSpaceOnUse" x1="469.2205" y1="347.7093" x2="350.5538" y2="246.3759">
					<stop  offset="0" style="stop-color:#F92814;stop-opacity:0"/>
					<stop  offset="1" style="stop-color:#C1272D"/>
				</linearGradient>
				<path style="fill:url(#SVGID_7_);" d="M348.667,130.253v229.023h145.431c8.783,0,15.902-7.12,15.902-15.902v-51.788
					L348.667,130.253z"/>
			</g>
		</g>
		<linearGradient id="SVGID_8_" gradientUnits="userSpaceOnUse" x1="231.5812" y1="121.5169" x2="356.5388" y2="437.649">
			<stop  offset="0" style="stop-color:#F9F7FC"/>
			<stop  offset="1" style="stop-color:#F0DDFC"/>
		</linearGradient>
		<path style="fill:url(#SVGID_8_);" d="M449.091,309.573H60.909c-6.075,0-10.999-4.924-10.999-10.999V62.955
			c0-6.075,4.924-10.999,10.999-10.999h388.181c6.075,0,10.999,4.924,10.999,10.999v235.619
			C460.09,304.648,455.165,309.573,449.091,309.573z"/>
	</g>
	<linearGradient id="SVGID_9_" gradientUnits="userSpaceOnUse" x1="492.3634" y1="347.9505" x2="284.3632" y2="162.6167">
		<stop  offset="0" style="stop-color:#F0DDFC;stop-opacity:0"/>
		<stop  offset="0.2889" style="stop-color:#C8B7E0;stop-opacity:0.2889"/>
		<stop  offset="0.5915" style="stop-color:#A595C8;stop-opacity:0.5915"/>
		<stop  offset="0.8395" style="stop-color:#8F81B8;stop-opacity:0.8395"/>
		<stop  offset="1" style="stop-color:#8779B3"/>
	</linearGradient>
	<path style="fill:url(#SVGID_9_);" d="M348.667,130.253v179.32h100.424c6.075,0,10.999-4.924,10.999-10.999v-56.898
		L348.667,130.253z"/>
	<g>
		<linearGradient id="SVGID_10_" gradientUnits="userSpaceOnUse" x1="107.1892" y1="245.3808" x2="402.8108" y2="245.3808">
			<stop  offset="0" style="stop-color:#FF7044"/>
			<stop  offset="1" style="stop-color:#F92814"/>
		</linearGradient>
		<circle style="fill:url(#SVGID_10_);" cx="255" cy="245.381" r="147.811"/>
		<linearGradient id="SVGID_11_" gradientUnits="userSpaceOnUse" x1="271.5042" y1="261.885" x2="121.5717" y2="111.9526">
			<stop  offset="0" style="stop-color:#FF7044;stop-opacity:0"/>
			<stop  offset="1" style="stop-color:#FFA425"/>
		</linearGradient>
		<circle style="fill:url(#SVGID_11_);" cx="255" cy="245.381" r="138.273"/>
		<linearGradient id="SVGID_12_" gradientUnits="userSpaceOnUse" x1="260.1332" y1="302.0294" x2="463.3062" y2="-75.844">
			<stop  offset="0" style="stop-color:#F92814;stop-opacity:0"/>
			<stop  offset="1" style="stop-color:#C1272D"/>
		</linearGradient>
		<path style="fill:url(#SVGID_12_);" d="M321.12,113.159c9.969,19.896,15.589,42.35,15.589,66.12
			c0,81.634-66.177,147.811-147.811,147.811c-23.77,0-46.224-5.619-66.12-15.589c24.269,48.436,74.358,81.69,132.222,81.69
			c81.634,0,147.811-66.177,147.811-147.811C402.811,187.517,369.556,137.428,321.12,113.159z"/>
		<linearGradient id="SVGID_13_" gradientUnits="userSpaceOnUse" x1="264.7754" y1="203.3478" x2="237.8978" y2="89.4975">
			<stop  offset="0" style="stop-color:#F45227;stop-opacity:0"/>
			<stop  offset="1" style="stop-color:#FFDA45"/>
		</linearGradient>
		<ellipse style="fill:url(#SVGID_13_);" cx="255" cy="161.941" rx="89.69" ry="52.133"/>
		<path style="fill:#555A66;" d="M375.073,159.174c-21.922-18.277-49.991-28.667-79.269-28.667c-0.121,0-0.244,0-0.364,0
			l-0.55,0.001c-17.582,0-34.876-2.45-51.562-7.285c13.155-9.357,27.439-16.88,42.562-22.411c-7.233-1.538-14.66-2.547-22.242-2.984
			c-11.271,5.509-21.997,12.122-32.05,19.777c-0.519,0.394-1.021,0.808-1.535,1.208c-8.998-3.363-17.749-7.44-26.14-12.177
			c-4.469,1.646-8.837,3.5-13.092,5.553c9.295,5.809,19.07,10.832,29.175,14.999c-8.79,7.837-16.87,16.452-24.091,25.764
			c-0.209,0.268-0.411,0.541-0.618,0.811c-15.304-4.952-31.112-8.472-47.155-10.503c-3.214,3.362-6.268,6.876-9.156,10.529
			c16.746,1.59,33.274,4.873,49.257,9.779c-7.524,11.177-13.839,23.079-18.847,35.546c-14.888-2.935-30.273,0.121-43.117,8.753
			c-7.518,5.052-13.605,11.629-17.961,19.201c-0.742,6.001-1.129,12.112-1.129,18.313c0,11.013,1.214,21.741,3.499,32.066
			c0.231-4.452,0.752-13.878,1.539-24.814c1.034-14.359,8.487-27.205,20.451-35.244c9.764-6.563,21.358-9.096,32.702-7.328
			c-6.528,19.566-9.842,40.013-9.842,60.895c0,37.681,11.129,74.542,31.658,105.794c6.607,3.417,13.503,6.353,20.644,8.755
			c-26.333-32.223-40.83-72.85-40.83-114.55c0-19.849,3.183-39.274,9.45-57.848c37.965,13.684,64.759,48.176,68.539,88.596
			c1.175,12.57,2.693,21.601,4.512,26.843c7.977,22.995,21.217,43.842,38.571,60.925c4.382-1.002,8.687-2.206,12.912-3.587
			c-18.505-16.637-32.518-37.669-40.644-61.097c-1.474-4.25-2.869-12.827-3.928-24.152c-4.19-44.813-33.879-83.063-75.957-98.279
			c5.04-12.324,11.438-24.053,19.097-35.01c81.182,29.271,141.767,99.078,158.929,183.556c3.323-3.26,6.492-6.675,9.497-10.234
			c-19.783-83.675-80.5-152.548-161.23-182.902c7.603-9.493,16.145-18.203,25.492-25.991c20.136,6.77,41.189,10.205,62.641,10.205
			l0.59-0.001c0.112,0,0.219,0,0.331,0c35.688,0,69.403,16.997,90.237,45.511l8.363,11.446l0.766-0.559
			C390.435,184.233,383.612,171.046,375.073,159.174z"/>
		<linearGradient id="SVGID_14_" gradientUnits="userSpaceOnUse" x1="186.6572" y1="172.7582" x2="77.0327" y2="59.5646">
			<stop  offset="0" style="stop-color:#BEC3D2;stop-opacity:0"/>
			<stop  offset="0.5577" style="stop-color:#D4D9E4;stop-opacity:0.5577"/>
			<stop  offset="1" style="stop-color:#E9EDF5"/>
		</linearGradient>
		<path style="fill:url(#SVGID_14_);" d="M232.249,131.777c20.136,6.77,41.189,10.205,62.641,10.205l0.59-0.001
			c0.112,0,0.219,0,0.331,0c28.561,0,55.851,10.895,76.294,29.859c-7.267-11.547-16.188-21.946-26.44-30.857
			c-15.503-6.808-32.468-10.474-49.859-10.474c-0.121,0-0.244,0-0.364,0l-0.55,0.001c-17.582,0-34.876-2.45-51.562-7.285
			c8.239-5.86,16.92-11,25.973-15.383c-4.701-0.483-9.472-0.733-14.301-0.733c-2.88,0-5.737,0.099-8.573,0.272
			c-5.085,3.17-10.036,6.575-14.83,10.225c-0.519,0.394-1.021,0.808-1.535,1.208c-4.843-1.81-9.612-3.834-14.294-6.05
			c-5.073,1.498-10.026,3.273-14.838,5.319c6.196,3.376,12.566,6.421,19.076,9.105c-8.79,7.837-16.87,16.452-24.091,25.764
			c-0.209,0.268-0.411,0.541-0.618,0.811c-11.554-3.739-23.396-6.659-35.41-8.741c-3.381,3.205-6.6,6.578-9.643,10.107
			c12.891,1.82,25.61,4.635,37.998,8.438c-7.524,11.177-13.839,23.079-18.847,35.546c-14.888-2.935-30.273,0.121-43.117,8.753
			c-1.93,1.297-3.762,2.697-5.498,4.186c-1.832,7.404-3.076,15.04-3.661,22.861c3.536-6.97,8.834-13.007,15.558-17.525
			c9.764-6.563,21.358-9.096,32.702-7.328c-6.528,19.566-9.842,40.013-9.842,60.895c0,31.037,7.557,61.514,21.691,88.763
			c6.293,4.289,12.959,8.068,19.938,11.286c-19.545-29.509-30.157-64.384-30.157-100.049c0-19.849,3.183-39.274,9.45-57.848
			c37.965,13.684,64.759,48.176,68.539,88.596c1.175,12.57,2.693,21.601,4.512,26.843c6.75,19.459,17.282,37.37,30.874,52.773
			c4.342-0.806,8.615-1.81,12.804-3.012c-14.656-15.267-25.9-33.515-32.839-53.521c-1.474-4.25-2.869-12.827-3.928-24.152
			c-4.19-44.813-33.879-83.063-75.957-98.279c5.04-12.324,11.438-24.053,19.097-35.01c77.609,27.982,136.389,93.014,156.408,172.491
			c3.18-3.398,6.19-6.955,9.017-10.661c-22.433-78.46-81.227-142.458-158.229-171.41
			C214.36,148.274,222.902,139.564,232.249,131.777z"/>
		<linearGradient id="SVGID_15_" gradientUnits="userSpaceOnUse" x1="256.1818" y1="172.3178" x2="243.4347" y2="49.4367">
			<stop  offset="0" style="stop-color:#BEC3D2;stop-opacity:0"/>
			<stop  offset="0.5577" style="stop-color:#D4D9E4;stop-opacity:0.5577"/>
			<stop  offset="1" style="stop-color:#E9EDF5"/>
		</linearGradient>
		<path style="fill:url(#SVGID_15_);" d="M295.804,130.507c-0.121,0-0.244,0-0.364,0l-0.55,0.001
			c-17.582,0-34.876-2.45-51.562-7.285c6.856-4.876,14.02-9.249,21.448-13.107c-3.211-0.202-6.472-0.309-9.776-0.309
			c-4.49,0-8.901,0.194-13.214,0.564c-3.464,2.3-6.867,4.704-10.189,7.234c-0.519,0.394-1.021,0.808-1.535,1.208
			c-3.769-1.409-7.492-2.951-11.167-4.606c-5.515,1.411-10.74,3.134-15.607,5.134c5.452,2.875,11.03,5.501,16.718,7.847
			c-8.79,7.837-16.87,16.452-24.091,25.764c-0.209,0.268-0.411,0.541-0.618,0.811c-8.572-2.774-17.307-5.081-26.148-6.947
			c-1.831,3.517-3.043,7.189-3.556,10.976c7.645,1.574,15.209,3.49,22.651,5.775c-4.817,7.155-9.131,14.609-12.931,22.316
			c2.535,2.844,5.507,5.535,8.864,8.044c4.355-9.262,9.492-18.152,15.385-26.581c28.722,10.356,54.86,25.791,77.414,45.149
			c4.874-0.714,9.589-1.66,14.109-2.816c-24.209-22.255-52.736-40.033-84.328-51.911c7.603-9.493,16.145-18.203,25.492-25.991
			c20.136,6.77,41.189,10.205,62.641,10.205l0.59-0.001c0.112,0,0.219,0,0.331,0c16.591,0,32.752,3.678,47.394,10.473
			c-1.834-5.797-5.317-11.257-10.156-16.212C321.137,132.488,308.586,130.507,295.804,130.507z"/>
		<linearGradient id="SVGID_16_" gradientUnits="userSpaceOnUse" x1="357.5735" y1="191.5921" x2="370.1931" y2="129.6412">
			<stop  offset="0" style="stop-color:#555A66;stop-opacity:0"/>
			<stop  offset="1" style="stop-color:#333333"/>
		</linearGradient>
		<path style="fill:url(#SVGID_16_);" d="M395.161,198.335c-0.281-0.838-0.57-1.671-0.865-2.502
			c-0.041-0.115-0.083-0.229-0.124-0.344c-0.263-0.733-0.531-1.464-0.805-2.192c-0.062-0.163-0.124-0.326-0.186-0.489
			c-0.26-0.682-0.524-1.362-0.794-2.04c-0.073-0.182-0.146-0.364-0.219-0.546c-0.266-0.66-0.536-1.317-0.811-1.972
			c-0.078-0.187-0.157-0.374-0.236-0.56c-0.278-0.655-0.561-1.308-0.849-1.959c-0.078-0.176-0.155-0.353-0.234-0.529
			c-0.3-0.673-0.606-1.343-0.917-2.011c-0.068-0.146-0.135-0.294-0.204-0.44c-0.338-0.722-0.683-1.44-1.032-2.156
			c-0.043-0.087-0.084-0.175-0.127-0.263c-1.613-3.286-3.345-6.503-5.189-9.646c-0.009-0.014-0.017-0.029-0.026-0.043
			c-0.441-0.75-0.888-1.496-1.342-2.238c-0.068-0.112-0.138-0.223-0.207-0.334c-0.397-0.645-0.797-1.286-1.203-1.925
			c-0.099-0.156-0.2-0.312-0.3-0.467c-0.38-0.592-0.763-1.181-1.151-1.768c-0.119-0.18-0.239-0.359-0.359-0.538
			c-0.373-0.558-0.75-1.114-1.13-1.667c-0.134-0.195-0.269-0.39-0.405-0.585c-0.373-0.536-0.749-1.07-1.129-1.6
			c-0.085-0.118-0.169-0.236-0.254-0.354c-13.149-10.96-28.51-19.079-45.015-23.825c1.339,4.303,2.493,8.686,3.439,13.148
			c20.857,7.409,39.314,20.873,52.56,39.002l8.363,11.446l0.765-0.559C395.171,198.363,395.166,198.35,395.161,198.335z"/>
	</g>
	<g>
		<g>
			<linearGradient id="SVGID_17_" gradientUnits="userSpaceOnUse" x1="141.2051" y1="414.36" x2="272.4923" y2="414.36">
				<stop  offset="0" style="stop-color:#4A98F7"/>
				<stop  offset="1" style="stop-color:#0469BC"/>
			</linearGradient>
			<path style="fill:url(#SVGID_17_);" d="M254.972,507.747c-9.053,0-16.72-6.975-17.429-16.153
				c-4.45-57.593-37.167-109.153-87.518-137.924c-8.392-4.795-11.307-15.485-6.512-23.876c4.794-8.392,15.484-11.309,23.876-6.512
				c60.434,34.532,99.705,96.445,105.049,165.616c0.744,9.636-6.464,18.052-16.1,18.796
				C255.881,507.73,255.424,507.747,254.972,507.747z"/>
			<linearGradient id="SVGID_18_" gradientUnits="userSpaceOnUse" x1="71.9087" y1="414.36" x2="203.2137" y2="414.36">
				<stop  offset="0" style="stop-color:#4A98F7"/>
				<stop  offset="1" style="stop-color:#0469BC"/>
			</linearGradient>
			<path style="fill:url(#SVGID_18_);" d="M185.694,507.747c-9.052,0-16.719-6.974-17.429-16.15
				c-4.459-57.606-37.181-109.167-87.533-137.924c-8.393-4.793-11.31-15.483-6.517-23.876c4.793-8.393,15.483-11.311,23.875-6.517
				c60.437,34.519,99.715,96.431,105.07,165.616c0.746,9.636-6.461,18.053-16.097,18.798
				C186.604,507.73,186.147,507.747,185.694,507.747z"/>
			<linearGradient id="SVGID_19_" gradientUnits="userSpaceOnUse" x1="210.501" y1="414.36" x2="341.788" y2="414.36">
				<stop  offset="0" style="stop-color:#4A98F7"/>
				<stop  offset="1" style="stop-color:#0469BC"/>
			</linearGradient>
			<path style="fill:url(#SVGID_19_);" d="M324.268,507.747c-9.052,0-16.719-6.974-17.429-16.15
				c-4.458-57.599-37.175-109.16-87.518-137.926c-8.392-4.795-11.307-15.485-6.512-23.876c4.795-8.392,15.483-11.309,23.876-6.512
				c60.424,34.527,99.695,96.439,105.049,165.614c0.746,9.636-6.461,18.053-16.097,18.798
				C325.178,507.73,324.721,507.747,324.268,507.747z"/>
		</g>
		<g>
			
				<linearGradient id="SVGID_20_" gradientUnits="userSpaceOnUse" x1="52.9751" y1="414.36" x2="184.2623" y2="414.36" gradientTransform="matrix(-1 0 0 1 421.77 0)">
				<stop  offset="0" style="stop-color:#4A98F7"/>
				<stop  offset="1" style="stop-color:#0469BC"/>
			</linearGradient>
			<path style="fill:url(#SVGID_20_);" d="M255.028,507.747c-0.453,0-0.908-0.018-1.367-0.053c-9.636-0.744-16.844-9.16-16.1-18.796
				c5.344-69.171,44.615-131.084,105.049-165.616c8.391-4.796,19.081-1.879,23.876,6.512c4.795,8.392,1.879,19.082-6.512,23.876
				c-50.351,28.771-83.068,80.331-87.518,137.924C271.748,500.772,264.081,507.747,255.028,507.747z"/>
			
				<linearGradient id="SVGID_21_" gradientUnits="userSpaceOnUse" x1="-16.3213" y1="414.3603" x2="114.9837" y2="414.3603" gradientTransform="matrix(-1 0 0 1 421.77 0)">
				<stop  offset="0" style="stop-color:#4A98F7"/>
				<stop  offset="1" style="stop-color:#0469BC"/>
			</linearGradient>
			<path style="fill:url(#SVGID_21_);" d="M324.306,507.747c-0.454,0-0.91-0.018-1.37-0.053
				c-9.636-0.746-16.843-9.162-16.097-18.798c5.354-69.185,44.633-131.097,105.07-165.616c8.393-4.793,19.082-1.876,23.875,6.517
				c4.793,8.393,1.875,19.082-6.517,23.876c-50.352,28.758-83.074,80.318-87.533,137.924
				C341.025,500.773,333.357,507.747,324.306,507.747z"/>
			
				<linearGradient id="SVGID_22_" gradientUnits="userSpaceOnUse" x1="122.271" y1="414.36" x2="253.558" y2="414.36" gradientTransform="matrix(-1 0 0 1 421.77 0)">
				<stop  offset="0" style="stop-color:#4A98F7"/>
				<stop  offset="1" style="stop-color:#0469BC"/>
			</linearGradient>
			<path style="fill:url(#SVGID_22_);" d="M185.732,507.747c-0.454,0-0.91-0.018-1.37-0.053
				c-9.636-0.746-16.843-9.162-16.097-18.798c5.354-69.175,44.624-131.087,105.049-165.614c8.391-4.796,19.081-1.879,23.876,6.512
				c4.795,8.392,1.879,19.082-6.512,23.876c-50.343,28.766-83.059,80.327-87.518,137.926
				C202.451,500.773,194.783,507.747,185.732,507.747z"/>
		</g>
	</g>
	<linearGradient id="SVGID_23_" gradientUnits="userSpaceOnUse" x1="255" y1="321.8799" x2="255" y2="361.3367">
		<stop  offset="0" style="stop-color:#FFDA45"/>
		<stop  offset="1" style="stop-color:#FFA425"/>
	</linearGradient>
	<path style="fill:url(#SVGID_23_);" d="M419.747,359.276H90.253c-11.155,0-20.198-9.043-20.198-20.198l0,0
		c0-11.155,9.043-20.198,20.198-20.198h329.495c11.155,0,20.198,9.043,20.198,20.198l0,0
		C439.945,350.233,430.902,359.276,419.747,359.276z"/>
</g>
<g>
</g>
<g>
</g>
<g>
</g>
<g>
</g>
<g>
</g>
<g>
</g>
<g>
</g>
<g>
</g>
<g>
</g>
<g>
</g>
<g>
</g>
<g>
</g>
<g>
</g>
<g>
</g>
<g>
</g>
</svg>
