<?xml version="1.0" encoding="iso-8859-1"?>
<!-- Generator: Adobe Illustrator 22.0.0, SVG Export Plug-In . SVG Version: 6.00 Build 0)  -->
<svg version="1.1" id="Capa_1" xmlns="http://www.w3.org/2000/svg" xmlns:xlink="http://www.w3.org/1999/xlink" x="0px" y="0px"
	 viewBox="0 0 510 510" style="enable-background:new 0 0 510 510;" xml:space="preserve">
<g>
	<g>
		<g>
			<linearGradient id="SVGID_1_" gradientUnits="userSpaceOnUse" x1="151.5932" y1="305.7656" x2="475.819" y2="638.3766">
				<stop  offset="0" style="stop-color:#FF7044"/>
				<stop  offset="1" style="stop-color:#F92814"/>
			</linearGradient>
			<path style="fill:url(#SVGID_1_);" d="M510,330.598v163.678c0,7.732-8.27,13.019-15.897,10.177
				c-36.682-13.651-74.137-20.47-111.603-20.47c-39.824,0-79.637,7.71-118.507,23.141c-2.864,1.137-5.91,1.751-8.992,1.751l0,0
				c-3.084,0-6.131-0.614-8.997-1.751c-75.432-29.934-154.448-30.825-230.108-2.67C8.27,507.294,0,502.007,0,494.276V330.598
				c0-5.568,3.497-10.633,8.948-12.797c38.893-15.441,78.711-23.149,118.54-23.149c42.894,0,85.799,8.948,127.512,26.845
				c80.465-34.519,165.294-35.747,246.052-3.696C506.503,319.965,510,325.03,510,330.598z"/>
			<linearGradient id="SVGID_2_" gradientUnits="userSpaceOnUse" x1="244.7641" y1="406.6519" x2="266.5987" y2="570.4124">
				<stop  offset="0" style="stop-color:#F92814;stop-opacity:0"/>
				<stop  offset="1" style="stop-color:#C1272D"/>
			</linearGradient>
			<path style="fill:url(#SVGID_2_);" d="M494.103,482.035c-36.682-13.651-74.137-20.47-111.603-20.47
				c-39.824,0-79.637,7.71-118.507,23.141c-2.864,1.137-5.91,1.751-8.992,1.751c-3.084,0-6.131-0.614-8.997-1.751
				c-75.432-29.934-154.448-30.824-230.108-2.67C8.27,484.878,0,479.59,0,471.859v22.417c0,7.732,8.27,13.019,15.897,10.177
				c75.66-28.154,154.675-27.264,230.108,2.671c2.866,1.137,5.914,1.751,8.997,1.751c3.082,0,6.128-0.614,8.992-1.751
				c38.869-15.431,78.683-23.141,118.507-23.141c37.466,0,74.921,6.819,111.603,20.47c7.627,2.842,15.897-2.445,15.897-10.177
				v-22.417C510,479.59,501.73,484.878,494.103,482.035z"/>
		</g>
		<linearGradient id="SVGID_3_" gradientUnits="userSpaceOnUse" x1="239.098" y1="304.438" x2="261.5994" y2="428.8986">
			<stop  offset="0" style="stop-color:#F9F7FC"/>
			<stop  offset="1" style="stop-color:#F0DDFC"/>
		</linearGradient>
		<path style="fill:url(#SVGID_3_);" d="M495.367,324.755v135.53c0,7.732-7.79,13.019-14.984,10.177
			c-34.577-13.651-69.879-20.47-105.193-20.47c-34.058,0-68.106,6.343-101.499,19.048c-5.975,2.273-12.297,3.504-18.69,3.504h0
			c-6.401,0-12.728-1.236-18.711-3.511c-68-25.857-138.765-25.378-206.672,1.428c-7.194,2.842-14.984-2.445-14.984-10.177v-135.53
			c0-5.568,3.299-10.633,8.434-12.797c36.659-15.441,74.207-23.149,111.744-23.149c40.437,0,80.863,8.948,120.189,26.845
			c75.845-34.519,155.807-35.747,231.933-3.696C492.068,314.122,495.367,319.187,495.367,324.755z"/>
		<linearGradient id="SVGID_4_" gradientUnits="userSpaceOnUse" x1="239.098" y1="304.438" x2="261.5994" y2="428.8986">
			<stop  offset="0" style="stop-color:#F9F7FC"/>
			<stop  offset="1" style="stop-color:#F0DDFC"/>
		</linearGradient>
		<path style="fill:url(#SVGID_4_);" d="M495.367,324.755v135.53c0,7.732-7.79,13.019-14.984,10.177
			c-34.577-13.651-69.879-20.47-105.193-20.47c-34.058,0-68.106,6.343-101.499,19.048c-5.975,2.273-12.297,3.504-18.69,3.504h0
			c-6.401,0-12.728-1.236-18.711-3.511c-68-25.857-138.765-25.378-206.672,1.428c-7.194,2.842-14.984-2.445-14.984-10.177v-135.53
			c0-5.568,3.299-10.633,8.434-12.797c36.659-15.441,74.207-23.149,111.744-23.149c40.437,0,80.863,8.948,120.189,26.845
			c75.845-34.519,155.807-35.747,231.933-3.696C492.068,314.122,495.367,319.187,495.367,324.755z"/>
		<linearGradient id="SVGID_5_" gradientUnits="userSpaceOnUse" x1="264.8336" y1="440.4195" x2="282.0818" y2="540.6444">
			<stop  offset="0" style="stop-color:#F0DDFC;stop-opacity:0"/>
			<stop  offset="0.2889" style="stop-color:#C8B7E0;stop-opacity:0.2889"/>
			<stop  offset="0.5915" style="stop-color:#A595C8;stop-opacity:0.5915"/>
			<stop  offset="0.8395" style="stop-color:#8F81B8;stop-opacity:0.8395"/>
			<stop  offset="1" style="stop-color:#8779B3"/>
		</linearGradient>
		<path style="fill:url(#SVGID_5_);" d="M495.367,315.631v135.53c0,7.732-7.79,13.019-14.984,10.177
			c-34.577-13.651-69.879-20.47-105.193-20.47c-34.058,0-68.106,6.343-101.499,19.048c-5.975,2.273-12.297,3.504-18.69,3.504h0
			c-6.401,0-12.728-1.236-18.711-3.511c-68-25.857-138.765-25.378-206.672,1.428c-7.194,2.842-14.984-2.445-14.984-10.177v-135.53
			c0-5.568,3.299-10.633,8.434-12.797c36.659-15.441,74.207-23.149,111.744-23.149c40.437,0,80.863,8.948,120.189,26.845
			c75.845-34.519,155.807-35.747,231.933-3.696C492.068,304.998,495.367,310.063,495.367,315.631z"/>
		<linearGradient id="SVGID_6_" gradientUnits="userSpaceOnUse" x1="249.0503" y1="441.3379" x2="242.8829" y2="508.7391">
			<stop  offset="0" style="stop-color:#F0DDFC;stop-opacity:0"/>
			<stop  offset="0.2889" style="stop-color:#C8B7E0;stop-opacity:0.2889"/>
			<stop  offset="0.5915" style="stop-color:#A595C8;stop-opacity:0.5915"/>
			<stop  offset="0.8395" style="stop-color:#8F81B8;stop-opacity:0.8395"/>
			<stop  offset="1" style="stop-color:#8779B3"/>
		</linearGradient>
		<path style="fill:url(#SVGID_6_);" d="M14.633,308.613v135.53c0,7.732,7.79,13.019,14.984,10.176
			c34.577-13.651,69.879-20.47,105.193-20.47c34.058,0,68.106,6.343,101.499,19.048c5.975,2.273,12.297,3.504,18.69,3.504h0
			c6.401,0,12.728-1.236,18.711-3.511c68-25.857,138.765-25.378,206.672,1.428c7.194,2.842,14.984-2.445,14.984-10.176v-135.53
			c0-5.568-3.299-10.633-8.434-12.797c-36.659-15.441-74.207-23.149-111.744-23.149c-40.437,0-80.863,8.948-120.189,26.845
			c-75.845-34.519-155.807-35.747-231.933-3.696C17.932,297.98,14.633,303.045,14.633,308.613z"/>
		<g>
			<linearGradient id="SVGID_7_" gradientUnits="userSpaceOnUse" x1="110.7544" y1="338.5214" x2="197.4275" y2="425.1945">
				<stop  offset="0" style="stop-color:#F9F7FC"/>
				<stop  offset="1" style="stop-color:#F0DDFC"/>
			</linearGradient>
			<path style="fill:url(#SVGID_7_);" d="M23.063,284.306c-5.13,2.16-8.429,7.229-8.429,12.795c0,100.529,0,34.998,0,135.527
				c0,7.735,7.795,13.022,14.989,10.181c74.16-29.288,151.719-27.16,225.377,6.37c0-109.08,0-52.099,0-161.18
				C179.163,253.482,99.202,252.244,23.063,284.306z"/>
			<linearGradient id="SVGID_8_" gradientUnits="userSpaceOnUse" x1="331.5977" y1="314.7009" x2="413.8662" y2="420.4746">
				<stop  offset="0" style="stop-color:#F9F7FC"/>
				<stop  offset="1" style="stop-color:#F0DDFC"/>
			</linearGradient>
			<path style="fill:url(#SVGID_8_);" d="M486.937,284.307c-76.131-32.056-156.091-30.832-231.937,3.693c0,109.08,0,52.1,0,161.18
				c73.667-33.535,151.226-35.653,225.377-6.369c7.194,2.841,14.989-2.446,14.989-10.181c0-100.529,0-34.998,0-135.527
				C495.367,291.535,492.067,286.467,486.937,284.307z"/>
			<linearGradient id="SVGID_9_" gradientUnits="userSpaceOnUse" x1="135.8688" y1="367.4951" x2="56.147" y2="293.7388">
				<stop  offset="0" style="stop-color:#E9EDF5;stop-opacity:0"/>
				<stop  offset="1" style="stop-color:#FFFFFF"/>
			</linearGradient>
			<path style="fill:url(#SVGID_9_);" d="M38.23,305.947c-4.795,2.019-7.878,6.756-7.878,11.958c0,93.956,0,21.85,0,115.805
				c0,7.229,7.285,12.171,14.009,9.515c69.31-27.372,141.797-25.384,210.639,5.953c0-101.947,0-37.833,0-139.78
				C184.122,277.139,109.391,275.981,38.23,305.947z"/>
		</g>
	</g>
	<g>
		<path style="fill:#BEC3D2;" d="M50.776,310.205c21.179-7.505,42.586-12.176,64.078-14.01c1.997-0.171,3.707,1.426,3.707,3.43v8.17
			c0,1.787-1.371,3.261-3.151,3.418c-20.902,1.843-41.718,6.548-62.316,14.106c-2.236,0.82-4.603-0.844-4.603-3.226v-8.64
			C48.49,311.998,49.405,310.691,50.776,310.205z"/>
		<path style="fill:#BEC3D2;" d="M171.75,300.987v8.196c0,2.078-1.833,3.693-3.89,3.403c-12.177-1.712-24.358-2.452-36.514-2.223
			c-1.932,0.036-3.525-1.501-3.525-3.433v-8.126c0-1.866,1.49-3.407,3.356-3.442c12.528-0.23,25.069,0.508,37.612,2.214
			C170.487,297.807,171.75,299.272,171.75,300.987z"/>
		<path style="fill:#BEC3D2;" d="M214,310.491v8.535c0,2.326-2.268,3.992-4.479,3.27c-8.541-2.792-17.164-5.104-25.784-6.92
			c-1.593-0.336-2.737-1.727-2.737-3.355v-8.313c0-2.162,1.976-3.804,4.094-3.372c8.862,1.805,17.724,4.1,26.51,6.872
			C213.032,307.658,214,308.994,214,310.491z"/>
		<path style="fill:#BEC3D2;" d="M50.775,341.797c5.717-2.023,11.454-3.842,17.212-5.454c2.199-0.616,4.383,1.021,4.383,3.305v8.46
			c0,1.533-1.017,2.869-2.489,3.294c-5.617,1.623-11.218,3.457-16.791,5.5c-2.234,0.819-4.599-0.848-4.599-3.227v-8.632
			C48.49,343.588,49.404,342.282,50.775,341.797z"/>
		<path style="fill:#BEC3D2;" d="M148.87,330.556v8.13c0,1.945-1.613,3.514-3.556,3.432c-4.485-0.189-8.969-0.243-13.454-0.172
			c-15.372,0.257-30.77,2.068-46.062,5.41c-2.145,0.469-4.168-1.19-4.168-3.386v-8.277c0-1.62,1.131-3.032,2.716-3.367
			c15.687-3.314,31.475-5.116,47.264-5.381c4.658-0.081,9.323-0.024,13.984,0.17C147.428,327.193,148.87,328.72,148.87,330.556z"/>
		<path style="fill:#BEC3D2;" d="M214,342.081v8.528c0,2.327-2.269,3.99-4.481,3.268c-15.96-5.208-32.116-8.732-48.319-10.54
			c-1.745-0.195-3.07-1.654-3.07-3.41v-8.176c0-2.033,1.757-3.637,3.778-3.42c16.662,1.789,33.275,5.292,49.696,10.466
			C213.032,339.249,214,340.584,214,342.081z"/>
		<path style="fill:#BEC3D2;" d="M50.776,373.385c21.097-7.471,42.559-12.156,64.081-13.991c1.996-0.17,3.703,1.424,3.703,3.427
			v8.163c0,1.787-1.371,3.261-3.152,3.418c-20.92,1.844-41.792,6.561-62.316,14.087c-2.235,0.82-4.602-0.845-4.602-3.226v-8.631
			C48.49,375.178,49.405,373.871,50.776,373.385z"/>
		<path style="fill:#BEC3D2;" d="M214,373.662v8.537c0,2.326-2.268,3.991-4.479,3.27c-25.597-8.354-51.678-12.357-77.661-11.932
			c-0.177,0.003-0.354,0.006-0.531,0.009c-1.926,0.036-3.509-1.506-3.509-3.432v-8.133c0-1.87,1.496-3.403,3.366-3.436
			c0.141-0.003,0.283-0.005,0.424-0.007c26.787-0.446,53.641,3.534,79.993,11.842C213.031,370.829,214,372.164,214,373.662z"/>
		<path style="fill:#BEC3D2;" d="M50.775,404.967c5.716-2.021,11.453-3.836,17.211-5.45c2.199-0.617,4.384,1.021,4.384,3.305v8.459
			c0,1.532-1.015,2.867-2.486,3.293c-5.618,1.628-11.22,3.464-16.794,5.508c-2.234,0.819-4.599-0.848-4.599-3.227v-8.641
			C48.49,406.758,49.404,405.452,50.775,404.967z"/>
		<path style="fill:#BEC3D2;" d="M171.75,395.754v8.198c0,2.099-1.863,3.689-3.941,3.398c-11.965-1.678-23.965-2.422-35.949-2.223
			c-15.372,0.257-30.77,2.059-46.062,5.408c-2.145,0.47-4.168-1.189-4.168-3.385v-8.277c0-1.62,1.13-3.032,2.715-3.367
			c15.688-3.322,31.476-5.115,47.265-5.38c12.401-0.204,24.811,0.536,37.181,2.219C170.489,392.577,171.75,394.041,171.75,395.754z"
			/>
	</g>
	<linearGradient id="SVGID_10_" gradientUnits="userSpaceOnUse" x1="401.1324" y1="354.4379" x2="261.7991" y2="211.1046">
		<stop  offset="0" style="stop-color:#F0DDFC;stop-opacity:0"/>
		<stop  offset="0.1613" style="stop-color:#E8D5F6;stop-opacity:0.1613"/>
		<stop  offset="0.4171" style="stop-color:#D1BFE6;stop-opacity:0.4171"/>
		<stop  offset="0.7332" style="stop-color:#AC9CCD;stop-opacity:0.7332"/>
		<stop  offset="1" style="stop-color:#8779B3"/>
	</linearGradient>
	<path style="fill:url(#SVGID_10_);" d="M480.378,442.81c7.194,2.841,14.989-2.446,14.989-10.181c0-100.529,0-34.998,0-135.527
		c0-5.567-3.299-10.635-8.43-12.795c-76.131-32.056-156.091-30.832-231.937,3.693h0c-14.121-6.427-28.385-11.697-42.741-15.816
		l-11.553,32.317c-1.087,3.04,1.151,5.986,4.036,6.18L321.661,427.6C374.562,417.191,428.309,422.248,480.378,442.81z"/>
	<g>
		
			<linearGradient id="SVGID_11_" gradientUnits="userSpaceOnUse" x1="97.1772" y1="878.0377" x2="148.9927" y2="878.0377" gradientTransform="matrix(0.7071 0.7071 -0.7071 0.7071 1013.855 -672.8407)">
			<stop  offset="0" style="stop-color:#FF7044"/>
			<stop  offset="1" style="stop-color:#F92814"/>
		</linearGradient>
		<path style="fill:url(#SVGID_11_);" d="M490.469,70.28l-49.622-49.622l17.295-17.295c2.537-2.537,6.5-2.965,9.52-1.026l0,0
			c16.507,10.594,30.535,24.622,41.129,41.129l0,0c1.938,3.02,1.511,6.982-1.026,9.52L490.469,70.28z"/>
		
			<linearGradient id="SVGID_12_" gradientUnits="userSpaceOnUse" x1="125.9828" y1="887.2226" x2="91.5321" y2="846.0731" gradientTransform="matrix(0.7071 0.7071 -0.7071 0.7071 1013.855 -672.8407)">
			<stop  offset="0" style="stop-color:#FF7044;stop-opacity:0"/>
			<stop  offset="1" style="stop-color:#FFA425"/>
		</linearGradient>
		<path style="fill:url(#SVGID_12_);" d="M490.469,70.28l17.295-17.295c0.411-0.411,0.76-0.862,1.06-1.338
			c-0.2-0.733-0.506-1.446-0.933-2.112l0,0C497.297,33.028,483.268,19,466.761,8.406l0,0c-3.02-1.938-6.982-1.511-9.52,1.026
			l-13.81,13.81L490.469,70.28z"/>
		
			<linearGradient id="SVGID_13_" gradientUnits="userSpaceOnUse" x1="138.8224" y1="850.4662" x2="149.987" y2="890.3398" gradientTransform="matrix(0.7071 0.7071 -0.7071 0.7071 1013.855 -672.8407)">
			<stop  offset="0" style="stop-color:#F92814;stop-opacity:0"/>
			<stop  offset="1" style="stop-color:#C1272D"/>
		</linearGradient>
		<path style="fill:url(#SVGID_13_);" d="M508.791,43.465L508.791,43.465c-1.794-2.796-3.695-5.514-5.681-8.163
			c-0.458,1.182-1.158,2.285-2.099,3.227l-21.146,21.146l10.605,10.605l17.295-17.295C510.302,50.447,510.729,46.485,508.791,43.465
			z"/>
		
			<linearGradient id="SVGID_14_" gradientUnits="userSpaceOnUse" x1="94.7694" y1="912.6337" x2="151.9832" y2="912.6337" gradientTransform="matrix(0.7071 0.7071 -0.7071 0.7071 1013.855 -672.8407)">
			<stop  offset="0" style="stop-color:#F9F7FC"/>
			<stop  offset="1" style="stop-color:#F0DDFC"/>
		</linearGradient>
		<path style="fill:url(#SVGID_14_);" d="M465.349,100.57l29.211-29.211c1.138-1.138,1.138-2.982,0-4.119l-50.673-50.673
			c-1.138-1.138-2.982-1.138-4.119,0l-29.211,29.211L465.349,100.57z"/>
		
			<linearGradient id="SVGID_15_" gradientUnits="userSpaceOnUse" x1="124.3767" y1="934.0477" x2="114.807" y2="886.8373" gradientTransform="matrix(0.7071 0.7071 -0.7071 0.7071 1013.855 -672.8407)">
			<stop  offset="0" style="stop-color:#F0DDFC;stop-opacity:0"/>
			<stop  offset="0.2889" style="stop-color:#C8B7E0;stop-opacity:0.2889"/>
			<stop  offset="0.5915" style="stop-color:#A595C8;stop-opacity:0.5915"/>
			<stop  offset="0.8395" style="stop-color:#8F81B8;stop-opacity:0.8395"/>
			<stop  offset="1" style="stop-color:#8779B3"/>
		</linearGradient>
		<polygon style="fill:url(#SVGID_15_);" points="425.269,31.028 425.269,140.649 480.144,85.811 425.316,30.982 		"/>
		
			<linearGradient id="SVGID_16_" gradientUnits="userSpaceOnUse" x1="120.0875" y1="902.8425" x2="120.5823" y2="914.4698" gradientTransform="matrix(0.7071 0.7071 -0.7071 0.7071 1013.855 -672.8407)">
			<stop  offset="0" style="stop-color:#F9F7FC"/>
			<stop  offset="1" style="stop-color:#F0DDFC"/>
		</linearGradient>
		<path style="fill:url(#SVGID_16_);" d="M478.388,84.575l-51.836-51.836c-2.596-2.597-2.596-6.806,0-9.403l0,0
			c2.597-2.596,6.806-2.596,9.403,0l51.836,51.836c2.596,2.597,2.596,6.806,0,9.403l0,0
			C485.194,87.171,480.984,87.171,478.388,84.575z"/>
		<g>
			
				<linearGradient id="SVGID_17_" gradientUnits="userSpaceOnUse" x1="81.5442" y1="1222.8494" x2="159.0329" y2="1222.8494" gradientTransform="matrix(0.7071 0.7071 -0.7071 0.7071 1013.855 -672.8407)">
				<stop  offset="0" style="stop-color:#FFDAAA"/>
				<stop  offset="0.4213" style="stop-color:#FFD8A8"/>
				<stop  offset="0.6519" style="stop-color:#FED1A0"/>
				<stop  offset="0.8359" style="stop-color:#FDC592"/>
				<stop  offset="0.9951" style="stop-color:#FCB47F"/>
				<stop  offset="1" style="stop-color:#FCB37E"/>
			</linearGradient>
			<path style="fill:url(#SVGID_17_);" d="M227.898,228.436l-27.192,76.065c-1.316,3.68,2.239,7.235,5.919,5.919l76.065-27.192
				C297.866,268.053,243.074,213.26,227.898,228.436z"/>
			
				<linearGradient id="SVGID_18_" gradientUnits="userSpaceOnUse" x1="135.2162" y1="1225.7832" x2="74.6086" y2="1216.2136" gradientTransform="matrix(0.7071 0.7071 -0.7071 0.7071 1013.855 -672.8407)">
				<stop  offset="0" style="stop-color:#FFDAAA;stop-opacity:0"/>
				<stop  offset="0.2507" style="stop-color:#FFE7C8;stop-opacity:0.2507"/>
				<stop  offset="0.5543" style="stop-color:#FFF4E6;stop-opacity:0.5543"/>
				<stop  offset="0.8148" style="stop-color:#FFFCF8;stop-opacity:0.8148"/>
				<stop  offset="1" style="stop-color:#FFFFFF"/>
			</linearGradient>
			<path style="fill:url(#SVGID_18_);" d="M241.16,241.036l-40.017,66.869c-0.065,0.108-0.112,0.215-0.167,0.322
				c1.015,1.889,3.303,3.031,5.648,2.193l76.065-27.192c0.117-0.117,0.218-0.244,0.327-0.366
				C287.531,265.127,255.987,229.181,241.16,241.036z"/>
			
				<linearGradient id="SVGID_19_" gradientUnits="userSpaceOnUse" x1="81.5442" y1="1068.9624" x2="159.0329" y2="1068.9624" gradientTransform="matrix(0.7071 0.7071 -0.7071 0.7071 1013.855 -672.8407)">
				<stop  offset="0" style="stop-color:#FFDA45"/>
				<stop  offset="1" style="stop-color:#FFA425"/>
			</linearGradient>
			<path style="fill:url(#SVGID_19_);" d="M469.979,95.939L282.69,283.228c-0.726-1.259-1.633-2.445-2.707-3.519
				c-6.704-6.704-17.575-6.704-24.279,0c-0.302,0.302,0.866-0.938,0.866-0.938c5.824-6.744,5.535-16.939-0.871-23.345
				s-16.601-6.695-23.345-0.871c0,0-1.24,1.168-0.938,0.866c6.704-6.704,6.704-17.575,0-24.279c-1.074-1.074-2.26-1.98-3.519-2.707
				L415.187,41.147L469.979,95.939z"/>
			
				<linearGradient id="SVGID_20_" gradientUnits="userSpaceOnUse" x1="101.0386" y1="1068.29" x2="162.6095" y2="1068.29" gradientTransform="matrix(0.7071 0.7071 -0.7071 0.7071 1013.855 -672.8407)">
				<stop  offset="0" style="stop-color:#FFDA45"/>
				<stop  offset="1" style="stop-color:#FFA425"/>
			</linearGradient>
			<path style="fill:url(#SVGID_20_);" d="M454.691,80.651l-198.12,198.12c5.824-6.744,5.535-16.939-0.871-23.345
				s-16.601-6.695-23.345-0.871l198.12-198.12L454.691,80.651z"/>
			<linearGradient id="SVGID_21_" gradientUnits="userSpaceOnUse" x1="355.9888" y1="184.6824" x2="311.0704" y2="108.8066">
				<stop  offset="0" style="stop-color:#FFDA45;stop-opacity:0"/>
				<stop  offset="1" style="stop-color:#FCEE21"/>
			</linearGradient>
			<path style="fill:url(#SVGID_21_);" d="M231.417,255.422c-0.302,0.302,0.938-0.866,0.938-0.866
				c6.744-5.824,16.939-5.535,23.345,0.871c6.406,6.406,6.694,16.601,0.871,23.345c0,0-1.168,1.24-0.866,0.938
				c6.704-6.704,17.575-6.704,24.279,0c1.074,1.074,1.98,2.26,2.707,3.519L469.979,95.939l-48.275-48.275l-187.37,187.37
				C237.907,241.553,236.938,249.9,231.417,255.422z"/>
			
				<linearGradient id="SVGID_22_" gradientUnits="userSpaceOnUse" x1="117.9493" y1="1258.64" x2="137.7208" y2="1258.64" gradientTransform="matrix(0.7071 0.7071 -0.7071 0.7071 1013.855 -672.8407)">
				<stop  offset="0" style="stop-color:#7E8595"/>
				<stop  offset="1" style="stop-color:#555A66"/>
			</linearGradient>
			<path style="fill:url(#SVGID_22_);" d="M216.061,295.066c-2.879-2.879-6.096-5.188-9.499-6.943l-5.855,16.378
				c-1.316,3.68,2.239,7.235,5.919,5.919l16.378-5.855C221.249,301.161,218.939,297.944,216.061,295.066z"/>
		</g>
		
			<linearGradient id="SVGID_23_" gradientUnits="userSpaceOnUse" x1="145.2831" y1="993.8622" x2="95.2018" y2="886.6819" gradientTransform="matrix(0.7071 0.7071 -0.7071 0.7071 1013.855 -672.8407)">
			<stop  offset="0" style="stop-color:#FFDA45;stop-opacity:0"/>
			<stop  offset="1" style="stop-color:#B53759"/>
		</linearGradient>
		<polygon style="fill:url(#SVGID_23_);" points="406.537,49.76 406.666,159.289 461.412,104.543 406.584,49.714 		"/>
		
			<linearGradient id="SVGID_24_" gradientUnits="userSpaceOnUse" x1="120.0875" y1="929.3481" x2="120.5823" y2="940.9753" gradientTransform="matrix(0.7071 0.7071 -0.7071 0.7071 1013.855 -672.8407)">
			<stop  offset="0" style="stop-color:#F9F7FC"/>
			<stop  offset="1" style="stop-color:#F0DDFC"/>
		</linearGradient>
		<path style="fill:url(#SVGID_24_);" d="M459.646,103.317L407.81,51.481c-2.597-2.597-2.597-6.806,0-9.403l0,0
			c2.597-2.597,6.806-2.597,9.403,0l51.836,51.836c2.597,2.596,2.597,6.806,0,9.403l0,0
			C466.452,105.913,462.242,105.913,459.646,103.317z"/>
	</g>
	<g>
		<g>
			<linearGradient id="SVGID_25_" gradientUnits="userSpaceOnUse" x1="20.5213" y1="211.9192" x2="20.5213" y2="232.6075">
				<stop  offset="0" style="stop-color:#92F37F"/>
				<stop  offset="1" style="stop-color:#4AB272"/>
			</linearGradient>
			<path style="fill:url(#SVGID_25_);" d="M30.988,224.315H10.054C4.501,224.315,0,219.814,0,214.261l0,0
				c0-5.553,4.501-10.054,10.054-10.054h20.934c5.553,0,10.054,4.502,10.054,10.054l0,0
				C41.043,219.814,36.541,224.315,30.988,224.315z"/>
		</g>
		<g>
			
				<linearGradient id="SVGID_26_" gradientUnits="userSpaceOnUse" x1="639.1179" y1="-406.6774" x2="639.1179" y2="-385.989" gradientTransform="matrix(0 1 1 0 615.2175 -615.2175)">
				<stop  offset="0" style="stop-color:#92F37F"/>
				<stop  offset="1" style="stop-color:#4AB272"/>
			</linearGradient>
			<path style="fill:url(#SVGID_26_);" d="M220.936,34.367V13.433c0-5.553-4.502-10.054-10.054-10.054l0,0
				c-5.553,0-10.054,4.502-10.054,10.054v20.934c0,5.553,4.501,10.054,10.054,10.054l0,0
				C216.434,44.422,220.936,39.92,220.936,34.367z"/>
		</g>
		<g>
			
				<linearGradient id="SVGID_27_" gradientUnits="userSpaceOnUse" x1="439.736" y1="74.924" x2="439.736" y2="95.6126" gradientTransform="matrix(0.7071 0.7071 -0.7071 0.7071 -180.0263 -285.9161)">
				<stop  offset="0" style="stop-color:#92F37F"/>
				<stop  offset="1" style="stop-color:#4AB272"/>
			</linearGradient>
			<path style="fill:url(#SVGID_27_);" d="M76.568,94.166L61.766,79.364c-3.926-3.926-3.926-10.292,0-14.219l0,0
				c3.926-3.926,10.292-3.926,14.219,0l14.803,14.803c3.926,3.926,3.926,10.292,0,14.219l0,0
				C86.861,98.093,80.495,98.093,76.568,94.166z"/>
		</g>
		<g>
			
				<linearGradient id="SVGID_28_" gradientUnits="userSpaceOnUse" x1="502.1295" y1="12.5306" x2="502.1295" y2="33.2191" gradientTransform="matrix(-0.7071 0.7071 0.7071 0.7071 690.0263 -285.9161)">
				<stop  offset="0" style="stop-color:#92F37F"/>
				<stop  offset="1" style="stop-color:#4AB272"/>
			</linearGradient>
			<path style="fill:url(#SVGID_28_);" d="M345.195,94.166l14.803-14.803c3.926-3.926,3.926-10.292,0-14.219l0,0
				c-3.926-3.926-10.293-3.926-14.219,0l-14.803,14.803c-3.926,3.926-3.926,10.292,0,14.219l0,0
				C334.902,98.093,341.268,98.093,345.195,94.166z"/>
		</g>
	</g>
</g>
<g>
</g>
<g>
</g>
<g>
</g>
<g>
</g>
<g>
</g>
<g>
</g>
<g>
</g>
<g>
</g>
<g>
</g>
<g>
</g>
<g>
</g>
<g>
</g>
<g>
</g>
<g>
</g>
<g>
</g>
</svg>
