<?xml version="1.0" encoding="iso-8859-1"?>
<!-- Generator: Adobe Illustrator 22.0.0, SVG Export Plug-In . SVG Version: 6.00 Build 0)  -->
<svg version="1.1" id="Capa_1" xmlns="http://www.w3.org/2000/svg" xmlns:xlink="http://www.w3.org/1999/xlink" x="0px" y="0px"
	 viewBox="0 0 510 510" style="enable-background:new 0 0 510 510;" xml:space="preserve">
<g>
	<g>
		<linearGradient id="SVGID_1_" gradientUnits="userSpaceOnUse" x1="39.5461" y1="-27.948" x2="519.5237" y2="540.5257">
			<stop  offset="0" style="stop-color:#F9F7FC"/>
			<stop  offset="1" style="stop-color:#F0DDFC"/>
		</linearGradient>
		<path style="fill:url(#SVGID_1_);" d="M432.455,509.998H94.763V33.336C94.763,14.925,109.687,0,128.098,0h318.449
			c18.527,0,33.547,15.019,33.547,33.547v428.812C480.095,488.669,458.766,509.998,432.455,509.998z"/>
		<linearGradient id="SVGID_2_" gradientUnits="userSpaceOnUse" x1="316.4698" y1="284.1957" x2="-13.5135" y2="-20.2892">
			<stop  offset="0" style="stop-color:#E9EDF5;stop-opacity:0"/>
			<stop  offset="1" style="stop-color:#FFFFFF"/>
		</linearGradient>
		<path style="fill:url(#SVGID_2_);" d="M149.686,21.588c-18.411,0-33.336,14.925-33.336,33.336v455.075h316.105
			c26.31,0,47.639-21.329,47.639-47.639V33.547c0-3.606-0.576-7.076-1.628-10.331c-3.255-1.053-6.725-1.628-10.331-1.628H149.686z"
			/>
		<linearGradient id="SVGID_3_" gradientUnits="userSpaceOnUse" x1="401.6689" y1="619.5854" x2="245.4054" y2="463.3219">
			<stop  offset="0" style="stop-color:#F0DDFC;stop-opacity:0"/>
			<stop  offset="0.2889" style="stop-color:#C8B7E0;stop-opacity:0.2889"/>
			<stop  offset="0.5915" style="stop-color:#A595C8;stop-opacity:0.5915"/>
			<stop  offset="0.8395" style="stop-color:#8F81B8;stop-opacity:0.8395"/>
			<stop  offset="1" style="stop-color:#8779B3"/>
		</linearGradient>
		<path style="fill:url(#SVGID_3_);" d="M470.352,491.217l-86.625-86.625c-1.818-2.702-4.904-4.48-8.405-4.48H94.763v109.887
			h337.693C447.915,509.998,461.649,502.629,470.352,491.217z"/>
		<linearGradient id="SVGID_4_" gradientUnits="userSpaceOnUse" x1="231.4913" y1="436.6929" x2="231.4913" y2="488.9166">
			<stop  offset="0" style="stop-color:#F9F7FC"/>
			<stop  offset="1" style="stop-color:#F0DDFC"/>
		</linearGradient>
		<path style="fill:url(#SVGID_4_);" d="M433.077,510H77.551c-26.323,0-47.646-21.337-47.646-47.646v-52.119
			c0-5.591,4.533-10.124,10.124-10.124h335.292c5.592,0,10.124,4.533,10.124,10.124v52.119C385.446,488.663,406.768,510,433.077,510
			z"/>
		<linearGradient id="SVGID_5_" gradientUnits="userSpaceOnUse" x1="434.5454" y1="509.1492" x2="436.9462" y2="511.5499">
			<stop  offset="0" style="stop-color:#F9F7FC"/>
			<stop  offset="1" style="stop-color:#F0DDFC"/>
		</linearGradient>
		<path style="fill:url(#SVGID_5_);" d="M437.513,509.797V510h-4.436C434.57,510,436.049,509.928,437.513,509.797z"/>
	</g>
	<g>
		<g>
			<path style="fill:#BEC3D2;" d="M299.431,374H155.626c-2.263,0-4.097-1.835-4.097-4.097v-13.805c0-2.263,1.834-4.097,4.097-4.097
				h143.805c2.263,0,4.097,1.835,4.097,4.097v13.805C303.529,372.165,301.694,374,299.431,374z"/>
			<path style="fill:#BEC3D2;" d="M370.684,374h-45.058c-2.263,0-4.097-1.835-4.097-4.097v-13.805c0-2.263,1.835-4.097,4.097-4.097
				h45.058c2.263,0,4.097,1.835,4.097,4.097v13.805C374.781,372.165,372.947,374,370.684,374z"/>
			<path style="fill:#BEC3D2;" d="M419.231,374h-23.78c-2.263,0-4.097-1.835-4.097-4.097v-13.805c0-2.263,1.835-4.097,4.097-4.097
				h23.78c2.263,0,4.097,1.835,4.097,4.097v13.805C423.328,372.165,421.494,374,419.231,374z"/>
		</g>
		<g>
			<path style="fill:#BEC3D2;" d="M370.338,240.271H226.533c-2.263,0-4.097-1.835-4.097-4.097v-13.805
				c0-2.263,1.835-4.097,4.097-4.097h143.805c2.263,0,4.097,1.835,4.097,4.097v13.805
				C374.436,238.437,372.601,240.271,370.338,240.271z"/>
			<path style="fill:#BEC3D2;" d="M200.684,240.271h-45.058c-2.263,0-4.097-1.835-4.097-4.097v-13.805
				c0-2.263,1.834-4.097,4.097-4.097h45.058c2.263,0,4.097,1.835,4.097,4.097v13.805
				C204.781,238.437,202.947,240.271,200.684,240.271z"/>
			<path style="fill:#BEC3D2;" d="M419.231,240.271h-23.78c-2.263,0-4.097-1.835-4.097-4.097v-13.805
				c0-2.263,1.835-4.097,4.097-4.097h23.78c2.263,0,4.097,1.835,4.097,4.097v13.805
				C423.328,238.437,421.494,240.271,419.231,240.271z"/>
		</g>
		<g>
			<path style="fill:#BEC3D2;" d="M275.426,151.407h143.805c2.263,0,4.097,1.834,4.097,4.097v13.805
				c0,2.263-1.835,4.097-4.097,4.097H275.426c-2.263,0-4.097-1.835-4.097-4.097v-13.805
				C271.328,153.241,273.163,151.407,275.426,151.407z"/>
			<path style="fill:#BEC3D2;" d="M204.173,151.407h45.058c2.263,0,4.097,1.834,4.097,4.097v13.805c0,2.263-1.834,4.097-4.097,4.097
				h-45.058c-2.263,0-4.097-1.835-4.097-4.097v-13.805C200.076,153.241,201.91,151.407,204.173,151.407z"/>
			<path style="fill:#BEC3D2;" d="M155.626,151.407h23.78c2.263,0,4.097,1.834,4.097,4.097v13.805c0,2.263-1.835,4.097-4.097,4.097
				h-23.78c-2.263,0-4.097-1.835-4.097-4.097v-13.805C151.529,153.241,153.363,151.407,155.626,151.407z"/>
		</g>
		<g>
			<path style="fill:#BEC3D2;" d="M204.519,285.136h143.805c2.263,0,4.097,1.834,4.097,4.097v13.805
				c0,2.263-1.835,4.097-4.097,4.097H204.519c-2.263,0-4.097-1.835-4.097-4.097v-13.805
				C200.422,286.97,202.256,285.136,204.519,285.136z"/>
			<path style="fill:#BEC3D2;" d="M374.173,285.136h45.058c2.263,0,4.097,1.834,4.097,4.097v13.805c0,2.263-1.835,4.097-4.097,4.097
				h-45.058c-2.263,0-4.097-1.835-4.097-4.097v-13.805C370.076,286.97,371.91,285.136,374.173,285.136z"/>
			<path style="fill:#BEC3D2;" d="M155.626,285.136h23.78c2.263,0,4.097,1.834,4.097,4.097v13.805c0,2.263-1.835,4.097-4.097,4.097
				h-23.78c-2.263,0-4.097-1.835-4.097-4.097v-13.805C151.529,286.97,153.363,285.136,155.626,285.136z"/>
		</g>
	</g>
	<linearGradient id="SVGID_6_" gradientUnits="userSpaceOnUse" x1="344.2217" y1="132.739" x2="248.2217" y2="39.739">
		<stop  offset="0" style="stop-color:#F0DDFC;stop-opacity:0"/>
		<stop  offset="0.2889" style="stop-color:#C8B7E0;stop-opacity:0.2889"/>
		<stop  offset="0.5915" style="stop-color:#A595C8;stop-opacity:0.5915"/>
		<stop  offset="0.8395" style="stop-color:#8F81B8;stop-opacity:0.8395"/>
		<stop  offset="1" style="stop-color:#8779B3"/>
	</linearGradient>
	<path style="fill:url(#SVGID_6_);" d="M480.095,113.166L428.419,61.49c-19.656-20.965-47.583-34.088-78.522-34.088
		c-59.365,0-107.662,48.296-107.662,107.661c0,30.938,13.122,58.865,34.087,78.521l203.772,203.772V113.166z"/>
	<linearGradient id="SVGID_7_" gradientUnits="userSpaceOnUse" x1="428.059" y1="244.9805" x2="274.5949" y2="29.1958">
		<stop  offset="0" style="stop-color:#F0DDFC;stop-opacity:0"/>
		<stop  offset="0.2889" style="stop-color:#C8B7E0;stop-opacity:0.2889"/>
		<stop  offset="0.5915" style="stop-color:#A595C8;stop-opacity:0.5915"/>
		<stop  offset="0.8395" style="stop-color:#8F81B8;stop-opacity:0.8395"/>
		<stop  offset="1" style="stop-color:#8779B3"/>
	</linearGradient>
	<path style="fill:url(#SVGID_7_);" d="M480.095,190.659L366.741,77.305c-1.156-1.902-2.96-3.44-5.425-4.607
		c-3.338-1.581-7.176-2.372-11.507-2.372c-4.334,0-8.169,0.791-11.506,2.372c-3.338,1.581-5.476,3.837-6.412,6.764l-32.676,107.162
		c-0.236,0.939-0.351,1.581-0.351,1.932c0,2.725,1.526,5.12,4.572,7.187l176.659,176.659V190.659z"/>
	<linearGradient id="SVGID_8_" gradientUnits="userSpaceOnUse" x1="254.7076" y1="84.7945" x2="445.086" y2="185.3314">
		<stop  offset="0" style="stop-color:#92F37F"/>
		<stop  offset="1" style="stop-color:#4AB272"/>
	</linearGradient>
	<path style="fill:url(#SVGID_8_);" d="M349.897,242.724c-59.365,0-107.662-48.296-107.662-107.661
		c0-59.365,48.297-107.661,107.662-107.661c59.365,0,107.661,48.296,107.661,107.661
		C457.558,194.428,409.262,242.724,349.897,242.724z M349.897,42.402c-51.094,0-92.662,41.568-92.662,92.661
		c0,51.093,41.568,92.661,92.662,92.661c51.094,0,92.661-41.568,92.661-92.661C442.558,83.97,400.991,42.402,349.897,42.402z"/>
	<linearGradient id="SVGID_9_" gradientUnits="userSpaceOnUse" x1="449.4841" y1="236.5635" x2="337.4841" y2="121.5633">
		<stop  offset="0" style="stop-color:#F0DDFC;stop-opacity:0"/>
		<stop  offset="0.2889" style="stop-color:#C8B7E0;stop-opacity:0.2889"/>
		<stop  offset="0.5915" style="stop-color:#A595C8;stop-opacity:0.5915"/>
		<stop  offset="0.8395" style="stop-color:#8F81B8;stop-opacity:0.8395"/>
		<stop  offset="1" style="stop-color:#8779B3"/>
	</linearGradient>
	<path style="fill:url(#SVGID_9_);" d="M480.09,113.17v304.19L276.32,213.58c19.26,18.07,45.15,29.14,73.58,29.14
		c59.36,0,107.66-48.29,107.66-107.66c0-28.39-11.05-54.26-29.08-73.51L480.09,113.17z"/>
	<g>
		<linearGradient id="SVGID_10_" gradientUnits="userSpaceOnUse" x1="315.0433" y1="125.1321" x2="427.3339" y2="184.4317">
			<stop  offset="0" style="stop-color:#92F37F"/>
			<stop  offset="1" style="stop-color:#4AB272"/>
		</linearGradient>
		<path style="fill:url(#SVGID_10_);" d="M298.863,188.556c0-0.352,0.115-0.994,0.351-1.932l32.676-107.163
			c0.936-2.926,3.074-5.182,6.412-6.764c3.338-1.581,7.172-2.372,11.506-2.372c4.332,0,8.169,0.791,11.507,2.372
			c3.338,1.581,5.473,3.837,6.413,6.764l32.851,107.163c0.233,0.939,0.351,1.581,0.351,1.932c0,3.047-1.904,5.682-5.709,7.906
			c-3.807,2.226-7.76,3.338-11.858,3.338c-5.037,0-8.023-1.697-8.959-5.094l-5.973-21.96h-37.067l-5.973,21.96
			c-0.939,3.398-3.925,5.094-8.96,5.094c-4.101,0-8.053-1.112-11.858-3.338C300.765,194.239,298.863,191.603,298.863,188.556z
			 M336.985,151.664h25.648l-12.825-47.081L336.985,151.664z"/>
	</g>
</g>
<g>
</g>
<g>
</g>
<g>
</g>
<g>
</g>
<g>
</g>
<g>
</g>
<g>
</g>
<g>
</g>
<g>
</g>
<g>
</g>
<g>
</g>
<g>
</g>
<g>
</g>
<g>
</g>
<g>
</g>
</svg>
