<?xml version="1.0" encoding="iso-8859-1"?>
<!-- Generator: Adobe Illustrator 22.0.0, SVG Export Plug-In . SVG Version: 6.00 Build 0)  -->
<svg version="1.1" id="Capa_1" xmlns="http://www.w3.org/2000/svg" xmlns:xlink="http://www.w3.org/1999/xlink" x="0px" y="0px"
	 viewBox="0 0 510 510" style="enable-background:new 0 0 510 510;" xml:space="preserve">
<g>
	<g>
		<linearGradient id="SVGID_1_" gradientUnits="userSpaceOnUse" x1="39.5461" y1="-27.948" x2="519.5237" y2="540.5257">
			<stop  offset="0" style="stop-color:#F9F7FC"/>
			<stop  offset="1" style="stop-color:#F0DDFC"/>
		</linearGradient>
		<path style="fill:url(#SVGID_1_);" d="M432.455,509.998H94.763V33.336C94.763,14.925,109.688,0,128.098,0h318.449
			c18.527,0,33.547,15.019,33.547,33.547v428.812C480.095,488.669,458.766,509.998,432.455,509.998z"/>
		<linearGradient id="SVGID_2_" gradientUnits="userSpaceOnUse" x1="316.4698" y1="284.1957" x2="-13.5135" y2="-20.2892">
			<stop  offset="0" style="stop-color:#E9EDF5;stop-opacity:0"/>
			<stop  offset="1" style="stop-color:#FFFFFF"/>
		</linearGradient>
		<path style="fill:url(#SVGID_2_);" d="M149.686,21.588c-18.411,0-33.336,14.925-33.336,33.336v455.075h316.105
			c26.31,0,47.639-21.329,47.639-47.639V33.547c0-3.606-0.576-7.076-1.628-10.331c-3.255-1.053-6.725-1.628-10.331-1.628H149.686z"
			/>
		<linearGradient id="SVGID_3_" gradientUnits="userSpaceOnUse" x1="401.6689" y1="619.5854" x2="245.4054" y2="463.3219">
			<stop  offset="0" style="stop-color:#F0DDFC;stop-opacity:0"/>
			<stop  offset="0.2889" style="stop-color:#C8B7E0;stop-opacity:0.2889"/>
			<stop  offset="0.5915" style="stop-color:#A595C8;stop-opacity:0.5915"/>
			<stop  offset="0.8395" style="stop-color:#8F81B8;stop-opacity:0.8395"/>
			<stop  offset="1" style="stop-color:#8779B3"/>
		</linearGradient>
		<path style="fill:url(#SVGID_3_);" d="M470.352,491.217l-86.625-86.625c-1.818-2.702-4.904-4.48-8.405-4.48H94.763v109.887
			h337.693C447.915,509.998,461.649,502.629,470.352,491.217z"/>
		<linearGradient id="SVGID_4_" gradientUnits="userSpaceOnUse" x1="231.4913" y1="436.6929" x2="231.4913" y2="488.9166">
			<stop  offset="0" style="stop-color:#F9F7FC"/>
			<stop  offset="1" style="stop-color:#F0DDFC"/>
		</linearGradient>
		<path style="fill:url(#SVGID_4_);" d="M433.077,510H77.551c-26.323,0-47.646-21.337-47.646-47.646v-52.119
			c0-5.591,4.533-10.124,10.124-10.124h335.292c5.591,0,10.124,4.533,10.124,10.124v52.119C385.446,488.663,406.768,510,433.077,510
			z"/>
		<linearGradient id="SVGID_5_" gradientUnits="userSpaceOnUse" x1="434.5454" y1="509.1492" x2="436.9461" y2="511.5499">
			<stop  offset="0" style="stop-color:#F9F7FC"/>
			<stop  offset="1" style="stop-color:#F0DDFC"/>
		</linearGradient>
		<path style="fill:url(#SVGID_5_);" d="M437.513,509.797V510h-4.436C434.57,510,436.049,509.928,437.513,509.797z"/>
	</g>
	<g>
		<g>
			<path style="fill:#BEC3D2;" d="M299.494,374h-143.93c-2.229,0-4.035-1.807-4.035-4.035v-13.93c0-2.229,1.807-4.035,4.035-4.035
				h143.93c2.229,0,4.035,1.807,4.035,4.035v13.93C303.529,372.193,301.722,374,299.494,374z"/>
			<path style="fill:#BEC3D2;" d="M370.746,374h-45.182c-2.229,0-4.035-1.807-4.035-4.035v-13.93c0-2.229,1.807-4.035,4.035-4.035
				h45.182c2.229,0,4.035,1.807,4.035,4.035v13.93C374.781,372.193,372.975,374,370.746,374z"/>
			<path style="fill:#BEC3D2;" d="M419.293,374h-23.905c-2.229,0-4.035-1.807-4.035-4.035v-13.93c0-2.229,1.807-4.035,4.035-4.035
				h23.905c2.229,0,4.035,1.807,4.035,4.035v13.93C423.328,372.193,421.522,374,419.293,374z"/>
		</g>
		<g>
			<path style="fill:#BEC3D2;" d="M370.4,240.271h-143.93c-2.229,0-4.035-1.807-4.035-4.035v-13.93c0-2.229,1.807-4.035,4.035-4.035
				H370.4c2.229,0,4.035,1.807,4.035,4.035v13.93C374.435,238.465,372.629,240.271,370.4,240.271z"/>
			<path style="fill:#BEC3D2;" d="M200.746,240.271h-45.182c-2.229,0-4.035-1.807-4.035-4.035v-13.93
				c0-2.229,1.807-4.035,4.035-4.035h45.182c2.229,0,4.035,1.807,4.035,4.035v13.93
				C204.781,238.465,202.975,240.271,200.746,240.271z"/>
			<path style="fill:#BEC3D2;" d="M419.293,240.271h-23.905c-2.229,0-4.035-1.807-4.035-4.035v-13.93
				c0-2.229,1.807-4.035,4.035-4.035h23.905c2.229,0,4.035,1.807,4.035,4.035v13.93
				C423.328,238.465,421.522,240.271,419.293,240.271z"/>
		</g>
		<g>
			<path style="fill:#BEC3D2;" d="M275.363,151.407h143.93c2.229,0,4.035,1.807,4.035,4.035v13.93c0,2.229-1.807,4.035-4.035,4.035
				h-143.93c-2.229,0-4.035-1.807-4.035-4.035v-13.93C271.328,153.213,273.135,151.407,275.363,151.407z"/>
			<path style="fill:#BEC3D2;" d="M204.111,151.407h45.182c2.229,0,4.035,1.807,4.035,4.035v13.93c0,2.229-1.807,4.035-4.035,4.035
				h-45.182c-2.229,0-4.035-1.807-4.035-4.035v-13.93C200.076,153.213,201.882,151.407,204.111,151.407z"/>
			<path style="fill:#BEC3D2;" d="M155.564,151.407h23.905c2.229,0,4.035,1.807,4.035,4.035v13.93c0,2.229-1.807,4.035-4.035,4.035
				h-23.905c-2.229,0-4.035-1.807-4.035-4.035v-13.93C151.529,153.213,153.335,151.407,155.564,151.407z"/>
		</g>
		<g>
			<path style="fill:#BEC3D2;" d="M204.457,285.136h143.93c2.229,0,4.035,1.807,4.035,4.035v13.93c0,2.229-1.807,4.035-4.035,4.035
				h-143.93c-2.229,0-4.035-1.807-4.035-4.035v-13.93C200.422,286.942,202.228,285.136,204.457,285.136z"/>
			<path style="fill:#BEC3D2;" d="M374.111,285.136h45.182c2.229,0,4.035,1.807,4.035,4.035v13.93c0,2.229-1.807,4.035-4.035,4.035
				h-45.182c-2.229,0-4.035-1.807-4.035-4.035v-13.93C370.076,286.942,371.882,285.136,374.111,285.136z"/>
			<path style="fill:#BEC3D2;" d="M155.564,285.136h23.905c2.229,0,4.035,1.807,4.035,4.035v13.93c0,2.229-1.807,4.035-4.035,4.035
				h-23.905c-2.229,0-4.035-1.807-4.035-4.035v-13.93C151.529,286.942,153.335,285.136,155.564,285.136z"/>
		</g>
	</g>
	<linearGradient id="SVGID_6_" gradientUnits="userSpaceOnUse" x1="344.2217" y1="132.739" x2="248.2217" y2="39.739">
		<stop  offset="0" style="stop-color:#F0DDFC;stop-opacity:0"/>
		<stop  offset="0.2889" style="stop-color:#C8B7E0;stop-opacity:0.2889"/>
		<stop  offset="0.5915" style="stop-color:#A595C8;stop-opacity:0.5915"/>
		<stop  offset="0.8395" style="stop-color:#8F81B8;stop-opacity:0.8395"/>
		<stop  offset="1" style="stop-color:#8779B3"/>
	</linearGradient>
	<path style="fill:url(#SVGID_6_);" d="M480.095,113.166L428.418,61.49c-19.656-20.965-47.583-34.088-78.521-34.088
		c-59.365,0-107.662,48.296-107.662,107.661c0,30.938,13.122,58.865,34.087,78.521l203.772,203.772V113.166z"/>
	<linearGradient id="SVGID_7_" gradientUnits="userSpaceOnUse" x1="418.1186" y1="202.0184" x2="268.6186" y2="92.5184">
		<stop  offset="0" style="stop-color:#F0DDFC;stop-opacity:0"/>
		<stop  offset="0.2889" style="stop-color:#C8B7E0;stop-opacity:0.2889"/>
		<stop  offset="0.5915" style="stop-color:#A595C8;stop-opacity:0.5915"/>
		<stop  offset="0.8395" style="stop-color:#8F81B8;stop-opacity:0.8395"/>
		<stop  offset="1" style="stop-color:#8779B3"/>
	</linearGradient>
	<path style="fill:url(#SVGID_7_);" d="M480.095,159.485L396.95,76.34c-0.086-0.157-0.167-0.317-0.259-0.471
		c-1.417-2.361-3.484-3.542-6.199-3.542h-61.46c-3.308,0-6.141,0.739-8.501,2.214c-2.364,1.478-3.543,3.573-3.543,6.288v112.471
		c0,2.682,1.326,4.755,3.974,6.227L480.095,358.66V159.485z"/>
	<g>
		<linearGradient id="SVGID_8_" gradientUnits="userSpaceOnUse" x1="316.9877" y1="137.0642" x2="398.8159" y2="137.0642">
			<stop  offset="0" style="stop-color:#FF7044"/>
			<stop  offset="1" style="stop-color:#F92814"/>
		</linearGradient>
		<path style="fill:url(#SVGID_8_);" d="M316.988,193.299V80.829c0-2.715,1.179-4.81,3.543-6.288
			c2.361-1.475,5.194-2.214,8.501-2.214h61.46c2.715,0,4.782,1.182,6.199,3.542c1.417,2.363,2.125,5.136,2.125,8.324
			c0,3.426-0.738,6.318-2.214,8.679c-1.478,2.363-3.515,3.543-6.111,3.543h-45.874v29.933h26.745c2.596,0,4.633,1.063,6.111,3.188
			c1.475,2.125,2.214,4.666,2.214,7.616c0,2.718-0.709,5.136-2.125,7.262c-1.417,2.125-3.485,3.188-6.2,3.188h-26.745v45.697
			c0,2.718-1.359,4.813-4.074,6.288c-2.718,1.478-5.964,2.214-9.741,2.214c-3.781,0-7.027-0.736-9.741-2.214
			C318.343,198.112,316.988,196.017,316.988,193.299z"/>
	</g>
	<linearGradient id="SVGID_9_" gradientUnits="userSpaceOnUse" x1="254.7077" y1="84.7945" x2="445.086" y2="185.3314">
		<stop  offset="0" style="stop-color:#FF7044"/>
		<stop  offset="1" style="stop-color:#F92814"/>
	</linearGradient>
	<path style="fill:url(#SVGID_9_);" d="M349.897,242.724c-59.365,0-107.662-48.296-107.662-107.661
		c0-59.365,48.297-107.661,107.662-107.661c59.365,0,107.661,48.296,107.661,107.661
		C457.558,194.428,409.262,242.724,349.897,242.724z M349.897,42.402c-51.094,0-92.662,41.568-92.662,92.661
		c0,51.093,41.568,92.661,92.662,92.661c51.094,0,92.661-41.568,92.661-92.661C442.558,83.97,400.991,42.402,349.897,42.402z"/>
	<linearGradient id="SVGID_10_" gradientUnits="userSpaceOnUse" x1="449.4841" y1="236.5635" x2="337.4841" y2="121.5633">
		<stop  offset="0" style="stop-color:#F0DDFC;stop-opacity:0"/>
		<stop  offset="0.2889" style="stop-color:#C8B7E0;stop-opacity:0.2889"/>
		<stop  offset="0.5915" style="stop-color:#A595C8;stop-opacity:0.5915"/>
		<stop  offset="0.8395" style="stop-color:#8F81B8;stop-opacity:0.8395"/>
		<stop  offset="1" style="stop-color:#8779B3"/>
	</linearGradient>
	<path style="fill:url(#SVGID_10_);" d="M480.09,113.17v304.19L276.32,213.58c19.26,18.07,45.15,29.14,73.58,29.14
		c59.36,0,107.66-48.29,107.66-107.66c0-28.39-11.05-54.26-29.08-73.51L480.09,113.17z"/>
</g>
<g>
</g>
<g>
</g>
<g>
</g>
<g>
</g>
<g>
</g>
<g>
</g>
<g>
</g>
<g>
</g>
<g>
</g>
<g>
</g>
<g>
</g>
<g>
</g>
<g>
</g>
<g>
</g>
<g>
</g>
</svg>
