<?xml version="1.0" encoding="iso-8859-1"?>
<!-- Generator: Adobe Illustrator 22.0.0, SVG Export Plug-In . SVG Version: 6.00 Build 0)  -->
<svg version="1.1" id="Capa_1" xmlns="http://www.w3.org/2000/svg" xmlns:xlink="http://www.w3.org/1999/xlink" x="0px" y="0px"
	 viewBox="0 0 510 510" style="enable-background:new 0 0 510 510;" xml:space="preserve">
<g>
	<g>
		<path style="fill:#555A66;" d="M55.424,374.817l-13.616-3.934l73.737-255.214c1.086-3.76,5.015-5.927,8.775-4.841l0,0
			c3.76,1.086,5.927,5.015,4.841,8.775L55.424,374.817z"/>
		<g>
			
				<linearGradient id="SVGID_1_" gradientUnits="userSpaceOnUse" x1="100.8692" y1="364.3312" x2="163.9596" y2="427.4216" gradientTransform="matrix(0.9607 0.2776 -0.2776 0.9607 40.5085 -28.1098)">
				<stop  offset="0" style="stop-color:#FFDA45"/>
				<stop  offset="1" style="stop-color:#FFA425"/>
			</linearGradient>
			<circle style="fill:url(#SVGID_1_);" cx="48.725" cy="372.474" r="48.713"/>
			
				<linearGradient id="SVGID_2_" gradientUnits="userSpaceOnUse" x1="124.9396" y1="390.843" x2="94.8837" y2="348.2322" gradientTransform="matrix(0.9607 0.2776 -0.2776 0.9607 40.5085 -28.1098)">
				<stop  offset="0" style="stop-color:#FFDA45;stop-opacity:0"/>
				<stop  offset="1" style="stop-color:#FCEE21"/>
			</linearGradient>
			<circle style="fill:url(#SVGID_2_);" cx="48.725" cy="372.474" r="40.655"/>
			
				<linearGradient id="SVGID_3_" gradientUnits="userSpaceOnUse" x1="120.7873" y1="401.2264" x2="187.7449" y2="276.6947" gradientTransform="matrix(0.9607 0.2776 -0.2776 0.9607 40.5085 -28.1098)">
				<stop  offset="0" style="stop-color:#FFDA45;stop-opacity:0"/>
				<stop  offset="1" style="stop-color:#B53759"/>
			</linearGradient>
			<path style="fill:url(#SVGID_3_);" d="M81.755,336.659c1.336,7.211,1.062,14.835-1.113,22.36
				c-7.468,25.846-34.474,40.745-60.32,33.277c-7.526-2.174-14.121-6.008-19.508-10.984c3.253,17.555,16.07,32.666,34.39,37.959
				c25.846,7.467,52.852-7.431,60.319-33.277C100.817,367.674,94.87,348.773,81.755,336.659z"/>
		</g>
	</g>
	<g>
		<path style="fill:#555A66;" d="M226.969,383.212h-14.172V117.559c0-3.914,3.173-7.086,7.086-7.086l0,0
			c3.914,0,7.086,3.173,7.086,7.086V383.212z"/>
		<g>
			<linearGradient id="SVGID_4_" gradientUnits="userSpaceOnUse" x1="201.6565" y1="364.5943" x2="264.7471" y2="427.6849">
				<stop  offset="0" style="stop-color:#FF7044"/>
				<stop  offset="1" style="stop-color:#F92814"/>
			</linearGradient>
			<circle style="fill:url(#SVGID_4_);" cx="219.883" cy="382.82" r="48.713"/>
			<linearGradient id="SVGID_5_" gradientUnits="userSpaceOnUse" x1="225.727" y1="391.1062" x2="195.6711" y2="348.4952">
				<stop  offset="0" style="stop-color:#FF7044;stop-opacity:0"/>
				<stop  offset="1" style="stop-color:#FFA425"/>
			</linearGradient>
			<circle style="fill:url(#SVGID_5_);" cx="219.883" cy="382.82" r="40.655"/>
			<linearGradient id="SVGID_6_" gradientUnits="userSpaceOnUse" x1="221.5742" y1="401.4893" x2="288.532" y2="276.9572">
				<stop  offset="0" style="stop-color:#F92814;stop-opacity:0"/>
				<stop  offset="1" style="stop-color:#C1272D"/>
			</linearGradient>
			<path style="fill:url(#SVGID_6_);" d="M241.673,339.245c3.285,6.557,5.137,13.957,5.137,21.791
				c0,26.903-21.809,48.713-48.713,48.713c-7.833,0-15.233-1.852-21.791-5.137c7.998,15.963,24.506,26.922,43.575,26.922
				c26.903,0,48.713-21.809,48.713-48.712C268.595,363.751,257.636,347.243,241.673,339.245z"/>
		</g>
	</g>
	<g>
		<path style="fill:#555A66;" d="M324.394,383.212h-14.172V117.559c0-3.914,3.173-7.086,7.086-7.086l0,0
			c3.914,0,7.086,3.173,7.086,7.086V383.212z"/>
		<g>
			<linearGradient id="SVGID_7_" gradientUnits="userSpaceOnUse" x1="299.0818" y1="364.5943" x2="362.1724" y2="427.6849">
				<stop  offset="0" style="stop-color:#18CFFC"/>
				<stop  offset="1" style="stop-color:#4A98F7"/>
			</linearGradient>
			<circle style="fill:url(#SVGID_7_);" cx="317.308" cy="382.82" r="48.713"/>
			<linearGradient id="SVGID_8_" gradientUnits="userSpaceOnUse" x1="323.1523" y1="391.1062" x2="293.0963" y2="348.4952">
				<stop  offset="0" style="stop-color:#18CFFC;stop-opacity:0"/>
				<stop  offset="1" style="stop-color:#65E1DC"/>
			</linearGradient>
			<circle style="fill:url(#SVGID_8_);" cx="317.308" cy="382.82" r="40.655"/>
			<linearGradient id="SVGID_9_" gradientUnits="userSpaceOnUse" x1="318.9995" y1="401.4893" x2="385.9572" y2="276.9572">
				<stop  offset="0" style="stop-color:#0469BC;stop-opacity:0"/>
				<stop  offset="1" style="stop-color:#0469BC"/>
			</linearGradient>
			<path style="fill:url(#SVGID_9_);" d="M339.098,339.245c3.285,6.557,5.137,13.957,5.137,21.791
				c0,26.903-21.809,48.713-48.713,48.713c-7.833,0-15.233-1.852-21.791-5.137c7.998,15.963,24.505,26.922,43.575,26.922
				c26.903,0,48.712-21.809,48.712-48.712C366.02,363.751,355.061,347.243,339.098,339.245z"/>
		</g>
	</g>
	<g>
		<path style="fill:#555A66;" d="M421.819,383.212h-14.172V117.559c0-3.914,3.173-7.086,7.086-7.086l0,0
			c3.914,0,7.086,3.173,7.086,7.086V383.212z"/>
		<g>
			<linearGradient id="SVGID_10_" gradientUnits="userSpaceOnUse" x1="396.507" y1="364.5943" x2="459.5976" y2="427.6849">
				<stop  offset="0" style="stop-color:#92F37F"/>
				<stop  offset="1" style="stop-color:#4AB272"/>
			</linearGradient>
			<circle style="fill:url(#SVGID_10_);" cx="414.733" cy="382.82" r="48.713"/>
			<linearGradient id="SVGID_11_" gradientUnits="userSpaceOnUse" x1="420.5776" y1="391.1062" x2="390.5216" y2="348.4952">
				<stop  offset="0" style="stop-color:#92F37F;stop-opacity:0"/>
				<stop  offset="1" style="stop-color:#FFEE83"/>
			</linearGradient>
			<circle style="fill:url(#SVGID_11_);" cx="414.733" cy="382.82" r="40.655"/>
			<linearGradient id="SVGID_12_" gradientUnits="userSpaceOnUse" x1="416.4248" y1="401.4893" x2="483.3825" y2="276.9572">
				<stop  offset="0" style="stop-color:#4AB272;stop-opacity:0"/>
				<stop  offset="1" style="stop-color:#009245"/>
			</linearGradient>
			<path style="fill:url(#SVGID_12_);" d="M436.524,339.245c3.285,6.557,5.137,13.957,5.137,21.791
				c0,26.903-21.809,48.713-48.713,48.713c-7.833,0-15.233-1.852-21.791-5.137c7.998,15.963,24.505,26.922,43.575,26.922
				c26.903,0,48.713-21.809,48.713-48.712C463.446,363.751,452.486,347.243,436.524,339.245z"/>
		</g>
	</g>
	<g>
		<g>
			
				<linearGradient id="SVGID_13_" gradientUnits="userSpaceOnUse" x1="348.4813" y1="11.3868" x2="382.938" y2="11.3868" gradientTransform="matrix(0 1 1 0 257.2083 -257.2083)">
				<stop  offset="0" style="stop-color:#F9F7FC"/>
				<stop  offset="1" style="stop-color:#F0DDFC"/>
			</linearGradient>
			<path style="fill:url(#SVGID_13_);" d="M472.171,108.413L472.171,108.413c0-9.842-7.978-17.82-17.82-17.82H65.019v35.64h389.332
				C464.193,126.232,472.171,118.254,472.171,108.413z"/>
			
				<linearGradient id="SVGID_14_" gradientUnits="userSpaceOnUse" x1="315.3937" y1="20.4957" x2="396.4343" y2="4.911" gradientTransform="matrix(0 1 1 0 257.2083 -257.2083)">
				<stop  offset="0" style="stop-color:#FFFFFF"/>
				<stop  offset="1" style="stop-color:#E9EDF5;stop-opacity:0"/>
			</linearGradient>
			<path style="fill:url(#SVGID_14_);" d="M471.247,114.047c-2.36,7.077-9.026,12.186-16.896,12.186H65.019v-24.372h389.332
				C462.222,101.861,468.888,106.969,471.247,114.047z"/>
			
				<linearGradient id="SVGID_15_" gradientUnits="userSpaceOnUse" x1="404.1947" y1="-138.0551" x2="350.4324" y2="-191.8174" gradientTransform="matrix(0 1 1 0 257.2083 -257.2083)">
				<stop  offset="0" style="stop-color:#F0DDFC;stop-opacity:0"/>
				<stop  offset="0.2889" style="stop-color:#C8B7E0;stop-opacity:0.2889"/>
				<stop  offset="0.5915" style="stop-color:#A595C8;stop-opacity:0.5915"/>
				<stop  offset="0.8395" style="stop-color:#8F81B8;stop-opacity:0.8395"/>
				<stop  offset="1" style="stop-color:#8779B3"/>
			</linearGradient>
			<polygon style="fill:url(#SVGID_15_);" points="116.219,126.232 80.579,126.232 80.579,90.593 			"/>
		</g>
		<g>
			<g>
				
					<linearGradient id="SVGID_16_" gradientUnits="userSpaceOnUse" x1="256.4668" y1="-113.3271" x2="295.2505" y2="-74.5433" gradientTransform="matrix(1 0 0 1 -210.5355 210.5355)">
					<stop  offset="0" style="stop-color:#F9F7FC"/>
					<stop  offset="1" style="stop-color:#F0DDFC"/>
				</linearGradient>
				<circle style="fill:url(#SVGID_16_);" cx="57.135" cy="108.412" r="29.945"/>
				
					<linearGradient id="SVGID_17_" gradientUnits="userSpaceOnUse" x1="277.4546" y1="-92.3392" x2="250.3553" y2="-119.4385" gradientTransform="matrix(1 0 0 1 -210.5355 210.5355)">
					<stop  offset="0" style="stop-color:#E9EDF5;stop-opacity:0"/>
					<stop  offset="1" style="stop-color:#FFFFFF"/>
				</linearGradient>
				<circle style="fill:url(#SVGID_17_);" cx="57.135" cy="108.413" r="24.992"/>
				
					<linearGradient id="SVGID_18_" gradientUnits="userSpaceOnUse" x1="268.7108" y1="-90.6465" x2="309.8719" y2="-167.2004" gradientTransform="matrix(1 0 0 1 -210.5355 210.5355)">
					<stop  offset="0" style="stop-color:#F0DDFC;stop-opacity:0"/>
					<stop  offset="0.2889" style="stop-color:#C8B7E0;stop-opacity:0.2889"/>
					<stop  offset="0.5915" style="stop-color:#A595C8;stop-opacity:0.5915"/>
					<stop  offset="0.8395" style="stop-color:#8F81B8;stop-opacity:0.8395"/>
					<stop  offset="1" style="stop-color:#8779B3"/>
				</linearGradient>
				<path style="fill:url(#SVGID_18_);" d="M70.531,81.625c2.02,4.031,3.158,8.58,3.158,13.395
					c0,16.538-13.407,29.945-29.945,29.945c-4.815,0-9.364-1.138-13.395-3.158c4.917,9.813,15.064,16.55,26.787,16.55
					c16.538,0,29.945-13.407,29.945-29.945C87.081,96.69,80.343,86.542,70.531,81.625z"/>
			</g>
			<g>
				
					<linearGradient id="SVGID_19_" gradientUnits="userSpaceOnUse" x1="679.3863" y1="-113.3271" x2="718.17" y2="-74.5433" gradientTransform="matrix(1 0 0 1 -210.5355 210.5355)">
					<stop  offset="0" style="stop-color:#F9F7FC"/>
					<stop  offset="1" style="stop-color:#F0DDFC"/>
				</linearGradient>
				<circle style="fill:url(#SVGID_19_);" cx="480.055" cy="108.412" r="29.945"/>
				
					<linearGradient id="SVGID_20_" gradientUnits="userSpaceOnUse" x1="700.3741" y1="-92.3392" x2="673.2749" y2="-119.4385" gradientTransform="matrix(1 0 0 1 -210.5355 210.5355)">
					<stop  offset="0" style="stop-color:#E9EDF5;stop-opacity:0"/>
					<stop  offset="1" style="stop-color:#FFFFFF"/>
				</linearGradient>
				<circle style="fill:url(#SVGID_20_);" cx="480.055" cy="108.413" r="24.992"/>
				
					<linearGradient id="SVGID_21_" gradientUnits="userSpaceOnUse" x1="691.6303" y1="-90.6465" x2="732.7914" y2="-167.2004" gradientTransform="matrix(1 0 0 1 -210.5355 210.5355)">
					<stop  offset="0" style="stop-color:#F0DDFC;stop-opacity:0"/>
					<stop  offset="0.2889" style="stop-color:#C8B7E0;stop-opacity:0.2889"/>
					<stop  offset="0.5915" style="stop-color:#A595C8;stop-opacity:0.5915"/>
					<stop  offset="0.8395" style="stop-color:#8F81B8;stop-opacity:0.8395"/>
					<stop  offset="1" style="stop-color:#8779B3"/>
				</linearGradient>
				<path style="fill:url(#SVGID_21_);" d="M493.45,81.625c2.02,4.031,3.158,8.58,3.158,13.395
					c0,16.538-13.407,29.945-29.945,29.945c-4.815,0-9.364-1.138-13.395-3.158c4.917,9.813,15.064,16.55,26.787,16.55
					c16.538,0,29.945-13.407,29.945-29.945C510,96.69,503.263,86.542,493.45,81.625z"/>
			</g>
		</g>
	</g>
</g>
<g>
</g>
<g>
</g>
<g>
</g>
<g>
</g>
<g>
</g>
<g>
</g>
<g>
</g>
<g>
</g>
<g>
</g>
<g>
</g>
<g>
</g>
<g>
</g>
<g>
</g>
<g>
</g>
<g>
</g>
</svg>
