<?xml version="1.0" encoding="iso-8859-1"?>
<!-- Generator: Adobe Illustrator 22.0.0, SVG Export Plug-In . SVG Version: 6.00 Build 0)  -->
<svg version="1.1" id="Capa_1" xmlns="http://www.w3.org/2000/svg" xmlns:xlink="http://www.w3.org/1999/xlink" x="0px" y="0px"
	 viewBox="0 0 510 510" style="enable-background:new 0 0 510 510;" xml:space="preserve">
<g>
	<g>
		<g>
			<linearGradient id="SVGID_1_" gradientUnits="userSpaceOnUse" x1="209.5409" y1="422.5541" x2="281.9962" y2="429.4547">
				<stop  offset="0" style="stop-color:#7E8595"/>
				<stop  offset="1" style="stop-color:#555A66"/>
			</linearGradient>
			<path style="fill:url(#SVGID_1_);" d="M276.416,397.541l-4.721-26.864h-33.39l-4.721,26.864
				c-4.987,28.379-20.195,52.955-41.812,67.57h0c-5.651,3.821-3.308,13.827,3.238,13.827h119.979c6.546,0,8.89-10.006,3.238-13.827
				l0,0C296.611,450.496,281.403,425.92,276.416,397.541z"/>
			<linearGradient id="SVGID_2_" gradientUnits="userSpaceOnUse" x1="272.6022" y1="432.1641" x2="155.6022" y2="404.1641">
				<stop  offset="0" style="stop-color:#BEC3D2;stop-opacity:0"/>
				<stop  offset="0.221" style="stop-color:#C5C9D7;stop-opacity:0.221"/>
				<stop  offset="0.5343" style="stop-color:#D7DAE3;stop-opacity:0.5343"/>
				<stop  offset="0.9014" style="stop-color:#F6F6F8;stop-opacity:0.9014"/>
				<stop  offset="1" style="stop-color:#FFFFFF"/>
			</linearGradient>
			<path style="fill:url(#SVGID_2_);" d="M318.228,465.111L318.228,465.111c-21.617-14.616-36.824-39.191-41.812-67.57
				l-4.721-26.864h-15.645l-4.721,26.864c-4.987,28.379-20.195,52.955-41.812,67.57l0,0c-5.651,3.821-3.308,13.827,3.238,13.827
				h102.234C321.536,478.938,323.879,468.932,318.228,465.111z"/>
		</g>
		<linearGradient id="SVGID_3_" gradientUnits="userSpaceOnUse" x1="326.0935" y1="451.8127" x2="222.7602" y2="349.146">
			<stop  offset="0" style="stop-color:#555A66;stop-opacity:0"/>
			<stop  offset="1" style="stop-color:#555A66"/>
		</linearGradient>
		<path style="fill:url(#SVGID_3_);" d="M318.228,465.111L318.228,465.111c-21.617-14.616-36.824-39.192-41.812-67.57l-4.721-26.864
			h-33.39l-3.059,17.408l85.817,85.817C321.956,470.829,321.196,467.118,318.228,465.111z"/>
	</g>
	<g>
		<linearGradient id="SVGID_4_" gradientUnits="userSpaceOnUse" x1="223.8797" y1="130.8416" x2="389.9311" y2="550.9379">
			<stop  offset="0" style="stop-color:#7E8595"/>
			<stop  offset="1" style="stop-color:#555A66"/>
		</linearGradient>
		<path style="fill:url(#SVGID_4_);" d="M494.098,388.085H15.902C7.12,388.085,0,380.965,0,372.183V46.964
			c0-8.783,7.12-15.902,15.902-15.902h478.195c8.783,0,15.902,7.12,15.902,15.902v325.219
			C510,380.965,502.88,388.085,494.098,388.085z"/>
		<linearGradient id="SVGID_5_" gradientUnits="userSpaceOnUse" x1="465" y1="419.5734" x2="-135.9001" y2="-181.3267">
			<stop  offset="0" style="stop-color:#7E8595"/>
			<stop  offset="1" style="stop-color:#555A66"/>
		</linearGradient>
		<path style="fill:url(#SVGID_5_);" d="M486.067,380.027H23.933c-8.435,0-15.273-6.838-15.273-15.273V54.393
			c0-8.435,6.838-15.273,15.273-15.273h462.133c8.435,0,15.273,6.838,15.273,15.273v310.36
			C501.34,373.189,494.502,380.027,486.067,380.027z"/>
		<g>
			<linearGradient id="SVGID_6_" gradientUnits="userSpaceOnUse" x1="227.546" y1="140.1171" x2="374.0347" y2="510.7212">
				<stop  offset="0" style="stop-color:#18CFFC"/>
				<stop  offset="1" style="stop-color:#4A98F7"/>
			</linearGradient>
			<path style="fill:url(#SVGID_6_);" d="M472.591,364.515H37.41c-7.061,0-12.785-5.724-12.785-12.785V67.417
				c0-7.061,5.724-12.786,12.785-12.786h435.181c7.061,0,12.785,5.724,12.785,12.786V351.73
				C485.376,358.791,479.652,364.515,472.591,364.515z"/>
			<g>
				<linearGradient id="SVGID_7_" gradientUnits="userSpaceOnUse" x1="53" y1="209.5735" x2="12.9875" y2="209.5735">
					<stop  offset="0" style="stop-color:#0469BC;stop-opacity:0"/>
					<stop  offset="1" style="stop-color:#0469BC"/>
				</linearGradient>
				<path style="fill:url(#SVGID_7_);" d="M66,54.632H37.41c-7.061,0-12.785,5.724-12.785,12.786V351.73
					c0,7.061,5.724,12.785,12.785,12.785H66V54.632z"/>
				<linearGradient id="SVGID_8_" gradientUnits="userSpaceOnUse" x1="255" y1="84.5735" x2="255" y2="42.277">
					<stop  offset="0" style="stop-color:#0469BC;stop-opacity:0"/>
					<stop  offset="1" style="stop-color:#0469BC"/>
				</linearGradient>
				<path style="fill:url(#SVGID_8_);" d="M472.59,54.632H37.41c-7.061,0-12.785,5.724-12.785,12.786v23.156h460.752V67.417
					C485.376,60.356,479.652,54.632,472.59,54.632z"/>
			</g>
		</g>
		<linearGradient id="SVGID_9_" gradientUnits="userSpaceOnUse" x1="322.4054" y1="354.5698" x2="50.9016" y2="-229.4648">
			<stop  offset="0" style="stop-color:#18CFFC;stop-opacity:0"/>
			<stop  offset="1" style="stop-color:#65E1DC"/>
		</linearGradient>
		<path style="fill:url(#SVGID_9_);" d="M458.022,349.616H51.978c-6.436,0-11.654-5.218-11.654-11.654V81.184
			c0-6.436,5.218-11.654,11.654-11.654h406.044c6.436,0,11.654,5.218,11.654,11.654v256.778
			C469.676,344.399,464.458,349.616,458.022,349.616z"/>
		<g>
			<linearGradient id="SVGID_10_" gradientUnits="userSpaceOnUse" x1="345.7818" y1="298.073" x2="421.1048" y2="298.073">
				<stop  offset="0" style="stop-color:#F9F7FC"/>
				<stop  offset="1" style="stop-color:#F0DDFC"/>
			</linearGradient>
			<path style="fill:url(#SVGID_10_);" d="M417.235,306.823h-67.584c-2.137,0-3.87-1.732-3.87-3.87v-9.76
				c0-2.137,1.732-3.87,3.87-3.87h67.584c2.137,0,3.87,1.732,3.87,3.87v9.76C421.105,305.09,419.372,306.823,417.235,306.823z"/>
			<linearGradient id="SVGID_11_" gradientUnits="userSpaceOnUse" x1="436.5213" y1="298.073" x2="458.0074" y2="298.073">
				<stop  offset="0" style="stop-color:#F9F7FC"/>
				<stop  offset="1" style="stop-color:#F0DDFC"/>
			</linearGradient>
			<path style="fill:url(#SVGID_11_);" d="M454.138,306.823h-13.747c-2.137,0-3.87-1.732-3.87-3.87v-9.76
				c0-2.137,1.732-3.87,3.87-3.87h13.747c2.137,0,3.87,1.732,3.87,3.87v9.76C458.007,305.09,456.275,306.823,454.138,306.823z"/>
			<linearGradient id="SVGID_12_" gradientUnits="userSpaceOnUse" x1="345.7818" y1="325.6728" x2="396.7044" y2="325.6728">
				<stop  offset="0" style="stop-color:#F9F7FC"/>
				<stop  offset="1" style="stop-color:#F0DDFC"/>
			</linearGradient>
			<path style="fill:url(#SVGID_12_);" d="M392.835,334.422h-43.183c-2.137,0-3.87-1.732-3.87-3.87v-9.76
				c0-2.137,1.732-3.87,3.87-3.87h43.183c2.137,0,3.87,1.732,3.87,3.87v9.76C396.704,332.69,394.972,334.422,392.835,334.422z"/>
			<linearGradient id="SVGID_13_" gradientUnits="userSpaceOnUse" x1="411.6653" y1="325.6728" x2="458.0074" y2="325.6728">
				<stop  offset="0" style="stop-color:#F9F7FC"/>
				<stop  offset="1" style="stop-color:#F0DDFC"/>
			</linearGradient>
			<path style="fill:url(#SVGID_13_);" d="M454.138,334.422h-38.603c-2.137,0-3.87-1.732-3.87-3.87v-9.76
				c0-2.137,1.732-3.87,3.87-3.87h38.603c2.137,0,3.87,1.732,3.87,3.87v9.76C458.007,332.69,456.275,334.422,454.138,334.422z"/>
		</g>
		<linearGradient id="SVGID_14_" gradientUnits="userSpaceOnUse" x1="80" y1="146.2292" x2="345.7818" y2="146.2292">
			<stop  offset="0" style="stop-color:#F9F7FC"/>
			<stop  offset="1" style="stop-color:#F0DDFC"/>
		</linearGradient>
		<path style="opacity:0.7;fill:url(#SVGID_14_);" d="M336.431,183.845H89.35c-5.164,0-9.35-4.186-9.35-9.35v-56.53
			c0-5.164,4.186-9.35,9.35-9.35h247.081c5.164,0,9.35,4.186,9.35,9.35v56.53C345.782,179.658,341.596,183.845,336.431,183.845z"/>
		<linearGradient id="SVGID_15_" gradientUnits="userSpaceOnUse" x1="194.5403" y1="214.3048" x2="330.6914" y2="214.3048">
			<stop  offset="0" style="stop-color:#92F37F"/>
			<stop  offset="1" style="stop-color:#4AB272"/>
		</linearGradient>
		<path style="opacity:0.7;fill:url(#SVGID_15_);" d="M324.008,282.38H201.224c-3.691,0-6.684-2.992-6.684-6.684V152.913
			c0-3.691,2.992-6.684,6.684-6.684h122.783c3.691,0,6.684,2.992,6.684,6.684v122.783
			C330.691,279.388,327.699,282.38,324.008,282.38z"/>
		<linearGradient id="SVGID_16_" gradientUnits="userSpaceOnUse" x1="80" y1="313.4991" x2="190.2293" y2="313.4991">
			<stop  offset="0" style="stop-color:#FFDA45"/>
			<stop  offset="1" style="stop-color:#FFA425"/>
		</linearGradient>
		<path style="fill:url(#SVGID_16_);" d="M180.975,337.675h-91.72c-5.111,0-9.255-4.143-9.255-9.255v-29.842
			c0-5.111,4.143-9.255,9.255-9.255h91.72c5.111,0,9.255,4.143,9.255,9.255v29.842C190.229,333.531,186.086,337.675,180.975,337.675
			z"/>
	</g>
	<linearGradient id="SVGID_17_" gradientUnits="userSpaceOnUse" x1="255" y1="467.7284" x2="255" y2="476.3951">
		<stop  offset="0" style="stop-color:#7E8595"/>
		<stop  offset="1" style="stop-color:#555A66"/>
	</linearGradient>
	<path style="fill:url(#SVGID_17_);" d="M325.688,478.938H184.312c-4.384,0-7.938-3.554-7.938-7.938l0,0
		c0-4.384,3.554-7.938,7.938-7.938h141.376c4.384,0,7.938,3.554,7.938,7.938l0,0C333.626,475.384,330.072,478.938,325.688,478.938z"
		/>
</g>
<g>
</g>
<g>
</g>
<g>
</g>
<g>
</g>
<g>
</g>
<g>
</g>
<g>
</g>
<g>
</g>
<g>
</g>
<g>
</g>
<g>
</g>
<g>
</g>
<g>
</g>
<g>
</g>
<g>
</g>
</svg>
