<?xml version="1.0" encoding="iso-8859-1"?>
<!-- Generator: Adobe Illustrator 22.0.0, SVG Export Plug-In . SVG Version: 6.00 Build 0)  -->
<svg version="1.1" id="Capa_1" xmlns="http://www.w3.org/2000/svg" xmlns:xlink="http://www.w3.org/1999/xlink" x="0px" y="0px"
	 viewBox="0 0 510 510" style="enable-background:new 0 0 510 510;" xml:space="preserve">
<g>
	<g>
		<g>
			<path style="fill:#555A66;" d="M44.312,169.577H27.476v-37.353c0-15.711,12.782-28.493,28.493-28.493h28.003v16.837H55.969
				c-6.428,0-11.657,5.229-11.657,11.657V169.577z"/>
			<g>
				<linearGradient id="SVGID_1_" gradientUnits="userSpaceOnUse" x1="12.9628" y1="157.5793" x2="64.5946" y2="264.21">
					<stop  offset="0" style="stop-color:#7E8595"/>
					<stop  offset="1" style="stop-color:#555A66"/>
				</linearGradient>
				<path style="fill:url(#SVGID_1_);" d="M48.846,246.467H22.942c-4.935,0-8.936-4.001-8.936-8.936v-65.189
					c0-4.935,4.001-8.936,8.936-8.936h25.904c4.935,0,8.936,4.001,8.936,8.936v65.189C57.781,242.466,53.781,246.467,48.846,246.467
					z"/>
				<linearGradient id="SVGID_2_" gradientUnits="userSpaceOnUse" x1="33.4233" y1="201.5928" x2="-26.0654" y2="132.7506">
					<stop  offset="0" style="stop-color:#BEC3D2;stop-opacity:0"/>
					<stop  offset="0.5577" style="stop-color:#D4D9E4;stop-opacity:0.5577"/>
					<stop  offset="1" style="stop-color:#E9EDF5"/>
				</linearGradient>
				<path style="fill:url(#SVGID_2_);" d="M29.112,169.577c-4.935,0-8.936,4.001-8.936,8.936v65.189
					c0,0.841,0.124,1.652,0.342,2.424c0.772,0.217,1.582,0.342,2.424,0.342h25.904c4.935,0,8.936-4.001,8.936-8.936v-65.189
					c0-0.841-0.124-1.652-0.342-2.424c-0.772-0.217-1.583-0.342-2.424-0.342H29.112z"/>
			</g>
		</g>
		<g>
			<path style="fill:#555A66;" d="M465.688,169.577h16.837v-37.353c0-15.711-12.782-28.493-28.493-28.493h-28.003v16.837h28.003
				c6.428,0,11.657,5.229,11.657,11.657V169.577z"/>
			<g>
				
					<linearGradient id="SVGID_3_" gradientUnits="userSpaceOnUse" x1="433.0009" y1="157.5793" x2="484.6327" y2="264.2101" gradientTransform="matrix(1 0 0 1 18.1742 0)">
					<stop  offset="0" style="stop-color:#7E8595"/>
					<stop  offset="1" style="stop-color:#555A66"/>
				</linearGradient>
				<path style="fill:url(#SVGID_3_);" d="M487.058,246.467h-25.904c-4.935,0-8.936-4.001-8.936-8.936v-65.189
					c0-4.935,4.001-8.936,8.936-8.936h25.904c4.935,0,8.936,4.001,8.936,8.936v65.189
					C495.994,242.466,491.993,246.467,487.058,246.467z"/>
				
					<linearGradient id="SVGID_4_" gradientUnits="userSpaceOnUse" x1="453.4615" y1="201.5928" x2="393.9728" y2="132.7505" gradientTransform="matrix(1 0 0 1 18.1742 0)">
					<stop  offset="0" style="stop-color:#BEC3D2;stop-opacity:0"/>
					<stop  offset="0.5577" style="stop-color:#D4D9E4;stop-opacity:0.5577"/>
					<stop  offset="1" style="stop-color:#E9EDF5"/>
				</linearGradient>
				<path style="fill:url(#SVGID_4_);" d="M467.325,169.577c-4.935,0-8.936,4.001-8.936,8.936v65.189
					c0,0.841,0.124,1.652,0.342,2.424c0.772,0.217,1.582,0.342,2.424,0.342h25.904c4.935,0,8.936-4.001,8.936-8.936v-65.189
					c0-0.841-0.124-1.652-0.342-2.424c-0.772-0.217-1.582-0.342-2.424-0.342H467.325z"/>
			</g>
		</g>
	</g>
	<linearGradient id="SVGID_5_" gradientUnits="userSpaceOnUse" x1="252.7538" y1="158.4124" x2="259.209" y2="336.5773">
		<stop  offset="0" style="stop-color:#FFDA45"/>
		<stop  offset="1" style="stop-color:#FFA425"/>
	</linearGradient>
	<path style="fill:url(#SVGID_5_);" d="M426.704,376.657H83.296c-8.555,0-15.49-6.935-15.49-15.49V80.375
		c0-22.821,13.976-43.313,35.222-51.644l0,0c97.694-38.308,206.252-38.308,303.946,0l0,0c21.246,8.331,35.221,28.823,35.221,51.644
		v280.791C442.195,369.721,435.259,376.657,426.704,376.657z"/>
	<linearGradient id="SVGID_6_" gradientUnits="userSpaceOnUse" x1="303.9761" y1="170.2495" x2="-84.1573" y2="-240.6323">
		<stop  offset="0" style="stop-color:#FFDA45;stop-opacity:0"/>
		<stop  offset="1" style="stop-color:#B53759"/>
	</linearGradient>
	<path style="fill:url(#SVGID_6_);" d="M406.973,28.731L406.973,28.731C358.126,9.577,306.563,0,255,0v376.657h171.704
		c8.555,0,15.49-6.935,15.49-15.49V80.375C442.195,57.554,428.219,37.062,406.973,28.731z"/>
	<linearGradient id="SVGID_7_" gradientUnits="userSpaceOnUse" x1="249.5687" y1="204.1919" x2="85.6766" y2="-99.1605">
		<stop  offset="0" style="stop-color:#FFDA45;stop-opacity:0"/>
		<stop  offset="1" style="stop-color:#FCEE21"/>
	</linearGradient>
	<path style="fill:url(#SVGID_7_);" d="M417.468,366.526H92.532c-8.095,0-14.657-6.562-14.657-14.657V86.182
		c0-21.593,13.224-40.983,33.327-48.866h0c92.439-36.248,195.157-36.248,287.596,0h0c20.103,7.883,33.327,27.273,33.327,48.866
		v265.687C432.125,359.964,425.563,366.526,417.468,366.526z"/>
	<linearGradient id="SVGID_8_" gradientUnits="userSpaceOnUse" x1="255" y1="69.903" x2="255" y2="-50.5655">
		<stop  offset="0" style="stop-color:#FFDA45"/>
		<stop  offset="1" style="stop-color:#FFA425"/>
	</linearGradient>
	<path style="fill:url(#SVGID_8_);" d="M355.24,70.6H154.761c-4.086,0-7.398-3.312-7.398-7.398V38.193
		c0-4.086,3.312-7.398,7.398-7.398H355.24c4.086,0,7.398,3.312,7.398,7.398v25.008C362.638,67.287,359.326,70.6,355.24,70.6z"/>
	<linearGradient id="SVGID_9_" gradientUnits="userSpaceOnUse" x1="285.3574" y1="100.8671" x2="267.543" y2="0.0888">
		<stop  offset="0" style="stop-color:#FFDA45;stop-opacity:0"/>
		<stop  offset="1" style="stop-color:#B53759"/>
	</linearGradient>
	<path style="fill:url(#SVGID_9_);" d="M355.269,39.312c-0.256-0.668-0.898-1.145-1.656-1.145H156.387
		c-0.982,0-1.777,0.796-1.777,1.777V61.45c0,0.758,0.477,1.401,1.145,1.656l51.183,51.182c0.256,0.668,0.898,1.145,1.656,1.145
		h197.226c0.982,0,1.777-0.796,1.777-1.778V92.151c0-0.758-0.477-1.401-1.145-1.656L355.269,39.312z"/>
	<linearGradient id="SVGID_10_" gradientUnits="userSpaceOnUse" x1="250.4306" y1="30.8967" x2="264.1724" y2="90.4445">
		<stop  offset="0" style="stop-color:#F9F7FC"/>
		<stop  offset="1" style="stop-color:#F0DDFC"/>
	</linearGradient>
	<path style="fill:url(#SVGID_10_);" d="M353.613,63.227H156.387c-0.982,0-1.777-0.796-1.777-1.777V39.945
		c0-0.982,0.796-1.777,1.777-1.777h197.226c0.982,0,1.777,0.796,1.777,1.777V61.45C355.39,62.432,354.595,63.227,353.613,63.227z"/>
	<linearGradient id="SVGID_11_" gradientUnits="userSpaceOnUse" x1="273.597" y1="94.5862" x2="188.7666" y2="-105.6134">
		<stop  offset="0" style="stop-color:#F0DDFC;stop-opacity:0"/>
		<stop  offset="0.2889" style="stop-color:#C8B7E0;stop-opacity:0.2889"/>
		<stop  offset="0.5915" style="stop-color:#A595C8;stop-opacity:0.5915"/>
		<stop  offset="0.8395" style="stop-color:#8F81B8;stop-opacity:0.8395"/>
		<stop  offset="1" style="stop-color:#8779B3"/>
	</linearGradient>
	<path style="fill:url(#SVGID_11_);" d="M159.91,45.245c0-0.982,0.796-1.777,1.778-1.777H355.39v-3.523
		c0-0.982-0.796-1.777-1.777-1.777H156.387c-0.982,0-1.777,0.796-1.777,1.777V61.45c0,0.982,0.796,1.777,1.777,1.777h3.523V45.245z"
		/>
	<g>
		
			<linearGradient id="SVGID_12_" gradientUnits="userSpaceOnUse" x1="255" y1="375.2227" x2="255" y2="403.993" gradientTransform="matrix(-1 0 0 -1 510 781.1445)">
			<stop  offset="0" style="stop-color:#7E8595"/>
			<stop  offset="1" style="stop-color:#555A66"/>
		</linearGradient>
		<path style="fill:url(#SVGID_12_);" d="M168.603,390.769h172.794c2.48,0,4.49,2.01,4.49,4.49l0,0c0,2.48-2.01,4.49-4.49,4.49
			H168.603c-2.48,0-4.49-2.01-4.49-4.49l0,0C164.113,392.779,166.124,390.769,168.603,390.769z"/>
		
			<linearGradient id="SVGID_13_" gradientUnits="userSpaceOnUse" x1="255" y1="387.6242" x2="255" y2="416.3942" gradientTransform="matrix(-1 0 0 -1 510 781.1445)">
			<stop  offset="0" style="stop-color:#7E8595"/>
			<stop  offset="1" style="stop-color:#555A66"/>
		</linearGradient>
		<path style="fill:url(#SVGID_13_);" d="M168.603,378.368h172.794c2.48,0,4.49,2.01,4.49,4.49l0,0c0,2.48-2.01,4.49-4.49,4.49
			H168.603c-2.48,0-4.49-2.01-4.49-4.49l0,0C164.113,380.378,166.124,378.368,168.603,378.368z"/>
		
			<linearGradient id="SVGID_14_" gradientUnits="userSpaceOnUse" x1="255" y1="400.0255" x2="255" y2="428.7955" gradientTransform="matrix(-1 0 0 -1 510 781.1445)">
			<stop  offset="0" style="stop-color:#7E8595"/>
			<stop  offset="1" style="stop-color:#555A66"/>
		</linearGradient>
		<path style="fill:url(#SVGID_14_);" d="M168.603,365.966h172.794c2.48,0,4.49,2.01,4.49,4.49l0,0c0,2.48-2.01,4.49-4.49,4.49
			H168.603c-2.48,0-4.49-2.01-4.49-4.49l0,0C164.113,367.976,166.124,365.966,168.603,365.966z"/>
		
			<linearGradient id="SVGID_15_" gradientUnits="userSpaceOnUse" x1="255" y1="412.4268" x2="255" y2="441.1968" gradientTransform="matrix(-1 0 0 -1 510 781.1445)">
			<stop  offset="0" style="stop-color:#7E8595"/>
			<stop  offset="1" style="stop-color:#555A66"/>
		</linearGradient>
		<path style="fill:url(#SVGID_15_);" d="M168.603,353.565h172.794c2.48,0,4.49,2.01,4.49,4.49l0,0c0,2.48-2.01,4.49-4.49,4.49
			H168.603c-2.48,0-4.49-2.01-4.49-4.49l0,0C164.113,355.575,166.124,353.565,168.603,353.565z"/>
	</g>
	<g>
		<linearGradient id="SVGID_16_" gradientUnits="userSpaceOnUse" x1="255" y1="407.8167" x2="255" y2="277.8721">
			<stop  offset="0" style="stop-color:#FFDA45"/>
			<stop  offset="1" style="stop-color:#FFA425"/>
		</linearGradient>
		<path style="fill:url(#SVGID_16_);" d="M448.267,425.36H61.733c-7.296,0-13.21-5.914-13.21-13.21v-98.045
			c0-10.775,7.587-20.061,18.147-22.208l2.859-0.581c123.378-25.086,250.561-24.903,373.866,0.54l0,0
			c10.529,2.173,18.082,11.444,18.082,22.194v98.099C461.478,419.446,455.563,425.36,448.267,425.36z"/>
		<linearGradient id="SVGID_17_" gradientUnits="userSpaceOnUse" x1="248.3467" y1="280.3145" x2="265.2012" y2="377.4761">
			<stop  offset="0" style="stop-color:#FFDA45"/>
			<stop  offset="1" style="stop-color:#FFA425"/>
		</linearGradient>
		<path style="fill:url(#SVGID_17_);" d="M461.478,325.249v-11.199c0-10.751-7.553-20.022-18.082-22.194l0,0
			c-123.305-25.443-250.488-25.626-373.866-0.54l-2.86,0.581c-10.559,2.147-18.147,11.432-18.147,22.208v11.144H461.478z"/>
		<linearGradient id="SVGID_18_" gradientUnits="userSpaceOnUse" x1="231.2514" y1="325.247" x2="176.3391" y2="228.3879">
			<stop  offset="0" style="stop-color:#FFDA45;stop-opacity:0"/>
			<stop  offset="1" style="stop-color:#FCEE21"/>
		</linearGradient>
		<path style="fill:url(#SVGID_18_);" d="M437.606,425.36H72.394c-6.894,0-12.482-5.425-12.482-12.118v-89.936
			c0-9.884,7.169-18.402,17.146-20.371l2.702-0.533c116.573-23.012,236.74-22.843,353.244,0.495l0,0
			c9.948,1.993,17.085,10.497,17.085,20.359v89.986C450.088,419.935,444.5,425.36,437.606,425.36z"/>
		<linearGradient id="SVGID_19_" gradientUnits="userSpaceOnUse" x1="330.9351" y1="337.097" x2="147.0287" y2="148.5147">
			<stop  offset="0" style="stop-color:#FFDA45;stop-opacity:0"/>
			<stop  offset="1" style="stop-color:#B53759"/>
		</linearGradient>
		<path style="fill:url(#SVGID_19_);" d="M443.395,291.856L443.395,291.856C381.254,279.034,318.128,272.635,255,272.645V425.36
			h193.267c7.296,0,13.21-5.914,13.21-13.21v-98.099C461.478,303.3,453.924,294.029,443.395,291.856z"/>
	</g>
	<linearGradient id="SVGID_20_" gradientUnits="userSpaceOnUse" x1="192.3559" y1="441.1836" x2="88.596" y2="348.0659">
		<stop  offset="0" style="stop-color:#FFDA45;stop-opacity:0"/>
		<stop  offset="0.5194" style="stop-color:#D9874F;stop-opacity:0.5194"/>
		<stop  offset="1" style="stop-color:#B53759"/>
	</linearGradient>
	<path style="fill:url(#SVGID_20_);" d="M227.178,425.357H111.621l-32.39-32.39c-8.314-7.49-13.541-18.335-13.541-30.404
		c0-22.595,18.315-40.91,40.91-40.91c12.069,0,22.914,5.227,30.404,13.54L227.178,425.357z"/>
	<linearGradient id="SVGID_21_" gradientUnits="userSpaceOnUse" x1="463.445" y1="425.9858" x2="399.5927" y2="357.4777">
		<stop  offset="0" style="stop-color:#FFDA45;stop-opacity:0"/>
		<stop  offset="0.5194" style="stop-color:#D9874F;stop-opacity:0.5194"/>
		<stop  offset="1" style="stop-color:#B53759"/>
	</linearGradient>
	<path style="fill:url(#SVGID_21_);" d="M461.482,362.871v49.275c0,7.305-5.916,13.211-13.211,13.211h-39.86l-32.39-32.39
		c-8.314-7.49-13.54-18.335-13.54-30.404c0-22.595,18.325-40.91,40.92-40.91c12.069,0,22.914,5.227,30.404,13.54L461.482,362.871z"
		/>
	<g>
		<g>
			<linearGradient id="SVGID_22_" gradientUnits="userSpaceOnUse" x1="127.5033" y1="476.0204" x2="180.2206" y2="528.7377">
				<stop  offset="0" style="stop-color:#7E8595"/>
				<stop  offset="1" style="stop-color:#555A66"/>
			</linearGradient>
			<path style="fill:url(#SVGID_22_);" d="M156.481,510H85.923c-8.856,0-16.035-7.179-16.035-16.035v-55.134h102.628v55.134
				C172.516,502.821,165.337,510,156.481,510z"/>
			<linearGradient id="SVGID_23_" gradientUnits="userSpaceOnUse" x1="128.4402" y1="491.5763" x2="111.9778" y2="404.4008">
				<stop  offset="0" style="stop-color:#555A66;stop-opacity:0"/>
				<stop  offset="1" style="stop-color:#555A66"/>
			</linearGradient>
			<path style="fill:url(#SVGID_23_);" d="M69.888,438.831v28.833l0.052-0.025L112.302,510h44.179
				c8.856,0,16.035-7.179,16.035-16.035v-55.134H69.888z"/>
			<linearGradient id="SVGID_24_" gradientUnits="userSpaceOnUse" x1="146.859" y1="481.5229" x2="146.859" y2="546.9713">
				<stop  offset="0" style="stop-color:#555A66;stop-opacity:0"/>
				<stop  offset="1" style="stop-color:#555A66"/>
			</linearGradient>
			<path style="fill:url(#SVGID_24_);" d="M121.202,510h35.279c8.856,0,16.035-7.179,16.035-16.035v-55.134h-51.314V510z"/>
		</g>
		<g>
			<linearGradient id="SVGID_25_" gradientUnits="userSpaceOnUse" x1="395.099" y1="476.0204" x2="447.8164" y2="528.7377">
				<stop  offset="0" style="stop-color:#7E8595"/>
				<stop  offset="1" style="stop-color:#555A66"/>
			</linearGradient>
			<path style="fill:url(#SVGID_25_);" d="M424.077,510h-70.558c-8.856,0-16.035-7.179-16.035-16.035v-55.134h102.628v55.134
				C440.112,502.821,432.933,510,424.077,510z"/>
			<linearGradient id="SVGID_26_" gradientUnits="userSpaceOnUse" x1="396.0359" y1="491.5763" x2="379.5735" y2="404.4008">
				<stop  offset="0" style="stop-color:#555A66;stop-opacity:0"/>
				<stop  offset="1" style="stop-color:#555A66"/>
			</linearGradient>
			<path style="fill:url(#SVGID_26_);" d="M337.484,438.831v28.833l0.052-0.025L379.898,510h44.179
				c8.856,0,16.035-7.179,16.035-16.035v-55.134H337.484z"/>
			<linearGradient id="SVGID_27_" gradientUnits="userSpaceOnUse" x1="414.4548" y1="481.5229" x2="414.4548" y2="546.9713">
				<stop  offset="0" style="stop-color:#555A66;stop-opacity:0"/>
				<stop  offset="1" style="stop-color:#555A66"/>
			</linearGradient>
			<path style="fill:url(#SVGID_27_);" d="M388.798,510h35.279c8.856,0,16.035-7.179,16.035-16.035v-55.134h-51.314V510z"/>
		</g>
	</g>
	<linearGradient id="SVGID_28_" gradientUnits="userSpaceOnUse" x1="326.8447" y1="384.0065" x2="22.1781" y2="296.3218">
		<stop  offset="0" style="stop-color:#FFDA45"/>
		<stop  offset="1" style="stop-color:#FFA425"/>
	</linearGradient>
	<path style="fill:url(#SVGID_28_);" d="M335.869,425.36H174.131c-3.053,0-5.528-5.425-5.528-12.118v-89.936
		c0-9.884,3.175-18.402,7.593-20.371l1.197-0.533c51.625-23.012,104.843-22.843,156.438,0.495h0
		c4.406,1.993,7.566,10.497,7.566,20.359v89.986C341.397,419.935,338.922,425.36,335.869,425.36z"/>
	<linearGradient id="SVGID_29_" gradientUnits="userSpaceOnUse" x1="255" y1="426.8987" x2="255" y2="483.2745">
		<stop  offset="0" style="stop-color:#BEC3D2"/>
		<stop  offset="0.97" style="stop-color:#808797"/>
		<stop  offset="1" style="stop-color:#7E8595"/>
	</linearGradient>
	<path style="fill:url(#SVGID_29_);" d="M462.399,467.639H47.601c-6.329,0-11.46-5.131-11.46-11.46v-34.694
		c0-6.329,5.131-11.46,11.46-11.46h414.799c6.329,0,11.46,5.131,11.46,11.46v34.694C473.86,462.508,468.729,467.639,462.399,467.639
		z"/>
	<g>
		<linearGradient id="SVGID_30_" gradientUnits="userSpaceOnUse" x1="548.3296" y1="308.3005" x2="-367.9936" y2="-122.8241">
			<stop  offset="0" style="stop-color:#FFDA45;stop-opacity:0"/>
			<stop  offset="1" style="stop-color:#B53759"/>
		</linearGradient>
		<path style="fill:url(#SVGID_30_);" d="M419.775,261.914H90.225c-3.271,0-5.923-2.652-5.923-5.923V84.59
			c0-3.271,2.652-5.923,5.923-5.923h329.551c3.271,0,5.923,2.652,5.923,5.923v171.402
			C425.698,259.263,423.046,261.914,419.775,261.914z"/>
		<linearGradient id="SVGID_31_" gradientUnits="userSpaceOnUse" x1="135.8327" y1="135.7524" x2="265.8199" y2="265.7396">
			<stop  offset="0" style="stop-color:#7E8595"/>
			<stop  offset="1" style="stop-color:#555A66"/>
		</linearGradient>
		<path style="fill:url(#SVGID_31_);" d="M98.073,86.49h146.905v162.122c0,3.027-2.454,5.481-5.481,5.481H98.073
			c-3.077,0-5.571-2.494-5.571-5.571V92.061C92.502,88.984,94.996,86.49,98.073,86.49z"/>
		<linearGradient id="SVGID_32_" gradientUnits="userSpaceOnUse" x1="306.4172" y1="135.3391" x2="437.7352" y2="266.6571">
			<stop  offset="0" style="stop-color:#7E8595"/>
			<stop  offset="1" style="stop-color:#555A66"/>
		</linearGradient>
		<path style="fill:url(#SVGID_32_);" d="M417.498,92.061v156.461c0,3.077-2.494,5.571-5.571,5.571H270.966
			c-3.283,0-5.944-2.661-5.944-5.944V86.49h146.905C415.004,86.49,417.498,88.984,417.498,92.061z"/>
		<linearGradient id="SVGID_33_" gradientUnits="userSpaceOnUse" x1="192.482" y1="199.1236" x2="-10.5743" y2="-212.8459">
			<stop  offset="0" style="stop-color:#BEC3D2;stop-opacity:0"/>
			<stop  offset="0.5577" style="stop-color:#D4D9E4;stop-opacity:0.5577"/>
			<stop  offset="1" style="stop-color:#E9EDF5"/>
		</linearGradient>
		<path style="fill:url(#SVGID_33_);" d="M120.646,101.505h124.332v137.574H120.646c-8.062,0-14.594-6.532-14.594-14.594V116.09
			C106.051,108.037,112.583,101.505,120.646,101.505z"/>
		<linearGradient id="SVGID_34_" gradientUnits="userSpaceOnUse" x1="344.8325" y1="196.8742" x2="141.7764" y2="-215.0947">
			<stop  offset="0" style="stop-color:#BEC3D2;stop-opacity:0"/>
			<stop  offset="0.5577" style="stop-color:#D4D9E4;stop-opacity:0.5577"/>
			<stop  offset="1" style="stop-color:#E9EDF5"/>
		</linearGradient>
		<path style="fill:url(#SVGID_34_);" d="M403.949,116.09v108.394c0,8.062-6.532,14.594-14.594,14.594H265.022V101.505h124.332
			C397.417,101.505,403.949,108.037,403.949,116.09z"/>
		<linearGradient id="SVGID_35_" gradientUnits="userSpaceOnUse" x1="290.9085" y1="185.9626" x2="131.938" y2="26.9921">
			<stop  offset="0" style="stop-color:#555A66;stop-opacity:0"/>
			<stop  offset="1" style="stop-color:#555A66"/>
		</linearGradient>
		<path style="fill:url(#SVGID_35_);" d="M264.383,78.935c-2.209-2.741-5.589-4.497-9.383-4.497
			c-6.656,0-12.051,5.395-12.051,12.051c0,1.113,0.163,2.186,0.446,3.21l-60.708,60.708c-2.191,2.191-2.191,5.744,0,7.936l0,0
			l93.301,93.301c2.191,2.191,5.744,2.191,7.936,0l60.465-60.465c1.228,0.422,2.541,0.662,3.912,0.662
			c6.655,0,12.051-5.395,12.051-12.051c0-3.794-1.757-7.174-4.497-9.383L264.383,78.935z"/>
		<g>
			<linearGradient id="SVGID_36_" gradientUnits="userSpaceOnUse" x1="213.6615" y1="113.8065" x2="225.6571" y2="125.8021">
				<stop  offset="0" style="stop-color:#7E8595"/>
				<stop  offset="1" style="stop-color:#555A66"/>
			</linearGradient>
			<path style="fill:url(#SVGID_36_);" d="M182.687,158.342L182.687,158.342c-2.191-2.191-2.191-5.744,0-7.936l67.574-67.574
				c2.191-2.191,5.744-2.191,7.936,0l0,0c2.191,2.191,2.191,5.744,0,7.936l-67.574,67.574
				C188.432,160.533,184.879,160.533,182.687,158.342z"/>
			<linearGradient id="SVGID_37_" gradientUnits="userSpaceOnUse" x1="251.346" y1="82.8342" x2="271.4576" y2="102.9459">
				<stop  offset="0" style="stop-color:#FFDA45"/>
				<stop  offset="1" style="stop-color:#FFA425"/>
			</linearGradient>
			<circle style="fill:url(#SVGID_37_);" cx="255" cy="86.488" r="12.051"/>
		</g>
	</g>
	<g>
		<g>
			<linearGradient id="SVGID_38_" gradientUnits="userSpaceOnUse" x1="255" y1="333.693" x2="255" y2="304.597">
				<stop  offset="0" style="stop-color:#FFDA45"/>
				<stop  offset="1" style="stop-color:#FFA425"/>
			</linearGradient>
			<path style="fill:url(#SVGID_38_);" d="M313.145,330.758h-116.29c-5.01,0-9.072-4.062-9.072-9.072v-0.153
				c0-5.01,4.062-9.072,9.072-9.072h116.29c5.01,0,9.072,4.062,9.072,9.072v0.153C322.217,326.696,318.155,330.758,313.145,330.758z
				"/>
			<linearGradient id="SVGID_39_" gradientUnits="userSpaceOnUse" x1="255" y1="315.6386" x2="255" y2="328.2871">
				<stop  offset="0" style="stop-color:#7E8595"/>
				<stop  offset="1" style="stop-color:#555A66"/>
			</linearGradient>
			<path style="fill:url(#SVGID_39_);" d="M313.712,326.636H196.289c-2.701,0-4.89-2.189-4.89-4.89v-0.274
				c0-2.701,2.189-4.89,4.89-4.89h117.423c2.701,0,4.89,2.189,4.89,4.89v0.274C318.601,324.447,316.412,326.636,313.712,326.636z"/>
		</g>
		<g>
			<linearGradient id="SVGID_40_" gradientUnits="userSpaceOnUse" x1="255" y1="356.163" x2="255" y2="327.0668">
				<stop  offset="0" style="stop-color:#FFDA45"/>
				<stop  offset="1" style="stop-color:#FFA425"/>
			</linearGradient>
			<path style="fill:url(#SVGID_40_);" d="M313.145,353.228h-116.29c-5.01,0-9.072-4.062-9.072-9.072v-0.153
				c0-5.01,4.062-9.072,9.072-9.072h116.29c5.01,0,9.072,4.062,9.072,9.072v0.153C322.217,349.166,318.155,353.228,313.145,353.228z
				"/>
			<linearGradient id="SVGID_41_" gradientUnits="userSpaceOnUse" x1="255" y1="338.1086" x2="255" y2="350.757">
				<stop  offset="0" style="stop-color:#7E8595"/>
				<stop  offset="1" style="stop-color:#555A66"/>
			</linearGradient>
			<path style="fill:url(#SVGID_41_);" d="M313.712,349.106H196.289c-2.701,0-4.89-2.189-4.89-4.89v-0.274
				c0-2.701,2.189-4.89,4.89-4.89h117.423c2.701,0,4.89,2.189,4.89,4.89v0.274C318.601,346.917,316.412,349.106,313.712,349.106z"/>
		</g>
		<g>
			<linearGradient id="SVGID_42_" gradientUnits="userSpaceOnUse" x1="255" y1="378.6329" x2="255" y2="349.5367">
				<stop  offset="0" style="stop-color:#FFDA45"/>
				<stop  offset="1" style="stop-color:#FFA425"/>
			</linearGradient>
			<path style="fill:url(#SVGID_42_);" d="M313.145,375.698h-116.29c-5.01,0-9.072-4.062-9.072-9.072v-0.153
				c0-5.01,4.062-9.072,9.072-9.072h116.29c5.01,0,9.072,4.062,9.072,9.072v0.153C322.217,371.636,318.155,375.698,313.145,375.698z
				"/>
			<linearGradient id="SVGID_43_" gradientUnits="userSpaceOnUse" x1="255" y1="360.5786" x2="255" y2="373.2271">
				<stop  offset="0" style="stop-color:#7E8595"/>
				<stop  offset="1" style="stop-color:#555A66"/>
			</linearGradient>
			<path style="fill:url(#SVGID_43_);" d="M313.712,371.576H196.289c-2.701,0-4.89-2.189-4.89-4.89v-0.274
				c0-2.701,2.189-4.89,4.89-4.89h117.423c2.701,0,4.89,2.189,4.89,4.89v0.274C318.601,369.387,316.412,371.576,313.712,371.576z"/>
		</g>
		<g>
			<linearGradient id="SVGID_44_" gradientUnits="userSpaceOnUse" x1="255" y1="401.1028" x2="255" y2="372.0068">
				<stop  offset="0" style="stop-color:#FFDA45"/>
				<stop  offset="1" style="stop-color:#FFA425"/>
			</linearGradient>
			<path style="fill:url(#SVGID_44_);" d="M313.145,398.167h-116.29c-5.01,0-9.072-4.062-9.072-9.072v-0.153
				c0-5.01,4.062-9.072,9.072-9.072h116.29c5.01,0,9.072,4.062,9.072,9.072v0.153C322.217,394.106,318.155,398.167,313.145,398.167z
				"/>
			<linearGradient id="SVGID_45_" gradientUnits="userSpaceOnUse" x1="255" y1="383.0484" x2="255" y2="395.697">
				<stop  offset="0" style="stop-color:#7E8595"/>
				<stop  offset="1" style="stop-color:#555A66"/>
			</linearGradient>
			<path style="fill:url(#SVGID_45_);" d="M313.712,394.046H196.289c-2.701,0-4.89-2.189-4.89-4.89v-0.274
				c0-2.701,2.189-4.89,4.89-4.89h117.423c2.701,0,4.89,2.189,4.89,4.89v0.274C318.601,391.857,316.412,394.046,313.712,394.046z"/>
		</g>
	</g>
	<g>
		<linearGradient id="SVGID_46_" gradientUnits="userSpaceOnUse" x1="91.2939" y1="347.2578" x2="144.284" y2="400.248">
			<stop  offset="0" style="stop-color:#F9F7FC"/>
			<stop  offset="1" style="stop-color:#F0DDFC"/>
		</linearGradient>
		<circle style="fill:url(#SVGID_46_);" cx="106.602" cy="362.566" r="40.914"/>
		<linearGradient id="SVGID_47_" gradientUnits="userSpaceOnUse" x1="111.5108" y1="369.5253" x2="86.2667" y2="333.7361">
			<stop  offset="0" style="stop-color:#FFFFFF;stop-opacity:0"/>
			<stop  offset="1" style="stop-color:#FFFFFF"/>
		</linearGradient>
		<circle style="fill:url(#SVGID_47_);" cx="106.602" cy="362.566" r="34.146"/>
		<linearGradient id="SVGID_48_" gradientUnits="userSpaceOnUse" x1="108.0229" y1="378.2462" x2="164.2611" y2="273.6509">
			<stop  offset="0" style="stop-color:#F0DDFC;stop-opacity:0"/>
			<stop  offset="0.2889" style="stop-color:#C8B7E0;stop-opacity:0.2889"/>
			<stop  offset="0.5915" style="stop-color:#A595C8;stop-opacity:0.5915"/>
			<stop  offset="0.8395" style="stop-color:#8F81B8;stop-opacity:0.8395"/>
			<stop  offset="1" style="stop-color:#8779B3"/>
		</linearGradient>
		<path style="fill:url(#SVGID_48_);" d="M124.904,325.967c2.759,5.507,4.315,11.723,4.315,18.302
			c0,22.596-18.318,40.914-40.914,40.914c-6.579,0-12.795-1.555-18.302-4.315c6.718,13.407,20.582,22.612,36.599,22.612
			c22.596,0,40.914-18.318,40.914-40.914C147.516,346.549,138.311,332.684,124.904,325.967z"/>
	</g>
	<g>
		<linearGradient id="SVGID_49_" gradientUnits="userSpaceOnUse" x1="388.09" y1="347.2578" x2="441.0801" y2="400.248">
			<stop  offset="0" style="stop-color:#F9F7FC"/>
			<stop  offset="1" style="stop-color:#F0DDFC"/>
		</linearGradient>
		<circle style="fill:url(#SVGID_49_);" cx="403.398" cy="362.566" r="40.914"/>
		<linearGradient id="SVGID_50_" gradientUnits="userSpaceOnUse" x1="408.3069" y1="369.5253" x2="383.0628" y2="333.7361">
			<stop  offset="0" style="stop-color:#FFFFFF;stop-opacity:0"/>
			<stop  offset="1" style="stop-color:#FFFFFF"/>
		</linearGradient>
		<circle style="fill:url(#SVGID_50_);" cx="403.398" cy="362.566" r="34.146"/>
		<linearGradient id="SVGID_51_" gradientUnits="userSpaceOnUse" x1="404.8189" y1="378.2462" x2="461.0572" y2="273.6509">
			<stop  offset="0" style="stop-color:#F0DDFC;stop-opacity:0"/>
			<stop  offset="0.2889" style="stop-color:#C8B7E0;stop-opacity:0.2889"/>
			<stop  offset="0.5915" style="stop-color:#A595C8;stop-opacity:0.5915"/>
			<stop  offset="0.8395" style="stop-color:#8F81B8;stop-opacity:0.8395"/>
			<stop  offset="1" style="stop-color:#8779B3"/>
		</linearGradient>
		<path style="fill:url(#SVGID_51_);" d="M421.7,325.967c2.759,5.507,4.315,11.723,4.315,18.302
			c0,22.596-18.318,40.914-40.914,40.914c-6.579,0-12.795-1.555-18.302-4.315c6.718,13.407,20.582,22.612,36.599,22.612
			c22.596,0,40.914-18.318,40.914-40.914C444.312,346.549,435.107,332.684,421.7,325.967z"/>
	</g>
	<g>
		<g>
			<linearGradient id="SVGID_52_" gradientUnits="userSpaceOnUse" x1="134.6318" y1="64.9285" x2="50.7978" y2="-18.9055">
				<stop  offset="0" style="stop-color:#FFDA45"/>
				<stop  offset="1" style="stop-color:#FFA425"/>
			</linearGradient>
			<circle style="fill:url(#SVGID_52_);" cx="120.401" cy="50.697" r="22.019"/>
			<g>
				<linearGradient id="SVGID_53_" gradientUnits="userSpaceOnUse" x1="113.2895" y1="43.5862" x2="137.9049" y2="68.2016">
					<stop  offset="0" style="stop-color:#F9F7FC"/>
					<stop  offset="1" style="stop-color:#F0DDFC"/>
				</linearGradient>
				<circle style="fill:url(#SVGID_53_);" cx="120.401" cy="50.697" r="19.006"/>
				<linearGradient id="SVGID_54_" gradientUnits="userSpaceOnUse" x1="122.6809" y1="53.9301" x2="110.9543" y2="37.3051">
					<stop  offset="0" style="stop-color:#FFFFFF;stop-opacity:0"/>
					<stop  offset="1" style="stop-color:#FFFFFF"/>
				</linearGradient>
				<circle style="fill:url(#SVGID_54_);" cx="120.401" cy="50.697" r="15.862"/>
				<linearGradient id="SVGID_55_" gradientUnits="userSpaceOnUse" x1="121.0606" y1="57.9812" x2="147.1848" y2="9.3938">
					<stop  offset="0" style="stop-color:#F0DDFC;stop-opacity:0"/>
					<stop  offset="0.2889" style="stop-color:#C8B7E0;stop-opacity:0.2889"/>
					<stop  offset="0.5915" style="stop-color:#A595C8;stop-opacity:0.5915"/>
					<stop  offset="0.8395" style="stop-color:#8F81B8;stop-opacity:0.8395"/>
					<stop  offset="1" style="stop-color:#8779B3"/>
				</linearGradient>
				<path style="fill:url(#SVGID_55_);" d="M128.902,33.696c1.282,2.558,2.004,5.445,2.004,8.502
					c0,10.497-8.509,19.006-19.006,19.006c-3.056,0-5.943-0.723-8.502-2.004c3.12,6.228,9.561,10.504,17.001,10.504
					c10.497,0,19.006-8.509,19.006-19.006C139.406,43.257,135.13,36.817,128.902,33.696z"/>
			</g>
		</g>
		<g>
			<linearGradient id="SVGID_56_" gradientUnits="userSpaceOnUse" x1="403.8307" y1="64.9285" x2="319.9966" y2="-18.9055">
				<stop  offset="0" style="stop-color:#FFDA45"/>
				<stop  offset="1" style="stop-color:#FFA425"/>
			</linearGradient>
			<circle style="fill:url(#SVGID_56_);" cx="389.599" cy="50.697" r="22.019"/>
			<g>
				<linearGradient id="SVGID_57_" gradientUnits="userSpaceOnUse" x1="382.4884" y1="43.5862" x2="407.1038" y2="68.2016">
					<stop  offset="0" style="stop-color:#F9F7FC"/>
					<stop  offset="1" style="stop-color:#F0DDFC"/>
				</linearGradient>
				<circle style="fill:url(#SVGID_57_);" cx="389.599" cy="50.697" r="19.006"/>
				<linearGradient id="SVGID_58_" gradientUnits="userSpaceOnUse" x1="391.8798" y1="53.9301" x2="380.1532" y2="37.3051">
					<stop  offset="0" style="stop-color:#FFFFFF;stop-opacity:0"/>
					<stop  offset="1" style="stop-color:#FFFFFF"/>
				</linearGradient>
				<circle style="fill:url(#SVGID_58_);" cx="389.599" cy="50.697" r="15.862"/>
				<linearGradient id="SVGID_59_" gradientUnits="userSpaceOnUse" x1="390.2595" y1="57.9812" x2="416.3837" y2="9.3939">
					<stop  offset="0" style="stop-color:#F0DDFC;stop-opacity:0"/>
					<stop  offset="0.2889" style="stop-color:#C8B7E0;stop-opacity:0.2889"/>
					<stop  offset="0.5915" style="stop-color:#A595C8;stop-opacity:0.5915"/>
					<stop  offset="0.8395" style="stop-color:#8F81B8;stop-opacity:0.8395"/>
					<stop  offset="1" style="stop-color:#8779B3"/>
				</linearGradient>
				<path style="fill:url(#SVGID_59_);" d="M398.101,33.696c1.282,2.558,2.004,5.445,2.004,8.502
					c0,10.497-8.509,19.006-19.006,19.006c-3.056,0-5.944-0.723-8.502-2.004c3.121,6.228,9.561,10.504,17.001,10.504
					c10.497,0,19.006-8.509,19.006-19.006C408.605,43.257,404.329,36.817,398.101,33.696z"/>
			</g>
		</g>
	</g>
</g>
<g>
</g>
<g>
</g>
<g>
</g>
<g>
</g>
<g>
</g>
<g>
</g>
<g>
</g>
<g>
</g>
<g>
</g>
<g>
</g>
<g>
</g>
<g>
</g>
<g>
</g>
<g>
</g>
<g>
</g>
</svg>
