<?xml version="1.0" encoding="iso-8859-1"?>
<!-- Generator: Adobe Illustrator 22.0.0, SVG Export Plug-In . SVG Version: 6.00 Build 0)  -->
<svg version="1.1" id="Capa_1" xmlns="http://www.w3.org/2000/svg" xmlns:xlink="http://www.w3.org/1999/xlink" x="0px" y="0px"
	 viewBox="0 0 510 510" style="enable-background:new 0 0 510 510;" xml:space="preserve">
<g>
	<g>
		
			<linearGradient id="SVGID_1_" gradientUnits="userSpaceOnUse" x1="2294.8567" y1="144.4887" x2="2356.2017" y2="277.403" gradientTransform="matrix(-1 0 0 1 2638.2129 0)">
			<stop  offset="0" style="stop-color:#92F37F"/>
			<stop  offset="1" style="stop-color:#4AB272"/>
		</linearGradient>
		<path style="fill:url(#SVGID_1_);" d="M130.739,174.565v65.951c0,8.58,6.955,15.535,15.535,15.535h314.851
			c13.394,0,25.526-5.429,34.307-14.21c8.781-8.781,14.21-20.913,14.21-34.307c0-26.788-21.717-48.505-48.517-48.505H146.274
			C137.694,159.03,130.739,165.985,130.739,174.565z"/>
		
			<linearGradient id="SVGID_2_" gradientUnits="userSpaceOnUse" x1="2482.3628" y1="207.5407" x2="2317.396" y2="207.5407" gradientTransform="matrix(-1 0 0 1 2638.2129 0)">
			<stop  offset="0" style="stop-color:#4AB272;stop-opacity:0"/>
			<stop  offset="1" style="stop-color:#009245"/>
		</linearGradient>
		<path style="fill:url(#SVGID_2_);" d="M146.274,159.03h122.325c-8.58,0-15.535,6.955-15.535,15.535v65.951
			c0,8.58,6.955,15.535,15.535,15.535H146.274c-8.58,0-15.535-6.955-15.535-15.535v-65.951
			C130.739,165.985,137.694,159.03,146.274,159.03z"/>
		<linearGradient id="SVGID_3_" gradientUnits="userSpaceOnUse" x1="267.6395" y1="315.2892" x2="104.3906" y2="160.079">
			<stop  offset="0" style="stop-color:#4AB272;stop-opacity:0"/>
			<stop  offset="1" style="stop-color:#009245"/>
		</linearGradient>
		<path style="fill:url(#SVGID_3_);" d="M146.274,256.052h119.301l-0.388-0.388c-5.837-1.31-10.425-5.898-11.735-11.735
			l-84.899-84.899h-22.279c-8.58,0-15.535,6.955-15.535,15.535v65.951C130.739,249.096,137.694,256.052,146.274,256.052z"/>
		<g>
			
				<linearGradient id="SVGID_4_" gradientUnits="userSpaceOnUse" x1="2330.9255" y1="181.8475" x2="2330.9255" y2="243.1321" gradientTransform="matrix(-1 0 0 1 2638.2129 0)">
				<stop  offset="0" style="stop-color:#F9F7FC"/>
				<stop  offset="1" style="stop-color:#F0DDFC"/>
			</linearGradient>
			<path style="fill:url(#SVGID_4_);" d="M136.295,244.297h321.579c20.3,0,36.757-16.456,36.757-36.757l0,0
				c0-20.3-16.456-36.757-36.757-36.757H134.229c-7.889,0-14.284,6.395-14.284,14.284v42.879
				C119.944,236.977,127.265,244.297,136.295,244.297z"/>
			
				<linearGradient id="SVGID_5_" gradientUnits="userSpaceOnUse" x1="2332.3762" y1="244.017" x2="2335.3765" y2="166.7633" gradientTransform="matrix(-1 0 0 1 2638.2129 0)">
				<stop  offset="0" style="stop-color:#F0DDFC;stop-opacity:0"/>
				<stop  offset="0.2889" style="stop-color:#C8B7E0;stop-opacity:0.2889"/>
				<stop  offset="0.5915" style="stop-color:#A595C8;stop-opacity:0.5915"/>
				<stop  offset="0.8395" style="stop-color:#8F81B8;stop-opacity:0.8395"/>
				<stop  offset="1" style="stop-color:#8779B3"/>
			</linearGradient>
			<path style="fill:url(#SVGID_5_);" d="M490.368,224.721c-6.168,11.641-18.402,19.576-32.494,19.576H136.295
				c-9.03,0-16.35-7.32-16.35-16.35v-3.226H490.368z"/>
			
				<linearGradient id="SVGID_6_" gradientUnits="userSpaceOnUse" x1="2330.9255" y1="225.5455" x2="2330.9255" y2="182.6723" gradientTransform="matrix(-1 0 0 1 2638.2129 0)">
				<stop  offset="0" style="stop-color:#F0DDFC;stop-opacity:0"/>
				<stop  offset="0.2889" style="stop-color:#C8B7E0;stop-opacity:0.2889"/>
				<stop  offset="0.5915" style="stop-color:#A595C8;stop-opacity:0.5915"/>
				<stop  offset="0.8395" style="stop-color:#8F81B8;stop-opacity:0.8395"/>
				<stop  offset="1" style="stop-color:#8779B3"/>
			</linearGradient>
			<path style="fill:url(#SVGID_6_);" d="M457.874,244.297H136.295c-9.03,0-16.35-7.32-16.35-16.35V207.54H494.63l0,0
				C494.63,227.84,478.174,244.297,457.874,244.297z"/>
			
				<linearGradient id="SVGID_7_" gradientUnits="userSpaceOnUse" x1="2331.3101" y1="204.5203" x2="2332.1038" y2="177.5327" gradientTransform="matrix(-1 0 0 1 2638.2129 0)">
				<stop  offset="0" style="stop-color:#F0DDFC;stop-opacity:0"/>
				<stop  offset="0.2889" style="stop-color:#C8B7E0;stop-opacity:0.2889"/>
				<stop  offset="0.5915" style="stop-color:#A595C8;stop-opacity:0.5915"/>
				<stop  offset="0.8395" style="stop-color:#8F81B8;stop-opacity:0.8395"/>
				<stop  offset="1" style="stop-color:#8779B3"/>
			</linearGradient>
			<path style="fill:url(#SVGID_7_);" d="M490.548,190.711c2.603,5.044,4.082,10.762,4.082,16.829l0,0
				c0,20.3-16.456,36.757-36.757,36.757H136.295c-9.03,0-16.35-7.32-16.35-16.35v-37.236H490.548z"/>
			
				<linearGradient id="SVGID_8_" gradientUnits="userSpaceOnUse" x1="2483.6577" y1="207.5403" x2="2250.3716" y2="207.5403" gradientTransform="matrix(-1 0 0 1 2638.2129 0)">
				<stop  offset="0" style="stop-color:#F0DDFC;stop-opacity:0"/>
				<stop  offset="0.2889" style="stop-color:#C8B7E0;stop-opacity:0.2889"/>
				<stop  offset="0.5915" style="stop-color:#A595C8;stop-opacity:0.5915"/>
				<stop  offset="0.8395" style="stop-color:#8F81B8;stop-opacity:0.8395"/>
				<stop  offset="1" style="stop-color:#8779B3"/>
			</linearGradient>
			<path style="fill:url(#SVGID_8_);" d="M133.965,170.784h119.582c-0.304,1.213-0.483,2.475-0.483,3.781v65.951
				c0,1.306,0.179,2.568,0.482,3.78H136.032c-9.03,0-16.35-7.32-16.35-16.35v-42.879
				C119.681,177.179,126.076,170.784,133.965,170.784z"/>
		</g>
	</g>
	<g>
		<g>
			<g>
				<linearGradient id="SVGID_9_" gradientUnits="userSpaceOnUse" x1="307.9622" y1="381.0426" x2="307.9622" y2="449.0629">
					<stop  offset="0" style="stop-color:#FFDA45"/>
					<stop  offset="1" style="stop-color:#FFA425"/>
				</linearGradient>
				<path style="fill:url(#SVGID_9_);" d="M496.601,367.612v67.711c0,7.878-6.246,14.297-14.062,14.569
					c-0.087,0-0.173,0.012-0.272,0.012c-0.087,0-0.173,0.012-0.26,0.012H152.604c-12.726,0-23.782-7.136-29.372-17.636
					c-2.498-4.675-3.908-10.005-3.908-15.657v-30.325c0-5.652,1.41-10.982,3.908-15.645c0.73-1.398,1.583-2.746,2.511-4.007
					c6.06-8.261,15.83-13.629,26.862-13.629h329.404C490.071,353.018,496.601,359.548,496.601,367.612z"/>
				<linearGradient id="SVGID_10_" gradientUnits="userSpaceOnUse" x1="307.9622" y1="387.8446" x2="307.9622" y2="418.1698">
					<stop  offset="0" style="stop-color:#FFDA45"/>
					<stop  offset="1" style="stop-color:#FFA425"/>
				</linearGradient>
				<path style="fill:url(#SVGID_10_);" d="M496.601,370.654v61.626h-373.37c-2.498-4.675-3.908-10.005-3.908-15.657v-30.325
					c0-5.652,1.41-10.982,3.908-15.645H496.601z"/>
			</g>
			<linearGradient id="SVGID_11_" gradientUnits="userSpaceOnUse" x1="156.4336" y1="402.9946" x2="156.4336" y2="426.5251">
				<stop  offset="0" style="stop-color:#FF7044"/>
				<stop  offset="1" style="stop-color:#F92814"/>
			</linearGradient>
			<path style="fill:url(#SVGID_11_);" d="M149.267,432.28c-2.498-4.675-3.908-10.005-3.908-15.657v-30.325
				c0-5.652,1.41-10.982,3.908-15.645c0.73-1.398,1.583-2.746,2.511-4.007c6.06-8.261,15.83-13.629,26.862-13.629h-11.131
				c-11.032,0-20.802,5.367-26.862,13.629c-0.928,1.262-1.781,2.609-2.511,4.007c-2.498,4.663-3.908,9.993-3.908,15.645v30.325
				c0,5.652,1.41,10.982,3.908,15.657c5.59,10.5,16.647,17.636,29.372,17.636h11.131C165.913,449.916,154.857,442.78,149.267,432.28
				z"/>
			<linearGradient id="SVGID_12_" gradientUnits="userSpaceOnUse" x1="218.5795" y1="402.9946" x2="218.5795" y2="426.5251">
				<stop  offset="0" style="stop-color:#FF7044"/>
				<stop  offset="1" style="stop-color:#F92814"/>
			</linearGradient>
			<path style="fill:url(#SVGID_12_);" d="M211.413,432.28c-2.498-4.675-3.908-10.005-3.908-15.657v-30.325
				c0-5.652,1.41-10.982,3.908-15.645c0.73-1.398,1.583-2.746,2.511-4.007c6.06-8.261,15.83-13.629,26.862-13.629h-11.131
				c-11.032,0-20.802,5.367-26.862,13.629c-0.928,1.262-1.781,2.609-2.511,4.007c-2.498,4.663-3.908,9.993-3.908,15.645v30.325
				c0,5.652,1.41,10.982,3.908,15.657c5.59,10.5,16.647,17.636,29.372,17.636h11.131C228.059,449.916,217.003,442.78,211.413,432.28
				z"/>
			<g>
				<linearGradient id="SVGID_13_" gradientUnits="userSpaceOnUse" x1="300.956" y1="412.5793" x2="300.956" y2="351.9793">
					<stop  offset="0" style="stop-color:#FFDA45;stop-opacity:0"/>
					<stop  offset="1" style="stop-color:#FCEE21"/>
				</linearGradient>
				<path style="fill:url(#SVGID_13_);" d="M482.589,381.24v67.711c0,0.322-0.025,0.618-0.05,0.94c-0.087,0-0.173,0.012-0.272,0.012
					c-0.087,0-0.173,0.012-0.26,0.012H152.604c-12.726,0-23.782-7.136-29.372-17.636c-2.498-4.675-3.908-10.005-3.908-15.657
					v-30.325c0-5.652,1.41-10.982,3.908-15.645c0.73-1.398,1.583-2.746,2.511-4.007h342.254c3.896,0,7.42,1.521,10.03,4.007
					C480.845,373.301,482.589,377.073,482.589,381.24z"/>
			</g>
		</g>
		<g>
			
				<linearGradient id="SVGID_14_" gradientUnits="userSpaceOnUse" x1="55.6808" y1="350.012" x2="106.191" y2="459.4507" gradientTransform="matrix(1 0 0 1 283.6135 0)">
				<stop  offset="0" style="stop-color:#FFDA45"/>
				<stop  offset="1" style="stop-color:#FFA425"/>
			</linearGradient>
			<path style="fill:url(#SVGID_14_);" d="M498.942,368.487v65.951c0,8.58-6.955,15.535-15.535,15.535H263.786
				c-13.394,0-25.526-5.429-34.307-14.21c-8.781-8.781-14.21-20.913-14.21-34.307c0-26.788,21.717-48.505,48.517-48.505h219.621
				C491.987,352.952,498.942,359.907,498.942,368.487z"/>
			<g>
				
					<linearGradient id="SVGID_15_" gradientUnits="userSpaceOnUse" x1="86.3952" y1="375.7693" x2="86.3952" y2="437.0538" gradientTransform="matrix(1 0 0 1 283.6135 0)">
					<stop  offset="0" style="stop-color:#F9F7FC"/>
					<stop  offset="1" style="stop-color:#F0DDFC"/>
				</linearGradient>
				<path style="fill:url(#SVGID_15_);" d="M493.386,438.219H267.037c-20.3,0-36.757-16.456-36.757-36.757l0,0
					c0-20.3,16.456-36.757,36.757-36.757h228.415c7.889,0,14.284,6.395,14.284,14.284v42.879
					C509.737,430.898,502.416,438.219,493.386,438.219z"/>
				
					<linearGradient id="SVGID_16_" gradientUnits="userSpaceOnUse" x1="87.8903" y1="436.7933" x2="90.5515" y2="368.2695" gradientTransform="matrix(1 0 0 1 283.6135 0)">
					<stop  offset="0" style="stop-color:#F0DDFC;stop-opacity:0"/>
					<stop  offset="0.2889" style="stop-color:#C8B7E0;stop-opacity:0.2889"/>
					<stop  offset="0.5915" style="stop-color:#A595C8;stop-opacity:0.5915"/>
					<stop  offset="0.8395" style="stop-color:#8F81B8;stop-opacity:0.8395"/>
					<stop  offset="1" style="stop-color:#8779B3"/>
				</linearGradient>
				<path style="fill:url(#SVGID_16_);" d="M234.543,418.643c6.168,11.642,18.402,19.576,32.494,19.576h226.349
					c9.03,0,16.35-7.32,16.35-16.35v-3.226H234.543z"/>
				
					<linearGradient id="SVGID_17_" gradientUnits="userSpaceOnUse" x1="86.3952" y1="419.4673" x2="86.3952" y2="376.594" gradientTransform="matrix(1 0 0 1 283.6135 0)">
					<stop  offset="0" style="stop-color:#F0DDFC;stop-opacity:0"/>
					<stop  offset="0.2889" style="stop-color:#C8B7E0;stop-opacity:0.2889"/>
					<stop  offset="0.5915" style="stop-color:#A595C8;stop-opacity:0.5915"/>
					<stop  offset="0.8395" style="stop-color:#8F81B8;stop-opacity:0.8395"/>
					<stop  offset="1" style="stop-color:#8779B3"/>
				</linearGradient>
				<path style="fill:url(#SVGID_17_);" d="M267.037,438.219h226.349c9.03,0,16.35-7.32,16.35-16.35v-20.406H230.281l0,0
					C230.281,421.762,246.737,438.219,267.037,438.219z"/>
				
					<linearGradient id="SVGID_18_" gradientUnits="userSpaceOnUse" x1="86.7635" y1="398.9909" x2="87.5223" y2="373.1929" gradientTransform="matrix(1 0 0 1 283.6135 0)">
					<stop  offset="0" style="stop-color:#F0DDFC;stop-opacity:0"/>
					<stop  offset="0.2889" style="stop-color:#C8B7E0;stop-opacity:0.2889"/>
					<stop  offset="0.5915" style="stop-color:#A595C8;stop-opacity:0.5915"/>
					<stop  offset="0.8395" style="stop-color:#8F81B8;stop-opacity:0.8395"/>
					<stop  offset="1" style="stop-color:#8779B3"/>
				</linearGradient>
				<path style="fill:url(#SVGID_18_);" d="M234.363,384.633c-2.603,5.044-4.082,10.762-4.082,16.829l0,0
					c0,20.3,16.456,36.757,36.757,36.757h226.349c9.03,0,16.35-7.32,16.35-16.35v-37.236H234.363z"/>
			</g>
		</g>
	</g>
	<g>
		<g>
			
				<linearGradient id="SVGID_19_" gradientUnits="userSpaceOnUse" x1="73.8658" y1="2726.6499" x2="193.824" y2="2726.6499" gradientTransform="matrix(0 1 -1 0 3041.3115 182.1858)">
				<stop  offset="0" style="stop-color:#4A98F7"/>
				<stop  offset="1" style="stop-color:#0469BC"/>
			</linearGradient>
			<path style="fill:url(#SVGID_19_);" d="M119.323,338.357v-67.711c0-8.06,6.534-14.594,14.594-14.594h361.488
				c8.06,0,14.594,6.534,14.594,14.594v67.711c0,8.06-6.534,14.594-14.594,14.594H133.917
				C125.857,352.952,119.323,346.418,119.323,338.357z"/>
			
				<linearGradient id="SVGID_20_" gradientUnits="userSpaceOnUse" x1="91.5012" y1="2726.6499" x2="136.8358" y2="2726.6499" gradientTransform="matrix(0 1 -1 0 3041.3115 182.1858)">
				<stop  offset="0" style="stop-color:#4A98F7"/>
				<stop  offset="1" style="stop-color:#0469BC"/>
			</linearGradient>
			<polygon style="fill:url(#SVGID_20_);" points="119.323,335.316 119.323,273.687 510,273.687 510,335.316 			"/>
		</g>
		<g>
			
				<linearGradient id="SVGID_21_" gradientUnits="userSpaceOnUse" x1="73.8658" y1="2586.3206" x2="145.1457" y2="2586.3206" gradientTransform="matrix(0 1 -1 0 3041.3115 182.1858)">
				<stop  offset="0" style="stop-color:#FFDA45"/>
				<stop  offset="1" style="stop-color:#FFA425"/>
			</linearGradient>
			<polygon style="fill:url(#SVGID_21_);" points="448.586,352.952 448.586,256.052 461.396,256.052 461.396,352.952 			"/>
			<g>
				
					<linearGradient id="SVGID_22_" gradientUnits="userSpaceOnUse" x1="73.8658" y1="2617.0327" x2="145.1457" y2="2617.0327" gradientTransform="matrix(0 1 -1 0 3041.3115 182.1858)">
					<stop  offset="0" style="stop-color:#FFDA45"/>
					<stop  offset="1" style="stop-color:#FFA425"/>
				</linearGradient>
				<polygon style="fill:url(#SVGID_22_);" points="417.874,352.952 417.874,256.052 430.684,256.052 430.684,352.952 				"/>
				
					<linearGradient id="SVGID_23_" gradientUnits="userSpaceOnUse" x1="73.8658" y1="2836.2671" x2="145.1457" y2="2836.2671" gradientTransform="matrix(0 1 -1 0 3041.3115 182.1858)">
					<stop  offset="0" style="stop-color:#FFDA45"/>
					<stop  offset="1" style="stop-color:#FFA425"/>
				</linearGradient>
				<polygon style="fill:url(#SVGID_23_);" points="198.639,352.952 198.639,256.052 211.45,256.052 211.45,352.952 				"/>
			</g>
			
				<linearGradient id="SVGID_24_" gradientUnits="userSpaceOnUse" x1="73.8658" y1="2866.9792" x2="145.1457" y2="2866.9792" gradientTransform="matrix(0 1 -1 0 3041.3115 182.1858)">
				<stop  offset="0" style="stop-color:#FFDA45"/>
				<stop  offset="1" style="stop-color:#FFA425"/>
			</linearGradient>
			<polygon style="fill:url(#SVGID_24_);" points="167.927,352.952 167.927,256.052 180.737,256.052 180.737,352.952 			"/>
		</g>
		
			<linearGradient id="SVGID_25_" gradientUnits="userSpaceOnUse" x1="81.0697" y1="2711.2466" x2="-29.5034" y2="2659.6909" gradientTransform="matrix(0 1 -1 0 3041.3115 182.1858)">
			<stop  offset="0" style="stop-color:#18CFFC;stop-opacity:0"/>
			<stop  offset="1" style="stop-color:#65E1DC"/>
		</linearGradient>
		<path style="fill:url(#SVGID_25_);" d="M495.987,284.28c0-8.06-6.534-14.594-14.594-14.594H119.905
			c-0.18,0-0.356,0.02-0.535,0.027c-0.02,0.31-0.047,0.618-0.047,0.934v67.712c0,8.06,6.534,14.594,14.594,14.594h361.488
			c0.18,0,0.356-0.02,0.535-0.027c0.02-0.31,0.047-0.618,0.047-0.934V284.28z"/>
	</g>
	<linearGradient id="SVGID_26_" gradientUnits="userSpaceOnUse" x1="215.2416" y1="247.4273" x2="94.6601" y2="165.8029">
		<stop  offset="0" style="stop-color:#F0DDFC;stop-opacity:0"/>
		<stop  offset="0.2889" style="stop-color:#C8B7E0;stop-opacity:0.2889"/>
		<stop  offset="0.5915" style="stop-color:#A595C8;stop-opacity:0.5915"/>
		<stop  offset="0.8395" style="stop-color:#8F81B8;stop-opacity:0.8395"/>
		<stop  offset="1" style="stop-color:#8779B3"/>
	</linearGradient>
	<path style="fill:url(#SVGID_26_);" d="M131.133,171.13c-0.25,1.107-0.394,2.253-0.394,3.435v65.951
		c0,0.99,0.103,1.955,0.279,2.894c1.657,0.566,3.427,0.886,5.276,0.886h117.254c-0.031-0.123-0.069-0.244-0.097-0.368
		l-73.145-73.145h-46.078C133.164,170.784,132.131,170.909,131.133,171.13z"/>
	<g>
		<g>
			
				<linearGradient id="SVGID_27_" gradientUnits="userSpaceOnUse" x1="49.3803" y1="313.5995" x2="169.3385" y2="313.5995" gradientTransform="matrix(0.9679 0.2513 -0.2513 0.9679 76.9103 -73.1208)">
				<stop  offset="0" style="stop-color:#FF7044"/>
				<stop  offset="1" style="stop-color:#F92814"/>
			</linearGradient>
			<path style="fill:url(#SVGID_27_);" d="M76.468,452.578L10.93,435.561c-7.802-2.026-12.484-9.992-10.458-17.794L91.318,67.881
				c2.026-7.802,9.992-12.484,17.794-10.458l65.538,17.017c7.802,2.026,12.484,9.992,10.458,17.794L94.262,442.119
				C92.236,449.921,84.27,454.603,76.468,452.578z"/>
			
				<linearGradient id="SVGID_28_" gradientUnits="userSpaceOnUse" x1="67.0157" y1="313.5995" x2="112.3503" y2="313.5995" gradientTransform="matrix(0.9679 0.2513 -0.2513 0.9679 76.9103 -73.1208)">
				<stop  offset="0" style="stop-color:#FF7044"/>
				<stop  offset="1" style="stop-color:#F92814"/>
			</linearGradient>
			<polygon style="fill:url(#SVGID_28_);" points="73.525,451.813 13.874,436.325 112.055,58.187 171.706,73.675 			"/>
		</g>
		<g>
			
				<linearGradient id="SVGID_29_" gradientUnits="userSpaceOnUse" x1="49.3803" y1="173.2701" x2="120.6602" y2="173.2701" gradientTransform="matrix(0.9679 0.2513 -0.2513 0.9679 76.9103 -73.1208)">
				<stop  offset="0" style="stop-color:#F9F7FC"/>
				<stop  offset="1" style="stop-color:#F0DDFC"/>
			</linearGradient>
			<polygon style="fill:url(#SVGID_29_);" points="173.342,137.55 79.551,113.198 82.771,100.799 176.561,125.151 			"/>
			
				<linearGradient id="SVGID_30_" gradientUnits="userSpaceOnUse" x1="49.3803" y1="453.9289" x2="120.6602" y2="453.9289" gradientTransform="matrix(0.9679 0.2513 -0.2513 0.9679 76.9103 -73.1208)">
				<stop  offset="0" style="stop-color:#F9F7FC"/>
				<stop  offset="1" style="stop-color:#F0DDFC"/>
			</linearGradient>
			<polygon style="fill:url(#SVGID_30_);" points="102.809,409.201 9.019,384.849 12.238,372.45 106.028,396.802 			"/>
			
				<linearGradient id="SVGID_31_" gradientUnits="userSpaceOnUse" x1="49.3803" y1="423.0525" x2="120.6602" y2="423.0525" gradientTransform="matrix(0.9679 0.2513 -0.2513 0.9679 76.9103 -73.1208)">
				<stop  offset="0" style="stop-color:#F9F7FC"/>
				<stop  offset="1" style="stop-color:#F0DDFC"/>
			</linearGradient>
			<polygon style="fill:url(#SVGID_31_);" points="110.569,379.316 16.778,354.964 19.998,342.565 113.788,366.917 			"/>
		</g>
		
			<linearGradient id="SVGID_32_" gradientUnits="userSpaceOnUse" x1="85.3633" y1="315.6062" x2="2.9423" y2="294.2378" gradientTransform="matrix(0.9679 0.2513 -0.2513 0.9679 76.9103 -73.1208)">
			<stop  offset="0" style="stop-color:#FF7044;stop-opacity:0"/>
			<stop  offset="1" style="stop-color:#FFA425"/>
		</linearGradient>
		<path style="fill:url(#SVGID_32_);" d="M118.786,74.411c-7.802-2.026-15.768,2.657-17.794,10.458L10.147,434.757
			c-0.045,0.175-0.07,0.349-0.108,0.524c0.295,0.097,0.587,0.201,0.892,0.28l65.538,17.017c7.801,2.026,15.768-2.657,17.794-10.458
			l90.846-349.887c0.045-0.175,0.07-0.349,0.108-0.524c-0.295-0.097-0.587-0.201-0.892-0.28L118.786,74.411z"/>
	</g>
</g>
<g>
</g>
<g>
</g>
<g>
</g>
<g>
</g>
<g>
</g>
<g>
</g>
<g>
</g>
<g>
</g>
<g>
</g>
<g>
</g>
<g>
</g>
<g>
</g>
<g>
</g>
<g>
</g>
<g>
</g>
</svg>
