<?xml version="1.0" encoding="iso-8859-1"?>
<!-- Generator: Adobe Illustrator 22.0.0, SVG Export Plug-In . SVG Version: 6.00 Build 0)  -->
<svg version="1.1" id="Capa_1" xmlns="http://www.w3.org/2000/svg" xmlns:xlink="http://www.w3.org/1999/xlink" x="0px" y="0px"
	 viewBox="0 0 510 510" style="enable-background:new 0 0 510 510;" xml:space="preserve">
<g>
	<g>
		<linearGradient id="SVGID_1_" gradientUnits="userSpaceOnUse" x1="236.748" y1="-109.4866" x2="452.5954" y2="919.0616">
			<stop  offset="0" style="stop-color:#FF7044"/>
			<stop  offset="1" style="stop-color:#F92814"/>
		</linearGradient>
		<path style="fill:url(#SVGID_1_);" d="M491.149,0H31.82C18.234,0,11.431,16.426,21.037,26.032l462.931,462.931
			c9.606,9.606,26.032,2.803,26.032-10.783V18.851C510,8.44,501.56,0,491.149,0z M408.853,289.33c0,5.346-6.464,8.024-10.245,4.243
			L216.427,111.392c-3.781-3.781-1.103-10.245,4.243-10.245h180.764c4.097,0,7.419,3.322,7.419,7.419V289.33z"/>
		<linearGradient id="SVGID_2_" gradientUnits="userSpaceOnUse" x1="334.2077" y1="174.2861" x2="236.0902" y2="-109.1645">
			<stop  offset="0" style="stop-color:#FF7044;stop-opacity:0"/>
			<stop  offset="1" style="stop-color:#FFA425"/>
		</linearGradient>
		<path style="fill:url(#SVGID_2_);" d="M491.146,64.173H96.634c-5.711,0-8.572,6.905-4.533,10.944l413.654,413.654
			c2.584-2.638,4.241-6.269,4.241-10.597V83.023C509.996,72.612,501.556,64.173,491.146,64.173z M408.857,289.332
			c0,5.342-6.465,8.024-10.248,4.241L216.427,111.391c-3.783-3.783-1.101-10.248,4.241-10.248h180.765
			c4.099,0,7.424,3.325,7.424,7.424V289.332z"/>
		<linearGradient id="SVGID_3_" gradientUnits="userSpaceOnUse" x1="260.508" y1="-1.6056" x2="260.508" y2="154.899">
			<stop  offset="0" style="stop-color:#FF7044"/>
			<stop  offset="1" style="stop-color:#F92814"/>
		</linearGradient>
		<path style="fill:url(#SVGID_3_);" d="M504.479,5.521c-3.412-3.412-8.122-5.516-13.333-5.516H31.825
			c-13.595,0-20.398,16.418-10.793,26.023L45.235,50.23H459.77L504.479,5.521z"/>
		<linearGradient id="SVGID_4_" gradientUnits="userSpaceOnUse" x1="511.9689" y1="249.492" x2="422.5731" y2="249.492">
			<stop  offset="0" style="stop-color:#FF7044"/>
			<stop  offset="1" style="stop-color:#F92814"/>
		</linearGradient>
		<path style="fill:url(#SVGID_4_);" d="M459.77,464.765l24.202,24.202c9.604,9.605,26.023,2.802,26.023-10.793V18.854
			c0-5.211-2.104-9.921-5.516-13.333L459.77,50.23V464.765z"/>
		<g>
			
				<linearGradient id="SVGID_5_" gradientUnits="userSpaceOnUse" x1="23.125" y1="-52.8449" x2="23.125" y2="-41.5677" gradientTransform="matrix(0 -1 1 0 112.4787 48.2419)">
				<stop  offset="0" style="stop-color:#FFDA45"/>
				<stop  offset="1" style="stop-color:#FFA425"/>
			</linearGradient>
			<path style="fill:url(#SVGID_5_);" d="M66.391,13.957v22.32c0,3.027-2.454,5.48-5.481,5.48l0,0c-3.027,0-5.481-2.454-5.481-5.48
				v-22.32c0-3.027,2.454-5.481,5.481-5.481l0,0C63.937,8.476,66.391,10.93,66.391,13.957z"/>
			
				<linearGradient id="SVGID_6_" gradientUnits="userSpaceOnUse" x1="28.5793" y1="-22.1375" x2="28.5793" y2="-10.8604" gradientTransform="matrix(0 -1 1 0 112.4787 48.2419)">
				<stop  offset="0" style="stop-color:#FFDA45"/>
				<stop  offset="1" style="stop-color:#FFA425"/>
			</linearGradient>
			<path style="fill:url(#SVGID_6_);" d="M97.098,13.957v11.411c0,3.027-2.454,5.481-5.481,5.481l0,0
				c-3.027,0-5.481-2.454-5.481-5.481V13.957c0-3.027,2.454-5.481,5.481-5.481l0,0C94.644,8.476,97.098,10.93,97.098,13.957z"/>
			
				<linearGradient id="SVGID_7_" gradientUnits="userSpaceOnUse" x1="28.5793" y1="8.5698" x2="28.5793" y2="19.847" gradientTransform="matrix(0 -1 1 0 112.4787 48.2419)">
				<stop  offset="0" style="stop-color:#FFDA45"/>
				<stop  offset="1" style="stop-color:#FFA425"/>
			</linearGradient>
			<path style="fill:url(#SVGID_7_);" d="M127.805,13.957v11.411c0,3.027-2.454,5.481-5.481,5.481l0,0
				c-3.027,0-5.481-2.454-5.481-5.481V13.957c0-3.027,2.454-5.481,5.481-5.481l0,0C125.352,8.476,127.805,10.93,127.805,13.957z"/>
			
				<linearGradient id="SVGID_8_" gradientUnits="userSpaceOnUse" x1="23.125" y1="39.2772" x2="23.125" y2="50.5543" gradientTransform="matrix(0 -1 1 0 112.4787 48.2419)">
				<stop  offset="0" style="stop-color:#FFDA45"/>
				<stop  offset="1" style="stop-color:#FFA425"/>
			</linearGradient>
			<path style="fill:url(#SVGID_8_);" d="M158.513,13.957v22.32c0,3.027-2.454,5.48-5.48,5.48l0,0c-3.027,0-5.481-2.454-5.481-5.48
				v-22.32c0-3.027,2.454-5.481,5.481-5.481l0,0C156.059,8.476,158.513,10.93,158.513,13.957z"/>
			
				<linearGradient id="SVGID_9_" gradientUnits="userSpaceOnUse" x1="28.5793" y1="69.9845" x2="28.5793" y2="81.2617" gradientTransform="matrix(0 -1 1 0 112.4787 48.2419)">
				<stop  offset="0" style="stop-color:#FFDA45"/>
				<stop  offset="1" style="stop-color:#FFA425"/>
			</linearGradient>
			<path style="fill:url(#SVGID_9_);" d="M189.22,13.957v11.411c0,3.027-2.454,5.481-5.481,5.481l0,0
				c-3.027,0-5.481-2.454-5.481-5.481V13.957c0-3.027,2.454-5.481,5.481-5.481l0,0C186.766,8.476,189.22,10.93,189.22,13.957z"/>
			
				<linearGradient id="SVGID_10_" gradientUnits="userSpaceOnUse" x1="28.5793" y1="100.6919" x2="28.5793" y2="111.9691" gradientTransform="matrix(0 -1 1 0 112.4787 48.2419)">
				<stop  offset="0" style="stop-color:#FFDA45"/>
				<stop  offset="1" style="stop-color:#FFA425"/>
			</linearGradient>
			<path style="fill:url(#SVGID_10_);" d="M219.928,13.957v11.411c0,3.027-2.454,5.481-5.481,5.481l0,0
				c-3.027,0-5.481-2.454-5.481-5.481V13.957c0-3.027,2.454-5.481,5.481-5.481l0,0C217.474,8.476,219.928,10.93,219.928,13.957z"/>
			
				<linearGradient id="SVGID_11_" gradientUnits="userSpaceOnUse" x1="23.125" y1="131.3993" x2="23.125" y2="142.6764" gradientTransform="matrix(0 -1 1 0 112.4787 48.2419)">
				<stop  offset="0" style="stop-color:#FFDA45"/>
				<stop  offset="1" style="stop-color:#FFA425"/>
			</linearGradient>
			<path style="fill:url(#SVGID_11_);" d="M250.635,13.957v22.32c0,3.027-2.454,5.48-5.481,5.48l0,0c-3.027,0-5.48-2.454-5.48-5.48
				v-22.32c0-3.027,2.454-5.481,5.48-5.481l0,0C248.181,8.476,250.635,10.93,250.635,13.957z"/>
			
				<linearGradient id="SVGID_12_" gradientUnits="userSpaceOnUse" x1="28.5793" y1="162.1066" x2="28.5793" y2="173.3838" gradientTransform="matrix(0 -1 1 0 112.4787 48.2419)">
				<stop  offset="0" style="stop-color:#FFDA45"/>
				<stop  offset="1" style="stop-color:#FFA425"/>
			</linearGradient>
			<path style="fill:url(#SVGID_12_);" d="M281.342,13.957v11.411c0,3.027-2.454,5.481-5.481,5.481l0,0
				c-3.027,0-5.481-2.454-5.481-5.481V13.957c0-3.027,2.454-5.481,5.481-5.481l0,0C278.888,8.476,281.342,10.93,281.342,13.957z"/>
			
				<linearGradient id="SVGID_13_" gradientUnits="userSpaceOnUse" x1="28.5793" y1="192.814" x2="28.5793" y2="204.0911" gradientTransform="matrix(0 -1 1 0 112.4787 48.2419)">
				<stop  offset="0" style="stop-color:#FFDA45"/>
				<stop  offset="1" style="stop-color:#FFA425"/>
			</linearGradient>
			<path style="fill:url(#SVGID_13_);" d="M312.05,13.957v11.411c0,3.027-2.454,5.481-5.48,5.481l0,0
				c-3.027,0-5.481-2.454-5.481-5.481V13.957c0-3.027,2.454-5.481,5.481-5.481l0,0C309.596,8.476,312.05,10.93,312.05,13.957z"/>
			
				<linearGradient id="SVGID_14_" gradientUnits="userSpaceOnUse" x1="23.125" y1="223.5213" x2="23.125" y2="234.7986" gradientTransform="matrix(0 -1 1 0 112.4787 48.2419)">
				<stop  offset="0" style="stop-color:#FFDA45"/>
				<stop  offset="1" style="stop-color:#FFA425"/>
			</linearGradient>
			<path style="fill:url(#SVGID_14_);" d="M342.757,13.957v22.32c0,3.027-2.454,5.48-5.481,5.48l0,0
				c-3.027,0-5.481-2.454-5.481-5.48v-22.32c0-3.027,2.454-5.481,5.481-5.481l0,0C340.303,8.476,342.757,10.93,342.757,13.957z"/>
			
				<linearGradient id="SVGID_15_" gradientUnits="userSpaceOnUse" x1="28.5793" y1="254.2288" x2="28.5793" y2="265.506" gradientTransform="matrix(0 -1 1 0 112.4787 48.2419)">
				<stop  offset="0" style="stop-color:#FFDA45"/>
				<stop  offset="1" style="stop-color:#FFA425"/>
			</linearGradient>
			<path style="fill:url(#SVGID_15_);" d="M373.464,13.957v11.411c0,3.027-2.454,5.481-5.481,5.481l0,0
				c-3.027,0-5.481-2.454-5.481-5.481V13.957c0-3.027,2.454-5.481,5.481-5.481l0,0C371.011,8.476,373.464,10.93,373.464,13.957z"/>
			
				<linearGradient id="SVGID_16_" gradientUnits="userSpaceOnUse" x1="28.5793" y1="284.9361" x2="28.5793" y2="296.2132" gradientTransform="matrix(0 -1 1 0 112.4787 48.2419)">
				<stop  offset="0" style="stop-color:#FFDA45"/>
				<stop  offset="1" style="stop-color:#FFA425"/>
			</linearGradient>
			<path style="fill:url(#SVGID_16_);" d="M404.172,13.957v11.411c0,3.027-2.454,5.481-5.481,5.481l0,0
				c-3.027,0-5.48-2.454-5.48-5.481V13.957c0-3.027,2.454-5.481,5.48-5.481l0,0C401.718,8.476,404.172,10.93,404.172,13.957z"/>
			
				<linearGradient id="SVGID_17_" gradientUnits="userSpaceOnUse" x1="23.125" y1="315.6435" x2="23.125" y2="326.9207" gradientTransform="matrix(0 -1 1 0 112.4787 48.2419)">
				<stop  offset="0" style="stop-color:#FFDA45"/>
				<stop  offset="1" style="stop-color:#FFA425"/>
			</linearGradient>
			<path style="fill:url(#SVGID_17_);" d="M434.879,13.957v22.32c0,3.027-2.454,5.48-5.481,5.48l0,0
				c-3.027,0-5.481-2.454-5.481-5.48v-22.32c0-3.027,2.454-5.481,5.481-5.481l0,0C432.425,8.476,434.879,10.93,434.879,13.957z"/>
		</g>
		<g>
			
				<linearGradient id="SVGID_18_" gradientUnits="userSpaceOnUse" x1="12.9698" y1="127.6478" x2="12.9698" y2="138.925" gradientTransform="matrix(1 0 0 1 471.9132 -63.6764)">
				<stop  offset="0" style="stop-color:#FFDA45"/>
				<stop  offset="1" style="stop-color:#FFA425"/>
			</linearGradient>
			<path style="fill:url(#SVGID_18_);" d="M496.043,70.728h-22.32c-3.027,0-5.48-2.454-5.48-5.481l0,0
				c0-3.027,2.454-5.481,5.48-5.481h22.32c3.027,0,5.48,2.454,5.48,5.481l0,0C501.523,68.275,499.07,70.728,496.043,70.728z"/>
			
				<linearGradient id="SVGID_19_" gradientUnits="userSpaceOnUse" x1="18.4242" y1="158.3552" x2="18.4242" y2="169.6325" gradientTransform="matrix(1 0 0 1 471.9132 -63.6764)">
				<stop  offset="0" style="stop-color:#FFDA45"/>
				<stop  offset="1" style="stop-color:#FFA425"/>
			</linearGradient>
			<path style="fill:url(#SVGID_19_);" d="M496.043,101.436h-11.411c-3.027,0-5.48-2.454-5.48-5.481l0,0
				c0-3.027,2.454-5.481,5.48-5.481h11.411c3.027,0,5.48,2.454,5.48,5.481l0,0C501.523,98.982,499.07,101.436,496.043,101.436z"/>
			
				<linearGradient id="SVGID_20_" gradientUnits="userSpaceOnUse" x1="18.4242" y1="189.0626" x2="18.4242" y2="200.3397" gradientTransform="matrix(1 0 0 1 471.9132 -63.6764)">
				<stop  offset="0" style="stop-color:#FFDA45"/>
				<stop  offset="1" style="stop-color:#FFA425"/>
			</linearGradient>
			<path style="fill:url(#SVGID_20_);" d="M496.043,132.143h-11.411c-3.027,0-5.48-2.454-5.48-5.481l0,0
				c0-3.027,2.454-5.48,5.48-5.48h11.411c3.027,0,5.48,2.454,5.48,5.48l0,0C501.523,129.689,499.07,132.143,496.043,132.143z"/>
			
				<linearGradient id="SVGID_21_" gradientUnits="userSpaceOnUse" x1="12.9698" y1="219.7699" x2="12.9698" y2="231.0471" gradientTransform="matrix(1 0 0 1 471.9132 -63.6764)">
				<stop  offset="0" style="stop-color:#FFDA45"/>
				<stop  offset="1" style="stop-color:#FFA425"/>
			</linearGradient>
			<path style="fill:url(#SVGID_21_);" d="M496.043,162.85h-22.32c-3.027,0-5.48-2.454-5.48-5.481l0,0
				c0-3.027,2.454-5.481,5.48-5.481h22.32c3.027,0,5.48,2.454,5.48,5.481l0,0C501.523,160.397,499.07,162.85,496.043,162.85z"/>
			
				<linearGradient id="SVGID_22_" gradientUnits="userSpaceOnUse" x1="18.4242" y1="250.4773" x2="18.4242" y2="261.7544" gradientTransform="matrix(1 0 0 1 471.9132 -63.6764)">
				<stop  offset="0" style="stop-color:#FFDA45"/>
				<stop  offset="1" style="stop-color:#FFA425"/>
			</linearGradient>
			<path style="fill:url(#SVGID_22_);" d="M496.043,193.558h-11.411c-3.027,0-5.48-2.454-5.48-5.48l0,0
				c0-3.027,2.454-5.481,5.48-5.481h11.411c3.027,0,5.48,2.454,5.48,5.481l0,0C501.523,191.104,499.07,193.558,496.043,193.558z"/>
			
				<linearGradient id="SVGID_23_" gradientUnits="userSpaceOnUse" x1="18.4242" y1="281.1846" x2="18.4242" y2="292.4619" gradientTransform="matrix(1 0 0 1 471.9132 -63.6764)">
				<stop  offset="0" style="stop-color:#FFDA45"/>
				<stop  offset="1" style="stop-color:#FFA425"/>
			</linearGradient>
			<path style="fill:url(#SVGID_23_);" d="M496.043,224.265h-11.411c-3.027,0-5.48-2.454-5.48-5.481l0,0
				c0-3.027,2.454-5.481,5.48-5.481h11.411c3.027,0,5.48,2.454,5.48,5.481l0,0C501.523,221.811,499.07,224.265,496.043,224.265z"/>
			
				<linearGradient id="SVGID_24_" gradientUnits="userSpaceOnUse" x1="12.9698" y1="311.8921" x2="12.9698" y2="323.1693" gradientTransform="matrix(1 0 0 1 471.9132 -63.6764)">
				<stop  offset="0" style="stop-color:#FFDA45"/>
				<stop  offset="1" style="stop-color:#FFA425"/>
			</linearGradient>
			<path style="fill:url(#SVGID_24_);" d="M496.043,254.973h-22.32c-3.027,0-5.48-2.454-5.48-5.481l0,0
				c0-3.027,2.454-5.481,5.48-5.481h22.32c3.027,0,5.48,2.454,5.48,5.481l0,0C501.523,252.519,499.07,254.973,496.043,254.973z"/>
			
				<linearGradient id="SVGID_25_" gradientUnits="userSpaceOnUse" x1="18.4242" y1="342.5994" x2="18.4242" y2="353.8765" gradientTransform="matrix(1 0 0 1 471.9132 -63.6764)">
				<stop  offset="0" style="stop-color:#FFDA45"/>
				<stop  offset="1" style="stop-color:#FFA425"/>
			</linearGradient>
			<path style="fill:url(#SVGID_25_);" d="M496.043,285.68h-11.411c-3.027,0-5.48-2.454-5.48-5.481l0,0
				c0-3.027,2.454-5.48,5.48-5.48h11.411c3.027,0,5.48,2.454,5.48,5.48l0,0C501.523,283.226,499.07,285.68,496.043,285.68z"/>
			
				<linearGradient id="SVGID_26_" gradientUnits="userSpaceOnUse" x1="18.4242" y1="373.3067" x2="18.4242" y2="384.584" gradientTransform="matrix(1 0 0 1 471.9132 -63.6764)">
				<stop  offset="0" style="stop-color:#FFDA45"/>
				<stop  offset="1" style="stop-color:#FFA425"/>
			</linearGradient>
			<path style="fill:url(#SVGID_26_);" d="M496.043,316.387h-11.411c-3.027,0-5.48-2.454-5.48-5.481l0,0
				c0-3.027,2.454-5.481,5.48-5.481h11.411c3.027,0,5.48,2.454,5.48,5.481l0,0C501.523,313.934,499.07,316.387,496.043,316.387z"/>
			
				<linearGradient id="SVGID_27_" gradientUnits="userSpaceOnUse" x1="12.9698" y1="404.0141" x2="12.9698" y2="415.2912" gradientTransform="matrix(1 0 0 1 471.9132 -63.6764)">
				<stop  offset="0" style="stop-color:#FFDA45"/>
				<stop  offset="1" style="stop-color:#FFA425"/>
			</linearGradient>
			<path style="fill:url(#SVGID_27_);" d="M496.043,347.095h-22.32c-3.027,0-5.48-2.454-5.48-5.48l0,0
				c0-3.027,2.454-5.481,5.48-5.481h22.32c3.027,0,5.48,2.454,5.48,5.481l0,0C501.523,344.641,499.07,347.095,496.043,347.095z"/>
			
				<linearGradient id="SVGID_28_" gradientUnits="userSpaceOnUse" x1="18.4242" y1="434.7214" x2="18.4242" y2="445.9987" gradientTransform="matrix(1 0 0 1 471.9132 -63.6764)">
				<stop  offset="0" style="stop-color:#FFDA45"/>
				<stop  offset="1" style="stop-color:#FFA425"/>
			</linearGradient>
			<path style="fill:url(#SVGID_28_);" d="M496.043,377.802h-11.411c-3.027,0-5.48-2.454-5.48-5.481l0,0
				c0-3.027,2.454-5.481,5.48-5.481h11.411c3.027,0,5.48,2.454,5.48,5.481l0,0C501.523,375.348,499.07,377.802,496.043,377.802z"/>
			
				<linearGradient id="SVGID_29_" gradientUnits="userSpaceOnUse" x1="18.4242" y1="465.4288" x2="18.4242" y2="476.7059" gradientTransform="matrix(1 0 0 1 471.9132 -63.6764)">
				<stop  offset="0" style="stop-color:#FFDA45"/>
				<stop  offset="1" style="stop-color:#FFA425"/>
			</linearGradient>
			<path style="fill:url(#SVGID_29_);" d="M496.043,408.509h-11.411c-3.027,0-5.48-2.454-5.48-5.48l0,0
				c0-3.027,2.454-5.481,5.48-5.481h11.411c3.027,0,5.48,2.454,5.48,5.481l0,0C501.523,406.056,499.07,408.509,496.043,408.509z"/>
			
				<linearGradient id="SVGID_30_" gradientUnits="userSpaceOnUse" x1="12.9698" y1="496.1362" x2="12.9698" y2="507.4133" gradientTransform="matrix(1 0 0 1 471.9132 -63.6764)">
				<stop  offset="0" style="stop-color:#FFDA45"/>
				<stop  offset="1" style="stop-color:#FFA425"/>
			</linearGradient>
			<path style="fill:url(#SVGID_30_);" d="M496.043,439.217h-22.32c-3.027,0-5.48-2.454-5.48-5.481l0,0
				c0-3.027,2.454-5.48,5.48-5.48h22.32c3.027,0,5.48,2.454,5.48,5.48l0,0C501.523,436.763,499.07,439.217,496.043,439.217z"/>
		</g>
	</g>
	<path style="fill:#7E8595;" d="M420.901,501.303h-15c-6.903,0-12.5-5.597-12.5-12.5s5.597-12.5,12.5-12.5h15
		c6.903,0,12.5,5.597,12.5,12.5S427.805,501.303,420.901,501.303z M355.901,501.303h-15c-6.903,0-12.5-5.597-12.5-12.5
		s5.597-12.5,12.5-12.5h15c6.903,0,12.5,5.597,12.5,12.5S362.805,501.303,355.901,501.303z M290.901,501.303h-15
		c-6.903,0-12.5-5.597-12.5-12.5s5.597-12.5,12.5-12.5h15c6.903,0,12.5,5.597,12.5,12.5S297.805,501.303,290.901,501.303z
		 M225.901,501.303h-15c-6.903,0-12.5-5.597-12.5-12.5s5.597-12.5,12.5-12.5h15c6.903,0,12.5,5.597,12.5,12.5
		S232.805,501.303,225.901,501.303z M160.901,501.303h-15c-6.903,0-12.5-5.597-12.5-12.5s5.597-12.5,12.5-12.5h15
		c6.903,0,12.5,5.597,12.5,12.5S167.805,501.303,160.901,501.303z M95.901,501.303h-15c-6.903,0-12.5-5.597-12.5-12.5
		s5.597-12.5,12.5-12.5h15c6.903,0,12.5,5.597,12.5,12.5S102.805,501.303,95.901,501.303z M30.901,501.303h-9.705
		c-6.903,0-12.5-5.597-12.5-12.5v-5.295c0-6.903,5.597-12.5,12.5-12.5c4.226,0,7.961,2.096,10.224,5.306
		c6.663,0.272,11.981,5.76,11.981,12.489C43.401,495.707,37.805,501.303,30.901,501.303z M21.197,446.008
		c-6.903,0-12.5-5.597-12.5-12.5v-15c0-6.903,5.597-12.5,12.5-12.5s12.5,5.597,12.5,12.5v15
		C33.697,440.411,28.1,446.008,21.197,446.008z M21.197,381.008c-6.903,0-12.5-5.597-12.5-12.5v-15c0-6.903,5.597-12.5,12.5-12.5
		s12.5,5.597,12.5,12.5v15C33.697,375.411,28.1,381.008,21.197,381.008z M21.197,316.008c-6.903,0-12.5-5.597-12.5-12.5v-15
		c0-6.903,5.597-12.5,12.5-12.5s12.5,5.597,12.5,12.5v15C33.697,310.411,28.1,316.008,21.197,316.008z M21.197,251.008
		c-6.903,0-12.5-5.597-12.5-12.5v-15c0-6.903,5.597-12.5,12.5-12.5s12.5,5.597,12.5,12.5v15
		C33.697,245.411,28.1,251.008,21.197,251.008z M21.197,186.008c-6.903,0-12.5-5.597-12.5-12.5v-15c0-6.903,5.597-12.5,12.5-12.5
		s12.5,5.597,12.5,12.5v15C33.697,180.411,28.1,186.008,21.197,186.008z M21.197,121.008c-6.903,0-12.5-5.597-12.5-12.5v-15
		c0-6.903,5.597-12.5,12.5-12.5s12.5,5.597,12.5,12.5v15C33.697,115.411,28.1,121.008,21.197,121.008z"/>
	<g>
		<linearGradient id="SVGID_31_" gradientUnits="userSpaceOnUse" x1="16.6396" y1="473.4649" x2="51.0745" y2="507.8998">
			<stop  offset="0" style="stop-color:#92F37F"/>
			<stop  offset="1" style="stop-color:#4AB272"/>
		</linearGradient>
		<circle style="fill:url(#SVGID_31_);" cx="26.587" cy="483.413" r="26.587"/>
		<linearGradient id="SVGID_32_" gradientUnits="userSpaceOnUse" x1="29.7773" y1="487.9352" x2="13.3728" y2="464.6781">
			<stop  offset="0" style="stop-color:#92F37F;stop-opacity:0"/>
			<stop  offset="1" style="stop-color:#FFEE83"/>
		</linearGradient>
		<circle style="fill:url(#SVGID_32_);" cx="26.587" cy="483.413" r="22.189"/>
		<linearGradient id="SVGID_33_" gradientUnits="userSpaceOnUse" x1="27.5107" y1="493.6023" x2="64.0563" y2="425.6326">
			<stop  offset="0" style="stop-color:#4AB272;stop-opacity:0"/>
			<stop  offset="1" style="stop-color:#009245"/>
		</linearGradient>
		<path style="fill:url(#SVGID_33_);" d="M38.481,459.629c1.793,3.579,2.804,7.618,2.804,11.893
			c0,14.684-11.904,26.587-26.587,26.587c-4.276,0-8.314-1.011-11.893-2.804C7.169,504.018,16.179,510,26.587,510
			c14.684,0,26.587-11.904,26.587-26.587C53.175,473.004,47.193,463.995,38.481,459.629z"/>
	</g>
	<g>
		<linearGradient id="SVGID_34_" gradientUnits="userSpaceOnUse" x1="16.6396" y1="91.488" x2="51.0745" y2="125.9229">
			<stop  offset="0" style="stop-color:#92F37F"/>
			<stop  offset="1" style="stop-color:#4AB272"/>
		</linearGradient>
		<circle style="fill:url(#SVGID_34_);" cx="26.587" cy="101.436" r="26.587"/>
		<linearGradient id="SVGID_35_" gradientUnits="userSpaceOnUse" x1="29.7773" y1="105.9583" x2="13.3728" y2="82.7012">
			<stop  offset="0" style="stop-color:#92F37F;stop-opacity:0"/>
			<stop  offset="1" style="stop-color:#FFEE83"/>
		</linearGradient>
		<circle style="fill:url(#SVGID_35_);" cx="26.587" cy="101.436" r="22.189"/>
		<linearGradient id="SVGID_36_" gradientUnits="userSpaceOnUse" x1="27.5107" y1="111.6254" x2="64.0563" y2="43.6557">
			<stop  offset="0" style="stop-color:#4AB272;stop-opacity:0"/>
			<stop  offset="1" style="stop-color:#009245"/>
		</linearGradient>
		<path style="fill:url(#SVGID_36_);" d="M38.481,77.652c1.793,3.579,2.804,7.618,2.804,11.893
			c0,14.684-11.904,26.587-26.587,26.587c-4.276,0-8.314-1.011-11.893-2.804c4.365,8.712,13.375,14.694,23.783,14.694
			c14.684,0,26.587-11.904,26.587-26.587C53.175,91.028,47.193,82.018,38.481,77.652z"/>
	</g>
	<g>
		<linearGradient id="SVGID_37_" gradientUnits="userSpaceOnUse" x1="398.9094" y1="473.4649" x2="433.3443" y2="507.8998">
			<stop  offset="0" style="stop-color:#92F37F"/>
			<stop  offset="1" style="stop-color:#4AB272"/>
		</linearGradient>
		<circle style="fill:url(#SVGID_37_);" cx="408.857" cy="483.413" r="26.587"/>
		<linearGradient id="SVGID_38_" gradientUnits="userSpaceOnUse" x1="412.0471" y1="487.9352" x2="395.6425" y2="464.678">
			<stop  offset="0" style="stop-color:#92F37F;stop-opacity:0"/>
			<stop  offset="1" style="stop-color:#FFEE83"/>
		</linearGradient>
		<circle style="fill:url(#SVGID_38_);" cx="408.857" cy="483.413" r="22.189"/>
		<linearGradient id="SVGID_39_" gradientUnits="userSpaceOnUse" x1="409.7805" y1="493.6023" x2="446.3261" y2="425.6325">
			<stop  offset="0" style="stop-color:#4AB272;stop-opacity:0"/>
			<stop  offset="1" style="stop-color:#009245"/>
		</linearGradient>
		<path style="fill:url(#SVGID_39_);" d="M420.75,459.629c1.793,3.579,2.804,7.618,2.804,11.893
			c0,14.684-11.904,26.587-26.587,26.587c-4.276,0-8.315-1.011-11.893-2.804c4.365,8.712,13.375,14.694,23.783,14.694
			c14.684,0,26.587-11.904,26.587-26.587C435.444,473.004,429.463,463.995,420.75,459.629z"/>
	</g>
</g>
<g>
</g>
<g>
</g>
<g>
</g>
<g>
</g>
<g>
</g>
<g>
</g>
<g>
</g>
<g>
</g>
<g>
</g>
<g>
</g>
<g>
</g>
<g>
</g>
<g>
</g>
<g>
</g>
<g>
</g>
</svg>
