<?xml version="1.0" encoding="iso-8859-1"?>
<!-- Generator: Adobe Illustrator 22.0.0, SVG Export Plug-In . SVG Version: 6.00 Build 0)  -->
<svg version="1.1" id="Capa_1" xmlns="http://www.w3.org/2000/svg" xmlns:xlink="http://www.w3.org/1999/xlink" x="0px" y="0px"
	 viewBox="0 0 510 510" style="enable-background:new 0 0 510 510;" xml:space="preserve">
<g>
	
		<linearGradient id="SVGID_1_" gradientUnits="userSpaceOnUse" x1="145.971" y1="-1.6898" x2="231.3335" y2="-1.6898" gradientTransform="matrix(0.7071 0.7071 -0.7071 0.7071 326.0322 -76.3091)">
		<stop  offset="0" style="stop-color:#FF7044"/>
		<stop  offset="1" style="stop-color:#F92814"/>
	</linearGradient>
	<path style="fill:url(#SVGID_1_);" d="M477.824,113.926l-81.75-81.75l28.493-28.493c4.18-4.18,10.708-4.884,15.683-1.691l0,0
		c27.194,17.453,50.305,40.564,67.757,67.757l0,0c3.193,4.975,2.489,11.503-1.691,15.683L477.824,113.926z"/>
	
		<linearGradient id="SVGID_2_" gradientUnits="userSpaceOnUse" x1="193.4263" y1="13.4416" x2="136.6711" y2="-54.3493" gradientTransform="matrix(0.7071 0.7071 -0.7071 0.7071 326.0322 -76.3091)">
		<stop  offset="0" style="stop-color:#FF7044;stop-opacity:0"/>
		<stop  offset="1" style="stop-color:#FFA425"/>
	</linearGradient>
	<path style="fill:url(#SVGID_2_);" d="M477.824,113.926l28.493-28.493c0.677-0.677,1.253-1.42,1.746-2.204
		c-0.33-1.207-0.833-2.382-1.538-3.479l0,0c-17.453-27.194-40.564-50.305-67.757-67.757l0,0c-4.975-3.193-11.503-2.489-15.683,1.691
		l-22.751,22.751L477.824,113.926z"/>
	
		<linearGradient id="SVGID_3_" gradientUnits="userSpaceOnUse" x1="214.5786" y1="-47.1119" x2="232.9715" y2="18.577" gradientTransform="matrix(0.7071 0.7071 -0.7071 0.7071 326.0322 -76.3091)">
		<stop  offset="0" style="stop-color:#F92814;stop-opacity:0"/>
		<stop  offset="1" style="stop-color:#C1272D"/>
	</linearGradient>
	<path style="fill:url(#SVGID_3_);" d="M508.008,69.75L508.008,69.75c-2.956-4.606-6.087-9.084-9.36-13.448
		c-0.754,1.947-1.907,3.764-3.458,5.316l-34.837,34.837l17.471,17.471l28.493-28.493C510.497,81.253,511.201,74.725,508.008,69.75z"
		/>
	
		<linearGradient id="SVGID_4_" gradientUnits="userSpaceOnUse" x1="142.0044" y1="55.3047" x2="236.2601" y2="55.3047" gradientTransform="matrix(0.7071 0.7071 -0.7071 0.7071 326.0322 -76.3091)">
		<stop  offset="0" style="stop-color:#F9F7FC"/>
		<stop  offset="1" style="stop-color:#F0DDFC"/>
	</linearGradient>
	<path style="fill:url(#SVGID_4_);" d="M436.44,163.826l48.122-48.123c1.874-1.874,1.874-4.912,0-6.786l-83.48-83.48
		c-1.874-1.874-4.912-1.874-6.786,0L346.174,73.56L436.44,163.826z"/>
	
		<linearGradient id="SVGID_5_" gradientUnits="userSpaceOnUse" x1="190.7803" y1="90.5827" x2="175.0149" y2="12.8069" gradientTransform="matrix(0.7071 0.7071 -0.7071 0.7071 326.0322 -76.3091)">
		<stop  offset="0" style="stop-color:#F0DDFC;stop-opacity:0"/>
		<stop  offset="0.2889" style="stop-color:#C8B7E0;stop-opacity:0.2889"/>
		<stop  offset="0.5915" style="stop-color:#A595C8;stop-opacity:0.5915"/>
		<stop  offset="0.8395" style="stop-color:#8F81B8;stop-opacity:0.8395"/>
		<stop  offset="1" style="stop-color:#8779B3"/>
	</linearGradient>
	<polygon style="fill:url(#SVGID_5_);" points="370.412,49.261 370.412,229.854 460.815,139.512 370.488,49.185 	"/>
	
		<linearGradient id="SVGID_6_" gradientUnits="userSpaceOnUse" x1="183.7142" y1="39.1744" x2="184.5293" y2="58.3295" gradientTransform="matrix(0.7071 0.7071 -0.7071 0.7071 326.0322 -76.3091)">
		<stop  offset="0" style="stop-color:#F9F7FC"/>
		<stop  offset="1" style="stop-color:#F0DDFC"/>
	</linearGradient>
	<path style="fill:url(#SVGID_6_);" d="M457.921,137.475l-85.396-85.396c-4.277-4.278-4.277-11.213,0-15.491l0,0
		c4.278-4.278,11.213-4.278,15.491,0l85.396,85.396c4.277,4.278,4.277,11.213,0,15.491l0,0
		C469.134,141.753,462.199,141.753,457.921,137.475z"/>
	<g>
		
			<linearGradient id="SVGID_7_" gradientUnits="userSpaceOnUse" x1="120.2167" y1="566.3634" x2="247.8739" y2="566.3634" gradientTransform="matrix(0.7071 0.7071 -0.7071 0.7071 326.0322 -76.3091)">
			<stop  offset="0" style="stop-color:#FFDAAA"/>
			<stop  offset="0.4213" style="stop-color:#FFD8A8"/>
			<stop  offset="0.6519" style="stop-color:#FED1A0"/>
			<stop  offset="0.8359" style="stop-color:#FDC592"/>
			<stop  offset="0.9951" style="stop-color:#FCB47F"/>
			<stop  offset="1" style="stop-color:#FCB37E"/>
		</linearGradient>
		<path style="fill:url(#SVGID_7_);" d="M45.257,374.477L0.461,499.788c-2.167,6.063,3.688,11.918,9.751,9.751l125.312-44.796
			C160.524,439.743,70.257,349.476,45.257,374.477z"/>
		
			<linearGradient id="SVGID_8_" gradientUnits="userSpaceOnUse" x1="208.6376" y1="571.1968" x2="108.7908" y2="555.4316" gradientTransform="matrix(0.7071 0.7071 -0.7071 0.7071 326.0322 -76.3091)">
			<stop  offset="0" style="stop-color:#FFDAAA;stop-opacity:0"/>
			<stop  offset="0.2507" style="stop-color:#FFE7C8;stop-opacity:0.2507"/>
			<stop  offset="0.5543" style="stop-color:#FFF4E6;stop-opacity:0.5543"/>
			<stop  offset="0.8148" style="stop-color:#FFFCF8;stop-opacity:0.8148"/>
			<stop  offset="1" style="stop-color:#FFFFFF"/>
		</linearGradient>
		<path style="fill:url(#SVGID_8_);" d="M67.105,395.234L1.181,505.396c-0.106,0.178-0.184,0.354-0.274,0.531
			c1.673,3.112,5.442,4.994,9.306,3.613l125.312-44.796c0.193-0.193,0.359-0.402,0.538-0.603
			C143.497,434.923,91.531,375.704,67.105,395.234z"/>
		
			<linearGradient id="SVGID_9_" gradientUnits="userSpaceOnUse" x1="120.2167" y1="312.8455" x2="247.8739" y2="312.8455" gradientTransform="matrix(0.7071 0.7071 -0.7071 0.7071 326.0322 -76.3091)">
			<stop  offset="0" style="stop-color:#FFDA45"/>
			<stop  offset="1" style="stop-color:#FFA425"/>
		</linearGradient>
		<path style="fill:url(#SVGID_9_);" d="M444.069,156.198L135.523,464.743c-1.196-2.074-2.69-4.028-4.459-5.797
			c-11.044-11.044-28.954-11.044-39.998,0c-0.498,0.498,1.427-1.546,1.427-1.546c9.594-11.111,9.119-27.907-1.434-38.46
			s-27.349-11.029-38.46-1.434c0,0-2.044,1.925-1.546,1.427c11.044-11.044,11.044-28.954,0-39.998
			c-1.769-1.769-3.723-3.263-5.797-4.459L353.802,65.931L444.069,156.198z"/>
		
			<linearGradient id="SVGID_10_" gradientUnits="userSpaceOnUse" x1="152.3325" y1="311.7378" x2="253.7662" y2="311.7378" gradientTransform="matrix(0.7071 0.7071 -0.7071 0.7071 326.0322 -76.3091)">
			<stop  offset="0" style="stop-color:#FFDA45"/>
			<stop  offset="1" style="stop-color:#FFA425"/>
		</linearGradient>
		<path style="fill:url(#SVGID_10_);" d="M418.882,131.012L92.493,457.401c9.594-11.111,9.119-27.907-1.434-38.46
			s-27.349-11.029-38.46-1.434L378.988,91.118L418.882,131.012z"/>
		<linearGradient id="SVGID_11_" gradientUnits="userSpaceOnUse" x1="256.2772" y1="302.3959" x2="182.2773" y2="177.3958">
			<stop  offset="0" style="stop-color:#FFDA45;stop-opacity:0"/>
			<stop  offset="1" style="stop-color:#FCEE21"/>
		</linearGradient>
		<path style="fill:url(#SVGID_11_);" d="M51.054,418.934c-0.498,0.498,1.546-1.427,1.546-1.427
			c11.111-9.594,27.907-9.119,38.46,1.434c10.553,10.553,11.029,27.349,1.434,38.46c0,0-1.925,2.044-1.427,1.546
			c11.044-11.044,28.954-11.044,39.998,0c1.769,1.769,3.263,3.723,4.459,5.797l308.545-308.545l-79.53-79.53l-308.68,308.68
			C61.746,396.086,60.15,409.838,51.054,418.934z"/>
		
			<linearGradient id="SVGID_12_" gradientUnits="userSpaceOnUse" x1="180.1916" y1="625.3261" x2="212.7638" y2="625.3261" gradientTransform="matrix(0.7071 0.7071 -0.7071 0.7071 326.0322 -76.3091)">
			<stop  offset="0" style="stop-color:#7E8595"/>
			<stop  offset="1" style="stop-color:#555A66"/>
		</linearGradient>
		<path style="fill:url(#SVGID_12_);" d="M25.755,484.245c-4.742-4.742-10.042-8.547-15.649-11.438l-9.646,26.982
			c-2.168,6.063,3.688,11.918,9.751,9.751l26.982-9.645C34.303,494.287,30.498,488.987,25.755,484.245z"/>
	</g>
	
		<linearGradient id="SVGID_13_" gradientUnits="userSpaceOnUse" x1="225.2222" y1="189.1231" x2="142.7167" y2="12.5509" gradientTransform="matrix(0.7071 0.7071 -0.7071 0.7071 326.0322 -76.3091)">
		<stop  offset="0" style="stop-color:#FFDA45;stop-opacity:0"/>
		<stop  offset="1" style="stop-color:#B53759"/>
	</linearGradient>
	<polygon style="fill:url(#SVGID_13_);" points="339.553,80.121 339.764,260.563 429.955,170.371 339.629,80.045 	"/>
	
		<linearGradient id="SVGID_14_" gradientUnits="userSpaceOnUse" x1="183.7142" y1="82.8405" x2="184.5293" y2="101.9955" gradientTransform="matrix(0.7071 0.7071 -0.7071 0.7071 326.0322 -76.3091)">
		<stop  offset="0" style="stop-color:#F9F7FC"/>
		<stop  offset="1" style="stop-color:#F0DDFC"/>
	</linearGradient>
	<path style="fill:url(#SVGID_14_);" d="M427.045,168.351l-85.396-85.396c-4.278-4.278-4.278-11.213,0-15.49l0,0
		c4.278-4.278,11.213-4.278,15.49,0l85.396,85.396c4.278,4.278,4.278,11.213,0,15.49l0,0
		C438.258,172.629,431.322,172.629,427.045,168.351z"/>
</g>
<g>
</g>
<g>
</g>
<g>
</g>
<g>
</g>
<g>
</g>
<g>
</g>
<g>
</g>
<g>
</g>
<g>
</g>
<g>
</g>
<g>
</g>
<g>
</g>
<g>
</g>
<g>
</g>
<g>
</g>
</svg>
