<?xml version="1.0" encoding="iso-8859-1"?>
<!-- Generator: Adobe Illustrator 22.0.0, SVG Export Plug-In . SVG Version: 6.00 Build 0)  -->
<svg version="1.1" id="Capa_1" xmlns="http://www.w3.org/2000/svg" xmlns:xlink="http://www.w3.org/1999/xlink" x="0px" y="0px"
	 viewBox="0 0 510 510" style="enable-background:new 0 0 510 510;" xml:space="preserve">
<g>
	
		<linearGradient id="SVGID_1_" gradientUnits="userSpaceOnUse" x1="246.6238" y1="595.027" x2="256.1848" y2="595.027" gradientTransform="matrix(0.7071 0.7071 -0.7071 0.7071 260.8246 -103.3211)">
		<stop  offset="0" style="stop-color:#7E8595"/>
		<stop  offset="1" style="stop-color:#555A66"/>
	</linearGradient>
	<path style="fill:url(#SVGID_1_);" d="M20.407,467.292C4.307,490.001-2.944,504.854,1.101,508.899
		c4.045,4.045,18.898-3.206,41.608-19.306L20.407,467.292z"/>
	
		<linearGradient id="SVGID_2_" gradientUnits="userSpaceOnUse" x1="220.3113" y1="219.8091" x2="296.0368" y2="219.8091" gradientTransform="matrix(0.7071 0.7071 -0.7071 0.7071 260.8246 -103.3211)">
		<stop  offset="0" style="stop-color:#7E8595"/>
		<stop  offset="1" style="stop-color:#555A66"/>
	</linearGradient>
	<path style="fill:url(#SVGID_2_);" d="M308.833,297.091c-44.613,44.613-88.78,84.089-128.878,115.994
		C98.723,477.719,94.181,434.149,58,452c10.32-35.603-25.719-40.723,38.915-121.955c31.905-40.099,71.381-84.265,115.994-128.878
		C347.899,66.177,478.803-21.78,505.292,4.708C531.78,31.197,443.823,162.101,308.833,297.091z"/>
	
		<linearGradient id="SVGID_3_" gradientUnits="userSpaceOnUse" x1="267.377" y1="244.6068" x2="38.4585" y2="302.4943" gradientTransform="matrix(0.7071 0.7071 -0.7071 0.7071 260.8246 -103.3211)">
		<stop  offset="0" style="stop-color:#BEC3D2;stop-opacity:0"/>
		<stop  offset="0.221" style="stop-color:#C5C9D7;stop-opacity:0.221"/>
		<stop  offset="0.5343" style="stop-color:#D7DAE3;stop-opacity:0.5343"/>
		<stop  offset="0.9014" style="stop-color:#F6F6F8;stop-opacity:0.9014"/>
		<stop  offset="1" style="stop-color:#FFFFFF"/>
	</linearGradient>
	<path style="fill:url(#SVGID_3_);" d="M290.931,279.189C155.941,414.178,33.052,510.151,16.45,493.55s79.371-139.49,214.361-274.48
		S488.69-11.893,505.292,4.708C521.893,21.31,425.92,144.199,290.931,279.189z"/>
	
		<linearGradient id="SVGID_4_" gradientUnits="userSpaceOnUse" x1="224.2003" y1="506.8802" x2="289.7511" y2="506.8802" gradientTransform="matrix(0.7071 0.7071 -0.7071 0.7071 260.8246 -103.3211)">
		<stop  offset="0" style="stop-color:#FFDA45"/>
		<stop  offset="1" style="stop-color:#FFA425"/>
	</linearGradient>
	<path style="fill:url(#SVGID_4_);" d="M140.865,369.135c-14.302-14.302-29.048-27.357-43.948-39.088
		C32.286,411.277-1.284,475.816,16.45,493.55s82.273-15.836,163.502-80.467C168.222,398.183,155.168,383.437,140.865,369.135z"/>
	
		<linearGradient id="SVGID_5_" gradientUnits="userSpaceOnUse" x1="271.2285" y1="504.6197" x2="198.8693" y2="509.8821" gradientTransform="matrix(0.7071 0.7071 -0.7071 0.7071 260.8246 -103.3211)">
		<stop  offset="0" style="stop-color:#FFDA45;stop-opacity:0"/>
		<stop  offset="1" style="stop-color:#FCEE21"/>
	</linearGradient>
	<path style="fill:url(#SVGID_5_);" d="M166.038,396.213c-7.898-9.151-16.294-18.2-25.172-27.079
		c-8.878-8.878-17.928-17.274-27.079-25.172C45.218,422.882,5.261,482.36,16.45,493.55
		C27.64,504.739,87.118,464.783,166.038,396.213z"/>
	
		<linearGradient id="SVGID_6_" gradientUnits="userSpaceOnUse" x1="316.8141" y1="173.3684" x2="263.3121" y2="159.3351" gradientTransform="matrix(0.7071 0.7071 -0.7071 0.7071 260.8246 -103.3211)">
		<stop  offset="0" style="stop-color:#555A66;stop-opacity:0"/>
		<stop  offset="1" style="stop-color:#555A66"/>
	</linearGradient>
	<path style="fill:url(#SVGID_6_);" d="M308.833,297.091c54.793-54.793,101.836-108.912,136.622-155.649l0-48.675
		c0.49-4.386-0.946-8.896-4.249-12.199c-3.925-3.925-7.85-7.85-11.775-11.775c-5.139-5.139-13.203-5.785-19.169-1.635
		c-61.96,43.098-92.253,116.438-152.29,161.356c-4.981,3.727-7.279,9.58-6.726,15.235l0,108.366
		C270.16,334.874,289.453,316.471,308.833,297.091z"/>
	<g>
		
			<linearGradient id="SVGID_7_" gradientUnits="userSpaceOnUse" x1="226.2424" y1="11.6326" x2="286.4502" y2="11.6326" gradientTransform="matrix(0.7071 0.7071 -0.7071 0.7071 260.8246 -103.3211)">
			<stop  offset="0" style="stop-color:#FFDA45"/>
			<stop  offset="1" style="stop-color:#FFA425"/>
		</linearGradient>
		<path style="fill:url(#SVGID_7_);" d="M440.449,69.551c-11.009-11.008-22.281-21.266-33.683-30.76
			c-1.73-1.441-4.199-1.56-6.073-0.313c-5.316,3.538-12.488,8.547-17.339,12.003c-2.721,1.938-2.871,5.932-0.291,8.054
			c12.141,9.989,24.145,20.847,35.85,32.552c11.705,11.705,22.563,23.709,32.552,35.85c2.122,2.58,6.116,2.429,8.054-0.291
			c3.456-4.852,8.465-12.023,12.003-17.339c1.247-1.874,1.128-4.343-0.313-6.073C461.715,91.832,451.458,80.559,440.449,69.551z"/>
		
			<linearGradient id="SVGID_8_" gradientUnits="userSpaceOnUse" x1="240.5562" y1="12.7142" x2="201.7453" y2="14.3587" gradientTransform="matrix(0.7071 0.7071 -0.7071 0.7071 260.8246 -103.3211)">
			<stop  offset="0" style="stop-color:#FFDA45;stop-opacity:0"/>
			<stop  offset="1" style="stop-color:#FCEE21"/>
		</linearGradient>
		<path style="fill:url(#SVGID_8_);" d="M459.519,126.647c3.455-4.852,8.465-12.023,12.003-17.339
			c1.247-1.874,1.128-4.343-0.313-6.073c-8.073-9.696-16.732-19.287-25.902-28.713c-9.426-9.17-19.017-17.829-28.713-25.902
			c-1.73-1.44-4.199-1.56-6.073-0.313c-5.316,3.538-12.487,8.547-17.339,12.003c-1.679,1.196-2.376,3.173-2.06,5.012
			c9.393,8.071,18.683,16.659,27.79,25.766c1.644,1.644,3.267,3.295,4.878,4.951c1.655,1.611,3.307,3.234,4.951,4.878
			c9.108,9.107,17.695,18.397,25.766,27.79C456.345,129.022,458.323,128.325,459.519,126.647z"/>
	</g>
	
		<linearGradient id="SVGID_9_" gradientUnits="userSpaceOnUse" x1="301.0391" y1="62.8795" x2="246.6602" y2="16.8328" gradientTransform="matrix(0.7071 0.7071 -0.7071 0.7071 260.8246 -103.3211)">
		<stop  offset="0" style="stop-color:#FFDA45;stop-opacity:0"/>
		<stop  offset="1" style="stop-color:#B53759"/>
	</linearGradient>
	<path style="fill:url(#SVGID_9_);" d="M418.912,91.088c9.401,9.401,18.246,18.997,26.543,28.7V92.767
		c0.49-4.386-0.946-8.896-4.249-12.199c-3.925-3.925-7.85-7.85-11.775-11.775c-5.139-5.139-13.203-5.785-19.169-1.635
		c-3.175,2.208-6.247,4.515-9.264,6.874C407.032,79.5,413.01,85.186,418.912,91.088z"/>
	<g>
		<g>
			
				<linearGradient id="SVGID_10_" gradientUnits="userSpaceOnUse" x1="237.9543" y1="129.2391" x2="267.5204" y2="129.2391" gradientTransform="matrix(0.7071 0.7071 -0.7071 0.7071 260.8246 -103.3211)">
				<stop  offset="0" style="stop-color:#FFDA45"/>
				<stop  offset="1" style="stop-color:#FFA425"/>
			</linearGradient>
			<path style="fill:url(#SVGID_10_);" d="M256.056,253.943L256.056,253.943c-7.277-7.277-6.325-19.263,1.916-25.428
				c60.037-44.919,90.33-118.259,152.29-161.356c5.966-4.15,14.03-3.504,19.169,1.635c3.925,3.925,7.85,7.85,11.775,11.775
				c5.139,5.139,5.785,13.203,1.635,19.169c-43.096,61.961-116.438,92.253-161.357,152.291
				C275.32,260.268,263.333,261.22,256.056,253.943z"/>
		</g>
		
			<linearGradient id="SVGID_11_" gradientUnits="userSpaceOnUse" x1="268.0413" y1="129.7397" x2="228.5726" y2="125.7929" gradientTransform="matrix(0.7071 0.7071 -0.7071 0.7071 260.8246 -103.3211)">
			<stop  offset="0" style="stop-color:#FFDA45;stop-opacity:0"/>
			<stop  offset="1" style="stop-color:#FCEE21"/>
		</linearGradient>
		<path style="fill:url(#SVGID_11_);" d="M419.1,75.996c-61.96,43.098-92.253,116.438-152.29,161.356
			c-6.458,4.831-8.416,13.231-5.469,20.144c6.913,2.947,15.313,0.989,20.144-5.469c44.919-60.037,118.261-90.329,161.357-152.291
			c4.15-5.966,3.503-14.03-1.635-19.169c-0.979-0.979-1.958-1.958-2.937-2.938C433.13,72.492,425.066,71.846,419.1,75.996z"/>
	</g>
</g>
<g>
</g>
<g>
</g>
<g>
</g>
<g>
</g>
<g>
</g>
<g>
</g>
<g>
</g>
<g>
</g>
<g>
</g>
<g>
</g>
<g>
</g>
<g>
</g>
<g>
</g>
<g>
</g>
<g>
</g>
</svg>
