<?xml version="1.0" encoding="iso-8859-1"?>
<!-- Generator: Adobe Illustrator 22.0.0, SVG Export Plug-In . SVG Version: 6.00 Build 0)  -->
<svg version="1.1" id="Capa_1" xmlns="http://www.w3.org/2000/svg" xmlns:xlink="http://www.w3.org/1999/xlink" x="0px" y="0px"
	 viewBox="0 0 510 510" style="enable-background:new 0 0 510 510;" xml:space="preserve">
<g>
	<g>
		<g>
			<linearGradient id="SVGID_1_" gradientUnits="userSpaceOnUse" x1="46.0713" y1="119.0331" x2="135.9215" y2="208.8834">
				<stop  offset="0" style="stop-color:#FF7044"/>
				<stop  offset="1" style="stop-color:#F92814"/>
			</linearGradient>
			<circle style="fill:url(#SVGID_1_);" cx="72.028" cy="144.99" r="69.374"/>
			<linearGradient id="SVGID_2_" gradientUnits="userSpaceOnUse" x1="80.3512" y1="156.79" x2="37.5471" y2="96.1057">
				<stop  offset="0" style="stop-color:#FF7044;stop-opacity:0"/>
				<stop  offset="1" style="stop-color:#FFA425"/>
			</linearGradient>
			<circle style="fill:url(#SVGID_2_);" cx="72.028" cy="144.99" r="57.898"/>
			<linearGradient id="SVGID_3_" gradientUnits="userSpaceOnUse" x1="74.437" y1="171.5771" x2="169.7946" y2="-5.7748">
				<stop  offset="0" style="stop-color:#F92814;stop-opacity:0"/>
				<stop  offset="1" style="stop-color:#C1272D"/>
			</linearGradient>
			<path style="fill:url(#SVGID_3_);" d="M103.061,82.932c4.679,9.338,7.316,19.877,7.316,31.033
				c0,38.314-31.06,69.374-69.374,69.374c-11.156,0-21.695-2.637-31.033-7.316c11.39,22.733,34.9,38.341,62.058,38.341
				c38.314,0,69.374-31.059,69.374-69.374C141.402,117.832,125.794,94.322,103.061,82.932z"/>
		</g>
	</g>
	<linearGradient id="SVGID_4_" gradientUnits="userSpaceOnUse" x1="130.2729" y1="203.0054" x2="118.1676" y2="182.5926">
		<stop  offset="0" style="stop-color:#F92814;stop-opacity:0"/>
		<stop  offset="1" style="stop-color:#C1272D"/>
	</linearGradient>
	<path style="fill:url(#SVGID_4_);" d="M129.509,183.839l-26.364-8.699l18.409,18.409
		C124.485,190.561,127.155,187.317,129.509,183.839z"/>
	<linearGradient id="SVGID_5_" gradientUnits="userSpaceOnUse" x1="142.4788" y1="170.4995" x2="134.646" y2="188.3013">
		<stop  offset="0" style="stop-color:#7E8595"/>
		<stop  offset="1" style="stop-color:#555A66"/>
	</linearGradient>
	<path style="fill:url(#SVGID_5_);" d="M96.269,151.834L96.269,151.834c4.02-10.087,15.456-15.006,25.543-10.986l56.078,22.347
		c10.087,4.02,15.006,15.456,10.986,25.543l0,0c-4.02,10.087-15.456,15.006-25.543,10.986l-56.078-22.347
		C97.168,173.358,92.249,161.922,96.269,151.834z"/>
	<g>
		<g>
			<linearGradient id="SVGID_6_" gradientUnits="userSpaceOnUse" x1="234.7522" y1="174.5923" x2="404.3727" y2="344.2129">
				<stop  offset="0" style="stop-color:#92F37F"/>
				<stop  offset="1" style="stop-color:#4AB272"/>
			</linearGradient>
			<circle style="fill:url(#SVGID_6_);" cx="283.753" cy="223.593" r="130.965"/>
			<linearGradient id="SVGID_7_" gradientUnits="userSpaceOnUse" x1="299.4664" y1="245.8703" x2="218.6601" y2="131.3096">
				<stop  offset="0" style="stop-color:#92F37F;stop-opacity:0"/>
				<stop  offset="1" style="stop-color:#FFEE83"/>
			</linearGradient>
			<circle style="fill:url(#SVGID_7_);" cx="283.753" cy="223.593" r="109.302"/>
			<linearGradient id="SVGID_8_" gradientUnits="userSpaceOnUse" x1="288.3015" y1="273.7856" x2="468.3191" y2="-61.022">
				<stop  offset="0" style="stop-color:#4AB272;stop-opacity:0"/>
				<stop  offset="1" style="stop-color:#009245"/>
			</linearGradient>
			<path style="fill:url(#SVGID_8_);" d="M342.338,106.44c8.833,17.629,13.812,37.524,13.812,58.585
				c0,72.33-58.635,130.965-130.965,130.965c-21.061,0-40.956-4.979-58.585-13.812c21.503,42.916,65.884,72.38,117.153,72.38
				c72.33,0,130.965-58.635,130.965-130.964C414.718,172.324,385.253,127.943,342.338,106.44z"/>
			<linearGradient id="SVGID_9_" gradientUnits="userSpaceOnUse" x1="426.8738" y1="210.6262" x2="348.0092" y2="131.7616">
				<stop  offset="0" style="stop-color:#4AB272;stop-opacity:0"/>
				<stop  offset="1" style="stop-color:#009245"/>
			</linearGradient>
			<path style="fill:url(#SVGID_9_);" d="M414.655,227.519c0.038-1.304,0.064-2.612,0.064-3.926
				c0-35.899-14.449-68.421-37.843-92.078l-29.635,28.59L414.655,227.519z"/>
		</g>
	</g>
	<linearGradient id="SVGID_10_" gradientUnits="userSpaceOnUse" x1="365.1125" y1="350.4285" x2="329.9835" y2="320.5215">
		<stop  offset="0" style="stop-color:#4AB272;stop-opacity:0"/>
		<stop  offset="1" style="stop-color:#009245"/>
	</linearGradient>
	<path style="fill:url(#SVGID_10_);" d="M331.094,308.724l8.982,33.133c5.36-2.557,10.517-5.472,15.444-8.706L331.094,308.724z"/>
	
		<linearGradient id="SVGID_11_" gradientUnits="userSpaceOnUse" x1="768.1667" y1="-2808.9854" x2="807.4899" y2="-2808.9854" gradientTransform="matrix(-0.9481 0.3178 -0.3178 -0.9481 179.2753 -2564.406)">
		<stop  offset="0" style="stop-color:#7E8595"/>
		<stop  offset="1" style="stop-color:#555A66"/>
	</linearGradient>
	<path style="fill:url(#SVGID_11_);" d="M309.254,302.061L309.254,302.061c10.296-3.451,21.44,2.097,24.891,12.393l19.187,57.237
		c3.451,10.296-2.097,21.44-12.393,24.891h0c-10.296,3.451-21.44-2.097-24.891-12.393l-19.187-57.237
		C293.41,316.656,298.958,305.512,309.254,302.061z"/>
	<g>
		
			<linearGradient id="SVGID_12_" gradientUnits="userSpaceOnUse" x1="1423.9243" y1="-353.3967" x2="1463.2474" y2="-353.3967" gradientTransform="matrix(0.7071 0.7071 -0.7071 0.7071 -878.4607 -655.7319)">
			<stop  offset="0" style="stop-color:#7E8595"/>
			<stop  offset="1" style="stop-color:#555A66"/>
		</linearGradient>
		<path style="fill:url(#SVGID_12_);" d="M347.241,160.105L347.241,160.105c-7.678-7.678-7.678-20.127,0-27.806l62.109-62.109
			c7.678-7.678,20.127-7.678,27.806,0l0,0c7.678,7.678,7.678,20.127,0,27.806l-62.109,62.109
			C367.368,167.784,354.919,167.784,347.241,160.105z"/>
		<g>
			<g>
				<linearGradient id="SVGID_13_" gradientUnits="userSpaceOnUse" x1="412.016" y1="43.4174" x2="501.8662" y2="133.2677">
					<stop  offset="0" style="stop-color:#18CFFC"/>
					<stop  offset="1" style="stop-color:#4A98F7"/>
				</linearGradient>
				<circle style="fill:url(#SVGID_13_);" cx="437.972" cy="69.374" r="69.374"/>
				<linearGradient id="SVGID_14_" gradientUnits="userSpaceOnUse" x1="446.2959" y1="81.1743" x2="403.4918" y2="20.49">
					<stop  offset="0" style="stop-color:#18CFFC;stop-opacity:0"/>
					<stop  offset="1" style="stop-color:#65E1DC"/>
				</linearGradient>
				<circle style="fill:url(#SVGID_14_);" cx="437.972" cy="69.374" r="57.899"/>
				<linearGradient id="SVGID_15_" gradientUnits="userSpaceOnUse" x1="440.3817" y1="95.9614" x2="535.7393" y2="-81.3905">
					<stop  offset="0" style="stop-color:#0469BC;stop-opacity:0"/>
					<stop  offset="1" style="stop-color:#0469BC"/>
				</linearGradient>
				<path style="fill:url(#SVGID_15_);" d="M469.005,7.316c4.679,9.338,7.316,19.877,7.316,31.033
					c0,38.314-31.06,69.374-69.374,69.374c-11.156,0-21.695-2.637-31.033-7.316c11.39,22.733,34.899,38.341,62.058,38.341
					c38.314,0,69.374-31.06,69.374-69.374C507.346,42.216,491.738,18.707,469.005,7.316z"/>
			</g>
		</g>
	</g>
	<g>
		<g>
			
				<linearGradient id="SVGID_16_" gradientUnits="userSpaceOnUse" x1="1170.4639" y1="378.762" x2="1260.3138" y2="468.612" gradientTransform="matrix(0.9607 0.2776 -0.2776 0.9607 -676.9999 -280.331)">
				<stop  offset="0" style="stop-color:#FFDA45"/>
				<stop  offset="1" style="stop-color:#FFA425"/>
			</linearGradient>
			<circle style="fill:url(#SVGID_16_);" cx="360.051" cy="440.608" r="69.374"/>
			
				<linearGradient id="SVGID_17_" gradientUnits="userSpaceOnUse" x1="1204.7437" y1="416.5188" x2="1161.9397" y2="355.8347" gradientTransform="matrix(0.9607 0.2776 -0.2776 0.9607 -676.9999 -280.331)">
				<stop  offset="0" style="stop-color:#FFDA45;stop-opacity:0"/>
				<stop  offset="1" style="stop-color:#FCEE21"/>
			</linearGradient>
			<circle style="fill:url(#SVGID_17_);" cx="360.051" cy="440.608" r="57.898"/>
			
				<linearGradient id="SVGID_18_" gradientUnits="userSpaceOnUse" x1="1198.8302" y1="431.3063" x2="1294.1876" y2="253.9549" gradientTransform="matrix(0.9607 0.2776 -0.2776 0.9607 -676.9999 -280.331)">
				<stop  offset="0" style="stop-color:#FFDA45;stop-opacity:0"/>
				<stop  offset="1" style="stop-color:#B53759"/>
			</linearGradient>
			<path style="fill:url(#SVGID_18_);" d="M407.09,389.603c1.903,10.27,1.512,21.127-1.585,31.844
				c-10.635,36.809-49.095,58.027-85.904,47.392c-10.718-3.097-20.11-8.556-27.783-15.643c4.633,25.001,22.886,46.521,48.977,54.06
				c36.809,10.635,75.269-10.583,85.904-47.392C434.237,433.773,425.768,406.856,407.09,389.603z"/>
		</g>
	</g>
</g>
<g>
</g>
<g>
</g>
<g>
</g>
<g>
</g>
<g>
</g>
<g>
</g>
<g>
</g>
<g>
</g>
<g>
</g>
<g>
</g>
<g>
</g>
<g>
</g>
<g>
</g>
<g>
</g>
<g>
</g>
</svg>
