<?xml version="1.0" encoding="iso-8859-1"?>
<!-- Generator: Adobe Illustrator 22.0.0, SVG Export Plug-In . SVG Version: 6.00 Build 0)  -->
<svg version="1.1" id="Capa_1" xmlns="http://www.w3.org/2000/svg" xmlns:xlink="http://www.w3.org/1999/xlink" x="0px" y="0px"
	 viewBox="0 0 510 510" style="enable-background:new 0 0 510 510;" xml:space="preserve">
<g>
	<g>
		<linearGradient id="SVGID_1_" gradientUnits="userSpaceOnUse" x1="187.9684" y1="317.2113" x2="374.6431" y2="560.0402">
			<stop  offset="0" style="stop-color:#4A98F7"/>
			<stop  offset="1" style="stop-color:#0469BC"/>
		</linearGradient>
		<path style="fill:url(#SVGID_1_);" d="M254.576,223.745c-66.18,0.229-119.321,54.863-119.321,121.044v159.196
			c0,4.851,5.456,7.7,9.436,4.926l98.956-68.947c6.822-4.753,15.883-4.753,22.705,0l98.956,68.947
			c3.98,2.773,9.436-0.075,9.436-4.926V343.489C374.745,277.215,320.904,223.516,254.576,223.745z"/>
		<g>
			<linearGradient id="SVGID_2_" gradientUnits="userSpaceOnUse" x1="263.8434" y1="431.7159" x2="255.502" y2="314.1021">
				<stop  offset="0" style="stop-color:#0469BC;stop-opacity:0"/>
				<stop  offset="1" style="stop-color:#0469BC"/>
			</linearGradient>
			<path style="fill:url(#SVGID_2_);" d="M374.745,503.985V343.489c0-66.275-53.841-119.974-120.168-119.744
				c-56.88,0.197-104.128,40.583-116.284,93.947l0.333,1.484l117.258,117.258c3.673,0.163,7.312,1.332,10.47,3.532l98.957,68.947
				C369.289,511.685,374.745,508.837,374.745,503.985z"/>
			<linearGradient id="SVGID_3_" gradientUnits="userSpaceOnUse" x1="137.5736" y1="325.1146" x2="245.2454" y2="465.1753">
				<stop  offset="0" style="stop-color:#F9F7FC"/>
				<stop  offset="1" style="stop-color:#F0DDFC"/>
			</linearGradient>
			<path style="fill:url(#SVGID_3_);" d="M186.197,245.789V479.99l-25.505,17.772V270.319c7.255-9.369,15.842-17.65,25.485-24.509
				L186.197,245.789z"/>
			<linearGradient id="SVGID_4_" gradientUnits="userSpaceOnUse" x1="292.8876" y1="318.0402" x2="417.8318" y2="480.5692">
				<stop  offset="0" style="stop-color:#F9F7FC"/>
				<stop  offset="1" style="stop-color:#F0DDFC"/>
			</linearGradient>
			<path style="fill:url(#SVGID_4_);" d="M349.308,269.699v228.063l-25.505-17.772V245.484
				C333.446,252.262,342.043,260.432,349.308,269.699z"/>
		</g>
		<linearGradient id="SVGID_5_" gradientUnits="userSpaceOnUse" x1="304.5862" y1="351.9636" x2="102.7711" y2="205.3029">
			<stop  offset="0" style="stop-color:#18CFFC;stop-opacity:0"/>
			<stop  offset="1" style="stop-color:#65E1DC"/>
		</linearGradient>
		<path style="fill:url(#SVGID_5_);" d="M255,223.749V436.4c3.971,0,7.941,1.188,11.352,3.565l98.956,68.947
			c3.98,2.773,9.436-0.075,9.436-4.926V343.489C374.745,277.356,321.133,223.75,255,223.749z"/>
		<linearGradient id="SVGID_6_" gradientUnits="userSpaceOnUse" x1="255" y1="486.2573" x2="255" y2="315.3737">
			<stop  offset="0" style="stop-color:#0469BC;stop-opacity:0"/>
			<stop  offset="1" style="stop-color:#0469BC"/>
		</linearGradient>
		<path style="fill:url(#SVGID_6_);" d="M365.309,489.502l-98.956-68.947c-6.822-4.753-15.883-4.753-22.705,0l-98.956,68.947
			c-3.98,2.773-9.436-0.075-9.436-4.926v19.41c0,4.852,5.456,7.7,9.436,4.926l98.956-68.947c6.822-4.753,15.883-4.753,22.705,0
			l98.956,68.947c3.98,2.773,9.436-0.075,9.436-4.926v-19.41C374.745,489.427,369.289,492.275,365.309,489.502z"/>
	</g>
	<g>
		<linearGradient id="SVGID_7_" gradientUnits="userSpaceOnUse" x1="173.4443" y1="433.4051" x2="173.4443" y2="307.3741">
			<stop  offset="0" style="stop-color:#F0DDFC;stop-opacity:0"/>
			<stop  offset="0.2889" style="stop-color:#C8B7E0;stop-opacity:0.2889"/>
			<stop  offset="0.5915" style="stop-color:#A595C8;stop-opacity:0.5915"/>
			<stop  offset="0.8395" style="stop-color:#8F81B8;stop-opacity:0.8395"/>
			<stop  offset="1" style="stop-color:#8779B3"/>
		</linearGradient>
		<path style="fill:url(#SVGID_7_);" d="M186.197,245.784v120.972l-25.505-25.505v-70.937c0.508-0.65,1.026-1.301,1.545-1.951
			c0.549-0.681,1.118-1.372,1.687-2.042c0.467-0.549,0.935-1.097,1.402-1.636c0.955-1.087,1.921-2.164,2.916-3.211
			c0.356-0.386,0.721-0.762,1.087-1.138c0.955-1.006,1.941-1.982,2.937-2.947c0.975-0.945,1.961-1.88,2.977-2.784
			c0.183-0.173,0.366-0.335,0.549-0.498c0.518-0.467,1.037-0.925,1.565-1.372c0.864-0.752,1.738-1.484,2.622-2.205
			c0.417-0.345,0.833-0.681,1.26-1.016c0.396-0.315,0.793-0.62,1.189-0.925c0.813-0.63,1.626-1.24,2.449-1.839
			c0.427-0.325,0.864-0.63,1.301-0.945L186.197,245.784z"/>
		<linearGradient id="SVGID_8_" gradientUnits="userSpaceOnUse" x1="336.5557" y1="433.405" x2="336.5557" y2="307.374">
			<stop  offset="0" style="stop-color:#F0DDFC;stop-opacity:0"/>
			<stop  offset="0.2889" style="stop-color:#C8B7E0;stop-opacity:0.2889"/>
			<stop  offset="0.5915" style="stop-color:#A595C8;stop-opacity:0.5915"/>
			<stop  offset="0.8395" style="stop-color:#8F81B8;stop-opacity:0.8395"/>
			<stop  offset="1" style="stop-color:#8779B3"/>
		</linearGradient>
		<path style="fill:url(#SVGID_8_);" d="M349.308,269.699v228.063l-25.505-17.772V245.484
			C333.446,252.262,342.043,260.432,349.308,269.699z"/>
	</g>
	<g>
		<g>
			<g>
				<linearGradient id="SVGID_9_" gradientUnits="userSpaceOnUse" x1="76.1587" y1="178.8413" x2="433.8413" y2="178.8413">
					<stop  offset="0" style="stop-color:#FFDA45"/>
					<stop  offset="1" style="stop-color:#FFA425"/>
				</linearGradient>
				<path style="fill:url(#SVGID_9_);" d="M433.841,159.936C433.841,71.606,353.771,0,255,0S76.159,71.606,76.159,159.936
					c0,0.124,0,37.81,0,37.81c0,88.33,80.07,159.936,178.841,159.936s178.841-71.606,178.841-159.936
					C433.841,197.622,433.841,160.06,433.841,159.936z"/>
				<linearGradient id="SVGID_10_" gradientUnits="userSpaceOnUse" x1="335.209" y1="204.843" x2="462.8525" y2="246.2219">
					<stop  offset="0" style="stop-color:#FFDA45;stop-opacity:0"/>
					<stop  offset="0.5194" style="stop-color:#D9874F;stop-opacity:0.5194"/>
					<stop  offset="1" style="stop-color:#B53759"/>
				</linearGradient>
				<path style="fill:url(#SVGID_10_);" d="M433.841,159.936C433.841,71.606,353.771,0,255,0S76.159,71.606,76.159,159.936
					c0,0.124,0,37.81,0,37.81c0,88.33,80.07,159.936,178.841,159.936s178.841-71.606,178.841-159.936
					C433.841,197.622,433.841,160.06,433.841,159.936z"/>
				<linearGradient id="SVGID_11_" gradientUnits="userSpaceOnUse" x1="237.9759" y1="146.1025" x2="384.9725" y2="428.7888">
					<stop  offset="0" style="stop-color:#FFDA45;stop-opacity:0"/>
					<stop  offset="0.5194" style="stop-color:#D9874F;stop-opacity:0.5194"/>
					<stop  offset="1" style="stop-color:#B53759"/>
				</linearGradient>
				<path style="fill:url(#SVGID_11_);" d="M402.292,69.217C370.032,27.407,316.099,0,255,0S139.968,27.407,107.708,69.217v219.249
					c32.26,41.81,86.193,69.217,147.292,69.217s115.032-27.407,147.292-69.217V69.217z"/>
				<linearGradient id="SVGID_12_" gradientUnits="userSpaceOnUse" x1="249.4976" y1="234.6512" x2="232.1355" y2="410.7523">
					<stop  offset="0" style="stop-color:#FFDA45;stop-opacity:0"/>
					<stop  offset="0.5194" style="stop-color:#D9874F;stop-opacity:0.5194"/>
					<stop  offset="1" style="stop-color:#B53759"/>
				</linearGradient>
				<path style="fill:url(#SVGID_12_);" d="M150.103,327.283c29.468,19.118,65.707,30.399,104.897,30.399
					s75.428-11.282,104.897-30.399V30.399C330.428,11.282,294.19,0,255,0s-75.428,11.282-104.897,30.399V327.283z"/>
				<linearGradient id="SVGID_13_" gradientUnits="userSpaceOnUse" x1="219.5779" y1="243.6264" x2="165.9069" y2="341.7878">
					<stop  offset="0" style="stop-color:#FFDA45;stop-opacity:0"/>
					<stop  offset="0.5194" style="stop-color:#D9874F;stop-opacity:0.5194"/>
					<stop  offset="1" style="stop-color:#B53759"/>
				</linearGradient>
				<path style="fill:url(#SVGID_13_);" d="M214.368,353.534c13.054,2.712,26.655,4.148,40.632,4.148
					c13.977,0,27.578-1.436,40.632-4.148V4.148C282.578,1.436,268.977,0,255,0c-13.977,0-27.578,1.436-40.632,4.148V353.534z"/>
			</g>
			<linearGradient id="SVGID_14_" gradientUnits="userSpaceOnUse" x1="76.1587" y1="159.9362" x2="433.8413" y2="159.9362">
				<stop  offset="0" style="stop-color:#FFDA45"/>
				<stop  offset="1" style="stop-color:#FFA425"/>
			</linearGradient>
			<ellipse style="fill:url(#SVGID_14_);" cx="255" cy="159.936" rx="178.841" ry="159.936"/>
			
				<linearGradient id="SVGID_15_" gradientUnits="userSpaceOnUse" x1="-767.1147" y1="159.9362" x2="-449.3235" y2="159.9362" gradientTransform="matrix(-1 0 0 1 -353.2191 0)">
				<stop  offset="0" style="stop-color:#FFDA45"/>
				<stop  offset="1" style="stop-color:#FFA425"/>
			</linearGradient>
			<ellipse style="fill:url(#SVGID_15_);" cx="255" cy="159.936" rx="158.896" ry="142.099"/>
			<linearGradient id="SVGID_16_" gradientUnits="userSpaceOnUse" x1="111.1531" y1="159.9362" x2="398.8469" y2="159.9362">
				<stop  offset="0" style="stop-color:#FFDA45"/>
				<stop  offset="1" style="stop-color:#FFA425"/>
			</linearGradient>
			<ellipse style="fill:url(#SVGID_16_);" cx="255" cy="159.936" rx="143.847" ry="128.641"/>
		</g>
	</g>
	<linearGradient id="SVGID_17_" gradientUnits="userSpaceOnUse" x1="446.0635" y1="339.5413" x2="86.3489" y2="30.6335">
		<stop  offset="0" style="stop-color:#FFDA45;stop-opacity:0"/>
		<stop  offset="0.5194" style="stop-color:#D9874F;stop-opacity:0.5194"/>
		<stop  offset="1" style="stop-color:#B53759"/>
	</linearGradient>
	<path style="fill:url(#SVGID_17_);" d="M430.839,189.223l-64.899-64.899c-1.093-2.265-3.223-4.049-6.118-4.462l-30.207-4.393
		l-67.325-67.16l0-0.001c-1.475-3.037-4.383-4.571-7.29-4.571c-2.907,0-5.815,1.533-7.29,4.571l-29.999,61.733l-67.533,9.821
		c-3.341,0.477-5.67,2.777-6.552,5.54c-0.897,2.777-0.333,6.017,2.112,8.346l47.859,47.727c0.103,0.137,0.217,0.269,0.331,0.403
		l-11.06,64.518c-0.564,3.254,0.839,6.147,3.124,7.854l65.586,65.585c1.139,0.019,2.279,0.039,3.423,0.039
		C342.584,319.872,415.454,263.565,430.839,189.223z"/>
	<g>
		<g>
			<linearGradient id="SVGID_18_" gradientUnits="userSpaceOnUse" x1="211.5547" y1="122.3329" x2="380.9061" y2="297.7871">
				<stop  offset="0" style="stop-color:#FFDA45"/>
				<stop  offset="1" style="stop-color:#FCB37E"/>
			</linearGradient>
			<path style="fill:url(#SVGID_18_);" d="M366.374,125.401c-0.882-2.763-3.211-5.063-6.552-5.54l-67.533-9.821L262.29,48.307
				c-1.475-3.037-4.383-4.571-7.29-4.571c-2.907,0-5.815,1.533-7.29,4.571l-29.999,61.733l-67.533,9.821
				c-3.341,0.477-5.67,2.777-6.552,5.54c-0.897,2.777-0.333,6.017,2.112,8.346l48.513,46.242l-11.383,66.405
				c-0.564,3.255,0.839,6.147,3.124,7.854c2.3,1.721,5.497,2.256,8.476,0.766L255,224.842l60.533,30.172
				c2.98,1.49,6.176,0.955,8.476-0.766c2.285-1.707,3.688-4.6,3.124-7.854l-11.383-66.405l48.513-46.242
				C366.707,131.418,367.271,128.178,366.374,125.401z M255,160.723l-0.101,0.029l0.043-0.043l0.058-0.087l0.058,0.087l0.043,0.043
				L255,160.723z"/>
			<linearGradient id="SVGID_19_" gradientUnits="userSpaceOnUse" x1="185.6213" y1="131.538" x2="290.9519" y2="243.8906">
				<stop  offset="0" style="stop-color:#FCB37E;stop-opacity:0"/>
				<stop  offset="1" style="stop-color:#FF7044"/>
			</linearGradient>
			<path style="fill:url(#SVGID_19_);" d="M254.942,160.708l-0.043,0.043l-60.648,19.237l-48.513-46.242
				c-2.444-2.329-3.009-5.569-2.112-8.346L254.942,160.708z"/>
			<linearGradient id="SVGID_20_" gradientUnits="userSpaceOnUse" x1="182.7423" y1="207.5" x2="254.8987" y2="207.5">
				<stop  offset="0" style="stop-color:#FFDA45"/>
				<stop  offset="1" style="stop-color:#FCB37E"/>
			</linearGradient>
			<path style="fill:url(#SVGID_20_);" d="M254.899,160.752l-68.908,93.497c-2.285-1.707-3.688-4.6-3.124-7.854l11.383-66.405
				L254.899,160.752z"/>
			<linearGradient id="SVGID_21_" gradientUnits="userSpaceOnUse" x1="237.7848" y1="173.3457" x2="361.0609" y2="312.2261">
				<stop  offset="0" style="stop-color:#FCB37E;stop-opacity:0"/>
				<stop  offset="1" style="stop-color:#FF7044"/>
			</linearGradient>
			<path style="fill:url(#SVGID_21_);" d="M324.009,254.248c-2.3,1.721-5.496,2.256-8.476,0.766L255,224.842v-64.12l0.101,0.029
				L324.009,254.248z"/>
			<linearGradient id="SVGID_22_" gradientUnits="userSpaceOnUse" x1="167.1827" y1="210.2279" x2="325.5686" y2="204.7663">
				<stop  offset="0" style="stop-color:#FCB37E;stop-opacity:0"/>
				<stop  offset="1" style="stop-color:#FF7044"/>
			</linearGradient>
			<path style="fill:url(#SVGID_22_);" d="M255,160.723v64.12l-60.533,30.172c-2.98,1.49-6.176,0.955-8.476-0.766l68.908-93.497
				L255,160.723z"/>
			<linearGradient id="SVGID_23_" gradientUnits="userSpaceOnUse" x1="308.7599" y1="274.0288" x2="268.1882" y2="93.7969">
				<stop  offset="0" style="stop-color:#FFDA45"/>
				<stop  offset="1" style="stop-color:#FCB37E"/>
			</linearGradient>
			<path style="fill:url(#SVGID_23_);" d="M324.009,254.248l-68.908-93.497l60.648,19.237l11.383,66.405
				C327.697,249.649,326.294,252.542,324.009,254.248z"/>
			<linearGradient id="SVGID_24_" gradientUnits="userSpaceOnUse" x1="193.9627" y1="119.8852" x2="218.1497" y2="224.4355">
				<stop  offset="0" style="stop-color:#FFDA45"/>
				<stop  offset="1" style="stop-color:#FCB37E"/>
			</linearGradient>
			<path style="fill:url(#SVGID_24_);" d="M255,160.622l-0.058,0.087l-111.316-35.307c0.882-2.763,3.211-5.063,6.552-5.54
				l67.533-9.821L255,160.622z"/>
			<linearGradient id="SVGID_25_" gradientUnits="userSpaceOnUse" x1="296.9507" y1="118.4733" x2="147.1474" y2="59.1762">
				<stop  offset="0" style="stop-color:#FCB37E;stop-opacity:0"/>
				<stop  offset="1" style="stop-color:#FF7044"/>
			</linearGradient>
			<path style="fill:url(#SVGID_25_);" d="M292.289,110.04L255,160.622V43.736c2.907,0,5.815,1.533,7.29,4.571L292.289,110.04z"/>
			<linearGradient id="SVGID_26_" gradientUnits="userSpaceOnUse" x1="231.9117" y1="69.302" x2="309.1541" y2="201.1602">
				<stop  offset="0" style="stop-color:#FCB37E;stop-opacity:0"/>
				<stop  offset="1" style="stop-color:#FF7044"/>
			</linearGradient>
			<path style="fill:url(#SVGID_26_);" d="M255,43.736v116.885l-37.289-50.581l29.999-61.733
				C249.185,45.269,252.093,43.736,255,43.736z"/>
			<linearGradient id="SVGID_27_" gradientUnits="userSpaceOnUse" x1="327.7356" y1="119.1344" x2="184.1741" y2="246.3114">
				<stop  offset="0" style="stop-color:#FCB37E;stop-opacity:0"/>
				<stop  offset="1" style="stop-color:#FF7044"/>
			</linearGradient>
			<path style="fill:url(#SVGID_27_);" d="M366.374,125.401l-111.316,35.307L255,160.622l37.289-50.581l67.533,9.821
				C363.163,120.339,365.492,122.638,366.374,125.401z"/>
			<linearGradient id="SVGID_28_" gradientUnits="userSpaceOnUse" x1="301.9363" y1="170.8199" x2="351.8708" y2="27.2583">
				<stop  offset="0" style="stop-color:#FCB37E;stop-opacity:0"/>
				<stop  offset="1" style="stop-color:#FF7044"/>
			</linearGradient>
			<path style="fill:url(#SVGID_28_);" d="M364.263,133.747l-48.513,46.242l-60.648-19.237l-0.043-0.043l111.316-35.307
				C367.271,128.178,366.707,131.418,364.263,133.747z"/>
		</g>
		<linearGradient id="SVGID_29_" gradientUnits="userSpaceOnUse" x1="257.9322" y1="161.9166" x2="209.4145" y2="91.8356">
			<stop  offset="0" style="stop-color:#FFDA45;stop-opacity:0"/>
			<stop  offset="1" style="stop-color:#FFEE83"/>
		</linearGradient>
		<path style="fill:url(#SVGID_29_);" d="M347.512,129.535c-0.733-2.295-2.667-4.205-5.443-4.602l-56.096-8.158l-24.918-51.278
			c-1.226-2.523-3.64-3.797-6.055-3.797c-2.415,0-4.83,1.274-6.055,3.797l-24.918,51.278l-56.096,8.158
			c-2.776,0.397-4.71,2.307-5.443,4.602c-0.745,2.307-0.276,4.998,1.754,6.932l40.297,38.41l-9.455,55.159
			c-0.469,2.703,0.697,5.106,2.595,6.524c1.91,1.43,4.566,1.874,7.041,0.637L255,212.135l50.281,25.062
			c2.475,1.238,5.13,0.793,7.041-0.637c1.898-1.418,3.064-3.821,2.595-6.524l-9.455-55.159l40.297-38.41
			C347.788,134.533,348.257,131.842,347.512,129.535z M255,158.874l-0.084,0.024l0.036-0.036L255,158.79l0.048,0.072l0.036,0.036
			L255,158.874z"/>
	</g>
	<linearGradient id="SVGID_30_" gradientUnits="userSpaceOnUse" x1="246.1815" y1="147.7041" x2="151.68" y2="16.6215">
		<stop  offset="0" style="stop-color:#FFDA45;stop-opacity:0"/>
		<stop  offset="1" style="stop-color:#FCEE21"/>
	</linearGradient>
	<ellipse style="fill:url(#SVGID_30_);" cx="255" cy="159.936" rx="128.598" ry="115.004"/>
</g>
<g>
</g>
<g>
</g>
<g>
</g>
<g>
</g>
<g>
</g>
<g>
</g>
<g>
</g>
<g>
</g>
<g>
</g>
<g>
</g>
<g>
</g>
<g>
</g>
<g>
</g>
<g>
</g>
<g>
</g>
</svg>
