<?xml version="1.0" encoding="iso-8859-1"?>
<!-- Generator: Adobe Illustrator 22.0.0, SVG Export Plug-In . SVG Version: 6.00 Build 0)  -->
<svg version="1.1" id="Capa_1" xmlns="http://www.w3.org/2000/svg" xmlns:xlink="http://www.w3.org/1999/xlink" x="0px" y="0px"
	 viewBox="0 0 510 510" style="enable-background:new 0 0 510 510;" xml:space="preserve">
<g>
	<g>
		<g>
			<linearGradient id="SVGID_1_" gradientUnits="userSpaceOnUse" x1="132.1324" y1="144.307" x2="459.6335" y2="471.8082">
				<stop  offset="0" style="stop-color:#FFB5B0"/>
				<stop  offset="1" style="stop-color:#FF70AC"/>
			</linearGradient>
			<path style="fill:url(#SVGID_1_);" d="M454.197,302.035c0-22.376-7.795-42.929-20.81-59.103
				c6.218-7.755,9.945-17.593,9.945-28.306c0-22.484-16.385-41.132-37.865-44.679c-6.182-31.94-29.614-57.726-60.219-67.266
				c0.001-0.105,0.008-0.209,0.008-0.315c0-27.85-22.577-50.426-50.426-50.426c-16.2,0-30.606,7.648-39.831,19.521
				c-9.226-11.873-23.631-19.521-39.831-19.521c-27.85,0-50.426,22.577-50.426,50.426c0,0.106,0.007,0.209,0.008,0.315
				c-30.604,9.539-54.037,35.326-60.219,67.266c-21.479,3.547-37.865,22.195-37.865,44.679c0,10.713,3.728,20.551,9.945,28.306
				c-13.015,16.174-20.81,36.727-20.81,59.103c0,43.651,29.645,80.372,69.899,91.144c5.887,36.778,37.755,64.88,76.192,64.88
				c20.577,0,39.271-8.055,53.106-21.182c13.835,13.127,32.529,21.182,53.106,21.182c38.437,0,70.305-28.102,76.192-64.88
				C424.552,382.408,454.197,345.686,454.197,302.035z"/>
		</g>
		<linearGradient id="SVGID_2_" gradientUnits="userSpaceOnUse" x1="355.3243" y1="254.1702" x2="369.6572" y2="405.8602">
			<stop  offset="0" style="stop-color:#FFB5B0;stop-opacity:0"/>
			<stop  offset="1" style="stop-color:#FF70AC"/>
		</linearGradient>
		<circle style="fill:url(#SVGID_2_);" cx="359.847" cy="302.035" r="94.35"/>
		<linearGradient id="SVGID_3_" gradientUnits="userSpaceOnUse" x1="169.9474" y1="166.8964" x2="59.26" y2="60.1905">
			<stop  offset="0" style="stop-color:#E9EDF5;stop-opacity:0"/>
			<stop  offset="1" style="stop-color:#FFFFFF"/>
		</linearGradient>
		<path style="fill:url(#SVGID_3_);" d="M279.064,186.778c0-15.838-4.183-30.697-11.501-43.538
			c-9.154,12.718-24.073,21.007-40.94,21.007c-16.845,0-31.747-8.269-40.903-20.96c-8.708-6.28-15.339-15.262-18.641-25.728
			c-22.494,9.876-40.069,28.877-48.035,52.325c12.475,1.959,23.254,9.011,30.155,18.96c11.789,8.178,19.515,21.802,19.515,37.236
			c0,15.788-8.085,29.679-20.334,37.785c12.627,6.997,27.152,10.984,42.611,10.984C239.633,274.85,279.064,235.419,279.064,186.778z
			"/>
		<linearGradient id="SVGID_4_" gradientUnits="userSpaceOnUse" x1="211.7715" y1="109.161" x2="269.9024" y2="-7.1006">
			<stop  offset="0" style="stop-color:#FFB5B0;stop-opacity:0"/>
			<stop  offset="0.0454" style="stop-color:#FFAFB0;stop-opacity:0.0454"/>
			<stop  offset="0.2799" style="stop-color:#FF93AE;stop-opacity:0.2799"/>
			<stop  offset="0.5169" style="stop-color:#FF80AD;stop-opacity:0.5169"/>
			<stop  offset="0.7559" style="stop-color:#FF74AC;stop-opacity:0.7559"/>
			<stop  offset="1" style="stop-color:#FF70AC"/>
		</linearGradient>
		<circle style="fill:url(#SVGID_4_);" cx="215.169" cy="102.366" r="50.426"/>
		<linearGradient id="SVGID_5_" gradientUnits="userSpaceOnUse" x1="328.9871" y1="168.8711" x2="416.179" y2="12.4035">
			<stop  offset="0" style="stop-color:#FFB5B0;stop-opacity:0"/>
			<stop  offset="0.0454" style="stop-color:#FFAFB0;stop-opacity:0.0454"/>
			<stop  offset="0.2799" style="stop-color:#FF93AE;stop-opacity:0.2799"/>
			<stop  offset="0.5169" style="stop-color:#FF80AD;stop-opacity:0.5169"/>
			<stop  offset="0.7559" style="stop-color:#FF74AC;stop-opacity:0.7559"/>
			<stop  offset="1" style="stop-color:#FF70AC"/>
		</linearGradient>
		<circle style="fill:url(#SVGID_5_);" cx="319.009" cy="186.778" r="88.073"/>
		<g>
			
				<linearGradient id="SVGID_6_" gradientUnits="userSpaceOnUse" x1="237.8335" y1="185.1934" x2="295.9643" y2="68.9317" gradientTransform="matrix(-0.7071 0.7071 -0.7071 -0.7071 501.2968 124.9008)">
				<stop  offset="0" style="stop-color:#FFB5B0;stop-opacity:0"/>
				<stop  offset="0.0454" style="stop-color:#FFAFB0;stop-opacity:0.0454"/>
				<stop  offset="0.2799" style="stop-color:#FF93AE;stop-opacity:0.2799"/>
				<stop  offset="0.5169" style="stop-color:#FF80AD;stop-opacity:0.5169"/>
				<stop  offset="0.7559" style="stop-color:#FF74AC;stop-opacity:0.7559"/>
				<stop  offset="1" style="stop-color:#FF70AC"/>
			</linearGradient>
			<circle style="fill:url(#SVGID_6_);" cx="204.574" cy="169.33" r="50.426"/>
			
				<linearGradient id="SVGID_7_" gradientUnits="userSpaceOnUse" x1="148.2791" y1="95.639" x2="206.4099" y2="-20.6226" gradientTransform="matrix(0.7071 0.7071 0.7071 -0.7071 135.3522 124.9008)">
				<stop  offset="0" style="stop-color:#FFB5B0;stop-opacity:0"/>
				<stop  offset="0.0454" style="stop-color:#FFAFB0;stop-opacity:0.0454"/>
				<stop  offset="0.2799" style="stop-color:#FF93AE;stop-opacity:0.2799"/>
				<stop  offset="0.5169" style="stop-color:#FF80AD;stop-opacity:0.5169"/>
				<stop  offset="0.7559" style="stop-color:#FF74AC;stop-opacity:0.7559"/>
				<stop  offset="1" style="stop-color:#FF70AC"/>
			</linearGradient>
			<circle style="fill:url(#SVGID_7_);" cx="305.426" cy="169.33" r="50.426"/>
		</g>
		<g>
			
				<linearGradient id="SVGID_8_" gradientUnits="userSpaceOnUse" x1="374.3516" y1="48.6753" x2="432.4824" y2="-67.5864" gradientTransform="matrix(0.7071 -0.7071 0.7071 0.7071 8.7032 575.4928)">
				<stop  offset="0" style="stop-color:#FFB5B0;stop-opacity:0"/>
				<stop  offset="0.0454" style="stop-color:#FFAFB0;stop-opacity:0.0454"/>
				<stop  offset="0.2799" style="stop-color:#FF93AE;stop-opacity:0.2799"/>
				<stop  offset="0.5169" style="stop-color:#FF80AD;stop-opacity:0.5169"/>
				<stop  offset="0.7559" style="stop-color:#FF74AC;stop-opacity:0.7559"/>
				<stop  offset="1" style="stop-color:#FF70AC"/>
			</linearGradient>
			<circle style="fill:url(#SVGID_8_);" cx="305.426" cy="337.998" r="50.426"/>
			
				<linearGradient id="SVGID_9_" gradientUnits="userSpaceOnUse" x1="284.7972" y1="-40.8791" x2="342.9281" y2="-157.1407" gradientTransform="matrix(-0.7071 -0.7071 -0.7071 0.7071 374.6479 575.4928)">
				<stop  offset="0" style="stop-color:#FFB5B0;stop-opacity:0"/>
				<stop  offset="0.0454" style="stop-color:#FFAFB0;stop-opacity:0.0454"/>
				<stop  offset="0.2799" style="stop-color:#FF93AE;stop-opacity:0.2799"/>
				<stop  offset="0.5169" style="stop-color:#FF80AD;stop-opacity:0.5169"/>
				<stop  offset="0.7559" style="stop-color:#FF74AC;stop-opacity:0.7559"/>
				<stop  offset="1" style="stop-color:#FF70AC"/>
			</linearGradient>
			<circle style="fill:url(#SVGID_9_);" cx="204.574" cy="337.998" r="50.426"/>
		</g>
		<linearGradient id="SVGID_10_" gradientUnits="userSpaceOnUse" x1="172.5412" y1="255.8301" x2="97.6878" y2="410.3147">
			<stop  offset="0" style="stop-color:#FFB5B0;stop-opacity:0"/>
			<stop  offset="1" style="stop-color:#FF70AC"/>
		</linearGradient>
		<circle style="fill:url(#SVGID_10_);" cx="150.153" cy="302.035" r="94.35"/>
		<linearGradient id="SVGID_11_" gradientUnits="userSpaceOnUse" x1="122.9858" y1="288.3156" x2="-163.6725" y2="119.9038">
			<stop  offset="0" style="stop-color:#E9EDF5;stop-opacity:0"/>
			<stop  offset="1" style="stop-color:#FFFFFF"/>
		</linearGradient>
		<circle style="fill:url(#SVGID_11_);" cx="155.585" cy="307.468" r="88.918"/>
		<linearGradient id="SVGID_12_" gradientUnits="userSpaceOnUse" x1="114.3195" y1="181.9966" x2="107.949" y2="251.0104">
			<stop  offset="0" style="stop-color:#FFB5B0;stop-opacity:0"/>
			<stop  offset="1" style="stop-color:#FF70AC"/>
		</linearGradient>
		<path style="fill:url(#SVGID_12_);" d="M150.153,207.685c2.222,0,4.425,0.083,6.61,0.234
			c-3.242-21.835-22.062-38.589-44.799-38.589c-25.017,0-45.296,20.28-45.296,45.296c0,10.713,3.728,20.551,9.945,28.306
			C93.907,221.442,120.421,207.685,150.153,207.685z"/>
		<linearGradient id="SVGID_13_" gradientUnits="userSpaceOnUse" x1="392.722" y1="196.3387" x2="424.971" y2="238.143">
			<stop  offset="0" style="stop-color:#FFB5B0;stop-opacity:0"/>
			<stop  offset="0.0454" style="stop-color:#FFAFB0;stop-opacity:0.0454"/>
			<stop  offset="0.2799" style="stop-color:#FF93AE;stop-opacity:0.2799"/>
			<stop  offset="0.5169" style="stop-color:#FF80AD;stop-opacity:0.5169"/>
			<stop  offset="0.7559" style="stop-color:#FF74AC;stop-opacity:0.7559"/>
			<stop  offset="1" style="stop-color:#FF70AC"/>
		</linearGradient>
		<path style="fill:url(#SVGID_13_);" d="M359.847,207.685c29.732,0,56.246,13.757,73.54,35.247
			c6.218-7.755,9.945-17.593,9.945-28.306c0-25.016-20.28-45.296-45.296-45.296c-22.737,0-41.557,16.754-44.799,38.589
			C355.422,207.768,357.625,207.685,359.847,207.685z"/>
		<linearGradient id="SVGID_14_" gradientUnits="userSpaceOnUse" x1="333.3028" y1="242.7223" x2="135.0308" y2="326.331">
			<stop  offset="0" style="stop-color:#FFB5B0;stop-opacity:0"/>
			<stop  offset="0.0454" style="stop-color:#FFAFB0;stop-opacity:0.0454"/>
			<stop  offset="0.2799" style="stop-color:#FF93AE;stop-opacity:0.2799"/>
			<stop  offset="0.5169" style="stop-color:#FF80AD;stop-opacity:0.5169"/>
			<stop  offset="0.7559" style="stop-color:#FF74AC;stop-opacity:0.7559"/>
			<stop  offset="1" style="stop-color:#FF70AC"/>
		</linearGradient>
		<path style="fill:url(#SVGID_14_);" d="M308.106,458.06c38.437,0,70.305-28.102,76.192-64.88
			c40.254-10.772,69.899-47.493,69.899-91.144c0-22.376-7.795-42.929-20.81-59.103c6.218-7.755,9.945-17.593,9.945-28.306
			c0-22.484-16.385-41.132-37.865-44.679c-6.182-31.94-29.614-57.726-60.219-67.266c0.001-0.105,0.008-0.209,0.008-0.315
			c0-27.85-22.577-50.426-50.426-50.426c-16.2,0-30.606,7.648-39.831,19.521v365.416C268.835,450.005,287.529,458.06,308.106,458.06
			z"/>
		<linearGradient id="SVGID_15_" gradientUnits="userSpaceOnUse" x1="335.7467" y1="353.2656" x2="218.6888" y2="470.3236">
			<stop  offset="0" style="stop-color:#FFB5B0;stop-opacity:0"/>
			<stop  offset="0.0454" style="stop-color:#FFAFB0;stop-opacity:0.0454"/>
			<stop  offset="0.2799" style="stop-color:#FF93AE;stop-opacity:0.2799"/>
			<stop  offset="0.5169" style="stop-color:#FF80AD;stop-opacity:0.5169"/>
			<stop  offset="0.7559" style="stop-color:#FF74AC;stop-opacity:0.7559"/>
			<stop  offset="1" style="stop-color:#FF70AC"/>
		</linearGradient>
		<path style="fill:url(#SVGID_15_);" d="M307.518,303.721c-20.345,0.152-38.815,8.178-52.518,21.18v102.658
			c0,6.312,2.949,12.313,8.072,16.001c0.029,0.021,0.057,0.041,0.086,0.062c0.043,0.031,0.086,0.063,0.129,0.094
			c0.395,0.282,0.794,0.558,1.195,0.833c0.101,0.069,0.201,0.141,0.303,0.21c0.369,0.251,0.743,0.496,1.117,0.741
			c0.136,0.089,0.27,0.18,0.407,0.268c0.354,0.228,0.711,0.451,1.068,0.674c0.161,0.1,0.32,0.202,0.481,0.3
			c0.342,0.209,0.687,0.414,1.032,0.618c0.181,0.107,0.36,0.215,0.542,0.32c0.335,0.194,0.673,0.384,1.011,0.574
			c0.196,0.11,0.391,0.22,0.587,0.328c0.329,0.181,0.661,0.357,0.994,0.533c0.209,0.111,0.418,0.222,0.628,0.331
			c0.325,0.169,0.653,0.333,0.981,0.497c0.221,0.111,0.442,0.222,0.664,0.33c0.323,0.158,0.648,0.312,0.973,0.465
			c0.231,0.109,0.461,0.217,0.693,0.323c0.321,0.147,0.643,0.291,0.966,0.434c0.242,0.107,0.484,0.213,0.727,0.318
			c0.317,0.136,0.636,0.27,0.956,0.403c0.251,0.104,0.502,0.207,0.753,0.308c0.317,0.127,0.635,0.252,0.954,0.376
			c0.258,0.1,0.517,0.198,0.776,0.295c0.316,0.118,0.633,0.234,0.951,0.348c0.267,0.096,0.536,0.19,0.804,0.283
			c0.313,0.108,0.627,0.215,0.941,0.32c0.276,0.092,0.553,0.181,0.831,0.27c0.312,0.1,0.625,0.198,0.939,0.294
			c0.283,0.087,0.568,0.17,0.853,0.254c0.311,0.091,0.622,0.181,0.935,0.268c0.291,0.081,0.583,0.159,0.876,0.237
			c0.31,0.082,0.62,0.164,0.932,0.243c0.298,0.075,0.598,0.147,0.898,0.219c0.308,0.074,0.616,0.148,0.926,0.218
			c0.307,0.07,0.616,0.135,0.925,0.201c0.305,0.065,0.61,0.131,0.916,0.192c0.315,0.063,0.632,0.122,0.949,0.182
			c0.303,0.057,0.607,0.115,0.911,0.169c0.323,0.057,0.647,0.108,0.972,0.161c0.301,0.049,0.601,0.099,0.902,0.144
			c0.334,0.05,0.67,0.095,1.005,0.141c0.295,0.04,0.589,0.083,0.884,0.12c0.344,0.043,0.689,0.08,1.034,0.118
			c0.291,0.032,0.582,0.067,0.874,0.096c0.358,0.036,0.717,0.065,1.077,0.096c0.28,0.024,0.559,0.051,0.84,0.072
			c0.384,0.029,0.77,0.05,1.155,0.073c0.259,0.016,0.518,0.035,0.778,0.048c0.431,0.021,0.863,0.035,1.296,0.049
			c0.217,0.007,0.433,0.018,0.65,0.024c0.651,0.016,1.304,0.025,1.958,0.025c1.114,0,2.221-0.029,3.324-0.076
			c0.129-0.005,0.259-0.009,0.389-0.015c1.046-0.05,2.086-0.123,3.121-0.214c0.174-0.015,0.348-0.03,0.521-0.046
			c1.017-0.096,2.028-0.212,3.033-0.347c0.173-0.023,0.346-0.048,0.518-0.073c1.017-0.144,2.028-0.304,3.031-0.487
			c0.195-0.036,0.389-0.077,0.586-0.109c0.562-0.091,1.125-0.176,1.678-0.31l1.284-0.312c1.042-0.241,2.075-0.508,3.101-0.791
			c0.105-0.029,0.211-0.056,0.316-0.085c0.982-0.276,1.956-0.574,2.922-0.887c0.149-0.048,0.298-0.096,0.446-0.145
			c0.949-0.314,1.889-0.646,2.821-0.996c0.146-0.055,0.292-0.111,0.438-0.166c0.943-0.36,1.877-0.736,2.802-1.131
			c0.105-0.045,0.209-0.092,0.313-0.137c1.959-0.849,3.876-1.775,5.747-2.777c0.063-0.034,0.127-0.066,0.19-0.101
			c0.905-0.488,1.797-0.996,2.68-1.519c0.107-0.063,0.213-0.125,0.32-0.189c0.865-0.518,1.719-1.053,2.562-1.604
			c0.105-0.068,0.209-0.137,0.313-0.206c0.852-0.563,1.694-1.14,2.522-1.735c0.067-0.048,0.134-0.098,0.201-0.147
			c1.755-1.269,3.455-2.609,5.094-4.018c0.014-0.012,0.029-0.024,0.043-0.036c0.804-0.692,1.591-1.402,2.366-2.126
			c0.059-0.055,0.118-0.109,0.176-0.164c0.756-0.712,1.498-1.439,2.225-2.18c0.061-0.062,0.121-0.124,0.182-0.186
			c0.734-0.753,1.454-1.52,2.157-2.303c0.03-0.033,0.059-0.066,0.088-0.1c2.195-2.452,4.236-5.045,6.106-7.764
			c0.02-0.03,0.041-0.059,0.062-0.089c0.609-0.889,1.2-1.791,1.773-2.706c0.027-0.043,0.053-0.085,0.08-0.128
			c0.575-0.923,1.133-1.858,1.67-2.807c0.007-0.013,0.014-0.025,0.021-0.038c1.649-2.917,3.114-5.952,4.378-9.09
			c0.002-0.005,0.004-0.011,0.007-0.016c0.416-1.033,0.81-2.078,1.182-3.133c0.01-0.029,0.02-0.058,0.03-0.086
			c0.371-1.057,0.721-2.124,1.047-3.201c0.001-0.003,0.002-0.007,0.003-0.01c0.992-3.277,1.771-6.647,2.323-10.093l0,0
			c0.859-5.365,1.173-10.911,0.86-16.586C382.878,335.265,348.908,303.412,307.518,303.721z"/>
		<linearGradient id="SVGID_16_" gradientUnits="userSpaceOnUse" x1="255" y1="281.2466" x2="255" y2="149.0491">
			<stop  offset="0" style="stop-color:#FFB5B0;stop-opacity:0"/>
			<stop  offset="0.0454" style="stop-color:#FFAFB0;stop-opacity:0.0454"/>
			<stop  offset="0.2799" style="stop-color:#FF93AE;stop-opacity:0.2799"/>
			<stop  offset="0.5169" style="stop-color:#FF80AD;stop-opacity:0.5169"/>
			<stop  offset="0.7559" style="stop-color:#FF74AC;stop-opacity:0.7559"/>
			<stop  offset="1" style="stop-color:#FF70AC"/>
		</linearGradient>
		<circle style="fill:url(#SVGID_16_);" cx="255" cy="279.461" r="58.537"/>
		<linearGradient id="SVGID_17_" gradientUnits="userSpaceOnUse" x1="343.7713" y1="266.3858" x2="269.718" y2="-72.8264">
			<stop  offset="0" style="stop-color:#E9EDF5;stop-opacity:0"/>
			<stop  offset="1" style="stop-color:#FFFFFF"/>
		</linearGradient>
		<circle style="fill:url(#SVGID_17_);" cx="352.74" cy="307.468" r="88.918"/>
		<linearGradient id="SVGID_18_" gradientUnits="userSpaceOnUse" x1="191.6367" y1="404.6182" x2="120.4674" y2="569.2637">
			<stop  offset="0" style="stop-color:#E9EDF5;stop-opacity:0"/>
			<stop  offset="1" style="stop-color:#FFFFFF"/>
		</linearGradient>
		<circle style="fill:url(#SVGID_18_);" cx="201.894" cy="380.889" r="67.365"/>
	</g>
	<g>
		<g>
			
				<linearGradient id="SVGID_19_" gradientUnits="userSpaceOnUse" x1="491.2068" y1="-528.1042" x2="491.2068" y2="-507.4159" gradientTransform="matrix(1 0 0 -1 -470.6855 -249.7495)">
				<stop  offset="0" style="stop-color:#92F37F"/>
				<stop  offset="1" style="stop-color:#4AB272"/>
			</linearGradient>
			<path style="fill:url(#SVGID_19_);" d="M30.988,265.959H10.054C4.502,265.959,0,270.46,0,276.013l0,0
				c0,5.553,4.502,10.054,10.054,10.054h20.934c5.553,0,10.054-4.501,10.054-10.054l0,0
				C41.043,270.46,36.541,265.959,30.988,265.959z"/>
		</g>
		<g>
			
				<linearGradient id="SVGID_20_" gradientUnits="userSpaceOnUse" x1="690.0212" y1="-1007.8033" x2="690.0212" y2="-987.1147" gradientTransform="matrix(0.7071 -0.7071 0.7071 0.7071 299.3247 1609.4943)">
				<stop  offset="0" style="stop-color:#92F37F"/>
				<stop  offset="1" style="stop-color:#4AB272"/>
			</linearGradient>
			<path style="fill:url(#SVGID_20_);" d="M90.787,410.326l-14.803,14.803c-3.926,3.927-10.292,3.927-14.219,0l0,0
				c-3.926-3.926-3.926-10.292,0-14.219l14.803-14.803c3.926-3.926,10.292-3.926,14.219,0l0,0
				C94.714,400.034,94.714,406.4,90.787,410.326z"/>
		</g>
		<g>
			
				<linearGradient id="SVGID_21_" gradientUnits="userSpaceOnUse" x1="-580.5979" y1="262.8157" x2="-580.5979" y2="283.5043" gradientTransform="matrix(0.7071 0.7071 0.7071 -0.7071 299.3247 739.4417)">
				<stop  offset="0" style="stop-color:#92F37F"/>
				<stop  offset="1" style="stop-color:#4AB272"/>
			</linearGradient>
			<path style="fill:url(#SVGID_21_);" d="M90.787,141.7l-14.803-14.803c-3.926-3.926-10.292-3.926-14.219,0l0,0
				c-3.926,3.926-3.926,10.292,0,14.219l14.803,14.803c3.926,3.926,10.292,3.926,14.219,0l0,0
				C94.714,151.993,94.714,145.627,90.787,141.7z"/>
		</g>
	</g>
	<g>
		<g>
			
				<linearGradient id="SVGID_22_" gradientUnits="userSpaceOnUse" x1="202.1427" y1="-486.0778" x2="202.1427" y2="-465.3895" gradientTransform="matrix(-1 0 0 1 691.6214 759.7495)">
				<stop  offset="0" style="stop-color:#92F37F"/>
				<stop  offset="1" style="stop-color:#4AB272"/>
			</linearGradient>
			<path style="fill:url(#SVGID_22_);" d="M479.012,286.068h20.934c5.553,0,10.054-4.501,10.054-10.054l0,0
				c0-5.553-4.501-10.054-10.054-10.054h-20.934c-5.553,0-10.054,4.501-10.054,10.054l0,0
				C468.957,281.566,473.459,286.068,479.012,286.068z"/>
		</g>
		<g>
			
				<linearGradient id="SVGID_23_" gradientUnits="userSpaceOnUse" x1="515.3375" y1="-1241.922" x2="515.3375" y2="-1221.2334" gradientTransform="matrix(-0.7071 0.7071 -0.7071 -0.7071 -78.3888 -1099.4943)">
				<stop  offset="0" style="stop-color:#92F37F"/>
				<stop  offset="1" style="stop-color:#4AB272"/>
			</linearGradient>
			<path style="fill:url(#SVGID_23_);" d="M419.213,141.7l14.803-14.803c3.926-3.926,10.292-3.926,14.219,0l0,0
				c3.927,3.926,3.927,10.292,0,14.219l-14.803,14.803c-3.926,3.926-10.292,3.926-14.219,0l0,0
				C415.286,151.993,415.286,145.627,419.213,141.7z"/>
		</g>
		<g>
			
				<linearGradient id="SVGID_24_" gradientUnits="userSpaceOnUse" x1="-814.7165" y1="88.132" x2="-814.7165" y2="108.8206" gradientTransform="matrix(-0.7071 -0.7071 -0.7071 0.7071 -78.3888 -229.4416)">
				<stop  offset="0" style="stop-color:#92F37F"/>
				<stop  offset="1" style="stop-color:#4AB272"/>
			</linearGradient>
			<path style="fill:url(#SVGID_24_);" d="M419.213,410.326l14.803,14.803c3.926,3.927,10.292,3.927,14.219,0l0,0
				c3.927-3.926,3.927-10.292,0-14.219l-14.803-14.803c-3.926-3.926-10.292-3.926-14.219,0l0,0
				C415.286,400.034,415.286,406.4,419.213,410.326z"/>
		</g>
	</g>
</g>
<g>
</g>
<g>
</g>
<g>
</g>
<g>
</g>
<g>
</g>
<g>
</g>
<g>
</g>
<g>
</g>
<g>
</g>
<g>
</g>
<g>
</g>
<g>
</g>
<g>
</g>
<g>
</g>
<g>
</g>
</svg>
