<?xml version="1.0" encoding="iso-8859-1"?>
<!-- Generator: Adobe Illustrator 22.0.0, SVG Export Plug-In . SVG Version: 6.00 Build 0)  -->
<svg version="1.1" id="Capa_1" xmlns="http://www.w3.org/2000/svg" xmlns:xlink="http://www.w3.org/1999/xlink" x="0px" y="0px"
	 viewBox="0 0 510 510" style="enable-background:new 0 0 510 510;" xml:space="preserve">
<g>
	<g>
		<radialGradient id="SVGID_1_" cx="161.7139" cy="120.3468" r="332.0703" gradientUnits="userSpaceOnUse">
			<stop  offset="0" style="stop-color:#FFDA45"/>
			<stop  offset="0.3043" style="stop-color:#FFCE3E"/>
			<stop  offset="0.8558" style="stop-color:#FFAE2B"/>
			<stop  offset="1" style="stop-color:#FFA425"/>
		</radialGradient>
		<path style="fill:url(#SVGID_1_);" d="M242.863,245.668L124.861,452.361c-1.343,2.352-4.353,3.113-6.677,1.723
			C45.073,410.347,0,331.094,0,245.668C0,112.437,109.632,2.805,242.863,2.805c131.583,0,240.148,106.938,242.813,237.932
			c0.055,2.702-2.107,4.931-4.81,4.931H242.863z"/>
		<linearGradient id="SVGID_2_" gradientUnits="userSpaceOnUse" x1="242.4038" y1="245.6284" x2="32.3736" y2="35.5982">
			<stop  offset="0" style="stop-color:#FFDA45;stop-opacity:0"/>
			<stop  offset="1" style="stop-color:#FCEE21"/>
		</linearGradient>
		<path style="fill:url(#SVGID_2_);" d="M242.863,245.668L130.186,443.035C59.217,402.712,15.672,327.292,15.672,245.668
			c0-124.633,102.558-227.191,227.191-227.191c124.633,0,227.191,102.558,227.191,227.191H242.863z"/>
		<linearGradient id="SVGID_3_" gradientUnits="userSpaceOnUse" x1="258.9245" y1="178.0739" x2="214.7628" y2="-8.9897">
			<stop  offset="0" style="stop-color:#FFDA45;stop-opacity:0"/>
			<stop  offset="1" style="stop-color:#FFFFFF"/>
		</linearGradient>
		<ellipse style="fill:url(#SVGID_3_);" cx="242.863" cy="110.039" rx="147.367" ry="85.658"/>
		<g>
			<linearGradient id="SVGID_4_" gradientUnits="userSpaceOnUse" x1="389.1697" y1="192.2553" x2="520.4861" y2="-51.9749">
				<stop  offset="0" style="stop-color:#FFDA45;stop-opacity:0"/>
				<stop  offset="1" style="stop-color:#B53759"/>
			</linearGradient>
			<path style="fill:url(#SVGID_4_);" d="M351.732,28.892c16.233,32.575,25.384,69.298,25.384,108.166
				c0,39.043-9.228,75.926-25.598,108.61h134.208v0c0-1.896-0.029-3.785-0.073-5.671c-0.01-0.412-0.022-0.823-0.033-1.234
				C483.017,147.463,428.982,68.106,351.732,28.892z"/>
		</g>
	</g>
	<g>
		<g>
			<linearGradient id="SVGID_5_" gradientUnits="userSpaceOnUse" x1="381.8455" y1="253.9871" x2="499.971" y2="367.0859">
				<stop  offset="0" style="stop-color:#FF7044"/>
				<stop  offset="1" style="stop-color:#F92814"/>
			</linearGradient>
			<path style="fill:url(#SVGID_5_);" d="M458.08,410.246c31.858-40.464,51.139-91.294,51.919-146.604
				c0.027-1.923-1.544-3.494-3.467-3.494H279.638c-4.163,0-6.015,5.231-2.78,7.851l176.335,142.777
				C454.686,411.986,456.892,411.756,458.08,410.246z"/>
			<linearGradient id="SVGID_6_" gradientUnits="userSpaceOnUse" x1="424.3327" y1="356.2651" x2="391.6598" y2="170.2808">
				<stop  offset="0" style="stop-color:#FF7044;stop-opacity:0"/>
				<stop  offset="1" style="stop-color:#FFA425"/>
			</linearGradient>
			<path style="fill:url(#SVGID_6_);" d="M509.847,269.377H313.567c-4.163,0-6.015,5.231-2.78,7.851l153.718,124.465
				C491.469,364.172,508.004,318.657,509.847,269.377z"/>
		</g>
		<linearGradient id="SVGID_7_" gradientUnits="userSpaceOnUse" x1="445.7051" y1="345.7652" x2="554.5552" y2="143.3192">
			<stop  offset="0" style="stop-color:#F92814;stop-opacity:0"/>
			<stop  offset="1" style="stop-color:#C1272D"/>
		</linearGradient>
		<path style="fill:url(#SVGID_7_);" d="M506.532,260.148h-17.871c-9.087,16.343-20.217,31.888-33.416,46.271
			c-19.831,21.61-42.676,38.799-67.296,51.531l65.242,52.826c1.493,1.209,3.699,0.98,4.888-0.53
			c31.858-40.464,51.139-91.294,51.919-146.604C510.027,261.719,508.455,260.148,506.532,260.148z"/>
	</g>
	<radialGradient id="SVGID_8_" cx="275.5359" cy="256.9774" r="121.7658" gradientUnits="userSpaceOnUse">
		<stop  offset="0" style="stop-color:#C1272D"/>
		<stop  offset="0.5053" style="stop-color:#C3272C;stop-opacity:0.4947"/>
		<stop  offset="0.6873" style="stop-color:#CA2729;stop-opacity:0.3127"/>
		<stop  offset="0.817" style="stop-color:#D52724;stop-opacity:0.183"/>
		<stop  offset="0.9211" style="stop-color:#E6281C;stop-opacity:0.0789"/>
		<stop  offset="1" style="stop-color:#F92814;stop-opacity:0"/>
	</radialGradient>
	<path style="fill:url(#SVGID_8_);" d="M434.766,260.144c-2.89,38.843-17.292,74.469-39.823,103.473l-118.088-95.619
		c-3.23-2.614-1.382-7.854,2.777-7.854H434.766z"/>
	<g>
		<g>
			<radialGradient id="SVGID_9_" cx="242.8629" cy="265.774" r="241.6334" gradientUnits="userSpaceOnUse">
				<stop  offset="0" style="stop-color:#18CFFC"/>
				<stop  offset="1" style="stop-color:#4A98F7"/>
			</radialGradient>
			<path style="fill:url(#SVGID_9_);" d="M246.538,268.846L130.901,471.409c-1.232,2.158-0.433,4.89,1.747,6.084
				c34.578,18.934,74.264,29.703,116.466,29.703c74.582,0,141.3-33.629,185.85-86.539c1.602-1.903,1.358-4.743-0.576-6.308
				L253.154,267.603C251.037,265.889,247.888,266.481,246.538,268.846z"/>
			<linearGradient id="SVGID_10_" gradientUnits="userSpaceOnUse" x1="267.106" y1="423.5197" x2="148.9808" y2="243.8183">
				<stop  offset="0" style="stop-color:#18CFFC;stop-opacity:0"/>
				<stop  offset="1" style="stop-color:#65E1DC"/>
			</linearGradient>
			<path style="fill:url(#SVGID_10_);" d="M249.115,507.195c72.502,0,137.567-31.785,182.066-82.164L260.694,286.99
				c-2.117-1.714-5.266-1.123-6.617,1.243L143,482.81C175.063,498.414,211.058,507.195,249.115,507.195z"/>
		</g>
		<linearGradient id="SVGID_11_" gradientUnits="userSpaceOnUse" x1="305.9485" y1="423.4377" x2="548.4817" y2="179.6475">
			<stop  offset="0" style="stop-color:#0469BC;stop-opacity:0"/>
			<stop  offset="1" style="stop-color:#0469BC"/>
		</linearGradient>
		<path style="fill:url(#SVGID_11_);" d="M434.389,414.348l-57.159-46.281c-45.422,64.381-120.375,106.436-205.157,106.436
			c-13.972,0-27.671-1.161-41.021-3.357l-0.15,0.263c-1.232,2.158-0.433,4.89,1.747,6.084
			c34.578,18.934,74.264,29.702,116.466,29.702c74.582,0,141.3-33.629,185.85-86.539
			C436.567,418.753,436.322,415.913,434.389,414.348z"/>
	</g>
	<radialGradient id="SVGID_12_" cx="257.2955" cy="280.1069" r="123.214" gradientUnits="userSpaceOnUse">
		<stop  offset="0" style="stop-color:#0469BC"/>
		<stop  offset="0.8532" style="stop-color:#0469BC;stop-opacity:0.1468"/>
		<stop  offset="1" style="stop-color:#0469BC;stop-opacity:0"/>
	</radialGradient>
	<path style="fill:url(#SVGID_12_);" d="M385.556,374.801c-35.211,38.881-86.106,63.31-142.693,63.31
		c-29.494,0-57.429-6.635-82.411-18.486l86.081-150.786c1.357-2.362,4.499-2.953,6.623-1.232L385.556,374.801z"/>
	<g>
		<g>
			<linearGradient id="SVGID_13_" gradientUnits="userSpaceOnUse" x1="113.2124" y1="245.6675" x2="372.5135" y2="245.6675">
				<stop  offset="0" style="stop-color:#F9F7FC"/>
				<stop  offset="1" style="stop-color:#F0DDFC"/>
			</linearGradient>
			<circle style="fill:url(#SVGID_13_);" cx="242.863" cy="245.668" r="129.651"/>
			<linearGradient id="SVGID_14_" gradientUnits="userSpaceOnUse" x1="245.1741" y1="246.9189" x2="131.4471" y2="185.343">
				<stop  offset="0" style="stop-color:#E9EDF5;stop-opacity:0"/>
				<stop  offset="1" style="stop-color:#FFFFFF"/>
			</linearGradient>
			<circle style="fill:url(#SVGID_14_);" cx="242.863" cy="245.668" r="121.284"/>
			<linearGradient id="SVGID_15_" gradientUnits="userSpaceOnUse" x1="242.8629" y1="206.7113" x2="242.8629" y2="134.3201">
				<stop  offset="0" style="stop-color:#E9EDF5;stop-opacity:0"/>
				<stop  offset="1" style="stop-color:#FFFFFF"/>
			</linearGradient>
			<ellipse style="fill:url(#SVGID_15_);" cx="242.863" cy="173.263" rx="78.671" ry="45.728"/>
			<linearGradient id="SVGID_16_" gradientUnits="userSpaceOnUse" x1="257.4038" y1="267.2215" x2="561.5134" y2="116.4235">
				<stop  offset="0" style="stop-color:#F0DDFC;stop-opacity:0"/>
				<stop  offset="0.2889" style="stop-color:#C8B7E0;stop-opacity:0.2889"/>
				<stop  offset="0.5915" style="stop-color:#A595C8;stop-opacity:0.5915"/>
				<stop  offset="0.8395" style="stop-color:#8F81B8;stop-opacity:0.8395"/>
				<stop  offset="1" style="stop-color:#8779B3"/>
			</linearGradient>
			<path style="fill:url(#SVGID_16_);" d="M300.86,129.691c8.744,17.452,13.673,37.147,13.673,57.996
				c0,71.604-58.047,129.651-129.65,129.651c-20.849,0-40.544-4.929-57.997-13.673c21.287,42.485,65.222,71.654,115.977,71.654
				c71.604,0,129.65-58.046,129.65-129.65C372.513,194.913,343.344,150.978,300.86,129.691z"/>
		</g>
	</g>
	<linearGradient id="SVGID_17_" gradientUnits="userSpaceOnUse" x1="250.8542" y1="268.4554" x2="105.7108" y2="160.3831">
		<stop  offset="0" style="stop-color:#F0DDFC;stop-opacity:0"/>
		<stop  offset="0.2889" style="stop-color:#C8B7E0;stop-opacity:0.2889"/>
		<stop  offset="0.5915" style="stop-color:#A595C8;stop-opacity:0.5915"/>
		<stop  offset="0.8395" style="stop-color:#8F81B8;stop-opacity:0.8395"/>
		<stop  offset="1" style="stop-color:#8779B3"/>
	</linearGradient>
	<path style="fill:url(#SVGID_17_);" d="M356.183,308.676c-15.444,27.747-40.791,49.211-71.252,59.653l-77.234-77.234
		c-24.04-24.04-42.651-42.638-42.751-42.739c-6.132-5.064-9.199-13.069-9.199-24.002v-33.251c0-10.92,3.066-18.925,9.199-24.002
		c6.132-5.077,14.426-7.615,24.869-7.615c10.367,0,18.674,2.538,24.932,7.615l35.324,35.362L356.183,308.676z"/>
	<linearGradient id="SVGID_18_" gradientUnits="userSpaceOnUse" x1="289.4455" y1="278.5845" x2="201.4797" y2="232.0882">
		<stop  offset="0" style="stop-color:#F0DDFC;stop-opacity:0"/>
		<stop  offset="0.2889" style="stop-color:#C8B7E0;stop-opacity:0.2889"/>
		<stop  offset="0.5915" style="stop-color:#A595C8;stop-opacity:0.5915"/>
		<stop  offset="0.8395" style="stop-color:#8F81B8;stop-opacity:0.8395"/>
		<stop  offset="1" style="stop-color:#8779B3"/>
	</linearGradient>
	<path style="fill:url(#SVGID_18_);" d="M372.507,245.668c0,22.871-5.919,44.36-16.324,63.009
		c-15.444,27.747-40.791,49.211-71.252,59.653c-13.195,4.536-27.345,6.987-42.073,6.987c-3.694,0-7.351-0.151-10.958-0.465
		l-37.624-37.272c-2.501-2.576-3.745-5.429-3.745-8.545c0-1.408,0.377-2.89,1.144-4.449l16.022-33.49l42.374-88.632l22.343-46.722
		c1.835-3.896,5.052-5.856,9.664-5.856c3.431,0,6.597,1.169,9.488,3.519c1.294,1.043,2.287,2.237,3.003,3.531l77.448,77.46
		C372.344,238.115,372.507,241.872,372.507,245.668z"/>
	<linearGradient id="SVGID_19_" gradientUnits="userSpaceOnUse" x1="347.2339" y1="315.8832" x2="239.7896" y2="266.2451">
		<stop  offset="0" style="stop-color:#F0DDFC;stop-opacity:0"/>
		<stop  offset="0.2889" style="stop-color:#C8B7E0;stop-opacity:0.2889"/>
		<stop  offset="0.5915" style="stop-color:#A595C8;stop-opacity:0.5915"/>
		<stop  offset="0.8395" style="stop-color:#8F81B8;stop-opacity:0.8395"/>
		<stop  offset="1" style="stop-color:#8779B3"/>
	</linearGradient>
	<path style="fill:url(#SVGID_19_);" d="M320.601,242.507c-6.253-5.072-14.563-7.611-24.929-7.611
		c-10.451,0-18.742,2.54-24.875,7.611c-6.133,5.075-9.199,13.077-9.199,24.003v33.254c0,10.929,3.066,18.932,9.199,24.003
		c0.101,0.084,14.916,14.892,35.178,35.153c21.046-11.749,38.488-29.178,50.213-50.244c3.739-6.7,6.887-13.772,9.401-21.138
		L320.601,242.507z"/>
	<g>
		<linearGradient id="SVGID_20_" gradientUnits="userSpaceOnUse" x1="189.9435" y1="207.8016" x2="221.7787" y2="356.0863">
			<stop  offset="0" style="stop-color:#7E8595"/>
			<stop  offset="1" style="stop-color:#555A66"/>
		</linearGradient>
		<path style="fill:url(#SVGID_20_);" d="M224.128,224.357v-33.254c0-10.926-3.128-18.928-9.378-24.003
			c-6.253-5.072-14.563-7.611-24.929-7.611c-10.451,0-18.742,2.54-24.875,7.611c-6.133,5.075-9.199,13.077-9.199,24.003v33.254
			c0,10.929,3.066,18.932,9.199,24.003c6.133,5.075,14.424,7.611,24.875,7.611c10.365,0,18.676-2.536,24.929-7.611
			C221,243.289,224.128,235.286,224.128,224.357z M201.647,224.357c0,7.493-3.944,11.24-11.826,11.24
			c-7.728,0-11.593-3.747-11.593-11.24v-33.254c0-7.494,3.865-11.24,11.593-11.24c7.882,0,11.826,3.747,11.826,11.24V224.357z"/>
		<linearGradient id="SVGID_21_" gradientUnits="userSpaceOnUse" x1="233.1113" y1="198.534" x2="264.9466" y2="346.8191">
			<stop  offset="0" style="stop-color:#7E8595"/>
			<stop  offset="1" style="stop-color:#555A66"/>
		</linearGradient>
		<path style="fill:url(#SVGID_21_);" d="M295.905,162.299c0-3.589-1.445-6.557-4.336-8.898c-2.891-2.342-6.056-3.512-9.492-3.512
			c-4.603,0-7.823,1.954-9.66,5.854l-80.738,168.844c-0.769,1.563-1.148,3.044-1.148,4.449c0,3.121,1.251,5.972,3.754,8.548
			c2.503,2.575,5.631,3.863,9.385,3.863c5.057,0,8.507-1.954,10.352-5.854l80.964-168.844
			C295.597,165.501,295.905,164.019,295.905,162.299z"/>
		<linearGradient id="SVGID_22_" gradientUnits="userSpaceOnUse" x1="275.6547" y1="189.4003" x2="307.4901" y2="337.6857">
			<stop  offset="0" style="stop-color:#7E8595"/>
			<stop  offset="1" style="stop-color:#555A66"/>
		</linearGradient>
		<path style="fill:url(#SVGID_22_);" d="M320.6,242.507c-6.253-5.072-14.562-7.611-24.929-7.611
			c-10.451,0-18.742,2.54-24.875,7.611c-6.132,5.075-9.198,13.077-9.198,24.003v33.253c0,10.93,3.066,18.933,9.198,24.004
			c6.133,5.075,14.424,7.61,24.875,7.61c10.367,0,18.676-2.535,24.929-7.61c6.251-5.072,9.379-13.074,9.379-24.004V266.51
			C329.979,255.584,326.85,247.581,320.6,242.507z M307.497,299.763c0,7.495-3.944,11.241-11.826,11.241
			c-7.728,0-11.593-3.747-11.593-11.241V266.51c0-7.493,3.865-11.241,11.593-11.241c7.882,0,11.826,3.748,11.826,11.241V299.763z"/>
	</g>
</g>
<g>
</g>
<g>
</g>
<g>
</g>
<g>
</g>
<g>
</g>
<g>
</g>
<g>
</g>
<g>
</g>
<g>
</g>
<g>
</g>
<g>
</g>
<g>
</g>
<g>
</g>
<g>
</g>
<g>
</g>
</svg>
