<?xml version="1.0" encoding="iso-8859-1"?>
<!-- Generator: Adobe Illustrator 22.0.0, SVG Export Plug-In . SVG Version: 6.00 Build 0)  -->
<svg version="1.1" id="Capa_1" xmlns="http://www.w3.org/2000/svg" xmlns:xlink="http://www.w3.org/1999/xlink" x="0px" y="0px"
	 viewBox="0 0 510 510" style="enable-background:new 0 0 510 510;" xml:space="preserve">
<g>
	<g>
		<linearGradient id="SVGID_1_" gradientUnits="userSpaceOnUse" x1="223.8797" y1="176.2681" x2="389.9311" y2="596.3645">
			<stop  offset="0" style="stop-color:#FFDA45"/>
			<stop  offset="1" style="stop-color:#FFA425"/>
		</linearGradient>
		<path style="fill:url(#SVGID_1_);" d="M494.098,433.512H15.902C7.12,433.512,0,426.392,0,417.609V92.391
			c0-8.783,7.12-15.902,15.902-15.902h478.195c8.783,0,15.902,7.12,15.902,15.902v325.219
			C510,426.392,502.88,433.512,494.098,433.512z"/>
		<linearGradient id="SVGID_2_" gradientUnits="userSpaceOnUse" x1="465" y1="465" x2="-135.9001" y2="-135.9001">
			<stop  offset="0" style="stop-color:#FFDA45"/>
			<stop  offset="1" style="stop-color:#FFA425"/>
		</linearGradient>
		<path style="fill:url(#SVGID_2_);" d="M486.067,425.453H23.933c-8.435,0-15.273-6.838-15.273-15.273V99.82
			c0-8.435,6.838-15.273,15.273-15.273h462.133c8.435,0,15.273,6.838,15.273,15.273v310.36
			C501.34,418.615,494.502,425.453,486.067,425.453z"/>
		<linearGradient id="SVGID_3_" gradientUnits="userSpaceOnUse" x1="213.564" y1="448.9357" x2="152.5638" y2="394.2689">
			<stop  offset="0" style="stop-color:#FFDA45;stop-opacity:0"/>
			<stop  offset="1" style="stop-color:#B53759"/>
		</linearGradient>
		<polygon style="fill:url(#SVGID_3_);" points="216.213,433.512 175.363,392.662 171.76,391.558 171.76,433.512 		"/>
		<g>
			<linearGradient id="SVGID_4_" gradientUnits="userSpaceOnUse" x1="227.546" y1="185.5437" x2="374.0347" y2="556.1478">
				<stop  offset="0" style="stop-color:#7E8595"/>
				<stop  offset="1" style="stop-color:#555A66"/>
			</linearGradient>
			<path style="fill:url(#SVGID_4_);" d="M472.591,409.942H37.41c-7.061,0-12.785-5.724-12.785-12.785V112.844
				c0-7.061,5.724-12.785,12.785-12.785h435.181c7.061,0,12.785,5.724,12.785,12.785v284.313
				C485.376,404.218,479.652,409.942,472.591,409.942z"/>
			<g>
				<linearGradient id="SVGID_5_" gradientUnits="userSpaceOnUse" x1="53" y1="255" x2="12.9875" y2="255">
					<stop  offset="0" style="stop-color:#555A66;stop-opacity:0"/>
					<stop  offset="1" style="stop-color:#555A66"/>
				</linearGradient>
				<path style="fill:url(#SVGID_5_);" d="M66,100.058H37.41c-7.061,0-12.785,5.724-12.785,12.785v284.313
					c0,7.061,5.724,12.785,12.785,12.785H66V100.058z"/>
				<linearGradient id="SVGID_6_" gradientUnits="userSpaceOnUse" x1="255" y1="130" x2="255" y2="87.7036">
					<stop  offset="0" style="stop-color:#555A66;stop-opacity:0"/>
					<stop  offset="1" style="stop-color:#555A66"/>
				</linearGradient>
				<path style="fill:url(#SVGID_6_);" d="M472.59,100.058H37.41c-7.061,0-12.785,5.724-12.785,12.785V136h460.752v-23.156
					C485.376,105.782,479.652,100.058,472.59,100.058z"/>
			</g>
			<linearGradient id="SVGID_7_" gradientUnits="userSpaceOnUse" x1="276.2358" y1="300.6805" x2="4.732" y2="-283.3541">
				<stop  offset="0" style="stop-color:#BEC3D2;stop-opacity:0"/>
				<stop  offset="0.221" style="stop-color:#C5C9D7;stop-opacity:0.221"/>
				<stop  offset="0.5343" style="stop-color:#D7DAE3;stop-opacity:0.5343"/>
				<stop  offset="0.9014" style="stop-color:#F6F6F8;stop-opacity:0.9014"/>
				<stop  offset="1" style="stop-color:#FFFFFF"/>
			</linearGradient>
			<path style="fill:url(#SVGID_7_);" d="M458.022,395.043H51.978c-6.436,0-11.654-5.218-11.654-11.654V126.611
				c0-6.436,5.218-11.654,11.654-11.654h406.044c6.436,0,11.654,5.218,11.654,11.654v256.778
				C469.676,389.825,464.458,395.043,458.022,395.043z"/>
		</g>
		<linearGradient id="SVGID_8_" gradientUnits="userSpaceOnUse" x1="194.505" y1="422.245" x2="171.6132" y2="399.3532">
			<stop  offset="0" style="stop-color:#555A66;stop-opacity:0"/>
			<stop  offset="1" style="stop-color:#555A66"/>
		</linearGradient>
		<polygon style="fill:url(#SVGID_8_);" points="192.643,409.942 175.363,392.662 171.76,391.558 171.76,409.942 		"/>
		<g>
			<linearGradient id="SVGID_9_" gradientUnits="userSpaceOnUse" x1="96.4974" y1="396.2168" x2="110.6989" y2="445.5484">
				<stop  offset="0" style="stop-color:#FFDA45"/>
				<stop  offset="1" style="stop-color:#FFA425"/>
			</linearGradient>
			<path style="fill:url(#SVGID_9_);" d="M135.445,393.188L135.445,393.188c0,6.057-4.911,10.968-10.968,10.968H77.913
				c-6.057,0-10.968-4.91-10.968-10.968l0,0c0-0.9-0.73-1.63-1.63-1.63H30.42c-3.201,0-5.796,2.595-5.796,5.796v30.362
				c0,3.201,2.595,5.796,5.796,5.796h141.55c3.201,0,5.796-2.595,5.796-5.796v-30.362c0-3.201-2.595-5.796-5.796-5.796h-34.895
				C136.175,391.558,135.445,392.288,135.445,393.188z"/>
			<linearGradient id="SVGID_10_" gradientUnits="userSpaceOnUse" x1="98.1346" y1="408.5376" x2="65.4679" y2="365.871">
				<stop  offset="0" style="stop-color:#FFDA45;stop-opacity:0"/>
				<stop  offset="1" style="stop-color:#FCEE21"/>
			</linearGradient>
			<path style="fill:url(#SVGID_10_);" d="M30.63,423.423v-21.777c0-2.255,1.828-4.083,4.083-4.083h23.92
				c1.626,0,3.086,0.969,3.743,2.456c2.634,5.966,8.608,10.142,15.538,10.142h46.564c6.93,0,12.903-4.175,15.537-10.142
				c0.657-1.487,2.117-2.456,3.743-2.456h23.92c2.255,0,4.083,1.828,4.083,4.083v21.777c0,2.255-1.828,4.083-4.083,4.083H34.713
				C32.458,427.506,30.63,425.678,30.63,423.423z"/>
			<linearGradient id="SVGID_11_" gradientUnits="userSpaceOnUse" x1="128.0708" y1="421.5545" x2="140.6819" y2="343.6361">
				<stop  offset="0" style="stop-color:#FFDA45;stop-opacity:0"/>
				<stop  offset="1" style="stop-color:#B53759"/>
			</linearGradient>
			<path style="fill:url(#SVGID_11_);" d="M171.97,433.512c3.201,0,5.796-2.595,5.796-5.796v-30.362
				c0-1.932-0.949-3.639-2.403-4.692l-99.997,40.85H171.97z"/>
		</g>
	</g>
	<g>
		<linearGradient id="SVGID_12_" gradientUnits="userSpaceOnUse" x1="90.1223" y1="173.0216" x2="154.122" y2="407.0211">
			<stop  offset="0" style="stop-color:#F9F7FC"/>
			<stop  offset="1" style="stop-color:#F0DDFC"/>
		</linearGradient>
		<path style="fill:url(#SVGID_12_);" d="M63.795,307.569c0-0.434,0.143-1.229,0.436-2.392l40.45-132.66
			c1.159-3.622,3.806-6.415,7.938-8.373c4.131-1.957,8.879-2.936,14.244-2.936c5.361,0,10.112,0.979,14.244,2.936
			c4.133,1.958,6.775,4.751,7.939,8.373l40.667,132.66c0.289,1.162,0.436,1.957,0.436,2.392c0,3.773-2.357,7.035-7.068,9.787
			c-4.713,2.756-9.605,4.132-14.68,4.132c-6.234,0-9.932-2.101-11.091-6.307l-7.393-27.185h-45.888l-7.395,27.185
			c-1.162,4.206-4.858,6.307-11.091,6.307c-5.076,0-9.971-1.376-14.68-4.132C66.151,314.604,63.795,311.341,63.795,307.569z
			 M110.988,261.899h31.751l-15.875-58.283L110.988,261.899z"/>
		<linearGradient id="SVGID_13_" gradientUnits="userSpaceOnUse" x1="229.4274" y1="136.8369" x2="293.4271" y2="370.8365">
			<stop  offset="0" style="stop-color:#F9F7FC"/>
			<stop  offset="1" style="stop-color:#F0DDFC"/>
		</linearGradient>
		<path style="fill:url(#SVGID_13_);" d="M209.765,311.266V172.952c0-3.334,1.447-5.906,4.35-7.721
			c2.898-1.811,6.378-2.718,10.439-2.718h44.582c28.996,0,43.495,12.905,43.495,38.71c0,17.398-6.164,28.782-18.485,34.145
			c7.395,2.756,12.974,6.707,16.746,11.851c3.768,5.149,5.654,12.798,5.654,22.944v4.567c0,16.238-3.953,28.092-11.853,35.557
			c-7.903,7.469-18.523,11.2-31.859,11.2h-48.279c-4.496,0-8.084-1.013-10.766-3.044
			C211.104,316.415,209.765,314.022,209.765,311.266z M243.474,222.319h22.835c3.915,0,6.959-1.484,9.134-4.458
			c2.175-2.97,3.262-6.487,3.262-10.548c0-4.057-1.087-7.611-3.262-10.656c-2.175-3.045-5.219-4.566-9.134-4.566h-22.835V222.319z
			 M243.474,291.911h21.748c11.597,0,17.397-6.666,17.397-20.008v-3.479c0-13.338-5.801-20.008-17.397-20.008h-21.748V291.911z"/>
		<linearGradient id="SVGID_14_" gradientUnits="userSpaceOnUse" x1="355.4937" y1="104.2728" x2="419.4937" y2="338.2735">
			<stop  offset="0" style="stop-color:#F9F7FC"/>
			<stop  offset="1" style="stop-color:#F0DDFC"/>
		</linearGradient>
		<path style="fill:url(#SVGID_14_);" d="M339.423,271.468v-57.631c0-17.687,4.818-30.664,14.462-38.929
			c9.641-8.264,22.217-12.396,37.732-12.396c15.946,0,29.032,3.843,39.255,11.526c10.221,7.686,15.332,18.268,15.332,31.751
			c0,6.235-1.306,10.477-3.915,12.723c-2.61,2.249-6.96,3.37-13.049,3.37c-10.874,0-16.528-3.404-16.963-10.221
			c-0.435-13.049-6.888-19.572-19.355-19.572c-13.048,0-19.573,7.251-19.573,21.747v57.631c0,14.499,6.596,21.747,19.791,21.747
			c4.057,0,7.428-0.652,10.112-1.957c2.681-1.305,4.6-3.296,5.763-5.98c1.159-2.681,1.92-4.892,2.283-6.633
			c0.361-1.74,0.688-4.132,0.979-7.177c0.577-6.814,6.161-10.222,16.745-10.222c6.232,0,10.656,1.125,13.267,3.371
			c2.609,2.25,3.915,6.49,3.915,12.723c0,14.064-5.111,25.156-15.332,33.273c-10.223,8.121-23.309,12.179-39.255,12.179
			c-15.516,0-28.092-4.132-37.732-12.396C344.242,302.132,339.423,289.159,339.423,271.468z"/>
	</g>
	<linearGradient id="SVGID_15_" gradientUnits="userSpaceOnUse" x1="387.4321" y1="397.9435" x2="376.9321" y2="357.4435">
		<stop  offset="0" style="stop-color:#555A66;stop-opacity:0"/>
		<stop  offset="1" style="stop-color:#555A66"/>
	</linearGradient>
	<path style="fill:url(#SVGID_15_);" d="M379.307,357.183c-0.944-1.287-2.22-2.357-3.782-3.053l-28.317-12.616
		c-4.793-2.135-10.409,0.019-12.544,4.812c-1.855,4.165-0.469,8.948,3.07,11.532l52.084,52.084h42.248L379.307,357.183z"/>
	
		<linearGradient id="SVGID_16_" gradientUnits="userSpaceOnUse" x1="354.6391" y1="312.7556" x2="374.1922" y2="384.2469" gradientTransform="matrix(0.407 -0.9134 0.9134 0.407 -115.7249 546.5069)">
		<stop  offset="0" style="stop-color:#F9F7FC"/>
		<stop  offset="1" style="stop-color:#F0DDFC"/>
	</linearGradient>
	<path style="fill:url(#SVGID_16_);" d="M380.336,366.674L380.336,366.674c-2.135,4.793-7.751,6.947-12.544,4.812l-28.317-12.616
		c-4.793-2.135-6.947-7.751-4.812-12.544l0,0c2.135-4.793,7.751-6.947,12.544-4.812l28.317,12.616
		C380.317,356.265,382.471,361.882,380.336,366.674z"/>
</g>
<g>
</g>
<g>
</g>
<g>
</g>
<g>
</g>
<g>
</g>
<g>
</g>
<g>
</g>
<g>
</g>
<g>
</g>
<g>
</g>
<g>
</g>
<g>
</g>
<g>
</g>
<g>
</g>
<g>
</g>
</svg>
