<?xml version="1.0" encoding="iso-8859-1"?>
<!-- Generator: Adobe Illustrator 22.0.0, SVG Export Plug-In . SVG Version: 6.00 Build 0)  -->
<svg version="1.1" id="Capa_1" xmlns="http://www.w3.org/2000/svg" xmlns:xlink="http://www.w3.org/1999/xlink" x="0px" y="0px"
	 viewBox="0 0 510 510" style="enable-background:new 0 0 510 510;" xml:space="preserve">
<g>
	<g>
		<g>
			<linearGradient id="SVGID_1_" gradientUnits="userSpaceOnUse" x1="40.0939" y1="256.5191" x2="84.9064" y2="249.9466">
				<stop  offset="0" style="stop-color:#FFDA45"/>
				<stop  offset="1" style="stop-color:#FFA425"/>
			</linearGradient>
			<rect x="46.194" y="109.517" style="fill:url(#SVGID_1_);" width="26.434" height="288.339"/>
			<linearGradient id="SVGID_2_" gradientUnits="userSpaceOnUse" x1="52.1202" y1="387.831" x2="63.4727" y2="405.1585">
				<stop  offset="0" style="stop-color:#FF7044"/>
				<stop  offset="1" style="stop-color:#F92814"/>
			</linearGradient>
			<path style="fill:url(#SVGID_2_);" d="M72.628,410.531H48.167c-4.36,0-7.895-3.534-7.895-7.895V391.78
				c0-4.36,3.535-7.895,7.895-7.895h24.461V410.531z"/>
			<linearGradient id="SVGID_3_" gradientUnits="userSpaceOnUse" x1="59.2666" y1="105.8147" x2="99.2991" y2="151.8222">
				<stop  offset="0" style="stop-color:#FF7044"/>
				<stop  offset="1" style="stop-color:#F92814"/>
			</linearGradient>
			<path style="fill:url(#SVGID_3_);" d="M152.68,232.524H65.553L46.512,116.435c-1.028-6.372,0.462-12.888,4.12-18.206
				C61.73,82.096,74.866,67.469,89.666,54.72c13.053-11.244,33.384-3.832,36.13,13.175L152.68,232.524z"/>
			<linearGradient id="SVGID_4_" gradientUnits="userSpaceOnUse" x1="92.9207" y1="142.5092" x2="29.5857" y2="120.4017">
				<stop  offset="0" style="stop-color:#FF7044;stop-opacity:0"/>
				<stop  offset="0.2503" style="stop-color:#FF813A;stop-opacity:0.2503"/>
				<stop  offset="0.7194" style="stop-color:#FF9A2B;stop-opacity:0.7194"/>
				<stop  offset="1" style="stop-color:#FFA425"/>
			</linearGradient>
			<path style="fill:url(#SVGID_4_);" d="M152.68,232.524L125.796,67.895c-0.71-4.395-2.6-8.143-5.23-11.1
				c-5.993-0.93-12.427,0.568-17.683,5.095c-14.8,12.749-27.936,27.376-39.034,43.509c-3.658,5.318-5.149,11.834-4.12,18.206
				l17.865,108.919H152.68z"/>
		</g>
		<g>
			
				<linearGradient id="SVGID_5_" gradientUnits="userSpaceOnUse" x1="400.8488" y1="256.5191" x2="445.6613" y2="249.9466" gradientTransform="matrix(-1 0 0 1 870.7549 0)">
				<stop  offset="0" style="stop-color:#FFDA45"/>
				<stop  offset="1" style="stop-color:#FFA425"/>
			</linearGradient>
			<rect x="437.372" y="109.517" style="fill:url(#SVGID_5_);" width="26.434" height="288.339"/>
			<linearGradient id="SVGID_6_" gradientUnits="userSpaceOnUse" x1="452.1994" y1="285.5139" x2="377.5118" y2="234.1288">
				<stop  offset="0" style="stop-color:#FFDA45;stop-opacity:0"/>
				<stop  offset="0.5194" style="stop-color:#D9874F;stop-opacity:0.5194"/>
				<stop  offset="1" style="stop-color:#B53759"/>
			</linearGradient>
			<polygon style="fill:url(#SVGID_6_);" points="437.372,152.77 437.372,397.855 463.806,397.855 463.806,179.204 			"/>
			
				<linearGradient id="SVGID_7_" gradientUnits="userSpaceOnUse" x1="412.8751" y1="387.831" x2="424.2276" y2="405.1585" gradientTransform="matrix(-1 0 0 1 870.7549 0)">
				<stop  offset="0" style="stop-color:#FF7044"/>
				<stop  offset="1" style="stop-color:#F92814"/>
			</linearGradient>
			<path style="fill:url(#SVGID_7_);" d="M437.372,410.531h24.461c4.36,0,7.895-3.534,7.895-7.895V391.78
				c0-4.36-3.535-7.895-7.895-7.895h-24.461V410.531z"/>
			
				<linearGradient id="SVGID_8_" gradientUnits="userSpaceOnUse" x1="420.0215" y1="105.8147" x2="460.054" y2="151.8222" gradientTransform="matrix(-1 0 0 1 870.7549 0)">
				<stop  offset="0" style="stop-color:#FF7044"/>
				<stop  offset="1" style="stop-color:#F92814"/>
			</linearGradient>
			<path style="fill:url(#SVGID_8_);" d="M357.32,232.524h87.127l19.041-116.089c1.028-6.372-0.462-12.888-4.12-18.206
				c-11.098-16.133-24.234-30.76-39.034-43.509c-13.053-11.244-33.384-3.832-36.13,13.175L357.32,232.524z"/>
			<linearGradient id="SVGID_9_" gradientUnits="userSpaceOnUse" x1="397.057" y1="147.0864" x2="315.797" y2="74.7888">
				<stop  offset="0" style="stop-color:#FF7044;stop-opacity:0"/>
				<stop  offset="0.2503" style="stop-color:#FF813A;stop-opacity:0.2503"/>
				<stop  offset="0.7194" style="stop-color:#FF9A2B;stop-opacity:0.7194"/>
				<stop  offset="1" style="stop-color:#FFA425"/>
			</linearGradient>
			<path style="fill:url(#SVGID_9_);" d="M444.448,232.524l19.041-116.089c1.028-6.372-0.462-12.888-4.12-18.206
				c-4.468-6.495-9.281-12.732-14.385-18.714c-4.922-5.113-10.076-10.003-15.456-14.637c-13.053-11.244-33.384-3.832-36.13,13.175
				l-25.225,154.471H444.448z"/>
			<linearGradient id="SVGID_10_" gradientUnits="userSpaceOnUse" x1="469.3339" y1="223.7544" x2="361.7838" y2="148.4694">
				<stop  offset="0" style="stop-color:#F92814;stop-opacity:0"/>
				<stop  offset="0.0664" style="stop-color:#F32817;stop-opacity:0.0664"/>
				<stop  offset="0.4333" style="stop-color:#D82723;stop-opacity:0.4333"/>
				<stop  offset="0.7567" style="stop-color:#C7272A;stop-opacity:0.7567"/>
				<stop  offset="1" style="stop-color:#C1272D"/>
			</linearGradient>
			<polygon style="fill:url(#SVGID_10_);" points="393.701,232.524 444.448,232.524 454.689,170.087 393.701,109.099 			"/>
		</g>
	</g>
	<radialGradient id="SVGID_11_" cx="255" cy="59.5149" r="52.5807" gradientUnits="userSpaceOnUse">
		<stop  offset="0" style="stop-color:#FFA425"/>
		<stop  offset="0.2925" style="stop-color:#FFA727"/>
		<stop  offset="0.5496" style="stop-color:#FFB22D"/>
		<stop  offset="0.7925" style="stop-color:#FFC438"/>
		<stop  offset="1" style="stop-color:#FFDA45"/>
	</radialGradient>
	<path style="fill:url(#SVGID_11_);" d="M314.515,119.03H195.486V59.514C195.486,26.698,222.183,0,255,0
		s59.515,26.698,59.515,59.514V119.03z M225.36,89.155h59.279v-29.64c0-16.344-13.296-29.639-29.639-29.639
		c-16.344,0-29.64,13.296-29.64,29.639V89.155z"/>
	<g>
		<linearGradient id="SVGID_12_" gradientUnits="userSpaceOnUse" x1="107.9927" y1="159.8333" x2="449.7622" y2="518.3331">
			<stop  offset="0" style="stop-color:#18CFFC"/>
			<stop  offset="1" style="stop-color:#4A98F7"/>
		</linearGradient>
		<path style="fill:url(#SVGID_12_);" d="M402.824,495.335L402.824,495.335c-97.58,19.553-198.069,19.553-295.649,0h0
			c-25.044-5.018-43.067-27.012-43.067-52.553V240.249c0-105.426,85.465-190.891,190.892-190.891h0
			c105.426,0,190.892,85.465,190.892,190.891v202.533C445.892,468.324,427.868,490.317,402.824,495.335z"/>
		<linearGradient id="SVGID_13_" gradientUnits="userSpaceOnUse" x1="334.2556" y1="376.3746" x2="28.3357" y2="121.8397">
			<stop  offset="0" style="stop-color:#18CFFC;stop-opacity:0"/>
			<stop  offset="1" style="stop-color:#65E1DC"/>
		</linearGradient>
		<path style="fill:url(#SVGID_13_);" d="M278.798,73.155L278.798,73.155c-105.427,0-190.892,85.465-190.892,190.892V466.58
			c0,8.605,2.053,16.803,5.723,24.089c4.207,2.115,8.746,3.705,13.546,4.667h0c97.58,19.553,198.069,19.553,295.648,0h0
			c25.044-5.018,43.067-27.012,43.067-52.553V240.249c0-46.654-16.746-89.392-44.543-122.551
			C368.189,89.901,325.452,73.155,278.798,73.155z"/>
		<linearGradient id="SVGID_14_" gradientUnits="userSpaceOnUse" x1="252.894" y1="315.6205" x2="623.9226" y2="224.2076">
			<stop  offset="0" style="stop-color:#0469BC;stop-opacity:0"/>
			<stop  offset="1" style="stop-color:#0469BC"/>
		</linearGradient>
		<path style="fill:url(#SVGID_14_);" d="M350.418,74.885c20.161,31.555,31.85,69.047,31.85,109.27v215.62
			c0,27.192-19.188,50.607-45.85,55.949h0c-88.391,17.712-179.022,20.343-268.082,7.915c6.741,15.939,21.007,28.123,38.84,31.697h0
			c97.58,19.553,198.069,19.553,295.648,0h0c25.044-5.018,43.067-27.012,43.067-52.553V240.249
			C445.892,169.582,407.49,107.887,350.418,74.885z"/>
		<linearGradient id="SVGID_15_" gradientUnits="userSpaceOnUse" x1="328.7455" y1="523.5859" x2="241.9088" y2="328.4024">
			<stop  offset="0" style="stop-color:#0469BC;stop-opacity:0"/>
			<stop  offset="1" style="stop-color:#0469BC"/>
		</linearGradient>
		<path style="fill:url(#SVGID_15_);" d="M402.824,495.335L402.824,495.335c25.044-5.018,43.067-27.012,43.067-52.553V337.576
			l-35.387-35.387c-7.715-8.299-18.416-13.728-30.261-14.705c-83.512-6.888-166.975-6.888-250.487,0
			c-20.404,1.683-37.432,16.558-41.604,36.601c-7.37,35.404-7.371,70.073,0,105.483c1.994,9.581,6.931,17.975,13.764,24.318
			l48.848,48.848C234.498,514.447,319.716,511.988,402.824,495.335z"/>
		<linearGradient id="SVGID_16_" gradientUnits="userSpaceOnUse" x1="255" y1="472.0736" x2="255" y2="512.7738">
			<stop  offset="0" style="stop-color:#0469BC;stop-opacity:0"/>
			<stop  offset="1" style="stop-color:#0469BC"/>
		</linearGradient>
		<path style="fill:url(#SVGID_16_);" d="M64.108,430.491v12.291c0,25.542,18.023,47.535,43.067,52.553h0
			c97.58,19.553,198.069,19.553,295.648,0h0c25.044-5.018,43.067-27.012,43.067-52.553v-12.291H64.108z"/>
		<linearGradient id="SVGID_17_" gradientUnits="userSpaceOnUse" x1="146.9233" y1="451.0003" x2="105.0982" y2="398.022">
			<stop  offset="0" style="stop-color:#0469BC;stop-opacity:0"/>
			<stop  offset="1" style="stop-color:#0469BC"/>
		</linearGradient>
		<path style="fill:url(#SVGID_17_);" d="M97.771,363.103c-0.845-1.633-2.53-2.762-4.496-2.762c-2.806,0-5.081,2.275-5.081,5.081
			v0.541c-7.421,2.194-12.844,9.054-12.844,17.182v29.421c0,5.501,2.488,10.421,6.393,13.71l77.607,77.607
			c20.906,2.679,41.896,4.475,62.915,5.391V494.21c0-4.947-2.008-9.429-5.258-12.667L97.771,363.103z"/>
		<g>
			<linearGradient id="SVGID_18_" gradientUnits="userSpaceOnUse" x1="206.8431" y1="299.1863" x2="323.9531" y2="487.9962">
				<stop  offset="0" style="stop-color:#FFDA45"/>
				<stop  offset="1" style="stop-color:#FFA425"/>
			</linearGradient>
			<path style="fill:url(#SVGID_18_);" d="M380.244,466.171c-83.513,6.888-166.975,6.888-250.488,0
				c-20.404-1.683-37.432-16.559-41.605-36.602c-7.371-35.41-7.369-70.079,0-105.483c4.172-20.043,21.201-34.919,41.604-36.601
				c83.513-6.888,166.975-6.888,250.487,0c20.404,1.683,37.432,16.558,41.604,36.601c7.37,35.404,7.371,70.073,0,105.483
				C417.676,449.612,400.648,464.488,380.244,466.171z"/>
		</g>
		<linearGradient id="SVGID_19_" gradientUnits="userSpaceOnUse" x1="195.3822" y1="373.9547" x2="638.7263" y2="396.6596">
			<stop  offset="0" style="stop-color:#FFDA45;stop-opacity:0"/>
			<stop  offset="0.5194" style="stop-color:#D9874F;stop-opacity:0.5194"/>
			<stop  offset="1" style="stop-color:#B53759"/>
		</linearGradient>
		<path style="fill:url(#SVGID_19_);" d="M421.848,324.085c-4.172-20.043-21.201-34.918-41.604-36.601
			c-4.863-0.401-9.727-0.774-14.59-1.128c6.776,34.398,6.603,68.141-0.566,102.582c-4.172,20.044-21.201,34.92-41.605,36.602
			c-78.649,6.487-157.254,6.86-235.898,1.128c0.19,0.967,0.365,1.932,0.566,2.899c4.172,20.044,21.201,34.919,41.605,36.602
			c83.513,6.888,166.975,6.888,250.488,0c20.404-1.683,37.433-16.559,41.605-36.602
			C429.219,394.158,429.218,359.489,421.848,324.085z"/>
		<linearGradient id="SVGID_20_" gradientUnits="userSpaceOnUse" x1="272.085" y1="398.0275" x2="169.315" y2="253.0342">
			<stop  offset="0" style="stop-color:#FFDA45;stop-opacity:0"/>
			<stop  offset="0.6245" style="stop-color:#FDE82B;stop-opacity:0.6245"/>
			<stop  offset="1" style="stop-color:#FCEE21"/>
		</linearGradient>
		<path style="fill:url(#SVGID_20_);" d="M380.244,466.17c20.404-1.683,37.433-16.559,41.605-36.602
			c7.371-35.41,7.369-70.079,0-105.483c-0.732-3.517-1.868-6.87-3.34-10.026c-5.902-3.468-12.617-5.672-19.748-6.26
			c-83.513-6.888-166.975-6.888-250.488,0c-20.404,1.683-37.432,16.558-41.604,36.601c-7.37,35.404-7.371,70.073,0,105.483
			c0.732,3.518,1.868,6.871,3.341,10.027c5.901,3.468,12.617,5.672,19.748,6.26C213.269,473.059,296.731,473.058,380.244,466.17z"/>
		<linearGradient id="SVGID_21_" gradientUnits="userSpaceOnUse" x1="254.7972" y1="379.0271" x2="256.0197" y2="344.3473">
			<stop  offset="0" style="stop-color:#FFDA45"/>
			<stop  offset="1" style="stop-color:#FFA425"/>
		</linearGradient>
		<path style="fill:url(#SVGID_21_);" d="M83.453,356.547c-0.486,6.003-0.744,11.998-0.799,17.992
			c52.141-2.775,111.644-4.243,172.346-4.243s120.205,1.468,172.346,4.243c-0.055-5.994-0.313-11.989-0.799-17.992
			c-52.036-2.732-111.212-4.176-171.547-4.176C194.666,352.371,135.489,353.815,83.453,356.547z"/>
		<linearGradient id="SVGID_22_" gradientUnits="userSpaceOnUse" x1="266.2013" y1="359.3453" x2="266.2013" y2="366.9136">
			<stop  offset="0" style="stop-color:#FF7044"/>
			<stop  offset="1" style="stop-color:#F92814"/>
		</linearGradient>
		<path style="fill:url(#SVGID_22_);" d="M421.508,370.893c-0.087,0-0.174-0.002-0.262-0.007c-5.866-0.316-11.825-0.616-17.87-0.899
			c-2.637-0.124-4.675-2.362-4.551-4.999c0.123-2.636,2.374-4.687,4.998-4.551c6.068,0.285,12.05,0.585,17.938,0.903
			c2.636,0.142,4.658,2.395,4.515,5.031C426.139,368.92,424.029,370.893,421.508,370.893z M110.896,369.786
			c-2.542,0-4.656-2.001-4.772-4.565c-0.118-2.637,1.924-4.871,4.561-4.99c5.906-0.265,11.89-0.515,17.943-0.746
			c2.627-0.111,4.858,1.956,4.959,4.593c0.101,2.638-1.956,4.859-4.594,4.96c-6.031,0.231-11.994,0.478-17.879,0.743
			C111.041,369.784,110.968,369.786,110.896,369.786z M379.723,368.985c-0.061,0-0.122-0.001-0.183-0.004
			c-5.9-0.223-11.865-0.43-17.887-0.621c-2.639-0.084-4.709-2.291-4.626-4.929c0.084-2.639,2.281-4.656,4.929-4.626
			c6.041,0.191,12.025,0.4,17.944,0.623c2.638,0.099,4.696,2.319,4.596,4.956C384.4,366.961,382.28,368.985,379.723,368.985z
			 M152.695,368.223c-2.573,0-4.697-2.046-4.775-4.635c-0.08-2.639,1.994-4.843,4.633-4.922c5.932-0.18,11.917-0.344,17.948-0.491
			c2.629-0.093,4.831,2.021,4.896,4.662c0.064,2.638-2.023,4.831-4.662,4.895c-6.012,0.147-11.978,0.309-17.892,0.489
			C152.794,368.222,152.744,368.223,152.695,368.223z M337.923,367.698c-0.039,0-0.078,0-0.117-0.001
			c-5.922-0.142-11.886-0.27-17.888-0.383c-2.64-0.049-4.739-2.229-4.69-4.869c0.05-2.64,2.239-4.758,4.869-4.689
			c6.019,0.113,12,0.24,17.939,0.383c2.639,0.063,4.727,2.255,4.664,4.893C342.637,365.632,340.51,367.698,337.923,367.698z
			 M194.521,367.235c-2.602,0-4.732-2.085-4.778-4.697c-0.046-2.64,2.057-4.816,4.697-4.862c5.953-0.103,11.941-0.191,17.956-0.264
			c0.02,0,0.04,0,0.059,0c2.613,0,4.747,2.102,4.778,4.723c0.032,2.64-2.082,4.805-4.722,4.837
			c-5.999,0.072-11.97,0.16-17.908,0.261C194.577,367.235,194.549,367.235,194.521,367.235z M296.114,366.954
			c-0.019,0-0.037,0-0.057,0c-5.941-0.069-11.909-0.124-17.896-0.163c-2.64-0.018-4.766-2.172-4.749-4.811
			c0.017-2.64,2.148-4.792,4.811-4.749c6.004,0.04,11.987,0.094,17.944,0.163c2.64,0.03,4.755,2.195,4.724,4.835
			C300.862,364.85,298.728,366.954,296.114,366.954z M236.36,366.765c-2.628,0-4.765-2.124-4.779-4.754
			c-0.014-2.64,2.115-4.792,4.755-4.806c5.969-0.032,11.955-0.048,17.954-0.049c2.64,0,4.781,2.139,4.781,4.779
			c0.001,2.64-2.139,4.781-4.779,4.781c-5.983,0.001-11.954,0.017-17.906,0.049C236.378,366.765,236.369,366.765,236.36,366.765z"/>
		<linearGradient id="SVGID_23_" gradientUnits="userSpaceOnUse" x1="156.6191" y1="450.3654" x2="30.3475" y2="352.7737">
			<stop  offset="0" style="stop-color:#FFDA45;stop-opacity:0"/>
			<stop  offset="0.5194" style="stop-color:#D9874F;stop-opacity:0.5194"/>
			<stop  offset="1" style="stop-color:#B53759"/>
		</linearGradient>
		<path style="fill:url(#SVGID_23_);" d="M97.771,363.103c-0.845-1.633-2.53-2.762-4.496-2.762c-2.806,0-5.081,2.275-5.081,5.081
			v0.541c-1.971,0.583-3.795,1.503-5.42,2.68c-0.663,20.251,1.118,40.465,5.377,60.926c0.298,1.433,0.669,2.835,1.095,4.212
			l30.407,30.407c3.239,1.016,6.619,1.696,10.102,1.983c25.407,2.096,50.81,3.544,76.211,4.365L97.771,363.103z"/>
		<g>
			<g>
				<linearGradient id="SVGID_24_" gradientUnits="userSpaceOnUse" x1="82.8124" y1="391.1313" x2="127.4258" y2="419.8113">
					<stop  offset="0" style="stop-color:#FF7044"/>
					<stop  offset="1" style="stop-color:#F92814"/>
				</linearGradient>
				<path style="fill:url(#SVGID_24_);" d="M105.942,370.478c-3.239-3.25-7.72-5.258-12.667-5.258
					c-9.895,0-17.925,8.03-17.925,17.925v29.421c0,9.895,8.031,17.925,17.925,17.925c9.895,0,17.925-8.03,17.925-17.925v-29.421
					C111.2,378.197,109.192,373.716,105.942,370.478z M93.275,393.446c-5.282,0-9.56-4.278-9.56-9.56c0-5.282,4.278-9.56,9.56-9.56
					c5.282,0,9.56,4.278,9.56,9.56C102.835,389.168,98.557,393.446,93.275,393.446z"/>
				<radialGradient id="SVGID_25_" cx="93.2746" cy="383.8857" r="15.3371" gradientUnits="userSpaceOnUse">
					<stop  offset="0" style="stop-color:#C1272D"/>
					<stop  offset="0.2642" style="stop-color:#C5272B;stop-opacity:0.7358"/>
					<stop  offset="0.5348" style="stop-color:#D12726;stop-opacity:0.4652"/>
					<stop  offset="0.8073" style="stop-color:#E6281D;stop-opacity:0.1927"/>
					<stop  offset="1" style="stop-color:#F92814;stop-opacity:0"/>
				</radialGradient>
				<path style="fill:url(#SVGID_25_);" d="M93.275,367.156c-9.243,0-16.73,7.487-16.73,16.73c0,9.243,7.487,16.73,16.73,16.73
					c9.243,0,16.73-7.487,16.73-16.73C110.005,374.642,102.518,367.156,93.275,367.156z M93.275,393.446
					c-5.282,0-9.56-4.278-9.56-9.56c0-5.282,4.278-9.56,9.56-9.56c5.282,0,9.56,4.278,9.56,9.56
					C102.835,389.168,98.557,393.446,93.275,393.446z"/>
			</g>
			<linearGradient id="SVGID_26_" gradientUnits="userSpaceOnUse" x1="88.194" y1="370.191" x2="98.3552" y2="370.191">
				<stop  offset="0" style="stop-color:#FF7044"/>
				<stop  offset="1" style="stop-color:#F92814"/>
			</linearGradient>
			<path style="fill:url(#SVGID_26_);" d="M93.275,380.041L93.275,380.041c-2.806,0-5.081-2.275-5.081-5.081v-9.539
				c0-2.806,2.275-5.081,5.081-5.081l0,0c2.806,0,5.081,2.275,5.081,5.081v9.539C98.355,377.766,96.081,380.041,93.275,380.041z"/>
		</g>
		<linearGradient id="SVGID_27_" gradientUnits="userSpaceOnUse" x1="272.9798" y1="257.0408" x2="198.8902" y2="62.2564">
			<stop  offset="0" style="stop-color:#18CFFC"/>
			<stop  offset="1" style="stop-color:#4A98F7"/>
		</linearGradient>
		<path style="fill:url(#SVGID_27_);" d="M348.537,253.389H161.463c-9.928,0-17.977-8.048-17.977-17.977V184.13
			c0-9.928,8.048-17.977,17.977-17.977h187.074c9.928,0,17.977,8.048,17.977,17.977v51.282
			C366.513,245.34,358.465,253.389,348.537,253.389z"/>
		<linearGradient id="SVGID_28_" gradientUnits="userSpaceOnUse" x1="253.1059" y1="186.0944" x2="257.8858" y2="245.8444">
			<stop  offset="0" style="stop-color:#18CFFC"/>
			<stop  offset="1" style="stop-color:#4A98F7"/>
		</linearGradient>
		<path style="fill:url(#SVGID_28_);" d="M344.383,245.815H165.617c-8.768,0-15.877-7.108-15.877-15.877v-40.334
			c0-8.768,7.108-15.877,15.877-15.877h178.766c8.768,0,15.877,7.108,15.877,15.877v40.334
			C360.26,238.707,353.152,245.815,344.383,245.815z"/>
		<linearGradient id="SVGID_29_" gradientUnits="userSpaceOnUse" x1="255.0001" y1="197.2237" x2="255.0001" y2="174.5188">
			<stop  offset="0" style="stop-color:#18CFFC"/>
			<stop  offset="1" style="stop-color:#4A98F7"/>
		</linearGradient>
		<path style="fill:url(#SVGID_29_);" d="M255,199.917c35.938,0,71.441,0.519,105.26,1.514v-11.828c0-2.177-0.44-4.251-1.233-6.141
			c-33.468-0.967-68.54-1.471-104.027-1.471c-35.486,0-70.559,0.503-104.027,1.471c-0.793,1.889-1.233,3.963-1.233,6.141v11.828
			C183.559,200.436,219.062,199.917,255,199.917z"/>
		<g>
			
				<linearGradient id="SVGID_30_" gradientUnits="userSpaceOnUse" x1="215.6193" y1="187.2703" x2="215.6193" y2="192.6824" gradientTransform="matrix(1 0.0082 -0.0082 1 1.3939 -1.5195)">
				<stop  offset="0" style="stop-color:#FFDA45"/>
				<stop  offset="1" style="stop-color:#FFA425"/>
			</linearGradient>
			<path style="fill:url(#SVGID_30_);" d="M224.457,186.027c-0.019,0-0.039,0-0.059,0c-6.016,0.023-12.004,0.063-17.958,0.117
				c-2.64,0.024-4.761,2.183-4.737,4.823c0.024,2.612,2.137,4.715,4.739,4.736c0.028,0,0.056,0,0.084,0
				c5.938-0.053,11.91-0.092,17.909-0.115c2.64-0.011,4.771-2.159,4.761-4.799C229.187,188.168,227.07,186.049,224.457,186.027z"/>
			
				<linearGradient id="SVGID_31_" gradientUnits="userSpaceOnUse" x1="173.7906" y1="188.0674" x2="173.7906" y2="193.6058" gradientTransform="matrix(1 0.0082 -0.0082 1 1.3939 -1.5195)">
				<stop  offset="0" style="stop-color:#FFDA45"/>
				<stop  offset="1" style="stop-color:#FFA425"/>
			</linearGradient>
			<path style="fill:url(#SVGID_31_);" d="M182.498,186.447c-6.031,0.098-12.018,0.214-17.951,0.345
				c-2.64,0.058-4.731,2.245-4.673,4.884c0.057,2.59,2.164,4.653,4.737,4.674c0.049,0,0.099,0,0.148-0.001
				c5.915-0.132,11.882-0.245,17.895-0.343c2.64-0.043,4.745-2.218,4.702-4.857C187.312,188.507,185.128,186.375,182.498,186.447z"
				/>
			
				<linearGradient id="SVGID_32_" gradientUnits="userSpaceOnUse" x1="257.4555" y1="186.9793" x2="257.4555" y2="192.2736" gradientTransform="matrix(1 0.0082 -0.0082 1 1.3939 -1.5195)">
				<stop  offset="0" style="stop-color:#FFDA45"/>
				<stop  offset="1" style="stop-color:#FFA425"/>
			</linearGradient>
			<path style="fill:url(#SVGID_32_);" d="M266.292,186.113c-5.999-0.048-11.985-0.08-17.954-0.098
				c-2.64-0.007-4.786,2.127-4.794,4.767c-0.007,2.63,2.113,4.772,4.74,4.793c0.009,0,0.018,0,0.026,0
				c5.952,0.017,11.923,0.049,17.906,0.097c2.64,0.022,4.797-2.102,4.818-4.742C271.055,188.291,268.933,186.135,266.292,186.113z"
				/>
			
				<linearGradient id="SVGID_33_" gradientUnits="userSpaceOnUse" x1="299.2811" y1="187.0706" x2="299.2811" y2="192.4276" gradientTransform="matrix(1 0.0082 -0.0082 1 1.3939 -1.5195)">
				<stop  offset="0" style="stop-color:#FFDA45"/>
				<stop  offset="1" style="stop-color:#FFA425"/>
			</linearGradient>
			<path style="fill:url(#SVGID_33_);" d="M308.168,186.693c-5.957-0.118-11.939-0.221-17.942-0.31
				c-2.663-0.065-4.811,2.07-4.85,4.709c-0.039,2.639,2.069,4.811,4.709,4.85c5.987,0.089,11.954,0.192,17.895,0.309
				c0.019,0,0.037,0,0.057,0c2.614,0.021,4.765-2.065,4.817-4.686C312.904,188.927,310.807,186.745,308.168,186.693z"/>
			
				<linearGradient id="SVGID_34_" gradientUnits="userSpaceOnUse" x1="341.0908" y1="187.6282" x2="341.0908" y2="193.106" gradientTransform="matrix(1 0.0082 -0.0082 1 1.3939 -1.5195)">
				<stop  offset="0" style="stop-color:#FFDA45"/>
				<stop  offset="1" style="stop-color:#FFA425"/>
			</linearGradient>
			<path style="fill:url(#SVGID_34_);" d="M350.027,187.779c-5.937-0.191-11.917-0.367-17.935-0.529
				c-2.629-0.09-4.836,2.01-4.907,4.649c-0.071,2.639,2.01,4.836,4.65,4.907c6.001,0.162,11.964,0.338,17.885,0.529
				c0.039,0.001,0.078,0.002,0.117,0.002c2.587,0.021,4.731-2.027,4.814-4.626C354.736,190.073,352.666,187.864,350.027,187.779z"/>
		</g>
		<linearGradient id="SVGID_35_" gradientUnits="userSpaceOnUse" x1="219.6925" y1="278.4359" x2="106.9642" y2="193.9892">
			<stop  offset="0" style="stop-color:#0469BC;stop-opacity:0"/>
			<stop  offset="1" style="stop-color:#0469BC"/>
		</linearGradient>
		<path style="fill:url(#SVGID_35_);" d="M163.08,189.024c-0.845-1.633-2.53-2.762-4.496-2.762c-2.806,0-5.081,2.275-5.081,5.081
			v0.541c-7.421,2.194-12.844,9.054-12.844,17.182v29.421c0,5.502,2.488,10.421,6.393,13.71l77.607,77.607
			c20.906,2.679,41.896,4.475,62.915,5.391v-15.063c0-4.947-2.008-9.429-5.258-12.667L163.08,189.024z"/>
		<g>
			<g>
				<linearGradient id="SVGID_36_" gradientUnits="userSpaceOnUse" x1="148.1213" y1="217.0522" x2="192.7347" y2="245.7322">
					<stop  offset="0" style="stop-color:#FF7044"/>
					<stop  offset="1" style="stop-color:#F92814"/>
				</linearGradient>
				<path style="fill:url(#SVGID_36_);" d="M171.251,196.399c-3.239-3.25-7.72-5.258-12.667-5.258
					c-9.895,0-17.925,8.03-17.925,17.925v29.421c0,9.895,8.03,17.925,17.925,17.925c9.895,0,17.925-8.03,17.925-17.925v-29.421
					C176.509,204.118,174.501,199.637,171.251,196.399z M158.584,219.367c-5.282,0-9.56-4.278-9.56-9.56
					c0-5.282,4.278-9.56,9.56-9.56s9.56,4.278,9.56,9.56C168.144,215.088,163.865,219.367,158.584,219.367z"/>
				<radialGradient id="SVGID_37_" cx="158.5835" cy="209.8065" r="15.3371" gradientUnits="userSpaceOnUse">
					<stop  offset="0" style="stop-color:#C1272D"/>
					<stop  offset="0.2642" style="stop-color:#C5272B;stop-opacity:0.7358"/>
					<stop  offset="0.5348" style="stop-color:#D12726;stop-opacity:0.4652"/>
					<stop  offset="0.8073" style="stop-color:#E6281D;stop-opacity:0.1927"/>
					<stop  offset="1" style="stop-color:#F92814;stop-opacity:0"/>
				</radialGradient>
				<path style="fill:url(#SVGID_37_);" d="M158.584,193.077c-9.243,0-16.73,7.486-16.73,16.73c0,9.243,7.487,16.73,16.73,16.73
					c9.243,0,16.73-7.487,16.73-16.73C175.314,200.563,167.827,193.077,158.584,193.077z M158.584,219.367
					c-5.282,0-9.56-4.278-9.56-9.56c0-5.282,4.278-9.56,9.56-9.56s9.56,4.278,9.56,9.56
					C168.144,215.088,163.865,219.367,158.584,219.367z"/>
			</g>
			<linearGradient id="SVGID_38_" gradientUnits="userSpaceOnUse" x1="153.5029" y1="196.1119" x2="163.6641" y2="196.1119">
				<stop  offset="0" style="stop-color:#FF7044"/>
				<stop  offset="1" style="stop-color:#F92814"/>
			</linearGradient>
			<path style="fill:url(#SVGID_38_);" d="M158.584,205.962L158.584,205.962c-2.806,0-5.081-2.275-5.081-5.081v-9.539
				c0-2.806,2.275-5.081,5.081-5.081l0,0c2.806,0,5.081,2.275,5.081,5.081v9.539C163.664,203.687,161.389,205.962,158.584,205.962z"
				/>
		</g>
	</g>
</g>
<g>
</g>
<g>
</g>
<g>
</g>
<g>
</g>
<g>
</g>
<g>
</g>
<g>
</g>
<g>
</g>
<g>
</g>
<g>
</g>
<g>
</g>
<g>
</g>
<g>
</g>
<g>
</g>
<g>
</g>
</svg>
