<?xml version="1.0" encoding="iso-8859-1"?>
<!-- Generator: Adobe Illustrator 22.0.0, SVG Export Plug-In . SVG Version: 6.00 Build 0)  -->
<svg version="1.1" id="Capa_1" xmlns="http://www.w3.org/2000/svg" xmlns:xlink="http://www.w3.org/1999/xlink" x="0px" y="0px"
	 viewBox="0 0 510 510" style="enable-background:new 0 0 510 510;" xml:space="preserve">
<g>
	<g>
		<linearGradient id="SVGID_1_" gradientUnits="userSpaceOnUse" x1="51.2008" y1="260.9322" x2="51.2008" y2="227.5329">
			<stop  offset="0" style="stop-color:#FF7044"/>
			<stop  offset="1" style="stop-color:#F92814"/>
		</linearGradient>
		<path style="fill:url(#SVGID_1_);" d="M51.201,302.47c-4.185,0-7.577-3.393-7.577-7.577v-93.909h15.154v93.909
			C58.778,299.077,55.386,302.47,51.201,302.47z"/>
		<g>
			<linearGradient id="SVGID_2_" gradientUnits="userSpaceOnUse" x1="41.2853" y1="354.9261" x2="95.3417" y2="353.6834">
				<stop  offset="0" style="stop-color:#FF7044"/>
				<stop  offset="1" style="stop-color:#F92814"/>
			</linearGradient>
			<path style="fill:url(#SVGID_2_);" d="M71.28,393.736c0,10.816-39.168,10.816-39.168,0c0-10.816,8.768-86.223,19.584-86.223
				C62.512,307.513,71.28,382.92,71.28,393.736z"/>
			<linearGradient id="SVGID_3_" gradientUnits="userSpaceOnUse" x1="61.9845" y1="352.0254" x2="25.5687" y2="368.7469">
				<stop  offset="0" style="stop-color:#FF7044;stop-opacity:0"/>
				<stop  offset="0.2503" style="stop-color:#FF813A;stop-opacity:0.2503"/>
				<stop  offset="0.7194" style="stop-color:#FF9A2B;stop-opacity:0.7194"/>
				<stop  offset="1" style="stop-color:#FFA425"/>
			</linearGradient>
			<path style="fill:url(#SVGID_3_);" d="M71.274,393.731c0,3.61-4.381,6.02-10.222,7.219c-5.759,1.185-12.936,1.185-18.709,0
				c-0.895-1.198-1.419-2.659-1.419-4.408c0-11.09,4.753-87.812,10.636-89.011c0.041-0.014,0.096-0.014,0.138-0.014
				c0.041,0,0.096,0,0.138,0.014C62.595,308.164,71.274,382.957,71.274,393.731z"/>
			<linearGradient id="SVGID_4_" gradientUnits="userSpaceOnUse" x1="40.378" y1="359.7929" x2="103.8666" y2="335.1212">
				<stop  offset="0" style="stop-color:#F92814;stop-opacity:0"/>
				<stop  offset="1" style="stop-color:#C1272D"/>
			</linearGradient>
			<path style="fill:url(#SVGID_4_);" d="M64.813,393.731c0,5.152-5.952,7.853-12.206,8.101c-0.606,0.014-1.226,0.014-1.846,0
				c-9.465-0.166-18.654-2.866-18.654-8.101c0-10.76,8.679-85.429,19.425-86.201c0.055-0.014,0.11-0.014,0.165-0.014
				s0.11,0,0.165,0.014C59.04,308.687,64.813,382.999,64.813,393.731z"/>
		</g>
		<g>
			<linearGradient id="SVGID_5_" gradientUnits="userSpaceOnUse" x1="44.5603" y1="295.3372" x2="69.2525" y2="320.0293">
				<stop  offset="0" style="stop-color:#92F37F"/>
				<stop  offset="1" style="stop-color:#4AB272"/>
			</linearGradient>
			<circle style="fill:url(#SVGID_5_);" cx="51.694" cy="302.47" r="19.065"/>
			<linearGradient id="SVGID_6_" gradientUnits="userSpaceOnUse" x1="53.5927" y1="304.3695" x2="36.3397" y2="287.1165">
				<stop  offset="0" style="stop-color:#92F37F;stop-opacity:0"/>
				<stop  offset="1" style="stop-color:#FFEE83"/>
			</linearGradient>
			<circle style="fill:url(#SVGID_6_);" cx="51.694" cy="302.47" r="15.911"/>
			<linearGradient id="SVGID_7_" gradientUnits="userSpaceOnUse" x1="52.3556" y1="309.777" x2="78.5613" y2="261.0381">
				<stop  offset="0" style="stop-color:#4AB272;stop-opacity:0"/>
				<stop  offset="1" style="stop-color:#009245"/>
			</linearGradient>
			<path style="fill:url(#SVGID_7_);" d="M60.222,285.416c1.286,2.566,2.011,5.462,2.011,8.528c0,10.529-8.536,19.065-19.065,19.065
				c-3.066,0-5.962-0.725-8.528-2.011c3.13,6.247,9.591,10.537,17.054,10.537c10.529,0,19.065-8.536,19.065-19.065
				C70.758,295.007,66.469,288.546,60.222,285.416z"/>
		</g>
	</g>
	<g>
		
			<linearGradient id="SVGID_8_" gradientUnits="userSpaceOnUse" x1="254.9999" y1="150.6366" x2="254.9999" y2="279.0178" gradientTransform="matrix(1 0 0 -1 0 400.6302)">
			<stop  offset="0" style="stop-color:#7E8595"/>
			<stop  offset="1" style="stop-color:#555A66"/>
		</linearGradient>
		<path style="fill:url(#SVGID_8_);" d="M509.99,209.18c0.051,2.022-0.886,4.08-2.826,4.729L276.143,291.22
			c-13.845,4.633-28.44,4.633-42.285,0L2.836,213.909c-1.94-0.649-2.878-2.707-2.827-4.729v-15.512
			c-0.051-2.022,0.886-4.08,2.827-4.729l231.021-77.311c13.845-4.633,28.44-4.633,42.285,0l231.021,77.311
			c1.94,0.649,2.878,2.707,2.826,4.729V209.18z"/>
		
			<linearGradient id="SVGID_9_" gradientUnits="userSpaceOnUse" x1="197.4803" y1="113.0208" x2="319.297" y2="278.7923" gradientTransform="matrix(1 0 0 -1 0 400.6302)">
			<stop  offset="0" style="stop-color:#7E8595"/>
			<stop  offset="1" style="stop-color:#555A66"/>
		</linearGradient>
		<path style="fill:url(#SVGID_9_);" d="M233.857,291.22L2.836,213.909c-3.781-1.266-3.781-7.883,0-9.148l231.021-77.311
			c13.845-4.633,28.44-4.633,42.285,0l231.021,77.311c3.781,1.265,3.781,7.883,0,9.148L276.143,291.22
			C262.298,295.853,247.702,295.853,233.857,291.22z"/>
		
			<linearGradient id="SVGID_10_" gradientUnits="userSpaceOnUse" x1="254.5304" y1="195.5693" x2="223.6291" y2="-117.9864" gradientTransform="matrix(1 0 0 -1 0 400.6302)">
			<stop  offset="0" style="stop-color:#BEC3D2;stop-opacity:0"/>
			<stop  offset="0.5577" style="stop-color:#D4D9E4;stop-opacity:0.5577"/>
			<stop  offset="1" style="stop-color:#E9EDF5"/>
		</linearGradient>
		<path style="fill:url(#SVGID_10_);" d="M236.096,273.51L29.539,204.386c-3.381-1.131-3.381-7.048,0-8.179l206.558-69.124
			c12.379-4.143,25.429-4.143,37.807,0l206.558,69.124c3.381,1.131,3.381,7.048,0,8.179L273.904,273.51
			C261.525,277.652,248.475,277.652,236.096,273.51z"/>
	</g>
	<linearGradient id="SVGID_11_" gradientUnits="userSpaceOnUse" x1="156.0796" y1="205.6441" x2="313.6232" y2="291.0727">
		<stop  offset="0" style="stop-color:#7E8595"/>
		<stop  offset="1" style="stop-color:#555A66"/>
	</linearGradient>
	<path style="fill:url(#SVGID_11_);" d="M429.186,241.942v59.238c0,19.125-77.986,34.621-174.186,34.621
		S80.814,320.305,80.814,301.18v-59.238c0-21.236,13.008-40.302,32.777-48.055c45.457-17.826,93.433-26.739,141.409-26.739
		s95.951,8.913,141.409,26.739c9.885,3.877,18.074,10.579,23.804,18.966C425.934,221.251,429.186,231.324,429.186,241.942z"/>
	<linearGradient id="SVGID_12_" gradientUnits="userSpaceOnUse" x1="202.9382" y1="212.4029" x2="-20.4334" y2="69.6521">
		<stop  offset="0" style="stop-color:#BEC3D2;stop-opacity:0"/>
		<stop  offset="0.5577" style="stop-color:#D4D9E4;stop-opacity:0.5577"/>
		<stop  offset="1" style="stop-color:#E9EDF5"/>
	</linearGradient>
	<path style="fill:url(#SVGID_12_);" d="M429.186,301.18v-59.238c0-10.618-3.252-20.691-8.972-29.089
		c-5.731-8.388-13.92-15.09-23.804-18.966c-45.457-17.826-93.433-26.739-141.409-26.739c-35.561,0-71.119,4.91-105.654,14.703
		c-17.507,10.147-28.591,28.963-28.591,49.629v65.841c0,19.194,70.681,35.098,163.12,38.004
		C366.33,332.591,429.186,318.349,429.186,301.18z"/>
	<linearGradient id="SVGID_13_" gradientUnits="userSpaceOnUse" x1="297.5718" y1="202.3188" x2="197.7203" y2="434.1964">
		<stop  offset="0" style="stop-color:#7E8595"/>
		<stop  offset="1" style="stop-color:#555A66"/>
	</linearGradient>
	<path style="fill:url(#SVGID_13_);" d="M429.186,301.18c0,19.125-77.986,34.621-174.186,34.621S80.814,320.305,80.814,301.18
		S158.801,266.549,255,266.549S429.186,282.055,429.186,301.18z"/>
	<linearGradient id="SVGID_14_" gradientUnits="userSpaceOnUse" x1="255" y1="345.4822" x2="255" y2="282.2404">
		<stop  offset="0" style="stop-color:#7E8595"/>
		<stop  offset="1" style="stop-color:#555A66"/>
	</linearGradient>
	<path style="fill:url(#SVGID_14_);" d="M422.529,304.589c0,17.242-75.006,31.213-167.529,31.213S87.471,321.831,87.471,304.589
		S162.477,273.367,255,273.367S422.529,287.347,422.529,304.589z"/>
</g>
<g>
</g>
<g>
</g>
<g>
</g>
<g>
</g>
<g>
</g>
<g>
</g>
<g>
</g>
<g>
</g>
<g>
</g>
<g>
</g>
<g>
</g>
<g>
</g>
<g>
</g>
<g>
</g>
<g>
</g>
</svg>
