<?xml version="1.0" encoding="iso-8859-1"?>
<!-- Generator: Adobe Illustrator 22.0.0, SVG Export Plug-In . SVG Version: 6.00 Build 0)  -->
<svg version="1.1" id="Capa_1" xmlns="http://www.w3.org/2000/svg" xmlns:xlink="http://www.w3.org/1999/xlink" x="0px" y="0px"
	 viewBox="0 0 510 510" style="enable-background:new 0 0 510 510;" xml:space="preserve">
<g>
	<g>
		<linearGradient id="SVGID_1_" gradientUnits="userSpaceOnUse" x1="114.5261" y1="138.5446" x2="298.2673" y2="176.9082">
			<stop  offset="0" style="stop-color:#18CFFC"/>
			<stop  offset="1" style="stop-color:#4A98F7"/>
		</linearGradient>
		<path style="fill:url(#SVGID_1_);" d="M263.041,94.524c-12.809,0-25.356-2.544-36.965-7.352
			c-11.6-4.798-22.28-11.88-31.335-20.935c-15.256-15.256-34.798-25.24-55.81-28.761c-5.602-0.938-11.309-1.422-17.066-1.422h-5.482
			H89.982h-1.386l0.116,0.128c-3.185,0.597-5.599,3.382-5.599,6.741v195.311h50.335V85.296l2.987,3.279
			c0.813,0.9,1.645,1.77,2.496,2.631c18.797,19.193,43.834,28.916,68.938,28.916c20.145,0,40.34-6.26,57.417-18.929
			C268.141,99.075,266.596,94.524,263.041,94.524z"/>
		<g>
			<linearGradient id="SVGID_2_" gradientUnits="userSpaceOnUse" x1="67.3982" y1="253.5683" x2="90.1754" y2="304.0742">
				<stop  offset="0" style="stop-color:#18CFFC"/>
				<stop  offset="1" style="stop-color:#4A98F7"/>
			</linearGradient>
			<path style="fill:url(#SVGID_2_);" d="M131.562,227.968c8.785,23.562-13.111,53.482-48.906,66.827
				c-35.794,13.345-71.933,5.062-80.718-18.5c-8.785-23.562,13.111-53.482,48.906-66.827
				C86.639,196.123,122.777,204.406,131.562,227.968z"/>
		</g>
		<linearGradient id="SVGID_3_" gradientUnits="userSpaceOnUse" x1="154.1654" y1="148.8003" x2="74.1738" y2="120.5204">
			<stop  offset="0" style="stop-color:#18CFFC;stop-opacity:0"/>
			<stop  offset="1" style="stop-color:#65E1DC"/>
		</linearGradient>
		<path style="fill:url(#SVGID_3_);" d="M265.29,101.196c-14.277,10.593-30.748,16.713-47.547,18.422
			c-3.284,0.339-6.581,0.509-9.878,0.509c-19.186,0-38.335-5.684-54.685-16.944c-5.042-3.454-9.829-7.454-14.253-11.975
			c-0.848-0.86-1.685-1.733-2.497-2.63l-2.981-3.284v152.942h-30.603V42.924c0-3.357,2.412-6.145,5.6-6.739l-0.109-0.133h13.526
			c5.757,0,11.465,0.485,17.065,1.43c21.016,3.515,40.553,13.502,55.812,28.761c9.054,9.054,19.731,16.132,31.33,20.931
			c11.611,4.812,24.167,7.357,36.966,7.357C266.599,94.53,268.138,99.075,265.29,101.196z"/>
		<linearGradient id="SVGID_4_" gradientUnits="userSpaceOnUse" x1="65.3677" y1="255.874" x2="44.3597" y2="205.7782">
			<stop  offset="0" style="stop-color:#18CFFC;stop-opacity:0"/>
			<stop  offset="0.0527" style="stop-color:#1FD1F9;stop-opacity:0.0527"/>
			<stop  offset="0.3027" style="stop-color:#3ED8EC;stop-opacity:0.3027"/>
			<stop  offset="0.5478" style="stop-color:#53DDE3;stop-opacity:0.5478"/>
			<stop  offset="0.7837" style="stop-color:#61E0DE;stop-opacity:0.7837"/>
			<stop  offset="1" style="stop-color:#65E1DC"/>
		</linearGradient>
		<path style="fill:url(#SVGID_4_);" d="M109.761,230.338c6.384,18.601-9.529,42.22-35.543,52.755s-52.279,3.996-58.663-14.604
			s9.529-42.22,35.543-52.755S103.377,211.737,109.761,230.338z"/>
	</g>
	<g>
		<linearGradient id="SVGID_5_" gradientUnits="userSpaceOnUse" x1="286.7834" y1="86.539" x2="373.7068" y2="349.4291">
			<stop  offset="0" style="stop-color:#92F37F"/>
			<stop  offset="1" style="stop-color:#4AB272"/>
		</linearGradient>
		<path style="fill:url(#SVGID_5_);" d="M449.407,46.002c-0.682-6.171-5.91-10.704-11.739-9.844L203.691,70.683
			c-5.164,0.762-9.014,5.551-9.014,11.212v46.846h0v212.448h52.225V121.035l150.36-22.186v208.166h52.225V91.143V47.37v-1.355
			C449.46,46.01,449.433,46.007,449.407,46.002z"/>
		<linearGradient id="SVGID_6_" gradientUnits="userSpaceOnUse" x1="381.5662" y1="250.9511" x2="159.7823" y2="18.2597">
			<stop  offset="0" style="stop-color:#92F37F;stop-opacity:0"/>
			<stop  offset="1" style="stop-color:#FFEE83"/>
		</linearGradient>
		<path style="fill:url(#SVGID_6_);" d="M449.489,51.735v255.282h-52.225V98.845l-150.36,22.192v220.147h-37.136V96.991
			c0-5.66,3.854-10.447,9.017-11.211L449.489,51.735z"/>
		<g>
			<linearGradient id="SVGID_7_" gradientUnits="userSpaceOnUse" x1="119.6375" y1="311.5981" x2="210.1331" y2="438.4535">
				<stop  offset="0" style="stop-color:#92F37F"/>
				<stop  offset="1" style="stop-color:#4AB272"/>
			</linearGradient>
			<path style="fill:url(#SVGID_7_);" d="M244.197,322.711c12.265,35.734-18.306,81.109-68.282,101.348
				c-49.976,20.239-100.432,7.677-112.698-28.057s18.306-81.109,68.282-101.348C181.476,274.416,231.932,286.977,244.197,322.711z"
				/>
			<linearGradient id="SVGID_8_" gradientUnits="userSpaceOnUse" x1="335.2092" y1="281.1232" x2="398.2329" y2="412.8266">
				<stop  offset="0" style="stop-color:#92F37F"/>
				<stop  offset="1" style="stop-color:#4AB272"/>
			</linearGradient>
			<path style="fill:url(#SVGID_8_);" d="M446.782,288.536c12.265,35.734-18.306,81.109-68.282,101.348
				s-100.432,7.677-112.698-28.057s18.306-81.109,68.282-101.348S434.517,252.802,446.782,288.536z"/>
		</g>
		<linearGradient id="SVGID_9_" gradientUnits="userSpaceOnUse" x1="157.456" y1="371.9318" x2="98.4723" y2="277.3962">
			<stop  offset="0" style="stop-color:#92F37F;stop-opacity:0"/>
			<stop  offset="1" style="stop-color:#FFEE83"/>
		</linearGradient>
		<path style="fill:url(#SVGID_9_);" d="M218.422,325.514c9.73,28.349-14.523,64.347-54.17,80.403
			c-39.648,16.056-79.676,6.091-89.407-22.258s14.523-64.347,54.17-80.403C168.663,287.2,208.692,297.165,218.422,325.514z"/>
		<linearGradient id="SVGID_10_" gradientUnits="userSpaceOnUse" x1="363.4951" y1="341.6033" x2="304.5114" y2="247.0677">
			<stop  offset="0" style="stop-color:#92F37F;stop-opacity:0"/>
			<stop  offset="1" style="stop-color:#FFEE83"/>
		</linearGradient>
		<path style="fill:url(#SVGID_10_);" d="M424.461,295.186c9.73,28.349-14.523,64.347-54.17,80.403
			c-39.648,16.056-79.676,6.091-89.407-22.258c-9.73-28.349,14.523-64.347,54.17-80.403S414.731,266.837,424.461,295.186z"/>
	</g>
	<linearGradient id="SVGID_11_" gradientUnits="userSpaceOnUse" x1="406.208" y1="353.7939" x2="331.6703" y2="269.5603">
		<stop  offset="0" style="stop-color:#4AB272;stop-opacity:0"/>
		<stop  offset="1" style="stop-color:#009245"/>
	</linearGradient>
	<path style="fill:url(#SVGID_11_);" d="M373.422,251.126c-0.006,0-0.013,0.001-0.019,0.001v140.701
		c1.698-0.613,3.398-1.255,5.097-1.943c34.246-13.869,59.373-39.54,67.856-65.825L373.422,251.126z"/>
	<linearGradient id="SVGID_12_" gradientUnits="userSpaceOnUse" x1="347.6917" y1="335.5035" x2="308.9078" y2="319.1416">
		<stop  offset="0" style="stop-color:#4AB272;stop-opacity:0"/>
		<stop  offset="1" style="stop-color:#009245"/>
	</linearGradient>
	<path style="fill:url(#SVGID_12_);" d="M346.833,256.036c-4.238,1.254-8.494,2.72-12.749,4.443
		c-4.105,1.663-8.065,3.51-11.895,5.492l-35.192,122.065c22.234,14.15,56.979,15.829,91.503,1.848
		c0.573-0.232,1.13-0.484,1.698-0.723L346.833,256.036z"/>
	<linearGradient id="SVGID_13_" gradientUnits="userSpaceOnUse" x1="245.385" y1="384.0399" x2="146.6075" y2="307.6843">
		<stop  offset="0" style="stop-color:#4AB272;stop-opacity:0"/>
		<stop  offset="1" style="stop-color:#009245"/>
	</linearGradient>
	<path style="fill:url(#SVGID_13_);" d="M243.369,359.392l-58.22-58.22l31.723,97.133
		C229.503,386.606,238.684,373.107,243.369,359.392z"/>
	<linearGradient id="SVGID_14_" gradientUnits="userSpaceOnUse" x1="160.1014" y1="401.2977" x2="112.8336" y2="354.0299">
		<stop  offset="0" style="stop-color:#4AB272;stop-opacity:0"/>
		<stop  offset="1" style="stop-color:#009245"/>
	</linearGradient>
	<path style="fill:url(#SVGID_14_);" d="M203.728,408.911l-31.511-94c-10.141-0.185-10.167-0.185-20.309-0.37l-26.222,69.698
		c-3.868,10.281-13.703,17.089-24.687,17.089h-35.56c15.271,31.601,63.078,41.926,110.477,22.731
		C186.056,419.953,195.381,414.797,203.728,408.911z"/>
	<linearGradient id="SVGID_15_" gradientUnits="userSpaceOnUse" x1="245.4706" y1="356.3667" x2="280.0107" y2="487.2556">
		<stop  offset="0" style="stop-color:#FFDA45"/>
		<stop  offset="1" style="stop-color:#FFA425"/>
	</linearGradient>
	<path style="fill:url(#SVGID_15_);" d="M410.511,375.51c-3.03,0-5.636-2.06-6.327-5.018l-24.798-105.674
		c-4.254-18.095-19.586-30.627-38.165-31.172c-18.544-0.545-34.639,11.029-39.96,28.845l-51.631,172.879
		c-1.2,3.987-4.363,4.618-6.157,4.642c-1.757,0.036-4.969-0.533-6.266-4.496l-37.136-113.879
		c-5.381-16.483-20.046-27.427-37.378-27.888c-17.307-0.436-32.554,9.696-38.796,25.864l-19.974,51.74
		c-0.97,2.485-3.406,4.157-6.072,4.157H16.968C7.597,375.51,0,383.107,0,392.478v0c0,9.371,7.597,16.968,16.968,16.968h80.885
		c16.592,0,31.754-10.399,37.729-25.876l19.974-51.74c1.442-3.721,4.545-4.193,6.242-4.157c1.709,0.049,4.775,0.691,6.012,4.484
		l37.135,113.891c5.551,16.992,20.592,27.9,38.408,27.9c0.182,0,0.364,0,0.545-0.012c18.071-0.218,33.075-11.55,38.25-28.857
		L333.78,272.2c1.188-3.951,4.193-4.702,6.424-4.642c2.278,0.073,5.199,0.994,6.145,5.018l24.797,105.674
		c4.315,18.374,20.507,31.197,39.366,31.197h82.521c9.371,0,16.968-7.597,16.968-16.968v0c0-9.371-7.597-16.968-16.968-16.968
		H410.511z"/>
</g>
<g>
</g>
<g>
</g>
<g>
</g>
<g>
</g>
<g>
</g>
<g>
</g>
<g>
</g>
<g>
</g>
<g>
</g>
<g>
</g>
<g>
</g>
<g>
</g>
<g>
</g>
<g>
</g>
<g>
</g>
</svg>
