<?xml version="1.0" encoding="iso-8859-1"?>
<!-- Generator: Adobe Illustrator 22.0.0, SVG Export Plug-In . SVG Version: 6.00 Build 0)  -->
<svg version="1.1" id="Capa_1" xmlns="http://www.w3.org/2000/svg" xmlns:xlink="http://www.w3.org/1999/xlink" x="0px" y="0px"
	 viewBox="0 0 510 510" style="enable-background:new 0 0 510 510;" xml:space="preserve">
<g>
	<linearGradient id="SVGID_1_" gradientUnits="userSpaceOnUse" x1="243.0309" y1="451.8669" x2="294.2537" y2="563.9169">
		<stop  offset="0" style="stop-color:#FF7044"/>
		<stop  offset="1" style="stop-color:#F92814"/>
	</linearGradient>
	<path style="fill:url(#SVGID_1_);" d="M348.564,393.722H161.436c-41.074,0-74.37,33.297-74.37,74.37v34.542
		c0,4.068,3.298,7.366,7.366,7.366h321.137c4.068,0,7.366-3.298,7.366-7.366v-34.542
		C422.934,427.019,389.638,393.722,348.564,393.722z"/>
	<linearGradient id="SVGID_2_" gradientUnits="userSpaceOnUse" x1="276.2053" y1="475.4164" x2="94.2053" y2="363.4164">
		<stop  offset="0" style="stop-color:#FF7044;stop-opacity:0"/>
		<stop  offset="1" style="stop-color:#FFA425"/>
	</linearGradient>
	<path style="fill:url(#SVGID_2_);" d="M353.858,402H180.052c-38.15,0-69.076,30.927-69.076,69.076v32.083
		c0,3.778,3.063,6.841,6.841,6.841h297.752c4.068,0,7.365-3.298,7.365-7.366v-31.558C422.934,432.927,392.008,402,353.858,402z"/>
	<linearGradient id="SVGID_3_" gradientUnits="userSpaceOnUse" x1="328.0132" y1="456.9664" x2="362.8927" y2="533.2652">
		<stop  offset="0" style="stop-color:#FF7044"/>
		<stop  offset="1" style="stop-color:#F92814"/>
	</linearGradient>
	<path style="fill:url(#SVGID_3_);" d="M348.564,393.722H329.37c-41.074,0-74.37,33.297-74.37,74.37V510h160.569
		c4.068,0,7.366-3.298,7.366-7.366v-34.541C422.934,427.019,389.637,393.722,348.564,393.722z"/>
	<linearGradient id="SVGID_4_" gradientUnits="userSpaceOnUse" x1="301.4189" y1="484.4389" x2="278.3176" y2="413.9501">
		<stop  offset="0" style="stop-color:#F92814;stop-opacity:0"/>
		<stop  offset="1" style="stop-color:#C1272D"/>
	</linearGradient>
	<path style="fill:url(#SVGID_4_);" d="M157.091,403.373v13.636c0,18.336,6.4,36.098,18.095,50.221
		c1.157,1.397,2.396,2.687,3.695,3.884L217.767,510h197.801c4.068,0,7.366-3.298,7.366-7.366v-32.946l-71.84-71.84
		c-1.747-2.479-4.592-4.121-7.836-4.126h-0.099H166.841h-0.099C161.412,393.722,157.091,398.043,157.091,403.373z"/>
	<linearGradient id="SVGID_5_" gradientUnits="userSpaceOnUse" x1="255" y1="416.6588" x2="255" y2="261.7215">
		<stop  offset="0" style="stop-color:#7E8595"/>
		<stop  offset="1" style="stop-color:#555A66"/>
	</linearGradient>
	<path style="fill:url(#SVGID_5_);" d="M381.261,126.261L381.261,126.261C381.261,56.529,324.732,0,255,0h0
		c-69.732,0-126.261,56.529-126.261,126.261v0c0,43.554-11.141,86.385-32.365,124.418l-50.843,91.113
		c-3.845,6.89-0.091,15.551,7.566,17.456l39.041,9.711c106.944,26.602,218.777,26.602,325.721,0l39.041-9.711
		c7.657-1.905,11.411-10.565,7.566-17.456l-50.843-91.113C392.402,212.646,381.261,169.816,381.261,126.261z"/>
	<g>
		<linearGradient id="SVGID_6_" gradientUnits="userSpaceOnUse" x1="197.689" y1="425.8739" x2="221.2114" y2="477.3291">
			<stop  offset="0" style="stop-color:#FFDA45"/>
			<stop  offset="1" style="stop-color:#FFA425"/>
		</linearGradient>
		<path style="fill:url(#SVGID_6_);" d="M255,454.155l-33.247-60.432h-54.912c-0.033,0-0.066,0-0.099,0
			c-5.358,0.008-9.65,4.467-9.65,9.825v13.461c0,18.336,6.4,36.098,18.095,50.221l0,0c13.519,16.324,37.505,19.085,54.379,6.259
			L255,454.155z"/>
		
			<linearGradient id="SVGID_7_" gradientUnits="userSpaceOnUse" x1="4362.8394" y1="425.8739" x2="4386.3618" y2="477.3291" gradientTransform="matrix(-1 0 0 1 4675.1504 0)">
			<stop  offset="0" style="stop-color:#FFDA45"/>
			<stop  offset="1" style="stop-color:#FFA425"/>
		</linearGradient>
		<path style="fill:url(#SVGID_7_);" d="M255,454.155l33.247-60.432h54.912c0.033,0,0.066,0,0.099,0
			c5.358,0.008,9.65,4.467,9.65,9.825v13.461c0,18.336-6.4,36.098-18.095,50.221l0,0c-13.519,16.324-37.505,19.085-54.379,6.259
			L255,454.155z"/>
	</g>
	<linearGradient id="SVGID_8_" gradientUnits="userSpaceOnUse" x1="174.1836" y1="366.319" x2="318.3838" y2="408.8012">
		<stop  offset="0" style="stop-color:#FFDAAA"/>
		<stop  offset="0.2841" style="stop-color:#FFD4A4"/>
		<stop  offset="0.6728" style="stop-color:#FDC592"/>
		<stop  offset="1" style="stop-color:#FCB37E"/>
	</linearGradient>
	<path style="fill:url(#SVGID_8_);" d="M288.906,348.295v-20.358h-67.812v20.358c0,25.089-20.338,45.427-45.427,45.427h0v0
		c0,33.376,27.057,60.432,60.432,60.432h37.802c33.376,0,60.432-27.057,60.432-60.432v0h0
		C309.244,393.722,288.906,373.384,288.906,348.295z"/>
	<linearGradient id="SVGID_9_" gradientUnits="userSpaceOnUse" x1="284.7094" y1="396.8482" x2="266.1608" y2="333.4241">
		<stop  offset="0" style="stop-color:#FCB37E;stop-opacity:0"/>
		<stop  offset="1" style="stop-color:#FF7044"/>
	</linearGradient>
	<path style="fill:url(#SVGID_9_);" d="M334.333,393.722L334.333,393.722c-25.089,0-45.427-20.339-45.427-45.427v-20.358h-67.812
		v20.358c0,1.134-0.056,2.255-0.137,3.368l0.001,0.001l89.876,89.876C325.123,430.487,334.333,413.185,334.333,393.722
		L334.333,393.722z"/>
	<radialGradient id="SVGID_10_" cx="217.9512" cy="161.8058" r="188.7858" gradientUnits="userSpaceOnUse">
		<stop  offset="0" style="stop-color:#FFDAAA"/>
		<stop  offset="0.4213" style="stop-color:#FFD8A8"/>
		<stop  offset="0.6519" style="stop-color:#FED1A0"/>
		<stop  offset="0.8359" style="stop-color:#FDC592"/>
		<stop  offset="0.9951" style="stop-color:#FCB47F"/>
		<stop  offset="1" style="stop-color:#FCB37E"/>
	</radialGradient>
	<path style="fill:url(#SVGID_10_);" d="M255,357.154L255,357.154c-59.524,0-107.778-48.254-107.778-107.778V135.984
		c0-59.524,48.254-107.778,107.778-107.778h0c59.524,0,107.778,48.254,107.778,107.778v113.392
		C362.778,308.9,314.524,357.154,255,357.154z"/>
	<linearGradient id="SVGID_11_" gradientUnits="userSpaceOnUse" x1="276.8111" y1="194.0962" x2="214.5836" y2="65.4529">
		<stop  offset="0" style="stop-color:#FCB37E;stop-opacity:0"/>
		<stop  offset="1" style="stop-color:#FF7044"/>
	</linearGradient>
	<path style="fill:url(#SVGID_11_);" d="M255,28.206L255,28.206c-59.524,0-107.778,48.254-107.778,107.778v50.8l157.981,157.98
		c34.235-18.055,57.576-53.993,57.576-95.388V135.984C362.779,76.46,314.524,28.206,255,28.206z"/>
	<linearGradient id="SVGID_12_" gradientUnits="userSpaceOnUse" x1="137.3878" y1="-26.0949" x2="374.3309" y2="317.3529">
		<stop  offset="0" style="stop-color:#7E8595"/>
		<stop  offset="1" style="stop-color:#555A66"/>
	</linearGradient>
	<path style="fill:url(#SVGID_12_);" d="M255,0L255,0c-69.732,0-126.261,56.529-126.261,126.261v0
		c0,21.622-2.753,43.064-8.115,63.831c52.734-0.31,96.98-36.425,109.641-85.272c29.715,51.003,84.983,85.287,148.266,85.287
		c3.617,0,7.203-0.125,10.764-0.346c-5.306-20.664-8.034-41.992-8.034-63.499v0C381.261,56.529,324.732,0,255,0z"/>
	<linearGradient id="SVGID_13_" gradientUnits="userSpaceOnUse" x1="292.1623" y1="52.5905" x2="403.4537" y2="164.4802">
		<stop  offset="0" style="stop-color:#555A66;stop-opacity:0"/>
		<stop  offset="1" style="stop-color:#555A66"/>
	</linearGradient>
	<path style="fill:url(#SVGID_13_);" d="M389.292,189.76c-3.554,0.215-7.144,0.347-10.758,0.347c-0.122,0-0.244,0-0.365,0
		c-20.977-0.044-38.575-16.098-40.696-36.967c-0.905-8.902-1.361-17.872-1.361-26.875c0-34.871-13.547-66.428-35.446-89.284
		C283.122,18.682,260.218,5.973,234.62,1.653c6.63-1.089,13.439-1.651,20.38-1.651c34.871,0,66.428,14.133,89.284,36.978
		c22.845,22.857,36.978,54.413,36.978,89.284C381.262,147.768,383.99,169.093,389.292,189.76z"/>
	<linearGradient id="SVGID_14_" gradientUnits="userSpaceOnUse" x1="222.3179" y1="79.6841" x2="71.5724" y2="-201.4818">
		<stop  offset="0" style="stop-color:#BEC3D2;stop-opacity:0"/>
		<stop  offset="0.5577" style="stop-color:#D4D9E4;stop-opacity:0.5577"/>
		<stop  offset="1" style="stop-color:#E9EDF5"/>
	</linearGradient>
	<path style="fill:url(#SVGID_14_);" d="M255,13.836L255,13.836c-59.524,0-107.778,48.254-107.778,107.778v65.169
		c40.554-9.964,72.583-41.607,83.043-81.964c27.22,46.721,75.889,79.392,132.514,84.552v-67.757
		C362.779,62.09,314.524,13.836,255,13.836z"/>
	<linearGradient id="SVGID_15_" gradientUnits="userSpaceOnUse" x1="276.3309" y1="133.7629" x2="228.8309" y2="150.7629">
		<stop  offset="0" style="stop-color:#555A66;stop-opacity:0"/>
		<stop  offset="1" style="stop-color:#555A66"/>
	</linearGradient>
	<path style="fill:url(#SVGID_15_);" d="M378.531,190.106c3.617,0,7.203-0.125,10.764-0.346
		c-3.543-13.797-5.929-27.892-7.129-42.137C261.778,138.351,219.99,57.5,219.99,57.5c0,27,10.274,47.32,10.274,47.32
		C259.979,155.822,315.248,190.106,378.531,190.106z"/>
	<g>
		<g>
			<g>
				<linearGradient id="SVGID_16_" gradientUnits="userSpaceOnUse" x1="193.6978" y1="198.4594" x2="218.479" y2="223.2406">
					<stop  offset="0" style="stop-color:#7E8595"/>
					<stop  offset="1" style="stop-color:#555A66"/>
				</linearGradient>
				<circle style="fill:url(#SVGID_16_);" cx="200.857" cy="205.618" r="19.134"/>
				<linearGradient id="SVGID_17_" gradientUnits="userSpaceOnUse" x1="198.6509" y1="202.4384" x2="184.7716" y2="182.4306">
					<stop  offset="0" style="stop-color:#BEC3D2;stop-opacity:0"/>
					<stop  offset="0.3183" style="stop-color:#C2C7D5;stop-opacity:0.3183"/>
					<stop  offset="0.6082" style="stop-color:#CDD1DE;stop-opacity:0.6082"/>
					<stop  offset="0.8861" style="stop-color:#DFE3ED;stop-opacity:0.8861"/>
					<stop  offset="1" style="stop-color:#E9EDF5"/>
				</linearGradient>
				<circle style="fill:url(#SVGID_17_);" cx="200.857" cy="205.618" r="15.969"/>
				<linearGradient id="SVGID_18_" gradientUnits="userSpaceOnUse" x1="201.5213" y1="212.9513" x2="227.8214" y2="164.0367">
					<stop  offset="0" style="stop-color:#555A66;stop-opacity:0"/>
					<stop  offset="1" style="stop-color:#555A66"/>
				</linearGradient>
				<path style="fill:url(#SVGID_18_);" d="M209.416,188.503c1.29,2.576,2.018,5.482,2.018,8.559
					c0,10.567-8.566,19.134-19.134,19.134c-3.077,0-5.984-0.727-8.559-2.018c3.142,6.27,9.625,10.575,17.116,10.575
					c10.567,0,19.134-8.566,19.134-19.134C219.99,198.128,215.686,191.644,209.416,188.503z"/>
			</g>
		</g>
		<g>
			<g>
				<linearGradient id="SVGID_19_" gradientUnits="userSpaceOnUse" x1="301.9843" y1="198.4594" x2="326.7655" y2="223.2406">
					<stop  offset="0" style="stop-color:#7E8595"/>
					<stop  offset="1" style="stop-color:#555A66"/>
				</linearGradient>
				<circle style="fill:url(#SVGID_19_);" cx="309.143" cy="205.618" r="19.134"/>
				<linearGradient id="SVGID_20_" gradientUnits="userSpaceOnUse" x1="306.9374" y1="202.4384" x2="293.0581" y2="182.4306">
					<stop  offset="0" style="stop-color:#BEC3D2;stop-opacity:0"/>
					<stop  offset="0.3183" style="stop-color:#C2C7D5;stop-opacity:0.3183"/>
					<stop  offset="0.6082" style="stop-color:#CDD1DE;stop-opacity:0.6082"/>
					<stop  offset="0.8861" style="stop-color:#DFE3ED;stop-opacity:0.8861"/>
					<stop  offset="1" style="stop-color:#E9EDF5"/>
				</linearGradient>
				<circle style="fill:url(#SVGID_20_);" cx="309.143" cy="205.618" r="15.969"/>
				<linearGradient id="SVGID_21_" gradientUnits="userSpaceOnUse" x1="309.8078" y1="212.9513" x2="336.1079" y2="164.0367">
					<stop  offset="0" style="stop-color:#555A66;stop-opacity:0"/>
					<stop  offset="1" style="stop-color:#555A66"/>
				</linearGradient>
				<path style="fill:url(#SVGID_21_);" d="M317.702,188.503c1.29,2.576,2.018,5.482,2.018,8.559
					c0,10.567-8.566,19.134-19.134,19.134c-3.077,0-5.984-0.727-8.559-2.018c3.142,6.27,9.625,10.575,17.116,10.575
					c10.567,0,19.134-8.566,19.134-19.134C328.277,198.128,323.972,191.644,317.702,188.503z"/>
			</g>
		</g>
	</g>
	<linearGradient id="SVGID_22_" gradientUnits="userSpaceOnUse" x1="255" y1="224.3857" x2="255" y2="304.046">
		<stop  offset="0" style="stop-color:#FCB37E;stop-opacity:0"/>
		<stop  offset="1" style="stop-color:#FF7044"/>
	</linearGradient>
	<path style="fill:url(#SVGID_22_);" d="M261.123,280.031h-12.246c-9.813,0-17.459-8.512-16.409-18.269l6.402-59.515h32.259
		l6.402,59.515C278.581,271.52,270.936,280.031,261.123,280.031z"/>
</g>
<g>
</g>
<g>
</g>
<g>
</g>
<g>
</g>
<g>
</g>
<g>
</g>
<g>
</g>
<g>
</g>
<g>
</g>
<g>
</g>
<g>
</g>
<g>
</g>
<g>
</g>
<g>
</g>
<g>
</g>
</svg>
