<?xml version="1.0" encoding="iso-8859-1"?>
<!-- Generator: Adobe Illustrator 22.0.0, SVG Export Plug-In . SVG Version: 6.00 Build 0)  -->
<svg version="1.1" id="Capa_1" xmlns="http://www.w3.org/2000/svg" xmlns:xlink="http://www.w3.org/1999/xlink" x="0px" y="0px"
	 viewBox="0 0 510 510" style="enable-background:new 0 0 510 510;" xml:space="preserve">
<g>
	<linearGradient id="SVGID_1_" gradientUnits="userSpaceOnUse" x1="392.8451" y1="197.7283" x2="411.2262" y2="197.7283">
		<stop  offset="0" style="stop-color:#FFDA45"/>
		<stop  offset="1" style="stop-color:#FFA425"/>
	</linearGradient>
	<path style="fill:url(#SVGID_1_);" d="M400.209,226.666L400.209,226.666c-5.358,0-9.702-4.344-9.702-9.702v-38.471
		c0-5.358,4.344-9.702,9.702-9.702l0,0c5.358,0,9.702,4.344,9.702,9.702v38.471C409.91,222.322,405.567,226.666,400.209,226.666z"/>
	<linearGradient id="SVGID_2_" gradientUnits="userSpaceOnUse" x1="408.7685" y1="210.653" x2="399.5005" y2="180.7199">
		<stop  offset="0" style="stop-color:#FFDA45;stop-opacity:0"/>
		<stop  offset="0.5194" style="stop-color:#D9874F;stop-opacity:0.5194"/>
		<stop  offset="1" style="stop-color:#B53759"/>
	</linearGradient>
	<path style="fill:url(#SVGID_2_);" d="M400.209,168.791c-5.358,0-9.702,4.344-9.702,9.702v10.505l19.403,19.403v-29.909
		C409.91,173.135,405.567,168.791,400.209,168.791z"/>
	<g>
		<g>
			
				<linearGradient id="SVGID_3_" gradientUnits="userSpaceOnUse" x1="370.2315" y1="141.8092" x2="370.2315" y2="151.5619" gradientTransform="matrix(0.8256 0.5643 -0.5643 0.8256 162.2024 -167.5528)">
				<stop  offset="0" style="stop-color:#7E8595"/>
				<stop  offset="1" style="stop-color:#555A66"/>
			</linearGradient>
			<path style="fill:url(#SVGID_3_);" d="M409.934,170.625l-8.583,12.556c-2.262,3.309-6.788,4.159-10.096,1.898l-29.488-20.157
				c-3.317-2.267-4.159-6.787-1.898-10.096l8.589-12.565c1.426,0.453,2.819,1.114,4.118,2.001l34.005,23.244
				C407.878,168.395,409,169.453,409.934,170.625z"/>
			
				<linearGradient id="SVGID_4_" gradientUnits="userSpaceOnUse" x1="370.2315" y1="146.5558" x2="370.2315" y2="172.7717" gradientTransform="matrix(0.8256 0.5643 -0.5643 0.8256 162.2024 -167.5528)">
				<stop  offset="0" style="stop-color:#7E8595"/>
				<stop  offset="1" style="stop-color:#555A66"/>
			</linearGradient>
			<path style="fill:url(#SVGID_4_);" d="M410.605,188.925l-2.324,3.4c-2.262,3.309-6.779,4.165-10.096,1.898l-47.455-32.437
				c-3.317-2.267-4.159-6.787-1.898-10.096l2.324-3.4c3.913-5.724,11.006-7.987,17.3-6.027c1.426,0.453,2.819,1.114,4.118,2.001
				l34.005,23.244c1.299,0.888,2.42,1.946,3.354,3.118c0.131,0.163,0.255,0.32,0.381,0.491c0.118,0.165,0.235,0.331,0.347,0.504
				c0.118,0.165,0.229,0.339,0.328,0.515c0.963,1.556,1.638,3.268,1.992,5.039c0.045,0.201,0.082,0.395,0.11,0.585
				c0.031,0.203,0.062,0.406,0.085,0.604c0.076,0.598,0.117,1.196,0.115,1.802c0.001,0.159,0.002,0.317-0.005,0.47
				c0.003,0.245-0.017,0.486-0.034,0.742c-0.013,0.197-0.033,0.403-0.06,0.602c-0.22,1.937-0.803,3.856-1.794,5.643
				c-0.111,0.215-0.23,0.425-0.363,0.638C410.897,188.481,410.758,188.702,410.605,188.925z"/>
		</g>
		
			<linearGradient id="SVGID_5_" gradientUnits="userSpaceOnUse" x1="386.508" y1="146.5558" x2="386.508" y2="172.7717" gradientTransform="matrix(0.8256 0.5643 -0.5643 0.8256 162.2024 -167.5528)">
			<stop  offset="0" style="stop-color:#555A66;stop-opacity:0"/>
			<stop  offset="1" style="stop-color:#555A66"/>
		</linearGradient>
		<path style="fill:url(#SVGID_5_);" d="M410.605,188.925l-2.324,3.4c-2.262,3.309-6.779,4.165-10.096,1.898l-26.577-18.167
			c2.622,1.792,5.769,2.232,8.62,1.487c2.372-0.612,4.543-2.065,6.035-4.249l3.364-4.922c2.092-3.061,3.313-6.462,3.733-9.9
			l13.218,9.035c1.299,0.888,2.42,1.946,3.354,3.118c0.131,0.163,0.255,0.32,0.381,0.491c0.118,0.165,0.235,0.331,0.347,0.504
			c0.118,0.165,0.229,0.339,0.328,0.515c0.963,1.556,1.638,3.268,1.992,5.039c0.045,0.201,0.082,0.395,0.11,0.585
			c0.031,0.203,0.062,0.406,0.085,0.604c0.076,0.598,0.117,1.196,0.115,1.802c0.001,0.159,0.002,0.317-0.005,0.47
			c0.003,0.245-0.017,0.486-0.034,0.742c-0.013,0.197-0.033,0.403-0.06,0.602c-0.22,1.937-0.803,3.856-1.794,5.643
			c-0.111,0.215-0.23,0.425-0.363,0.638C410.897,188.481,410.758,188.702,410.605,188.925z"/>
		
			<linearGradient id="SVGID_6_" gradientUnits="userSpaceOnUse" x1="360.6798" y1="147.8984" x2="302.2486" y2="125.4249" gradientTransform="matrix(0.8256 0.5643 -0.5643 0.8256 162.2024 -167.5528)">
			<stop  offset="0" style="stop-color:#BEC3D2;stop-opacity:0"/>
			<stop  offset="0.221" style="stop-color:#C5C9D7;stop-opacity:0.221"/>
			<stop  offset="0.5343" style="stop-color:#D7DAE3;stop-opacity:0.5343"/>
			<stop  offset="0.9014" style="stop-color:#F6F6F8;stop-opacity:0.9014"/>
			<stop  offset="1" style="stop-color:#FFFFFF"/>
		</linearGradient>
		<path style="fill:url(#SVGID_6_);" d="M410.605,188.925l-2.324,3.4c-2.262,3.309-6.779,4.165-10.096,1.898l-39.687-27.128
			c-3.317-2.267-4.159-6.787-1.898-10.096l2.324-3.4c1.329-1.944,3.028-3.489,4.931-4.603c3.702-2.166,8.213-2.712,12.364-1.416
			l0.384-0.562l29.977,20.49c1.299,0.888,2.42,1.946,3.354,3.118c0.131,0.163,0.255,0.32,0.381,0.491
			c0.118,0.165,0.235,0.331,0.347,0.504c0.118,0.165,0.229,0.339,0.328,0.515c0.963,1.556,1.638,3.268,1.992,5.039
			c0.045,0.201,0.082,0.395,0.11,0.585c0.031,0.203,0.062,0.406,0.085,0.604c0.076,0.598,0.117,1.196,0.115,1.802
			c0.001,0.159,0.002,0.317-0.005,0.47c0.003,0.245-0.017,0.486-0.034,0.742c-0.013,0.197-0.033,0.403-0.06,0.602
			c-0.22,1.937-0.803,3.856-1.794,5.643c-0.111,0.215-0.23,0.425-0.363,0.638C410.897,188.481,410.758,188.702,410.605,188.925z"/>
	</g>
	<linearGradient id="SVGID_7_" gradientUnits="userSpaceOnUse" x1="418.6377" y1="195.5434" x2="405.6124" y2="184.856">
		<stop  offset="0" style="stop-color:#555A66;stop-opacity:0"/>
		<stop  offset="1" style="stop-color:#555A66"/>
	</linearGradient>
	<path style="fill:url(#SVGID_7_);" d="M400.209,169.987c-5.338,0-9.666,4.328-9.666,9.666c0,2.851,1.235,5.414,3.199,7.183
		l8.649,8.649c2.28-0.035,4.508-1.136,5.891-3.16l2.324-3.4c0.153-0.223,0.291-0.444,0.43-0.665
		c0.133-0.212,0.252-0.422,0.363-0.638c0.991-1.787,1.574-3.706,1.794-5.643c0.027-0.2,0.046-0.405,0.06-0.602
		c0.017-0.255,0.036-0.497,0.034-0.741c0.007-0.153,0.006-0.311,0.006-0.47c0.001-0.38-0.02-0.756-0.05-1.131l-5.85-5.85
		C405.622,171.222,403.06,169.987,400.209,169.987z"/>
	<g>
		<linearGradient id="SVGID_8_" gradientUnits="userSpaceOnUse" x1="396.5921" y1="176.0362" x2="409.1113" y2="188.5554">
			<stop  offset="0" style="stop-color:#F9F7FC"/>
			<stop  offset="1" style="stop-color:#F0DDFC"/>
		</linearGradient>
		<circle style="fill:url(#SVGID_8_);" cx="400.209" cy="179.653" r="9.666"/>
		<linearGradient id="SVGID_9_" gradientUnits="userSpaceOnUse" x1="401.3685" y1="181.2971" x2="395.4044" y2="172.8417">
			<stop  offset="0" style="stop-color:#E9EDF5;stop-opacity:0"/>
			<stop  offset="1" style="stop-color:#FFFFFF"/>
		</linearGradient>
		<circle style="fill:url(#SVGID_9_);" cx="400.209" cy="179.653" r="8.067"/>
		<linearGradient id="SVGID_10_" gradientUnits="userSpaceOnUse" x1="401.5245" y1="181.5346" x2="414.811" y2="156.8235">
			<stop  offset="0" style="stop-color:#F0DDFC;stop-opacity:0"/>
			<stop  offset="0.2889" style="stop-color:#C8B7E0;stop-opacity:0.2889"/>
			<stop  offset="0.5915" style="stop-color:#A595C8;stop-opacity:0.5915"/>
			<stop  offset="0.8395" style="stop-color:#8F81B8;stop-opacity:0.8395"/>
			<stop  offset="1" style="stop-color:#8779B3"/>
		</linearGradient>
		<path style="fill:url(#SVGID_10_);" d="M404.533,171.006c0.652,1.301,1.019,2.77,1.019,4.324c0,5.338-4.328,9.666-9.666,9.666
			c-1.554,0-3.023-0.367-4.324-1.019c1.587,3.167,4.863,5.342,8.647,5.342c5.338,0,9.666-4.328,9.666-9.666
			C409.875,175.869,407.7,172.593,404.533,171.006z"/>
	</g>
	<linearGradient id="SVGID_11_" gradientUnits="userSpaceOnUse" x1="250.7041" y1="418.8177" x2="250.7041" y2="514.084">
		<stop  offset="0" style="stop-color:#7E8595"/>
		<stop  offset="1" style="stop-color:#555A66"/>
	</linearGradient>
	<polygon style="fill:url(#SVGID_11_);" points="359.924,489.441 250.704,298.835 141.484,489.441 119.75,476.987 250.704,248.454 
		381.658,476.987 	"/>
	<linearGradient id="SVGID_12_" gradientUnits="userSpaceOnUse" x1="242.6886" y1="378.4293" x2="266.2822" y2="378.4293">
		<stop  offset="0" style="stop-color:#7E8595"/>
		<stop  offset="1" style="stop-color:#555A66"/>
	</linearGradient>
	<rect x="238.18" y="273.645" style="fill:url(#SVGID_12_);" width="25.049" height="209.57"/>
	<linearGradient id="SVGID_13_" gradientUnits="userSpaceOnUse" x1="276.9275" y1="358.3896" x2="251.5449" y2="283.2439">
		<stop  offset="0" style="stop-color:#555A66;stop-opacity:0"/>
		<stop  offset="1" style="stop-color:#555A66"/>
	</linearGradient>
	<polygon style="fill:url(#SVGID_13_);" points="326.769,381.198 250.704,248.454 217.33,306.697 235.683,325.05 238.18,320.692 
		238.18,327.547 263.228,352.596 263.228,320.692 297.899,381.198 	"/>
	<g>
		<g>
			<g>
				<radialGradient id="SVGID_14_" cx="235.0099" cy="251.1007" r="66.7561" gradientUnits="userSpaceOnUse">
					<stop  offset="0" style="stop-color:#FFDA45"/>
					<stop  offset="0.3043" style="stop-color:#FFCE3E"/>
					<stop  offset="0.8558" style="stop-color:#FFAE2B"/>
					<stop  offset="1" style="stop-color:#FFA425"/>
				</radialGradient>
				<circle style="fill:url(#SVGID_14_);" cx="250.704" cy="273.645" r="46.979"/>
				<linearGradient id="SVGID_15_" gradientUnits="userSpaceOnUse" x1="255.9497" y1="278.8902" x2="208.2962" y2="231.2368">
					<stop  offset="0" style="stop-color:#FFDA45;stop-opacity:0"/>
					<stop  offset="1" style="stop-color:#FCEE21"/>
				</linearGradient>
				<circle style="fill:url(#SVGID_15_);" cx="250.704" cy="273.645" r="43.948"/>
				<linearGradient id="SVGID_16_" gradientUnits="userSpaceOnUse" x1="252.3356" y1="291.6494" x2="316.9106" y2="171.5489">
					<stop  offset="0" style="stop-color:#FFDA45;stop-opacity:0"/>
					<stop  offset="1" style="stop-color:#B53759"/>
				</linearGradient>
				<path style="fill:url(#SVGID_16_);" d="M271.719,231.62c3.168,6.324,4.955,13.46,4.955,21.015
					c0,25.946-21.033,46.979-46.979,46.979c-7.555,0-14.691-1.786-21.015-4.955c7.713,15.394,23.633,25.964,42.025,25.964
					c25.946,0,46.979-21.033,46.979-46.979C297.683,255.254,287.114,239.334,271.719,231.62z"/>
			</g>
			<linearGradient id="SVGID_17_" gradientUnits="userSpaceOnUse" x1="273.1451" y1="296.0856" x2="245.3634" y2="268.3039">
				<stop  offset="0" style="stop-color:#FFDA45;stop-opacity:0"/>
				<stop  offset="0.5194" style="stop-color:#D9874F;stop-opacity:0.5194"/>
				<stop  offset="1" style="stop-color:#B53759"/>
			</linearGradient>
			<path style="fill:url(#SVGID_17_);" d="M290.041,299.332l-32.154-32.154c-1.769-1.964-4.331-3.199-7.183-3.199
				c-5.338,0-9.666,4.328-9.666,9.666c0,2.851,1.235,5.414,3.199,7.183l32.154,32.154
				C281.829,309.424,286.483,304.769,290.041,299.332z"/>
			<g>
				<linearGradient id="SVGID_18_" gradientUnits="userSpaceOnUse" x1="247.0875" y1="270.028" x2="259.6067" y2="282.5472">
					<stop  offset="0" style="stop-color:#F9F7FC"/>
					<stop  offset="1" style="stop-color:#F0DDFC"/>
				</linearGradient>
				<circle style="fill:url(#SVGID_18_);" cx="250.704" cy="273.645" r="9.666"/>
				<linearGradient id="SVGID_19_" gradientUnits="userSpaceOnUse" x1="251.8639" y1="275.2888" x2="245.8998" y2="266.8335">
					<stop  offset="0" style="stop-color:#E9EDF5;stop-opacity:0"/>
					<stop  offset="1" style="stop-color:#FFFFFF"/>
				</linearGradient>
				<circle style="fill:url(#SVGID_19_);" cx="250.704" cy="273.645" r="8.067"/>
				<linearGradient id="SVGID_20_" gradientUnits="userSpaceOnUse" x1="252.0199" y1="275.5264" x2="265.3064" y2="250.8153">
					<stop  offset="0" style="stop-color:#F0DDFC;stop-opacity:0"/>
					<stop  offset="0.2889" style="stop-color:#C8B7E0;stop-opacity:0.2889"/>
					<stop  offset="0.5915" style="stop-color:#A595C8;stop-opacity:0.5915"/>
					<stop  offset="0.8395" style="stop-color:#8F81B8;stop-opacity:0.8395"/>
					<stop  offset="1" style="stop-color:#8779B3"/>
				</linearGradient>
				<path style="fill:url(#SVGID_20_);" d="M255.028,264.998c0.652,1.301,1.019,2.77,1.019,4.324c0,5.338-4.328,9.666-9.666,9.666
					c-1.554,0-3.023-0.367-4.324-1.019c1.587,3.167,4.863,5.342,8.647,5.342c5.338,0,9.666-4.328,9.666-9.666
					C260.37,269.861,258.196,266.585,255.028,264.998z"/>
			</g>
		</g>
		<linearGradient id="SVGID_21_" gradientUnits="userSpaceOnUse" x1="253.8111" y1="260.5694" x2="245.2685" y2="224.384">
			<stop  offset="0" style="stop-color:#FFDA45;stop-opacity:0"/>
			<stop  offset="1" style="stop-color:#FFFFFF"/>
		</linearGradient>
		<ellipse style="fill:url(#SVGID_21_);" cx="250.704" cy="247.409" rx="28.506" ry="16.57"/>
	</g>
	<g>
		<linearGradient id="SVGID_22_" gradientUnits="userSpaceOnUse" x1="215.585" y1="102.2882" x2="215.585" y2="317.2853">
			<stop  offset="0" style="stop-color:#7E8595"/>
			<stop  offset="1" style="stop-color:#555A66"/>
		</linearGradient>
		<polygon style="fill:url(#SVGID_22_);" points="423.06,230.37 370.16,320.65 326.83,298.73 8.11,137.52 86.34,4.02 406.34,219.13 
					"/>
		
			<linearGradient id="SVGID_23_" gradientUnits="userSpaceOnUse" x1="387.0364" y1="289.326" x2="313.3287" y2="146.9077" gradientTransform="matrix(0.8628 0.5056 -0.5056 0.8628 170.1385 -116.4907)">
			<stop  offset="0" style="stop-color:#555A66;stop-opacity:0"/>
			<stop  offset="1" style="stop-color:#555A66"/>
		</linearGradient>
		<polygon style="fill:url(#SVGID_23_);" points="322.429,296.531 359.721,315.393 399.331,243.312 386.794,205.991 
			378.681,200.537 		"/>
		
			<linearGradient id="SVGID_24_" gradientUnits="userSpaceOnUse" x1="204.7928" y1="217.8512" x2="205.8028" y2="59.7854" gradientTransform="matrix(0.8628 0.5056 -0.5056 0.8628 170.1385 -116.4907)">
			<stop  offset="0" style="stop-color:#BEC3D2;stop-opacity:0"/>
			<stop  offset="0.221" style="stop-color:#C5C9D7;stop-opacity:0.221"/>
			<stop  offset="0.5343" style="stop-color:#D7DAE3;stop-opacity:0.5343"/>
			<stop  offset="0.9014" style="stop-color:#F6F6F8;stop-opacity:0.9014"/>
			<stop  offset="1" style="stop-color:#FFFFFF"/>
		</linearGradient>
		<polygon style="fill:url(#SVGID_24_);" points="8.108,137.521 394.599,333.008 435.07,263.944 75.62,22.313 		"/>
		
			<linearGradient id="SVGID_25_" gradientUnits="userSpaceOnUse" x1="52.5849" y1="223.7098" x2="-8.7724" y2="223.7098" gradientTransform="matrix(0.8628 0.5056 -0.5056 0.8628 170.1385 -116.4907)">
			<stop  offset="0" style="stop-color:#555A66;stop-opacity:0"/>
			<stop  offset="1" style="stop-color:#555A66"/>
		</linearGradient>
		<polygon style="fill:url(#SVGID_25_);" points="8.108,137.521 153.122,210.869 102.349,16.366 101.264,14.056 86.338,4.022 		"/>
		<g>
			
				<linearGradient id="SVGID_26_" gradientUnits="userSpaceOnUse" x1="-16.6005" y1="223.7098" x2="12.7593" y2="223.7098" gradientTransform="matrix(0.8628 0.5056 -0.5056 0.8628 170.1385 -116.4907)">
				<stop  offset="0" style="stop-color:#FFDA45"/>
				<stop  offset="1" style="stop-color:#FFA425"/>
			</linearGradient>
			<path style="fill:url(#SVGID_26_);" d="M10.794,146.569L10.794,146.569c-6.738-3.948-8.999-12.611-5.051-19.349L76.195,6.993
				c3.948-6.738,12.611-8.999,19.349-5.051l0,0c6.738,3.948,8.999,12.611,5.051,19.349L30.142,141.519
				C26.194,148.256,17.531,150.518,10.794,146.569z"/>
			
				<linearGradient id="SVGID_27_" gradientUnits="userSpaceOnUse" x1="11.2019" y1="230.6223" x2="-33.7433" y2="217.9973" gradientTransform="matrix(0.8628 0.5056 -0.5056 0.8628 170.1385 -116.4907)">
				<stop  offset="0" style="stop-color:#FFDA45;stop-opacity:0"/>
				<stop  offset="1" style="stop-color:#FCEE21"/>
			</linearGradient>
			<path style="fill:url(#SVGID_27_);" d="M77.3,15.097L6.847,135.324c-0.917,1.565-1.486,3.236-1.754,4.926
				c1.166,2.555,3.094,4.792,5.701,6.319c6.738,3.948,15.4,1.687,19.349-5.051l70.453-120.227c0.917-1.565,1.486-3.236,1.754-4.926
				c-1.166-2.555-3.094-4.792-5.701-6.319C89.911,6.098,81.248,8.359,77.3,15.097z"/>
		</g>
		
			<linearGradient id="SVGID_28_" gradientUnits="userSpaceOnUse" x1="274.6629" y1="223.7098" x2="227.4639" y2="223.7098" gradientTransform="matrix(0.8628 0.5056 -0.5056 0.8628 170.1385 -116.4907)">
			<stop  offset="0" style="stop-color:#555A66;stop-opacity:0"/>
			<stop  offset="1" style="stop-color:#555A66"/>
		</linearGradient>
		<polygon style="fill:url(#SVGID_28_);" points="219.852,244.621 331.404,301.044 289.525,140.609 283.268,136.403 		"/>
		<g>
			
				<linearGradient id="SVGID_29_" gradientUnits="userSpaceOnUse" x1="206.5141" y1="223.7098" x2="235.8739" y2="223.7098" gradientTransform="matrix(0.8628 0.5056 -0.5056 0.8628 170.1385 -116.4907)">
				<stop  offset="0" style="stop-color:#FFDA45"/>
				<stop  offset="1" style="stop-color:#FFA425"/>
			</linearGradient>
			<path style="fill:url(#SVGID_29_);" d="M209.469,250.666l-1.601-0.938c-6.296-3.689-8.409-11.784-4.719-18.08l60.637-103.476
				c3.689-6.296,11.784-8.409,18.08-4.719l1.6,0.938c6.296,3.689,8.409,11.784,4.719,18.08l-60.637,103.476
				C223.859,252.242,215.765,254.355,209.469,250.666z"/>
			
				<linearGradient id="SVGID_30_" gradientUnits="userSpaceOnUse" x1="233.2509" y1="229.9148" x2="191.9458" y2="218.3123" gradientTransform="matrix(0.8628 0.5056 -0.5056 0.8628 170.1385 -116.4907)">
				<stop  offset="0" style="stop-color:#FFDA45;stop-opacity:0"/>
				<stop  offset="1" style="stop-color:#FCEE21"/>
			</linearGradient>
			<path style="fill:url(#SVGID_30_);" d="M265.741,134.823l-61.513,104.972c-0.801,1.367-1.258,2.848-1.425,4.363
				c1.27,2.378,3.259,4.51,5.865,6.038c6.738,3.948,14.994,2.38,18.442-3.503l61.513-104.972c0.801-1.367,1.258-2.848,1.425-4.363
				c-1.27-2.378-3.259-4.51-5.866-6.038C277.445,127.372,269.189,128.941,265.741,134.823z"/>
		</g>
		<g>
			
				<linearGradient id="SVGID_31_" gradientUnits="userSpaceOnUse" x1="327.1183" y1="222.4908" x2="352.7028" y2="222.4908" gradientTransform="matrix(0.8628 0.5056 -0.5056 0.8628 170.1385 -116.4907)">
				<stop  offset="0" style="stop-color:#FFDA45"/>
				<stop  offset="1" style="stop-color:#FFA425"/>
			</linearGradient>
			<path style="fill:url(#SVGID_31_);" d="M317.45,301.622l-1.395-0.817c-5.486-3.215-7.327-10.269-4.113-15.755l52.84-90.171
				c3.215-5.486,10.269-7.327,15.755-4.113l1.395,0.817c5.486,3.215,7.327,10.269,4.113,15.755l-52.84,90.171
				C329.99,302.996,322.936,304.837,317.45,301.622z"/>
			
				<linearGradient id="SVGID_32_" gradientUnits="userSpaceOnUse" x1="350.4171" y1="227.8979" x2="314.4233" y2="217.7873" gradientTransform="matrix(0.8628 0.5056 -0.5056 0.8628 170.1385 -116.4907)">
				<stop  offset="0" style="stop-color:#FFDA45;stop-opacity:0"/>
				<stop  offset="1" style="stop-color:#FCEE21"/>
			</linearGradient>
			<path style="fill:url(#SVGID_32_);" d="M366.486,200.676l-53.603,91.474c-0.698,1.191-1.097,2.482-1.242,3.802
				c1.107,2.072,2.84,3.93,5.111,5.262c5.871,3.441,13.066,2.074,16.07-3.052l53.603-91.474c0.698-1.191,1.097-2.482,1.242-3.802
				c-1.107-2.072-2.84-3.93-5.111-5.261C376.685,194.183,369.49,195.55,366.486,200.676z"/>
		</g>
		<g>
			
				<linearGradient id="SVGID_33_" gradientUnits="userSpaceOnUse" x1="674.6941" y1="-31.9114" x2="739.2487" y2="5.5917" gradientTransform="matrix(-0.5056 0.8628 -1.3945 -0.8172 768.1635 -319.1947)">
				<stop  offset="0" style="stop-color:#7E8595"/>
				<stop  offset="1" style="stop-color:#555A66"/>
			</linearGradient>
			<polygon style="fill:url(#SVGID_33_);" points="377.197,302.971 411.078,245.153 496.812,295.393 462.931,353.211 			"/>
			
				<linearGradient id="SVGID_34_" gradientUnits="userSpaceOnUse" x1="734.7822" y1="-166.5289" x2="680.3719" y2="-271.6606" gradientTransform="matrix(-0.5056 0.8628 0.8628 0.5056 951.3301 -211.86)">
				<stop  offset="0" style="stop-color:#555A66;stop-opacity:0"/>
				<stop  offset="1" style="stop-color:#555A66"/>
			</linearGradient>
			<polygon style="fill:url(#SVGID_34_);" points="373.789,300.917 407.67,243.099 419.823,250.22 436.752,315.074 426.833,332 			
				"/>
			
				<linearGradient id="SVGID_35_" gradientUnits="userSpaceOnUse" x1="700.9498" y1="-49.4806" x2="700.9498" y2="-31.9587" gradientTransform="matrix(-0.5056 0.8628 -0.8628 -0.5056 793.3661 -304.4261)">
				<stop  offset="0" style="stop-color:#7E8595"/>
				<stop  offset="1" style="stop-color:#555A66"/>
			</linearGradient>
			<path style="fill:url(#SVGID_35_);" d="M449.074,349l37.292-63.639c2.234-3.812,7.136-5.092,10.948-2.858l4.929,2.889
				c3.812,2.234,5.092,7.136,2.858,10.948l-37.292,63.639c-2.234,3.812-7.136,5.092-10.948,2.858l-4.929-2.888
				C448.119,357.714,446.84,352.812,449.074,349z"/>
			
				<linearGradient id="SVGID_36_" gradientUnits="userSpaceOnUse" x1="700.9003" y1="46.8706" x2="700.9003" y2="64.3925" gradientTransform="matrix(-0.5056 0.8628 -0.8628 -0.5056 793.3661 -304.4261)">
				<stop  offset="0" style="stop-color:#7E8595"/>
				<stop  offset="1" style="stop-color:#555A66"/>
			</linearGradient>
			<path style="fill:url(#SVGID_36_);" d="M360.263,309.98l48.703-83.112c2.234-3.812,7.136-5.092,10.948-2.858l4.929,2.889
				c3.812,2.234,5.092,7.136,2.858,10.948l-48.703,83.112c-2.234,3.812-7.136,5.092-10.948,2.858l-4.929-2.889
				C359.309,318.694,358.029,313.792,360.263,309.98z"/>
			
				<linearGradient id="SVGID_37_" gradientUnits="userSpaceOnUse" x1="697.7767" y1="39.6781" x2="659.044" y2="1.4065" gradientTransform="matrix(-0.5056 0.8628 -0.8628 -0.5056 793.3661 -304.4261)">
				<stop  offset="0" style="stop-color:#BEC3D2;stop-opacity:0"/>
				<stop  offset="0.221" style="stop-color:#C5C9D7;stop-opacity:0.221"/>
				<stop  offset="0.5343" style="stop-color:#D7DAE3;stop-opacity:0.5343"/>
				<stop  offset="0.9014" style="stop-color:#F6F6F8;stop-opacity:0.9014"/>
				<stop  offset="1" style="stop-color:#FFFFFF"/>
			</linearGradient>
			<path style="fill:url(#SVGID_37_);" d="M363.121,320.928l4.929,2.889c3.812,2.234,8.714,0.954,10.948-2.858l39.067-66.668
				c2.234-3.812,0.955-8.714-2.858-10.948l-4.929-2.889c-3.812-2.234-8.714-0.954-10.948,2.858l-39.067,66.668
				C358.029,313.792,359.309,318.694,363.121,320.928z"/>
		</g>
	</g>
	<g>
		<g>
			<g>
				<linearGradient id="SVGID_38_" gradientUnits="userSpaceOnUse" x1="130.6174" y1="474.74" x2="130.6174" y2="490.121">
					<stop  offset="0" style="stop-color:#7E8595"/>
					<stop  offset="1" style="stop-color:#555A66"/>
				</linearGradient>
				<path style="fill:url(#SVGID_38_);" d="M148.478,506.368h-35.721c-4.012,0-7.264-3.252-7.264-7.264v-21.99
					c0-4.012,3.252-7.264,7.264-7.264h35.721c4.012,0,7.264,3.252,7.264,7.264v21.99
					C155.742,503.116,152.49,506.368,148.478,506.368z"/>
				<linearGradient id="SVGID_39_" gradientUnits="userSpaceOnUse" x1="130.6174" y1="491.0596" x2="130.6174" y2="517.2692">
					<stop  offset="0" style="stop-color:#7E8595"/>
					<stop  offset="1" style="stop-color:#555A66"/>
				</linearGradient>
				<path style="fill:url(#SVGID_39_);" d="M159.362,510h-57.488c-4.012,0-7.264-3.252-7.264-7.264v-4.11
					c0-8.512,6.9-15.412,15.412-15.412h41.193c8.512,0,15.412,6.9,15.412,15.412v4.11C166.625,506.748,163.373,510,159.362,510z"/>
			</g>
			<linearGradient id="SVGID_40_" gradientUnits="userSpaceOnUse" x1="146.8946" y1="491.0596" x2="146.8946" y2="517.2692">
				<stop  offset="0" style="stop-color:#555A66;stop-opacity:0"/>
				<stop  offset="1" style="stop-color:#555A66"/>
			</linearGradient>
			<path style="fill:url(#SVGID_40_);" d="M151.214,483.214h-16.01c1.596,3.078,2.503,6.571,2.503,10.278v5.965
				c0,5.823-4.72,10.543-10.543,10.543h32.198c4.012,0,7.264-3.252,7.264-7.264v-4.11
				C166.625,490.114,159.725,483.214,151.214,483.214z"/>
			<linearGradient id="SVGID_41_" gradientUnits="userSpaceOnUse" x1="123.0301" y1="487.2906" x2="64.5951" y2="464.8157">
				<stop  offset="0" style="stop-color:#BEC3D2;stop-opacity:0"/>
				<stop  offset="0.221" style="stop-color:#C5C9D7;stop-opacity:0.221"/>
				<stop  offset="0.5343" style="stop-color:#D7DAE3;stop-opacity:0.5343"/>
				<stop  offset="0.9014" style="stop-color:#F6F6F8;stop-opacity:0.9014"/>
				<stop  offset="1" style="stop-color:#FFFFFF"/>
			</linearGradient>
			<path style="fill:url(#SVGID_41_);" d="M166.625,502.736v-4.11c0-6.936-4.582-12.8-10.883-14.734v-6.778
				c0-4.012-3.252-7.264-7.264-7.264h-26.313c-4.012,0-7.264,3.252-7.264,7.264v6.778c-6.301,1.934-10.883,7.799-10.883,14.734v4.11
				c0,4.012,3.252,7.264,7.264,7.264h48.08C163.373,510,166.625,506.748,166.625,502.736z"/>
		</g>
		<g>
			<g>
				<linearGradient id="SVGID_42_" gradientUnits="userSpaceOnUse" x1="250.7041" y1="474.74" x2="250.7041" y2="490.121">
					<stop  offset="0" style="stop-color:#7E8595"/>
					<stop  offset="1" style="stop-color:#555A66"/>
				</linearGradient>
				<path style="fill:url(#SVGID_42_);" d="M268.565,506.368h-35.721c-4.012,0-7.264-3.252-7.264-7.264v-21.99
					c0-4.012,3.252-7.264,7.264-7.264h35.721c4.012,0,7.264,3.252,7.264,7.264v21.99
					C275.829,503.116,272.577,506.368,268.565,506.368z"/>
				<linearGradient id="SVGID_43_" gradientUnits="userSpaceOnUse" x1="250.7041" y1="491.0596" x2="250.7041" y2="517.2692">
					<stop  offset="0" style="stop-color:#7E8595"/>
					<stop  offset="1" style="stop-color:#555A66"/>
				</linearGradient>
				<path style="fill:url(#SVGID_43_);" d="M279.448,510H221.96c-4.012,0-7.264-3.252-7.264-7.264v-4.11
					c0-8.512,6.9-15.412,15.412-15.412h41.193c8.512,0,15.412,6.9,15.412,15.412v4.11C286.712,506.748,283.46,510,279.448,510z"/>
			</g>
			<linearGradient id="SVGID_44_" gradientUnits="userSpaceOnUse" x1="266.9813" y1="491.0596" x2="266.9813" y2="517.2692">
				<stop  offset="0" style="stop-color:#555A66;stop-opacity:0"/>
				<stop  offset="1" style="stop-color:#555A66"/>
			</linearGradient>
			<path style="fill:url(#SVGID_44_);" d="M271.301,483.214h-16.01c1.596,3.078,2.503,6.571,2.503,10.278v5.965
				c0,5.823-4.72,10.543-10.543,10.543h32.198c4.012,0,7.264-3.252,7.264-7.264v-4.11
				C286.712,490.114,279.812,483.214,271.301,483.214z"/>
			<linearGradient id="SVGID_45_" gradientUnits="userSpaceOnUse" x1="243.1167" y1="487.2906" x2="184.6818" y2="464.8157">
				<stop  offset="0" style="stop-color:#BEC3D2;stop-opacity:0"/>
				<stop  offset="0.221" style="stop-color:#C5C9D7;stop-opacity:0.221"/>
				<stop  offset="0.5343" style="stop-color:#D7DAE3;stop-opacity:0.5343"/>
				<stop  offset="0.9014" style="stop-color:#F6F6F8;stop-opacity:0.9014"/>
				<stop  offset="1" style="stop-color:#FFFFFF"/>
			</linearGradient>
			<path style="fill:url(#SVGID_45_);" d="M286.712,502.736v-4.11c0-6.936-4.582-12.8-10.883-14.734v-6.778
				c0-4.012-3.252-7.264-7.264-7.264h-26.313c-4.012,0-7.264,3.252-7.264,7.264v6.778c-6.301,1.934-10.883,7.799-10.883,14.734v4.11
				c0,4.012,3.252,7.264,7.264,7.264h48.08C283.46,510,286.712,506.748,286.712,502.736z"/>
		</g>
		<g>
			<g>
				<linearGradient id="SVGID_46_" gradientUnits="userSpaceOnUse" x1="370.7908" y1="474.74" x2="370.7908" y2="490.121">
					<stop  offset="0" style="stop-color:#7E8595"/>
					<stop  offset="1" style="stop-color:#555A66"/>
				</linearGradient>
				<path style="fill:url(#SVGID_46_);" d="M388.651,506.368H352.93c-4.012,0-7.264-3.252-7.264-7.264v-21.99
					c0-4.012,3.252-7.264,7.264-7.264h35.721c4.012,0,7.264,3.252,7.264,7.264v21.99
					C395.915,503.116,392.663,506.368,388.651,506.368z"/>
				<linearGradient id="SVGID_47_" gradientUnits="userSpaceOnUse" x1="370.7908" y1="491.0596" x2="370.7908" y2="517.2692">
					<stop  offset="0" style="stop-color:#7E8595"/>
					<stop  offset="1" style="stop-color:#555A66"/>
				</linearGradient>
				<path style="fill:url(#SVGID_47_);" d="M399.535,510h-57.488c-4.012,0-7.264-3.252-7.264-7.264v-4.11
					c0-8.512,6.9-15.412,15.412-15.412h41.193c8.512,0,15.412,6.9,15.412,15.412v4.11C406.799,506.748,403.547,510,399.535,510z"/>
			</g>
			<linearGradient id="SVGID_48_" gradientUnits="userSpaceOnUse" x1="387.068" y1="491.0596" x2="387.068" y2="517.2692">
				<stop  offset="0" style="stop-color:#555A66;stop-opacity:0"/>
				<stop  offset="1" style="stop-color:#555A66"/>
			</linearGradient>
			<path style="fill:url(#SVGID_48_);" d="M391.387,483.214h-16.01c1.596,3.078,2.503,6.571,2.503,10.278v5.965
				c0,5.823-4.72,10.543-10.543,10.543h32.198c4.012,0,7.264-3.252,7.264-7.264v-4.11
				C406.799,490.114,399.899,483.214,391.387,483.214z"/>
			<linearGradient id="SVGID_49_" gradientUnits="userSpaceOnUse" x1="363.2034" y1="487.2906" x2="304.7685" y2="464.8157">
				<stop  offset="0" style="stop-color:#BEC3D2;stop-opacity:0"/>
				<stop  offset="0.221" style="stop-color:#C5C9D7;stop-opacity:0.221"/>
				<stop  offset="0.5343" style="stop-color:#D7DAE3;stop-opacity:0.5343"/>
				<stop  offset="0.9014" style="stop-color:#F6F6F8;stop-opacity:0.9014"/>
				<stop  offset="1" style="stop-color:#FFFFFF"/>
			</linearGradient>
			<path style="fill:url(#SVGID_49_);" d="M406.799,502.736v-4.11c0-6.936-4.582-12.8-10.883-14.734v-6.778
				c0-4.012-3.252-7.264-7.264-7.264h-26.313c-4.012,0-7.264,3.252-7.264,7.264v6.778c-6.301,1.934-10.883,7.799-10.883,14.734v4.11
				c0,4.012,3.252,7.264,7.264,7.264h48.08C403.547,510,406.799,506.748,406.799,502.736z"/>
		</g>
	</g>
</g>
<g>
</g>
<g>
</g>
<g>
</g>
<g>
</g>
<g>
</g>
<g>
</g>
<g>
</g>
<g>
</g>
<g>
</g>
<g>
</g>
<g>
</g>
<g>
</g>
<g>
</g>
<g>
</g>
<g>
</g>
</svg>
