<?xml version="1.0" encoding="iso-8859-1"?>
<!-- Generator: Adobe Illustrator 22.0.0, SVG Export Plug-In . SVG Version: 6.00 Build 0)  -->
<svg version="1.1" id="Capa_1" xmlns="http://www.w3.org/2000/svg" xmlns:xlink="http://www.w3.org/1999/xlink" x="0px" y="0px"
	 viewBox="0 0 510 510" style="enable-background:new 0 0 510 510;" xml:space="preserve">
<g>
	<g>
		<linearGradient id="SVGID_1_" gradientUnits="userSpaceOnUse" x1="223.8797" y1="176.2681" x2="389.9311" y2="596.3645">
			<stop  offset="0" style="stop-color:#FFDAAA"/>
			<stop  offset="0.4213" style="stop-color:#FFD8A8"/>
			<stop  offset="0.6519" style="stop-color:#FED1A0"/>
			<stop  offset="0.8359" style="stop-color:#FDC592"/>
			<stop  offset="0.9951" style="stop-color:#FCB47F"/>
			<stop  offset="1" style="stop-color:#FCB37E"/>
		</linearGradient>
		<path style="fill:url(#SVGID_1_);" d="M494.098,433.512H15.902C7.12,433.512,0,426.392,0,417.609V92.391
			c0-8.783,7.12-15.902,15.902-15.902h478.195c8.783,0,15.902,7.12,15.902,15.902v325.219
			C510,426.392,502.88,433.512,494.098,433.512z"/>
		<linearGradient id="SVGID_2_" gradientUnits="userSpaceOnUse" x1="465" y1="465" x2="-135.9001" y2="-135.9001">
			<stop  offset="0" style="stop-color:#FFDAAA"/>
			<stop  offset="0.4213" style="stop-color:#FFD8A8"/>
			<stop  offset="0.6519" style="stop-color:#FED1A0"/>
			<stop  offset="0.8359" style="stop-color:#FDC592"/>
			<stop  offset="0.9951" style="stop-color:#FCB47F"/>
			<stop  offset="1" style="stop-color:#FCB37E"/>
		</linearGradient>
		<path style="fill:url(#SVGID_2_);" d="M486.067,425.453H23.933c-8.435,0-15.273-6.838-15.273-15.273V99.82
			c0-8.435,6.838-15.273,15.273-15.273h462.133c8.435,0,15.273,6.838,15.273,15.273v310.36
			C501.34,418.615,494.502,425.453,486.067,425.453z"/>
		<g>
			<linearGradient id="SVGID_3_" gradientUnits="userSpaceOnUse" x1="348.9837" y1="390.1957" x2="68.4977" y2="-13.2841">
				<stop  offset="0" style="stop-color:#A67C52"/>
				<stop  offset="1" style="stop-color:#FF7044"/>
			</linearGradient>
			<path style="fill:url(#SVGID_3_);" d="M472.591,409.942H37.41c-7.061,0-12.785-5.724-12.785-12.785V112.844
				c0-7.061,5.724-12.785,12.785-12.785h435.181c7.061,0,12.785,5.724,12.785,12.785v284.313
				C485.376,404.218,479.652,409.942,472.591,409.942z"/>
			<g>
				<linearGradient id="SVGID_4_" gradientUnits="userSpaceOnUse" x1="66" y1="255" x2="25.9875" y2="255">
					<stop  offset="0" style="stop-color:#FF7044;stop-opacity:0"/>
					<stop  offset="1" style="stop-color:#8C6239"/>
				</linearGradient>
				<path style="fill:url(#SVGID_4_);" d="M66,100.058H37.41c-7.061,0-12.785,5.724-12.785,12.785v284.313
					c0,7.061,5.724,12.785,12.785,12.785H66V100.058z"/>
				<linearGradient id="SVGID_5_" gradientUnits="userSpaceOnUse" x1="255" y1="145.6667" x2="255" y2="103.3702">
					<stop  offset="0" style="stop-color:#FF7044;stop-opacity:0"/>
					<stop  offset="1" style="stop-color:#8C6239"/>
				</linearGradient>
				<path style="fill:url(#SVGID_5_);" d="M472.59,100.058H37.41c-7.061,0-12.785,5.724-12.785,12.785V136h460.752v-23.156
					C485.376,105.782,479.652,100.058,472.59,100.058z"/>
			</g>
		</g>
	</g>
	<linearGradient id="SVGID_6_" gradientUnits="userSpaceOnUse" x1="327.7708" y1="310.9435" x2="202.2708" y2="235.9435">
		<stop  offset="0" style="stop-color:#FF7044;stop-opacity:0"/>
		<stop  offset="0.0291" style="stop-color:#F96F43;stop-opacity:0.0291"/>
		<stop  offset="0.2344" style="stop-color:#D26B40;stop-opacity:0.2344"/>
		<stop  offset="0.4375" style="stop-color:#B3673D;stop-opacity:0.4375"/>
		<stop  offset="0.6354" style="stop-color:#9E643B;stop-opacity:0.6354"/>
		<stop  offset="0.8257" style="stop-color:#906339;stop-opacity:0.8257"/>
		<stop  offset="1" style="stop-color:#8C6239"/>
	</linearGradient>
	<polygon style="fill:url(#SVGID_6_);" points="255,120.628 319.017,184.645 319.017,409.588 247.146,409.588 247.146,120.628 	"/>
	<linearGradient id="SVGID_7_" gradientUnits="userSpaceOnUse" x1="509.9236" y1="293.1191" x2="410.5646" y2="233.7412">
		<stop  offset="0" style="stop-color:#FF7044;stop-opacity:0"/>
		<stop  offset="0.0291" style="stop-color:#F96F43;stop-opacity:0.0291"/>
		<stop  offset="0.2344" style="stop-color:#D26B40;stop-opacity:0.2344"/>
		<stop  offset="0.4375" style="stop-color:#B3673D;stop-opacity:0.4375"/>
		<stop  offset="0.6354" style="stop-color:#9E643B;stop-opacity:0.6354"/>
		<stop  offset="0.8257" style="stop-color:#906339;stop-opacity:0.8257"/>
		<stop  offset="1" style="stop-color:#8C6239"/>
	</linearGradient>
	<path style="fill:url(#SVGID_7_);" d="M485.38,139.03v258.13c0,6.04-4.19,11.09-9.81,12.43h-16.44V120.63h7.85L485.38,139.03z"/>
	<g>
		<g>
			<g>
				<linearGradient id="SVGID_8_" gradientUnits="userSpaceOnUse" x1="185.4922" y1="263.6162" x2="275.3514" y2="263.6162">
					<stop  offset="0" style="stop-color:#4A98F7"/>
					<stop  offset="1" style="stop-color:#0469BC"/>
				</linearGradient>
				<path style="fill:url(#SVGID_8_);" d="M247.146,409.942h-50.722c-6.038,0-10.932-4.895-10.932-10.932V128.223
					c0-6.038,4.895-10.932,10.932-10.932h50.722c6.038,0,10.932,4.895,10.932,10.932v270.787
					C258.079,405.047,253.184,409.942,247.146,409.942z"/>
				<linearGradient id="SVGID_9_" gradientUnits="userSpaceOnUse" x1="198.7027" y1="263.6162" x2="232.6622" y2="263.6162">
					<stop  offset="0" style="stop-color:#4A98F7"/>
					<stop  offset="1" style="stop-color:#0469BC"/>
				</linearGradient>
				<rect x="198.703" y="117.291" style="fill:url(#SVGID_9_);" width="46.166" height="292.651"/>
			</g>
			<g>
				<linearGradient id="SVGID_10_" gradientUnits="userSpaceOnUse" x1="185.4922" y1="158.4972" x2="238.8871" y2="158.4972">
					<stop  offset="0" style="stop-color:#FFDA45"/>
					<stop  offset="1" style="stop-color:#FFA425"/>
				</linearGradient>
				<rect x="185.492" y="153.699" style="fill:url(#SVGID_10_);" width="72.587" height="9.596"/>
				<g>
					<linearGradient id="SVGID_11_" gradientUnits="userSpaceOnUse" x1="185.4922" y1="181.5034" x2="238.8871" y2="181.5034">
						<stop  offset="0" style="stop-color:#FFDA45"/>
						<stop  offset="1" style="stop-color:#FFA425"/>
					</linearGradient>
					<rect x="185.492" y="176.705" style="fill:url(#SVGID_11_);" width="72.587" height="9.596"/>
					<linearGradient id="SVGID_12_" gradientUnits="userSpaceOnUse" x1="185.4922" y1="345.7291" x2="238.8871" y2="345.7291">
						<stop  offset="0" style="stop-color:#FFDA45"/>
						<stop  offset="1" style="stop-color:#FFA425"/>
					</linearGradient>
					<rect x="185.492" y="340.931" style="fill:url(#SVGID_12_);" width="72.587" height="9.596"/>
				</g>
				<linearGradient id="SVGID_13_" gradientUnits="userSpaceOnUse" x1="185.4922" y1="368.7353" x2="238.8871" y2="368.7353">
					<stop  offset="0" style="stop-color:#FFDA45"/>
					<stop  offset="1" style="stop-color:#FFA425"/>
				</linearGradient>
				<rect x="185.492" y="363.937" style="fill:url(#SVGID_13_);" width="72.587" height="9.596"/>
			</g>
			<linearGradient id="SVGID_14_" gradientUnits="userSpaceOnUse" x1="190.8886" y1="252.0777" x2="108.0596" y2="213.458">
				<stop  offset="0" style="stop-color:#18CFFC;stop-opacity:0"/>
				<stop  offset="1" style="stop-color:#65E1DC"/>
			</linearGradient>
			<path style="fill:url(#SVGID_14_);" d="M206.637,127.787c-6.038,0-10.932,4.895-10.932,10.932v270.787
				c0,0.135,0.015,0.266,0.02,0.4c0.232,0.015,0.463,0.035,0.699,0.035h50.722c6.038,0,10.932-4.895,10.932-10.932V128.223
				c0-0.135-0.015-0.266-0.02-0.4c-0.232-0.015-0.463-0.035-0.699-0.035H206.637z"/>
		</g>
		<g>
			<g>
				<linearGradient id="SVGID_15_" gradientUnits="userSpaceOnUse" x1="397.0945" y1="263.6162" x2="486.9537" y2="263.6162">
					<stop  offset="0" style="stop-color:#FFDA45"/>
					<stop  offset="1" style="stop-color:#FFA425"/>
				</linearGradient>
				<path style="fill:url(#SVGID_15_);" d="M458.749,409.942h-50.722c-6.038,0-10.932-4.895-10.932-10.932V128.223
					c0-6.038,4.895-10.932,10.932-10.932h50.722c6.038,0,10.932,4.895,10.932,10.932v270.787
					C469.681,405.047,464.787,409.942,458.749,409.942z"/>
				<linearGradient id="SVGID_16_" gradientUnits="userSpaceOnUse" x1="410.305" y1="263.6162" x2="444.2646" y2="263.6162">
					<stop  offset="0" style="stop-color:#FFDA45"/>
					<stop  offset="1" style="stop-color:#FFA425"/>
				</linearGradient>
				<rect x="410.305" y="117.291" style="fill:url(#SVGID_16_);" width="46.166" height="292.651"/>
			</g>
			<g>
				<linearGradient id="SVGID_17_" gradientUnits="userSpaceOnUse" x1="397.0945" y1="158.4972" x2="450.4894" y2="158.4972">
					<stop  offset="0" style="stop-color:#92F37F"/>
					<stop  offset="1" style="stop-color:#4AB272"/>
				</linearGradient>
				<rect x="397.094" y="153.699" style="fill:url(#SVGID_17_);" width="72.587" height="9.596"/>
				<g>
					<linearGradient id="SVGID_18_" gradientUnits="userSpaceOnUse" x1="397.0945" y1="181.5034" x2="450.4894" y2="181.5034">
						<stop  offset="0" style="stop-color:#92F37F"/>
						<stop  offset="1" style="stop-color:#4AB272"/>
					</linearGradient>
					<rect x="397.094" y="176.705" style="fill:url(#SVGID_18_);" width="72.587" height="9.596"/>
					<linearGradient id="SVGID_19_" gradientUnits="userSpaceOnUse" x1="397.0945" y1="345.7291" x2="450.4894" y2="345.7291">
						<stop  offset="0" style="stop-color:#92F37F"/>
						<stop  offset="1" style="stop-color:#4AB272"/>
					</linearGradient>
					<rect x="397.094" y="340.931" style="fill:url(#SVGID_19_);" width="72.587" height="9.596"/>
				</g>
				<linearGradient id="SVGID_20_" gradientUnits="userSpaceOnUse" x1="397.0945" y1="368.7353" x2="450.4894" y2="368.7353">
					<stop  offset="0" style="stop-color:#92F37F"/>
					<stop  offset="1" style="stop-color:#4AB272"/>
				</linearGradient>
				<rect x="397.094" y="363.937" style="fill:url(#SVGID_20_);" width="72.587" height="9.596"/>
			</g>
			<linearGradient id="SVGID_21_" gradientUnits="userSpaceOnUse" x1="402.4909" y1="252.0777" x2="319.6619" y2="213.458">
				<stop  offset="0" style="stop-color:#FFDA45;stop-opacity:0"/>
				<stop  offset="1" style="stop-color:#FCEE21"/>
			</linearGradient>
			<path style="fill:url(#SVGID_21_);" d="M418.24,127.787c-6.038,0-10.932,4.895-10.932,10.932v270.787
				c0,0.135,0.015,0.266,0.02,0.4c0.232,0.015,0.463,0.035,0.699,0.035h50.722c6.038,0,10.932-4.895,10.932-10.932V128.223
				c0-0.135-0.015-0.266-0.02-0.4c-0.232-0.015-0.463-0.035-0.699-0.035H418.24z"/>
		</g>
		<g>
			<g>
				
					<linearGradient id="SVGID_22_" gradientUnits="userSpaceOnUse" x1="657.3975" y1="-57.6493" x2="747.2568" y2="-57.6493" gradientTransform="matrix(0.9679 0.2513 -0.2513 0.9679 -358.3291 143.0525)">
					<stop  offset="0" style="stop-color:#FF7044"/>
					<stop  offset="1" style="stop-color:#F92814"/>
				</linearGradient>
				<path style="fill:url(#SVGID_22_);" d="M315.36,409.588l-49.094-12.747c-5.844-1.517-9.351-7.485-7.834-13.329l68.052-262.096
					c1.517-5.844,7.485-9.351,13.329-7.834l49.094,12.747c5.844,1.517,9.351,7.485,7.834,13.329l-68.052,262.096
					C327.172,407.598,321.204,411.106,315.36,409.588z"/>
				
					<linearGradient id="SVGID_23_" gradientUnits="userSpaceOnUse" x1="670.608" y1="-57.6493" x2="704.5676" y2="-57.6493" gradientTransform="matrix(0.9679 0.2513 -0.2513 0.9679 -358.3291 143.0525)">
					<stop  offset="0" style="stop-color:#FF7044"/>
					<stop  offset="1" style="stop-color:#F92814"/>
				</linearGradient>
				<polygon style="fill:url(#SVGID_23_);" points="313.155,409.016 268.471,397.414 342.018,114.155 386.702,125.757 				"/>
			</g>
			<g>
				
					<linearGradient id="SVGID_24_" gradientUnits="userSpaceOnUse" x1="657.3975" y1="-162.7683" x2="710.7924" y2="-162.7683" gradientTransform="matrix(0.9679 0.2513 -0.2513 0.9679 -358.3291 143.0525)">
					<stop  offset="0" style="stop-color:#F9F7FC"/>
					<stop  offset="1" style="stop-color:#F0DDFC"/>
				</linearGradient>
				<polygon style="fill:url(#SVGID_24_);" points="387.927,173.605 317.67,155.363 320.081,146.075 390.339,164.317 				"/>
				
					<linearGradient id="SVGID_25_" gradientUnits="userSpaceOnUse" x1="657.3975" y1="47.4698" x2="710.7924" y2="47.4698" gradientTransform="matrix(0.9679 0.2513 -0.2513 0.9679 -358.3291 143.0525)">
					<stop  offset="0" style="stop-color:#F9F7FC"/>
					<stop  offset="1" style="stop-color:#F0DDFC"/>
				</linearGradient>
				<polygon style="fill:url(#SVGID_25_);" points="335.092,377.096 264.835,358.854 267.246,349.566 337.503,367.808 				"/>
				
					<linearGradient id="SVGID_26_" gradientUnits="userSpaceOnUse" x1="657.3975" y1="24.3407" x2="710.7924" y2="24.3407" gradientTransform="matrix(0.9679 0.2513 -0.2513 0.9679 -358.3291 143.0525)">
					<stop  offset="0" style="stop-color:#F9F7FC"/>
					<stop  offset="1" style="stop-color:#F0DDFC"/>
				</linearGradient>
				<polygon style="fill:url(#SVGID_26_);" points="340.904,354.709 270.647,336.467 273.059,327.179 343.316,345.421 				"/>
			</g>
			
				<linearGradient id="SVGID_27_" gradientUnits="userSpaceOnUse" x1="684.352" y1="-56.146" x2="622.6113" y2="-72.1528" gradientTransform="matrix(0.9679 0.2513 -0.2513 0.9679 -358.3291 143.0525)">
				<stop  offset="0" style="stop-color:#FF7044;stop-opacity:0"/>
				<stop  offset="1" style="stop-color:#FFA425"/>
			</linearGradient>
			<path style="fill:url(#SVGID_27_);" d="M347.06,126.309c-5.844-1.517-11.812,1.99-13.329,7.834l-68.052,262.096
				c-0.034,0.131-0.052,0.262-0.081,0.393c0.221,0.073,0.439,0.151,0.668,0.21l49.094,12.747c5.844,1.517,11.812-1.99,13.329-7.834
				l68.052-262.096c0.034-0.131,0.052-0.262,0.081-0.393c-0.221-0.073-0.44-0.151-0.668-0.21L347.06,126.309z"/>
		</g>
		<g>
			<g>
				<linearGradient id="SVGID_28_" gradientUnits="userSpaceOnUse" x1="112.9055" y1="263.6162" x2="202.7648" y2="263.6162">
					<stop  offset="0" style="stop-color:#92F37F"/>
					<stop  offset="1" style="stop-color:#4AB272"/>
				</linearGradient>
				<path style="fill:url(#SVGID_28_);" d="M174.56,409.942h-50.722c-6.038,0-10.932-4.895-10.932-10.932V128.223
					c0-6.038,4.895-10.932,10.932-10.932h50.722c6.038,0,10.932,4.895,10.932,10.932v270.787
					C185.492,405.047,180.598,409.942,174.56,409.942z"/>
				<linearGradient id="SVGID_29_" gradientUnits="userSpaceOnUse" x1="126.116" y1="263.6162" x2="160.0756" y2="263.6162">
					<stop  offset="0" style="stop-color:#92F37F"/>
					<stop  offset="1" style="stop-color:#4AB272"/>
				</linearGradient>
				<rect x="126.116" y="117.291" style="fill:url(#SVGID_29_);" width="46.166" height="292.651"/>
			</g>
			<g>
				<linearGradient id="SVGID_30_" gradientUnits="userSpaceOnUse" x1="112.9055" y1="158.4972" x2="166.3004" y2="158.4972">
					<stop  offset="0" style="stop-color:#4A98F7"/>
					<stop  offset="1" style="stop-color:#0469BC"/>
				</linearGradient>
				<rect x="112.906" y="153.699" style="fill:url(#SVGID_30_);" width="72.587" height="9.596"/>
				<linearGradient id="SVGID_31_" gradientUnits="userSpaceOnUse" x1="112.9055" y1="368.7353" x2="166.3004" y2="368.7353">
					<stop  offset="0" style="stop-color:#4A98F7"/>
					<stop  offset="1" style="stop-color:#0469BC"/>
				</linearGradient>
				<rect x="112.906" y="363.937" style="fill:url(#SVGID_31_);" width="72.587" height="9.596"/>
			</g>
			<linearGradient id="SVGID_32_" gradientUnits="userSpaceOnUse" x1="139.86" y1="265.1194" x2="78.1193" y2="249.1126">
				<stop  offset="0" style="stop-color:#92F37F;stop-opacity:0"/>
				<stop  offset="1" style="stop-color:#FFEE83"/>
			</linearGradient>
			<path style="fill:url(#SVGID_32_);" d="M134.051,127.787c-6.038,0-10.932,4.895-10.932,10.932v270.787
				c0,0.135,0.015,0.266,0.02,0.4c0.232,0.015,0.463,0.035,0.699,0.035h50.722c6.038,0,10.932-4.895,10.932-10.932V128.223
				c0-0.135-0.015-0.266-0.02-0.4c-0.232-0.015-0.463-0.035-0.699-0.035H134.051z"/>
		</g>
		<g>
			<g>
				<linearGradient id="SVGID_33_" gradientUnits="userSpaceOnUse" x1="40.3188" y1="263.6162" x2="130.1781" y2="263.6162">
					<stop  offset="0" style="stop-color:#FFDA45"/>
					<stop  offset="1" style="stop-color:#FFA425"/>
				</linearGradient>
				<path style="fill:url(#SVGID_33_);" d="M101.973,409.942H51.251c-6.038,0-10.932-4.895-10.932-10.932V128.223
					c0-6.038,4.895-10.932,10.932-10.932h50.722c6.038,0,10.932,4.895,10.932,10.932v270.787
					C112.905,405.047,108.011,409.942,101.973,409.942z"/>
				<linearGradient id="SVGID_34_" gradientUnits="userSpaceOnUse" x1="53.5293" y1="263.6162" x2="87.4889" y2="263.6162">
					<stop  offset="0" style="stop-color:#FFDA45"/>
					<stop  offset="1" style="stop-color:#FFA425"/>
				</linearGradient>
				<rect x="53.529" y="117.291" style="fill:url(#SVGID_34_);" width="46.166" height="292.651"/>
			</g>
			<g>
				<linearGradient id="SVGID_35_" gradientUnits="userSpaceOnUse" x1="40.3188" y1="158.4972" x2="93.7138" y2="158.4972">
					<stop  offset="0" style="stop-color:#FF7044"/>
					<stop  offset="1" style="stop-color:#F92814"/>
				</linearGradient>
				<rect x="40.319" y="153.699" style="fill:url(#SVGID_35_);" width="72.587" height="9.596"/>
				<linearGradient id="SVGID_36_" gradientUnits="userSpaceOnUse" x1="40.3188" y1="368.7353" x2="93.7138" y2="368.7353">
					<stop  offset="0" style="stop-color:#FF7044"/>
					<stop  offset="1" style="stop-color:#F92814"/>
				</linearGradient>
				<rect x="40.319" y="363.937" style="fill:url(#SVGID_36_);" width="72.587" height="9.596"/>
			</g>
			<linearGradient id="SVGID_37_" gradientUnits="userSpaceOnUse" x1="67.2733" y1="265.1194" x2="5.5327" y2="249.1126">
				<stop  offset="0" style="stop-color:#FFDA45;stop-opacity:0"/>
				<stop  offset="1" style="stop-color:#FCEE21"/>
			</linearGradient>
			<path style="fill:url(#SVGID_37_);" d="M61.464,127.787c-6.038,0-10.932,4.895-10.932,10.932v270.787
				c0,0.135,0.015,0.266,0.02,0.4c0.232,0.015,0.463,0.035,0.699,0.035h50.722c6.038,0,10.932-4.895,10.932-10.932V128.223
				c0-0.135-0.015-0.266-0.02-0.4c-0.232-0.015-0.463-0.035-0.699-0.035H61.464z"/>
		</g>
	</g>
</g>
<g>
</g>
<g>
</g>
<g>
</g>
<g>
</g>
<g>
</g>
<g>
</g>
<g>
</g>
<g>
</g>
<g>
</g>
<g>
</g>
<g>
</g>
<g>
</g>
<g>
</g>
<g>
</g>
<g>
</g>
</svg>
