<?xml version="1.0" encoding="iso-8859-1"?>
<!-- Generator: Adobe Illustrator 22.0.0, SVG Export Plug-In . SVG Version: 6.00 Build 0)  -->
<svg version="1.1" id="Capa_1" xmlns="http://www.w3.org/2000/svg" xmlns:xlink="http://www.w3.org/1999/xlink" x="0px" y="0px"
	 viewBox="0 0 510 510" style="enable-background:new 0 0 510 510;" xml:space="preserve">
<g>
	<g>
		<linearGradient id="SVGID_1_" gradientUnits="userSpaceOnUse" x1="157.7275" y1="157.7275" x2="566.0042" y2="566.0043">
			<stop  offset="0" style="stop-color:#F9F7FC"/>
			<stop  offset="1" style="stop-color:#F0DDFC"/>
		</linearGradient>
		<path style="fill:url(#SVGID_1_);" d="M432.831,480.495H77.169c-26.324,0-47.664-21.34-47.664-47.664V77.169
			c0-26.324,21.34-47.664,47.664-47.664h355.662c26.324,0,47.664,21.34,47.664,47.664v355.662
			C480.495,459.155,459.155,480.495,432.831,480.495z"/>
		<linearGradient id="SVGID_2_" gradientUnits="userSpaceOnUse" x1="187.3513" y1="187.3513" x2="54.9828" y2="54.9829">
			<stop  offset="0" style="stop-color:#E9EDF5;stop-opacity:0"/>
			<stop  offset="1" style="stop-color:#FFFFFF"/>
		</linearGradient>
		<path style="fill:url(#SVGID_2_);" d="M419.337,463.384H90.664c-24.327,0-44.048-19.721-44.048-44.047V90.664
			c0-24.327,19.721-44.047,44.048-44.047h328.673c24.327,0,44.048,19.721,44.048,44.047v328.673
			C463.384,443.663,443.663,463.384,419.337,463.384z"/>
	</g>
	<linearGradient id="SVGID_3_" gradientUnits="userSpaceOnUse" x1="369.2304" y1="255.0001" x2="475.7875" y2="255.0001">
		<stop  offset="0" style="stop-color:#18CFFC"/>
		<stop  offset="1" style="stop-color:#4A98F7"/>
	</linearGradient>
	<path style="fill:url(#SVGID_3_);" d="M435.333,29.571V480.43c25.161-1.302,45.162-22.114,45.162-47.599V77.169
		C480.495,51.684,460.494,30.872,435.333,29.571z"/>
	<linearGradient id="SVGID_4_" gradientUnits="userSpaceOnUse" x1="481.6097" y1="255.0001" x2="444.9109" y2="255.0001">
		<stop  offset="0" style="stop-color:#0469BC;stop-opacity:0"/>
		<stop  offset="1" style="stop-color:#0469BC"/>
	</linearGradient>
	<path style="fill:url(#SVGID_4_);" d="M435.333,29.571V480.43c25.161-1.302,45.162-22.114,45.162-47.599V77.169
		C480.495,51.684,460.494,30.872,435.333,29.571z"/>
	<linearGradient id="SVGID_5_" gradientUnits="userSpaceOnUse" x1="179.3029" y1="255.0001" x2="411.785" y2="255.0001">
		<stop  offset="0" style="stop-color:#F0DDFC;stop-opacity:0"/>
		<stop  offset="0.2889" style="stop-color:#C8B7E0;stop-opacity:0.2889"/>
		<stop  offset="0.5915" style="stop-color:#A595C8;stop-opacity:0.5915"/>
		<stop  offset="0.8395" style="stop-color:#8F81B8;stop-opacity:0.8395"/>
		<stop  offset="1" style="stop-color:#8779B3"/>
	</linearGradient>
	<rect x="148.167" y="29.505" style="fill:url(#SVGID_5_);" width="106.833" height="450.991"/>
	<linearGradient id="SVGID_6_" gradientUnits="userSpaceOnUse" x1="333.0843" y1="186.7195" x2="158.1969" y2="-2.1795">
		<stop  offset="0" style="stop-color:#F0DDFC;stop-opacity:0"/>
		<stop  offset="0.2889" style="stop-color:#C8B7E0;stop-opacity:0.2889"/>
		<stop  offset="0.5915" style="stop-color:#A595C8;stop-opacity:0.5915"/>
		<stop  offset="0.8395" style="stop-color:#8F81B8;stop-opacity:0.8395"/>
		<stop  offset="1" style="stop-color:#8779B3"/>
	</linearGradient>
	<path style="fill:url(#SVGID_6_);" d="M480.495,241.555l-199.44-199.44c-6.146-6.146-16.655-1.792-16.656,6.901
		c0,5.388-4.369,9.757-9.758,9.757l-69.924,0.005c-3.892,0-3.454,3.156-3.455,7.048l-0.005,56.092c0,3.892-0.439,7.048,3.453,7.047
		l0.778,0l215.304,216.083l65.873-0.005c0.641,0.581,1.357,1.07,2.122,1.464c0.939,1.865,2.453,3.317,4.237,4.237
		c0.939,1.865,2.453,3.317,4.237,4.237c0.755,1.5,1.893,2.717,3.234,3.621V241.555z"/>
	<linearGradient id="SVGID_7_" gradientUnits="userSpaceOnUse" x1="242.7833" y1="379.8665" x2="38.3156" y2="92.3661">
		<stop  offset="0" style="stop-color:#F0DDFC;stop-opacity:0"/>
		<stop  offset="0.2889" style="stop-color:#C8B7E0;stop-opacity:0.2889"/>
		<stop  offset="0.5915" style="stop-color:#A595C8;stop-opacity:0.5915"/>
		<stop  offset="0.8395" style="stop-color:#8F81B8;stop-opacity:0.8395"/>
		<stop  offset="1" style="stop-color:#8779B3"/>
	</linearGradient>
	<path style="fill:url(#SVGID_7_);" d="M419.336,463.384c14.027,0,26.512-6.564,34.579-16.779c-0.089-0.059-0.165-0.125-0.255-0.184
		c-1.379-2.268-3.336-4.212-5.846-5.846l-280.6-280.601c-1.902-3.129-4.871-5.66-8.926-7.581
		c-5.491-2.601-11.806-3.902-18.932-3.902c-7.131,0-13.44,1.301-18.931,3.902c-5.493,2.602-9.01,6.314-10.549,11.128l-53.761,176.31
		c-0.388,1.544-0.577,2.601-0.577,3.179c0,4.484,2.511,8.424,7.522,11.824l108.549,108.549H419.336z"/>
	<g>
		<linearGradient id="SVGID_8_" gradientUnits="userSpaceOnUse" x1="82.158" y1="238.6613" x2="266.9049" y2="336.2244">
			<stop  offset="0" style="stop-color:#18CFFC"/>
			<stop  offset="1" style="stop-color:#4A98F7"/>
		</linearGradient>
		<path style="fill:url(#SVGID_8_);" d="M55.537,343.011c0-0.578,0.189-1.635,0.578-3.179l53.761-176.31
			c1.539-4.814,5.057-8.527,10.549-11.128c5.491-2.601,11.8-3.902,18.931-3.902c7.127,0,13.441,1.301,18.932,3.902
			c5.491,2.602,9.005,6.314,10.551,11.128l54.048,176.31c0.384,1.544,0.578,2.601,0.578,3.179c0,5.013-3.133,9.349-9.393,13.007
			c-6.264,3.663-12.767,5.491-19.51,5.491c-8.287,0-13.201-2.791-14.74-8.382l-9.828-36.129h-60.985l-9.828,36.129
			c-1.544,5.591-6.458,8.382-14.741,8.382c-6.746,0-13.25-1.829-19.51-5.491C58.667,352.359,55.537,348.024,55.537,343.011z
			 M118.258,282.314h42.198l-21.1-77.461L118.258,282.314z"/>
	</g>
	<g>
		<linearGradient id="SVGID_9_" gradientUnits="userSpaceOnUse" x1="311.3295" y1="218.4673" x2="524.5892" y2="347.6835">
			<stop  offset="0" style="stop-color:#18CFFC"/>
			<stop  offset="1" style="stop-color:#4A98F7"/>
		</linearGradient>
		<path style="fill:url(#SVGID_9_);" d="M255,29.505L436.271,0.098c4.543-0.737,8.666,2.771,8.666,7.373v495.057
			c0,4.603-4.123,8.111-8.666,7.374L255,480.495V29.505z"/>
		<linearGradient id="SVGID_10_" gradientUnits="userSpaceOnUse" x1="343.861" y1="196.2983" x2="138.3557" y2="5.8423">
			<stop  offset="0" style="stop-color:#0469BC;stop-opacity:0"/>
			<stop  offset="1" style="stop-color:#0469BC"/>
		</linearGradient>
		<path style="fill:url(#SVGID_10_);" d="M480.495,241.555l-199.44-199.44c-6.146-6.146-16.655-1.792-16.656,6.901
			c0,5.267-4.178,9.549-9.399,9.739v139.973l145.793,146.32l65.873-0.005c0.641,0.581,1.357,1.07,2.122,1.464
			c0.939,1.865,2.453,3.317,4.237,4.237c0.939,1.865,2.453,3.317,4.237,4.237c0.755,1.5,1.893,2.717,3.234,3.621V241.555z"/>
		<linearGradient id="SVGID_11_" gradientUnits="userSpaceOnUse" x1="410.3735" y1="252.2198" x2="531.8022" y2="264.674">
			<stop  offset="0" style="stop-color:#0469BC;stop-opacity:0"/>
			<stop  offset="1" style="stop-color:#0469BC"/>
		</linearGradient>
		<path style="fill:url(#SVGID_11_);" d="M436.271,0.098l-10.542,1.71c1.582,1.36,2.602,3.376,2.602,5.663v495.056
			c0,2.288-1.02,4.303-2.602,5.663l10.542,1.71c4.543,0.737,8.666-2.771,8.666-7.374V7.472
			C444.937,2.869,440.814-0.639,436.271,0.098z"/>
		<linearGradient id="SVGID_12_" gradientUnits="userSpaceOnUse" x1="460.1252" y1="289.9167" x2="315.3445" y2="95.3185">
			<stop  offset="0" style="stop-color:#18CFFC;stop-opacity:0"/>
			<stop  offset="1" style="stop-color:#65E1DC"/>
		</linearGradient>
		<path style="fill:url(#SVGID_12_);" d="M436.271,0.098l-10.542,1.71c1.582,1.36,2.602,3.376,2.602,5.663v495.056
			c0,2.288-1.02,4.303-2.602,5.663l10.542,1.71c4.543,0.737,8.666-2.771,8.666-7.374V7.472
			C444.937,2.869,440.814-0.639,436.271,0.098z"/>
	</g>
	<linearGradient id="SVGID_13_" gradientUnits="userSpaceOnUse" x1="419.9172" y1="346.2798" x2="188.4639" y2="185.4041">
		<stop  offset="0" style="stop-color:#0469BC;stop-opacity:0"/>
		<stop  offset="1" style="stop-color:#0469BC"/>
	</linearGradient>
	<path style="fill:url(#SVGID_13_);" d="M480.495,432.831V261.262l-62.178-62.178c-2.332-3.445-6.277-5.709-10.75-5.709h-25.469
		L352.41,164.01c-2.332-3.445-6.277-5.709-10.75-5.709c-7.165,0-12.974,5.809-12.974,12.974v22.1h-52.933
		c-7.165,0-12.974,5.809-12.974,12.974c0,4.473,2.265,8.417,5.709,10.75l38.026,38.105c-6.466,2.252-10.119,9.185-8.192,15.841
		c5.067,17.507,13.34,32.914,23.861,45.459c-9.777,5.926-20.73,9.249-32.288,9.249c-7.165,0-12.974,5.808-12.974,12.974
		c0,4.473,2.265,8.417,5.709,10.75l159.147,159.147c1.895-1.343,3.159-3.549,3.159-6.094v-23.594
		C465.397,473.576,480.495,454.971,480.495,432.831z"/>
	<linearGradient id="SVGID_14_" gradientUnits="userSpaceOnUse" x1="277.9734" y1="199.7279" x2="421.2048" y2="347.1111">
		<stop  offset="0" style="stop-color:#F9F7FC"/>
		<stop  offset="1" style="stop-color:#F0DDFC"/>
	</linearGradient>
	<path style="fill:url(#SVGID_14_);" d="M407.567,193.374h-52.933v-22.1c0-7.165-5.809-12.974-12.974-12.974
		c-7.165,0-12.974,5.809-12.974,12.974v22.1h-52.933c-7.165,0-12.974,5.809-12.974,12.974c0,7.165,5.809,12.974,12.974,12.974
		h88.786v12.518c0,26.502-8.773,50.471-22.855,67.563c-8.063-9.75-14.457-21.821-18.438-35.574
		c-1.992-6.883-9.186-10.845-16.069-8.855c-6.882,1.992-10.847,9.187-8.855,16.07c5.067,17.507,13.34,32.914,23.861,45.459
		c-9.777,5.926-20.73,9.249-32.288,9.249c-7.165,0-12.974,5.808-12.974,12.974c0,7.165,5.809,12.974,12.974,12.974
		c18.602,0,36.371-5.924,51.832-17.018c15.274,10.887,33.04,17.018,51.697,17.018c7.165,0,12.974-5.809,12.974-12.974
		c0-7.165-5.809-12.974-12.974-12.974c-11.38,0-22.349-3.312-32.223-9.295c0.227-0.272,0.457-0.537,0.682-0.812
		c18.444-22.501,28.602-52.263,28.602-83.804v-12.518h17.081c7.165,0,12.974-5.809,12.974-12.974
		C420.541,199.183,414.732,193.374,407.567,193.374z"/>
	<g>
		
			<linearGradient id="SVGID_15_" gradientUnits="userSpaceOnUse" x1="689.1554" y1="263.0181" x2="775.5336" y2="325.3478" gradientTransform="matrix(0 1 -1 0 529.0646 -625.5031)">
			<stop  offset="0" style="stop-color:#92F37F"/>
			<stop  offset="1" style="stop-color:#4AB272"/>
		</linearGradient>
		<path style="fill:url(#SVGID_15_);" d="M254.635,128.96l-69.925,0.005c-3.892,0-3.454-3.155-3.453-7.047l0.005-56.092
			c0-3.892-0.438-7.048,3.455-7.048l69.925-0.005c5.388,0,9.757-4.369,9.757-9.757l0,0c0.001-8.692,10.51-13.046,16.656-6.901
			l44.846,44.846c3.81,3.81,3.809,9.987-0.001,13.798l-44.855,44.854c-6.147,6.147-16.656,1.795-16.655-6.897l0,0
			C264.391,133.328,260.023,128.96,254.635,128.96z"/>
		
			<linearGradient id="SVGID_16_" gradientUnits="userSpaceOnUse" x1="734.2676" y1="287.3502" x2="636.8309" y2="241.5259" gradientTransform="matrix(0 1 -1 0 529.0646 -625.5031)">
			<stop  offset="0" style="stop-color:#92F37F;stop-opacity:0"/>
			<stop  offset="1" style="stop-color:#FFEE83"/>
		</linearGradient>
		<path style="fill:url(#SVGID_16_);" d="M189.198,66.714l65.443-0.005c9.755-0.001,17.693-7.938,17.694-17.694
			c0-0.808,0.379-1.373,1.124-1.682c0.746-0.309,1.413-0.177,1.984,0.394l44.846,44.846c0.441,0.441,0.533,0.944,0.533,1.287
			c0,0.344-0.093,0.846-0.533,1.288l-44.855,44.854c-0.571,0.571-1.239,0.704-1.985,0.395c-0.746-0.309-1.124-0.874-1.124-1.682
			c0.001-9.756-7.935-17.692-17.69-17.691l-65.443,0.005L189.198,66.714z"/>
		
			<linearGradient id="SVGID_17_" gradientUnits="userSpaceOnUse" x1="744.8489" y1="261.1844" x2="649.5241" y2="403.2724" gradientTransform="matrix(0 1 -1 0 529.0646 -625.5031)">
			<stop  offset="0" style="stop-color:#4AB272;stop-opacity:0"/>
			<stop  offset="1" style="stop-color:#009245"/>
		</linearGradient>
		<path style="fill:url(#SVGID_17_);" d="M181.257,121.918c0,3.892-0.439,7.048,3.453,7.048l69.925-0.005
			c5.388-0.001,9.756,4.367,9.756,9.756l0,0c-0.001,8.692,10.508,13.044,16.655,6.897l44.854-44.854
			c1.905-1.905,2.858-4.402,2.858-6.899L181.26,93.872L181.257,121.918z"/>
	</g>
</g>
<g>
</g>
<g>
</g>
<g>
</g>
<g>
</g>
<g>
</g>
<g>
</g>
<g>
</g>
<g>
</g>
<g>
</g>
<g>
</g>
<g>
</g>
<g>
</g>
<g>
</g>
<g>
</g>
<g>
</g>
</svg>
