<?xml version="1.0" encoding="iso-8859-1"?>
<!-- Generator: Adobe Illustrator 22.0.0, SVG Export Plug-In . SVG Version: 6.00 Build 0)  -->
<svg version="1.1" id="Capa_1" xmlns="http://www.w3.org/2000/svg" xmlns:xlink="http://www.w3.org/1999/xlink" x="0px" y="0px"
	 viewBox="0 0 510 510" style="enable-background:new 0 0 510 510;" xml:space="preserve">
<g>
	<g>
		<linearGradient id="SVGID_1_" gradientUnits="userSpaceOnUse" x1="243.0193" y1="451.8105" x2="294.2918" y2="563.9692">
			<stop  offset="0" style="stop-color:#18CFFC"/>
			<stop  offset="1" style="stop-color:#4A98F7"/>
		</linearGradient>
		<path style="fill:url(#SVGID_1_);" d="M348.655,393.61h-187.31c-41.113,0-74.443,33.329-74.443,74.443v34.575
			c0,4.072,3.301,7.373,7.373,7.373h321.449c4.072,0,7.373-3.301,7.373-7.373v-34.575
			C423.097,426.939,389.768,393.61,348.655,393.61z"/>
		<linearGradient id="SVGID_2_" gradientUnits="userSpaceOnUse" x1="276.2259" y1="475.3829" x2="94.0492" y2="363.2741">
			<stop  offset="0" style="stop-color:#18CFFC;stop-opacity:0"/>
			<stop  offset="1" style="stop-color:#65E1DC"/>
		</linearGradient>
		<path style="fill:url(#SVGID_2_);" d="M353.954,401.895H179.979c-38.187,0-69.143,30.957-69.143,69.143v32.114
			c0,3.782,3.066,6.848,6.848,6.848h298.041c4.072,0,7.373-3.301,7.373-7.373v-31.589
			C423.097,432.852,392.141,401.895,353.954,401.895z"/>
		<linearGradient id="SVGID_3_" gradientUnits="userSpaceOnUse" x1="328.0841" y1="456.9149" x2="362.9974" y2="533.2878">
			<stop  offset="0" style="stop-color:#18CFFC"/>
			<stop  offset="1" style="stop-color:#4A98F7"/>
		</linearGradient>
		<path style="fill:url(#SVGID_3_);" d="M348.655,393.61h-19.212c-41.113,0-74.442,33.329-74.442,74.442V510h160.725
			c4.072,0,7.373-3.301,7.373-7.373v-34.575C423.097,426.939,389.768,393.61,348.655,393.61z"/>
		<linearGradient id="SVGID_4_" gradientUnits="userSpaceOnUse" x1="326.6537" y1="489.4084" x2="252.5818" y2="398.8206">
			<stop  offset="0" style="stop-color:#0469BC;stop-opacity:0"/>
			<stop  offset="1" style="stop-color:#0469BC"/>
		</linearGradient>
		<path style="fill:url(#SVGID_4_);" d="M423.097,502.627v-22.419l-86.598-86.598h-162.8c-0.911,1.492-1.446,3.24-1.446,5.117
			v11.865c0,5.199,1.597,10.272,4.574,14.534l39.365,56.341L244.69,510h171.035C419.797,510,423.097,506.699,423.097,502.627z"/>
		<linearGradient id="SVGID_5_" gradientUnits="userSpaceOnUse" x1="174.1051" y1="366.1795" x2="318.4453" y2="408.703">
			<stop  offset="0" style="stop-color:#FFDAAA"/>
			<stop  offset="0.2841" style="stop-color:#FFD4A4"/>
			<stop  offset="0.6728" style="stop-color:#FDC592"/>
			<stop  offset="1" style="stop-color:#FCB37E"/>
		</linearGradient>
		<path style="fill:url(#SVGID_5_);" d="M288.939,348.138v-20.378h-67.878v20.378c0,25.113-20.358,45.471-45.471,45.471h0v0
			c0,33.408,27.083,60.491,60.491,60.491h37.839c33.408,0,60.491-27.083,60.491-60.491v0h0
			C309.297,393.61,288.939,373.251,288.939,348.138z"/>
		<linearGradient id="SVGID_6_" gradientUnits="userSpaceOnUse" x1="284.7382" y1="396.7384" x2="266.1716" y2="333.2527">
			<stop  offset="0" style="stop-color:#FCB37E;stop-opacity:0"/>
			<stop  offset="1" style="stop-color:#FF7044"/>
		</linearGradient>
		<path style="fill:url(#SVGID_6_);" d="M334.41,393.61L334.41,393.61c-25.113,0-45.472-20.358-45.472-45.471v-20.378h-67.878
			v20.378c0,1.135-0.056,2.257-0.138,3.371l0.001,0.001l89.963,89.963C325.191,430.41,334.41,413.091,334.41,393.61L334.41,393.61z"
			/>
		<g>
			<linearGradient id="SVGID_7_" gradientUnits="userSpaceOnUse" x1="359.9907" y1="111.8985" x2="421.6479" y2="173.5556">
				<stop  offset="0" style="stop-color:#F9F7FC"/>
				<stop  offset="1" style="stop-color:#F0DDFC"/>
			</linearGradient>
			<circle style="fill:url(#SVGID_7_);" cx="377.803" cy="129.71" r="47.606"/>
			<linearGradient id="SVGID_8_" gradientUnits="userSpaceOnUse" x1="382.5448" y1="134.4526" x2="339.4632" y2="91.3711">
				<stop  offset="0" style="stop-color:#FFFFFF;stop-opacity:0"/>
				<stop  offset="1" style="stop-color:#FFFFFF"/>
			</linearGradient>
			<circle style="fill:url(#SVGID_8_);" cx="377.802" cy="129.71" r="39.731"/>
			<linearGradient id="SVGID_9_" gradientUnits="userSpaceOnUse" x1="379.4558" y1="147.9553" x2="444.8924" y2="26.2524">
				<stop  offset="0" style="stop-color:#F0DDFC;stop-opacity:0"/>
				<stop  offset="0.2085" style="stop-color:#DFCDF1;stop-opacity:0.2085"/>
				<stop  offset="0.6167" style="stop-color:#B5A4D3;stop-opacity:0.6167"/>
				<stop  offset="1" style="stop-color:#8779B3"/>
			</linearGradient>
			<path style="fill:url(#SVGID_9_);" d="M399.098,87.125c3.211,6.408,5.021,13.64,5.021,21.295
				c0,26.292-21.314,47.606-47.606,47.606c-7.655,0-14.887-1.81-21.295-5.021c7.816,15.6,23.949,26.31,42.585,26.31
				c26.292,0,47.606-21.314,47.606-47.606C425.408,111.074,414.698,94.941,399.098,87.125z"/>
		</g>
		<g>
			<g>
				<linearGradient id="SVGID_10_" gradientUnits="userSpaceOnUse" x1="113.4518" y1="181.6192" x2="208.6101" y2="276.7775">
					<stop  offset="0" style="stop-color:#F9F7FC"/>
					<stop  offset="1" style="stop-color:#F0DDFC"/>
				</linearGradient>
				<circle style="fill:url(#SVGID_10_);" cx="140.942" cy="209.109" r="73.472"/>
				<linearGradient id="SVGID_11_" gradientUnits="userSpaceOnUse" x1="148.2606" y1="216.4281" x2="81.771" y2="149.9384">
					<stop  offset="0" style="stop-color:#FFFFFF;stop-opacity:0"/>
					<stop  offset="1" style="stop-color:#FFFFFF"/>
				</linearGradient>
				<circle style="fill:url(#SVGID_11_);" cx="140.942" cy="209.109" r="61.319"/>
				<linearGradient id="SVGID_12_" gradientUnits="userSpaceOnUse" x1="143.4932" y1="237.2674" x2="244.4843" y2="49.438">
					<stop  offset="0" style="stop-color:#F0DDFC;stop-opacity:0"/>
					<stop  offset="0.2085" style="stop-color:#DFCDF1;stop-opacity:0.2085"/>
					<stop  offset="0.6167" style="stop-color:#B5A4D3;stop-opacity:0.6167"/>
					<stop  offset="1" style="stop-color:#8779B3"/>
				</linearGradient>
				<path style="fill:url(#SVGID_12_);" d="M173.808,143.385c4.955,9.89,7.749,21.051,7.749,32.866
					c0,40.578-32.895,73.472-73.472,73.472c-11.815,0-22.976-2.793-32.866-7.749c12.063,24.076,36.961,40.606,65.724,40.606
					c40.578,0,73.472-32.895,73.472-73.472C214.414,180.347,197.884,155.449,173.808,143.385z"/>
			</g>
			<g>
				<linearGradient id="SVGID_13_" gradientUnits="userSpaceOnUse" x1="341.5685" y1="181.6192" x2="436.7268" y2="276.7775">
					<stop  offset="0" style="stop-color:#F9F7FC"/>
					<stop  offset="1" style="stop-color:#F0DDFC"/>
				</linearGradient>
				<circle style="fill:url(#SVGID_13_);" cx="369.058" cy="209.109" r="73.472"/>
				<linearGradient id="SVGID_14_" gradientUnits="userSpaceOnUse" x1="376.3773" y1="216.4281" x2="309.8877" y2="149.9384">
					<stop  offset="0" style="stop-color:#FFFFFF;stop-opacity:0"/>
					<stop  offset="1" style="stop-color:#FFFFFF"/>
				</linearGradient>
				<circle style="fill:url(#SVGID_14_);" cx="369.058" cy="209.109" r="61.319"/>
				<linearGradient id="SVGID_15_" gradientUnits="userSpaceOnUse" x1="371.6099" y1="237.2674" x2="472.601" y2="49.438">
					<stop  offset="0" style="stop-color:#F0DDFC;stop-opacity:0"/>
					<stop  offset="0.2085" style="stop-color:#DFCDF1;stop-opacity:0.2085"/>
					<stop  offset="0.6167" style="stop-color:#B5A4D3;stop-opacity:0.6167"/>
					<stop  offset="1" style="stop-color:#8779B3"/>
				</linearGradient>
				<path style="fill:url(#SVGID_15_);" d="M401.925,143.385c4.955,9.89,7.749,21.051,7.749,32.866
					c0,40.578-32.895,73.472-73.472,73.472c-11.815,0-22.976-2.793-32.866-7.749c12.063,24.076,36.961,40.606,65.724,40.606
					c40.578,0,73.472-32.895,73.472-73.472C442.531,180.347,426.001,155.449,401.925,143.385z"/>
				<linearGradient id="SVGID_16_" gradientUnits="userSpaceOnUse" x1="434.0561" y1="248.2598" x2="306.0561" y2="198.9265">
					<stop  offset="0" style="stop-color:#F0DDFC;stop-opacity:0"/>
					<stop  offset="0.2085" style="stop-color:#DFCDF1;stop-opacity:0.2085"/>
					<stop  offset="0.6167" style="stop-color:#B5A4D3;stop-opacity:0.6167"/>
					<stop  offset="1" style="stop-color:#8779B3"/>
				</linearGradient>
				<path style="fill:url(#SVGID_16_);" d="M372.55,159.892h-58.037c-11.762,13.027-18.927,30.284-18.927,49.217
					c0,40.578,32.895,73.472,73.472,73.472c34.212,0,62.961-23.385,71.14-55.041L372.55,159.892z"/>
			</g>
		</g>
		<radialGradient id="SVGID_17_" cx="217.9152" cy="161.4678" r="188.969" gradientUnits="userSpaceOnUse">
			<stop  offset="0" style="stop-color:#FFDAAA"/>
			<stop  offset="0.4213" style="stop-color:#FFD8A8"/>
			<stop  offset="0.6519" style="stop-color:#FED1A0"/>
			<stop  offset="0.8359" style="stop-color:#FDC592"/>
			<stop  offset="0.9951" style="stop-color:#FCB47F"/>
			<stop  offset="1" style="stop-color:#FCB37E"/>
		</radialGradient>
		<path style="fill:url(#SVGID_17_);" d="M255,357.006L255,357.006c-59.582,0-107.883-48.301-107.883-107.883V135.621
			c0-59.582,48.301-107.883,107.883-107.883h0c59.582,0,107.883,48.301,107.883,107.883v113.502
			C362.883,308.705,314.582,357.006,255,357.006z"/>
		<linearGradient id="SVGID_18_" gradientUnits="userSpaceOnUse" x1="276.8323" y1="193.7895" x2="214.5444" y2="65.0213">
			<stop  offset="0" style="stop-color:#FCB37E;stop-opacity:0"/>
			<stop  offset="1" style="stop-color:#FF7044"/>
		</linearGradient>
		<path style="fill:url(#SVGID_18_);" d="M255,27.738L255,27.738c-59.582,0-107.883,48.301-107.883,107.883v50.849l158.134,158.134
			c34.268-18.073,57.632-54.045,57.632-95.481V135.621C362.883,76.039,314.582,27.738,255,27.738z"/>
		<g>
			<g>
				<g>
					<linearGradient id="SVGID_19_" gradientUnits="userSpaceOnUse" x1="193.6383" y1="198.157" x2="218.4436" y2="222.9622">
						<stop  offset="0" style="stop-color:#7E8595"/>
						<stop  offset="1" style="stop-color:#555A66"/>
					</linearGradient>
					<circle style="fill:url(#SVGID_19_);" cx="200.804" cy="205.323" r="19.152"/>
					<linearGradient id="SVGID_20_" gradientUnits="userSpaceOnUse" x1="198.5962" y1="202.1399" x2="184.7034" y2="182.1126">
						<stop  offset="0" style="stop-color:#BEC3D2;stop-opacity:0"/>
						<stop  offset="0.3183" style="stop-color:#C2C7D5;stop-opacity:0.3183"/>
						<stop  offset="0.6082" style="stop-color:#CDD1DE;stop-opacity:0.6082"/>
						<stop  offset="0.8861" style="stop-color:#DFE3ED;stop-opacity:0.8861"/>
						<stop  offset="1" style="stop-color:#E9EDF5"/>
					</linearGradient>
					<circle style="fill:url(#SVGID_20_);" cx="200.804" cy="205.323" r="15.984"/>
					<linearGradient id="SVGID_21_" gradientUnits="userSpaceOnUse" x1="201.4693" y1="212.663" x2="227.795" y2="163.7009">
						<stop  offset="0" style="stop-color:#555A66;stop-opacity:0"/>
						<stop  offset="1" style="stop-color:#555A66"/>
					</linearGradient>
					<path style="fill:url(#SVGID_21_);" d="M209.372,188.19c1.292,2.578,2.02,5.487,2.02,8.567
						c0,10.577-8.575,19.152-19.152,19.152c-3.08,0-5.989-0.728-8.567-2.02c3.145,6.276,9.635,10.585,17.132,10.585
						c10.577,0,19.152-8.575,19.152-19.152C219.956,197.825,215.648,191.335,209.372,188.19z"/>
				</g>
			</g>
			<g>
				<g>
					<linearGradient id="SVGID_22_" gradientUnits="userSpaceOnUse" x1="302.0299" y1="198.157" x2="326.8352" y2="222.9622">
						<stop  offset="0" style="stop-color:#7E8595"/>
						<stop  offset="1" style="stop-color:#555A66"/>
					</linearGradient>
					<circle style="fill:url(#SVGID_22_);" cx="309.196" cy="205.323" r="19.152"/>
					<linearGradient id="SVGID_23_" gradientUnits="userSpaceOnUse" x1="306.9878" y1="202.1399" x2="293.095" y2="182.1126">
						<stop  offset="0" style="stop-color:#BEC3D2;stop-opacity:0"/>
						<stop  offset="0.3183" style="stop-color:#C2C7D5;stop-opacity:0.3183"/>
						<stop  offset="0.6082" style="stop-color:#CDD1DE;stop-opacity:0.6082"/>
						<stop  offset="0.8861" style="stop-color:#DFE3ED;stop-opacity:0.8861"/>
						<stop  offset="1" style="stop-color:#E9EDF5"/>
					</linearGradient>
					<circle style="fill:url(#SVGID_23_);" cx="309.196" cy="205.323" r="15.984"/>
					<linearGradient id="SVGID_24_" gradientUnits="userSpaceOnUse" x1="309.861" y1="212.663" x2="336.1867" y2="163.7009">
						<stop  offset="0" style="stop-color:#555A66;stop-opacity:0"/>
						<stop  offset="1" style="stop-color:#555A66"/>
					</linearGradient>
					<path style="fill:url(#SVGID_24_);" d="M317.763,188.19c1.292,2.578,2.02,5.487,2.02,8.567
						c0,10.577-8.575,19.152-19.152,19.152c-3.08,0-5.989-0.728-8.567-2.02c3.145,6.276,9.635,10.585,17.132,10.585
						c10.577,0,19.152-8.575,19.152-19.152C328.348,197.825,324.039,191.335,317.763,188.19z"/>
				</g>
			</g>
		</g>
		<linearGradient id="SVGID_25_" gradientUnits="userSpaceOnUse" x1="255" y1="224.1084" x2="255" y2="303.846">
			<stop  offset="0" style="stop-color:#FCB37E;stop-opacity:0"/>
			<stop  offset="1" style="stop-color:#FF7044"/>
		</linearGradient>
		<path style="fill:url(#SVGID_25_);" d="M261.129,279.808h-12.257c-9.823,0-17.476-8.52-16.425-18.287l6.409-59.573h32.29
			l6.409,59.573C278.604,271.288,270.952,279.808,261.129,279.808z"/>
		<linearGradient id="SVGID_26_" gradientUnits="userSpaceOnUse" x1="234.7547" y1="85.5258" x2="304.7542" y2="252.6677">
			<stop  offset="0" style="stop-color:#F9F7FC"/>
			<stop  offset="1" style="stop-color:#F0DDFC"/>
		</linearGradient>
		<path style="fill:url(#SVGID_26_);" d="M316.593,27.738c-2.246,0-4.464,0.117-6.662,0.302c-3.448-13.87-15.979-24.15-30.916-24.15
			c-9.774,0-18.516,4.406-24.36,11.334C244.031,5.759,230.033,0,214.685,0c-27.923,0-51.395,19.037-58.159,44.839
			c-34.207,6.736-60.012,36.882-60.012,73.064c0,41.135,33.346,74.481,74.481,74.481c35.546,0,65.257-24.908,72.679-58.218
			c11.325,29.229,39.693,49.964,72.92,49.964c43.186,0,78.196-35.009,78.196-78.196C394.789,62.747,359.78,27.738,316.593,27.738z"
			/>
		<linearGradient id="SVGID_27_" gradientUnits="userSpaceOnUse" x1="313.1041" y1="96.6676" x2="282.5745" y2="15.5889">
			<stop  offset="0" style="stop-color:#FFFFFF;stop-opacity:0"/>
			<stop  offset="1" style="stop-color:#FFFFFF"/>
		</linearGradient>
		<circle style="fill:url(#SVGID_27_);" cx="316.593" cy="105.934" r="75.387"/>
		<linearGradient id="SVGID_28_" gradientUnits="userSpaceOnUse" x1="178.4134" y1="125.3227" x2="111.0109" y2="57.9202">
			<stop  offset="0" style="stop-color:#FFFFFF;stop-opacity:0"/>
			<stop  offset="1" style="stop-color:#FFFFFF"/>
		</linearGradient>
		<circle style="fill:url(#SVGID_28_);" cx="170.994" cy="117.903" r="62.161"/>
		<linearGradient id="SVGID_29_" gradientUnits="userSpaceOnUse" x1="319.3087" y1="135.9022" x2="426.7927" y2="-64.0028">
			<stop  offset="0" style="stop-color:#F0DDFC;stop-opacity:0"/>
			<stop  offset="0.2085" style="stop-color:#DFCDF1;stop-opacity:0.2085"/>
			<stop  offset="0.6167" style="stop-color:#B5A4D3;stop-opacity:0.6167"/>
			<stop  offset="1" style="stop-color:#8779B3"/>
		</linearGradient>
		<path style="fill:url(#SVGID_29_);" d="M351.572,35.985c5.274,10.526,8.247,22.404,8.247,34.979
			c0,43.186-35.009,78.196-78.196,78.196c-12.575,0-24.454-2.973-34.979-8.247c12.839,25.624,39.337,43.216,69.949,43.216
			c43.186,0,78.196-35.009,78.196-78.196C394.789,75.322,377.196,48.823,351.572,35.985z"/>
		<linearGradient id="SVGID_30_" gradientUnits="userSpaceOnUse" x1="212.0577" y1="59.4483" x2="109.9587" y2="84.4726">
			<stop  offset="0" style="stop-color:#F0DDFC;stop-opacity:0"/>
			<stop  offset="0.2085" style="stop-color:#DFCDF1;stop-opacity:0.2085"/>
			<stop  offset="0.6167" style="stop-color:#B5A4D3;stop-opacity:0.6167"/>
			<stop  offset="1" style="stop-color:#8779B3"/>
		</linearGradient>
		<path style="fill:url(#SVGID_30_);" d="M214.685,0c-27.923,0-51.395,19.037-58.159,44.839c4.682-0.922,9.517-1.416,14.469-1.416
			c39.118,0,71.17,30.164,74.221,68.497c17.71-10.462,29.596-29.735,29.596-51.794C274.811,26.919,247.891,0,214.685,0z"/>
		<linearGradient id="SVGID_31_" gradientUnits="userSpaceOnUse" x1="269.8479" y1="29.6016" x2="316.8936" y2="56.6278">
			<stop  offset="0" style="stop-color:#F0DDFC;stop-opacity:0"/>
			<stop  offset="0.2085" style="stop-color:#DFCDF1;stop-opacity:0.2085"/>
			<stop  offset="0.6167" style="stop-color:#B5A4D3;stop-opacity:0.6167"/>
			<stop  offset="1" style="stop-color:#8779B3"/>
		</linearGradient>
		<path style="fill:url(#SVGID_31_);" d="M309.931,28.04c-3.448-13.87-15.979-24.15-30.916-24.15
			c-17.596,0-31.86,14.264-31.86,31.86c0,8.263,3.146,15.791,8.306,21.453C268.489,40.881,287.905,29.9,309.931,28.04z"/>
		<linearGradient id="SVGID_32_" gradientUnits="userSpaceOnUse" x1="212.5503" y1="427.6059" x2="189.528" y2="476.6534">
			<stop  offset="0" style="stop-color:#18CFFC"/>
			<stop  offset="1" style="stop-color:#4A98F7"/>
		</linearGradient>
		<path style="fill:url(#SVGID_32_);" d="M204.218,383.46L255,454.101l-19.741,27.489c-4.699,6.543-14.453,6.479-19.067-0.124
			l-39.365-56.341c-2.978-4.262-4.574-9.335-4.574-14.534v-11.865c0-5.436,4.407-9.844,9.844-9.844h3.42
			c3.361,0,6.692-0.639,9.814-1.883L204.218,383.46z"/>
		<linearGradient id="SVGID_33_" gradientUnits="userSpaceOnUse" x1="289.2405" y1="422.2896" x2="319.7701" y2="450.8172">
			<stop  offset="0" style="stop-color:#18CFFC"/>
			<stop  offset="1" style="stop-color:#4A98F7"/>
		</linearGradient>
		<path style="fill:url(#SVGID_33_);" d="M305.782,383.46L255,454.101l19.741,27.489c4.699,6.543,14.453,6.479,19.066-0.124
			l39.365-56.341c2.978-4.262,4.574-9.335,4.574-14.534v-11.865c0-5.436-4.407-9.844-9.844-9.844h-3.42
			c-3.361,0-6.692-0.639-9.814-1.883L305.782,383.46z"/>
	</g>
	<g>
		<linearGradient id="SVGID_34_" gradientUnits="userSpaceOnUse" x1="255" y1="181.3333" x2="255" y2="187.3426">
			<stop  offset="0" style="stop-color:#FF7044"/>
			<stop  offset="1" style="stop-color:#F92814"/>
		</linearGradient>
		<rect x="240.103" y="177.333" style="fill:url(#SVGID_34_);" width="29.794" height="12.774"/>
		<g>
			<g>
				<g>
					<g>
						<linearGradient id="SVGID_35_" gradientUnits="userSpaceOnUse" x1="162.7173" y1="154.9561" x2="230.3335" y2="269.0881">
							<stop  offset="0" style="stop-color:#FF7044"/>
							<stop  offset="1" style="stop-color:#F92814"/>
						</linearGradient>
						<path style="fill:url(#SVGID_35_);" d="M240.71,157.923h-99.951c-2.222,0-4.022,2.04-4.022,4.558v79.532
							c0,2.517,1.801,4.558,4.022,4.558h99.951c2.222,0,4.022-2.04,4.022-4.558v-79.532
							C244.732,159.964,242.932,157.923,240.71,157.923z M233.889,232.535c0,2.064-1.476,3.736-3.297,3.736h-79.716
							c-1.821,0-3.297-1.672-3.297-3.736v-60.576c0-2.064,1.476-3.736,3.297-3.736h79.716c1.821,0,3.297,1.672,3.297,3.736V232.535z
							"/>
						<linearGradient id="SVGID_36_" gradientUnits="userSpaceOnUse" x1="232.8074" y1="244.3202" x2="146.6562" y2="158.1689">
							<stop  offset="0" style="stop-color:#FF7044"/>
							<stop  offset="1" style="stop-color:#F92814"/>
						</linearGradient>
						<path style="fill:url(#SVGID_36_);" d="M144.925,242.355h91.618c2.023,0,3.663-1.859,3.663-4.151v-71.915
							c0-2.292-1.641-4.151-3.663-4.151h-91.618c-2.023,0-3.663,1.859-3.663,4.151v71.915
							C141.262,240.497,142.903,242.355,144.925,242.355z M147.579,171.959c0-2.064,1.476-3.736,3.297-3.736h79.716
							c1.821,0,3.297,1.672,3.297,3.736v60.576c0,2.064-1.476,3.736-3.297,3.736h-79.716c-1.821,0-3.297-1.672-3.297-3.736V171.959z
							"/>
						<linearGradient id="SVGID_37_" gradientUnits="userSpaceOnUse" x1="200.5912" y1="218.5636" x2="157.0912" y2="146.5636">
							<stop  offset="0" style="stop-color:#F92814;stop-opacity:0"/>
							<stop  offset="1" style="stop-color:#C1272D"/>
						</linearGradient>
						<path style="fill:url(#SVGID_37_);" d="M244.732,242.013v-79.532c0-0.962-0.265-1.853-0.714-2.589l-11.476,9.059
							c0.816,0.68,1.347,1.772,1.347,3.008v60.576c0,2.064-1.476,3.736-3.297,3.736h-79.716c-0.889,0-1.695-0.401-2.288-1.049
							l-11.364,8.97c0.682,1.417,2.008,2.379,3.534,2.379h99.951C242.932,246.571,244.732,244.53,244.732,242.013z"/>
					</g>
				</g>
				<linearGradient id="SVGID_38_" gradientUnits="userSpaceOnUse" x1="226.9406" y1="238.4534" x2="152.8025" y2="164.3153">
					<stop  offset="0" style="stop-color:#FFFFFF;stop-opacity:0"/>
					<stop  offset="1" style="stop-color:#FFFFFF"/>
				</linearGradient>
				<path style="fill:url(#SVGID_38_);" d="M147.579,171.959c0-2.064,1.476-3.736,3.297-3.736h79.716
					c1.821,0,3.297,1.672,3.297,3.736v60.576c0,2.064-1.476,3.736-3.297,3.736h-79.716c-1.821,0-3.297-1.672-3.297-3.736V171.959z"
					/>
			</g>
			<g>
				<g>
					<g>
						<linearGradient id="SVGID_39_" gradientUnits="userSpaceOnUse" x1="291.2487" y1="154.9561" x2="358.8649" y2="269.0881">
							<stop  offset="0" style="stop-color:#FF7044"/>
							<stop  offset="1" style="stop-color:#F92814"/>
						</linearGradient>
						<path style="fill:url(#SVGID_39_);" d="M369.241,157.923H269.29c-2.222,0-4.022,2.04-4.022,4.558v79.532
							c0,2.517,1.801,4.558,4.022,4.558h99.951c2.222,0,4.022-2.04,4.022-4.558v-79.532
							C373.264,159.964,371.463,157.923,369.241,157.923z M362.421,232.535c0,2.064-1.476,3.736-3.297,3.736h-79.716
							c-1.821,0-3.297-1.672-3.297-3.736v-60.576c0-2.064,1.476-3.736,3.297-3.736h79.716c1.821,0,3.297,1.672,3.297,3.736V232.535z
							"/>
						<linearGradient id="SVGID_40_" gradientUnits="userSpaceOnUse" x1="361.3388" y1="244.3202" x2="275.1876" y2="158.1689">
							<stop  offset="0" style="stop-color:#FF7044"/>
							<stop  offset="1" style="stop-color:#F92814"/>
						</linearGradient>
						<path style="fill:url(#SVGID_40_);" d="M273.457,242.355h91.618c2.023,0,3.663-1.859,3.663-4.151v-71.915
							c0-2.292-1.641-4.151-3.663-4.151h-91.618c-2.023,0-3.663,1.859-3.663,4.151v71.915
							C269.794,240.497,271.434,242.355,273.457,242.355z M276.111,171.959c0-2.064,1.476-3.736,3.297-3.736h79.716
							c1.821,0,3.297,1.672,3.297,3.736v60.576c0,2.064-1.476,3.736-3.297,3.736h-79.716c-1.821,0-3.297-1.672-3.297-3.736V171.959z
							"/>
						<linearGradient id="SVGID_41_" gradientUnits="userSpaceOnUse" x1="329.1227" y1="218.5636" x2="285.6227" y2="146.5636">
							<stop  offset="0" style="stop-color:#F92814;stop-opacity:0"/>
							<stop  offset="1" style="stop-color:#C1272D"/>
						</linearGradient>
						<path style="fill:url(#SVGID_41_);" d="M373.264,242.013v-79.532c0-0.962-0.265-1.853-0.714-2.589l-11.476,9.059
							c0.816,0.68,1.347,1.772,1.347,3.008v60.576c0,2.064-1.476,3.736-3.297,3.736h-79.716c-0.889,0-1.695-0.401-2.288-1.049
							l-11.364,8.97c0.682,1.417,2.008,2.379,3.534,2.379h99.951C371.463,246.571,373.264,244.53,373.264,242.013z"/>
					</g>
				</g>
				<linearGradient id="SVGID_42_" gradientUnits="userSpaceOnUse" x1="355.4721" y1="238.4534" x2="281.3339" y2="164.3153">
					<stop  offset="0" style="stop-color:#FFFFFF;stop-opacity:0"/>
					<stop  offset="1" style="stop-color:#FFFFFF"/>
				</linearGradient>
				<path style="fill:url(#SVGID_42_);" d="M276.111,171.959c0-2.064,1.476-3.736,3.297-3.736h79.716
					c1.821,0,3.297,1.672,3.297,3.736v60.576c0,2.064-1.476,3.736-3.297,3.736h-79.716c-1.821,0-3.297-1.672-3.297-3.736V171.959z"
					/>
			</g>
		</g>
	</g>
	<linearGradient id="SVGID_43_" gradientUnits="userSpaceOnUse" x1="271.9951" y1="302.0064" x2="215.9951" y2="119.3397">
		<stop  offset="0" style="stop-color:#FCB37E;stop-opacity:0"/>
		<stop  offset="1" style="stop-color:#FF7044"/>
	</linearGradient>
	<path style="fill:url(#SVGID_43_);" d="M362.78,246.57v2.81c0,58.6-46.77,106.27-105.02,107.73L147.22,246.57h93.49
		c2.22,0,4.02-2.04,4.02-4.56v-51.9h20.54v51.9c0,2.52,1.8,4.56,4.02,4.56H362.78z"/>
</g>
<g>
</g>
<g>
</g>
<g>
</g>
<g>
</g>
<g>
</g>
<g>
</g>
<g>
</g>
<g>
</g>
<g>
</g>
<g>
</g>
<g>
</g>
<g>
</g>
<g>
</g>
<g>
</g>
<g>
</g>
</svg>
