<?xml version="1.0" encoding="iso-8859-1"?>
<!-- Generator: Adobe Illustrator 22.0.0, SVG Export Plug-In . SVG Version: 6.00 Build 0)  -->
<svg version="1.1" id="Capa_1" xmlns="http://www.w3.org/2000/svg" xmlns:xlink="http://www.w3.org/1999/xlink" x="0px" y="0px"
	 viewBox="0 0 510 510" style="enable-background:new 0 0 510 510;" xml:space="preserve">
<g>
	<g>
		<radialGradient id="SVGID_1_" cx="236.0317" cy="225.3589" r="233.6911" gradientUnits="userSpaceOnUse">
			<stop  offset="0" style="stop-color:#FFDA45"/>
			<stop  offset="0.509" style="stop-color:#FFD844"/>
			<stop  offset="0.6924" style="stop-color:#FFD140"/>
			<stop  offset="0.823" style="stop-color:#FFC639"/>
			<stop  offset="0.9279" style="stop-color:#FFB52F"/>
			<stop  offset="1" style="stop-color:#FFA425"/>
		</radialGradient>
		<path style="fill:url(#SVGID_1_);" d="M230.939,446.39L230.939,446.39c0-9.321,7.185-17.003,16.473-17.776
			c100.851-8.396,180.352-93.16,180.352-196.142c0-102.984-79.503-187.749-180.356-196.143c-9.286-0.773-16.469-8.453-16.469-17.771
			V0c60.007,0,116.543,22.581,159.903,63.725c48.834,46.337,75.29,111.919,72.341,179.174
			c-2.551,58.182-26.42,112.514-67.862,153.956c-39.367,39.367-90.367,62.877-145.249,67.318
			C239.746,465.009,230.939,456.751,230.939,446.39z"/>
		<linearGradient id="SVGID_2_" gradientUnits="userSpaceOnUse" x1="344.9991" y1="162.3826" x2="377.5902" y2="-148.2544">
			<stop  offset="0" style="stop-color:#FFDA45;stop-opacity:0"/>
			<stop  offset="1" style="stop-color:#FCEE21"/>
		</linearGradient>
		<path style="fill:url(#SVGID_2_);" d="M250.073,464.173c54.882-4.441,105.881-27.951,145.249-67.318
			c41.442-41.442,65.311-95.775,67.862-153.956c0.05-1.139,0.07-2.277,0.103-3.415c-1.814-61.184-27.746-119.722-72.444-162.135
			c-38.688-36.71-87.864-58.643-140.636-62.944c-7.965-0.649-15.037,4.045-17.902,10.967c2.504,6.015,8.223,10.385,15.104,10.958
			c100.853,8.394,180.356,93.159,180.356,196.143c0,2.281-0.053,4.549-0.13,6.812c0.077,2.262,0.13,4.531,0.13,6.812
			c0,102.982-79.501,187.746-180.352,196.142c-6.885,0.573-12.607,4.947-15.111,10.966
			C235.149,460.102,242.156,464.814,250.073,464.173z"/>
	</g>
	<linearGradient id="SVGID_3_" gradientUnits="userSpaceOnUse" x1="284.0882" y1="37.4189" x2="227.088" y2="12.4189">
		<stop  offset="0" style="stop-color:#FFDA45;stop-opacity:0"/>
		<stop  offset="1" style="stop-color:#B53759"/>
	</linearGradient>
	<path style="fill:url(#SVGID_3_);" d="M245.815,36.121c0.524,0.09,1.054,0.164,1.593,0.208c12.365,1.029,24.406,3.213,36.022,6.431
		L245.815,5.144V36.121z"/>
	<linearGradient id="SVGID_4_" gradientUnits="userSpaceOnUse" x1="215.2498" y1="25.83" x2="255.3102" y2="54.3475">
		<stop  offset="0" style="stop-color:#FFDA45"/>
		<stop  offset="1" style="stop-color:#FFA425"/>
	</linearGradient>
	<path style="fill:url(#SVGID_4_);" d="M255.047,62.323h-48.216V24.108C206.831,10.793,217.625,0,230.939,0h0
		c13.314,0,24.108,10.793,24.108,24.108V62.323z"/>
	
		<linearGradient id="SVGID_5_" gradientUnits="userSpaceOnUse" x1="211.7085" y1="-358.8358" x2="257.5495" y2="-326.2032" gradientTransform="matrix(1 0 0 -1 0 87.9242)">
		<stop  offset="0" style="stop-color:#FFDA45"/>
		<stop  offset="1" style="stop-color:#FFA425"/>
	</linearGradient>
	<rect x="206.831" y="401.909" style="fill:url(#SVGID_5_);" width="48.216" height="62.323"/>
	<linearGradient id="SVGID_6_" gradientUnits="userSpaceOnUse" x1="262.8006" y1="444.0898" x2="197.3005" y2="371.0898">
		<stop  offset="0" style="stop-color:#FFDA45;stop-opacity:0"/>
		<stop  offset="1" style="stop-color:#B53759"/>
	</linearGradient>
	<polygon style="fill:url(#SVGID_6_);" points="255.047,401.909 206.831,401.909 206.831,415.252 255.047,463.468 	"/>
	<g>
		<linearGradient id="SVGID_7_" gradientUnits="userSpaceOnUse" x1="141.6689" y1="143.2021" x2="365.1006" y2="366.6337">
			<stop  offset="0" style="stop-color:#18CFFC"/>
			<stop  offset="1" style="stop-color:#4A98F7"/>
		</linearGradient>
		<circle style="fill:url(#SVGID_7_);" cx="230.939" cy="232.473" r="184.345"/>
		<linearGradient id="SVGID_8_" gradientUnits="userSpaceOnUse" x1="259.1144" y1="435.4299" x2="192.7829" y2="-42.3816">
			<stop  offset="0" style="stop-color:#18CFFC;stop-opacity:0"/>
			<stop  offset="1" style="stop-color:#65E1DC"/>
		</linearGradient>
		<path style="fill:url(#SVGID_8_);" d="M360.741,135.511c-6.326-4.647-13.033-8.908-20.062-12.779
			c-3.871-7.029-8.132-13.737-12.779-20.063c-25.804-35.127-60.239-54.472-96.961-54.472c-36.723,0-71.157,19.345-96.961,54.472
			c-4.647,6.326-8.908,13.033-12.779,20.062c-7.029,3.87-13.736,8.132-20.062,12.779c-35.127,25.804-54.472,60.239-54.472,96.961
			s19.345,71.157,54.472,96.961c6.326,4.647,13.033,8.908,20.062,12.779c3.87,7.029,8.132,13.737,12.779,20.062
			c25.804,35.127,60.239,54.472,96.961,54.472c36.722,0,71.158-19.345,96.961-54.472c4.647-6.326,8.909-13.033,12.779-20.063
			c7.029-3.87,13.736-8.132,20.062-12.779c35.127-25.804,54.472-60.239,54.472-96.961S395.868,161.315,360.741,135.511z
			 M230.939,408.072c-10.12,0-20.847-15.075-29.327-40.798c9.612,1.131,19.409,1.717,29.327,1.717
			c9.919,0,19.716-0.586,29.327-1.717C251.786,392.997,241.06,408.072,230.939,408.072z M230.939,360.315
			c-10.965,0-21.694-0.742-32.108-2.149c-5.779-20.434-9.975-44.964-12.376-71.745c14.376,1.028,29.289,1.557,44.484,1.557
			c15.194,0,30.108-0.53,44.484-1.557c-2.401,26.781-6.596,51.31-12.376,71.745C252.634,359.573,241.904,360.315,230.939,360.315z
			 M230.939,56.873c10.12,0,20.847,15.075,29.327,40.798c-9.612-1.131-19.409-1.717-29.327-1.717
			c-9.919,0-19.715,0.586-29.327,1.717C210.093,71.948,220.819,56.873,230.939,56.873z M230.939,104.63
			c10.965,0,21.695,0.743,32.108,2.149c5.779,20.435,9.975,44.964,12.376,71.745c-14.376-1.028-29.289-1.557-44.484-1.557
			c-15.194,0-30.108,0.53-44.484,1.557c2.401-26.781,6.596-51.311,12.376-71.745C209.245,105.372,219.975,104.63,230.939,104.63z
			 M184.108,232.473c0-15.467,0.558-30.625,1.633-45.198c14.573-1.075,29.731-1.633,45.198-1.633
			c15.468,0,30.625,0.558,45.199,1.633c1.075,14.573,1.633,29.731,1.633,45.198s-0.558,30.625-1.633,45.198
			c-14.574,1.075-29.731,1.633-45.199,1.633c-15.467,0-30.625-0.558-45.198-1.633C184.666,263.097,184.108,247.94,184.108,232.473z
			 M176.991,276.956c-26.781-2.401-51.311-6.596-71.745-12.376c-1.407-10.413-2.149-21.143-2.149-32.108
			c0-10.965,0.743-21.694,2.149-32.108c20.434-5.779,44.964-9.975,71.745-12.376c-1.028,14.375-1.557,29.289-1.557,44.484
			C175.434,247.667,175.963,262.581,176.991,276.956z M284.888,187.989c26.781,2.401,51.31,6.597,71.745,12.376
			c1.407,10.413,2.149,21.143,2.149,32.108s-0.743,21.694-2.149,32.108c-20.435,5.779-44.964,9.975-71.745,12.376
			c1.028-14.375,1.557-29.289,1.557-44.484C286.446,217.278,285.916,202.364,284.888,187.989z M284.193,179.219
			c-2.285-26.25-6.267-50.457-11.748-70.972c22.622,4.007,43.541,11.21,61.803,20.917c9.706,18.262,16.91,39.181,20.917,61.803
			C334.649,185.486,310.443,181.504,284.193,179.219z M177.686,179.219c-26.25,2.285-50.457,6.266-70.972,11.747
			c4.007-22.622,11.21-43.541,20.917-61.803c18.262-9.706,39.181-16.91,61.803-20.916
			C183.953,128.763,179.971,152.969,177.686,179.219z M96.138,261.8c-25.723-8.48-40.798-19.207-40.798-29.327
			s15.075-20.847,40.798-29.327c-1.131,9.612-1.717,19.409-1.717,29.327S95.008,252.188,96.138,261.8z M177.686,285.725
			c2.285,26.25,6.266,50.457,11.747,70.972c-22.622-4.007-43.541-11.21-61.803-20.916c-9.706-18.262-16.91-39.181-20.917-61.803
			C127.23,279.459,151.436,283.441,177.686,285.725z M284.193,285.725c26.25-2.284,50.457-6.266,70.972-11.747
			c-4.007,22.622-11.21,43.54-20.917,61.803c-18.262,9.706-39.181,16.91-61.803,20.917
			C277.926,336.182,281.908,311.976,284.193,285.725z M365.741,203.146c25.723,8.48,40.797,19.207,40.797,29.327
			s-15.075,20.846-40.797,29.327c1.131-9.612,1.717-19.409,1.717-29.327C367.457,222.554,366.871,212.757,365.741,203.146z
			 M404.49,212.936c-8.488-7.238-21.943-13.745-40.059-19.312c-3.155-19.974-8.739-39.005-16.555-56.435
			C377.535,156.502,398.163,183.023,404.49,212.936z M326.224,115.537c-17.431-7.816-36.461-13.401-56.436-16.556
			c-5.567-18.117-12.074-31.572-19.312-40.06C280.389,65.249,306.91,85.877,326.224,115.537z M211.403,58.921
			c-7.238,8.488-13.745,21.943-19.313,40.06c-19.975,3.155-39.005,8.739-56.436,16.556C154.968,85.877,181.49,65.249,211.403,58.921
			z M114.004,137.188c-7.816,17.43-13.401,36.461-16.555,56.436c-18.117,5.568-31.572,12.074-40.06,19.313
			C63.716,183.023,84.343,156.502,114.004,137.188z M57.388,252.009c8.488,7.238,21.943,13.745,40.06,19.312
			c3.155,19.975,8.739,39.005,16.555,56.436C84.343,308.443,63.716,281.922,57.388,252.009z M135.655,349.408
			c17.43,7.816,36.461,13.401,56.436,16.556c5.568,18.117,12.074,31.572,19.313,40.06
			C181.49,399.696,154.968,379.069,135.655,349.408z M250.476,406.023c7.238-8.488,13.745-21.943,19.312-40.06
			c19.975-3.155,39.006-8.739,56.436-16.556C306.91,379.068,280.389,399.696,250.476,406.023z M347.875,327.757
			c7.816-17.43,13.401-36.461,16.555-56.435c18.117-5.567,31.571-12.074,40.059-19.312
			C398.163,281.922,377.535,308.443,347.875,327.757z"/>
		<linearGradient id="SVGID_9_" gradientUnits="userSpaceOnUse" x1="270.7395" y1="272.2726" x2="87.0693" y2="88.6025">
			<stop  offset="0" style="stop-color:#18CFFC;stop-opacity:0"/>
			<stop  offset="1" style="stop-color:#65E1DC"/>
		</linearGradient>
		<circle style="fill:url(#SVGID_9_);" cx="230.939" cy="232.473" r="164.552"/>
		<g>
			<linearGradient id="SVGID_10_" gradientUnits="userSpaceOnUse" x1="113.7875" y1="242.0708" x2="404.2402" y2="448.1599">
				<stop  offset="0" style="stop-color:#92F37F"/>
				<stop  offset="1" style="stop-color:#4AB272"/>
			</linearGradient>
			<path style="fill:url(#SVGID_10_);" d="M213.714,240.149l7.136,7.136c2.61,2.61,4.077,6.15,4.077,9.842l0,0
				c0,7.687,6.232,13.918,13.918,13.918l0,0c8.017,0,14.515,6.499,14.515,14.515v0c0,10.423-2.175,20.733-6.385,30.268
				l-25.694,58.186c-3.517,7.965-13.938,9.913-20.095,3.756l0,0c-8.974-8.974-14.015-21.145-14.015-33.836v-6.768
				c0-17.645-7.009-34.566-19.486-47.043l-0.76-0.76c-11.741-11.741-18.337-27.666-18.337-44.271v-2.426
				c0-11.518,9.337-20.856,20.856-20.856l0,0C186.048,221.812,201.972,228.408,213.714,240.149z"/>
			<linearGradient id="SVGID_11_" gradientUnits="userSpaceOnUse" x1="173.0279" y1="158.58" x2="463.4809" y2="364.6693">
				<stop  offset="0" style="stop-color:#92F37F"/>
				<stop  offset="1" style="stop-color:#4AB272"/>
			</linearGradient>
			<path style="fill:url(#SVGID_11_);" d="M167.538,59.325c-46.155,16.906-83.662,51.741-104.094,96.07
				c-2.422,5.253-3.621,10.988-3.621,16.773l0,0c0,10.775,4.28,21.108,11.899,28.727l3.768,3.768
				c16.884,16.884,39.784,26.369,63.661,26.369h0c3.567,0,6.459-2.892,6.459-6.459l0,0c0-3.567-2.892-6.459-6.459-6.459h-19.855
				c-9.157,0-16.58-7.423-16.58-16.58v0c0-9.157,7.423-16.581,16.58-16.581h15.507c18.594,0,36.427-7.386,49.575-20.535
				l23.943-23.943c5.214-5.214,12.285-8.143,19.659-8.143l0,0c10.666,0,20.393-6.103,25.033-15.707l0,0
				c5.687-11.771-2.889-25.438-15.961-25.438H206.16c-9.083,0-16.445-7.363-16.445-16.445l0,0
				C189.715,63.28,178.301,55.382,167.538,59.325z"/>
			<linearGradient id="SVGID_12_" gradientUnits="userSpaceOnUse" x1="185.7525" y1="173.7299" x2="103.4701" y2="91.4475">
				<stop  offset="0" style="stop-color:#92F37F;stop-opacity:0"/>
				<stop  offset="1" style="stop-color:#FFEE83"/>
			</linearGradient>
			<path style="fill:url(#SVGID_12_);" d="M237.053,91.188H206.16c-9.083,0-16.445-7.363-16.445-16.445
				c0-0.54-0.033-1.069-0.083-1.592C129.407,88.721,82.561,137.536,69.83,198.852c0.608,0.698,1.233,1.384,1.892,2.044l3.768,3.768
				c16.884,16.884,39.784,26.369,63.661,26.369h0c3.567,0,6.459-2.892,6.459-6.459v0c0-3.567-2.892-6.459-6.459-6.459h-19.855
				c-9.157,0-16.58-7.423-16.58-16.581s7.423-16.581,16.58-16.581h15.507c18.594,0,36.427-7.386,49.575-20.535l23.943-23.943
				c5.214-5.214,12.285-8.143,19.659-8.143c10.666,0,20.393-6.103,25.033-15.707l0,0C258.701,104.855,250.126,91.188,237.053,91.188
				z"/>
		</g>
		<g>
			<linearGradient id="SVGID_13_" gradientUnits="userSpaceOnUse" x1="331.5802" y1="248.1973" x2="461.7409" y2="271.0959">
				<stop  offset="0" style="stop-color:#92F37F"/>
				<stop  offset="1" style="stop-color:#4AB272"/>
			</linearGradient>
			<path style="fill:url(#SVGID_13_);" d="M410.993,192.753c-2.546-11.592-12.911-19.791-24.779-19.791h-25.987h-13.891
				c-23.61,0-42.75,19.14-42.75,42.75v5.201c0,20.738,16.811,37.549,37.549,37.549h0c10.544,0,19.092,8.548,19.092,19.092v49.855
				c0,12.992,16.869,18.167,24.089,7.366c15.004-22.446,25.211-48.374,29.154-76.313c1.193-8.487,1.815-17.169,1.815-25.989
				C415.285,218.834,413.803,205.545,410.993,192.753z"/>
			<linearGradient id="SVGID_14_" gradientUnits="userSpaceOnUse" x1="352.216" y1="130.899" x2="482.3773" y2="153.7977">
				<stop  offset="0" style="stop-color:#92F37F"/>
				<stop  offset="1" style="stop-color:#4AB272"/>
			</linearGradient>
			<path style="fill:url(#SVGID_14_);" d="M395.491,149.286h-55.065c-9.85,0-17.835-7.985-17.835-17.835l0,0
				c0-9.85,7.985-17.835,17.835-17.835h31.433C381.047,124.497,388.999,136.461,395.491,149.286z"/>
		</g>
		<linearGradient id="SVGID_15_" gradientUnits="userSpaceOnUse" x1="264.8334" y1="251.9915" x2="518.225" y2="-219.2815">
			<stop  offset="0" style="stop-color:#0469BC;stop-opacity:0"/>
			<stop  offset="1" style="stop-color:#0469BC"/>
		</linearGradient>
		<path style="fill:url(#SVGID_15_);" d="M313.403,67.569c12.433,24.814,19.442,52.818,19.442,82.463
			c0,101.811-82.534,184.345-184.345,184.345c-29.645,0-57.649-7.008-82.463-19.442c30.267,60.408,92.737,101.882,164.904,101.882
			c101.811,0,184.345-82.534,184.345-184.345C415.285,160.306,373.81,97.836,313.403,67.569z"/>
	</g>
	<g>
		<linearGradient id="SVGID_16_" gradientUnits="userSpaceOnUse" x1="230.9393" y1="458.3335" x2="230.9393" y2="480.8713">
			<stop  offset="0" style="stop-color:#FFDA45"/>
			<stop  offset="1" style="stop-color:#FFA425"/>
		</linearGradient>
		<path style="fill:url(#SVGID_16_);" d="M340.667,504.678H121.211c-5.878,0-10.644-4.765-10.644-10.644v-32.222
			c0-5.878,4.766-10.644,10.644-10.644h219.456c5.878,0,10.644,4.765,10.644,10.644v32.222
			C351.311,499.913,346.546,504.678,340.667,504.678z"/>
		<linearGradient id="SVGID_17_" gradientUnits="userSpaceOnUse" x1="230.9393" y1="482.2466" x2="230.9393" y2="520.6516">
			<stop  offset="0" style="stop-color:#FFDA45"/>
			<stop  offset="1" style="stop-color:#FFA425"/>
		</linearGradient>
		<path style="fill:url(#SVGID_17_);" d="M356.615,510H105.264c-5.878,0-10.644-4.765-10.644-10.644v-6.022
			c0-12.472,10.111-22.583,22.583-22.583h227.473c12.472,0,22.583,10.111,22.583,22.583v6.022
			C367.258,505.235,362.493,510,356.615,510z"/>
	</g>
</g>
<g>
</g>
<g>
</g>
<g>
</g>
<g>
</g>
<g>
</g>
<g>
</g>
<g>
</g>
<g>
</g>
<g>
</g>
<g>
</g>
<g>
</g>
<g>
</g>
<g>
</g>
<g>
</g>
<g>
</g>
</svg>
