<?xml version="1.0" encoding="iso-8859-1"?>
<!-- Generator: Adobe Illustrator 22.0.0, SVG Export Plug-In . SVG Version: 6.00 Build 0)  -->
<svg version="1.1" id="Capa_1" xmlns="http://www.w3.org/2000/svg" xmlns:xlink="http://www.w3.org/1999/xlink" x="0px" y="0px"
	 viewBox="0 0 510 510" style="enable-background:new 0 0 510 510;" xml:space="preserve">
<g>
	<linearGradient id="SVGID_1_" gradientUnits="userSpaceOnUse" x1="216.1998" y1="314.4934" x2="324.1997" y2="477.4934">
		<stop  offset="0" style="stop-color:#18CFFC"/>
		<stop  offset="1" style="stop-color:#4A98F7"/>
	</linearGradient>
	<path style="fill:url(#SVGID_1_);" d="M243.45,491.75h-1.904c-27.044,0-49.046-22.002-49.046-49.046v-20.745
		c0-1.107,0.026-2.206,0.079-3.301h-17.144c-35.259,0-63.945-28.686-63.945-63.945v-56.64h25v56.64
		c0,21.475,17.471,38.945,38.945,38.945h23.252c10.747-23.321,34.345-39.548,61.662-39.548H365.03
		c22.107,0,40.094,17.986,40.094,40.094h-25c0-8.322-6.771-15.094-15.094-15.094H260.35c-12.79,0-24.29,5.633-32.147,14.548h15.248
		c27.044,0,49.046,22.002,49.046,49.046S270.494,491.75,243.45,491.75z M217.626,418.658c-0.083,1.09-0.126,2.19-0.126,3.301
		l0.126,20.745c0,13.259,10.661,24.046,23.92,24.046h1.904c13.259,0,24.046-10.787,24.046-24.046s-10.787-24.046-24.046-24.046
		H217.626z"/>
	<g>
		<g>
			<linearGradient id="SVGID_2_" gradientUnits="userSpaceOnUse" x1="276.4826" y1="65.211" x2="331.8044" y2="120.5327">
				<stop  offset="0" style="stop-color:#F9F7FC"/>
				<stop  offset="1" style="stop-color:#F0DDFC"/>
			</linearGradient>
			<circle style="fill:url(#SVGID_2_);" cx="292.464" cy="81.193" r="42.714"/>
			<linearGradient id="SVGID_3_" gradientUnits="userSpaceOnUse" x1="296.7192" y1="85.4477" x2="258.0645" y2="46.7929">
				<stop  offset="0" style="stop-color:#FFFFFF;stop-opacity:0"/>
				<stop  offset="1" style="stop-color:#FFFFFF"/>
			</linearGradient>
			<circle style="fill:url(#SVGID_3_);" cx="292.464" cy="81.193" r="35.649"/>
			<linearGradient id="SVGID_4_" gradientUnits="userSpaceOnUse" x1="293.9476" y1="97.5629" x2="352.6604" y2="-11.6346">
				<stop  offset="0" style="stop-color:#F0DDFC;stop-opacity:0"/>
				<stop  offset="0.2085" style="stop-color:#DFCDF1;stop-opacity:0.2085"/>
				<stop  offset="0.6167" style="stop-color:#B5A4D3;stop-opacity:0.6167"/>
				<stop  offset="1" style="stop-color:#8779B3"/>
			</linearGradient>
			<path style="fill:url(#SVGID_4_);" d="M311.572,42.983c2.881,5.75,4.505,12.238,4.505,19.107
				c0,23.59-19.124,42.714-42.714,42.714c-6.869,0-13.358-1.624-19.107-4.505c7.013,13.997,21.488,23.607,38.209,23.607
				c23.59,0,42.714-19.124,42.714-42.714C335.179,64.471,325.569,49.996,311.572,42.983z"/>
		</g>
		<g>
			<linearGradient id="SVGID_5_" gradientUnits="userSpaceOnUse" x1="346.4999" y1="107.708" x2="435.1336" y2="196.3417">
				<stop  offset="0" style="stop-color:#F9F7FC"/>
				<stop  offset="1" style="stop-color:#F0DDFC"/>
			</linearGradient>
			<circle style="fill:url(#SVGID_5_);" cx="372.105" cy="133.313" r="68.435"/>
			<linearGradient id="SVGID_6_" gradientUnits="userSpaceOnUse" x1="378.922" y1="140.1302" x2="316.9912" y2="78.1994">
				<stop  offset="0" style="stop-color:#FFFFFF;stop-opacity:0"/>
				<stop  offset="1" style="stop-color:#FFFFFF"/>
			</linearGradient>
			<circle style="fill:url(#SVGID_6_);" cx="372.105" cy="133.313" r="57.115"/>
			<linearGradient id="SVGID_7_" gradientUnits="userSpaceOnUse" x1="374.4815" y1="159.5406" x2="468.5482" y2="-15.4102">
				<stop  offset="0" style="stop-color:#F0DDFC;stop-opacity:0"/>
				<stop  offset="0.2085" style="stop-color:#DFCDF1;stop-opacity:0.2085"/>
				<stop  offset="0.6167" style="stop-color:#B5A4D3;stop-opacity:0.6167"/>
				<stop  offset="1" style="stop-color:#8779B3"/>
			</linearGradient>
			<path style="fill:url(#SVGID_7_);" d="M402.718,72.096c4.616,9.212,7.217,19.608,7.217,30.613
				c0,37.795-30.639,68.435-68.435,68.435c-11.005,0-21.401-2.602-30.613-7.217c11.236,22.425,34.427,37.822,61.217,37.822
				c37.795,0,68.435-30.639,68.435-68.435C440.54,106.523,425.143,83.332,402.718,72.096z"/>
		</g>
		<g>
			<linearGradient id="SVGID_8_" gradientUnits="userSpaceOnUse" x1="160.8954" y1="49.4045" x2="263.1358" y2="151.6449">
				<stop  offset="0" style="stop-color:#F9F7FC"/>
				<stop  offset="1" style="stop-color:#F0DDFC"/>
			</linearGradient>
			<circle style="fill:url(#SVGID_8_);" cx="190.431" cy="78.94" r="78.94"/>
			<linearGradient id="SVGID_9_" gradientUnits="userSpaceOnUse" x1="198.2949" y1="86.804" x2="126.8568" y2="15.3659">
				<stop  offset="0" style="stop-color:#FFFFFF;stop-opacity:0"/>
				<stop  offset="1" style="stop-color:#FFFFFF"/>
			</linearGradient>
			<circle style="fill:url(#SVGID_9_);" cx="190.431" cy="78.94" r="65.883"/>
			<linearGradient id="SVGID_10_" gradientUnits="userSpaceOnUse" x1="193.1726" y1="109.1942" x2="301.6799" y2="-92.6142">
				<stop  offset="0" style="stop-color:#F0DDFC;stop-opacity:0"/>
				<stop  offset="0.2085" style="stop-color:#DFCDF1;stop-opacity:0.2085"/>
				<stop  offset="0.6167" style="stop-color:#B5A4D3;stop-opacity:0.6167"/>
				<stop  offset="1" style="stop-color:#8779B3"/>
			</linearGradient>
			<path style="fill:url(#SVGID_10_);" d="M225.743,8.325c5.324,10.626,8.325,22.618,8.325,35.312
				c0,43.598-35.343,78.94-78.94,78.94c-12.694,0-24.686-3.001-35.312-8.325c12.961,25.868,39.712,43.628,70.615,43.628
				c43.598,0,78.94-35.343,78.94-78.94C269.372,48.037,251.611,21.286,225.743,8.325z"/>
		</g>
		<g>
			<linearGradient id="SVGID_11_" gradientUnits="userSpaceOnUse" x1="364.8643" y1="199.4137" x2="501.6567" y2="336.206">
				<stop  offset="0" style="stop-color:#F9F7FC"/>
				<stop  offset="1" style="stop-color:#F0DDFC"/>
			</linearGradient>
			<circle style="fill:url(#SVGID_11_);" cx="404.382" cy="238.931" r="105.618"/>
			<linearGradient id="SVGID_12_" gradientUnits="userSpaceOnUse" x1="414.9029" y1="249.4522" x2="319.3224" y2="153.8717">
				<stop  offset="0" style="stop-color:#FFFFFF;stop-opacity:0"/>
				<stop  offset="1" style="stop-color:#FFFFFF"/>
			</linearGradient>
			<circle style="fill:url(#SVGID_12_);" cx="404.382" cy="238.931" r="88.147"/>
			<linearGradient id="SVGID_13_" gradientUnits="userSpaceOnUse" x1="408.0496" y1="279.4092" x2="553.2267" y2="9.4">
				<stop  offset="0" style="stop-color:#F0DDFC;stop-opacity:0"/>
				<stop  offset="0.2085" style="stop-color:#DFCDF1;stop-opacity:0.2085"/>
				<stop  offset="0.6167" style="stop-color:#B5A4D3;stop-opacity:0.6167"/>
				<stop  offset="1" style="stop-color:#8779B3"/>
			</linearGradient>
			<path style="fill:url(#SVGID_13_);" d="M451.628,144.452c7.124,14.217,11.139,30.261,11.139,47.246
				c0,58.331-47.287,105.618-105.618,105.618c-16.984,0-33.029-4.015-47.246-11.139c17.341,34.61,53.133,58.372,94.48,58.372
				c58.331,0,105.618-47.287,105.618-105.618C510,197.584,486.238,161.793,451.628,144.452z"/>
		</g>
		<g>
			<linearGradient id="SVGID_14_" gradientUnits="userSpaceOnUse" x1="218.8511" y1="167.2773" x2="385.9324" y2="334.3586">
				<stop  offset="0" style="stop-color:#F9F7FC"/>
				<stop  offset="1" style="stop-color:#F0DDFC"/>
			</linearGradient>
			<circle style="fill:url(#SVGID_14_);" cx="267.119" cy="215.545" r="129.005"/>
			<linearGradient id="SVGID_15_" gradientUnits="userSpaceOnUse" x1="279.9694" y1="228.3955" x2="163.2252" y2="111.6513">
				<stop  offset="0" style="stop-color:#FFFFFF;stop-opacity:0"/>
				<stop  offset="1" style="stop-color:#FFFFFF"/>
			</linearGradient>
			<circle style="fill:url(#SVGID_15_);" cx="267.119" cy="215.545" r="107.665"/>
			<linearGradient id="SVGID_16_" gradientUnits="userSpaceOnUse" x1="271.5985" y1="264.9857" x2="448.9213" y2="-64.8098">
				<stop  offset="0" style="stop-color:#F0DDFC;stop-opacity:0"/>
				<stop  offset="0.2085" style="stop-color:#DFCDF1;stop-opacity:0.2085"/>
				<stop  offset="0.6167" style="stop-color:#B5A4D3;stop-opacity:0.6167"/>
				<stop  offset="1" style="stop-color:#8779B3"/>
			</linearGradient>
			<path style="fill:url(#SVGID_16_);" d="M324.826,100.146c8.701,17.365,13.605,36.962,13.605,57.707
				c0,71.247-57.757,129.005-129.005,129.005c-20.745,0-40.342-4.904-57.707-13.605c21.181,42.273,64.897,71.297,115.399,71.297
				c71.247,0,129.005-57.757,129.005-129.005C396.123,165.043,367.099,121.326,324.826,100.146z"/>
		</g>
		<g>
			<linearGradient id="SVGID_17_" gradientUnits="userSpaceOnUse" x1="115.8603" y1="201.1444" x2="194.7924" y2="389.6149">
				<stop  offset="0" style="stop-color:#F9F7FC"/>
				<stop  offset="1" style="stop-color:#F0DDFC"/>
			</linearGradient>
			<circle style="fill:url(#SVGID_17_);" cx="123.991" cy="220.558" r="123.991"/>
			<linearGradient id="SVGID_18_" gradientUnits="userSpaceOnUse" x1="136.3423" y1="232.9097" x2="24.1352" y2="120.7027">
				<stop  offset="0" style="stop-color:#FFFFFF;stop-opacity:0"/>
				<stop  offset="1" style="stop-color:#FFFFFF"/>
			</linearGradient>
			<circle style="fill:url(#SVGID_18_);" cx="123.991" cy="220.558" r="103.481"/>
		</g>
	</g>
	<g>
		<g>
			<linearGradient id="SVGID_19_" gradientUnits="userSpaceOnUse" x1="360.2837" y1="405.38" x2="393.2837" y2="449.38">
				<stop  offset="0" style="stop-color:#FFDA45"/>
				<stop  offset="1" style="stop-color:#FFA425"/>
			</linearGradient>
			<path style="fill:url(#SVGID_19_);" d="M401.521,510h-17.794c-22.424,0-40.603-18.179-40.603-40.603v-41.794
				c0-22.424,18.179-40.603,40.603-40.603h17.794c22.424,0,40.603,18.179,40.603,40.603v41.794
				C442.124,491.821,423.945,510,401.521,510z"/>
			<linearGradient id="SVGID_20_" gradientUnits="userSpaceOnUse" x1="387.9571" y1="417.137" x2="419.2904" y2="465.8036">
				<stop  offset="0" style="stop-color:#FFDA45"/>
				<stop  offset="1" style="stop-color:#FFA425"/>
			</linearGradient>
			<path style="fill:url(#SVGID_20_);" d="M401.521,387h-8.897v123h8.897c22.424,0,40.603-18.178,40.603-40.603v-41.794
				C442.124,405.178,423.945,387,401.521,387z"/>
			<linearGradient id="SVGID_21_" gradientUnits="userSpaceOnUse" x1="390.4765" y1="459.9302" x2="415.1431" y2="506.5969">
				<stop  offset="0" style="stop-color:#FFDA45"/>
				<stop  offset="1" style="stop-color:#FFA425"/>
			</linearGradient>
			<path style="fill:url(#SVGID_21_);" d="M343.124,448.5v20.897c0,22.425,18.179,40.603,40.603,40.603h17.794
				c22.424,0,40.603-18.178,40.603-40.603V448.5H343.124z"/>
		</g>
		<linearGradient id="SVGID_22_" gradientUnits="userSpaceOnUse" x1="378.3201" y1="491.8047" x2="555.3201" y2="308.8047">
			<stop  offset="0" style="stop-color:#FFDA45;stop-opacity:0"/>
			<stop  offset="1" style="stop-color:#B53759"/>
		</linearGradient>
		<path style="fill:url(#SVGID_22_);" d="M418.203,390.588c1.669,4.441,2.587,9.25,2.587,14.274v41.794
			c0,22.424-18.179,40.603-40.603,40.603h-17.794c-5.948,0-11.592-1.29-16.682-3.588C351.489,499.052,366.327,510,383.727,510
			h17.794c22.424,0,40.603-18.178,40.603-40.603v-41.794C442.124,411.126,432.304,396.953,418.203,390.588z"/>
		<linearGradient id="SVGID_23_" gradientUnits="userSpaceOnUse" x1="415.2204" y1="467.4734" x2="328.779" y2="397.5208">
			<stop  offset="0" style="stop-color:#FFDA45;stop-opacity:0"/>
			<stop  offset="0.5955" style="stop-color:#FDE82C;stop-opacity:0.5955"/>
			<stop  offset="1" style="stop-color:#FCEE21"/>
		</linearGradient>
		<path style="fill:url(#SVGID_23_);" d="M408.725,394.204h-17.794c-22.424,0-40.603,18.179-40.603,40.603v41.794
			c0,9.376,3.186,18.002,8.524,24.875c6.873,5.337,15.499,8.523,24.875,8.523h17.794c22.424,0,40.603-18.178,40.603-40.603v-41.794
			c0-9.376-3.186-18.002-8.524-24.875C426.727,397.39,418.101,394.204,408.725,394.204z"/>
	</g>
	<linearGradient id="SVGID_24_" gradientUnits="userSpaceOnUse" x1="208.7801" y1="435.3093" x2="199.7801" y2="394.5593">
		<stop  offset="0" style="stop-color:#0469BC;stop-opacity:0"/>
		<stop  offset="1" style="stop-color:#0469BC"/>
	</linearGradient>
	<polygon style="fill:url(#SVGID_24_);" points="217.626,418.658 192.579,418.658 217.626,443.142 	"/>
	<linearGradient id="SVGID_25_" gradientUnits="userSpaceOnUse" x1="231.6061" y1="375.8159" x2="204.3561" y2="413.0659">
		<stop  offset="0" style="stop-color:#0469BC;stop-opacity:0"/>
		<stop  offset="1" style="stop-color:#0469BC"/>
	</linearGradient>
	<path style="fill:url(#SVGID_25_);" d="M249.75,380.453v-25.508c-22.721,3.58-41.734,18.47-51.063,38.713h29.515
		C233.812,387.294,241.284,382.616,249.75,380.453z"/>
	<linearGradient id="SVGID_26_" gradientUnits="userSpaceOnUse" x1="123.9907" y1="337.4971" x2="123.9907" y2="296.9755">
		<stop  offset="0" style="stop-color:#18CFFC"/>
		<stop  offset="1" style="stop-color:#FFFFFF;stop-opacity:0"/>
	</linearGradient>
	<path style="fill:url(#SVGID_26_);" d="M111.491,344.925c4.111,0.412,8.281,0.625,12.5,0.625c4.219,0,8.389-0.213,12.5-0.625
		v-46.851h-25V344.925z"/>
	<linearGradient id="SVGID_27_" gradientUnits="userSpaceOnUse" x1="123.9907" y1="274.5" x2="123.9907" y2="368.6077">
		<stop  offset="0" style="stop-color:#F0DDFC;stop-opacity:0"/>
		<stop  offset="0.2085" style="stop-color:#DFCDF1;stop-opacity:0.2085"/>
		<stop  offset="0.6167" style="stop-color:#B5A4D3;stop-opacity:0.6167"/>
		<stop  offset="1" style="stop-color:#8779B3"/>
	</linearGradient>
	<circle style="fill:url(#SVGID_27_);" cx="123.991" cy="262.281" r="44.812"/>
</g>
<g>
</g>
<g>
</g>
<g>
</g>
<g>
</g>
<g>
</g>
<g>
</g>
<g>
</g>
<g>
</g>
<g>
</g>
<g>
</g>
<g>
</g>
<g>
</g>
<g>
</g>
<g>
</g>
<g>
</g>
</svg>
