<?xml version="1.0" encoding="iso-8859-1"?>
<!-- Generator: Adobe Illustrator 22.0.0, SVG Export Plug-In . SVG Version: 6.00 Build 0)  -->
<svg version="1.1" id="Capa_1" xmlns="http://www.w3.org/2000/svg" xmlns:xlink="http://www.w3.org/1999/xlink" x="0px" y="0px"
	 viewBox="0 0 510 510" style="enable-background:new 0 0 510 510;" xml:space="preserve">
<g>
	<g>
		<g>
			<g>
				<linearGradient id="SVGID_1_" gradientUnits="userSpaceOnUse" x1="206.8953" y1="119.661" x2="384.7108" y2="569.5193">
					<stop  offset="0" style="stop-color:#F9F7FC"/>
					<stop  offset="1" style="stop-color:#F0DDFC"/>
				</linearGradient>
				<path style="fill:url(#SVGID_1_);" d="M463.946,0H16.495C7.386,0,0,7.386,0,16.495v374.951c0,9.109,7.386,16.495,16.495,16.495
					h447.451c9.109,0,16.495-7.386,16.495-16.495V16.495C480.441,7.386,473.055,0,463.946,0z M398.625,140.732
					c-4.258,4.597-10.344,7.47-17.098,7.47s-12.84-2.873-17.098-7.47c-3.862-4.155-6.217-9.731-6.217-15.845
					c0-12.878,10.438-23.316,23.316-23.316s23.316,10.438,23.316,23.316C404.842,131,402.487,136.577,398.625,140.732z
					 M75.599,124.886c0-12.878,10.438-23.316,23.316-23.316s23.316,10.438,23.316,23.316c0,6.114-2.355,11.691-6.217,15.845
					c-4.258,4.597-10.344,7.47-17.098,7.47s-12.84-2.873-17.098-7.47C77.954,136.577,75.599,131,75.599,124.886z M216.905,124.886
					c0-12.878,10.438-23.316,23.316-23.316s23.316,10.438,23.316,23.316c0,6.114-2.355,11.691-6.217,15.845
					c-4.258,4.597-10.344,7.47-17.098,7.47c-6.754,0-12.84-2.873-17.098-7.47C219.26,136.577,216.905,131,216.905,124.886z
					 M404.842,50.088c0,12.878-10.438,23.316-23.316,23.316s-23.316-10.438-23.316-23.316c0-12.878,10.438-23.316,23.316-23.316
					S404.842,37.211,404.842,50.088z M263.536,50.088c0,12.878-10.438,23.316-23.316,23.316s-23.316-10.438-23.316-23.316
					c0-12.878,10.438-23.316,23.316-23.316S263.536,37.211,263.536,50.088z M98.914,26.773c12.878,0,23.316,10.438,23.316,23.316
					c0,12.878-10.438,23.316-23.316,23.316S75.599,62.966,75.599,50.088C75.599,37.211,86.037,26.773,98.914,26.773z"/>
			</g>
		</g>
		<g>
			<g>
				<linearGradient id="SVGID_2_" gradientUnits="userSpaceOnUse" x1="109.6972" y1="197.4445" x2="-3.3478" y2="191.7923">
					<stop  offset="0" style="stop-color:#FFFFFF;stop-opacity:0"/>
					<stop  offset="1" style="stop-color:#FFFFFF"/>
				</linearGradient>
				<path style="fill:url(#SVGID_2_);" d="M455.364,12.708H25.077c-8.648,0-15.657,7.009-15.657,15.657v351.212
					c0,8.648,7.009,15.657,15.657,15.657h430.287c8.648,0,15.657-7.009,15.657-15.657V28.365
					C471.02,19.717,464.012,12.708,455.364,12.708z M98.914,148.202c-6.754,0-12.84-2.873-17.098-7.47
					c-3.862-4.155-6.217-9.731-6.217-15.845c0-12.878,10.438-23.316,23.316-23.316s23.316,10.438,23.316,23.316
					c0,6.114-2.355,11.691-6.217,15.845C111.754,145.329,105.669,148.202,98.914,148.202z M240.22,148.202
					c-6.754,0-12.84-2.873-17.098-7.47c-3.862-4.155-6.217-9.731-6.217-15.845c0-12.878,10.438-23.316,23.316-23.316
					s23.316,10.438,23.316,23.316c0,6.114-2.355,11.691-6.217,15.845C253.06,145.329,246.975,148.202,240.22,148.202z
					 M381.527,148.202c-6.754,0-12.84-2.873-17.098-7.47c-3.862-4.155-6.217-9.731-6.217-15.845
					c0-12.878,10.438-23.316,23.316-23.316s23.316,10.438,23.316,23.316c0,6.114-2.355,11.691-6.217,15.845
					C394.367,145.329,388.281,148.202,381.527,148.202z M381.527,26.773c12.878,0,23.316,10.438,23.316,23.316
					c0,12.878-10.438,23.316-23.316,23.316s-23.316-10.438-23.316-23.316C358.211,37.211,368.649,26.773,381.527,26.773z
					 M240.22,26.773c12.878,0,23.316,10.438,23.316,23.316c0,12.878-10.438,23.316-23.316,23.316s-23.316-10.438-23.316-23.316
					C216.905,37.211,227.343,26.773,240.22,26.773z M98.914,26.773c12.878,0,23.316,10.438,23.316,23.316
					c0,12.878-10.438,23.316-23.316,23.316S75.599,62.966,75.599,50.088C75.599,37.211,86.037,26.773,98.914,26.773z"/>
			</g>
		</g>
		<linearGradient id="SVGID_3_" gradientUnits="userSpaceOnUse" x1="240.2204" y1="127.6406" x2="240.2204" y2="72.2005">
			<stop  offset="0" style="stop-color:#F0DDFC;stop-opacity:0"/>
			<stop  offset="0.2085" style="stop-color:#DFCDF1;stop-opacity:0.2085"/>
			<stop  offset="0.6167" style="stop-color:#B5A4D3;stop-opacity:0.6167"/>
			<stop  offset="1" style="stop-color:#8779B3"/>
		</linearGradient>
		<path style="fill:url(#SVGID_3_);" d="M480.441,85.085v55.646h-81.816c3.862-4.155,6.217-9.731,6.217-15.845
			c0-12.878-10.438-23.316-23.316-23.316s-23.316,10.438-23.316,23.316c0,6.114,2.355,11.691,6.217,15.845h-107.11
			c3.862-4.155,6.217-9.731,6.217-15.845c0-12.878-10.438-23.316-23.316-23.316s-23.316,10.438-23.316,23.316
			c0,6.114,2.355,11.691,6.217,15.845h-107.11c3.862-4.155,6.217-9.731,6.217-15.845c0-12.878-10.438-23.316-23.316-23.316
			s-23.316,10.438-23.316,23.316c0,6.114,2.355,11.691,6.217,15.845H0V85.085H480.441z"/>
		<linearGradient id="SVGID_4_" gradientUnits="userSpaceOnUse" x1="150.0134" y1="137.0694" x2="124.5783" y2="79.6049">
			<stop  offset="0" style="stop-color:#F0DDFC;stop-opacity:0"/>
			<stop  offset="0.2085" style="stop-color:#DFCDF1;stop-opacity:0.2085"/>
			<stop  offset="0.6167" style="stop-color:#B5A4D3;stop-opacity:0.6167"/>
			<stop  offset="1" style="stop-color:#8779B3"/>
		</linearGradient>
		<path style="fill:url(#SVGID_4_);" d="M116.399,140.298c3.636-4.107,5.831-9.505,5.831-15.412c0-7.112-3.184-13.481-8.205-17.748
			V67.836l17.249,17.249l55.213,55.213H116.399z"/>
		<linearGradient id="SVGID_5_" gradientUnits="userSpaceOnUse" x1="285.4477" y1="125.7884" x2="256.7155" y2="69.737">
			<stop  offset="0" style="stop-color:#F0DDFC;stop-opacity:0"/>
			<stop  offset="0.2085" style="stop-color:#DFCDF1;stop-opacity:0.2085"/>
			<stop  offset="0.6167" style="stop-color:#B5A4D3;stop-opacity:0.6167"/>
			<stop  offset="1" style="stop-color:#8779B3"/>
		</linearGradient>
		<path style="fill:url(#SVGID_5_);" d="M257.842,140.298c3.636-4.107,5.831-9.505,5.831-15.412c0-7.112-3.184-13.481-8.205-17.748
			V67.836l17.249,17.249l55.213,55.213H257.842z"/>
		<linearGradient id="SVGID_6_" gradientUnits="userSpaceOnUse" x1="430.1508" y1="132.6139" x2="398.1214" y2="73.7363">
			<stop  offset="0" style="stop-color:#F0DDFC;stop-opacity:0"/>
			<stop  offset="0.2085" style="stop-color:#DFCDF1;stop-opacity:0.2085"/>
			<stop  offset="0.6167" style="stop-color:#B5A4D3;stop-opacity:0.6167"/>
			<stop  offset="1" style="stop-color:#8779B3"/>
		</linearGradient>
		<path style="fill:url(#SVGID_6_);" d="M399.287,140.298c3.636-4.107,5.831-9.505,5.831-15.412c0-7.112-3.184-13.481-8.205-17.748
			V67.836l17.249,17.249l55.213,55.213H399.287z"/>
		<g>
			<linearGradient id="SVGID_7_" gradientUnits="userSpaceOnUse" x1="240.2204" y1="25.297" x2="240.2204" y2="101.1714">
				<stop  offset="0" style="stop-color:#FF7044"/>
				<stop  offset="1" style="stop-color:#F92814"/>
			</linearGradient>
			<path style="fill:url(#SVGID_7_);" d="M463.946,0H16.495C7.386,0,0,7.386,0,16.495v68.59h480.441v-68.59
				C480.441,7.386,473.055,0,463.946,0z M98.914,73.404c-12.878,0-23.316-10.438-23.316-23.316
				c0-12.878,10.438-23.316,23.316-23.316s23.316,10.438,23.316,23.316C122.23,62.966,111.792,73.404,98.914,73.404z M240.22,73.404
				c-12.878,0-23.316-10.438-23.316-23.316c0-12.878,10.438-23.316,23.316-23.316s23.316,10.438,23.316,23.316
				C263.536,62.966,253.098,73.404,240.22,73.404z M381.527,73.404c-12.878,0-23.316-10.438-23.316-23.316
				c0-12.878,10.438-23.316,23.316-23.316s23.316,10.438,23.316,23.316C404.842,62.966,394.404,73.404,381.527,73.404z"/>
			<linearGradient id="SVGID_8_" gradientUnits="userSpaceOnUse" x1="258.8997" y1="105.8205" x2="163.2183" y2="-152.8736">
				<stop  offset="0" style="stop-color:#FF7044;stop-opacity:0"/>
				<stop  offset="1" style="stop-color:#FFA425"/>
			</linearGradient>
			<path style="fill:url(#SVGID_8_);" d="M455.364,12.708H25.077c-8.648,0-15.657,7.009-15.657,15.657v56.72h461.6v-56.72
				C471.02,19.717,464.012,12.708,455.364,12.708z M98.914,73.404c-12.878,0-23.316-10.438-23.316-23.316
				c0-12.878,10.438-23.316,23.316-23.316s23.316,10.438,23.316,23.316C122.23,62.966,111.792,73.404,98.914,73.404z M240.22,73.404
				c-12.878,0-23.316-10.438-23.316-23.316c0-12.878,10.438-23.316,23.316-23.316s23.316,10.438,23.316,23.316
				C263.536,62.966,253.098,73.404,240.22,73.404z M381.527,73.404c-12.878,0-23.316-10.438-23.316-23.316
				c0-12.878,10.438-23.316,23.316-23.316s23.316,10.438,23.316,23.316C404.842,62.966,394.404,73.404,381.527,73.404z"/>
		</g>
		<linearGradient id="SVGID_9_" gradientUnits="userSpaceOnUse" x1="83.5276" y1="85.0806" x2="114.022" y2="85.0806">
			<stop  offset="0" style="stop-color:#FFDA45"/>
			<stop  offset="1" style="stop-color:#FFA425"/>
		</linearGradient>
		<path style="fill:url(#SVGID_9_);" d="M98.775,124.886L98.775,124.886c-8.421,0-15.247-6.826-15.247-15.247V60.522
			c0-8.421,6.826-15.247,15.247-15.247h0c8.421,0,15.247,6.826,15.247,15.247v49.117C114.022,118.06,107.196,124.886,98.775,124.886
			z"/>
		<linearGradient id="SVGID_10_" gradientUnits="userSpaceOnUse" x1="224.9732" y1="85.0806" x2="255.4676" y2="85.0806">
			<stop  offset="0" style="stop-color:#FFDA45"/>
			<stop  offset="1" style="stop-color:#FFA425"/>
		</linearGradient>
		<path style="fill:url(#SVGID_10_);" d="M240.22,124.886L240.22,124.886c-8.421,0-15.247-6.826-15.247-15.247V60.522
			c0-8.421,6.826-15.247,15.247-15.247h0c8.421,0,15.247,6.826,15.247,15.247v49.117C255.468,118.06,248.641,124.886,240.22,124.886
			z"/>
		<linearGradient id="SVGID_11_" gradientUnits="userSpaceOnUse" x1="366.4188" y1="85.0806" x2="396.9132" y2="85.0806">
			<stop  offset="0" style="stop-color:#FFDA45"/>
			<stop  offset="1" style="stop-color:#FFA425"/>
		</linearGradient>
		<path style="fill:url(#SVGID_11_);" d="M381.666,124.886L381.666,124.886c-8.421,0-15.247-6.826-15.247-15.247V60.522
			c0-8.421,6.826-15.247,15.247-15.247h0c8.421,0,15.247,6.826,15.247,15.247v49.117
			C396.913,118.06,390.087,124.886,381.666,124.886z"/>
		<linearGradient id="SVGID_12_" gradientUnits="userSpaceOnUse" x1="122.649" y1="113.5348" x2="122.649" y2="60.1409">
			<stop  offset="0" style="stop-color:#F92814;stop-opacity:0"/>
			<stop  offset="1" style="stop-color:#C1272D"/>
		</linearGradient>
		<polygon style="fill:url(#SVGID_12_);" points="131.273,85.085 114.025,85.085 114.025,67.836 		"/>
		<linearGradient id="SVGID_13_" gradientUnits="userSpaceOnUse" x1="264.0964" y1="113.5348" x2="264.0964" y2="60.1409">
			<stop  offset="0" style="stop-color:#F92814;stop-opacity:0"/>
			<stop  offset="1" style="stop-color:#C1272D"/>
		</linearGradient>
		<polygon style="fill:url(#SVGID_13_);" points="272.721,85.085 255.472,85.085 255.472,67.836 		"/>
		<linearGradient id="SVGID_14_" gradientUnits="userSpaceOnUse" x1="405.5345" y1="113.5348" x2="405.5345" y2="60.1409">
			<stop  offset="0" style="stop-color:#F92814;stop-opacity:0"/>
			<stop  offset="1" style="stop-color:#C1272D"/>
		</linearGradient>
		<polygon style="fill:url(#SVGID_14_);" points="414.159,85.085 396.91,85.085 396.91,67.836 		"/>
		<g>
			<g>
				<path style="fill:#BEC3D2;" d="M119.369,369.676H52.423c-2.315,0-4.191-1.877-4.191-4.191v-39.542
					c0-2.315,1.877-4.191,4.191-4.191h66.945c2.315,0,4.191,1.877,4.191,4.191v39.542
					C123.56,367.799,121.684,369.676,119.369,369.676z"/>
				<path style="fill:#BEC3D2;" d="M222.252,369.676h-66.945c-2.315,0-4.191-1.877-4.191-4.191v-39.542
					c0-2.315,1.877-4.191,4.191-4.191h66.945c2.315,0,4.191,1.877,4.191,4.191v39.542
					C226.443,367.799,224.566,369.676,222.252,369.676z"/>
				<rect x="253.998" y="321.751" style="fill:#BEC3D2;" width="75.328" height="47.925"/>
				<rect x="356.881" y="321.751" style="fill:#BEC3D2;" width="75.328" height="47.925"/>
			</g>
			<g>
				<path style="fill:#BEC3D2;" d="M119.369,298.172H52.423c-2.315,0-4.191-1.877-4.191-4.191v-39.542
					c0-2.315,1.877-4.191,4.191-4.191h66.945c2.315,0,4.191,1.877,4.191,4.191v39.542
					C123.56,296.295,121.684,298.172,119.369,298.172z"/>
				<path style="fill:#BEC3D2;" d="M222.252,298.172h-66.945c-2.315,0-4.191-1.877-4.191-4.191v-39.542
					c0-2.315,1.877-4.191,4.191-4.191h66.945c2.315,0,4.191,1.877,4.191,4.191v39.542
					C226.443,296.295,224.566,298.172,222.252,298.172z"/>
				<path style="fill:#BEC3D2;" d="M325.135,298.172h-66.945c-2.315,0-4.191-1.877-4.191-4.191v-39.542
					c0-2.315,1.877-4.191,4.191-4.191h66.945c2.315,0,4.191,1.877,4.191,4.191v39.542
					C329.326,296.295,327.449,298.172,325.135,298.172z"/>
				<rect x="356.881" y="250.247" style="fill:#BEC3D2;" width="75.328" height="47.925"/>
			</g>
			<g>
				<path style="fill:#BEC3D2;" d="M222.252,226.668h-66.945c-2.315,0-4.191-1.877-4.191-4.191v-39.542
					c0-2.315,1.877-4.191,4.191-4.191h66.945c2.315,0,4.191,1.877,4.191,4.191v39.542
					C226.443,224.792,224.566,226.668,222.252,226.668z"/>
				<path style="fill:#BEC3D2;" d="M325.135,226.668h-66.945c-2.315,0-4.191-1.877-4.191-4.191v-39.542
					c0-2.315,1.877-4.191,4.191-4.191h66.945c2.315,0,4.191,1.877,4.191,4.191v39.542
					C329.326,224.792,327.449,226.668,325.135,226.668z"/>
				<path style="fill:#BEC3D2;" d="M428.017,226.668h-66.945c-2.315,0-4.191-1.877-4.191-4.191v-39.542
					c0-2.315,1.877-4.191,4.191-4.191h66.945c2.315,0,4.191,1.877,4.191,4.191v39.542
					C432.209,224.792,430.332,226.668,428.017,226.668z"/>
			</g>
		</g>
	</g>
	<g>
		<linearGradient id="SVGID_15_" gradientUnits="userSpaceOnUse" x1="313.8117" y1="313.8117" x2="503.5129" y2="503.5129">
			<stop  offset="0" style="stop-color:#18CFFC"/>
			<stop  offset="1" style="stop-color:#4A98F7"/>
		</linearGradient>
		<circle style="fill:url(#SVGID_15_);" cx="364.691" cy="364.691" r="145.309"/>
		<linearGradient id="SVGID_16_" gradientUnits="userSpaceOnUse" x1="358.3938" y1="349.0229" x2="308.1272" y2="223.9547">
			<stop  offset="0" style="stop-color:#18CFFC;stop-opacity:0"/>
			<stop  offset="1" style="stop-color:#65E1DC"/>
		</linearGradient>
		<circle style="fill:url(#SVGID_16_);" cx="364.691" cy="364.691" r="136.89"/>
		
			<linearGradient id="SVGID_17_" gradientUnits="userSpaceOnUse" x1="-2023.2205" y1="-6279.2202" x2="-1872.1088" y2="-6128.1089" gradientTransform="matrix(-1 0 0 -1 -1618 -5874)">
			<stop  offset="0" style="stop-color:#18CFFC"/>
			<stop  offset="1" style="stop-color:#4A98F7"/>
		</linearGradient>
		<circle style="fill:url(#SVGID_17_);" cx="364.691" cy="364.691" r="115.75"/>
		<linearGradient id="SVGID_18_" gradientUnits="userSpaceOnUse" x1="390.4388" y1="416.3288" x2="271.275" y2="72.8558">
			<stop  offset="0" style="stop-color:#0469BC;stop-opacity:0"/>
			<stop  offset="1" style="stop-color:#0469BC"/>
		</linearGradient>
		<path style="fill:url(#SVGID_18_);" d="M364.691,510C444.943,510,510,444.943,510,364.691c0-39.962-16.135-76.153-42.241-102.423
			l-205.49,205.49C288.538,493.865,324.729,510,364.691,510z"/>
		<linearGradient id="SVGID_19_" gradientUnits="userSpaceOnUse" x1="328.7139" y1="328.7139" x2="462.8529" y2="462.8529">
			<stop  offset="0" style="stop-color:#7E8595"/>
			<stop  offset="1" style="stop-color:#555A66"/>
		</linearGradient>
		<circle style="fill:url(#SVGID_19_);" cx="364.691" cy="364.691" r="102.749"/>
		<linearGradient id="SVGID_20_" gradientUnits="userSpaceOnUse" x1="378.522" y1="389.0914" x2="322.1677" y2="193.3741">
			<stop  offset="0" style="stop-color:#555A66;stop-opacity:0"/>
			<stop  offset="1" style="stop-color:#555A66"/>
		</linearGradient>
		<path style="fill:url(#SVGID_20_);" d="M364.691,467.44c56.747,0,102.749-46.002,102.749-102.749
			c0-28.209-11.371-53.76-29.776-72.328L292.363,437.664C310.931,456.069,336.482,467.44,364.691,467.44z"/>
		<linearGradient id="SVGID_21_" gradientUnits="userSpaceOnUse" x1="433.4068" y1="409.2471" x2="389.211" y2="374.7292">
			<stop  offset="0" style="stop-color:#555A66;stop-opacity:0"/>
			<stop  offset="1" style="stop-color:#555A66"/>
		</linearGradient>
		<path style="fill:url(#SVGID_21_);" d="M506.997,394.208l-85.911-85.911c-2.633-2.633-6.902-2.633-9.535,0l-41.987,41.987
			c-1.53-0.517-3.168-0.802-4.873-0.802c-8.401,0-15.21,6.81-15.21,15.21c0,4.693,2.132,8.881,5.473,11.67
			c0.595,0.718,2.638,2.73,2.995,3.083v44.496c0,2.367,1.223,4.446,3.068,5.649l66.269,66.269
			C467.651,476.562,497.717,439.184,506.997,394.208z"/>
		
			<linearGradient id="SVGID_22_" gradientUnits="userSpaceOnUse" x1="7.5098" y1="379.665" x2="20.4495" y2="379.665" gradientTransform="matrix(0.7071 0.7071 -0.7071 0.7071 652.2402 58.9179)">
			<stop  offset="0" style="stop-color:#FF7044"/>
			<stop  offset="1" style="stop-color:#F92814"/>
		</linearGradient>
		<path style="fill:url(#SVGID_22_);" d="M364.691,364.691L364.691,364.691c-2.633-2.633-2.633-6.902,0-9.535l46.859-46.859
			c2.633-2.633,6.902-2.633,9.535,0l0,0c2.633,2.633,2.633,6.902,0,9.535l-46.859,46.859
			C371.593,367.324,367.324,367.324,364.691,364.691z"/>
		
			<linearGradient id="SVGID_23_" gradientUnits="userSpaceOnUse" x1="734.2842" y1="924.9034" x2="734.2842" y2="938.7772" gradientTransform="matrix(0 -1 1 0 -561.7826 1135.3429)">
			<stop  offset="0" style="stop-color:#FF7044"/>
			<stop  offset="1" style="stop-color:#F92814"/>
		</linearGradient>
		<path style="fill:url(#SVGID_23_);" d="M371.434,378.176v45.765c0,3.724-3.019,6.743-6.743,6.743l0,0
			c-3.724,0-6.743-3.019-6.743-6.743v-45.765c0-3.724,3.019-6.743,6.743-6.743l0,0C368.415,371.434,371.434,374.452,371.434,378.176
			z"/>
		<g>
			<linearGradient id="SVGID_24_" gradientUnits="userSpaceOnUse" x1="359.0001" y1="359.0001" x2="378.7" y2="378.7">
				<stop  offset="0" style="stop-color:#FFDA45"/>
				<stop  offset="1" style="stop-color:#FFA425"/>
			</linearGradient>
			<circle style="fill:url(#SVGID_24_);" cx="364.691" cy="364.691" r="15.21"/>
			<linearGradient id="SVGID_25_" gradientUnits="userSpaceOnUse" x1="366.2063" y1="366.2063" x2="352.4414" y2="352.4414">
				<stop  offset="0" style="stop-color:#FFDA45;stop-opacity:0"/>
				<stop  offset="1" style="stop-color:#FCEE21"/>
			</linearGradient>
			<circle style="fill:url(#SVGID_25_);" cx="364.691" cy="364.691" r="12.694"/>
			<linearGradient id="SVGID_26_" gradientUnits="userSpaceOnUse" x1="365.2194" y1="370.5205" x2="386.1269" y2="331.6354">
				<stop  offset="0" style="stop-color:#FFDA45;stop-opacity:0"/>
				<stop  offset="1" style="stop-color:#B53759"/>
			</linearGradient>
			<path style="fill:url(#SVGID_26_);" d="M371.495,351.085c1.026,2.047,1.604,4.358,1.604,6.804c0,8.401-6.81,15.211-15.21,15.211
				c-2.446,0-4.757-0.578-6.804-1.604c2.497,4.984,7.652,8.406,13.606,8.406c8.401,0,15.21-6.81,15.21-15.21
				C379.902,358.737,376.479,353.582,371.495,351.085z"/>
		</g>
		<linearGradient id="SVGID_27_" gradientUnits="userSpaceOnUse" x1="307.2309" y1="390.2425" x2="269.6363" y2="328.1678">
			<stop  offset="0" style="stop-color:#555A66;stop-opacity:0"/>
			<stop  offset="1" style="stop-color:#555A66"/>
		</linearGradient>
		<path style="fill:url(#SVGID_27_);" d="M297.087,360.323c-1.237-1.451-3.075-2.374-5.131-2.374h-14.039
			c-3.724,0-6.742,3.019-6.742,6.743c0,2.02,0.893,3.828,2.3,5.063l34.422,34.758c1.237,1.451,3.075,2.374,5.131,2.374h14.039
			c3.724,0,6.743-3.019,6.743-6.743c0-2.02-0.893-3.828-2.3-5.063L297.087,360.323z"/>
		<linearGradient id="SVGID_28_" gradientUnits="userSpaceOnUse" x1="467.8918" y1="386.8361" x2="429.9997" y2="358.417">
			<stop  offset="0" style="stop-color:#555A66;stop-opacity:0"/>
			<stop  offset="1" style="stop-color:#555A66"/>
		</linearGradient>
		<path style="fill:url(#SVGID_28_);" d="M456.595,360.323c-1.237-1.451-3.075-2.374-5.131-2.374h-14.039
			c-3.724,0-6.742,3.019-6.742,6.743c0,2.02,0.893,3.828,2.3,5.063l34.422,34.758c1.237,1.451,3.075,2.374,5.13,2.374h14.039
			c3.724,0,6.743-3.019,6.743-6.743c0-2.02-0.893-3.828-2.3-5.063L456.595,360.323z"/>
		<linearGradient id="SVGID_29_" gradientUnits="userSpaceOnUse" x1="284.9366" y1="363.1208" x2="284.9366" y2="376.9947">
			<stop  offset="0" style="stop-color:#F9F7FC"/>
			<stop  offset="1" style="stop-color:#F0DDFC"/>
		</linearGradient>
		<path style="fill:url(#SVGID_29_);" d="M291.956,371.434h-14.039c-3.724,0-6.743-3.019-6.743-6.743l0,0
			c0-3.724,3.019-6.743,6.743-6.743h14.039c3.724,0,6.743,3.019,6.743,6.743l0,0C298.698,368.415,295.68,371.434,291.956,371.434z"
			/>
		<linearGradient id="SVGID_30_" gradientUnits="userSpaceOnUse" x1="444.4455" y1="363.1208" x2="444.4455" y2="376.9947">
			<stop  offset="0" style="stop-color:#F9F7FC"/>
			<stop  offset="1" style="stop-color:#F0DDFC"/>
		</linearGradient>
		<path style="fill:url(#SVGID_30_);" d="M451.465,371.434h-14.039c-3.724,0-6.742-3.019-6.742-6.743l0,0
			c0-3.724,3.019-6.743,6.742-6.743h14.039c3.724,0,6.742,3.019,6.742,6.743l0,0C458.207,368.415,455.189,371.434,451.465,371.434z"
			/>
		
			<linearGradient id="SVGID_31_" gradientUnits="userSpaceOnUse" x1="-250.0521" y1="945.2711" x2="-287.9443" y2="916.852" gradientTransform="matrix(0 1 1 0 -558.4351 558.4351)">
			<stop  offset="0" style="stop-color:#555A66;stop-opacity:0"/>
			<stop  offset="1" style="stop-color:#555A66"/>
		</linearGradient>
		<path style="fill:url(#SVGID_31_);" d="M360.323,297.087c-1.451-1.237-2.374-3.075-2.374-5.131v-14.039
			c0-3.724,3.019-6.742,6.743-6.742c2.02,0,3.828,0.893,5.063,2.3l34.758,34.422c1.451,1.237,2.374,3.075,2.374,5.131v14.039
			c0,3.724-3.019,6.743-6.743,6.743c-2.02,0-3.828-0.893-5.063-2.3L360.323,297.087z"/>
		
			<linearGradient id="SVGID_32_" gradientUnits="userSpaceOnUse" x1="-90.5432" y1="945.2711" x2="-128.4353" y2="916.852" gradientTransform="matrix(0 1 1 0 -558.4351 558.4351)">
			<stop  offset="0" style="stop-color:#555A66;stop-opacity:0"/>
			<stop  offset="1" style="stop-color:#555A66"/>
		</linearGradient>
		<path style="fill:url(#SVGID_32_);" d="M360.323,456.595c-1.451-1.237-2.374-3.075-2.374-5.131v-14.039
			c0-3.724,3.019-6.742,6.743-6.742c2.02,0,3.828,0.893,5.063,2.3l34.758,34.422c1.451,1.237,2.374,3.075,2.374,5.13v14.039
			c0,3.724-3.019,6.743-6.743,6.743c-2.02,0-3.828-0.893-5.063-2.3L360.323,456.595z"/>
		
			<linearGradient id="SVGID_33_" gradientUnits="userSpaceOnUse" x1="-276.8459" y1="924.9034" x2="-276.8459" y2="938.7772" gradientTransform="matrix(4.489700e-11 1 1 -4.489700e-11 -561.7826 561.7826)">
			<stop  offset="0" style="stop-color:#F9F7FC"/>
			<stop  offset="1" style="stop-color:#F0DDFC"/>
		</linearGradient>
		<path style="fill:url(#SVGID_33_);" d="M371.434,291.956v-14.039c0-3.724-3.019-6.743-6.743-6.743l0,0
			c-3.724,0-6.743,3.019-6.743,6.743v14.039c0,3.724,3.019,6.743,6.743,6.743l0,0C368.415,298.699,371.434,295.68,371.434,291.956z"
			/>
		
			<linearGradient id="SVGID_34_" gradientUnits="userSpaceOnUse" x1="-117.337" y1="924.9034" x2="-117.337" y2="938.7772" gradientTransform="matrix(4.489700e-11 1 1 -4.489700e-11 -561.7826 561.7826)">
			<stop  offset="0" style="stop-color:#F9F7FC"/>
			<stop  offset="1" style="stop-color:#F0DDFC"/>
		</linearGradient>
		<path style="fill:url(#SVGID_34_);" d="M371.434,451.465v-14.039c0-3.724-3.019-6.742-6.743-6.742l0,0
			c-3.724,0-6.743,3.019-6.743,6.742v14.039c0,3.724,3.019,6.742,6.743,6.742l0,0C368.415,458.207,371.434,455.189,371.434,451.465z
			"/>
	</g>
</g>
<g>
</g>
<g>
</g>
<g>
</g>
<g>
</g>
<g>
</g>
<g>
</g>
<g>
</g>
<g>
</g>
<g>
</g>
<g>
</g>
<g>
</g>
<g>
</g>
<g>
</g>
<g>
</g>
<g>
</g>
</svg>
