<?xml version="1.0" encoding="iso-8859-1"?>
<!-- Generator: Adobe Illustrator 22.0.0, SVG Export Plug-In . SVG Version: 6.00 Build 0)  -->
<svg version="1.1" id="Capa_1" xmlns="http://www.w3.org/2000/svg" xmlns:xlink="http://www.w3.org/1999/xlink" x="0px" y="0px"
	 viewBox="0 0 510 510" style="enable-background:new 0 0 510 510;" xml:space="preserve">
<g>
	<g>
		<g>
			<linearGradient id="SVGID_1_" gradientUnits="userSpaceOnUse" x1="345.496" y1="73.3819" x2="451.496" y2="275.3819">
				<stop  offset="0" style="stop-color:#18CFFC"/>
				<stop  offset="1" style="stop-color:#4A98F7"/>
			</linearGradient>
			<path style="fill:url(#SVGID_1_);" d="M282.778,227.345c-51.982-51.982-51.982-136.26,0-188.242
				c51.755-51.756,135.001-52.195,187.272-0.961c39.479,38.695,49.695,95.788,30.662,144.014c-3.185,8.07-4,16.881-2.375,25.403
				l7.934,41.615c1.517,7.957-5.465,14.939-13.422,13.422l-41.614-7.934c-8.496-1.62-17.286-0.834-25.329,2.346
				C378.062,275.923,321.473,266.04,282.778,227.345z"/>
			<linearGradient id="SVGID_2_" gradientUnits="userSpaceOnUse" x1="407.0262" y1="188.93" x2="294.0262" y2="-20.07">
				<stop  offset="0" style="stop-color:#18CFFC;stop-opacity:0"/>
				<stop  offset="1" style="stop-color:#65E1DC"/>
			</linearGradient>
			<path style="fill:url(#SVGID_2_);" d="M498.423,254.748c0.545-0.545,1.766-2.059,1.333-4.332l-7.935-41.615
				c-1.866-9.786-0.925-19.842,2.722-29.08c18.72-47.433,7.283-101.146-29.136-136.842c-24.023-23.546-55.684-36.418-89.153-36.245
				c-33.464,0.173-64.999,13.371-88.786,37.158c-0.001,0.001,0.001-0.001,0,0c-49.312,49.313-49.312,129.55,0,178.862
				c35.678,35.678,89.061,46.741,135.999,28.184c9.181-3.63,19.213-4.561,29.01-2.693l41.614,7.935
				C496.364,256.514,497.877,255.293,498.423,254.748z"/>
		</g>
	</g>
	<linearGradient id="SVGID_3_" gradientUnits="userSpaceOnUse" x1="485.3273" y1="335.6727" x2="340.3842" y2="190.7296">
		<stop  offset="0" style="stop-color:#0469BC;stop-opacity:0"/>
		<stop  offset="1" style="stop-color:#0469BC"/>
	</linearGradient>
	<path style="fill:url(#SVGID_3_);" d="M359.607,154.71v110.485c22.274,2.9,45.141,0.178,66.298-8.187
		c8.043-3.18,16.834-3.966,25.329-2.346l10.285,1.961L359.607,154.71z"/>
	<g>
		<g>
			
				<linearGradient id="SVGID_4_" gradientUnits="userSpaceOnUse" x1="49.3622" y1="147.6745" x2="467.1972" y2="565.5095" gradientTransform="matrix(0.7071 0.7071 -0.7071 0.7071 278.9227 -17.4724)">
				<stop  offset="0" style="stop-color:#F9F7FC"/>
				<stop  offset="1" style="stop-color:#F0DDFC"/>
			</linearGradient>
			<path style="fill:url(#SVGID_4_);" d="M357.476,448.675c81.78-81.78,81.78-214.37,0-296.15
				C276.053,71.1,145.088,70.409,62.852,151.013C0.742,211.889-15.33,301.711,14.612,377.581c5.01,12.696,6.293,26.558,3.737,39.965
				L5.867,483.017c-2.387,12.519,8.598,23.503,21.116,21.116l65.469-12.483c13.366-2.548,27.196-1.312,39.849,3.691
				C207.571,525.099,296.599,509.552,357.476,448.675z"/>
			<linearGradient id="SVGID_5_" gradientUnits="userSpaceOnUse" x1="189.4695" y1="331.0107" x2="65.3699" y2="156.8709">
				<stop  offset="0" style="stop-color:#FFFFFF;stop-opacity:0"/>
				<stop  offset="1" style="stop-color:#FFFFFF"/>
			</linearGradient>
			<path style="fill:url(#SVGID_5_);" d="M18.214,491.786c-0.857-0.857-2.779-3.239-2.097-6.815l12.484-65.47
				c2.935-15.396,1.455-31.217-4.282-45.751c-29.451-74.623-11.458-159.128,45.838-215.286
				c37.794-37.044,87.605-57.294,140.259-57.022c52.647,0.272,102.259,21.036,139.682,58.459c0.002,0.002-0.001-0.001,0.001,0.001
				c77.58,77.581,77.58,203.813,0,281.393c-56.13,56.13-140.115,73.536-213.959,44.341c-14.445-5.711-30.227-7.175-45.64-4.237
				l-65.47,12.483C21.453,494.565,19.072,492.644,18.214,491.786z"/>
		</g>
		<g>
			<linearGradient id="SVGID_6_" gradientUnits="userSpaceOnUse" x1="266.8597" y1="485.6195" x2="185.7947" y2="389.5424">
				<stop  offset="0" style="stop-color:#F0DDFC;stop-opacity:0"/>
				<stop  offset="0.2085" style="stop-color:#DFCDF1;stop-opacity:0.2085"/>
				<stop  offset="0.6167" style="stop-color:#B5A4D3;stop-opacity:0.6167"/>
				<stop  offset="1" style="stop-color:#8779B3"/>
			</linearGradient>
			<path style="fill:url(#SVGID_6_);" d="M311.597,483.44c-19.816,11.089-41.043,18.705-62.81,22.848l-69.706-69.706
				c-6.045-6.035-9.057-13.13-9.057-21.267c0-8.397,3.022-15.563,9.087-21.467c6.065-5.905,13.271-8.857,21.627-8.857
				c8.407,0,15.562,3.022,21.467,9.057L311.597,483.44z"/>
			<linearGradient id="SVGID_7_" gradientUnits="userSpaceOnUse" x1="245.1424" y1="271.1199" x2="146.0629" y2="151.0235">
				<stop  offset="0" style="stop-color:#F0DDFC;stop-opacity:0"/>
				<stop  offset="0.2085" style="stop-color:#DFCDF1;stop-opacity:0.2085"/>
				<stop  offset="0.6167" style="stop-color:#B5A4D3;stop-opacity:0.6167"/>
				<stop  offset="1" style="stop-color:#8779B3"/>
			</linearGradient>
			<path style="fill:url(#SVGID_7_);" d="M417.512,323.962c-5.084,45.557-25.1,89.782-60.038,124.71
				c-13.461,13.461-28.293,24.7-44.045,33.737L183.415,352.384c-3.153-3.623-4.734-10.478-4.734-20.566
				c0-18.925,5.364-35.018,16.023-48.309l-58.777-58.827c-4.844-3.933-7.266-9.448-7.266-16.543c0-12.6,6.825-24.55,20.486-35.839
				c13.651-11.289,32.686-16.934,57.106-16.934c24.94,0,45.156,6.175,60.659,18.505
				C269.394,175.853,369.394,275.823,417.512,323.962z"/>
		</g>
		<linearGradient id="SVGID_8_" gradientUnits="userSpaceOnUse" x1="327.9865" y1="358.472" x2="212.8941" y2="269.4005">
			<stop  offset="0" style="stop-color:#F0DDFC;stop-opacity:0"/>
			<stop  offset="0.2085" style="stop-color:#DFCDF1;stop-opacity:0.2085"/>
			<stop  offset="0.6167" style="stop-color:#B5A4D3;stop-opacity:0.6167"/>
			<stop  offset="1" style="stop-color:#8779B3"/>
		</linearGradient>
		<path style="fill:url(#SVGID_8_);" d="M417.512,323.962c-5.084,45.557-25.1,89.782-60.038,124.71
			c-13.461,13.461-28.293,24.7-44.045,33.737L184.375,353.345c3.273,2.982,8.597,4.464,15.973,4.464
			c15.492,0,23.239-5.374,23.239-16.153c0-8.397,0.32-14.632,0.981-18.705c0.651-4.063,2.622-8.797,5.915-14.171
			c3.273-5.384,8.347-10.839,15.202-16.353c29.634-22.838,44.466-46.867,44.466-72.078c0-13.811-4.253-25.881-12.75-36.229
			C304.692,211.141,378.311,284.75,417.512,323.962z"/>
		<g>
			<linearGradient id="SVGID_9_" gradientUnits="userSpaceOnUse" x1="143.6026" y1="265.555" x2="302.7224" y2="345.1149">
				<stop  offset="0" style="stop-color:#FF7044"/>
				<stop  offset="1" style="stop-color:#F92814"/>
			</linearGradient>
			<path style="fill:url(#SVGID_9_);" d="M128.662,208.142c0-12.603,6.827-24.549,20.481-35.841
				c13.65-11.287,32.691-16.936,57.112-16.936c24.941,0,45.158,6.173,60.653,18.51c15.491,12.345,23.24,27.836,23.24,46.476
				c0,25.208-14.826,49.235-44.463,72.079c-6.857,5.515-11.928,10.965-15.207,16.346c-3.288,5.384-5.256,10.109-5.909,14.177
				c-0.66,4.075-0.985,10.309-0.985,18.709c0,10.771-7.747,16.149-23.238,16.149c-8.141,0-13.785-1.809-16.936-5.428
				c-3.15-3.619-4.726-10.474-4.726-20.566c0-24.31,8.794-43.966,26.39-58.97c0.787-0.776,4.195-3.491,10.24-8.143
				c6.036-4.651,10.24-8.148,12.603-10.474c2.363-2.328,4.984-5.882,7.877-10.672c2.886-4.788,4.333-9.637,4.333-14.549
				c0-8.535-3.275-15.065-9.816-19.593c-6.544-4.524-15.047-6.788-25.511-6.788c-8.898,0-16.222,1.45-21.977,4.356
				c-5.759,2.904-9.551,6.118-11.383,9.625c-1.836,3.514-4.323,6.719-7.46,9.625s-7.064,4.356-11.772,4.356
				c-6.02,0-11.447-1.968-16.286-5.907C131.082,220.747,128.662,215.232,128.662,208.142z M170.02,415.313
				c0-8.399,3.028-15.557,9.094-21.464c6.063-5.907,13.268-8.863,21.627-8.863c8.401,0,15.557,3.023,21.464,9.059
				c5.909,6.043,8.864,13.132,8.864,21.268c0,8.143-2.955,15.231-8.864,21.27c-5.907,6.043-13.063,9.059-21.464,9.059
				c-8.408,0-15.626-3.016-21.662-9.059C173.034,430.544,170.02,423.456,170.02,415.313z"/>
		</g>
	</g>
</g>
<g>
</g>
<g>
</g>
<g>
</g>
<g>
</g>
<g>
</g>
<g>
</g>
<g>
</g>
<g>
</g>
<g>
</g>
<g>
</g>
<g>
</g>
<g>
</g>
<g>
</g>
<g>
</g>
<g>
</g>
</svg>
