<?xml version="1.0" encoding="iso-8859-1"?>
<!-- Generator: Adobe Illustrator 22.0.0, SVG Export Plug-In . SVG Version: 6.00 Build 0)  -->
<svg version="1.1" id="Capa_1" xmlns="http://www.w3.org/2000/svg" xmlns:xlink="http://www.w3.org/1999/xlink" x="0px" y="0px"
	 viewBox="0 0 510 510" style="enable-background:new 0 0 510 510;" xml:space="preserve">
<g>
	<g>
		<linearGradient id="SVGID_1_" gradientUnits="userSpaceOnUse" x1="250.7041" y1="418.8177" x2="250.7041" y2="514.084">
			<stop  offset="0" style="stop-color:#7E8595"/>
			<stop  offset="1" style="stop-color:#555A66"/>
		</linearGradient>
		<polygon style="fill:url(#SVGID_1_);" points="359.924,489.441 250.704,298.835 141.484,489.441 119.75,476.987 250.704,248.454 
			381.658,476.987 		"/>
		<linearGradient id="SVGID_2_" gradientUnits="userSpaceOnUse" x1="242.6886" y1="378.4293" x2="266.2822" y2="378.4293">
			<stop  offset="0" style="stop-color:#7E8595"/>
			<stop  offset="1" style="stop-color:#555A66"/>
		</linearGradient>
		<rect x="238.18" y="273.645" style="fill:url(#SVGID_2_);" width="25.049" height="209.57"/>
		<g>
			<g>
				<g>
					<linearGradient id="SVGID_3_" gradientUnits="userSpaceOnUse" x1="130.6174" y1="474.74" x2="130.6174" y2="490.121">
						<stop  offset="0" style="stop-color:#7E8595"/>
						<stop  offset="1" style="stop-color:#555A66"/>
					</linearGradient>
					<path style="fill:url(#SVGID_3_);" d="M148.478,506.368h-35.721c-4.012,0-7.264-3.252-7.264-7.264v-21.99
						c0-4.012,3.252-7.264,7.264-7.264h35.721c4.012,0,7.264,3.252,7.264,7.264v21.99
						C155.742,503.116,152.49,506.368,148.478,506.368z"/>
					<linearGradient id="SVGID_4_" gradientUnits="userSpaceOnUse" x1="130.6174" y1="491.0596" x2="130.6174" y2="517.2692">
						<stop  offset="0" style="stop-color:#7E8595"/>
						<stop  offset="1" style="stop-color:#555A66"/>
					</linearGradient>
					<path style="fill:url(#SVGID_4_);" d="M159.362,510h-57.488c-4.012,0-7.264-3.252-7.264-7.264v-4.11
						c0-8.512,6.9-15.412,15.412-15.412h41.193c8.512,0,15.412,6.9,15.412,15.412v4.11C166.625,506.748,163.373,510,159.362,510z"/>
				</g>
				<linearGradient id="SVGID_5_" gradientUnits="userSpaceOnUse" x1="146.8946" y1="491.0596" x2="146.8946" y2="517.2692">
					<stop  offset="0" style="stop-color:#555A66;stop-opacity:0"/>
					<stop  offset="1" style="stop-color:#555A66"/>
				</linearGradient>
				<path style="fill:url(#SVGID_5_);" d="M151.214,483.214h-16.01c1.596,3.078,2.503,6.571,2.503,10.278v5.965
					c0,5.823-4.72,10.543-10.543,10.543h32.198c4.012,0,7.264-3.252,7.264-7.264v-4.11
					C166.625,490.114,159.725,483.214,151.214,483.214z"/>
				<linearGradient id="SVGID_6_" gradientUnits="userSpaceOnUse" x1="123.0301" y1="487.2906" x2="64.5951" y2="464.8157">
					<stop  offset="0" style="stop-color:#BEC3D2;stop-opacity:0"/>
					<stop  offset="0.221" style="stop-color:#C5C9D7;stop-opacity:0.221"/>
					<stop  offset="0.5343" style="stop-color:#D7DAE3;stop-opacity:0.5343"/>
					<stop  offset="0.9014" style="stop-color:#F6F6F8;stop-opacity:0.9014"/>
					<stop  offset="1" style="stop-color:#FFFFFF"/>
				</linearGradient>
				<path style="fill:url(#SVGID_6_);" d="M166.625,502.736v-4.11c0-6.936-4.582-12.8-10.883-14.734v-6.778
					c0-4.012-3.252-7.264-7.264-7.264h-26.313c-4.012,0-7.264,3.252-7.264,7.264v6.778c-6.301,1.934-10.883,7.799-10.883,14.734
					v4.11c0,4.012,3.252,7.264,7.264,7.264h48.08C163.373,510,166.625,506.748,166.625,502.736z"/>
			</g>
			<g>
				<g>
					<linearGradient id="SVGID_7_" gradientUnits="userSpaceOnUse" x1="250.7041" y1="474.74" x2="250.7041" y2="490.121">
						<stop  offset="0" style="stop-color:#7E8595"/>
						<stop  offset="1" style="stop-color:#555A66"/>
					</linearGradient>
					<path style="fill:url(#SVGID_7_);" d="M268.565,506.368h-35.721c-4.012,0-7.264-3.252-7.264-7.264v-21.99
						c0-4.012,3.252-7.264,7.264-7.264h35.721c4.012,0,7.264,3.252,7.264,7.264v21.99
						C275.829,503.116,272.577,506.368,268.565,506.368z"/>
					<linearGradient id="SVGID_8_" gradientUnits="userSpaceOnUse" x1="250.7041" y1="491.0596" x2="250.7041" y2="517.2692">
						<stop  offset="0" style="stop-color:#7E8595"/>
						<stop  offset="1" style="stop-color:#555A66"/>
					</linearGradient>
					<path style="fill:url(#SVGID_8_);" d="M279.448,510H221.96c-4.012,0-7.264-3.252-7.264-7.264v-4.11
						c0-8.512,6.9-15.412,15.412-15.412h41.193c8.512,0,15.412,6.9,15.412,15.412v4.11C286.712,506.748,283.46,510,279.448,510z"/>
				</g>
				<linearGradient id="SVGID_9_" gradientUnits="userSpaceOnUse" x1="266.9813" y1="491.0596" x2="266.9813" y2="517.2692">
					<stop  offset="0" style="stop-color:#555A66;stop-opacity:0"/>
					<stop  offset="1" style="stop-color:#555A66"/>
				</linearGradient>
				<path style="fill:url(#SVGID_9_);" d="M271.301,483.214h-16.01c1.596,3.078,2.503,6.571,2.503,10.278v5.965
					c0,5.823-4.72,10.543-10.543,10.543h32.198c4.012,0,7.264-3.252,7.264-7.264v-4.11
					C286.712,490.114,279.812,483.214,271.301,483.214z"/>
				<linearGradient id="SVGID_10_" gradientUnits="userSpaceOnUse" x1="243.1167" y1="487.2906" x2="184.6818" y2="464.8157">
					<stop  offset="0" style="stop-color:#BEC3D2;stop-opacity:0"/>
					<stop  offset="0.221" style="stop-color:#C5C9D7;stop-opacity:0.221"/>
					<stop  offset="0.5343" style="stop-color:#D7DAE3;stop-opacity:0.5343"/>
					<stop  offset="0.9014" style="stop-color:#F6F6F8;stop-opacity:0.9014"/>
					<stop  offset="1" style="stop-color:#FFFFFF"/>
				</linearGradient>
				<path style="fill:url(#SVGID_10_);" d="M286.712,502.736v-4.11c0-6.936-4.582-12.8-10.883-14.734v-6.778
					c0-4.012-3.252-7.264-7.264-7.264h-26.313c-4.012,0-7.264,3.252-7.264,7.264v6.778c-6.301,1.934-10.883,7.799-10.883,14.734
					v4.11c0,4.012,3.252,7.264,7.264,7.264h48.08C283.46,510,286.712,506.748,286.712,502.736z"/>
			</g>
			<g>
				<g>
					<linearGradient id="SVGID_11_" gradientUnits="userSpaceOnUse" x1="370.7908" y1="474.74" x2="370.7908" y2="490.121">
						<stop  offset="0" style="stop-color:#7E8595"/>
						<stop  offset="1" style="stop-color:#555A66"/>
					</linearGradient>
					<path style="fill:url(#SVGID_11_);" d="M388.651,506.368H352.93c-4.012,0-7.264-3.252-7.264-7.264v-21.99
						c0-4.012,3.252-7.264,7.264-7.264h35.721c4.012,0,7.264,3.252,7.264,7.264v21.99
						C395.915,503.116,392.663,506.368,388.651,506.368z"/>
					<linearGradient id="SVGID_12_" gradientUnits="userSpaceOnUse" x1="370.7908" y1="491.0596" x2="370.7908" y2="517.2692">
						<stop  offset="0" style="stop-color:#7E8595"/>
						<stop  offset="1" style="stop-color:#555A66"/>
					</linearGradient>
					<path style="fill:url(#SVGID_12_);" d="M399.535,510h-57.488c-4.012,0-7.264-3.252-7.264-7.264v-4.11
						c0-8.512,6.9-15.412,15.412-15.412h41.193c8.512,0,15.412,6.9,15.412,15.412v4.11C406.799,506.748,403.547,510,399.535,510z"/>
				</g>
				<linearGradient id="SVGID_13_" gradientUnits="userSpaceOnUse" x1="387.068" y1="491.0596" x2="387.068" y2="517.2692">
					<stop  offset="0" style="stop-color:#555A66;stop-opacity:0"/>
					<stop  offset="1" style="stop-color:#555A66"/>
				</linearGradient>
				<path style="fill:url(#SVGID_13_);" d="M391.387,483.214h-16.01c1.596,3.078,2.503,6.571,2.503,10.278v5.965
					c0,5.823-4.72,10.543-10.543,10.543h32.198c4.012,0,7.264-3.252,7.264-7.264v-4.11
					C406.799,490.114,399.899,483.214,391.387,483.214z"/>
				<linearGradient id="SVGID_14_" gradientUnits="userSpaceOnUse" x1="363.2034" y1="487.2906" x2="304.7685" y2="464.8157">
					<stop  offset="0" style="stop-color:#BEC3D2;stop-opacity:0"/>
					<stop  offset="0.221" style="stop-color:#C5C9D7;stop-opacity:0.221"/>
					<stop  offset="0.5343" style="stop-color:#D7DAE3;stop-opacity:0.5343"/>
					<stop  offset="0.9014" style="stop-color:#F6F6F8;stop-opacity:0.9014"/>
					<stop  offset="1" style="stop-color:#FFFFFF"/>
				</linearGradient>
				<path style="fill:url(#SVGID_14_);" d="M406.799,502.736v-4.11c0-6.936-4.582-12.8-10.883-14.734v-6.778
					c0-4.012-3.252-7.264-7.264-7.264h-26.313c-4.012,0-7.264,3.252-7.264,7.264v6.778c-6.301,1.934-10.883,7.799-10.883,14.734
					v4.11c0,4.012,3.252,7.264,7.264,7.264h48.08C403.547,510,406.799,506.748,406.799,502.736z"/>
			</g>
		</g>
	</g>
	<g>
		<linearGradient id="SVGID_15_" gradientUnits="userSpaceOnUse" x1="211.9012" y1="74.5243" x2="338.7318" y2="383.2253">
			<stop  offset="0" style="stop-color:#F9F7FC"/>
			<stop  offset="1" style="stop-color:#F0DDFC"/>
		</linearGradient>
		<rect x="58.446" y="34.299" style="fill:url(#SVGID_15_);" width="393.107" height="290.253"/>
		<linearGradient id="SVGID_16_" gradientUnits="userSpaceOnUse" x1="261.7635" y1="159.7847" x2="246.7635" y2="-79.2153">
			<stop  offset="0" style="stop-color:#F0DDFC;stop-opacity:0"/>
			<stop  offset="0.2889" style="stop-color:#C8B7E0;stop-opacity:0.2889"/>
			<stop  offset="0.5915" style="stop-color:#A595C8;stop-opacity:0.5915"/>
			<stop  offset="0.8395" style="stop-color:#8F81B8;stop-opacity:0.8395"/>
			<stop  offset="1" style="stop-color:#8779B3"/>
		</linearGradient>
		<polygon style="fill:url(#SVGID_16_);" points="313.259,324.552 451.554,324.552 451.554,34.299 58.446,34.299 58.446,69.739 		
			"/>
		<g>
			<g>
				<linearGradient id="SVGID_17_" gradientUnits="userSpaceOnUse" x1="40.6986" y1="26.4999" x2="40.6986" y2="48.6158">
					<stop  offset="0" style="stop-color:#7E8595"/>
					<stop  offset="1" style="stop-color:#555A66"/>
				</linearGradient>
				<path style="fill:url(#SVGID_17_);" d="M32.923,16.531c-4.384,0-7.938,7.955-7.938,17.768s3.554,17.768,7.938,17.768h23.488
					V16.531H32.923z"/>
				<g>
					<g>
						<g>
							<linearGradient id="SVGID_18_" gradientUnits="userSpaceOnUse" x1="255.7437" y1="25.6424" x2="255.7437" y2="88.3883">
								<stop  offset="0" style="stop-color:#F9F7FC"/>
								<stop  offset="1" style="stop-color:#F0DDFC"/>
							</linearGradient>
							<path style="fill:url(#SVGID_18_);" d="M57.305,0.017C49.02,0.365,42.35,15.574,42.35,34.298
								c0,18.724,6.67,33.934,14.954,34.281v0.017h396.594c8.414,0,15.238-15.355,15.238-34.299S462.313,0,453.899,0H57.305V0.017z"
								/>
							
								<linearGradient id="SVGID_19_" gradientUnits="userSpaceOnUse" x1="-1164.7201" y1="-4491.2964" x2="-1164.7201" y2="-4544.2734" gradientTransform="matrix(0 -1 1 0 4972.6157 -1130.4215)">
								<stop  offset="0" style="stop-color:#F0DDFC;stop-opacity:0"/>
								<stop  offset="0.2889" style="stop-color:#C8B7E0;stop-opacity:0.2889"/>
								<stop  offset="0.5915" style="stop-color:#A595C8;stop-opacity:0.5915"/>
								<stop  offset="0.8395" style="stop-color:#8F81B8;stop-opacity:0.8395"/>
								<stop  offset="1" style="stop-color:#8779B3"/>
							</linearGradient>
							<path style="fill:url(#SVGID_19_);" d="M453.899,0c8.414,0,15.238,15.355,15.238,34.299s-6.824,34.299-15.238,34.299
								c-5.526,0-10.365-6.613-13.038-16.513c-1.4-5.186,0.803-1.272,0.803-7.784c0-0.153-3.01-10.308-3.009-10.461
								C438.764,15.108,445.546,0,453.899,0z"/>
							
								<linearGradient id="SVGID_20_" gradientUnits="userSpaceOnUse" x1="-1137.1613" y1="-4496.4033" x2="-1186.4164" y2="-4545.6582" gradientTransform="matrix(0 -1 1 0 4972.6157 -1130.4215)">
								<stop  offset="0" style="stop-color:#F0DDFC;stop-opacity:0"/>
								<stop  offset="0.2889" style="stop-color:#C8B7E0;stop-opacity:0.2889"/>
								<stop  offset="0.5915" style="stop-color:#A595C8;stop-opacity:0.5915"/>
								<stop  offset="0.8395" style="stop-color:#8F81B8;stop-opacity:0.8395"/>
								<stop  offset="1" style="stop-color:#8779B3"/>
							</linearGradient>
							<path style="fill:url(#SVGID_20_);" d="M453.899,0c8.414,0,15.238,15.355,15.238,34.299c0,2.156-0.091,4.265-0.258,6.313
								c-0.091,0.559-0.195,1.1-0.314,1.63c-0.146,0.645-0.307,1.27-0.481,1.872c-0.118,0.398-0.244,0.787-0.376,1.161
								c-0.07,0.19-0.132,0.374-0.202,0.555c-0.962,2.55-2.245,4.474-3.701,5.469c-0.621,0.427-1.283,0.687-1.959,0.754
								c-0.112,0.009-0.23,0.014-0.342,0.014h-20.648c-1.394-5.185-2.203-11.265-2.203-17.768c0-0.152,0-0.308,0.007-0.46
								C438.765,15.109,445.548,0,453.899,0z"/>
							<linearGradient id="SVGID_21_" gradientUnits="userSpaceOnUse" x1="461.833" y1="33.7415" x2="461.833" y2="47.7692">
								<stop  offset="0" style="stop-color:#7E8595"/>
								<stop  offset="1" style="stop-color:#555A66"/>
							</linearGradient>
							<path style="fill:url(#SVGID_21_);" d="M485.015,34.299c0,9.815-3.554,17.77-7.938,17.77h-33.225
								c-1.398-5.18-5.2-11.263-5.2-17.77s0.802-12.589,2.2-17.77h36.225C481.461,16.529,485.015,24.483,485.015,34.299z"/>
							<linearGradient id="SVGID_22_" gradientUnits="userSpaceOnUse" x1="486.4478" y1="27.0634" x2="470.572" y2="39.3185">
								<stop  offset="0" style="stop-color:#7E8595"/>
								<stop  offset="1" style="stop-color:#555A66"/>
							</linearGradient>
							<ellipse style="fill:url(#SVGID_22_);" cx="477.075" cy="34.299" rx="7.938" ry="17.768"/>
							<g>
								
									<linearGradient id="SVGID_23_" gradientUnits="userSpaceOnUse" x1="-1176.0549" y1="-4522.0576" x2="-1143.8475" y2="-4561.9795" gradientTransform="matrix(0 -1 1 0 4972.6157 -1130.4215)">
									<stop  offset="0" style="stop-color:#F9F7FC"/>
									<stop  offset="1" style="stop-color:#F0DDFC"/>
								</linearGradient>
								<path style="fill:url(#SVGID_23_);" d="M438.661,33.839h14.952c0,0.152-0.007,0.303-0.007,0.46
									c0,9.81,3.534,17.768,7.898,17.768h-20.648c-1.394-5.185-2.203-11.265-2.203-17.768
									C438.654,34.147,438.654,33.991,438.661,33.839z"/>
							</g>
						</g>
					</g>
				</g>
			</g>
			<g>
				<linearGradient id="SVGID_24_" gradientUnits="userSpaceOnUse" x1="40.6986" y1="316.7533" x2="40.6986" y2="338.8692">
					<stop  offset="0" style="stop-color:#7E8595"/>
					<stop  offset="1" style="stop-color:#555A66"/>
				</linearGradient>
				<path style="fill:url(#SVGID_24_);" d="M32.923,306.784c-4.384,0-7.938,7.955-7.938,17.768c0,9.813,3.554,17.768,7.938,17.768
					h23.488v-35.535H32.923z"/>
				<g>
					<g>
						<g>
							<linearGradient id="SVGID_25_" gradientUnits="userSpaceOnUse" x1="255.7437" y1="315.8957" x2="255.7437" y2="378.6417">
								<stop  offset="0" style="stop-color:#F9F7FC"/>
								<stop  offset="1" style="stop-color:#F0DDFC"/>
							</linearGradient>
							<path style="fill:url(#SVGID_25_);" d="M57.305,290.271c-8.285,0.348-14.954,15.557-14.954,34.281
								c0,18.724,6.67,33.934,14.954,34.281v0.017h396.594c8.414,0,15.238-15.355,15.238-34.299
								c0-18.943-6.824-34.299-15.238-34.299H57.305V290.271z"/>
							
								<linearGradient id="SVGID_26_" gradientUnits="userSpaceOnUse" x1="-1454.9735" y1="-4491.2964" x2="-1454.9735" y2="-4544.2734" gradientTransform="matrix(0 -1 1 0 4972.6157 -1130.4215)">
								<stop  offset="0" style="stop-color:#F0DDFC;stop-opacity:0"/>
								<stop  offset="0.2889" style="stop-color:#C8B7E0;stop-opacity:0.2889"/>
								<stop  offset="0.5915" style="stop-color:#A595C8;stop-opacity:0.5915"/>
								<stop  offset="0.8395" style="stop-color:#8F81B8;stop-opacity:0.8395"/>
								<stop  offset="1" style="stop-color:#8779B3"/>
							</linearGradient>
							<path style="fill:url(#SVGID_26_);" d="M453.899,290.253c8.414,0,15.238,15.355,15.238,34.299
								c0,18.943-6.824,34.299-15.238,34.299c-5.529,0-10.37-6.621-13.043-16.531c-1.398-5.182,6.635-5.128,2.8-10.382
								c-0.654-0.896-5.002-7.692-5.001-7.845C438.764,305.361,445.546,290.253,453.899,290.253z"/>
							
								<linearGradient id="SVGID_27_" gradientUnits="userSpaceOnUse" x1="-1427.4147" y1="-4496.4033" x2="-1476.6697" y2="-4545.6582" gradientTransform="matrix(0 -1 1 0 4972.6157 -1130.4215)">
								<stop  offset="0" style="stop-color:#F0DDFC;stop-opacity:0"/>
								<stop  offset="0.2889" style="stop-color:#C8B7E0;stop-opacity:0.2889"/>
								<stop  offset="0.5915" style="stop-color:#A595C8;stop-opacity:0.5915"/>
								<stop  offset="0.8395" style="stop-color:#8F81B8;stop-opacity:0.8395"/>
								<stop  offset="1" style="stop-color:#8779B3"/>
							</linearGradient>
							<path style="fill:url(#SVGID_27_);" d="M453.899,290.253c8.414,0,15.238,15.355,15.238,34.299
								c0,2.156-0.091,4.265-0.258,6.313c-0.091,0.559-0.195,1.1-0.314,1.63c-0.146,0.645-0.307,1.27-0.481,1.872
								c-0.118,0.398-0.244,0.787-0.376,1.161c-0.07,0.19-0.132,0.374-0.202,0.555c-0.962,2.55-2.245,4.474-3.701,5.469
								c-0.621,0.427-1.283,0.687-1.959,0.754c-0.112,0.009-0.23,0.014-0.342,0.014h-20.648c-1.394-5.185-2.203-11.265-2.203-17.768
								c0-0.152,0-0.308,0.007-0.46C438.765,305.362,445.548,290.253,453.899,290.253z"/>
							<linearGradient id="SVGID_28_" gradientUnits="userSpaceOnUse" x1="461.833" y1="323.9948" x2="461.833" y2="338.0226">
								<stop  offset="0" style="stop-color:#7E8595"/>
								<stop  offset="1" style="stop-color:#555A66"/>
							</linearGradient>
							<path style="fill:url(#SVGID_28_);" d="M485.015,324.552c0,9.815-3.554,17.77-7.938,17.77h-33.225
								c-1.398-5.18-5.2-11.263-5.2-17.77c0-6.506,0.802-12.589,2.2-17.77h36.225C481.461,306.782,485.015,314.737,485.015,324.552z
								"/>
							<linearGradient id="SVGID_29_" gradientUnits="userSpaceOnUse" x1="486.4478" y1="317.3168" x2="470.572" y2="329.5719">
								<stop  offset="0" style="stop-color:#7E8595"/>
								<stop  offset="1" style="stop-color:#555A66"/>
							</linearGradient>
							<ellipse style="fill:url(#SVGID_29_);" cx="477.075" cy="324.552" rx="7.938" ry="17.768"/>
							<g>
								
									<linearGradient id="SVGID_30_" gradientUnits="userSpaceOnUse" x1="-1466.3083" y1="-4522.0576" x2="-1434.101" y2="-4561.9795" gradientTransform="matrix(0 -1 1 0 4972.6157 -1130.4215)">
									<stop  offset="0" style="stop-color:#F9F7FC"/>
									<stop  offset="1" style="stop-color:#F0DDFC"/>
								</linearGradient>
								<path style="fill:url(#SVGID_30_);" d="M438.661,324.092h14.952c0,0.152-0.007,0.303-0.007,0.46
									c0,9.81,3.534,17.768,7.898,17.768h-20.648c-1.394-5.185-2.203-11.265-2.203-17.768
									C438.654,324.4,438.654,324.244,438.661,324.092z"/>
							</g>
						</g>
					</g>
				</g>
			</g>
		</g>
	</g>
	<g>
		<g>
			
				<linearGradient id="SVGID_31_" gradientUnits="userSpaceOnUse" x1="269.3671" y1="227.5065" x2="285.6116" y2="255.8399" gradientTransform="matrix(1 0 0 1 -127.1428 0)">
				<stop  offset="0" style="stop-color:#FF7044"/>
				<stop  offset="1" style="stop-color:#F92814"/>
			</linearGradient>
			<path style="fill:url(#SVGID_31_);" d="M132.65,254.305h42.684v-11.233c0-2.727-2.211-4.938-4.938-4.938h-32.807
				c-2.727,0-4.938,2.211-4.938,4.938V254.305z"/>
			<linearGradient id="SVGID_32_" gradientUnits="userSpaceOnUse" x1="200.6048" y1="204.9348" x2="232.5419" y2="258.4763">
				<stop  offset="0" style="stop-color:#FFDA45"/>
				<stop  offset="1" style="stop-color:#FFA425"/>
			</linearGradient>
			<path style="fill:url(#SVGID_32_);" d="M196.221,254.305h42.684v-40.519c0-2.727-2.211-4.938-4.938-4.938h-32.807
				c-2.727,0-4.938,2.211-4.938,4.938V254.305z"/>
			
				<linearGradient id="SVGID_33_" gradientUnits="userSpaceOnUse" x1="132.6496" y1="214.5493" x2="175.3333" y2="214.5493" gradientTransform="matrix(1 0 0 1 127.1428 0)">
				<stop  offset="0" style="stop-color:#18CFFC"/>
				<stop  offset="1" style="stop-color:#4A98F7"/>
			</linearGradient>
			<path style="fill:url(#SVGID_33_);" d="M259.792,254.305h42.684v-74.574c0-2.727-2.211-4.938-4.938-4.938h-32.807
				c-2.727,0-4.938,2.211-4.938,4.938V254.305z"/>
			<g>
				
					<linearGradient id="SVGID_34_" gradientUnits="userSpaceOnUse" x1="3829.0684" y1="-3555.9688" x2="3845.7437" y2="-3555.9688" gradientTransform="matrix(0 1 -1 0 -3360.2019 -3576.241)">
					<stop  offset="0" style="stop-color:#7E8595"/>
					<stop  offset="1" style="stop-color:#555A66"/>
				</linearGradient>
				<path style="fill:url(#SVGID_34_);" d="M79.976,258.392L79.976,258.392c0-4.108,3.331-7.439,7.439-7.439h216.704
					c4.108,0,7.439,3.331,7.439,7.439l0,0c0,4.108-3.331,7.439-7.439,7.439H87.415C83.307,265.831,79.976,262.5,79.976,258.392z"/>
				<linearGradient id="SVGID_35_" gradientUnits="userSpaceOnUse" x1="135.4263" y1="276.9214" x2="99.4633" y2="240.9585">
					<stop  offset="0" style="stop-color:#555A66;stop-opacity:0"/>
					<stop  offset="1" style="stop-color:#555A66"/>
				</linearGradient>
				<polygon style="fill:url(#SVGID_35_);" points="113.512,265.831 135.16,265.831 120.282,250.953 113.512,250.953 				"/>
				<linearGradient id="SVGID_36_" gradientUnits="userSpaceOnUse" x1="107.4269" y1="179.4253" x2="124.1023" y2="179.4253">
					<stop  offset="0" style="stop-color:#7E8595"/>
					<stop  offset="1" style="stop-color:#555A66"/>
				</linearGradient>
				<path style="fill:url(#SVGID_36_);" d="M112.991,279.734L112.991,279.734c-4.108,0-7.439-3.331-7.439-7.439V86.555
					c0-4.108,3.331-7.439,7.439-7.439l0,0c4.108,0,7.439,3.331,7.439,7.439v185.74C120.43,276.403,117.1,279.734,112.991,279.734z"
					/>
			</g>
			<linearGradient id="SVGID_37_" gradientUnits="userSpaceOnUse" x1="215.1983" y1="163.7341" x2="241.9818" y2="200.215">
				<stop  offset="0" style="stop-color:#92F37F"/>
				<stop  offset="1" style="stop-color:#4AB272"/>
			</linearGradient>
			<path style="fill:url(#SVGID_37_);" d="M285.209,98.604l-30.234,17.009c-5.303,2.983-5.42,10.576-0.212,13.722l8.026,4.848
				c-10.327,14.497-23.566,27.482-39.521,38.731c-16.849,11.878-36.746,21.869-59.14,29.695c-9.479,3.313-18.617,5.954-27.011,8.054
				c-3.677,0.92-6.239,4.243-6.186,8.034l0,0c0.074,5.263,5.034,9.089,10.139,7.807c8.687-2.181,18.149-4.92,28.02-8.354
				c23.899-8.314,45.218-19,63.365-31.76c17.935-12.612,32.792-27.282,44.333-43.751l7.224,4.364
				c5.208,3.146,11.874-0.492,12.047-6.574l0.985-34.676C297.22,99.579,290.592,95.576,285.209,98.604z"/>
		</g>
		<g>
			<path style="fill:#BEC3D2;" d="M388.566,143.386h-66.212c-2.516,0-4.555-2.04-4.555-4.555v-8.388c0-2.516,2.04-4.555,4.555-4.555
				h66.212c2.516,0,4.555,2.04,4.555,4.555v8.388C393.121,141.346,391.082,143.386,388.566,143.386z"/>
			<path style="fill:#BEC3D2;" d="M425.468,143.386h-12.375c-2.516,0-4.555-2.04-4.555-4.555v-8.388c0-2.516,2.04-4.555,4.555-4.555
				h12.375c2.516,0,4.555,2.04,4.555,4.555v8.388C430.024,141.346,427.984,143.386,425.468,143.386z"/>
			<path style="fill:#BEC3D2;" d="M364.165,170.985h-41.812c-2.516,0-4.555-2.04-4.555-4.555v-8.388c0-2.516,2.04-4.555,4.555-4.555
				h41.812c2.516,0,4.555,2.04,4.555,4.555v8.388C368.721,168.946,366.681,170.985,364.165,170.985z"/>
			<path style="fill:#BEC3D2;" d="M425.468,170.985h-37.231c-2.516,0-4.555-2.04-4.555-4.555v-8.388c0-2.516,2.04-4.555,4.555-4.555
				h37.231c2.516,0,4.555,2.04,4.555,4.555v8.388C430.024,168.946,427.984,170.985,425.468,170.985z"/>
		</g>
	</g>
</g>
<g>
</g>
<g>
</g>
<g>
</g>
<g>
</g>
<g>
</g>
<g>
</g>
<g>
</g>
<g>
</g>
<g>
</g>
<g>
</g>
<g>
</g>
<g>
</g>
<g>
</g>
<g>
</g>
<g>
</g>
</svg>
