<?xml version="1.0" encoding="iso-8859-1"?>
<!-- Generator: Adobe Illustrator 22.0.0, SVG Export Plug-In . SVG Version: 6.00 Build 0)  -->
<svg version="1.1" id="Capa_1" xmlns="http://www.w3.org/2000/svg" xmlns:xlink="http://www.w3.org/1999/xlink" x="0px" y="0px"
	 viewBox="0 0 510 510" style="enable-background:new 0 0 510 510;" xml:space="preserve">
<g>
	
		<radialGradient id="SVGID_1_" cx="183.5724" cy="137.1872" r="294.5854" gradientTransform="matrix(1.2426 0 0 1.0878 -64.2808 -1.6443)" gradientUnits="userSpaceOnUse">
		<stop  offset="0" style="stop-color:#FFDA45"/>
		<stop  offset="0.4414" style="stop-color:#FFD844"/>
		<stop  offset="0.645" style="stop-color:#FFD03F"/>
		<stop  offset="0.7999" style="stop-color:#FFC438"/>
		<stop  offset="0.9293" style="stop-color:#FFB22D"/>
		<stop  offset="1" style="stop-color:#FFA425"/>
	</radialGradient>
	<path style="fill:url(#SVGID_1_);" d="M497.264,41.108C445.076,76.31,361.563,99.122,267.426,99.122S89.776,76.31,37.588,41.108
		c-5.206-3.514-12.736-0.316-12.736,5.439v156.863c0,110.283,70.478,211.298,182.546,261.664l38.83,17.46
		c6.66,2.992,13.929,4.482,21.198,4.482s14.538-1.49,21.198-4.482l38.83-17.46C439.522,414.708,510,313.694,510,203.411V46.547
		C510,40.793,502.47,37.595,497.264,41.108z"/>
	<linearGradient id="SVGID_2_" gradientUnits="userSpaceOnUse" x1="294.3512" y1="210.5419" x2="106.7715" y2="-4.623">
		<stop  offset="0" style="stop-color:#FFDA45;stop-opacity:0"/>
		<stop  offset="1" style="stop-color:#FCEE21"/>
	</linearGradient>
	<path style="fill:url(#SVGID_2_);" d="M267.426,481.469c-3.538,0-7.071-0.78-10.216-2.256l-40.25-18.903
		c-52.798-24.785-97.053-62.363-127.985-108.674s-47.282-99.473-47.282-153.736V58.233c59.635,32.202,139.841,50.287,225.733,50.287
		s166.1-18.085,225.733-50.286v139.665c0,54.263-16.35,107.425-47.282,153.736s-75.187,83.889-127.981,108.673l-40.263,18.909
		C274.497,480.689,270.964,481.469,267.426,481.469z"/>
	<linearGradient id="SVGID_3_" gradientUnits="userSpaceOnUse" x1="281.1391" y1="308.9486" x2="220.2749" y2="305.6572">
		<stop  offset="0" style="stop-color:#FFDA45;stop-opacity:0"/>
		<stop  offset="1" style="stop-color:#B53759"/>
	</linearGradient>
	<path style="fill:url(#SVGID_3_);" d="M236.609,127.654h-15.233V471.36l24.851,11.174c6.66,2.991,13.929,4.482,21.198,4.482
		s14.538-1.49,21.198-4.482l38.83-17.46c64.523-28.998,115.254-74.788,146.69-129.468L236.609,127.654z"/>
	<linearGradient id="SVGID_4_" gradientUnits="userSpaceOnUse" x1="440.7905" y1="396.746" x2="243.704" y2="349.1167">
		<stop  offset="0" style="stop-color:#FFDA45;stop-opacity:0"/>
		<stop  offset="1" style="stop-color:#B53759"/>
	</linearGradient>
	<path style="fill:url(#SVGID_4_);" d="M265.044,294.166l-0.763,153.222l34.784,30.451l28.389-12.765
		c80.245-36.064,139.16-98.099,166.152-170.908H265.044z"/>
	<g>
		<g>
			
				<radialGradient id="SVGID_5_" cx="109.2664" cy="82.6195" r="364.7672" gradientTransform="matrix(1.2426 0 0 1.0878 -64.2808 -1.6443)" gradientUnits="userSpaceOnUse">
				<stop  offset="0" style="stop-color:#FF7044"/>
				<stop  offset="0.3385" style="stop-color:#FF6D42"/>
				<stop  offset="0.5435" style="stop-color:#FE653D"/>
				<stop  offset="0.7128" style="stop-color:#FD5733"/>
				<stop  offset="0.8618" style="stop-color:#FB4326"/>
				<stop  offset="0.9977" style="stop-color:#F92914"/>
				<stop  offset="1" style="stop-color:#F92814"/>
			</radialGradient>
			<path style="fill:url(#SVGID_5_);" d="M494.165,1.447c-48.312,32.608-123.49,54.588-209.096,57.672
				c-11.624,0.419-20.788,8.819-20.788,19.004v99.732c0,2.137-0.412,4.259-1.219,6.276l-19.251,48.119
				c-4.939,12.346,5.527,25.264,20.47,25.264h0l14,21.481l-14,15.049v153.344c7.272,0,14.545-1.495,21.198-4.485l38.834-17.453
				c112.069-50.367,182.538-151.385,182.538-261.67V6.919C506.851,1.191,499.347-2.051,494.165,1.447z"/>
			<linearGradient id="SVGID_6_" gradientUnits="userSpaceOnUse" x1="350.7552" y1="190.3499" x2="244.9256" y2="1.8409">
				<stop  offset="0" style="stop-color:#FF7044;stop-opacity:0"/>
				<stop  offset="1" style="stop-color:#FFA425"/>
			</linearGradient>
			<path style="fill:url(#SVGID_6_);" d="M274.13,423.548l38.833-17.453c50.92-22.886,93.603-57.585,123.435-100.35
				C466.231,262.98,482,213.89,482,163.78V34.815c-57.516,29.735-134.872,46.433-217.718,46.433v176.266l17,17.611l-17,18.919
				v131.588C267.69,425.632,271.096,424.911,274.13,423.548z"/>
			<linearGradient id="SVGID_7_" gradientUnits="userSpaceOnUse" x1="333.2468" y1="316.526" x2="337.9135" y2="212.526">
				<stop  offset="0" style="stop-color:#FFDA45"/>
				<stop  offset="1" style="stop-color:#FFA425"/>
			</linearGradient>
			<path style="fill:url(#SVGID_7_);" d="M409.819,206.03c-29.184,43.81-83.43,51.485-145.537,51.485h0v36.481v0.048h0
				C338.158,294.044,399.311,268.147,409.819,206.03z"/>
			
				<linearGradient id="SVGID_8_" gradientUnits="userSpaceOnUse" x1="121.7988" y1="339.3557" x2="121.7988" y2="275.4685" gradientTransform="matrix(-1 0 0 -1 510 442.564)">
				<stop  offset="0" style="stop-color:#FFDA45"/>
				<stop  offset="1" style="stop-color:#FFA425"/>
			</linearGradient>
			<path style="fill:url(#SVGID_8_);" d="M388.201,137.421c25.783,0,48.301,17.662,60.416,43.941
				c-4.362-37.26-29.748-65.853-60.416-65.853s-56.054,28.592-60.416,65.853C339.9,155.083,362.419,137.421,388.201,137.421z"/>
		</g>
		<g>
			
				<radialGradient id="SVGID_9_" cx="109.6601" cy="161.1876" r="238.2159" gradientTransform="matrix(1.2426 0 0 1.0878 -64.2808 -1.6443)" gradientUnits="userSpaceOnUse">
				<stop  offset="0" style="stop-color:#18CFFC"/>
				<stop  offset="0.342" style="stop-color:#1BCCFC"/>
				<stop  offset="0.5745" style="stop-color:#23C3FB"/>
				<stop  offset="0.7745" style="stop-color:#31B4FA"/>
				<stop  offset="0.9551" style="stop-color:#449FF8"/>
				<stop  offset="1" style="stop-color:#4A98F7"/>
			</radialGradient>
			<path style="fill:url(#SVGID_9_);" d="M242.574,240.465v-99.728c0-10.211-9.209-18.586-20.863-19.007
				c-85.549-3.093-160.677-25.059-208.975-57.638C7.53,60.579,0,63.777,0,69.532v156.863c0,110.283,70.478,211.298,182.546,261.664
				l38.83,17.46c6.66,2.991,13.929,4.482,21.198,4.482V320.125h0c14.942,0,25.409-12.918,20.47-25.264l-19.251-48.119
				C242.986,244.725,242.574,242.603,242.574,240.465z"/>
			<linearGradient id="SVGID_10_" gradientUnits="userSpaceOnUse" x1="237.3948" y1="346.9874" x2="-22.7342" y2="59.9855">
				<stop  offset="0" style="stop-color:#18CFFC;stop-opacity:0"/>
				<stop  offset="1" style="stop-color:#65E1DC"/>
			</linearGradient>
			<path style="fill:url(#SVGID_10_);" d="M242.574,143.862v344.381c-3.405,0-6.809-0.718-9.854-2.089l-38.83-17.449
				c-50.92-22.888-93.603-57.589-123.437-100.351S24.851,276.5,24.851,226.395V97.423
				C82.37,127.164,159.732,143.862,242.574,143.862z"/>
			
				<linearGradient id="SVGID_11_" gradientUnits="userSpaceOnUse" x1="391.3457" y1="327.2172" x2="391.3457" y2="263.33" gradientTransform="matrix(-1 0 0 1 510 -70.9429)">
				<stop  offset="0" style="stop-color:#7E8595"/>
				<stop  offset="1" style="stop-color:#555A66"/>
			</linearGradient>
			<path style="fill:url(#SVGID_11_);" d="M118.654,222.061c25.783,0,48.301-17.662,60.416-43.941
				c-4.362,37.26-29.748,65.853-60.416,65.853S62.6,215.381,58.238,178.12C70.353,204.399,92.872,222.061,118.654,222.061z"/>
			<linearGradient id="SVGID_12_" gradientUnits="userSpaceOnUse" x1="170.3489" y1="379.1102" x2="169.3103" y2="350.3769">
				<stop  offset="0" style="stop-color:#7E8595"/>
				<stop  offset="1" style="stop-color:#555A66"/>
			</linearGradient>
			<path style="fill:url(#SVGID_12_);" d="M242.574,320.125v-0.048c-73.876,0-135.03,25.897-145.537,88.014
				c29.184-43.81,83.429-51.484,145.537-51.484V320.125z"/>
		</g>
	</g>
</g>
<g>
</g>
<g>
</g>
<g>
</g>
<g>
</g>
<g>
</g>
<g>
</g>
<g>
</g>
<g>
</g>
<g>
</g>
<g>
</g>
<g>
</g>
<g>
</g>
<g>
</g>
<g>
</g>
<g>
</g>
</svg>
