<?xml version="1.0" encoding="iso-8859-1"?>
<!-- Generator: Adobe Illustrator 22.0.0, SVG Export Plug-In . SVG Version: 6.00 Build 0)  -->
<svg version="1.1" id="Capa_1" xmlns="http://www.w3.org/2000/svg" xmlns:xlink="http://www.w3.org/1999/xlink" x="0px" y="0px"
	 viewBox="0 0 510 510" style="enable-background:new 0 0 510 510;" xml:space="preserve">
<g>
	<g>
		<path style="fill:#555A66;" d="M112.504,421.954L112.504,421.954c-4.791,0-8.676-3.884-8.676-8.675V96.722
			c0-4.791,3.884-8.675,8.676-8.675l0,0c4.791,0,8.675,3.884,8.675,8.675v316.557C121.179,418.07,117.295,421.954,112.504,421.954z"
			/>
		<path style="fill:#555A66;" d="M207.501,421.954L207.501,421.954c-4.791,0-8.675-3.884-8.675-8.675V96.722
			c0-4.791,3.884-8.675,8.675-8.675l0,0c4.791,0,8.675,3.884,8.675,8.675v316.557C216.177,418.07,212.293,421.954,207.501,421.954z"
			/>
		<path style="fill:#555A66;" d="M302.499,421.954L302.499,421.954c-4.791,0-8.675-3.884-8.675-8.675V96.722
			c0-4.791,3.884-8.675,8.675-8.675l0,0c4.791,0,8.675,3.884,8.675,8.675v316.557C311.174,418.07,307.29,421.954,302.499,421.954z"
			/>
		<path style="fill:#555A66;" d="M397.496,421.954L397.496,421.954c-4.791,0-8.676-3.884-8.676-8.675V96.722
			c0-4.791,3.884-8.675,8.676-8.675l0,0c4.791,0,8.676,3.884,8.676,8.675v316.557C406.172,418.07,402.287,421.954,397.496,421.954z"
			/>
	</g>
	<g>
		<linearGradient id="SVGID_1_" gradientUnits="userSpaceOnUse" x1="112.5006" y1="208.0695" x2="112.5006" y2="190.9296">
			<stop  offset="0" style="stop-color:#555A66;stop-opacity:0"/>
			<stop  offset="1" style="stop-color:#333333"/>
		</linearGradient>
		<rect x="103.827" y="177.871" style="fill:url(#SVGID_1_);" width="17.348" height="35.908"/>
		<linearGradient id="SVGID_2_" gradientUnits="userSpaceOnUse" x1="207.5043" y1="208.0695" x2="207.5043" y2="190.9296">
			<stop  offset="0" style="stop-color:#555A66;stop-opacity:0"/>
			<stop  offset="1" style="stop-color:#333333"/>
		</linearGradient>
		<rect x="198.83" y="177.871" style="fill:url(#SVGID_2_);" width="17.348" height="35.908"/>
		<linearGradient id="SVGID_3_" gradientUnits="userSpaceOnUse" x1="302.4957" y1="208.0695" x2="302.4957" y2="190.9296">
			<stop  offset="0" style="stop-color:#555A66;stop-opacity:0"/>
			<stop  offset="1" style="stop-color:#333333"/>
		</linearGradient>
		<rect x="293.822" y="177.871" style="fill:url(#SVGID_3_);" width="17.348" height="35.908"/>
		<linearGradient id="SVGID_4_" gradientUnits="userSpaceOnUse" x1="397.4994" y1="208.0695" x2="397.4994" y2="190.9296">
			<stop  offset="0" style="stop-color:#555A66;stop-opacity:0"/>
			<stop  offset="1" style="stop-color:#333333"/>
		</linearGradient>
		<rect x="388.825" y="177.871" style="fill:url(#SVGID_4_);" width="17.348" height="35.908"/>
	</g>
	<g>
		<linearGradient id="SVGID_5_" gradientUnits="userSpaceOnUse" x1="112.5006" y1="330.2419" x2="112.5006" y2="313.102">
			<stop  offset="0" style="stop-color:#555A66;stop-opacity:0"/>
			<stop  offset="1" style="stop-color:#333333"/>
		</linearGradient>
		<rect x="103.827" y="300.043" style="fill:url(#SVGID_5_);" width="17.348" height="35.908"/>
		<linearGradient id="SVGID_6_" gradientUnits="userSpaceOnUse" x1="207.5043" y1="330.2419" x2="207.5043" y2="313.102">
			<stop  offset="0" style="stop-color:#555A66;stop-opacity:0"/>
			<stop  offset="1" style="stop-color:#333333"/>
		</linearGradient>
		<rect x="198.83" y="300.043" style="fill:url(#SVGID_6_);" width="17.348" height="35.908"/>
		<linearGradient id="SVGID_7_" gradientUnits="userSpaceOnUse" x1="302.4957" y1="330.2419" x2="302.4957" y2="313.102">
			<stop  offset="0" style="stop-color:#555A66;stop-opacity:0"/>
			<stop  offset="1" style="stop-color:#333333"/>
		</linearGradient>
		<rect x="293.822" y="300.043" style="fill:url(#SVGID_7_);" width="17.348" height="35.908"/>
		<linearGradient id="SVGID_8_" gradientUnits="userSpaceOnUse" x1="397.4994" y1="330.2419" x2="397.4994" y2="313.102">
			<stop  offset="0" style="stop-color:#555A66;stop-opacity:0"/>
			<stop  offset="1" style="stop-color:#333333"/>
		</linearGradient>
		<rect x="388.825" y="300.043" style="fill:url(#SVGID_8_);" width="17.348" height="35.908"/>
	</g>
	<g>
		<linearGradient id="SVGID_9_" gradientUnits="userSpaceOnUse" x1="112.5006" y1="399.4134" x2="112.5006" y2="382.2735">
			<stop  offset="0" style="stop-color:#555A66;stop-opacity:0"/>
			<stop  offset="1" style="stop-color:#333333"/>
		</linearGradient>
		<rect x="103.827" y="369.215" style="fill:url(#SVGID_9_);" width="17.348" height="35.908"/>
		<linearGradient id="SVGID_10_" gradientUnits="userSpaceOnUse" x1="207.5043" y1="273.6143" x2="207.5043" y2="256.4745">
			<stop  offset="0" style="stop-color:#555A66;stop-opacity:0"/>
			<stop  offset="1" style="stop-color:#333333"/>
		</linearGradient>
		<rect x="198.83" y="243.416" style="fill:url(#SVGID_10_);" width="17.348" height="35.908"/>
		<linearGradient id="SVGID_11_" gradientUnits="userSpaceOnUse" x1="302.4957" y1="399.4134" x2="302.4957" y2="382.2735">
			<stop  offset="0" style="stop-color:#555A66;stop-opacity:0"/>
			<stop  offset="1" style="stop-color:#333333"/>
		</linearGradient>
		<rect x="293.822" y="369.215" style="fill:url(#SVGID_11_);" width="17.348" height="35.908"/>
		<linearGradient id="SVGID_12_" gradientUnits="userSpaceOnUse" x1="397.4994" y1="273.6143" x2="397.4994" y2="256.4745">
			<stop  offset="0" style="stop-color:#555A66;stop-opacity:0"/>
			<stop  offset="1" style="stop-color:#333333"/>
		</linearGradient>
		<rect x="388.825" y="243.416" style="fill:url(#SVGID_12_);" width="17.348" height="35.908"/>
	</g>
	<g>
		<linearGradient id="SVGID_13_" gradientUnits="userSpaceOnUse" x1="112.5006" y1="180.8371" x2="112.5006" y2="163.6972">
			<stop  offset="0" style="stop-color:#555A66;stop-opacity:0"/>
			<stop  offset="1" style="stop-color:#333333"/>
		</linearGradient>
		<rect x="103.827" y="150.638" style="fill:url(#SVGID_13_);" width="17.348" height="35.908"/>
		<linearGradient id="SVGID_14_" gradientUnits="userSpaceOnUse" x1="207.5043" y1="180.8371" x2="207.5043" y2="163.6972">
			<stop  offset="0" style="stop-color:#555A66;stop-opacity:0"/>
			<stop  offset="1" style="stop-color:#333333"/>
		</linearGradient>
		<rect x="198.83" y="150.638" style="fill:url(#SVGID_14_);" width="17.348" height="35.908"/>
		<linearGradient id="SVGID_15_" gradientUnits="userSpaceOnUse" x1="302.4957" y1="180.8371" x2="302.4957" y2="163.6972">
			<stop  offset="0" style="stop-color:#555A66;stop-opacity:0"/>
			<stop  offset="1" style="stop-color:#333333"/>
		</linearGradient>
		<rect x="293.822" y="150.638" style="fill:url(#SVGID_15_);" width="17.348" height="35.908"/>
		<linearGradient id="SVGID_16_" gradientUnits="userSpaceOnUse" x1="397.4994" y1="180.8371" x2="397.4994" y2="163.6972">
			<stop  offset="0" style="stop-color:#555A66;stop-opacity:0"/>
			<stop  offset="1" style="stop-color:#333333"/>
		</linearGradient>
		<rect x="388.825" y="150.638" style="fill:url(#SVGID_16_);" width="17.348" height="35.908"/>
	</g>
	<path style="fill:#555A66;" d="M13.947,178.19v-0.639c0-4.615,3.741-8.356,8.356-8.356h465.393c4.615,0,8.356,3.741,8.356,8.356
		v0.639c0,4.615-3.741,8.356-8.356,8.356H22.303C17.688,186.546,13.947,182.805,13.947,178.19z"/>
	<linearGradient id="SVGID_17_" gradientUnits="userSpaceOnUse" x1="122.6926" y1="31.6728" x2="442.0031" y2="570.6501">
		<stop  offset="0" style="stop-color:#FFDAAA"/>
		<stop  offset="0.4213" style="stop-color:#FFD8A8"/>
		<stop  offset="0.6519" style="stop-color:#FED1A0"/>
		<stop  offset="0.8359" style="stop-color:#FDC592"/>
		<stop  offset="0.9951" style="stop-color:#FCB47F"/>
		<stop  offset="1" style="stop-color:#FCB37E"/>
	</linearGradient>
	<path style="fill:url(#SVGID_17_);" d="M491.005,45.686H18.995C8.504,45.686,0,55.321,0,67.209v375.583
		c0,11.888,8.504,21.523,18.995,21.523h472.009c10.492,0,18.995-9.635,18.995-21.523V67.209
		C510,55.321,501.496,45.686,491.005,45.686z M458.795,398.032c0,9.745-6.969,17.642-15.57,17.642H66.775
		c-8.601,0-15.57-7.896-15.57-17.642V111.968c0-9.745,6.969-17.642,15.57-17.642h376.449c8.601,0,15.57,7.896,15.57,17.642V398.032z
		"/>
	
		<linearGradient id="SVGID_18_" gradientUnits="userSpaceOnUse" x1="-1993.3467" y1="-2076.1382" x2="-1702.9022" y2="-1585.885" gradientTransform="matrix(-1 0 0 -1 -1618 -1618)">
		<stop  offset="0" style="stop-color:#FFDAAA"/>
		<stop  offset="0.4213" style="stop-color:#FFD8A8"/>
		<stop  offset="0.6519" style="stop-color:#FED1A0"/>
		<stop  offset="0.8359" style="stop-color:#FDC592"/>
		<stop  offset="0.9951" style="stop-color:#FCB47F"/>
		<stop  offset="1" style="stop-color:#FCB37E"/>
	</linearGradient>
	<path style="fill:url(#SVGID_18_);" d="M38.671,444.407h432.657c9.552,0,17.299-8.778,17.299-19.601V85.193
		c0-10.823-7.747-19.601-17.299-19.601H38.671c-9.552,0-17.299,8.778-17.299,19.601v339.614
		C21.372,435.629,29.12,444.407,38.671,444.407z M51.205,111.968c0-9.745,6.969-17.642,15.57-17.642h376.449
		c8.601,0,15.57,7.896,15.57,17.642v286.064c0,9.745-6.969,17.642-15.57,17.642H66.775c-8.601,0-15.57-7.896-15.57-17.642V111.968z"
		/>
	<g>
		<linearGradient id="SVGID_19_" gradientUnits="userSpaceOnUse" x1="102.2626" y1="124.6896" x2="137.7141" y2="160.1411">
			<stop  offset="0" style="stop-color:#FF7044"/>
			<stop  offset="1" style="stop-color:#F92814"/>
		</linearGradient>
		<ellipse style="fill:url(#SVGID_19_);" cx="112.504" cy="134.931" rx="32.206" ry="21.47"/>
		<linearGradient id="SVGID_20_" gradientUnits="userSpaceOnUse" x1="115.5684" y1="139.2754" x2="99.8099" y2="116.9343">
			<stop  offset="0" style="stop-color:#FF7044;stop-opacity:0"/>
			<stop  offset="1" style="stop-color:#FFA425"/>
		</linearGradient>
		<ellipse style="fill:url(#SVGID_20_);" cx="112.504" cy="134.931" rx="26.878" ry="17.919"/>
		<linearGradient id="SVGID_21_" gradientUnits="userSpaceOnUse" x1="112.9127" y1="144.0059" x2="146.3001" y2="81.91">
			<stop  offset="0" style="stop-color:#F92814;stop-opacity:0"/>
			<stop  offset="1" style="stop-color:#C1272D"/>
		</linearGradient>
		<path style="fill:url(#SVGID_21_);" d="M126.911,115.725c2.172,2.89,3.397,6.151,3.397,9.604c0,11.857-14.419,21.47-32.206,21.47
			c-5.179,0-10.071-0.816-14.407-2.264c5.288,7.036,16.202,11.866,28.809,11.866c17.787,0,32.206-9.612,32.206-21.47
			C144.71,126.526,137.464,119.251,126.911,115.725z"/>
	</g>
	<g>
		<linearGradient id="SVGID_22_" gradientUnits="userSpaceOnUse" x1="102.2626" y1="278.862" x2="137.7141" y2="314.3134">
			<stop  offset="0" style="stop-color:#FF7044"/>
			<stop  offset="1" style="stop-color:#F92814"/>
		</linearGradient>
		<ellipse style="fill:url(#SVGID_22_);" cx="112.504" cy="289.103" rx="32.206" ry="21.47"/>
		<linearGradient id="SVGID_23_" gradientUnits="userSpaceOnUse" x1="115.5684" y1="293.4478" x2="99.8099" y2="271.1067">
			<stop  offset="0" style="stop-color:#FF7044;stop-opacity:0"/>
			<stop  offset="1" style="stop-color:#FFA425"/>
		</linearGradient>
		<ellipse style="fill:url(#SVGID_23_);" cx="112.504" cy="289.103" rx="26.878" ry="17.919"/>
		<linearGradient id="SVGID_24_" gradientUnits="userSpaceOnUse" x1="112.9127" y1="298.1783" x2="146.3001" y2="236.0824">
			<stop  offset="0" style="stop-color:#F92814;stop-opacity:0"/>
			<stop  offset="1" style="stop-color:#C1272D"/>
		</linearGradient>
		<path style="fill:url(#SVGID_24_);" d="M126.911,269.898c2.172,2.89,3.397,6.151,3.397,9.604c0,11.858-14.419,21.47-32.206,21.47
			c-5.179,0-10.071-0.816-14.407-2.264c5.288,7.036,16.202,11.866,28.809,11.866c17.787,0,32.206-9.612,32.206-21.47
			C144.71,280.698,137.464,273.423,126.911,269.898z"/>
	</g>
	<g>
		<linearGradient id="SVGID_25_" gradientUnits="userSpaceOnUse" x1="102.2626" y1="347.4213" x2="137.7141" y2="382.8728">
			<stop  offset="0" style="stop-color:#FF7044"/>
			<stop  offset="1" style="stop-color:#F92814"/>
		</linearGradient>
		<ellipse style="fill:url(#SVGID_25_);" cx="112.504" cy="357.663" rx="32.206" ry="21.47"/>
		<linearGradient id="SVGID_26_" gradientUnits="userSpaceOnUse" x1="115.5684" y1="362.0071" x2="99.8099" y2="339.666">
			<stop  offset="0" style="stop-color:#FF7044;stop-opacity:0"/>
			<stop  offset="1" style="stop-color:#FFA425"/>
		</linearGradient>
		<ellipse style="fill:url(#SVGID_26_);" cx="112.504" cy="357.663" rx="26.878" ry="17.919"/>
		<linearGradient id="SVGID_27_" gradientUnits="userSpaceOnUse" x1="112.9127" y1="366.7376" x2="146.3002" y2="304.6417">
			<stop  offset="0" style="stop-color:#F92814;stop-opacity:0"/>
			<stop  offset="1" style="stop-color:#C1272D"/>
		</linearGradient>
		<path style="fill:url(#SVGID_27_);" d="M126.911,338.457c2.172,2.89,3.397,6.152,3.397,9.604c0,11.857-14.419,21.47-32.206,21.47
			c-5.179,0-10.071-0.816-14.407-2.264c5.288,7.035,16.202,11.866,28.809,11.866c17.787,0,32.206-9.612,32.206-21.47
			C144.71,349.258,137.464,341.982,126.911,338.457z"/>
	</g>
	<g>
		<linearGradient id="SVGID_28_" gradientUnits="userSpaceOnUse" x1="197.2599" y1="124.6896" x2="232.7114" y2="160.1411">
			<stop  offset="0" style="stop-color:#FFDA45"/>
			<stop  offset="1" style="stop-color:#FFA425"/>
		</linearGradient>
		<ellipse style="fill:url(#SVGID_28_);" cx="207.501" cy="134.931" rx="32.206" ry="21.47"/>
		<linearGradient id="SVGID_29_" gradientUnits="userSpaceOnUse" x1="210.5657" y1="139.2754" x2="194.8072" y2="116.9343">
			<stop  offset="0" style="stop-color:#FFDA45;stop-opacity:0"/>
			<stop  offset="1" style="stop-color:#FCEE21"/>
		</linearGradient>
		<ellipse style="fill:url(#SVGID_29_);" cx="207.501" cy="134.931" rx="26.878" ry="17.919"/>
		<linearGradient id="SVGID_30_" gradientUnits="userSpaceOnUse" x1="207.91" y1="144.0059" x2="241.2974" y2="81.91">
			<stop  offset="0" style="stop-color:#FFDA45;stop-opacity:0"/>
			<stop  offset="1" style="stop-color:#B53759"/>
		</linearGradient>
		<path style="fill:url(#SVGID_30_);" d="M221.908,115.725c2.172,2.89,3.396,6.151,3.396,9.604c0,11.857-14.419,21.47-32.206,21.47
			c-5.179,0-10.071-0.816-14.407-2.264c5.288,7.036,16.202,11.866,28.809,11.866c17.787,0,32.206-9.612,32.206-21.47
			C239.707,126.526,232.461,119.251,221.908,115.725z"/>
	</g>
	<g>
		<linearGradient id="SVGID_31_" gradientUnits="userSpaceOnUse" x1="197.2599" y1="278.862" x2="232.7114" y2="314.3135">
			<stop  offset="0" style="stop-color:#FFDA45"/>
			<stop  offset="1" style="stop-color:#FFA425"/>
		</linearGradient>
		<ellipse style="fill:url(#SVGID_31_);" cx="207.501" cy="289.103" rx="32.206" ry="21.47"/>
		<linearGradient id="SVGID_32_" gradientUnits="userSpaceOnUse" x1="210.5657" y1="293.4478" x2="194.8072" y2="271.1067">
			<stop  offset="0" style="stop-color:#FFDA45;stop-opacity:0"/>
			<stop  offset="1" style="stop-color:#FCEE21"/>
		</linearGradient>
		<ellipse style="fill:url(#SVGID_32_);" cx="207.501" cy="289.103" rx="26.878" ry="17.919"/>
		<linearGradient id="SVGID_33_" gradientUnits="userSpaceOnUse" x1="207.91" y1="298.1783" x2="241.2974" y2="236.0824">
			<stop  offset="0" style="stop-color:#FFDA45;stop-opacity:0"/>
			<stop  offset="1" style="stop-color:#B53759"/>
		</linearGradient>
		<path style="fill:url(#SVGID_33_);" d="M221.908,269.898c2.172,2.89,3.396,6.151,3.396,9.604c0,11.858-14.419,21.47-32.206,21.47
			c-5.179,0-10.071-0.816-14.407-2.264c5.288,7.036,16.202,11.866,28.809,11.866c17.787,0,32.206-9.612,32.206-21.47
			C239.707,280.698,232.461,273.423,221.908,269.898z"/>
	</g>
	<g>
		<linearGradient id="SVGID_34_" gradientUnits="userSpaceOnUse" x1="197.2599" y1="216.8484" x2="232.7114" y2="252.2999">
			<stop  offset="0" style="stop-color:#FFDA45"/>
			<stop  offset="1" style="stop-color:#FFA425"/>
		</linearGradient>
		<ellipse style="fill:url(#SVGID_34_);" cx="207.501" cy="227.09" rx="32.206" ry="21.47"/>
		<linearGradient id="SVGID_35_" gradientUnits="userSpaceOnUse" x1="210.5657" y1="231.4342" x2="194.8072" y2="209.0931">
			<stop  offset="0" style="stop-color:#FFDA45;stop-opacity:0"/>
			<stop  offset="1" style="stop-color:#FCEE21"/>
		</linearGradient>
		<ellipse style="fill:url(#SVGID_35_);" cx="207.501" cy="227.09" rx="26.878" ry="17.918"/>
		<linearGradient id="SVGID_36_" gradientUnits="userSpaceOnUse" x1="207.91" y1="236.1647" x2="241.2975" y2="174.0688">
			<stop  offset="0" style="stop-color:#FFDA45;stop-opacity:0"/>
			<stop  offset="1" style="stop-color:#B53759"/>
		</linearGradient>
		<path style="fill:url(#SVGID_36_);" d="M221.908,207.884c2.172,2.89,3.396,6.152,3.396,9.604c0,11.857-14.419,21.47-32.206,21.47
			c-5.179,0-10.071-0.816-14.407-2.264c5.288,7.035,16.202,11.866,28.809,11.866c17.787,0,32.206-9.612,32.206-21.47
			C239.707,218.685,232.461,211.409,221.908,207.884z"/>
	</g>
	<g>
		<linearGradient id="SVGID_37_" gradientUnits="userSpaceOnUse" x1="292.2572" y1="124.6896" x2="327.7087" y2="160.1411">
			<stop  offset="0" style="stop-color:#92F37F"/>
			<stop  offset="1" style="stop-color:#4AB272"/>
		</linearGradient>
		<ellipse style="fill:url(#SVGID_37_);" cx="302.499" cy="134.931" rx="32.206" ry="21.47"/>
		<linearGradient id="SVGID_38_" gradientUnits="userSpaceOnUse" x1="305.563" y1="139.2754" x2="289.8045" y2="116.9343">
			<stop  offset="0" style="stop-color:#92F37F;stop-opacity:0"/>
			<stop  offset="1" style="stop-color:#FFEE83"/>
		</linearGradient>
		<ellipse style="fill:url(#SVGID_38_);" cx="302.499" cy="134.931" rx="26.878" ry="17.919"/>
		<linearGradient id="SVGID_39_" gradientUnits="userSpaceOnUse" x1="302.9074" y1="144.0059" x2="336.2948" y2="81.91">
			<stop  offset="0" style="stop-color:#4AB272;stop-opacity:0"/>
			<stop  offset="1" style="stop-color:#009245"/>
		</linearGradient>
		<path style="fill:url(#SVGID_39_);" d="M316.905,115.725c2.172,2.89,3.397,6.151,3.397,9.604c0,11.857-14.419,21.47-32.206,21.47
			c-5.179,0-10.072-0.816-14.407-2.264c5.288,7.036,16.202,11.866,28.809,11.866c17.787,0,32.206-9.612,32.206-21.47
			C334.704,126.526,327.459,119.251,316.905,115.725z"/>
	</g>
	<g>
		<linearGradient id="SVGID_40_" gradientUnits="userSpaceOnUse" x1="292.2572" y1="278.862" x2="327.7087" y2="314.3135">
			<stop  offset="0" style="stop-color:#92F37F"/>
			<stop  offset="1" style="stop-color:#4AB272"/>
		</linearGradient>
		<ellipse style="fill:url(#SVGID_40_);" cx="302.499" cy="289.103" rx="32.206" ry="21.47"/>
		<linearGradient id="SVGID_41_" gradientUnits="userSpaceOnUse" x1="305.563" y1="293.4478" x2="289.8045" y2="271.1067">
			<stop  offset="0" style="stop-color:#92F37F;stop-opacity:0"/>
			<stop  offset="1" style="stop-color:#FFEE83"/>
		</linearGradient>
		<ellipse style="fill:url(#SVGID_41_);" cx="302.499" cy="289.103" rx="26.878" ry="17.919"/>
		<linearGradient id="SVGID_42_" gradientUnits="userSpaceOnUse" x1="302.9074" y1="298.1783" x2="336.2948" y2="236.0824">
			<stop  offset="0" style="stop-color:#4AB272;stop-opacity:0"/>
			<stop  offset="1" style="stop-color:#009245"/>
		</linearGradient>
		<path style="fill:url(#SVGID_42_);" d="M316.905,269.898c2.172,2.89,3.397,6.151,3.397,9.604c0,11.858-14.419,21.47-32.206,21.47
			c-5.179,0-10.072-0.816-14.407-2.264c5.288,7.036,16.202,11.866,28.809,11.866c17.787,0,32.206-9.612,32.206-21.47
			C334.704,280.698,327.459,273.423,316.905,269.898z"/>
	</g>
	<g>
		<linearGradient id="SVGID_43_" gradientUnits="userSpaceOnUse" x1="292.2572" y1="347.4213" x2="327.7087" y2="382.8728">
			<stop  offset="0" style="stop-color:#92F37F"/>
			<stop  offset="1" style="stop-color:#4AB272"/>
		</linearGradient>
		<ellipse style="fill:url(#SVGID_43_);" cx="302.499" cy="357.663" rx="32.206" ry="21.47"/>
		<linearGradient id="SVGID_44_" gradientUnits="userSpaceOnUse" x1="305.563" y1="362.0071" x2="289.8045" y2="339.666">
			<stop  offset="0" style="stop-color:#92F37F;stop-opacity:0"/>
			<stop  offset="1" style="stop-color:#FFEE83"/>
		</linearGradient>
		<ellipse style="fill:url(#SVGID_44_);" cx="302.499" cy="357.663" rx="26.878" ry="17.919"/>
		<linearGradient id="SVGID_45_" gradientUnits="userSpaceOnUse" x1="302.9074" y1="366.7376" x2="336.2949" y2="304.6417">
			<stop  offset="0" style="stop-color:#4AB272;stop-opacity:0"/>
			<stop  offset="1" style="stop-color:#009245"/>
		</linearGradient>
		<path style="fill:url(#SVGID_45_);" d="M316.905,338.457c2.172,2.89,3.397,6.152,3.397,9.604c0,11.857-14.419,21.47-32.206,21.47
			c-5.179,0-10.072-0.816-14.407-2.264c5.288,7.035,16.202,11.866,28.809,11.866c17.787,0,32.206-9.612,32.206-21.47
			C334.704,349.258,327.459,341.982,316.905,338.457z"/>
	</g>
	<g>
		<linearGradient id="SVGID_46_" gradientUnits="userSpaceOnUse" x1="387.2545" y1="124.6896" x2="422.706" y2="160.1411">
			<stop  offset="0" style="stop-color:#18CFFC"/>
			<stop  offset="1" style="stop-color:#4A98F7"/>
		</linearGradient>
		<ellipse style="fill:url(#SVGID_46_);" cx="397.496" cy="134.931" rx="32.206" ry="21.47"/>
		<linearGradient id="SVGID_47_" gradientUnits="userSpaceOnUse" x1="400.5603" y1="139.2754" x2="384.8018" y2="116.9343">
			<stop  offset="0" style="stop-color:#18CFFC;stop-opacity:0"/>
			<stop  offset="1" style="stop-color:#65E1DC"/>
		</linearGradient>
		<ellipse style="fill:url(#SVGID_47_);" cx="397.496" cy="134.931" rx="26.878" ry="17.919"/>
		<linearGradient id="SVGID_48_" gradientUnits="userSpaceOnUse" x1="397.9047" y1="144.0059" x2="431.2921" y2="81.91">
			<stop  offset="0" style="stop-color:#0469BC;stop-opacity:0"/>
			<stop  offset="1" style="stop-color:#0469BC"/>
		</linearGradient>
		<path style="fill:url(#SVGID_48_);" d="M411.902,115.725c2.172,2.89,3.397,6.151,3.397,9.604c0,11.857-14.419,21.47-32.206,21.47
			c-5.179,0-10.072-0.816-14.407-2.264c5.288,7.036,16.202,11.866,28.809,11.866c17.787,0,32.206-9.612,32.206-21.47
			C429.702,126.526,422.456,119.251,411.902,115.725z"/>
	</g>
	<g>
		<linearGradient id="SVGID_49_" gradientUnits="userSpaceOnUse" x1="387.2545" y1="278.862" x2="422.706" y2="314.3134">
			<stop  offset="0" style="stop-color:#18CFFC"/>
			<stop  offset="1" style="stop-color:#4A98F7"/>
		</linearGradient>
		<ellipse style="fill:url(#SVGID_49_);" cx="397.496" cy="289.103" rx="32.206" ry="21.47"/>
		<linearGradient id="SVGID_50_" gradientUnits="userSpaceOnUse" x1="400.5603" y1="293.4478" x2="384.8018" y2="271.1067">
			<stop  offset="0" style="stop-color:#18CFFC;stop-opacity:0"/>
			<stop  offset="1" style="stop-color:#65E1DC"/>
		</linearGradient>
		<ellipse style="fill:url(#SVGID_50_);" cx="397.496" cy="289.103" rx="26.878" ry="17.919"/>
		<linearGradient id="SVGID_51_" gradientUnits="userSpaceOnUse" x1="397.9047" y1="298.1783" x2="431.2921" y2="236.0824">
			<stop  offset="0" style="stop-color:#0469BC;stop-opacity:0"/>
			<stop  offset="1" style="stop-color:#0469BC"/>
		</linearGradient>
		<path style="fill:url(#SVGID_51_);" d="M411.902,269.898c2.172,2.89,3.397,6.151,3.397,9.604c0,11.858-14.419,21.47-32.206,21.47
			c-5.179,0-10.072-0.816-14.407-2.264c5.288,7.036,16.202,11.866,28.809,11.866c17.787,0,32.206-9.612,32.206-21.47
			C429.702,280.698,422.456,273.423,411.902,269.898z"/>
	</g>
	<g>
		<linearGradient id="SVGID_52_" gradientUnits="userSpaceOnUse" x1="387.2545" y1="217.9806" x2="422.706" y2="253.4321">
			<stop  offset="0" style="stop-color:#18CFFC"/>
			<stop  offset="1" style="stop-color:#4A98F7"/>
		</linearGradient>
		<ellipse style="fill:url(#SVGID_52_);" cx="397.496" cy="228.222" rx="32.206" ry="21.47"/>
		<linearGradient id="SVGID_53_" gradientUnits="userSpaceOnUse" x1="400.5603" y1="232.5664" x2="384.8018" y2="210.2253">
			<stop  offset="0" style="stop-color:#18CFFC;stop-opacity:0"/>
			<stop  offset="1" style="stop-color:#65E1DC"/>
		</linearGradient>
		<ellipse style="fill:url(#SVGID_53_);" cx="397.496" cy="228.222" rx="26.878" ry="17.919"/>
		<linearGradient id="SVGID_54_" gradientUnits="userSpaceOnUse" x1="397.9047" y1="237.2969" x2="431.2921" y2="175.201">
			<stop  offset="0" style="stop-color:#0469BC;stop-opacity:0"/>
			<stop  offset="1" style="stop-color:#0469BC"/>
		</linearGradient>
		<path style="fill:url(#SVGID_54_);" d="M411.902,209.016c2.172,2.89,3.397,6.151,3.397,9.604c0,11.857-14.419,21.47-32.206,21.47
			c-5.179,0-10.072-0.816-14.407-2.264c5.288,7.036,16.202,11.866,28.809,11.866c17.787,0,32.206-9.612,32.206-21.47
			C429.702,219.817,422.456,212.542,411.902,209.016z"/>
	</g>
</g>
<g>
</g>
<g>
</g>
<g>
</g>
<g>
</g>
<g>
</g>
<g>
</g>
<g>
</g>
<g>
</g>
<g>
</g>
<g>
</g>
<g>
</g>
<g>
</g>
<g>
</g>
<g>
</g>
<g>
</g>
</svg>
