<?xml version="1.0" encoding="iso-8859-1"?>
<!-- Generator: Adobe Illustrator 22.0.0, SVG Export Plug-In . SVG Version: 6.00 Build 0)  -->
<svg version="1.1" id="Capa_1" xmlns="http://www.w3.org/2000/svg" xmlns:xlink="http://www.w3.org/1999/xlink" x="0px" y="0px"
	 viewBox="0 0 510 510" style="enable-background:new 0 0 510 510;" xml:space="preserve">
<g>
	<g>
		<linearGradient id="SVGID_1_" gradientUnits="userSpaceOnUse" x1="263.3621" y1="301.1979" x2="443.0161" y2="627.1926">
			<stop  offset="0" style="stop-color:#7E8595"/>
			<stop  offset="1" style="stop-color:#555A66"/>
		</linearGradient>
		<path style="fill:url(#SVGID_1_);" d="M453.332,510H56.668c-9.559,0-17.308-7.749-17.308-17.308V79.357
			c0-9.559,7.749-17.308,17.308-17.308h396.664c9.559,0,17.308,7.749,17.308,17.308v413.335C470.64,502.251,462.891,510,453.332,510
			z"/>
		<linearGradient id="SVGID_2_" gradientUnits="userSpaceOnUse" x1="261.6341" y1="300.3163" x2="66.8342" y2="-119.3452">
			<stop  offset="0" style="stop-color:#7E8595"/>
			<stop  offset="1" style="stop-color:#555A66"/>
		</linearGradient>
		<path style="fill:url(#SVGID_2_);" d="M444.087,498.253H65.913c-9.113,0-16.501-7.388-16.501-16.501V90.297
			c0-9.113,7.388-16.501,16.501-16.501h378.173c9.113,0,16.501,7.388,16.501,16.501v391.454
			C460.588,490.865,453.2,498.253,444.087,498.253z"/>
		<linearGradient id="SVGID_3_" gradientUnits="userSpaceOnUse" x1="226.934" y1="292.4404" x2="522.0823" y2="681.4522">
			<stop  offset="0" style="stop-color:#7E8595"/>
			<stop  offset="1" style="stop-color:#555A66"/>
		</linearGradient>
		<path style="fill:url(#SVGID_3_);" d="M428.38,482.833H81.62c-7.554,0-13.678-6.124-13.678-13.678V189.709
			c0-7.554,6.124-13.678,13.678-13.678h346.76c7.554,0,13.678,6.124,13.678,13.678v279.446
			C442.058,476.709,435.934,482.833,428.38,482.833z"/>
		<g>
			<linearGradient id="SVGID_4_" gradientUnits="userSpaceOnUse" x1="236.9033" y1="34.3436" x2="333.4633" y2="278.6322">
				<stop  offset="0" style="stop-color:#7E8595"/>
				<stop  offset="1" style="stop-color:#555A66"/>
			</linearGradient>
			<path style="fill:url(#SVGID_4_);" d="M452.181,160.253H57.819c-10.194,0-18.458-8.264-18.458-18.458V18.458
				C39.36,8.264,47.624,0,57.819,0h394.363c10.194,0,18.458,8.264,18.458,18.458v123.336
				C470.64,151.989,462.376,160.253,452.181,160.253z"/>
			<linearGradient id="SVGID_5_" gradientUnits="userSpaceOnUse" x1="391.9508" y1="217.0774" x2="0.0758" y2="-174.7975">
				<stop  offset="0" style="stop-color:#7E8595"/>
				<stop  offset="1" style="stop-color:#555A66"/>
			</linearGradient>
			<path style="fill:url(#SVGID_5_);" d="M442.86,150.899H67.14c-9.791,0-17.728-7.937-17.728-17.728V27.082
				c0-9.791,7.937-17.728,17.728-17.728H442.86c9.791,0,17.728,7.937,17.728,17.728v106.089
				C460.588,142.962,452.651,150.899,442.86,150.899z"/>
			<g>
				<linearGradient id="SVGID_6_" gradientUnits="userSpaceOnUse" x1="241.159" y1="45.1101" x2="315.0116" y2="231.9509">
					<stop  offset="0" style="stop-color:#18CFFC"/>
					<stop  offset="1" style="stop-color:#4A98F7"/>
				</linearGradient>
				<path style="fill:url(#SVGID_6_);" d="M427.217,132.895H82.783c-8.196,0-14.841-6.644-14.841-14.841V42.199
					c0-8.196,6.644-14.841,14.841-14.841h344.434c8.196,0,14.841,6.644,14.841,14.841v75.855
					C442.058,126.25,435.413,132.895,427.217,132.895z"/>
				<g>
					<linearGradient id="SVGID_7_" gradientUnits="userSpaceOnUse" x1="100.8794" y1="80.1267" x2="54.4351" y2="80.1267">
						<stop  offset="0" style="stop-color:#0469BC;stop-opacity:0"/>
						<stop  offset="1" style="stop-color:#0469BC"/>
					</linearGradient>
					<path style="fill:url(#SVGID_7_);" d="M115.969,27.358H82.783c-8.196,0-14.841,6.644-14.841,14.841v75.855
						c0,8.196,6.644,14.841,14.841,14.841h33.186V27.358z"/>
					<linearGradient id="SVGID_8_" gradientUnits="userSpaceOnUse" x1="255" y1="62.1133" x2="255" y2="13.0181">
						<stop  offset="0" style="stop-color:#0469BC;stop-opacity:0"/>
						<stop  offset="1" style="stop-color:#0469BC"/>
					</linearGradient>
					<path style="fill:url(#SVGID_8_);" d="M427.217,27.358H82.783c-8.196,0-14.841,6.644-14.841,14.841v26.879h374.116V42.199
						C442.058,34.003,435.414,27.358,427.217,27.358z"/>
				</g>
				<linearGradient id="SVGID_9_" gradientUnits="userSpaceOnUse" x1="263.3875" y1="89.5496" x2="314.1713" y2="-111.8347">
					<stop  offset="0" style="stop-color:#0469BC;stop-opacity:0"/>
					<stop  offset="1" style="stop-color:#0469BC"/>
				</linearGradient>
				<path style="fill:url(#SVGID_9_);" d="M81.711,132.895h344.434c8.196,0,14.841-6.645,14.841-14.841V42.199
					c0-3.987-1.581-7.6-4.139-10.266L69.014,125.709C71.613,130.01,76.319,132.895,81.711,132.895z"/>
			</g>
			<linearGradient id="SVGID_10_" gradientUnits="userSpaceOnUse" x1="286.2009" y1="147.2432" x2="160.526" y2="-123.0972">
				<stop  offset="0" style="stop-color:#18CFFC;stop-opacity:0"/>
				<stop  offset="1" style="stop-color:#65E1DC"/>
			</linearGradient>
			<path style="fill:url(#SVGID_10_);" d="M410.307,115.601H99.693c-7.471,0-13.527-6.056-13.527-13.527V58.18
				c0-7.471,6.056-13.527,13.527-13.527h310.613c7.471,0,13.527,6.056,13.527,13.527v43.894
				C423.834,109.545,417.778,115.601,410.307,115.601z"/>
		</g>
	</g>
	<linearGradient id="SVGID_11_" gradientUnits="userSpaceOnUse" x1="332.9494" y1="334.7501" x2="223.6691" y2="225.4698">
		<stop  offset="0" style="stop-color:#555A66;stop-opacity:0"/>
		<stop  offset="1" style="stop-color:#555A66"/>
	</linearGradient>
	<path style="fill:url(#SVGID_11_);" d="M297.316,220.754c-10.114-10.749-24.459-17.471-40.383-17.471
		c-30.625,0-55.452,24.827-55.452,55.452c0,15.924,6.722,30.269,17.471,40.382l120.06,120.06
		c10.114,10.749,24.459,17.471,40.383,17.471c30.625,0,55.452-24.827,55.452-55.452c0-15.924-6.722-30.269-17.471-40.383
		L297.316,220.754z"/>
	<linearGradient id="SVGID_12_" gradientUnits="userSpaceOnUse" x1="216.7551" y1="342.175" x2="114.221" y2="239.641">
		<stop  offset="0" style="stop-color:#555A66;stop-opacity:0"/>
		<stop  offset="1" style="stop-color:#555A66"/>
	</linearGradient>
	<path style="fill:url(#SVGID_12_);" d="M173.697,220.754c-10.114-10.749-24.459-17.471-40.383-17.471
		c-30.625,0-55.452,24.827-55.452,55.452c0,15.924,6.722,30.269,17.471,40.382l120.06,120.06
		c10.114,10.749,24.459,17.471,40.383,17.471c30.625,0,55.452-24.827,55.452-55.452c0-15.924-6.722-30.269-17.471-40.383
		L173.697,220.754z"/>
	<linearGradient id="SVGID_13_" gradientUnits="userSpaceOnUse" x1="329.4297" y1="472.9366" x2="233.9675" y2="377.4745">
		<stop  offset="0" style="stop-color:#555A66;stop-opacity:0"/>
		<stop  offset="1" style="stop-color:#555A66"/>
	</linearGradient>
	<path style="fill:url(#SVGID_13_);" d="M428.25,496.662H274.795l-55.834-55.834c-10.752-10.115-17.478-24.462-17.478-40.379
		c0-3.204,0.267-6.346,0.801-9.407c4.467-26.146,27.234-46.048,54.653-46.048c15.928,0,30.274,6.727,40.379,17.468l120.059,120.059
		C421.708,486.598,425.395,491.373,428.25,496.662z"/>
	<linearGradient id="SVGID_14_" gradientUnits="userSpaceOnUse" x1="201.3939" y1="468.5254" x2="122.9302" y2="390.0616">
		<stop  offset="0" style="stop-color:#555A66;stop-opacity:0"/>
		<stop  offset="1" style="stop-color:#555A66"/>
	</linearGradient>
	<path style="fill:url(#SVGID_14_);" d="M304.62,496.662H151.165l-55.834-55.834c-10.752-10.115-17.468-24.462-17.468-40.379
		c0-30.623,24.821-55.454,55.444-55.454c15.928,0,30.274,6.727,40.389,17.468l120.059,120.059
		C298.089,486.598,301.775,491.373,304.62,496.662z"/>
	<linearGradient id="SVGID_15_" gradientUnits="userSpaceOnUse" x1="443.8111" y1="371.3744" x2="306.1846" y2="302.5611">
		<stop  offset="0" style="stop-color:#555A66;stop-opacity:0"/>
		<stop  offset="1" style="stop-color:#555A66"/>
	</linearGradient>
	<path style="fill:url(#SVGID_15_);" d="M462.339,484.536V241.927l-31.863-31.863c-1.607-2.242-4.227-3.707-7.196-3.707h-88.027
		c-4.891,0-8.855,3.965-8.855,8.855v221.565c0,2.968,1.465,5.589,3.707,7.195l52.688,52.688h67.421
		C456.91,496.661,462.339,491.232,462.339,484.536z"/>
	<g>
		<linearGradient id="SVGID_16_" gradientUnits="userSpaceOnUse" x1="230.9313" y1="232.732" x2="307.3673" y2="309.1679">
			<stop  offset="0" style="stop-color:#F9F7FC"/>
			<stop  offset="1" style="stop-color:#F0DDFC"/>
		</linearGradient>
		<circle style="fill:url(#SVGID_16_);" cx="256.934" cy="258.734" r="55.452"/>
		<linearGradient id="SVGID_17_" gradientUnits="userSpaceOnUse" x1="300.8629" y1="302.8058" x2="203.2179" y2="205.1607">
			<stop  offset="0" style="stop-color:#F0DDFC;stop-opacity:0"/>
			<stop  offset="0.2085" style="stop-color:#DFCDF1;stop-opacity:0.2085"/>
			<stop  offset="0.6167" style="stop-color:#B5A4D3;stop-opacity:0.6167"/>
			<stop  offset="1" style="stop-color:#8779B3"/>
		</linearGradient>
		<path style="fill:url(#SVGID_17_);" d="M312.35,260.118l-14.91-14.734h-80.854c-0.829,0-1.5,0.672-1.5,1.5v23.7
			c0,0.719,0.506,1.318,1.18,1.464l41.798,42.109C287.703,313.563,311.623,289.725,312.35,260.118z"/>
		<linearGradient id="SVGID_18_" gradientUnits="userSpaceOnUse" x1="222.3923" y1="227.6471" x2="309.9854" y2="306.4809">
			<stop  offset="0" style="stop-color:#FF7044"/>
			<stop  offset="1" style="stop-color:#F92814"/>
		</linearGradient>
		<path style="fill:url(#SVGID_18_);" d="M297.281,245.384h-80.695c-0.829,0-1.5,0.672-1.5,1.5v23.7c0,0.829,0.672,1.5,1.5,1.5
			h80.695c0.829,0,1.5-0.672,1.5-1.5v-23.7C298.781,246.056,298.109,245.384,297.281,245.384z"/>
	</g>
	<g>
		<linearGradient id="SVGID_19_" gradientUnits="userSpaceOnUse" x1="230.9313" y1="374.4434" x2="307.3673" y2="450.8794">
			<stop  offset="0" style="stop-color:#F9F7FC"/>
			<stop  offset="1" style="stop-color:#F0DDFC"/>
		</linearGradient>
		<circle style="fill:url(#SVGID_19_);" cx="256.934" cy="400.446" r="55.452"/>
		<linearGradient id="SVGID_20_" gradientUnits="userSpaceOnUse" x1="292.2906" y1="403.9677" x2="234.1368" y2="345.814">
			<stop  offset="0" style="stop-color:#F0DDFC;stop-opacity:0"/>
			<stop  offset="0.2085" style="stop-color:#DFCDF1;stop-opacity:0.2085"/>
			<stop  offset="0.6167" style="stop-color:#B5A4D3;stop-opacity:0.6167"/>
			<stop  offset="1" style="stop-color:#8779B3"/>
		</linearGradient>
		<path style="fill:url(#SVGID_20_);" d="M312.266,403.914l-44.682-44.681c-2.603-2.954-6.404-4.828-10.651-4.828
			c-7.846,0-14.206,6.36-14.206,14.206c0,4.247,1.874,8.048,4.828,10.651l54.041,54.041
			C307.731,424.978,311.589,414.878,312.266,403.914z"/>
		<linearGradient id="SVGID_21_" gradientUnits="userSpaceOnUse" x1="300.8629" y1="444.5172" x2="203.2179" y2="346.8722">
			<stop  offset="0" style="stop-color:#F0DDFC;stop-opacity:0"/>
			<stop  offset="0.2085" style="stop-color:#DFCDF1;stop-opacity:0.2085"/>
			<stop  offset="0.6167" style="stop-color:#B5A4D3;stop-opacity:0.6167"/>
			<stop  offset="1" style="stop-color:#8779B3"/>
		</linearGradient>
		<path style="fill:url(#SVGID_21_);" d="M312.35,401.829l-14.91-14.734h-80.854c-0.829,0-1.5,0.672-1.5,1.5v23.7
			c0,0.719,0.506,1.318,1.18,1.465l41.798,42.109C287.703,455.274,311.623,431.436,312.35,401.829z"/>
		<linearGradient id="SVGID_22_" gradientUnits="userSpaceOnUse" x1="281.2511" y1="456.5982" x2="247.9978" y2="423.3449">
			<stop  offset="0" style="stop-color:#F0DDFC;stop-opacity:0"/>
			<stop  offset="0.2085" style="stop-color:#DFCDF1;stop-opacity:0.2085"/>
			<stop  offset="0.6167" style="stop-color:#B5A4D3;stop-opacity:0.6167"/>
			<stop  offset="1" style="stop-color:#8779B3"/>
		</linearGradient>
		<path style="fill:url(#SVGID_22_);" d="M289.791,445.109l-22.206-22.206c-2.603-2.954-6.404-4.828-10.651-4.828
			c-7.846,0-14.206,6.36-14.206,14.206c0,4.247,1.874,8.048,4.828,10.651l12.847,12.847
			C271.366,455.101,281.466,451.244,289.791,445.109z"/>
		<linearGradient id="SVGID_23_" gradientUnits="userSpaceOnUse" x1="222.3923" y1="369.3586" x2="309.9855" y2="448.1924">
			<stop  offset="0" style="stop-color:#FF7044"/>
			<stop  offset="1" style="stop-color:#F92814"/>
		</linearGradient>
		<path style="fill:url(#SVGID_23_);" d="M297.281,387.096h-80.695c-0.829,0-1.5,0.672-1.5,1.5v23.7c0,0.829,0.672,1.5,1.5,1.5
			h80.695c0.829,0,1.5-0.672,1.5-1.5v-23.7C298.781,387.767,298.109,387.096,297.281,387.096z"/>
		<linearGradient id="SVGID_24_" gradientUnits="userSpaceOnUse" x1="249.5739" y1="424.921" x2="272.1055" y2="447.4526">
			<stop  offset="0" style="stop-color:#FF7044"/>
			<stop  offset="1" style="stop-color:#F92814"/>
		</linearGradient>
		<circle style="fill:url(#SVGID_24_);" cx="256.934" cy="432.281" r="14.206"/>
		<linearGradient id="SVGID_25_" gradientUnits="userSpaceOnUse" x1="249.5739" y1="361.2511" x2="272.1055" y2="383.7827">
			<stop  offset="0" style="stop-color:#FF7044"/>
			<stop  offset="1" style="stop-color:#F92814"/>
		</linearGradient>
		<circle style="fill:url(#SVGID_25_);" cx="256.934" cy="368.611" r="14.206"/>
	</g>
	<g>
		<linearGradient id="SVGID_26_" gradientUnits="userSpaceOnUse" x1="107.312" y1="232.732" x2="183.748" y2="309.168">
			<stop  offset="0" style="stop-color:#F9F7FC"/>
			<stop  offset="1" style="stop-color:#F0DDFC"/>
		</linearGradient>
		<circle style="fill:url(#SVGID_26_);" cx="133.314" cy="258.734" r="55.452"/>
		<linearGradient id="SVGID_27_" gradientUnits="userSpaceOnUse" x1="177.3148" y1="302.7346" x2="79.6697" y2="205.0896">
			<stop  offset="0" style="stop-color:#F0DDFC;stop-opacity:0"/>
			<stop  offset="0.2085" style="stop-color:#DFCDF1;stop-opacity:0.2085"/>
			<stop  offset="0.6167" style="stop-color:#B5A4D3;stop-opacity:0.6167"/>
			<stop  offset="1" style="stop-color:#8779B3"/>
		</linearGradient>
		<path style="fill:url(#SVGID_27_);" d="M188.731,260.118l-42.102-42.051c-0.147-0.675-0.746-1.18-1.464-1.18h-23.7
			c-0.829,0-1.5,0.672-1.5,1.5v25.497c0,0.829-0.672,1.5-1.5,1.5H92.967c-0.828,0-1.5,0.672-1.5,1.5v23.7
			c0,0.719,0.506,1.318,1.18,1.464l41.798,42.109C164.084,313.563,188.004,289.725,188.731,260.118z"/>
		<linearGradient id="SVGID_28_" gradientUnits="userSpaceOnUse" x1="98.773" y1="227.6471" x2="186.3662" y2="306.4809">
			<stop  offset="0" style="stop-color:#FF7044"/>
			<stop  offset="1" style="stop-color:#F92814"/>
		</linearGradient>
		<path style="fill:url(#SVGID_28_);" d="M173.662,245.384h-25.497c-0.829,0-1.5-0.672-1.5-1.5v-25.497c0-0.829-0.672-1.5-1.5-1.5
			h-23.7c-0.829,0-1.5,0.672-1.5,1.5v25.497c0,0.829-0.672,1.5-1.5,1.5H92.967c-0.828,0-1.5,0.672-1.5,1.5v23.7
			c0,0.829,0.672,1.5,1.5,1.5h25.497c0.829,0,1.5,0.672,1.5,1.5v25.497c0,0.829,0.672,1.5,1.5,1.5h23.7c0.829,0,1.5-0.672,1.5-1.5
			v-25.497c0-0.829,0.672-1.5,1.5-1.5h25.497c0.828,0,1.5-0.672,1.5-1.5v-23.7C175.162,246.056,174.49,245.384,173.662,245.384z"/>
	</g>
	<g>
		<linearGradient id="SVGID_29_" gradientUnits="userSpaceOnUse" x1="107.312" y1="374.4434" x2="183.748" y2="450.8794">
			<stop  offset="0" style="stop-color:#F9F7FC"/>
			<stop  offset="1" style="stop-color:#F0DDFC"/>
		</linearGradient>
		<circle style="fill:url(#SVGID_29_);" cx="133.314" cy="400.446" r="55.452"/>
		<linearGradient id="SVGID_30_" gradientUnits="userSpaceOnUse" x1="193.3178" y1="460.4492" x2="53.3862" y2="320.5176">
			<stop  offset="0" style="stop-color:#F0DDFC;stop-opacity:0"/>
			<stop  offset="0.2085" style="stop-color:#DFCDF1;stop-opacity:0.2085"/>
			<stop  offset="0.6167" style="stop-color:#B5A4D3;stop-opacity:0.6167"/>
			<stop  offset="1" style="stop-color:#8779B3"/>
		</linearGradient>
		<path style="fill:url(#SVGID_30_);" d="M152.404,362.476l-18.029,18.029c-0.586,0.586-1.536,0.586-2.122,0l-18.029-18.029
			c-0.586-0.586-1.536-0.586-2.122,0l-16.758,16.758c-0.586,0.586-0.586,1.536,0,2.122l18.029,18.029
			c0.586,0.586,0.586,1.536,0,2.122l-18.029,18.029c-0.586,0.586-0.586,1.536,0,2.122l34.09,34.09c1.283,0.089,2.574,0.15,3.88,0.15
			c30.625,0,55.452-24.827,55.452-55.452c0-1.306-0.061-2.597-0.15-3.88l-34.09-34.09C153.94,361.89,152.99,361.89,152.404,362.476z
			"/>
		
			<linearGradient id="SVGID_31_" gradientUnits="userSpaceOnUse" x1="2821.7595" y1="-1633.8033" x2="2909.3538" y2="-1554.9688" gradientTransform="matrix(0.7071 0.7071 -0.7071 0.7071 -3019.6567 -485.9645)">
			<stop  offset="0" style="stop-color:#FF7044"/>
			<stop  offset="1" style="stop-color:#F92814"/>
		</linearGradient>
		<path style="fill:url(#SVGID_31_);" d="M171.284,419.536l-18.029-18.029c-0.586-0.586-0.586-1.536,0-2.122l18.029-18.029
			c0.586-0.586,0.586-1.536,0-2.122l-16.758-16.758c-0.586-0.586-1.536-0.586-2.122,0l-18.029,18.029
			c-0.586,0.586-1.536,0.586-2.122,0l-18.029-18.029c-0.586-0.586-1.536-0.586-2.122,0l-16.758,16.758
			c-0.586,0.586-0.586,1.536,0,2.122l18.029,18.029c0.586,0.586,0.586,1.536,0,2.122l-18.029,18.029
			c-0.586,0.586-0.586,1.536,0,2.122l16.758,16.758c0.586,0.586,1.536,0.586,2.122,0l18.029-18.029c0.586-0.586,1.536-0.586,2.122,0
			l18.029,18.029c0.586,0.586,1.536,0.586,2.122,0l16.758-16.758C171.87,421.071,171.87,420.122,171.284,419.536z"/>
	</g>
	<g>
		<linearGradient id="SVGID_32_" gradientUnits="userSpaceOnUse" x1="316.4125" y1="239.8604" x2="441.1844" y2="410.8444">
			<stop  offset="0" style="stop-color:#FFDA45"/>
			<stop  offset="1" style="stop-color:#FFA425"/>
		</linearGradient>
		<path style="fill:url(#SVGID_32_);" d="M432.135,215.214v221.56c0,4.894-3.963,8.857-8.857,8.857h-88.023
			c-4.894,0-8.857-3.963-8.857-8.857v-221.56c0-4.894,3.963-8.857,8.857-8.857h88.023
			C428.172,206.357,432.135,210.32,432.135,215.214z"/>
		<linearGradient id="SVGID_33_" gradientUnits="userSpaceOnUse" x1="419.85" y1="364.7869" x2="352.7015" y2="259.9022">
			<stop  offset="0" style="stop-color:#FFDA45;stop-opacity:0"/>
			<stop  offset="1" style="stop-color:#B53759"/>
		</linearGradient>
		<path style="fill:url(#SVGID_33_);" d="M432.137,303.296l-12.362-12.216h-80.854c-0.829,0-1.5,0.672-1.5,1.5v23.7
			c0,0.719,0.506,1.318,1.18,1.465l93.536,93.837V303.296z"/>
		<linearGradient id="SVGID_34_" gradientUnits="userSpaceOnUse" x1="410.9081" y1="393.9486" x2="352.6388" y2="302.9375">
			<stop  offset="0" style="stop-color:#FFDA45;stop-opacity:0"/>
			<stop  offset="1" style="stop-color:#B53759"/>
		</linearGradient>
		<path style="fill:url(#SVGID_34_);" d="M432.135,346.425v90.349c0,4.894-3.963,8.857-8.857,8.857h-0.195l-84.478-84.757
			c-0.679-0.149-1.182-0.744-1.182-1.461v-23.706c0-0.828,0.67-1.498,1.498-1.498h80.85L432.135,346.425z"/>
		<linearGradient id="SVGID_35_" gradientUnits="userSpaceOnUse" x1="344.7274" y1="273.3429" x2="432.3206" y2="352.1767">
			<stop  offset="0" style="stop-color:#FFFCF8"/>
			<stop  offset="0.1875" style="stop-color:#FAF8F6"/>
			<stop  offset="0.4041" style="stop-color:#ECEEF2"/>
			<stop  offset="0.6353" style="stop-color:#D5DCEA"/>
			<stop  offset="0.875" style="stop-color:#B5C4DF"/>
			<stop  offset="1" style="stop-color:#A1B5D8"/>
		</linearGradient>
		<path style="fill:url(#SVGID_35_);" d="M419.616,291.08h-80.695c-0.829,0-1.5,0.672-1.5,1.5v23.7c0,0.828,0.672,1.5,1.5,1.5
			h80.695c0.829,0,1.5-0.672,1.5-1.5v-23.7C421.116,291.752,420.445,291.08,419.616,291.08z"/>
		<linearGradient id="SVGID_36_" gradientUnits="userSpaceOnUse" x1="344.7274" y1="316.4742" x2="432.3206" y2="395.308">
			<stop  offset="0" style="stop-color:#FFFCF8"/>
			<stop  offset="0.1875" style="stop-color:#FAF8F6"/>
			<stop  offset="0.4041" style="stop-color:#ECEEF2"/>
			<stop  offset="0.6353" style="stop-color:#D5DCEA"/>
			<stop  offset="0.875" style="stop-color:#B5C4DF"/>
			<stop  offset="1" style="stop-color:#A1B5D8"/>
		</linearGradient>
		<path style="fill:url(#SVGID_36_);" d="M419.616,334.211h-80.695c-0.829,0-1.5,0.672-1.5,1.5v23.7c0,0.828,0.672,1.5,1.5,1.5
			h80.695c0.829,0,1.5-0.672,1.5-1.5v-23.7C421.116,334.883,420.445,334.211,419.616,334.211z"/>
	</g>
	<g>
		<linearGradient id="SVGID_37_" gradientUnits="userSpaceOnUse" x1="266.7248" y1="55.6926" x2="266.7248" y2="135.4681">
			<stop  offset="0" style="stop-color:#F9F7FC"/>
			<stop  offset="1" style="stop-color:#F0DDFC"/>
		</linearGradient>
		<path style="fill:url(#SVGID_37_);" d="M251.08,52.401c0-2.9,1.166-5.033,3.503-6.403l15.947-9.665
			c0.885-0.562,2.054-0.845,3.503-0.845c2.093,0,4.006,0.564,5.738,1.691c1.731,1.129,2.597,2.537,2.597,4.229v76.834
			c0,1.853-0.927,3.282-2.779,4.289c-1.854,1.008-4.068,1.51-6.644,1.51c-2.578,0-4.793-0.502-6.645-1.51
			c-1.854-1.007-2.779-2.436-2.779-4.289V56.75l-3.503,2.174c-0.966,0.646-1.974,0.967-3.02,0.967c-1.691,0-3.101-0.765-4.228-2.296
			C251.643,56.067,251.08,54.334,251.08,52.401z"/>
		<linearGradient id="SVGID_38_" gradientUnits="userSpaceOnUse" x1="323.7459" y1="55.6926" x2="323.7459" y2="135.4681">
			<stop  offset="0" style="stop-color:#F9F7FC"/>
			<stop  offset="1" style="stop-color:#F0DDFC"/>
		</linearGradient>
		<path style="fill:url(#SVGID_38_);" d="M294.087,96.254V64.24c0-9.825,2.698-17.034,8.094-21.625
			c5.395-4.59,12.564-6.886,21.504-6.886c9.019,0,16.228,2.295,21.624,6.886c5.395,4.591,8.094,11.8,8.094,21.625v32.014
			c0,9.827-2.699,17.034-8.094,21.625c-5.397,4.59-12.606,6.886-21.624,6.886c-8.94,0-16.109-2.295-21.504-6.886
			C296.785,113.288,294.087,106.081,294.087,96.254z M312.934,96.254c0,8.054,3.583,12.08,10.752,12.08
			c7.248,0,10.872-4.026,10.872-12.08V64.24c0-8.053-3.624-12.08-10.872-12.08c-7.169,0-10.752,4.028-10.752,12.08V96.254z"/>
		<linearGradient id="SVGID_39_" gradientUnits="userSpaceOnUse" x1="394.1758" y1="55.6926" x2="394.1758" y2="135.4681">
			<stop  offset="0" style="stop-color:#F9F7FC"/>
			<stop  offset="1" style="stop-color:#F0DDFC"/>
		</linearGradient>
		<path style="fill:url(#SVGID_39_);" d="M364.518,96.254V64.24c0-9.825,2.697-17.034,8.094-21.625
			c5.395-4.59,12.564-6.886,21.504-6.886c9.019,0,16.228,2.295,21.624,6.886c5.395,4.591,8.094,11.8,8.094,21.625v32.014
			c0,9.827-2.699,17.034-8.094,21.625c-5.397,4.59-12.605,6.886-21.624,6.886c-8.94,0-16.109-2.295-21.504-6.886
			C367.215,113.288,364.518,106.081,364.518,96.254z M383.363,96.254c0,8.054,3.583,12.08,10.752,12.08
			c7.249,0,10.873-4.026,10.873-12.08V64.24c0-8.053-3.624-12.08-10.873-12.08c-7.169,0-10.752,4.028-10.752,12.08V96.254z"/>
	</g>
</g>
<g>
</g>
<g>
</g>
<g>
</g>
<g>
</g>
<g>
</g>
<g>
</g>
<g>
</g>
<g>
</g>
<g>
</g>
<g>
</g>
<g>
</g>
<g>
</g>
<g>
</g>
<g>
</g>
<g>
</g>
</svg>
