<?xml version="1.0" encoding="iso-8859-1"?>
<!-- Generator: Adobe Illustrator 22.0.0, SVG Export Plug-In . SVG Version: 6.00 Build 0)  -->
<svg version="1.1" id="Capa_1" xmlns="http://www.w3.org/2000/svg" xmlns:xlink="http://www.w3.org/1999/xlink" x="0px" y="0px"
	 viewBox="0 0 510 510" style="enable-background:new 0 0 510 510;" xml:space="preserve">
<g>
	<g>
		<g>
			<linearGradient id="SVGID_1_" gradientUnits="userSpaceOnUse" x1="228.2019" y1="219.9898" x2="371.1906" y2="581.7391">
				<stop  offset="0" style="stop-color:#4AB272"/>
				<stop  offset="1" style="stop-color:#077565"/>
			</linearGradient>
			<path style="fill:url(#SVGID_1_);" d="M495.848,427.652H14.152C6.336,427.652,0,421.316,0,413.5V162.073
				c0-7.816,6.336-14.152,14.152-14.152h481.696c7.816,0,14.152,6.336,14.152,14.152V413.5
				C510,421.316,503.664,427.652,495.848,427.652z"/>
			<linearGradient id="SVGID_2_" gradientUnits="userSpaceOnUse" x1="276.5075" y1="334.0516" x2="1.5298" y2="-257.4557">
				<stop  offset="0" style="stop-color:#92F37F;stop-opacity:0"/>
				<stop  offset="1" style="stop-color:#FFEE83"/>
			</linearGradient>
			<path style="fill:url(#SVGID_2_);" d="M485.376,417.954H24.624c-7.372,0-13.347-5.976-13.347-13.347V170.967
				c0-7.372,5.976-13.347,13.347-13.347h460.752c7.371,0,13.347,5.976,13.347,13.347v233.639
				C498.723,411.978,492.747,417.954,485.376,417.954z"/>
			<linearGradient id="SVGID_3_" gradientUnits="userSpaceOnUse" x1="237.3401" y1="234.2184" x2="316.9839" y2="475.804">
				<stop  offset="0" style="stop-color:#92F37F"/>
				<stop  offset="1" style="stop-color:#4AB272"/>
			</linearGradient>
			<path style="fill:url(#SVGID_3_);" d="M467.226,233.47c-23.624,0-42.774-19.151-42.774-42.774c0-0.97,0.033-1.933,0.098-2.886
				c0.31-4.579-3.305-8.462-7.894-8.462H93.345c-4.589,0-8.204,3.884-7.894,8.462c0.065,0.954,0.097,1.916,0.097,2.886
				c0,23.624-19.151,42.774-42.774,42.774c-0.028,0-0.056,0-0.084,0c-4.437-0.009-8.079,3.483-8.079,7.92v92.793
				c0,4.437,3.642,7.929,8.079,7.921c0.028,0,0.056,0,0.084,0c23.624,0,42.774,19.151,42.774,42.774c0,0.97-0.033,1.933-0.097,2.886
				c-0.31,4.579,3.305,8.462,7.894,8.462h323.309c4.589,0,8.204-3.883,7.894-8.462c-0.065-0.954-0.098-1.916-0.098-2.886
				c0-23.624,19.151-42.774,42.774-42.774c0.028,0,0.056,0,0.084,0c4.437,0.009,8.079-3.483,8.079-7.921V241.39
				c0-4.437-3.642-7.929-8.079-7.92C467.281,233.47,467.254,233.47,467.226,233.47z"/>
			<linearGradient id="SVGID_4_" gradientUnits="userSpaceOnUse" x1="329.7451" y1="336.371" x2="36.5115" y2="145.7689">
				<stop  offset="0" style="stop-color:#92F37F"/>
				<stop  offset="1" style="stop-color:#4AB272"/>
			</linearGradient>
			<circle style="fill:url(#SVGID_4_);" cx="255" cy="287.787" r="97.441"/>
			<linearGradient id="SVGID_5_" gradientUnits="userSpaceOnUse" x1="323.723" y1="337.8672" x2="117.5912" y2="246.6152">
				<stop  offset="0" style="stop-color:#4AB272;stop-opacity:0"/>
				<stop  offset="1" style="stop-color:#009245"/>
			</linearGradient>
			<path style="fill:url(#SVGID_5_);" d="M293.261,228.957c-1.483-2.319-4.352-4.248-8.622-5.784
				c-4.603-1.652-9.509-2.775-14.706-3.391c-0.279-0.177-0.562-0.332-0.85-0.464l-7.698-8.249c-1.208-0.887-2.511-1.334-3.907-1.334
				c-1.525,0-2.829,0.447-3.908,1.334c-1.081,0.891-1.62,1.906-1.62,3.05v5.527c-10.292,1.143-18.902,4.574-25.827,10.292
				c-6.927,5.718-10.388,14.099-10.388,25.136c0,3.931,0.444,7.514,1.334,10.748c0.887,3.234,2.35,6.055,4.384,8.464
				c2.031,2.409,3.969,4.47,5.813,6.183c0.013,0.012,0.028,0.024,0.041,0.036c0,0,23.967,23.969,23.98,23.98
				c0.223,0.238,0.441,0.461,0.661,0.69v31.882c-5.632-0.381-10.59-1.838-14.879-4.375c-4.288-2.534-7.656-4.911-10.111-7.133
				c-2.454-2.219-4.434-3.33-5.941-3.33c-2.275,0-4.294,1.206-6.064,3.616c-1.769,2.409-2.65,4.819-2.65,7.228
				c0,3.852,2.17,7.647,6.511,11.389l83.2,83.2h189.941L293.261,228.957z"/>
			<g>
				<linearGradient id="SVGID_6_" gradientUnits="userSpaceOnUse" x1="245.7401" y1="279.4392" x2="325.5856" y2="333.2127">
					<stop  offset="0" style="stop-color:#4AB272"/>
					<stop  offset="1" style="stop-color:#077565"/>
				</linearGradient>
				<path style="fill:url(#SVGID_6_);" d="M212.305,333.063c0-2.409,0.881-4.818,2.65-7.228c1.769-2.409,3.788-3.615,6.064-3.615
					c1.507,0,3.488,1.111,5.941,3.33c2.454,2.222,5.823,4.598,10.111,7.133c4.289,2.538,9.247,3.994,14.879,4.375v-44.699
					c-3.812-1.394-6.737-2.505-8.768-3.33c-2.034-0.822-4.735-2.028-8.1-3.613c-3.368-1.584-5.975-3.234-7.815-4.947
					c-1.844-1.712-3.782-3.773-5.813-6.182c-2.034-2.409-3.497-5.23-4.384-8.464c-0.89-3.234-1.334-6.817-1.334-10.748
					c0-11.037,3.46-19.418,10.388-25.136c6.924-5.718,15.534-9.149,25.826-10.292v-5.528c0-1.144,0.539-2.159,1.62-3.05
					c1.078-0.887,2.383-1.334,3.908-1.334c1.396,0,2.698,0.447,3.907,1.334c1.206,0.89,1.811,1.906,1.811,3.05v5.146
					c7.749,0.256,14.897,1.557,21.443,3.907c6.543,2.353,9.816,5.623,9.816,9.816c0,2.287-0.771,4.67-2.308,7.148
					c-1.537,2.478-3.589,3.717-6.15,3.717c-1.012,0-3.797-1.078-8.347-3.24c-4.554-2.159-9.372-3.431-14.453-3.812v38.627
					c5.054,1.903,9.256,3.71,12.603,5.423c3.347,1.713,6.889,4.089,10.617,7.133c3.729,3.043,6.54,6.879,8.434,11.507
					c1.894,4.628,2.844,10.051,2.844,16.264c0,11.353-3.097,20.377-9.289,27.071c-6.194,6.695-14.596,10.808-25.21,12.339v6.367
					c0,1.123-0.605,2.121-1.811,2.996c-1.208,0.872-2.51,1.31-3.907,1.31c-1.525,0-2.83-0.438-3.908-1.308
					c-1.081-0.876-1.62-1.873-1.62-2.996v-5.798c-11.054-0.128-20.427-2.656-28.114-7.588
					C216.147,343.216,212.305,338.189,212.305,333.063z M234.606,253.174c0,4.947,1.539,8.72,4.622,11.317
					c3.079,2.6,7.701,5.042,13.866,7.323v-34.651C240.767,238.688,234.606,244.025,234.606,253.174z M262.052,336.676
					c11.18-2.028,16.773-8.306,16.773-18.831c0-5.578-1.463-9.953-4.384-13.122c-2.925-3.169-7.052-5.897-12.389-8.181V336.676z"/>
			</g>
			<g>
				<g>
					<path style="fill:#4AB272;" d="M106.937,298.48H55.739c-2.232,0-4.041-1.809-4.041-4.041v-13.305
						c0-2.232,1.809-4.041,4.041-4.041h51.198c2.232,0,4.041,1.809,4.041,4.041v13.305
						C110.978,296.671,109.169,298.48,106.937,298.48z"/>
					<path style="fill:#4AB272;" d="M135.98,298.48h-8.828c-2.232,0-4.041-1.809-4.041-4.041v-13.305
						c0-2.232,1.809-4.041,4.041-4.041h8.828c2.232,0,4.041,1.809,4.041,4.041v13.305C140.021,296.671,138.212,298.48,135.98,298.48
						z"/>
				</g>
				<g>
					<path style="fill:#4AB272;" d="M406.015,298.48H374.02c-2.232,0-4.041-1.809-4.041-4.041v-13.305
						c0-2.232,1.809-4.041,4.041-4.041h31.995c2.232,0,4.041,1.809,4.041,4.041v13.305
						C410.056,296.671,408.247,298.48,406.015,298.48z"/>
					<path style="fill:#4AB272;" d="M454.261,298.48h-28.39c-2.232,0-4.041-1.809-4.041-4.041v-13.305
						c0-2.232,1.809-4.041,4.041-4.041h28.39c2.232,0,4.041,1.809,4.041,4.041v13.305
						C458.302,296.671,456.492,298.48,454.261,298.48z"/>
				</g>
			</g>
		</g>
	</g>
	<linearGradient id="SVGID_7_" gradientUnits="userSpaceOnUse" x1="230.2569" y1="310.6181" x2="84.2572" y2="61.9516">
		<stop  offset="0" style="stop-color:#4AB272;stop-opacity:0"/>
		<stop  offset="1" style="stop-color:#009245"/>
	</linearGradient>
	<path style="fill:url(#SVGID_7_);" d="M173.14,147.921H30.336l-3.242,3.242c-7.324,7.324-4.308,18.934,4.029,22.751
		c1.374,2.926,17.113,18.781,19.989,20.216l-0.007,71.692c0,1.108,0.178,1.973,0.506,2.647
		c0.771,1.582,112.362,111.406,160.948,159.183h240.312L173.14,147.921z"/>
	<linearGradient id="SVGID_8_" gradientUnits="userSpaceOnUse" x1="542.6244" y1="299.9172" x2="390.5418" y2="147.8346">
		<stop  offset="0" style="stop-color:#4AB272;stop-opacity:0"/>
		<stop  offset="1" style="stop-color:#009245"/>
	</linearGradient>
	<path style="fill:url(#SVGID_8_);" d="M510,162.073c0-7.816-6.336-14.152-14.152-14.152H357.652l0.001,15.997
		c0.001,7.771-6.299,14.071-14.07,14.07h0c-12.536-0.001-18.813,15.155-9.948,24.021l3.302,3.302c0,0,0,0,0,0L510,378.374V162.073z"
		/>
	<g>
		<g>
			
				<linearGradient id="SVGID_9_" gradientUnits="userSpaceOnUse" x1="-689.4908" y1="2179.1589" x2="-574.5157" y2="2262.124" gradientTransform="matrix(-1 0 0 -1 -241.0273 2369.2366)">
				<stop  offset="0" style="stop-color:#FF7044"/>
				<stop  offset="1" style="stop-color:#F92814"/>
			</linearGradient>
			<path style="fill:url(#SVGID_9_);" d="M357.653,163.918l-0.007-76.568c-0.001-5.614,4.551-4.981,10.164-4.98l80.9,0.008
				c5.614,0.001,10.165-0.632,10.165,4.982l0.007,76.568c0.001,7.771,6.301,14.072,14.073,14.073l0,0
				c12.536,0.001,18.816,15.159,9.952,24.023l-64.68,64.68c-5.495,5.495-14.404,5.494-19.9-0.002l-64.693-64.693
				c-8.865-8.866-2.589-24.022,9.948-24.021h0C351.354,177.989,357.654,171.689,357.653,163.918z"/>
			
				<linearGradient id="SVGID_10_" gradientUnits="userSpaceOnUse" x1="-629.4523" y1="2211.0391" x2="-760.2227" y2="2149.5381" gradientTransform="matrix(-1 0 0 -1 -241.0273 2369.2366)">
				<stop  offset="0" style="stop-color:#FF7044;stop-opacity:0"/>
				<stop  offset="1" style="stop-color:#FFA425"/>
			</linearGradient>
			<path style="fill:url(#SVGID_10_);" d="M447.43,93.822l0.007,70.104c0.001,14.07,11.449,25.518,25.52,25.519
				c1.165,0,1.981,0.546,2.426,1.622c0.446,1.076,0.255,2.039-0.569,2.862l-64.68,64.681c-0.636,0.636-1.361,0.769-1.857,0.769
				c-0.496,0-1.221-0.133-1.857-0.769l-64.693-64.693c-0.824-0.824-1.015-1.787-0.569-2.862c0.445-1.076,1.261-1.621,2.426-1.621
				c14.07,0.001,25.516-11.444,25.515-25.514l-0.007-70.104L447.43,93.822z"/>
			
				<linearGradient id="SVGID_11_" gradientUnits="userSpaceOnUse" x1="-614.7245" y1="2177.3188" x2="-736.7245" y2="2359.168" gradientTransform="matrix(-1 0 0 -1 -241.0273 2369.2366)">
				<stop  offset="0" style="stop-color:#F92814;stop-opacity:0"/>
				<stop  offset="1" style="stop-color:#C1272D"/>
			</linearGradient>
			<path style="fill:url(#SVGID_11_);" d="M367.81,82.369c-5.614,0-10.165-0.633-10.164,4.98l0.007,76.568
				c0.001,7.771-6.299,14.071-14.07,14.07l0,0c-12.536-0.001-18.813,15.155-9.948,24.021l64.693,64.693
				c2.748,2.748,6.349,4.122,9.951,4.122L408.26,82.373L367.81,82.369z"/>
		</g>
		<g>
			
				<linearGradient id="SVGID_12_" gradientUnits="userSpaceOnUse" x1="408.2312" y1="2163.646" x2="523.1847" y2="2246.5955" gradientTransform="matrix(1 0 0 1 -346.695 -2000.5459)">
				<stop  offset="0" style="stop-color:#FFDA45"/>
				<stop  offset="1" style="stop-color:#FFA425"/>
			</linearGradient>
			<path style="fill:url(#SVGID_12_);" d="M152.342,189.244l-0.007,76.568c-0.001,5.614-4.551,4.982-10.165,4.982l-80.899,0.008
				c-5.614,0.001-10.165,0.633-10.164-4.98l0.007-76.568c0.001-7.771-6.299-14.071-14.07-14.07h0
				c-12.537,0.001-18.813-15.155-9.948-24.021L91.786,86.47c5.496-5.496,14.406-5.497,19.9-0.002l64.68,64.68
				c8.864,8.864,2.584,24.021-9.952,24.023l0,0C158.643,175.172,152.342,181.473,152.342,189.244z"/>
			
				<linearGradient id="SVGID_13_" gradientUnits="userSpaceOnUse" x1="468.2575" y1="2195.5193" x2="337.5114" y2="2134.0298" gradientTransform="matrix(1 0 0 1 -346.695 -2000.5459)">
				<stop  offset="0" style="stop-color:#FFDA45;stop-opacity:0"/>
				<stop  offset="1" style="stop-color:#FFEE83"/>
			</linearGradient>
			<path style="fill:url(#SVGID_13_);" d="M62.551,259.357l0.007-70.105c0.001-14.07-11.444-25.516-25.515-25.514
				c-1.165,0-1.981-0.546-2.426-1.621c-0.446-1.076-0.255-2.038,0.569-2.862l64.692-64.693c0.636-0.636,1.361-0.769,1.857-0.769
				c0.496,0,1.221,0.133,1.857,0.769l64.68,64.681c0.824,0.823,1.015,1.786,0.569,2.862c-0.446,1.076-1.262,1.622-2.426,1.622
				c-14.07,0.001-25.518,11.449-25.52,25.519l-0.007,70.104L62.551,259.357z"/>
			
				<linearGradient id="SVGID_14_" gradientUnits="userSpaceOnUse" x1="482.9954" y1="2161.7949" x2="360.9793" y2="2343.668" gradientTransform="matrix(1 0 0 1 -346.695 -2000.5459)">
				<stop  offset="0" style="stop-color:#FFDA45;stop-opacity:0"/>
				<stop  offset="1" style="stop-color:#B53759"/>
			</linearGradient>
			<path style="fill:url(#SVGID_14_);" d="M142.169,270.795c5.614-0.001,10.165,0.631,10.165-4.982l0.007-76.568
				c0.001-7.771,6.301-14.072,14.073-14.073l0,0c12.536-0.001,18.816-15.159,9.952-24.023l-64.68-64.68
				c-2.747-2.747-6.349-4.121-9.95-4.12l-0.018,188.451L142.169,270.795z"/>
		</g>
	</g>
</g>
<g>
</g>
<g>
</g>
<g>
</g>
<g>
</g>
<g>
</g>
<g>
</g>
<g>
</g>
<g>
</g>
<g>
</g>
<g>
</g>
<g>
</g>
<g>
</g>
<g>
</g>
<g>
</g>
<g>
</g>
</svg>
