<?xml version="1.0" encoding="iso-8859-1"?>
<!-- Generator: Adobe Illustrator 22.0.0, SVG Export Plug-In . SVG Version: 6.00 Build 0)  -->
<svg version="1.1" id="Capa_1" xmlns="http://www.w3.org/2000/svg" xmlns:xlink="http://www.w3.org/1999/xlink" x="0px" y="0px"
	 viewBox="0 0 510 510" style="enable-background:new 0 0 510 510;" xml:space="preserve">
<g>
	<g>
		<g>
			<rect x="78.56" y="34.756" style="fill:#7E8595;" width="352.881" height="11.122"/>
			<rect x="78.56" y="97.294" style="fill:#7E8595;" width="352.881" height="11.122"/>
			<rect x="125.638" y="159.833" style="fill:#7E8595;" width="258.725" height="11.122"/>
		</g>
		<g>
			
				<rect x="78.56" y="463.684" transform="matrix(-1 -1.224647e-16 1.224647e-16 -1 510.001 938.4896)" style="fill:#7E8595;" width="352.881" height="11.122"/>
			
				<rect x="78.56" y="401.145" transform="matrix(-1 -1.224647e-16 1.224647e-16 -1 510.001 813.4127)" style="fill:#7E8595;" width="352.881" height="11.122"/>
			
				<rect x="125.638" y="338.607" transform="matrix(-1 -1.224647e-16 1.224647e-16 -1 510.001 688.3358)" style="fill:#7E8595;" width="258.725" height="11.122"/>
		</g>
	</g>
	<g>
		<linearGradient id="SVGID_1_" gradientUnits="userSpaceOnUse" x1="292.028" y1="213.0054" x2="213.0852" y2="302.0691">
			<stop  offset="0" style="stop-color:#FF7044"/>
			<stop  offset="1" style="stop-color:#F92814"/>
		</linearGradient>
		<path style="fill:url(#SVGID_1_);" d="M442.236,509.561c-12.577,0-22.772-10.195-22.772-22.772
			c0-30.599-7.775-60.955-22.487-87.785c-14.711-26.83-36.124-49.708-61.923-66.161L150.456,215.118
			c-32.234-20.557-58.987-49.143-77.367-82.665S44.992,61.003,44.992,22.772C44.992,10.195,55.187,0,67.764,0
			s22.772,10.195,22.772,22.772c0,30.599,7.775,60.955,22.487,87.785c14.711,26.83,36.123,49.708,61.922,66.161l184.597,117.725
			c32.234,20.557,58.988,49.143,77.368,82.665s28.096,71.45,28.096,109.681C465.008,499.366,454.813,509.561,442.236,509.561z"/>
		<linearGradient id="SVGID_2_" gradientUnits="userSpaceOnUse" x1="232.3337" y1="243.0726" x2="-108.7396" y2="117.5738">
			<stop  offset="0" style="stop-color:#FF7044;stop-opacity:0"/>
			<stop  offset="1" style="stop-color:#FFA425"/>
		</linearGradient>
		<path style="fill:url(#SVGID_2_);" d="M436.911,377.108c-18.381-33.522-45.135-62.108-77.368-82.665L174.946,176.718
			c-25.799-16.453-47.211-39.331-61.922-66.161c-14.712-26.83-22.487-57.186-22.487-87.785c0-9.32-5.601-17.328-13.619-20.852
			c-8.018,3.525-13.619,11.532-13.619,20.852c0,38.231,9.716,76.159,28.096,109.681s45.134,62.108,77.367,82.665l184.597,117.725
			c25.799,16.453,47.212,39.331,61.923,66.161c14.712,26.83,22.487,57.186,22.487,87.785c0,9.32,5.602,17.328,13.619,20.852
			c8.018-3.525,13.619-11.532,13.619-20.852C465.008,448.558,455.292,410.631,436.911,377.108z"/>
		<linearGradient id="SVGID_3_" gradientUnits="userSpaceOnUse" x1="335.5693" y1="316.5791" x2="281.5534" y2="262.5631">
			<stop  offset="0" style="stop-color:#F92814;stop-opacity:0"/>
			<stop  offset="1" style="stop-color:#C1272D"/>
		</linearGradient>
		<path style="fill:url(#SVGID_3_);" d="M359.543,294.443l-82.725-52.757l-43.606,26.209l101.842,64.949
			c10.263,6.545,19.817,14.122,28.546,22.544h59.719C406.255,331.205,384.56,310.398,359.543,294.443z"/>
		<linearGradient id="SVGID_4_" gradientUnits="userSpaceOnUse" x1="239.0628" y1="231.1935" x2="289.6671" y2="306.0879">
			<stop  offset="0" style="stop-color:#FF7044"/>
			<stop  offset="1" style="stop-color:#F92814"/>
		</linearGradient>
		<path style="fill:url(#SVGID_4_);" d="M67.764,509.561c-12.577,0-22.772-10.195-22.772-22.772
			c0-38.231,9.716-76.159,28.096-109.681s45.134-62.108,77.367-82.665l184.597-117.725c25.799-16.453,47.212-39.331,61.923-66.161
			c14.712-26.83,22.487-57.186,22.487-87.785C419.464,10.195,429.659,0,442.236,0c12.577,0,22.772,10.195,22.772,22.772
			c0,38.231-9.716,76.159-28.096,109.681s-45.135,62.108-77.368,82.665L174.946,332.843c-25.799,16.452-47.211,39.331-61.922,66.161
			c-14.712,26.83-22.487,57.186-22.487,87.785C90.536,499.366,80.341,509.561,67.764,509.561z"/>
		<linearGradient id="SVGID_5_" gradientUnits="userSpaceOnUse" x1="296.016" y1="343.2704" x2="164.4447" y2="0.173">
			<stop  offset="0" style="stop-color:#FF7044;stop-opacity:0"/>
			<stop  offset="1" style="stop-color:#FFA425"/>
		</linearGradient>
		<path style="fill:url(#SVGID_5_);" d="M174.946,332.843l184.597-117.725c32.234-20.557,58.988-49.143,77.368-82.665
			s28.096-71.45,28.096-109.681c0-10.104-6.582-18.665-15.69-21.643c-9.108,2.978-15.69,11.54-15.69,21.643
			c0,30.599-7.775,60.955-22.487,87.785c-14.711,26.83-36.124,49.708-61.923,66.161L164.62,294.443
			c-32.234,20.557-58.987,49.143-77.367,82.665s-28.096,71.45-28.096,109.681c0,10.104,6.582,18.665,15.69,21.643
			c9.108-2.978,15.69-11.54,15.69-21.643c0-30.599,7.775-60.955,22.487-87.785C127.735,372.174,149.146,349.296,174.946,332.843z"/>
	</g>
	<g>
		<g>
			
				<linearGradient id="SVGID_6_" gradientUnits="userSpaceOnUse" x1="1511.4677" y1="-519.6065" x2="1562.4152" y2="-468.659" gradientTransform="matrix(0.9607 0.2776 -0.2776 0.9607 -1351.3632 226.7714)">
				<stop  offset="0" style="stop-color:#FFDA45"/>
				<stop  offset="1" style="stop-color:#FFA425"/>
			</linearGradient>
			<circle style="fill:url(#SVGID_6_);" cx="255.001" cy="165.394" r="39.337"/>
			
				<linearGradient id="SVGID_7_" gradientUnits="userSpaceOnUse" x1="1530.9053" y1="-498.1974" x2="1506.6343" y2="-532.607" gradientTransform="matrix(0.9607 0.2776 -0.2776 0.9607 -1351.3632 226.7714)">
				<stop  offset="0" style="stop-color:#FFDA45;stop-opacity:0"/>
				<stop  offset="1" style="stop-color:#FCEE21"/>
			</linearGradient>
			<circle style="fill:url(#SVGID_7_);" cx="255.001" cy="165.394" r="32.83"/>
			
				<linearGradient id="SVGID_8_" gradientUnits="userSpaceOnUse" x1="1527.5522" y1="-489.8124" x2="1581.6226" y2="-590.3758" gradientTransform="matrix(0.9607 0.2776 -0.2776 0.9607 -1351.3632 226.7714)">
				<stop  offset="0" style="stop-color:#FFDA45;stop-opacity:0"/>
				<stop  offset="1" style="stop-color:#B53759"/>
			</linearGradient>
			<path style="fill:url(#SVGID_8_);" d="M281.673,136.473c1.079,5.823,0.857,11.979-0.899,18.057
				c-6.03,20.871-27.838,32.903-48.71,26.872c-6.077-1.756-11.403-4.851-15.754-8.87c2.627,14.177,12.977,26.379,27.771,30.653
				c20.872,6.03,42.68-6.001,48.71-26.872C297.066,161.519,292.264,146.256,281.673,136.473z"/>
		</g>
	</g>
	<g>
		<g>
			
				<linearGradient id="SVGID_9_" gradientUnits="userSpaceOnUse" x1="1495.8328" y1="-263.905" x2="1546.7803" y2="-212.9574" gradientTransform="matrix(0.9607 0.2776 -0.2776 0.9607 -1351.3632 226.7714)">
				<stop  offset="0" style="stop-color:#FFDA45"/>
				<stop  offset="1" style="stop-color:#FFA425"/>
			</linearGradient>
			<circle style="fill:url(#SVGID_9_);" cx="168.997" cy="406.706" r="39.337"/>
			
				<linearGradient id="SVGID_10_" gradientUnits="userSpaceOnUse" x1="1515.2704" y1="-242.4958" x2="1490.9993" y2="-276.9054" gradientTransform="matrix(0.9607 0.2776 -0.2776 0.9607 -1351.3632 226.7714)">
				<stop  offset="0" style="stop-color:#FFDA45;stop-opacity:0"/>
				<stop  offset="1" style="stop-color:#FCEE21"/>
			</linearGradient>
			<circle style="fill:url(#SVGID_10_);" cx="168.997" cy="406.706" r="32.83"/>
			
				<linearGradient id="SVGID_11_" gradientUnits="userSpaceOnUse" x1="1511.9172" y1="-234.1109" x2="1565.9877" y2="-334.6742" gradientTransform="matrix(0.9607 0.2776 -0.2776 0.9607 -1351.3632 226.7714)">
				<stop  offset="0" style="stop-color:#FFDA45;stop-opacity:0"/>
				<stop  offset="1" style="stop-color:#B53759"/>
			</linearGradient>
			<path style="fill:url(#SVGID_11_);" d="M195.67,377.785c1.079,5.823,0.857,11.979-0.899,18.057
				c-6.03,20.871-27.838,32.903-48.71,26.872c-6.077-1.756-11.403-4.851-15.754-8.87c2.627,14.177,12.977,26.379,27.771,30.653
				c20.872,6.03,42.68-6.001,48.71-26.872C211.063,402.831,206.261,387.568,195.67,377.785z"/>
		</g>
	</g>
	<g>
		<g>
			<linearGradient id="SVGID_12_" gradientUnits="userSpaceOnUse" x1="330.3081" y1="88.1377" x2="381.2558" y2="139.0853">
				<stop  offset="0" style="stop-color:#18CFFC"/>
				<stop  offset="1" style="stop-color:#4A98F7"/>
			</linearGradient>
			<circle style="fill:url(#SVGID_12_);" cx="345.026" cy="102.856" r="39.337"/>
			<linearGradient id="SVGID_13_" gradientUnits="userSpaceOnUse" x1="349.7458" y1="109.5469" x2="325.4746" y2="75.1371">
				<stop  offset="0" style="stop-color:#18CFFC;stop-opacity:0"/>
				<stop  offset="1" style="stop-color:#65E1DC"/>
			</linearGradient>
			<circle style="fill:url(#SVGID_13_);" cx="345.026" cy="102.856" r="32.83"/>
			<linearGradient id="SVGID_14_" gradientUnits="userSpaceOnUse" x1="346.3923" y1="117.9316" x2="400.4628" y2="17.3679">
				<stop  offset="0" style="stop-color:#0469BC;stop-opacity:0"/>
				<stop  offset="1" style="stop-color:#0469BC"/>
			</linearGradient>
			<path style="fill:url(#SVGID_14_);" d="M362.623,67.667c2.653,5.295,4.149,11.271,4.149,17.597
				c0,21.725-17.612,39.337-39.337,39.337c-6.326,0-12.302-1.495-17.597-4.149c6.459,12.89,19.789,21.74,35.188,21.74
				c21.725,0,39.337-17.612,39.337-39.337C384.363,87.456,375.513,74.126,362.623,67.667z"/>
		</g>
	</g>
	<g>
		<g>
			<linearGradient id="SVGID_15_" gradientUnits="userSpaceOnUse" x1="330.3081" y1="455.945" x2="381.2558" y2="506.8927">
				<stop  offset="0" style="stop-color:#18CFFC"/>
				<stop  offset="1" style="stop-color:#4A98F7"/>
			</linearGradient>
			<circle style="fill:url(#SVGID_15_);" cx="345.026" cy="470.663" r="39.337"/>
			<linearGradient id="SVGID_16_" gradientUnits="userSpaceOnUse" x1="349.7458" y1="477.3543" x2="325.4746" y2="442.9445">
				<stop  offset="0" style="stop-color:#18CFFC;stop-opacity:0"/>
				<stop  offset="1" style="stop-color:#65E1DC"/>
			</linearGradient>
			<circle style="fill:url(#SVGID_16_);" cx="345.026" cy="470.663" r="32.83"/>
			<linearGradient id="SVGID_17_" gradientUnits="userSpaceOnUse" x1="346.3923" y1="485.739" x2="400.4628" y2="385.1753">
				<stop  offset="0" style="stop-color:#0469BC;stop-opacity:0"/>
				<stop  offset="1" style="stop-color:#0469BC"/>
			</linearGradient>
			<path style="fill:url(#SVGID_17_);" d="M362.623,435.475c2.653,5.295,4.149,11.271,4.149,17.597
				c0,21.725-17.612,39.337-39.337,39.337c-6.326,0-12.302-1.495-17.597-4.149c6.459,12.89,19.789,21.74,35.188,21.74
				c21.725,0,39.337-17.612,39.337-39.337C384.363,455.264,375.513,441.933,362.623,435.475z"/>
		</g>
	</g>
	<g>
		<g>
			<linearGradient id="SVGID_18_" gradientUnits="userSpaceOnUse" x1="146.0908" y1="25.5992" x2="197.0384" y2="76.5469">
				<stop  offset="0" style="stop-color:#92F37F"/>
				<stop  offset="1" style="stop-color:#4AB272"/>
			</linearGradient>
			<circle style="fill:url(#SVGID_18_);" cx="160.809" cy="40.317" r="39.337"/>
			<linearGradient id="SVGID_19_" gradientUnits="userSpaceOnUse" x1="165.5285" y1="47.0085" x2="141.2573" y2="12.5987">
				<stop  offset="0" style="stop-color:#92F37F;stop-opacity:0"/>
				<stop  offset="1" style="stop-color:#FFEE83"/>
			</linearGradient>
			<circle style="fill:url(#SVGID_19_);" cx="160.809" cy="40.317" r="32.83"/>
			<linearGradient id="SVGID_20_" gradientUnits="userSpaceOnUse" x1="162.175" y1="55.3932" x2="216.2455" y2="-45.1705">
				<stop  offset="0" style="stop-color:#4AB272;stop-opacity:0"/>
				<stop  offset="1" style="stop-color:#009245"/>
			</linearGradient>
			<path style="fill:url(#SVGID_20_);" d="M178.405,5.129c2.653,5.295,4.149,11.271,4.149,17.597
				c0,21.725-17.612,39.337-39.337,39.337c-6.326,0-12.302-1.495-17.597-4.149c6.459,12.89,19.789,21.74,35.188,21.74
				c21.725,0,39.337-17.612,39.337-39.337C200.146,24.918,191.296,11.588,178.405,5.129z"/>
		</g>
	</g>
	<g>
		<g>
			<linearGradient id="SVGID_21_" gradientUnits="userSpaceOnUse" x1="247.3637" y1="331.107" x2="298.3114" y2="382.0547">
				<stop  offset="0" style="stop-color:#92F37F"/>
				<stop  offset="1" style="stop-color:#4AB272"/>
			</linearGradient>
			<circle style="fill:url(#SVGID_21_);" cx="262.082" cy="345.825" r="39.337"/>
			<linearGradient id="SVGID_22_" gradientUnits="userSpaceOnUse" x1="266.8015" y1="352.5163" x2="242.5303" y2="318.1065">
				<stop  offset="0" style="stop-color:#92F37F;stop-opacity:0"/>
				<stop  offset="1" style="stop-color:#FFEE83"/>
			</linearGradient>
			<circle style="fill:url(#SVGID_22_);" cx="262.082" cy="345.825" r="32.83"/>
			<linearGradient id="SVGID_23_" gradientUnits="userSpaceOnUse" x1="263.4479" y1="360.9009" x2="317.5185" y2="260.3373">
				<stop  offset="0" style="stop-color:#4AB272;stop-opacity:0"/>
				<stop  offset="1" style="stop-color:#009245"/>
			</linearGradient>
			<path style="fill:url(#SVGID_23_);" d="M279.678,310.637c2.653,5.295,4.149,11.271,4.149,17.597
				c0,21.725-17.612,39.337-39.337,39.337c-6.326,0-12.302-1.495-17.597-4.149c6.459,12.89,19.789,21.74,35.188,21.74
				c21.725,0,39.337-17.612,39.337-39.337C301.419,330.426,292.569,317.095,279.678,310.637z"/>
		</g>
	</g>
</g>
<g>
</g>
<g>
</g>
<g>
</g>
<g>
</g>
<g>
</g>
<g>
</g>
<g>
</g>
<g>
</g>
<g>
</g>
<g>
</g>
<g>
</g>
<g>
</g>
<g>
</g>
<g>
</g>
<g>
</g>
</svg>
