<?xml version="1.0" encoding="iso-8859-1"?>
<!-- Generator: Adobe Illustrator 22.0.0, SVG Export Plug-In . SVG Version: 6.00 Build 0)  -->
<svg version="1.1" id="Capa_1" xmlns="http://www.w3.org/2000/svg" xmlns:xlink="http://www.w3.org/1999/xlink" x="0px" y="0px"
	 viewBox="0 0 510 510" style="enable-background:new 0 0 510 510;" xml:space="preserve">
<g>
	<g>
		<linearGradient id="SVGID_1_" gradientUnits="userSpaceOnUse" x1="457.9691" y1="107.061" x2="476.3024" y2="124.061">
			<stop  offset="0" style="stop-color:#7E8595"/>
			<stop  offset="1" style="stop-color:#555A66"/>
		</linearGradient>
		<path style="fill:url(#SVGID_1_);" d="M458.77,145.148h-49.31c51.75-44.76,94.27-78.02,99.9-73.48c0.05,0.02,0.08,0.06,0.12,0.09
			c0.04,0.03,0.06,0.07,0.09,0.12C513.3,76.509,491.5,106.049,458.77,145.148z"/>
		<linearGradient id="SVGID_2_" gradientUnits="userSpaceOnUse" x1="470.4159" y1="112.4536" x2="449.4159" y2="97.7869">
			<stop  offset="0" style="stop-color:#BEC3D2;stop-opacity:0"/>
			<stop  offset="0.221" style="stop-color:#C5C9D7;stop-opacity:0.221"/>
			<stop  offset="0.5343" style="stop-color:#D7DAE3;stop-opacity:0.5343"/>
			<stop  offset="0.9014" style="stop-color:#F6F6F8;stop-opacity:0.9014"/>
			<stop  offset="1" style="stop-color:#FFFFFF"/>
		</linearGradient>
		<path style="fill:url(#SVGID_2_);" d="M450.74,145.148h-30.86c47.75-43.43,85.67-75.77,89.48-73.48c0.05,0.02,0.08,0.06,0.12,0.09
			c0.04,0.03,0.06,0.07,0.09,0.12C511.59,75.248,486.57,105.259,450.74,145.148z"/>
	</g>
	<g>
		<radialGradient id="SVGID_3_" cx="197.4674" cy="122.0571" r="321.4421" gradientUnits="userSpaceOnUse">
			<stop  offset="0" style="stop-color:#FFDAAA"/>
			<stop  offset="0.4213" style="stop-color:#FFD8A8"/>
			<stop  offset="0.6519" style="stop-color:#FED1A0"/>
			<stop  offset="0.8359" style="stop-color:#FDC592"/>
			<stop  offset="0.9951" style="stop-color:#FCB47F"/>
			<stop  offset="1" style="stop-color:#FCB37E"/>
		</radialGradient>
		<path style="fill:url(#SVGID_3_);" d="M428,229.757c12.876,4.032,26.74,3.559,39.463-0.915
			C493.904,219.524,510,194.758,510,168.769c0-9.688-2.242-19.551-7.004-28.849C462.701,61.283,370.086,6.27,262.261,6.27
			C117.421,6.27,0,105.538,0,227.988s117.421,221.719,262.261,221.719c77.876,0,147.823-28.705,195.852-74.277
			c22.174-21.043,14.368-58.099-14.368-68.538c-4.793-1.748-9.863-2.715-14.944-2.715c-2.047,0-4.104,0.154-6.14,0.483
			c-12.455,2.026-25.702-2.078-34.906-12.28c-13.195-14.635-13.103-37.282,0.195-51.825
			C398.493,229.038,414.218,225.438,428,229.757z M285.916,265.466c0-15.972,12.949-28.921,28.921-28.921
			c15.972,0,28.91,12.948,28.91,28.921c0,15.972-12.938,28.91-28.91,28.91C298.865,294.377,285.916,281.438,285.916,265.466z"/>
		<linearGradient id="SVGID_4_" gradientUnits="userSpaceOnUse" x1="306.3579" y1="269.4774" x2="-71.5839" y2="-86.8676">
			<stop  offset="0" style="stop-color:#FFDAAA;stop-opacity:0"/>
			<stop  offset="1" style="stop-color:#FFFFFF"/>
		</linearGradient>
		<path style="fill:url(#SVGID_4_);" d="M493.843,144.61C453.979,66.816,363.082,16.555,262.261,16.555
			c-138.937,0-251.976,94.846-251.976,211.434s113.04,211.434,251.976,211.434c72.106,0,140.911-26.041,188.766-71.448
			c7.796-7.395,11.138-18.091,8.938-28.622c-2.201-10.583-9.575-19.109-19.726-22.791c-3.836-1.399-7.672-2.098-11.437-2.098
			c-1.522,0-3.034,0.113-4.494,0.349c-2.592,0.422-5.235,0.638-7.858,0.638c-13.823,0-27.059-5.904-36.336-16.188
			c-16.651-18.461-16.538-47.3,0.247-65.648c9.256-10.11,22.41-15.91,36.079-15.91c4.978,0,9.904,0.751,14.635,2.232
			c4.844,1.522,9.925,2.294,15.098,2.294c6.047,0,12.054-1.039,17.865-3.096c14.543-5.122,26.154-16.27,31.862-30.597
			C501.587,174.271,500.836,158.258,493.843,144.61z M314.837,294.377c-15.972,0-28.921-12.938-28.921-28.91
			c0-15.972,12.949-28.921,28.921-28.921c15.972,0,28.91,12.948,28.91,28.921C343.747,281.438,330.809,294.377,314.837,294.377z"/>
		
			<linearGradient id="SVGID_5_" gradientUnits="userSpaceOnUse" x1="347.262" y1="298.2792" x2="287.083" y2="238.1003" gradientTransform="matrix(0.8826 0.4702 -0.4702 0.8826 162.1364 -116.6392)">
			<stop  offset="0" style="stop-color:#FFDAAA"/>
			<stop  offset="0.4213" style="stop-color:#FFD8A8"/>
			<stop  offset="0.6519" style="stop-color:#FED1A0"/>
			<stop  offset="0.8359" style="stop-color:#FDC592"/>
			<stop  offset="0.9951" style="stop-color:#FCB47F"/>
			<stop  offset="1" style="stop-color:#FCB37E"/>
		</linearGradient>
		<path style="fill:url(#SVGID_5_);" d="M332.457,232.395c-18.269-9.733-40.968-2.814-50.702,15.455
			c-9.733,18.269-2.805,40.951,15.464,50.684c18.269,9.733,40.941,2.822,50.674-15.447
			C357.628,264.819,350.726,242.129,332.457,232.395z M301.241,290.988c-14.103-7.514-19.439-25.019-11.93-39.113
			c7.514-14.103,25.019-19.439,39.122-11.925c14.094,7.509,19.43,25.014,11.916,39.117
			C332.84,293.162,315.335,298.497,301.241,290.988z"/>
		<g>
			<linearGradient id="SVGID_6_" gradientUnits="userSpaceOnUse" x1="132.6587" y1="190.3967" x2="59.9798" y2="117.7178">
				<stop  offset="0" style="stop-color:#FFDAAA"/>
				<stop  offset="0.4213" style="stop-color:#FFD8A8"/>
				<stop  offset="0.6519" style="stop-color:#FED1A0"/>
				<stop  offset="0.8359" style="stop-color:#FDC592"/>
				<stop  offset="0.9951" style="stop-color:#FCB47F"/>
				<stop  offset="1" style="stop-color:#FCB37E"/>
			</linearGradient>
			<circle style="fill:url(#SVGID_6_);" cx="100.776" cy="158.514" r="55.194"/>
			<g>
				
					<linearGradient id="SVGID_7_" gradientUnits="userSpaceOnUse" x1="259.5533" y1="270.5848" x2="324.4401" y2="335.4716" gradientTransform="matrix(0.9607 0.2776 -0.2776 0.9607 -86.2671 -196.7006)">
					<stop  offset="0" style="stop-color:#FFDA45"/>
					<stop  offset="1" style="stop-color:#FFA425"/>
				</linearGradient>
				<circle style="fill:url(#SVGID_7_);" cx="100.776" cy="158.514" r="50.1"/>
				
					<linearGradient id="SVGID_8_" gradientUnits="userSpaceOnUse" x1="284.3091" y1="297.8516" x2="253.3974" y2="254.0274" gradientTransform="matrix(0.9607 0.2776 -0.2776 0.9607 -86.2671 -196.7006)">
					<stop  offset="0" style="stop-color:#FFDA45;stop-opacity:0"/>
					<stop  offset="1" style="stop-color:#FCEE21"/>
				</linearGradient>
				<circle style="fill:url(#SVGID_8_);" cx="100.776" cy="158.514" r="41.812"/>
				
					<linearGradient id="SVGID_9_" gradientUnits="userSpaceOnUse" x1="280.0386" y1="308.5306" x2="348.9027" y2="180.4529" gradientTransform="matrix(0.9607 0.2776 -0.2776 0.9607 -86.2671 -196.7006)">
					<stop  offset="0" style="stop-color:#FFDA45;stop-opacity:0"/>
					<stop  offset="1" style="stop-color:#B53759"/>
				</linearGradient>
				<path style="fill:url(#SVGID_9_);" d="M134.746,121.68c1.374,7.417,1.092,15.257-1.145,22.997
					c-7.68,26.582-35.455,41.905-62.037,34.225c-7.74-2.236-14.523-6.178-20.064-11.297c3.346,18.055,16.528,33.596,35.37,39.04
					c26.582,7.68,54.357-7.643,62.037-34.225C154.351,153.578,148.235,134.139,134.746,121.68z"/>
			</g>
		</g>
		<g>
			<linearGradient id="SVGID_10_" gradientUnits="userSpaceOnUse" x1="382.6038" y1="130.2761" x2="309.9249" y2="57.5972">
				<stop  offset="0" style="stop-color:#FFDAAA"/>
				<stop  offset="0.4213" style="stop-color:#FFD8A8"/>
				<stop  offset="0.6519" style="stop-color:#FED1A0"/>
				<stop  offset="0.8359" style="stop-color:#FDC592"/>
				<stop  offset="0.9951" style="stop-color:#FCB47F"/>
				<stop  offset="1" style="stop-color:#FCB37E"/>
			</linearGradient>
			<circle style="fill:url(#SVGID_10_);" cx="350.721" cy="98.393" r="55.194"/>
			<g>
				<linearGradient id="SVGID_11_" gradientUnits="userSpaceOnUse" x1="331.9762" y1="79.6484" x2="396.8633" y2="144.5355">
					<stop  offset="0" style="stop-color:#FF7044"/>
					<stop  offset="1" style="stop-color:#F92814"/>
				</linearGradient>
				<circle style="fill:url(#SVGID_11_);" cx="350.721" cy="98.393" r="50.1"/>
				<linearGradient id="SVGID_12_" gradientUnits="userSpaceOnUse" x1="356.7321" y1="106.9153" x2="325.8203" y2="63.091">
					<stop  offset="0" style="stop-color:#FF7044;stop-opacity:0"/>
					<stop  offset="1" style="stop-color:#FFA425"/>
				</linearGradient>
				<circle style="fill:url(#SVGID_12_);" cx="350.721" cy="98.393" r="41.812"/>
				<linearGradient id="SVGID_13_" gradientUnits="userSpaceOnUse" x1="352.461" y1="117.5941" x2="421.3254" y2="-10.484">
					<stop  offset="0" style="stop-color:#F92814;stop-opacity:0"/>
					<stop  offset="1" style="stop-color:#C1272D"/>
				</linearGradient>
				<path style="fill:url(#SVGID_13_);" d="M373.132,53.577c3.379,6.744,5.284,14.354,5.284,22.411c0,27.669-22.43,50.1-50.1,50.1
					c-8.056,0-15.667-1.905-22.411-5.284c8.226,16.417,25.203,27.688,44.816,27.688c27.669,0,50.1-22.43,50.1-50.1
					C400.821,78.781,389.549,61.803,373.132,53.577z"/>
			</g>
		</g>
		<g>
			<linearGradient id="SVGID_14_" gradientUnits="userSpaceOnUse" x1="248.755" y1="119.898" x2="176.0761" y2="47.2191">
				<stop  offset="0" style="stop-color:#FFDAAA"/>
				<stop  offset="0.4213" style="stop-color:#FFD8A8"/>
				<stop  offset="0.6519" style="stop-color:#FED1A0"/>
				<stop  offset="0.8359" style="stop-color:#FDC592"/>
				<stop  offset="0.9951" style="stop-color:#FCB47F"/>
				<stop  offset="1" style="stop-color:#FCB37E"/>
			</linearGradient>
			<circle style="fill:url(#SVGID_14_);" cx="216.872" cy="88.015" r="55.194"/>
			<g>
				<linearGradient id="SVGID_15_" gradientUnits="userSpaceOnUse" x1="198.1274" y1="69.2703" x2="263.0144" y2="134.1574">
					<stop  offset="0" style="stop-color:#18CFFC"/>
					<stop  offset="1" style="stop-color:#4A98F7"/>
				</linearGradient>
				<circle style="fill:url(#SVGID_15_);" cx="216.872" cy="88.015" r="50.1"/>
				<linearGradient id="SVGID_16_" gradientUnits="userSpaceOnUse" x1="222.8833" y1="96.5372" x2="191.9715" y2="52.7129">
					<stop  offset="0" style="stop-color:#18CFFC;stop-opacity:0"/>
					<stop  offset="1" style="stop-color:#65E1DC"/>
				</linearGradient>
				<circle style="fill:url(#SVGID_16_);" cx="216.872" cy="88.015" r="41.812"/>
				<linearGradient id="SVGID_17_" gradientUnits="userSpaceOnUse" x1="218.6122" y1="107.216" x2="287.4766" y2="-20.8621">
					<stop  offset="0" style="stop-color:#0469BC;stop-opacity:0"/>
					<stop  offset="1" style="stop-color:#0469BC"/>
				</linearGradient>
				<path style="fill:url(#SVGID_17_);" d="M239.283,43.199c3.379,6.744,5.284,14.354,5.284,22.411c0,27.669-22.43,50.1-50.1,50.1
					c-8.057,0-15.667-1.905-22.411-5.284c8.226,16.417,25.203,27.689,44.816,27.689c27.669,0,50.1-22.43,50.1-50.1
					C266.972,68.403,255.7,51.425,239.283,43.199z"/>
			</g>
		</g>
		<g>
			<linearGradient id="SVGID_18_" gradientUnits="userSpaceOnUse" x1="127.5769" y1="323.6215" x2="54.898" y2="250.9426">
				<stop  offset="0" style="stop-color:#FFDAAA"/>
				<stop  offset="0.4213" style="stop-color:#FFD8A8"/>
				<stop  offset="0.6519" style="stop-color:#FED1A0"/>
				<stop  offset="0.8359" style="stop-color:#FDC592"/>
				<stop  offset="0.9951" style="stop-color:#FCB47F"/>
				<stop  offset="1" style="stop-color:#FCB37E"/>
			</linearGradient>
			<circle style="fill:url(#SVGID_18_);" cx="95.694" cy="291.739" r="55.194"/>
			<g>
				<linearGradient id="SVGID_19_" gradientUnits="userSpaceOnUse" x1="76.9492" y1="272.9938" x2="141.8363" y2="337.881">
					<stop  offset="0" style="stop-color:#92F37F"/>
					<stop  offset="1" style="stop-color:#4AB272"/>
				</linearGradient>
				<circle style="fill:url(#SVGID_19_);" cx="95.694" cy="291.739" r="50.1"/>
				<linearGradient id="SVGID_20_" gradientUnits="userSpaceOnUse" x1="101.7052" y1="300.2607" x2="70.7934" y2="256.4364">
					<stop  offset="0" style="stop-color:#92F37F;stop-opacity:0"/>
					<stop  offset="1" style="stop-color:#FFEE83"/>
				</linearGradient>
				<circle style="fill:url(#SVGID_20_);" cx="95.694" cy="291.739" r="41.812"/>
				<linearGradient id="SVGID_21_" gradientUnits="userSpaceOnUse" x1="97.4341" y1="310.9395" x2="166.2985" y2="182.8614">
					<stop  offset="0" style="stop-color:#4AB272;stop-opacity:0"/>
					<stop  offset="1" style="stop-color:#009245"/>
				</linearGradient>
				<path style="fill:url(#SVGID_21_);" d="M118.105,246.923c3.379,6.744,5.284,14.354,5.284,22.411c0,27.669-22.43,50.1-50.1,50.1
					c-8.057,0-15.667-1.905-22.411-5.284c8.226,16.417,25.203,27.688,44.816,27.688c27.669,0,50.1-22.43,50.1-50.099
					C145.794,272.126,134.522,255.149,118.105,246.923z"/>
			</g>
		</g>
	</g>
	<linearGradient id="SVGID_22_" gradientUnits="userSpaceOnUse" x1="344.0156" y1="436.9731" x2="238.3724" y2="331.3298">
		<stop  offset="0" style="stop-color:#FCB37E;stop-opacity:0"/>
		<stop  offset="1" style="stop-color:#FF7044"/>
	</linearGradient>
	<path style="fill:url(#SVGID_22_);" d="M262.261,449.707c77.876,0,147.823-28.705,195.853-74.276
		c1.294-1.228,2.477-2.516,3.568-3.845L337.026,246.93c4.194,5.02,6.721,11.482,6.721,18.536c0,15.972-12.938,28.91-28.91,28.91
		c-7.058,0-13.523-2.529-18.544-6.728L153.965,429.976C186.978,442.647,223.644,449.707,262.261,449.707z"/>
	<g>
		<linearGradient id="SVGID_23_" gradientUnits="userSpaceOnUse" x1="246.548" y1="318.4404" x2="291.3545" y2="363.2469">
			<stop  offset="0" style="stop-color:#7E8595"/>
			<stop  offset="1" style="stop-color:#555A66"/>
		</linearGradient>
		<path style="fill:url(#SVGID_23_);" d="M343.75,265.469c0,4.07-0.84,7.95-2.36,11.46c-4.52,4.84-8.98,9.6-13.38,14.27
			c-19.43,20.62-37.5,39.33-52.39,54.22c-77.6,77.6-90.79,73.31-101.71,62.53c-0.11-0.1-0.22-0.21-0.32-0.31
			c-0.1-0.1-0.21-0.21-0.31-0.32c-10.77-10.92-15.06-24.1,62.54-101.7c14.33-14.32,32.19-31.59,51.9-50.18
			c6.12-5.79,12.42-11.69,18.85-17.68c2.62-0.79,5.39-1.21,8.27-1.21c2.18,0,4.31,0.24,6.36,0.71
			c11.39,2.55,20.23,11.82,22.15,23.44C343.62,262.249,343.75,263.839,343.75,265.469z"/>
		<linearGradient id="SVGID_24_" gradientUnits="userSpaceOnUse" x1="250.6887" y1="322.6623" x2="204.6888" y2="277.6624">
			<stop  offset="0" style="stop-color:#BEC3D2;stop-opacity:0"/>
			<stop  offset="0.221" style="stop-color:#C5C9D7;stop-opacity:0.221"/>
			<stop  offset="0.5343" style="stop-color:#D7DAE3;stop-opacity:0.5343"/>
			<stop  offset="0.9014" style="stop-color:#F6F6F8;stop-opacity:0.9014"/>
			<stop  offset="1" style="stop-color:#FFFFFF"/>
		</linearGradient>
		<path style="fill:url(#SVGID_24_);" d="M343.35,260.698c-11.03,11.57-21.83,22.82-32.13,33.45
			c-15.93,16.45-30.62,31.43-43.03,43.84c-77.17,77.16-87.41,76.58-94.28,69.96c-0.11-0.1-0.22-0.21-0.32-0.31
			c-0.1-0.1-0.21-0.21-0.31-0.32c-6.61-6.86-7.2-17.1,69.97-94.27c12.23-12.23,26.97-26.69,43.15-42.36
			c11.04-10.69,22.75-21.94,34.8-33.43C332.59,239.809,341.43,249.079,343.35,260.698z"/>
		<g>
			
				<linearGradient id="SVGID_25_" gradientUnits="userSpaceOnUse" x1="426.9877" y1="-406.9418" x2="532.3219" y2="-335.2745" gradientTransform="matrix(0.7071 0.7071 0.7071 -0.7071 75.6815 -155.047)">
				<stop  offset="0" style="stop-color:#7E8595"/>
				<stop  offset="1" style="stop-color:#555A66"/>
			</linearGradient>
			<path style="fill:url(#SVGID_25_);" d="M80.61,500.942c-3.412-0.841-3.587-5.595-0.252-6.703
				c5.623-1.868,10.906-5.038,15.377-9.51c6.265-6.265,9.966-14.119,11.11-22.266c0.86-6.125-0.067-12.331-2.016-18.202
				c-5.907-17.792-1.465-38.264,13.345-52.01c18.844-17.489,48.424-17.516,67.297-0.059c17.137,15.851,20.381,36.259,11.249,56.821
				c-3.311,7.455-8.084,14.17-13.733,20.055C144.591,509.076,100.015,505.727,80.61,500.942z"/>
			
				<linearGradient id="SVGID_26_" gradientUnits="userSpaceOnUse" x1="468.0213" y1="-387.5778" x2="526.5219" y2="-444.0784" gradientTransform="matrix(0.7071 0.7071 0.7071 -0.7071 75.6815 -155.047)">
				<stop  offset="0" style="stop-color:#555A66;stop-opacity:0"/>
				<stop  offset="1" style="stop-color:#555A66"/>
			</linearGradient>
			<path style="fill:url(#SVGID_26_);" d="M79.139,500.188c-1.889-1.628-1.539-5.032,1.219-5.949
				c5.623-1.868,10.906-5.038,15.377-9.51c6.265-6.265,9.966-14.119,11.11-22.266c0.86-6.125-0.067-12.331-2.016-18.202
				c-5.907-17.792-1.465-38.264,13.345-52.01c17.351-16.103,43.797-17.389,62.613-3.866c6.835,11.325,8.282,24.824,4.533,39.251
				c-2.116,8.143-5.845,15.778-10.603,22.717C143.975,495.179,100.971,501.092,79.139,500.188z"/>
			
				<linearGradient id="SVGID_27_" gradientUnits="userSpaceOnUse" x1="456.0004" y1="-371.5937" x2="477.0006" y2="-310.2598" gradientTransform="matrix(0.7071 0.7071 0.7071 -0.7071 75.6815 -155.047)">
				<stop  offset="0" style="stop-color:#555A66;stop-opacity:0"/>
				<stop  offset="1" style="stop-color:#555A66"/>
			</linearGradient>
			<path style="fill:url(#SVGID_27_);" d="M80.358,494.239c5.623-1.868,10.906-5.038,15.377-9.51
				c6.265-6.265,9.966-14.119,11.11-22.267c0.86-6.125-0.067-12.331-2.016-18.201c-5.907-17.792-1.465-38.264,13.345-52.01
				c1.165-1.081,2.371-2.096,3.613-3.043c12.868-9.818,31.63-6.391,39.717,7.629c0.286,0.496,0.537,0.968,0.744,1.409
				c6.293,13.357,5.953,28.288-0.515,43.32c-3.702,8.603-9.201,16.291-15.722,23.014c-22.149,22.835-46.149,32.411-66.885,35.599
				C77.25,498.547,77.605,495.153,80.358,494.239z"/>
			
				<linearGradient id="SVGID_28_" gradientUnits="userSpaceOnUse" x1="476.4007" y1="-379.5583" x2="334.0657" y2="-392.5584" gradientTransform="matrix(0.7071 0.7071 0.7071 -0.7071 75.6815 -155.047)">
				<stop  offset="0" style="stop-color:#BEC3D2;stop-opacity:0"/>
				<stop  offset="0.221" style="stop-color:#C5C9D7;stop-opacity:0.221"/>
				<stop  offset="0.5343" style="stop-color:#D7DAE3;stop-opacity:0.5343"/>
				<stop  offset="0.9014" style="stop-color:#F6F6F8;stop-opacity:0.9014"/>
				<stop  offset="1" style="stop-color:#FFFFFF"/>
			</linearGradient>
			<path style="fill:url(#SVGID_28_);" d="M180.15,400.946c-0.475-0.475-0.966-0.947-1.469-1.413
				c-15.068-13.938-38.658-13.917-53.704,0.048c-11.352,10.536-15.535,26.836-10.657,41.529c2.621,7.895,3.438,15.546,2.428,22.742
				c-1.497,10.659-6.317,20.324-13.942,27.948c-0.632,0.632-1.278,1.245-1.937,1.839c19.228,0.708,48.469-3.951,74.903-31.494
				c5.156-5.372,9.129-11.156,11.808-17.19c5.132-11.555,8.009-28.57-7.428-44.007C180.151,400.948,180.151,400.947,180.15,400.946z
				"/>
		</g>
		<linearGradient id="SVGID_29_" gradientUnits="userSpaceOnUse" x1="205.7553" y1="356.7447" x2="220.7553" y2="371.7447">
			<stop  offset="0" style="stop-color:#F9F7FC"/>
			<stop  offset="1" style="stop-color:#F0DDFC"/>
		</linearGradient>
		<path style="fill:url(#SVGID_29_);" d="M269.224,358.568l-46.556-46.556c-33.588,34.436-48.974,55.168-54.468,68.823
			l32.202,32.202C214.056,407.542,234.788,392.155,269.224,358.568z"/>
		
			<linearGradient id="SVGID_30_" gradientUnits="userSpaceOnUse" x1="1077.8862" y1="-244.0346" x2="1113.8867" y2="-365.5359" gradientTransform="matrix(-0.7071 -0.7071 0.7071 -0.7071 1180.5944 949.8659)">
			<stop  offset="0" style="stop-color:#F0DDFC;stop-opacity:0"/>
			<stop  offset="0.2889" style="stop-color:#C8B7E0;stop-opacity:0.2889"/>
			<stop  offset="0.5915" style="stop-color:#A595C8;stop-opacity:0.5915"/>
			<stop  offset="0.8395" style="stop-color:#8F81B8;stop-opacity:0.8395"/>
			<stop  offset="1" style="stop-color:#8779B3"/>
		</linearGradient>
		<path style="fill:url(#SVGID_30_);" d="M255.97,371.23l-82.917,0c-2.103,3.553-3.7,6.737-4.854,9.605l32.202,32.202
			C212.205,408.286,229.307,396.133,255.97,371.23z"/>
		
			<linearGradient id="SVGID_31_" gradientUnits="userSpaceOnUse" x1="477.2863" y1="-314.4891" x2="483.6751" y2="-294.4099" gradientTransform="matrix(0.7071 0.7071 0.7071 -0.7071 67.5152 -163.2134)">
			<stop  offset="0" style="stop-color:#F9F7FC"/>
			<stop  offset="1" style="stop-color:#F0DDFC"/>
		</linearGradient>
		<path style="fill:url(#SVGID_31_);" d="M208.996,406.78l-34.54-34.54c-2.112-2.112-5.535-2.112-7.647,0l-2.444,2.444
			c-2.112,2.112-2.112,5.535,0,7.647l34.54,34.54c2.112,2.112,5.535,2.112,7.647,0l2.445-2.444
			C211.108,412.315,211.108,408.892,208.996,406.78z"/>
		
			<linearGradient id="SVGID_32_" gradientUnits="userSpaceOnUse" x1="1076.1987" y1="-184.4385" x2="1113.1992" y2="-256.1061" gradientTransform="matrix(-0.7071 -0.7071 0.7071 -0.7071 1180.5944 949.8659)">
			<stop  offset="0" style="stop-color:#555A66;stop-opacity:0"/>
			<stop  offset="1" style="stop-color:#555A66"/>
		</linearGradient>
		<path style="fill:url(#SVGID_32_);" d="M227.488,314.022l39.725,39.725c2.718-2.67,5.511-5.436,8.405-8.33
			c10.795-10.795,22.273-22.612,34.013-34.992l-78.594,0C229.833,311.641,228.65,312.84,227.488,314.022z"/>
		
			<linearGradient id="SVGID_33_" gradientUnits="userSpaceOnUse" x1="477.0981" y1="-231.2608" x2="484.3561" y2="-208.4498" gradientTransform="matrix(0.7071 0.7071 0.7071 -0.7071 67.5152 -163.2134)">
			<stop  offset="0" style="stop-color:#F9F7FC"/>
			<stop  offset="1" style="stop-color:#F0DDFC"/>
		</linearGradient>
		<path style="fill:url(#SVGID_33_);" d="M272.853,352.099l-43.717-43.717c-2.112-2.112-5.535-2.112-7.647,0l-2.445,2.444
			c-2.112,2.112-2.112,5.535,0,7.647l43.717,43.717c2.112,2.112,5.535,2.112,7.647,0l2.444-2.444
			C274.965,357.634,274.965,354.211,272.853,352.099z"/>
	</g>
</g>
<g>
</g>
<g>
</g>
<g>
</g>
<g>
</g>
<g>
</g>
<g>
</g>
<g>
</g>
<g>
</g>
<g>
</g>
<g>
</g>
<g>
</g>
<g>
</g>
<g>
</g>
<g>
</g>
<g>
</g>
</svg>
