<?xml version="1.0" encoding="iso-8859-1"?>
<!-- Generator: Adobe Illustrator 22.0.0, SVG Export Plug-In . SVG Version: 6.00 Build 0)  -->
<svg version="1.1" id="Capa_1" xmlns="http://www.w3.org/2000/svg" xmlns:xlink="http://www.w3.org/1999/xlink" x="0px" y="0px"
	 viewBox="0 0 510 510" style="enable-background:new 0 0 510 510;" xml:space="preserve">
<g>
	<g>
		
			<linearGradient id="SVGID_1_" gradientUnits="userSpaceOnUse" x1="-480.5008" y1="2200.2849" x2="-473.6624" y2="2200.2849" gradientTransform="matrix(1 0 0 1 542.2899 -1705.6888)">
			<stop  offset="0" style="stop-color:#7E8595"/>
			<stop  offset="1" style="stop-color:#555A66"/>
		</linearGradient>
		<path style="fill:url(#SVGID_1_);" d="M52.392,479.192C55.734,498.821,59.58,510,63.671,510c4.092,0,7.937-11.179,11.279-30.808
			H52.392z"/>
		
			<linearGradient id="SVGID_2_" gradientUnits="userSpaceOnUse" x1="-499.3208" y1="1952.9257" x2="-445.1584" y2="1952.9257" gradientTransform="matrix(1 0 0 1 542.2899 -1705.6888)">
			<stop  offset="0" style="stop-color:#7E8595"/>
			<stop  offset="1" style="stop-color:#555A66"/>
		</linearGradient>
		<ellipse style="fill:url(#SVGID_2_);" cx="63.671" cy="247.237" rx="48.515" ry="247.237"/>
		
			<linearGradient id="SVGID_3_" gradientUnits="userSpaceOnUse" x1="-465.6572" y1="1949.6481" x2="-629.3906" y2="1991.0519" gradientTransform="matrix(1 0 0 1 542.2899 -1705.6888)">
			<stop  offset="0" style="stop-color:#BEC3D2;stop-opacity:0"/>
			<stop  offset="0.221" style="stop-color:#C5C9D7;stop-opacity:0.221"/>
			<stop  offset="0.5343" style="stop-color:#D7DAE3;stop-opacity:0.5343"/>
			<stop  offset="0.9014" style="stop-color:#F6F6F8;stop-opacity:0.9014"/>
			<stop  offset="1" style="stop-color:#FFFFFF"/>
		</linearGradient>
		<ellipse style="fill:url(#SVGID_3_);" cx="63.671" cy="247.237" rx="30.406" ry="247.237"/>
		
			<linearGradient id="SVGID_4_" gradientUnits="userSpaceOnUse" x1="-496.5392" y1="2137.2383" x2="-449.6541" y2="2137.2383" gradientTransform="matrix(1 0 0 1 542.2899 -1705.6888)">
			<stop  offset="0" style="stop-color:#FFDA45"/>
			<stop  offset="1" style="stop-color:#FFA425"/>
		</linearGradient>
		<path style="fill:url(#SVGID_4_);" d="M63.671,368.625c-14.467,0-28.527,0.855-41.996,2.458
			c8.395,73.771,24.058,123.39,41.996,123.39s33.601-49.62,41.996-123.39C92.198,369.48,78.138,368.625,63.671,368.625z"/>
		
			<linearGradient id="SVGID_5_" gradientUnits="userSpaceOnUse" x1="-462.9024" y1="2135.6213" x2="-514.6572" y2="2139.3855" gradientTransform="matrix(1 0 0 1 542.2899 -1705.6888)">
			<stop  offset="0" style="stop-color:#FFDA45;stop-opacity:0"/>
			<stop  offset="1" style="stop-color:#FCEE21"/>
		</linearGradient>
		<path style="fill:url(#SVGID_5_);" d="M90.098,369.589c-8.623-0.633-17.446-0.964-26.426-0.964
			c-8.981,0-17.804,0.331-26.426,0.964c5.235,74.594,15.108,124.884,26.426,124.884C74.989,494.474,84.863,444.184,90.098,369.589z"
			/>
		
			<linearGradient id="SVGID_6_" gradientUnits="userSpaceOnUse" x1="-430.2974" y1="1898.6949" x2="-468.5645" y2="1888.6576" gradientTransform="matrix(1 0 0 1 542.2899 -1705.6888)">
			<stop  offset="0" style="stop-color:#555A66;stop-opacity:0"/>
			<stop  offset="1" style="stop-color:#555A66"/>
		</linearGradient>
		<path style="fill:url(#SVGID_6_);" d="M112.186,247.237c0-55.424-3.579-106.588-9.623-147.82L77.945,74.8
			c-1.971-2.466-4.978-4.021-8.319-4.021c-3.97,0-7.94,0-11.911,0c-5.198,0-9.603,3.752-10.522,8.868
			c-9.54,53.134,12.232,105.548,4.585,158.63c-0.634,4.404,1.164,8.527,4.304,11.107l54.807,54.807
			C111.736,285.905,112.186,266.84,112.186,247.237z"/>
		<g>
			
				<linearGradient id="SVGID_7_" gradientUnits="userSpaceOnUse" x1="-495.0785" y1="1783.0139" x2="-452.0151" y2="1783.0139" gradientTransform="matrix(1 0 0 1 542.2899 -1705.6888)">
				<stop  offset="0" style="stop-color:#FFDA45"/>
				<stop  offset="1" style="stop-color:#FFA425"/>
			</linearGradient>
			<path style="fill:url(#SVGID_7_);" d="M63.671,65.59c-11.135,0-22.025,0.513-32.593,1.479c-1.604,0.146-2.913,1.335-3.23,2.913
				c-0.899,4.478-1.993,10.639-2.699,14.84c-0.396,2.356,1.548,4.452,3.926,4.221c11.193-1.088,22.755-1.668,34.595-1.668
				c11.84,0,23.403,0.58,34.595,1.668c2.378,0.231,4.322-1.865,3.926-4.221c-0.706-4.201-1.799-10.362-2.699-14.84
				c-0.317-1.579-1.626-2.767-3.23-2.913C85.696,66.103,74.806,65.59,63.671,65.59z"/>
			
				<linearGradient id="SVGID_8_" gradientUnits="userSpaceOnUse" x1="-484.8407" y1="1783.7875" x2="-512.6" y2="1784.9636" gradientTransform="matrix(1 0 0 1 542.2899 -1705.6888)">
				<stop  offset="0" style="stop-color:#FFDA45;stop-opacity:0"/>
				<stop  offset="1" style="stop-color:#FCEE21"/>
			</linearGradient>
			<path style="fill:url(#SVGID_8_);" d="M102.193,84.822c-0.706-4.201-1.799-10.362-2.699-14.84
				c-0.317-1.579-1.626-2.767-3.23-2.913c-8.987-0.821-18.217-1.292-27.622-1.422c-9.405,0.13-18.635,0.601-27.622,1.422
				c-1.604,0.146-2.913,1.335-3.23,2.913c-0.899,4.478-1.993,10.639-2.699,14.84c-0.244,1.454,0.403,2.806,1.493,3.576
				c8.833-0.668,17.874-1.023,27.087-1.023c1.663,0,3.319,0.014,4.971,0.037c1.652-0.023,3.308-0.037,4.971-0.037
				c9.213,0,18.254,0.355,27.087,1.023C101.789,87.628,102.437,86.275,102.193,84.822z"/>
		</g>
		
			<linearGradient id="SVGID_9_" gradientUnits="userSpaceOnUse" x1="-441.5804" y1="1819.6681" x2="-480.4748" y2="1786.7333" gradientTransform="matrix(1 0 0 1 542.2899 -1705.6888)">
			<stop  offset="0" style="stop-color:#FFDA45;stop-opacity:0"/>
			<stop  offset="1" style="stop-color:#B53759"/>
		</linearGradient>
		<path style="fill:url(#SVGID_9_);" d="M63.671,87.375c9.51,0,18.836,0.38,27.94,1.091L77.945,74.8
			c-1.971-2.466-4.978-4.021-8.319-4.021c-3.97,0-7.94,0-11.911,0c-5.198,0-9.603,3.752-10.522,8.868
			c-0.489,2.723-0.876,5.443-1.209,8.162C51.802,87.523,57.701,87.375,63.671,87.375z"/>
		<g>
			<g>
				
					<linearGradient id="SVGID_10_" gradientUnits="userSpaceOnUse" x1="-486.7016" y1="1867.1316" x2="-465.5546" y2="1867.1316" gradientTransform="matrix(1 0 0 1 542.2899 -1705.6888)">
					<stop  offset="0" style="stop-color:#FFDA45"/>
					<stop  offset="1" style="stop-color:#FFA425"/>
				</linearGradient>
				<path style="fill:url(#SVGID_10_);" d="M63.671,252.107L63.671,252.107c-7.361,0-12.941-6.544-11.892-13.83
					c7.647-53.083-14.125-105.496-4.585-158.63c0.919-5.116,5.324-8.868,10.522-8.868c3.97,0,7.941,0,11.911,0
					c5.198,0,9.603,3.752,10.522,8.868c9.542,53.134-12.232,105.548-4.585,158.631C76.612,245.563,71.032,252.107,63.671,252.107z"
					/>
			</g>
			
				<linearGradient id="SVGID_11_" gradientUnits="userSpaceOnUse" x1="-465.182" y1="1867.4896" x2="-493.4119" y2="1864.6666" gradientTransform="matrix(1 0 0 1 542.2899 -1705.6888)">
				<stop  offset="0" style="stop-color:#FFDA45;stop-opacity:0"/>
				<stop  offset="1" style="stop-color:#FCEE21"/>
			</linearGradient>
			<path style="fill:url(#SVGID_11_);" d="M56.133,79.647c-9.54,53.134,12.232,105.548,4.585,158.63
				c-0.822,5.71,2.435,10.948,7.422,12.954c4.987-2.006,8.245-7.245,7.422-12.954C67.917,185.194,89.69,132.78,80.148,79.647
				c-0.919-5.116-5.324-8.868-10.522-8.868c-0.991,0-1.981,0-2.971,0C61.457,70.779,57.052,74.531,56.133,79.647z"/>
		</g>
	</g>
	<g>
		<linearGradient id="SVGID_12_" gradientUnits="userSpaceOnUse" x1="186.048" y1="113.8748" x2="541.7942" y2="498.7458">
			<stop  offset="0" style="stop-color:#FFDAAA"/>
			<stop  offset="0.4213" style="stop-color:#FFD8A8"/>
			<stop  offset="0.6519" style="stop-color:#FED1A0"/>
			<stop  offset="0.8359" style="stop-color:#FDC592"/>
			<stop  offset="0.9951" style="stop-color:#FCB47F"/>
			<stop  offset="1" style="stop-color:#FCB37E"/>
		</linearGradient>
		<path style="fill:url(#SVGID_12_);" d="M471.76,510H161.228c-12.749,0-23.084-10.335-23.084-23.084V23.084
			C138.144,10.335,148.479,0,161.228,0H471.76c12.749,0,23.084,10.335,23.084,23.084v463.832
			C494.844,499.665,484.508,510,471.76,510z"/>
		<linearGradient id="SVGID_13_" gradientUnits="userSpaceOnUse" x1="555.0298" y1="379.0414" x2="57.9486" y2="120.5594">
			<stop  offset="0" style="stop-color:#FCB37E;stop-opacity:0"/>
			<stop  offset="1" style="stop-color:#FF7044"/>
		</linearGradient>
		<path style="fill:url(#SVGID_13_);" d="M481.193,2.017C483.597,5.659,485,10.021,485,14.711v463.832
			c0,12.749-10.335,23.084-23.084,23.084H151.384c-3.362,0-6.553-0.725-9.434-2.017c4.129,6.258,11.219,10.389,19.277,10.389H471.76
			c12.749,0,23.084-10.335,23.084-23.084V23.084C494.844,13.697,489.237,5.624,481.193,2.017z"/>
		<linearGradient id="SVGID_14_" gradientUnits="userSpaceOnUse" x1="455.3737" y1="403.692" x2="216.2208" y2="192.6574">
			<stop  offset="0" style="stop-color:#FCB37E;stop-opacity:0"/>
			<stop  offset="1" style="stop-color:#FF7044"/>
		</linearGradient>
		<path style="fill:url(#SVGID_14_);" d="M494.844,486.916V68.46l-29.868-29.868v415.152c0,11.983-9.714,21.698-21.698,21.698
			H138.144v11.474c0,12.749,10.335,23.084,23.084,23.084H471.76C484.508,510,494.844,499.665,494.844,486.916z"/>
		<linearGradient id="SVGID_15_" gradientUnits="userSpaceOnUse" x1="387.4971" y1="122.13" x2="271.8606" y2="1.261">
			<stop  offset="0" style="stop-color:#FCB37E;stop-opacity:0"/>
			<stop  offset="1" style="stop-color:#FF7044"/>
		</linearGradient>
		<path style="fill:url(#SVGID_15_);" d="M376.331,18.184c-3.931-5.149-10.114-8.485-17.091-8.485H238.654
			c-11.881,0-21.512,9.631-21.512,21.512v1.891c0,6.978,3.337,13.161,8.485,17.091L428.825,253.39
			c3.93,5.149,10.113,8.485,17.091,8.485h48.928V136.697L376.331,18.184z"/>
		<g>
			<g>
				<linearGradient id="SVGID_16_" gradientUnits="userSpaceOnUse" x1="73.9596" y1="4.2283" x2="509.6057" y2="520.1969">
					<stop  offset="0" style="stop-color:#F9F7FC"/>
					<stop  offset="1" style="stop-color:#F0DDFC"/>
				</linearGradient>
				<path style="fill:url(#SVGID_16_);" d="M430.579,492.489H124.076V59.852c0-16.71,13.546-30.257,30.257-30.257H443.37
					c16.816,0,30.448,13.632,30.448,30.448V449.25C473.818,473.13,454.459,492.489,430.579,492.489z"/>
				<linearGradient id="SVGID_17_" gradientUnits="userSpaceOnUse" x1="325.3061" y1="287.542" x2="25.8005" y2="11.1798">
					<stop  offset="0" style="stop-color:#E9EDF5;stop-opacity:0"/>
					<stop  offset="1" style="stop-color:#FFFFFF"/>
				</linearGradient>
				<path style="fill:url(#SVGID_17_);" d="M173.927,49.189c-16.71,0-30.257,13.546-30.257,30.257v413.044h286.909
					c23.88,0,43.239-19.359,43.239-43.239V60.043c0-3.273-0.522-6.422-1.478-9.377c-2.954-0.956-6.104-1.478-9.377-1.478H173.927z"
					/>
				<linearGradient id="SVGID_18_" gradientUnits="userSpaceOnUse" x1="402.6362" y1="591.9545" x2="260.8054" y2="450.1237">
					<stop  offset="0" style="stop-color:#F0DDFC;stop-opacity:0"/>
					<stop  offset="0.2889" style="stop-color:#C8B7E0;stop-opacity:0.2889"/>
					<stop  offset="0.5915" style="stop-color:#A595C8;stop-opacity:0.5915"/>
					<stop  offset="0.8395" style="stop-color:#8F81B8;stop-opacity:0.8395"/>
					<stop  offset="1" style="stop-color:#8779B3"/>
				</linearGradient>
				<path style="fill:url(#SVGID_18_);" d="M464.975,475.442l-78.624-78.624c-1.65-2.452-4.451-4.066-7.629-4.066H124.076v99.738
					h306.503C444.611,492.489,457.076,485.8,464.975,475.442z"/>
				<linearGradient id="SVGID_19_" gradientUnits="userSpaceOnUse" x1="248.1764" y1="425.9543" x2="248.1764" y2="473.3545">
					<stop  offset="0" style="stop-color:#F9F7FC"/>
					<stop  offset="1" style="stop-color:#F0DDFC"/>
				</linearGradient>
				<path style="fill:url(#SVGID_19_);" d="M431.143,492.491H108.455c-23.892,0-43.245-19.366-43.245-43.245v-47.305
					c0-5.075,4.114-9.189,9.189-9.189h304.324c5.075,0,9.189,4.114,9.189,9.189v47.305
					C387.911,473.124,407.264,492.491,431.143,492.491z"/>
				<linearGradient id="SVGID_20_" gradientUnits="userSpaceOnUse" x1="432.4762" y1="491.7184" x2="434.6551" y2="493.8973">
					<stop  offset="0" style="stop-color:#F9F7FC"/>
					<stop  offset="1" style="stop-color:#F0DDFC"/>
				</linearGradient>
				<path style="fill:url(#SVGID_20_);" d="M435.169,492.307v0.184h-4.026C432.499,492.491,433.84,492.425,435.169,492.307z"/>
			</g>
			<g>
				<g>
					<path style="fill:#BEC3D2;" d="M309.533,369.052H179.626c-2.224,0-4.027-1.803-4.027-4.027v-11.914
						c0-2.224,1.803-4.027,4.027-4.027h129.907c2.224,0,4.027,1.803,4.027,4.027v11.914
						C313.56,367.249,311.757,369.052,309.533,369.052z"/>
					<path style="fill:#BEC3D2;" d="M374.205,369.052h-40.28c-2.224,0-4.027-1.803-4.027-4.027v-11.914
						c0-2.224,1.803-4.027,4.027-4.027h40.28c2.224,0,4.027,1.803,4.027,4.027v11.914
						C378.232,367.249,376.429,369.052,374.205,369.052z"/>
					<path style="fill:#BEC3D2;" d="M418.268,369.052H397.3c-2.224,0-4.027-1.803-4.027-4.027v-11.914
						c0-2.224,1.803-4.027,4.027-4.027h20.968c2.224,0,4.027,1.803,4.027,4.027v11.914
						C422.295,367.249,420.492,369.052,418.268,369.052z"/>
				</g>
				<g>
					<path style="fill:#BEC3D2;" d="M373.891,247.674H243.984c-2.224,0-4.027-1.803-4.027-4.027v-11.914
						c0-2.224,1.803-4.027,4.027-4.027h129.907c2.224,0,4.027,1.803,4.027,4.027v11.914
						C377.918,245.871,376.115,247.674,373.891,247.674z"/>
					<path style="fill:#BEC3D2;" d="M219.907,247.674h-40.28c-2.224,0-4.027-1.803-4.027-4.027v-11.914
						c0-2.224,1.803-4.027,4.027-4.027h40.28c2.224,0,4.027,1.803,4.027,4.027v11.914
						C223.934,245.871,222.131,247.674,219.907,247.674z"/>
					<path style="fill:#BEC3D2;" d="M418.268,247.674H397.3c-2.224,0-4.027-1.803-4.027-4.027v-11.914
						c0-2.224,1.803-4.027,4.027-4.027h20.968c2.224,0,4.027,1.803,4.027,4.027v11.914
						C422.295,245.871,420.492,247.674,418.268,247.674z"/>
				</g>
				<g>
					<path style="fill:#BEC3D2;" d="M288.361,167.018h129.907c2.224,0,4.027,1.803,4.027,4.027v11.914
						c0,2.224-1.803,4.027-4.027,4.027H288.361c-2.224,0-4.027-1.803-4.027-4.027v-11.914
						C284.334,168.821,286.137,167.018,288.361,167.018z"/>
					<path style="fill:#BEC3D2;" d="M223.689,167.018h40.28c2.224,0,4.027,1.803,4.027,4.027v11.914
						c0,2.224-1.803,4.027-4.027,4.027h-40.28c-2.224,0-4.027-1.803-4.027-4.027v-11.914
						C219.662,168.821,221.465,167.018,223.689,167.018z"/>
					<path style="fill:#BEC3D2;" d="M179.626,167.018h20.968c2.224,0,4.027,1.803,4.027,4.027v11.914
						c0,2.224-1.803,4.027-4.027,4.027h-20.968c-2.224,0-4.027-1.803-4.027-4.027v-11.914
						C175.599,168.821,177.402,167.018,179.626,167.018z"/>
				</g>
				<g>
					<path style="fill:#BEC3D2;" d="M224.003,288.395H353.91c2.224,0,4.027,1.803,4.027,4.027v11.914
						c0,2.224-1.803,4.027-4.027,4.027H224.003c-2.224,0-4.027-1.803-4.027-4.027v-11.914
						C219.976,290.198,221.779,288.395,224.003,288.395z"/>
					<path style="fill:#BEC3D2;" d="M377.988,288.395h40.28c2.224,0,4.027,1.803,4.027,4.027v11.914
						c0,2.224-1.803,4.027-4.027,4.027h-40.28c-2.224,0-4.027-1.803-4.027-4.027v-11.914
						C373.961,290.198,375.764,288.395,377.988,288.395z"/>
					<path style="fill:#BEC3D2;" d="M179.626,288.395h20.968c2.224,0,4.027,1.803,4.027,4.027v11.914
						c0,2.224-1.803,4.027-4.027,4.027h-20.968c-2.224,0-4.027-1.803-4.027-4.027v-11.914
						C175.599,290.198,177.402,288.395,179.626,288.395z"/>
				</g>
			</g>
		</g>
		<linearGradient id="SVGID_21_" gradientUnits="userSpaceOnUse" x1="355.6641" y1="103.8734" x2="303.3398" y2="-37.7508">
			<stop  offset="0" style="stop-color:#F0DDFC;stop-opacity:0"/>
			<stop  offset="0.2889" style="stop-color:#C8B7E0;stop-opacity:0.2889"/>
			<stop  offset="0.5915" style="stop-color:#A595C8;stop-opacity:0.5915"/>
			<stop  offset="0.8395" style="stop-color:#8F81B8;stop-opacity:0.8395"/>
			<stop  offset="1" style="stop-color:#8779B3"/>
		</linearGradient>
		<path style="fill:url(#SVGID_21_);" d="M473.818,261.876V115.671l-86.076-86.076H217.224c-0.04,0.535-0.082,1.071-0.082,1.616
			v1.891c0,6.978,3.337,13.161,8.485,17.091L428.825,253.39c3.93,5.149,10.113,8.485,17.091,8.485H473.818z"/>
		<path style="fill:#555A66;" d="M348.108,81.47h-98.323c-13.334,0-24.183-10.849-24.183-24.184V25.595h146.689v31.691
			C372.292,70.622,361.443,81.47,348.108,81.47z M233.603,33.595v23.691c0,8.924,7.26,16.184,16.183,16.184h98.323
			c8.924,0,16.184-7.26,16.184-16.184V33.595H233.603z"/>
		<g>
			<linearGradient id="SVGID_22_" gradientUnits="userSpaceOnUse" x1="297.5303" y1="14.3034" x2="301.0186" y2="58.2558">
				<stop  offset="0" style="stop-color:#18CFFC"/>
				<stop  offset="1" style="stop-color:#4A98F7"/>
			</linearGradient>
			<path style="fill:url(#SVGID_22_);" d="M359.24,54.614H238.654c-11.881,0-21.512-9.631-21.512-21.512v-1.891
				c0-11.881,9.631-21.512,21.512-21.512H359.24c11.881,0,21.512,9.631,21.512,21.512v1.891
				C380.752,44.983,371.121,54.614,359.24,54.614z"/>
			<linearGradient id="SVGID_23_" gradientUnits="userSpaceOnUse" x1="307.615" y1="42.0317" x2="249.0119" y2="-31.9198">
				<stop  offset="0" style="stop-color:#18CFFC;stop-opacity:0"/>
				<stop  offset="1" style="stop-color:#65E1DC"/>
			</linearGradient>
			<path style="fill:url(#SVGID_23_);" d="M246.771,17.815c-11.881,0-21.512,9.631-21.512,21.512v1.891
				c0,3.855,1.027,7.464,2.803,10.593c3.129,1.776,6.739,2.802,10.593,2.802H359.24c11.881,0,21.512-9.631,21.512-21.512v-1.891
				c0-3.855-1.027-7.464-2.803-10.594c-3.129-1.776-6.738-2.803-10.593-2.803H246.771z"/>
			<linearGradient id="SVGID_24_" gradientUnits="userSpaceOnUse" x1="307.8826" y1="22.6802" x2="326.0218" y2="-54.0622">
				<stop  offset="0" style="stop-color:#0469BC;stop-opacity:0"/>
				<stop  offset="1" style="stop-color:#0469BC"/>
			</linearGradient>
			<path style="fill:url(#SVGID_24_);" d="M359.24,9.699h-2.167c0.672,2.593,1.031,5.313,1.031,8.116l0,0
				c0,17.819-14.445,32.264-32.264,32.264H225.476c3.643,2.832,8.207,4.535,13.179,4.535H359.24
				c11.881,0,21.512-9.631,21.512-21.512v-1.891C380.752,19.33,371.121,9.699,359.24,9.699z"/>
		</g>
	</g>
</g>
<g>
</g>
<g>
</g>
<g>
</g>
<g>
</g>
<g>
</g>
<g>
</g>
<g>
</g>
<g>
</g>
<g>
</g>
<g>
</g>
<g>
</g>
<g>
</g>
<g>
</g>
<g>
</g>
<g>
</g>
</svg>
