<?xml version="1.0" encoding="iso-8859-1"?>
<!-- Generator: Adobe Illustrator 22.0.0, SVG Export Plug-In . SVG Version: 6.00 Build 0)  -->
<svg version="1.1" id="Capa_1" xmlns="http://www.w3.org/2000/svg" xmlns:xlink="http://www.w3.org/1999/xlink" x="0px" y="0px"
	 viewBox="0 0 510 510" style="enable-background:new 0 0 510 510;" xml:space="preserve">
<g>
	<linearGradient id="SVGID_1_" gradientUnits="userSpaceOnUse" x1="117.2771" y1="106.6328" x2="543.7432" y2="544.8638">
		<stop  offset="0" style="stop-color:#18CFFC"/>
		<stop  offset="1" style="stop-color:#4A98F7"/>
	</linearGradient>
	<path style="fill:url(#SVGID_1_);" d="M437.712,510H95.345c-21.664,0-39.225-17.562-39.225-39.225V39.225
		C56.12,17.562,73.681,0,95.345,0h342.367c8.929,0,16.168,7.239,16.168,16.168v477.665C453.88,502.762,446.642,510,437.712,510z"/>
	<linearGradient id="SVGID_2_" gradientUnits="userSpaceOnUse" x1="300.7236" y1="580.7212" x2="236.7239" y2="384.7213">
		<stop  offset="0" style="stop-color:#0469BC;stop-opacity:0"/>
		<stop  offset="1" style="stop-color:#0469BC"/>
	</linearGradient>
	<path style="fill:url(#SVGID_2_);" d="M453.88,493.832v-89.499v0c0,15.031-12.185,27.216-27.216,27.216H95.345
		c-21.664,0-39.225,17.562-39.225,39.225l0,0C56.12,492.438,73.681,510,95.345,510h342.367
		C446.642,510,453.88,502.762,453.88,493.832z"/>
	<linearGradient id="SVGID_3_" gradientUnits="userSpaceOnUse" x1="114.756" y1="96.0741" x2="502.5475" y2="494.5635">
		<stop  offset="0" style="stop-color:#18CFFC"/>
		<stop  offset="1" style="stop-color:#4A98F7"/>
	</linearGradient>
	<path style="fill:url(#SVGID_3_);" d="M95.345,0C73.681,0,56.12,17.562,56.12,39.225v431.549c0-21.664,17.562-39.225,39.225-39.225
		h342.367c8.929,0,16.168-7.238,16.168-16.168V16.168C453.88,7.239,446.642,0,437.712,0H95.345z"/>
	<linearGradient id="SVGID_4_" gradientUnits="userSpaceOnUse" x1="285.6119" y1="374.2254" x2="504.6011" y2="-23.2546">
		<stop  offset="0" style="stop-color:#18CFFC;stop-opacity:0"/>
		<stop  offset="1" style="stop-color:#65E1DC"/>
	</linearGradient>
	<path style="fill:url(#SVGID_4_);" d="M444.858,1.681c0.964,2.071,1.517,4.371,1.517,6.806v399.214
		c0,8.929-7.238,16.168-16.168,16.168H87.84c-13.041,0-24.588,6.369-31.72,16.161v30.745c0-21.664,17.562-39.225,39.225-39.225
		h342.368c8.929,0,16.168-7.238,16.168-16.168V16.168C453.88,9.807,450.198,4.321,444.858,1.681z"/>
	<linearGradient id="SVGID_5_" gradientUnits="userSpaceOnUse" x1="253.5644" y1="450" x2="253.5644" y2="499.5536">
		<stop  offset="0" style="stop-color:#F9F7FC"/>
		<stop  offset="1" style="stop-color:#F0DDFC"/>
	</linearGradient>
	<path style="fill:url(#SVGID_5_);" d="M425.65,500.495H97.979c-16.414,0-29.721-13.306-29.721-29.721l0,0
		c0-16.414,13.306-29.721,29.721-29.721h340.892v46.221C438.871,494.576,432.952,500.495,425.65,500.495z"/>
	<linearGradient id="SVGID_6_" gradientUnits="userSpaceOnUse" x1="254.7058" y1="501.0827" x2="257.3725" y2="432.4154">
		<stop  offset="0" style="stop-color:#F0DDFC;stop-opacity:0"/>
		<stop  offset="0.2889" style="stop-color:#C8B7E0;stop-opacity:0.2889"/>
		<stop  offset="0.5915" style="stop-color:#A595C8;stop-opacity:0.5915"/>
		<stop  offset="0.8395" style="stop-color:#8F81B8;stop-opacity:0.8395"/>
		<stop  offset="1" style="stop-color:#8779B3"/>
	</linearGradient>
	<path style="fill:url(#SVGID_6_);" d="M71.704,484.667c4.988,9.413,14.88,15.829,26.274,15.829H425.65
		c7.302,0,13.221-5.919,13.221-13.22v-2.608H71.704z"/>
	<linearGradient id="SVGID_7_" gradientUnits="userSpaceOnUse" x1="253.5644" y1="485.3334" x2="253.5644" y2="450.6669">
		<stop  offset="0" style="stop-color:#F0DDFC;stop-opacity:0"/>
		<stop  offset="0.2889" style="stop-color:#C8B7E0;stop-opacity:0.2889"/>
		<stop  offset="0.5915" style="stop-color:#A595C8;stop-opacity:0.5915"/>
		<stop  offset="0.8395" style="stop-color:#8F81B8;stop-opacity:0.8395"/>
		<stop  offset="1" style="stop-color:#8779B3"/>
	</linearGradient>
	<path style="fill:url(#SVGID_7_);" d="M97.979,500.495H425.65c7.302,0,13.221-5.919,13.221-13.22v-16.5H68.258l0,0
		C68.258,487.189,81.564,500.495,97.979,500.495z"/>
	<linearGradient id="SVGID_8_" gradientUnits="userSpaceOnUse" x1="253.8867" y1="467.9429" x2="254.5534" y2="445.2761">
		<stop  offset="0" style="stop-color:#F0DDFC;stop-opacity:0"/>
		<stop  offset="0.2889" style="stop-color:#C8B7E0;stop-opacity:0.2889"/>
		<stop  offset="0.5915" style="stop-color:#A595C8;stop-opacity:0.5915"/>
		<stop  offset="0.8395" style="stop-color:#8F81B8;stop-opacity:0.8395"/>
		<stop  offset="1" style="stop-color:#8779B3"/>
	</linearGradient>
	<path style="fill:url(#SVGID_8_);" d="M71.559,457.167c-2.105,4.078-3.301,8.702-3.301,13.608l0,0
		c0,16.414,13.306,29.721,29.721,29.721H425.65c7.302,0,13.221-5.919,13.221-13.22v-30.108H71.559z"/>
	<linearGradient id="SVGID_9_" gradientUnits="userSpaceOnUse" x1="125.4952" y1="215.7746" x2="103.4045" y2="215.7746">
		<stop  offset="0" style="stop-color:#18CFFC"/>
		<stop  offset="1" style="stop-color:#4A98F7"/>
	</linearGradient>
	<rect x="109.593" style="fill:url(#SVGID_9_);" width="13.224" height="431.549"/>
	<linearGradient id="SVGID_10_" gradientUnits="userSpaceOnUse" x1="174.4132" y1="511.0156" x2="162.1632" y2="462.7657">
		<stop  offset="0" style="stop-color:#F0DDFC;stop-opacity:0"/>
		<stop  offset="0.2889" style="stop-color:#C8B7E0;stop-opacity:0.2889"/>
		<stop  offset="0.5915" style="stop-color:#A595C8;stop-opacity:0.5915"/>
		<stop  offset="0.8395" style="stop-color:#8F81B8;stop-opacity:0.8395"/>
		<stop  offset="1" style="stop-color:#8779B3"/>
	</linearGradient>
	<polygon style="fill:url(#SVGID_10_);" points="183.328,457.167 235.453,509.292 112.498,509.292 112.498,457.167 	"/>
	<linearGradient id="SVGID_11_" gradientUnits="userSpaceOnUse" x1="129.7103" y1="461.1854" x2="179.6067" y2="526.0912">
		<stop  offset="0" style="stop-color:#FF7044"/>
		<stop  offset="1" style="stop-color:#F92814"/>
	</linearGradient>
	<path style="fill:url(#SVGID_11_);" d="M109.593,457.167v50.982c0,1.494,1.68,2.371,2.905,1.517l30.467-21.228
		c2.1-1.464,4.89-1.464,6.99,0l30.467,21.228c1.226,0.854,2.905-0.023,2.905-1.517v-50.982H109.593z"/>
	<linearGradient id="SVGID_12_" gradientUnits="userSpaceOnUse" x1="305.9965" y1="248.3998" x2="76.9106" y2="-55.6594">
		<stop  offset="0" style="stop-color:#18CFFC;stop-opacity:0"/>
		<stop  offset="1" style="stop-color:#65E1DC"/>
	</linearGradient>
	<rect x="122.817" y="12.471" style="fill:url(#SVGID_12_);" width="318.654" height="408.538"/>
	<g>
		<linearGradient id="SVGID_13_" gradientUnits="userSpaceOnUse" x1="300.1232" y1="196.9137" x2="226.0335" y2="2.1293">
			<stop  offset="0" style="stop-color:#18CFFC"/>
			<stop  offset="1" style="stop-color:#4A98F7"/>
		</linearGradient>
		<path style="fill:url(#SVGID_13_);" d="M375.68,193.262H188.606c-9.928,0-17.976-8.048-17.976-17.977v-51.282
			c0-9.928,8.048-17.976,17.976-17.976H375.68c9.928,0,17.977,8.048,17.977,17.976v51.282
			C393.657,185.213,385.608,193.262,375.68,193.262z"/>
		<linearGradient id="SVGID_14_" gradientUnits="userSpaceOnUse" x1="280.2492" y1="125.9673" x2="285.0292" y2="185.7173">
			<stop  offset="0" style="stop-color:#F9F7FC"/>
			<stop  offset="1" style="stop-color:#F0DDFC"/>
		</linearGradient>
		<path style="fill:url(#SVGID_14_);" d="M371.527,185.688H192.76c-8.768,0-15.876-7.108-15.876-15.877v-40.334
			c0-8.768,7.108-15.877,15.876-15.877h178.767c8.768,0,15.876,7.108,15.876,15.877v40.334
			C387.403,178.58,380.295,185.688,371.527,185.688z"/>
	</g>
</g>
<g>
</g>
<g>
</g>
<g>
</g>
<g>
</g>
<g>
</g>
<g>
</g>
<g>
</g>
<g>
</g>
<g>
</g>
<g>
</g>
<g>
</g>
<g>
</g>
<g>
</g>
<g>
</g>
<g>
</g>
</svg>
