<?xml version="1.0" encoding="iso-8859-1"?>
<!-- Generator: Adobe Illustrator 22.0.0, SVG Export Plug-In . SVG Version: 6.00 Build 0)  -->
<svg version="1.1" id="Capa_1" xmlns="http://www.w3.org/2000/svg" xmlns:xlink="http://www.w3.org/1999/xlink" x="0px" y="0px"
	 viewBox="0 0 510 510" style="enable-background:new 0 0 510 510;" xml:space="preserve">
<g>
	<linearGradient id="SVGID_1_" gradientUnits="userSpaceOnUse" x1="229.1447" y1="319.6892" x2="342.4638" y2="548.019">
		<stop  offset="0" style="stop-color:#7E8595"/>
		<stop  offset="1" style="stop-color:#555A66"/>
	</linearGradient>
	<path style="fill:url(#SVGID_1_);" d="M424.412,510H133.583c-16.364,0-29.63-13.266-29.63-29.63V359.91
		c0-16.364,13.266-29.63,29.63-29.63h290.829c16.364,0,29.63,13.266,29.63,29.63v120.46C454.043,496.734,440.777,510,424.412,510z"
		/>
	<linearGradient id="SVGID_2_" gradientUnits="userSpaceOnUse" x1="252.652" y1="457.9579" x2="72.2396" y2="616.4758">
		<stop  offset="0" style="stop-color:#BEC3D2;stop-opacity:0"/>
		<stop  offset="0.221" style="stop-color:#C5C9D7;stop-opacity:0.221"/>
		<stop  offset="0.5343" style="stop-color:#D7DAE3;stop-opacity:0.5343"/>
		<stop  offset="0.9014" style="stop-color:#F6F6F8;stop-opacity:0.9014"/>
		<stop  offset="1" style="stop-color:#FFFFFF"/>
	</linearGradient>
	<path style="fill:url(#SVGID_2_);" d="M149.201,345.897c-16.364,0-29.63,13.266-29.63,29.63v120.46
		c0,4.132,0.848,8.065,2.376,11.638c3.573,1.527,7.506,2.375,11.638,2.375h290.829c16.364,0,29.63-13.266,29.63-29.63V359.91
		c0-4.132-0.848-8.065-2.376-11.638c-3.573-1.528-7.506-2.376-11.638-2.376H149.201z"/>
	<linearGradient id="SVGID_3_" gradientUnits="userSpaceOnUse" x1="319.9738" y1="482.9449" x2="307.3057" y2="401.3936">
		<stop  offset="0" style="stop-color:#555A66;stop-opacity:0"/>
		<stop  offset="1" style="stop-color:#555A66"/>
	</linearGradient>
	<path style="fill:url(#SVGID_3_);" d="M424.412,330.28H142.719L322.439,510h101.974c16.364,0,29.63-13.266,29.63-29.63V359.91
		C454.043,343.546,440.777,330.28,424.412,330.28z"/>
	<linearGradient id="SVGID_4_" gradientUnits="userSpaceOnUse" x1="396.6776" y1="360.1212" x2="461.8204" y2="491.3794">
		<stop  offset="0" style="stop-color:#7E8595"/>
		<stop  offset="1" style="stop-color:#555A66;stop-opacity:0"/>
	</linearGradient>
	<path style="fill:url(#SVGID_4_);" d="M424.412,330.28h-14.276c16.364,0,29.63,13.266,29.63,29.63v120.46
		c0,16.364-13.266,29.63-29.63,29.63h14.276c16.364,0,29.63-13.266,29.63-29.63V359.91
		C454.043,343.546,440.777,330.28,424.412,330.28z"/>
	<g>
		<g>
			<radialGradient id="SVGID_5_" cx="214.4353" cy="100.5208" r="274.6198" gradientUnits="userSpaceOnUse">
				<stop  offset="0" style="stop-color:#FFDA45"/>
				<stop  offset="0.3043" style="stop-color:#FFCE3E"/>
				<stop  offset="0.8558" style="stop-color:#FFAE2B"/>
				<stop  offset="1" style="stop-color:#FFA425"/>
			</radialGradient>
			<circle style="fill:url(#SVGID_5_);" cx="278.998" cy="193.262" r="193.262"/>
			<linearGradient id="SVGID_6_" gradientUnits="userSpaceOnUse" x1="300.577" y1="214.8407" x2="104.5412" y2="18.805">
				<stop  offset="0" style="stop-color:#FFDA45;stop-opacity:0"/>
				<stop  offset="1" style="stop-color:#FCEE21"/>
			</linearGradient>
			<circle style="fill:url(#SVGID_6_);" cx="278.998" cy="193.262" r="180.79"/>
			<linearGradient id="SVGID_7_" gradientUnits="userSpaceOnUse" x1="285.7095" y1="267.3293" x2="551.357" y2="-226.7378">
				<stop  offset="0" style="stop-color:#FFDA45;stop-opacity:0"/>
				<stop  offset="1" style="stop-color:#B53759"/>
			</linearGradient>
			<path style="fill:url(#SVGID_7_);" d="M365.45,20.382c13.034,26.015,20.382,55.373,20.382,86.452
				c0,106.735-86.526,193.262-193.262,193.262c-31.079,0-60.437-7.347-86.452-20.382c31.731,63.329,97.223,106.81,172.88,106.81
				c106.735,0,193.262-86.526,193.262-193.262C472.26,117.605,428.779,52.113,365.45,20.382z"/>
		</g>
		<linearGradient id="SVGID_8_" gradientUnits="userSpaceOnUse" x1="371.5098" y1="285.7858" x2="257.7391" y2="172.0151">
			<stop  offset="0" style="stop-color:#FFDA45;stop-opacity:0"/>
			<stop  offset="0.5194" style="stop-color:#D9874F;stop-opacity:0.5194"/>
			<stop  offset="1" style="stop-color:#B53759"/>
		</linearGradient>
		<path style="fill:url(#SVGID_8_);" d="M440.822,298.933L308.546,166.656c-7.278-8.078-18.819-11.159-30.548-11.159
			c-21.961,0-37.764,16.803-37.764,38.764c0,11.73,4.081,21.27,12.16,28.549l132.276,132.276
			C407.039,340.449,426.185,321.302,440.822,298.933z"/>
		<g>
			<linearGradient id="SVGID_9_" gradientUnits="userSpaceOnUse" x1="264.1199" y1="178.3837" x2="315.6211" y2="229.8848">
				<stop  offset="0" style="stop-color:#F9F7FC"/>
				<stop  offset="1" style="stop-color:#F0DDFC"/>
			</linearGradient>
			<circle style="fill:url(#SVGID_9_);" cx="278.998" cy="193.262" r="39.764"/>
			<linearGradient id="SVGID_10_" gradientUnits="userSpaceOnUse" x1="283.7688" y1="200.0255" x2="259.234" y2="165.242">
				<stop  offset="0" style="stop-color:#E9EDF5;stop-opacity:0"/>
				<stop  offset="1" style="stop-color:#FFFFFF"/>
			</linearGradient>
			<circle style="fill:url(#SVGID_10_);" cx="278.998" cy="193.262" r="33.187"/>
			<linearGradient id="SVGID_11_" gradientUnits="userSpaceOnUse" x1="284.4106" y1="201.0027" x2="339.0686" y2="99.3466">
				<stop  offset="0" style="stop-color:#F0DDFC;stop-opacity:0"/>
				<stop  offset="0.2889" style="stop-color:#C8B7E0;stop-opacity:0.2889"/>
				<stop  offset="0.5915" style="stop-color:#A595C8;stop-opacity:0.5915"/>
				<stop  offset="0.8395" style="stop-color:#8F81B8;stop-opacity:0.8395"/>
				<stop  offset="1" style="stop-color:#8779B3"/>
			</linearGradient>
			<path style="fill:url(#SVGID_11_);" d="M296.786,157.691c2.682,5.353,4.194,11.393,4.194,17.788
				c0,21.961-17.803,39.764-39.764,39.764c-6.395,0-12.435-1.512-17.788-4.194c6.529,13.03,20.004,21.977,35.571,21.977
				c21.961,0,39.764-17.803,39.764-39.764C318.762,177.695,309.816,164.22,296.786,157.691z"/>
		</g>
	</g>
	<radialGradient id="SVGID_12_" cx="261.6244" cy="203.3233" r="233.6278" gradientUnits="userSpaceOnUse">
		<stop  offset="0" style="stop-color:#FFDA45"/>
		<stop  offset="0.509" style="stop-color:#FFD844"/>
		<stop  offset="0.6924" style="stop-color:#FFD140"/>
		<stop  offset="0.823" style="stop-color:#FFC639"/>
		<stop  offset="0.9279" style="stop-color:#FFB52F"/>
		<stop  offset="1" style="stop-color:#FFA425"/>
	</radialGradient>
	<path style="fill:url(#SVGID_12_);" d="M278.998,421.009c-125.58,0-227.747-102.167-227.747-227.747h17.284
		c0,116.05,94.413,210.464,210.464,210.464V421.009z"/>
	<linearGradient id="SVGID_13_" gradientUnits="userSpaceOnUse" x1="67.1477" y1="246.2499" x2="60.0225" y2="203.4983">
		<stop  offset="0" style="stop-color:#FFDA45;stop-opacity:0"/>
		<stop  offset="1" style="stop-color:#B53759"/>
	</linearGradient>
	<path style="fill:url(#SVGID_13_);" d="M68.534,193.262H51.25c0,20.582,2.761,40.529,7.903,59.507h17.961
		C71.541,233.891,68.534,213.922,68.534,193.262z"/>
	<g>
		<radialGradient id="SVGID_14_" cx="51.794" cy="183.1349" r="29.9877" gradientUnits="userSpaceOnUse">
			<stop  offset="0" style="stop-color:#FFDA45"/>
			<stop  offset="0.3043" style="stop-color:#FFCE3E"/>
			<stop  offset="0.8558" style="stop-color:#FFAE2B"/>
			<stop  offset="1" style="stop-color:#FFA425"/>
		</radialGradient>
		<circle style="fill:url(#SVGID_14_);" cx="58.844" cy="193.262" r="21.104"/>
		<linearGradient id="SVGID_15_" gradientUnits="userSpaceOnUse" x1="60.9463" y1="195.3642" x2="41.8483" y2="176.2661">
			<stop  offset="0" style="stop-color:#FFDA45;stop-opacity:0"/>
			<stop  offset="1" style="stop-color:#FCEE21"/>
		</linearGradient>
		<circle style="fill:url(#SVGID_15_);" cx="58.844" cy="193.262" r="17.613"/>
		<linearGradient id="SVGID_16_" gradientUnits="userSpaceOnUse" x1="59.577" y1="201.3499" x2="88.585" y2="147.3991">
			<stop  offset="0" style="stop-color:#FFDA45;stop-opacity:0"/>
			<stop  offset="1" style="stop-color:#B53759"/>
		</linearGradient>
		<path style="fill:url(#SVGID_16_);" d="M68.284,174.384c1.423,2.841,2.226,6.047,2.226,9.44c0,11.655-9.448,21.104-21.104,21.104
			c-3.394,0-6.6-0.802-9.44-2.226c3.465,6.915,10.616,11.663,18.878,11.663c11.655,0,21.104-9.448,21.104-21.104
			C79.948,185,75.2,177.849,68.284,174.384z"/>
	</g>
	<g>
		<linearGradient id="SVGID_17_" gradientUnits="userSpaceOnUse" x1="278.7712" y1="467.7013" x2="279.2574" y2="440.9593">
			<stop  offset="0" style="stop-color:#7E8595"/>
			<stop  offset="1" style="stop-color:#555A66"/>
		</linearGradient>
		<path style="fill:url(#SVGID_17_);" d="M345.523,462.361H212.472c-3.937,0-7.128-3.191-7.128-7.128l0,0
			c0-3.937,3.191-7.128,7.128-7.128h133.051c3.936,0,7.128,3.191,7.128,7.128l0,0C352.651,459.17,349.46,462.361,345.523,462.361z"
			/>
		<linearGradient id="SVGID_18_" gradientUnits="userSpaceOnUse" x1="278.7712" y1="494.3506" x2="279.2574" y2="467.6086">
			<stop  offset="0" style="stop-color:#7E8595"/>
			<stop  offset="1" style="stop-color:#555A66"/>
		</linearGradient>
		<path style="fill:url(#SVGID_18_);" d="M345.523,489.01H212.472c-3.937,0-7.128-3.191-7.128-7.128v0
			c0-3.936,3.191-7.128,7.128-7.128h133.051c3.936,0,7.128,3.191,7.128,7.128v0C352.651,485.819,349.46,489.01,345.523,489.01z"/>
	</g>
	<linearGradient id="SVGID_19_" gradientUnits="userSpaceOnUse" x1="335.3361" y1="463.6264" x2="284.493" y2="345.2928">
		<stop  offset="0" style="stop-color:#555A66;stop-opacity:0"/>
		<stop  offset="1" style="stop-color:#555A66"/>
	</linearGradient>
	<path style="fill:url(#SVGID_19_);" d="M424.412,510c3.669,0,7.18-0.672,10.423-1.891L318.703,391.976
		c-1.203-2.012-3.38-3.372-5.895-3.372h-67.621c-3.805,0-6.889,3.084-6.889,6.889v28.008c0,1.137,0.29,2.199,0.782,3.14L322.439,510
		H424.412z"/>
	
		<linearGradient id="SVGID_20_" gradientUnits="userSpaceOnUse" x1="267.4065" y1="404.1526" x2="293.7543" y2="457.2415" gradientTransform="matrix(1 0 0 1 0 -18.0113)">
		<stop  offset="0" style="stop-color:#7E8595"/>
		<stop  offset="1" style="stop-color:#555A66"/>
	</linearGradient>
	<path style="fill:url(#SVGID_20_);" d="M312.808,430.39h-67.62c-3.805,0-6.889-3.084-6.889-6.889v-28.008
		c0-3.805,3.084-6.889,6.889-6.889h67.62c3.805,0,6.889,3.084,6.889,6.889v28.008C319.697,427.306,316.613,430.39,312.808,430.39z"
		/>
	<linearGradient id="SVGID_21_" gradientUnits="userSpaceOnUse" x1="291.7791" y1="139.4731" x2="256.6367" y2="-9.3856">
		<stop  offset="0" style="stop-color:#FFDA45;stop-opacity:0"/>
		<stop  offset="1" style="stop-color:#FFFFFF"/>
	</linearGradient>
	<ellipse style="fill:url(#SVGID_21_);" cx="278.998" cy="85.333" rx="117.269" ry="68.164"/>
</g>
<g>
</g>
<g>
</g>
<g>
</g>
<g>
</g>
<g>
</g>
<g>
</g>
<g>
</g>
<g>
</g>
<g>
</g>
<g>
</g>
<g>
</g>
<g>
</g>
<g>
</g>
<g>
</g>
<g>
</g>
</svg>
